%TF.GenerationSoftware,KiCad,Pcbnew,9.0.6*%
%TF.CreationDate,2025-12-26T21:42:15+01:00*%
%TF.ProjectId,esc,6573632e-6b69-4636-9164-5f7063625858,rev?*%
%TF.SameCoordinates,Original*%
%TF.FileFunction,Copper,L1,Top*%
%TF.FilePolarity,Positive*%
%FSLAX46Y46*%
G04 Gerber Fmt 4.6, Leading zero omitted, Abs format (unit mm)*
G04 Created by KiCad (PCBNEW 9.0.6) date 2025-12-26 21:42:15*
%MOMM*%
%LPD*%
G01*
G04 APERTURE LIST*
G04 Aperture macros list*
%AMRoundRect*
0 Rectangle with rounded corners*
0 $1 Rounding radius*
0 $2 $3 $4 $5 $6 $7 $8 $9 X,Y pos of 4 corners*
0 Add a 4 corners polygon primitive as box body*
4,1,4,$2,$3,$4,$5,$6,$7,$8,$9,$2,$3,0*
0 Add four circle primitives for the rounded corners*
1,1,$1+$1,$2,$3*
1,1,$1+$1,$4,$5*
1,1,$1+$1,$6,$7*
1,1,$1+$1,$8,$9*
0 Add four rect primitives between the rounded corners*
20,1,$1+$1,$2,$3,$4,$5,0*
20,1,$1+$1,$4,$5,$6,$7,0*
20,1,$1+$1,$6,$7,$8,$9,0*
20,1,$1+$1,$8,$9,$2,$3,0*%
G04 Aperture macros list end*
%TA.AperFunction,SMDPad,CuDef*%
%ADD10R,0.300000X0.320000*%
%TD*%
%TA.AperFunction,SMDPad,CuDef*%
%ADD11R,0.280000X0.660000*%
%TD*%
%TA.AperFunction,SMDPad,CuDef*%
%ADD12R,0.660000X0.280000*%
%TD*%
%TA.AperFunction,SMDPad,CuDef*%
%ADD13R,2.550000X2.550000*%
%TD*%
%TA.AperFunction,SMDPad,CuDef*%
%ADD14RoundRect,0.750000X-2.250000X-1.750000X2.250000X-1.750000X2.250000X1.750000X-2.250000X1.750000X0*%
%TD*%
%TA.AperFunction,SMDPad,CuDef*%
%ADD15R,0.370000X0.320000*%
%TD*%
%TA.AperFunction,SMDPad,CuDef*%
%ADD16R,2.000000X2.000000*%
%TD*%
%TA.AperFunction,SMDPad,CuDef*%
%ADD17R,0.320000X0.300000*%
%TD*%
%TA.AperFunction,SMDPad,CuDef*%
%ADD18R,0.800000X0.400000*%
%TD*%
%TA.AperFunction,SMDPad,CuDef*%
%ADD19R,2.100000X2.400000*%
%TD*%
%TA.AperFunction,SMDPad,CuDef*%
%ADD20R,1.410000X1.350000*%
%TD*%
%TA.AperFunction,SMDPad,CuDef*%
%ADD21RoundRect,0.140000X-0.170000X0.140000X-0.170000X-0.140000X0.170000X-0.140000X0.170000X0.140000X0*%
%TD*%
%TA.AperFunction,SMDPad,CuDef*%
%ADD22R,0.600000X0.500000*%
%TD*%
%TA.AperFunction,SMDPad,CuDef*%
%ADD23R,0.500000X0.600000*%
%TD*%
%TA.AperFunction,SMDPad,CuDef*%
%ADD24R,0.200000X0.850000*%
%TD*%
%TA.AperFunction,SMDPad,CuDef*%
%ADD25R,0.850000X0.200000*%
%TD*%
%TA.AperFunction,SMDPad,CuDef*%
%ADD26R,2.400000X2.400000*%
%TD*%
%TA.AperFunction,SMDPad,CuDef*%
%ADD27RoundRect,0.248889X-0.626111X0.311111X-0.626111X-0.311111X0.626111X-0.311111X0.626111X0.311111X0*%
%TD*%
%TA.AperFunction,SMDPad,CuDef*%
%ADD28C,1.500000*%
%TD*%
%TA.AperFunction,SMDPad,CuDef*%
%ADD29R,0.320000X0.370000*%
%TD*%
%TA.AperFunction,SMDPad,CuDef*%
%ADD30R,2.000000X0.850000*%
%TD*%
%TA.AperFunction,SMDPad,CuDef*%
%ADD31RoundRect,0.225000X-0.225000X-0.250000X0.225000X-0.250000X0.225000X0.250000X-0.225000X0.250000X0*%
%TD*%
%TA.AperFunction,SMDPad,CuDef*%
%ADD32RoundRect,0.140000X-0.140000X-0.170000X0.140000X-0.170000X0.140000X0.170000X-0.140000X0.170000X0*%
%TD*%
%TA.AperFunction,SMDPad,CuDef*%
%ADD33R,0.900000X0.800000*%
%TD*%
%TA.AperFunction,SMDPad,CuDef*%
%ADD34R,0.650000X0.450000*%
%TD*%
%TA.AperFunction,SMDPad,CuDef*%
%ADD35R,1.100000X1.900000*%
%TD*%
%TA.AperFunction,SMDPad,CuDef*%
%ADD36R,2.000000X1.800000*%
%TD*%
%TA.AperFunction,SMDPad,CuDef*%
%ADD37R,0.600000X1.550000*%
%TD*%
%TA.AperFunction,SMDPad,CuDef*%
%ADD38R,1.500000X2.000000*%
%TD*%
%TA.AperFunction,ViaPad*%
%ADD39C,0.400000*%
%TD*%
%TA.AperFunction,ViaPad*%
%ADD40C,6.000000*%
%TD*%
%TA.AperFunction,ViaPad*%
%ADD41C,0.600000*%
%TD*%
%TA.AperFunction,Conductor*%
%ADD42C,0.125000*%
%TD*%
%TA.AperFunction,Conductor*%
%ADD43C,0.500000*%
%TD*%
%TA.AperFunction,Conductor*%
%ADD44C,0.250000*%
%TD*%
%TA.AperFunction,Conductor*%
%ADD45C,0.200000*%
%TD*%
G04 APERTURE END LIST*
D10*
%TO.P,R55,1,1*%
%TO.N,/GND*%
X143415000Y-99000000D03*
%TO.P,R55,2,2*%
%TO.N,Net-(Q16-G)*%
X142935000Y-99000000D03*
%TD*%
D11*
%TO.P,U17,1,LIN1*%
%TO.N,/ESC4/LI1*%
X158950000Y-96410000D03*
%TO.P,U17,2,LIN2*%
%TO.N,/ESC4/LI2*%
X159450000Y-96410000D03*
%TO.P,U17,3,LIN3*%
%TO.N,/ESC4/LI3*%
X159950000Y-96410000D03*
%TO.P,U17,4,VCC*%
%TO.N,/+8V*%
X160450000Y-96410000D03*
%TO.P,U17,5,NC*%
%TO.N,unconnected-(U17-NC-Pad5)*%
X160950000Y-96410000D03*
%TO.P,U17,6,COM*%
%TO.N,/GND*%
X161450000Y-96410000D03*
D12*
%TO.P,U17,7,NC*%
%TO.N,unconnected-(U17-NC-Pad7)*%
X162110000Y-95750000D03*
%TO.P,U17,8,NC*%
%TO.N,unconnected-(U17-NC-Pad8)*%
X162110000Y-95250000D03*
%TO.P,U17,9,LO3*%
%TO.N,/ESC4/L03*%
X162110000Y-94750000D03*
%TO.P,U17,10,LO2*%
%TO.N,/ESC4/L02*%
X162110000Y-94250000D03*
%TO.P,U17,11,LO1*%
%TO.N,/ESC4/L01*%
X162110000Y-93750000D03*
%TO.P,U17,12,VS3*%
%TO.N,/ESC4/ESC2_C*%
X162110000Y-93250000D03*
D11*
%TO.P,U17,13,HO3*%
%TO.N,/ESC4/H03*%
X161450000Y-92590000D03*
%TO.P,U17,14,VB3*%
%TO.N,Net-(D12-K)*%
X160950000Y-92590000D03*
%TO.P,U17,15,VS2*%
%TO.N,/ESC4/ESC2_B*%
X160450000Y-92590000D03*
%TO.P,U17,16,HO2*%
%TO.N,/ESC4/H02*%
X159950000Y-92590000D03*
%TO.P,U17,17,VB2*%
%TO.N,Net-(D11-K)*%
X159450000Y-92590000D03*
%TO.P,U17,18,VS1*%
%TO.N,/ESC4/ESC2_A*%
X158950000Y-92590000D03*
D12*
%TO.P,U17,19,HO1*%
%TO.N,/ESC4/H01*%
X158290000Y-93250000D03*
%TO.P,U17,20,VB1*%
%TO.N,Net-(D10-K)*%
X158290000Y-93750000D03*
%TO.P,U17,21,NC*%
%TO.N,unconnected-(U17-NC-Pad21)*%
X158290000Y-94250000D03*
%TO.P,U17,22,HIN1*%
%TO.N,/ESC4/HI1*%
X158290000Y-94750000D03*
%TO.P,U17,23,HIN2*%
%TO.N,/ESC4/HI2*%
X158290000Y-95250000D03*
%TO.P,U17,24,HIN3*%
%TO.N,/ESC4/HI3*%
X158290000Y-95750000D03*
D13*
%TO.P,U17,25,EP*%
%TO.N,/GND*%
X160200000Y-94500000D03*
%TD*%
D14*
%TO.P,GND,1,1*%
%TO.N,/GND*%
X150200000Y-122500000D03*
%TD*%
D15*
%TO.P,C34,1,1*%
%TO.N,Net-(D10-K)*%
X171670000Y-102525000D03*
%TO.P,C34,2,2*%
%TO.N,/ESC4/ESC2_A*%
X171130000Y-102525000D03*
%TD*%
%TO.P,C22,1,1*%
%TO.N,/3V3*%
X153070000Y-98850000D03*
%TO.P,C22,2,2*%
%TO.N,/GND*%
X152530000Y-98850000D03*
%TD*%
D16*
%TO.P,U20,1,1*%
%TO.N,/ESC4/ESC2_C*%
X172700000Y-92500000D03*
%TD*%
D17*
%TO.P,R38,1,1*%
%TO.N,Net-(Q7-G)*%
X136325000Y-109290000D03*
%TO.P,R38,2,2*%
%TO.N,/ESC2/H02*%
X136325000Y-108810000D03*
%TD*%
D18*
%TO.P,Q2,1,S*%
%TO.N,/GND*%
X167950000Y-111520000D03*
%TO.P,Q2,2,S*%
X167950000Y-112180000D03*
%TO.P,Q2,3,S*%
X167950000Y-112830000D03*
%TO.P,Q2,4,G*%
%TO.N,Net-(Q2-G)*%
X167950000Y-113480000D03*
%TO.P,Q2,5,D*%
%TO.N,/ESC1/ESC2_A*%
X170950000Y-113480000D03*
%TO.P,Q2,6,D*%
X170950000Y-112830000D03*
%TO.P,Q2,7,D*%
X170950000Y-112170000D03*
%TO.P,Q2,8,D*%
X170950000Y-111520000D03*
D19*
%TO.P,Q2,9,EP*%
X169800000Y-112500000D03*
%TD*%
D10*
%TO.P,R36,1,1*%
%TO.N,/GND*%
X143940000Y-105625000D03*
%TO.P,R36,2,2*%
%TO.N,Net-(Q12-G)*%
X143460000Y-105625000D03*
%TD*%
D15*
%TO.P,C8,1,1*%
%TO.N,Net-(D2-K)*%
X170945000Y-110500000D03*
%TO.P,C8,2,2*%
%TO.N,/ESC1/ESC2_B*%
X170405000Y-110500000D03*
%TD*%
%TO.P,C9,1,1*%
%TO.N,Net-(D3-K)*%
X171270000Y-106500000D03*
%TO.P,C9,2,2*%
%TO.N,/ESC1/ESC2_C*%
X170730000Y-106500000D03*
%TD*%
D20*
%TO.P,C12,1,1*%
%TO.N,/GND*%
X144175000Y-112500000D03*
%TO.P,C12,2,2*%
%TO.N,/VIN*%
X142175000Y-112500000D03*
%TD*%
D17*
%TO.P,R12,1,1*%
%TO.N,Net-(U3-PA2)*%
X150700000Y-89840000D03*
%TO.P,R12,2,2*%
%TO.N,/PWM1*%
X150700000Y-89360000D03*
%TD*%
D18*
%TO.P,Q11,1,S*%
%TO.N,/ESC2/ESC2_C*%
X137450000Y-103520000D03*
%TO.P,Q11,2,S*%
X137450000Y-104180000D03*
%TO.P,Q11,3,S*%
X137450000Y-104830000D03*
%TO.P,Q11,4,G*%
%TO.N,Net-(Q11-G)*%
X137450000Y-105480000D03*
%TO.P,Q11,5,D*%
%TO.N,/VIN*%
X140450000Y-105480000D03*
%TO.P,Q11,6,D*%
X140450000Y-104830000D03*
%TO.P,Q11,7,D*%
X140450000Y-104170000D03*
%TO.P,Q11,8,D*%
X140450000Y-103520000D03*
D19*
%TO.P,Q11,9,EP*%
X139300000Y-104500000D03*
%TD*%
D21*
%TO.P,R89,1*%
%TO.N,Net-(U22-FB)*%
X159300000Y-114700000D03*
%TO.P,R89,2*%
%TO.N,/3V3*%
X159300000Y-115700000D03*
%TD*%
D10*
%TO.P,R58,1,1*%
%TO.N,Net-(Q15-G)*%
X136180000Y-101400000D03*
%TO.P,R58,2,2*%
%TO.N,/ESC3/H01*%
X135700000Y-101400000D03*
%TD*%
D17*
%TO.P,R75,1,1*%
%TO.N,Net-(U16-PA2)*%
X153700000Y-89865000D03*
%TO.P,R75,2,2*%
%TO.N,/PWM4*%
X153700000Y-89385000D03*
%TD*%
D22*
%TO.P,D11,1,K*%
%TO.N,Net-(D11-K)*%
X159450000Y-90550000D03*
%TO.P,D11,2,A*%
%TO.N,/+8V*%
X159450000Y-89750000D03*
%TD*%
D17*
%TO.P,R71,1,1*%
%TO.N,Net-(U16-PA4)*%
X160500000Y-100010000D03*
%TO.P,R71,2,2*%
%TO.N,Net-(U16-PA1)*%
X160500000Y-100490000D03*
%TD*%
D16*
%TO.P,U8,1,1*%
%TO.N,/ESC1/ESC2_B*%
X172700000Y-108500000D03*
%TD*%
D17*
%TO.P,R67,1,1*%
%TO.N,Net-(U16-PA0)*%
X166525000Y-102985000D03*
%TO.P,R67,2,2*%
%TO.N,/GND*%
X166525000Y-103465000D03*
%TD*%
%TO.P,R70,1,1*%
%TO.N,Net-(U16-PA5)*%
X161125000Y-98385000D03*
%TO.P,R70,2,2*%
%TO.N,Net-(U16-PA1)*%
X161125000Y-98865000D03*
%TD*%
D10*
%TO.P,R57,1,1*%
%TO.N,/GND*%
X143540000Y-91075000D03*
%TO.P,R57,2,2*%
%TO.N,Net-(Q18-G)*%
X143060000Y-91075000D03*
%TD*%
%TO.P,R42,1,1*%
%TO.N,Net-(Q11-G)*%
X136190000Y-105475000D03*
%TO.P,R42,2,2*%
%TO.N,/ESC2/H03*%
X135710000Y-105475000D03*
%TD*%
D18*
%TO.P,Q17,1,S*%
%TO.N,/ESC3/ESC2_C*%
X137450000Y-91520000D03*
%TO.P,Q17,2,S*%
X137450000Y-92180000D03*
%TO.P,Q17,3,S*%
X137450000Y-92830000D03*
%TO.P,Q17,4,G*%
%TO.N,Net-(Q17-G)*%
X137450000Y-93480000D03*
%TO.P,Q17,5,D*%
%TO.N,/VIN*%
X140450000Y-93480000D03*
%TO.P,Q17,6,D*%
X140450000Y-92830000D03*
%TO.P,Q17,7,D*%
X140450000Y-92170000D03*
%TO.P,Q17,8,D*%
X140450000Y-91520000D03*
D19*
%TO.P,Q17,9,EP*%
X139300000Y-92500000D03*
%TD*%
D18*
%TO.P,Q4,1,S*%
%TO.N,/GND*%
X167950000Y-107520000D03*
%TO.P,Q4,2,S*%
X167950000Y-108180000D03*
%TO.P,Q4,3,S*%
X167950000Y-108830000D03*
%TO.P,Q4,4,G*%
%TO.N,Net-(Q4-G)*%
X167950000Y-109480000D03*
%TO.P,Q4,5,D*%
%TO.N,/ESC1/ESC2_B*%
X170950000Y-109480000D03*
%TO.P,Q4,6,D*%
X170950000Y-108830000D03*
%TO.P,Q4,7,D*%
X170950000Y-108170000D03*
%TO.P,Q4,8,D*%
X170950000Y-107520000D03*
D19*
%TO.P,Q4,9,EP*%
X169800000Y-108500000D03*
%TD*%
D23*
%TO.P,D3,1,K*%
%TO.N,Net-(D3-K)*%
X165100000Y-109200000D03*
%TO.P,D3,2,A*%
%TO.N,/+8V*%
X165900000Y-109200000D03*
%TD*%
D20*
%TO.P,C19,1,1*%
%TO.N,/GND*%
X144300000Y-92550000D03*
%TO.P,C19,2,2*%
%TO.N,/VIN*%
X142300000Y-92550000D03*
%TD*%
D17*
%TO.P,R27,1,1*%
%TO.N,Net-(U1-PA4)*%
X151250000Y-106690000D03*
%TO.P,R27,2,2*%
%TO.N,/GND*%
X151250000Y-106210000D03*
%TD*%
D22*
%TO.P,D1,1,K*%
%TO.N,Net-(D1-K)*%
X162700000Y-105800000D03*
%TO.P,D1,2,A*%
%TO.N,/+8V*%
X162700000Y-105000000D03*
%TD*%
D10*
%TO.P,R63,1,1*%
%TO.N,Net-(Q17-G)*%
X136290000Y-93450000D03*
%TO.P,R63,2,2*%
%TO.N,/ESC3/H03*%
X135810000Y-93450000D03*
%TD*%
D22*
%TO.P,D10,1,K*%
%TO.N,Net-(D10-K)*%
X156450000Y-94050000D03*
%TO.P,D10,2,A*%
%TO.N,/+8V*%
X156450000Y-93250000D03*
%TD*%
D18*
%TO.P,Q6,1,S*%
%TO.N,/GND*%
X167950000Y-103520000D03*
%TO.P,Q6,2,S*%
X167950000Y-104180000D03*
%TO.P,Q6,3,S*%
X167950000Y-104830000D03*
%TO.P,Q6,4,G*%
%TO.N,Net-(Q6-G)*%
X167950000Y-105480000D03*
%TO.P,Q6,5,D*%
%TO.N,/ESC1/ESC2_C*%
X170950000Y-105480000D03*
%TO.P,Q6,6,D*%
X170950000Y-104830000D03*
%TO.P,Q6,7,D*%
X170950000Y-104170000D03*
%TO.P,Q6,8,D*%
X170950000Y-103520000D03*
D19*
%TO.P,Q6,9,EP*%
X169800000Y-104500000D03*
%TD*%
D17*
%TO.P,R31,1,1*%
%TO.N,/GND*%
X151450000Y-104390000D03*
%TO.P,R31,2,2*%
%TO.N,Net-(U1-BOOT0)*%
X151450000Y-103910000D03*
%TD*%
D15*
%TO.P,C13,1,1*%
%TO.N,/3V3*%
X152295000Y-105250000D03*
%TO.P,C13,2,2*%
%TO.N,/GND*%
X151755000Y-105250000D03*
%TD*%
D17*
%TO.P,R68,1,1*%
%TO.N,Net-(U16-PA5)*%
X165550000Y-95285000D03*
%TO.P,R68,2,2*%
%TO.N,/GND*%
X165550000Y-95765000D03*
%TD*%
D10*
%TO.P,R2,1,1*%
%TO.N,/ESC1/ESC2_B*%
X169315000Y-110500000D03*
%TO.P,R2,2,2*%
%TO.N,Net-(U3-PA4)*%
X168835000Y-110500000D03*
%TD*%
D18*
%TO.P,Q9,1,S*%
%TO.N,/ESC2/ESC2_A*%
X137450000Y-111520000D03*
%TO.P,Q9,2,S*%
X137450000Y-112180000D03*
%TO.P,Q9,3,S*%
X137450000Y-112830000D03*
%TO.P,Q9,4,G*%
%TO.N,Net-(Q9-G)*%
X137450000Y-113480000D03*
%TO.P,Q9,5,D*%
%TO.N,/VIN*%
X140450000Y-113480000D03*
%TO.P,Q9,6,D*%
X140450000Y-112830000D03*
%TO.P,Q9,7,D*%
X140450000Y-112170000D03*
%TO.P,Q9,8,D*%
X140450000Y-111520000D03*
D19*
%TO.P,Q9,9,EP*%
X139300000Y-112500000D03*
%TD*%
D17*
%TO.P,R25,1,1*%
%TO.N,Net-(U1-PA0)*%
X152225000Y-106665000D03*
%TO.P,R25,2,2*%
%TO.N,/GND*%
X152225000Y-106185000D03*
%TD*%
D15*
%TO.P,C35,1,1*%
%TO.N,Net-(D11-K)*%
X171025000Y-98475000D03*
%TO.P,C35,2,2*%
%TO.N,/ESC4/ESC2_B*%
X170485000Y-98475000D03*
%TD*%
D10*
%TO.P,R37,1,1*%
%TO.N,Net-(Q9-G)*%
X136255000Y-113450000D03*
%TO.P,R37,2,2*%
%TO.N,/ESC2/H01*%
X135775000Y-113450000D03*
%TD*%
D24*
%TO.P,U16,1,BOOT0*%
%TO.N,Net-(U16-BOOT0)*%
X156000000Y-101500000D03*
%TO.P,U16,2,PF0/OSC_IN/*%
%TO.N,unconnected-(U16-PF0{slash}OSC_IN{slash}-Pad2)*%
X156400000Y-101500000D03*
%TO.P,U16,3,PF1/OSC_OUT*%
%TO.N,unconnected-(U16-PF1{slash}OSC_OUT-Pad3)*%
X156800000Y-101500000D03*
%TO.P,U16,4,NRST*%
%TO.N,Net-(U16-NRST)*%
X157200000Y-101500000D03*
%TO.P,U16,5,VDDA*%
%TO.N,/3V3*%
X157600000Y-101500000D03*
%TO.P,U16,6,PA0*%
%TO.N,Net-(U16-PA0)*%
X158000000Y-101500000D03*
%TO.P,U16,7,PA1*%
%TO.N,Net-(U16-PA1)*%
X158400000Y-101500000D03*
D25*
%TO.P,U16,8,PA2*%
%TO.N,Net-(U16-PA2)*%
X159200000Y-100700000D03*
%TO.P,U16,9,PA3*%
%TO.N,unconnected-(U16-PA3-Pad9)*%
X159200000Y-100300000D03*
%TO.P,U16,10,PA4*%
%TO.N,Net-(U16-PA4)*%
X159200000Y-99900000D03*
%TO.P,U16,11,PA5*%
%TO.N,Net-(U16-PA5)*%
X159200000Y-99500000D03*
%TO.P,U16,12,PA6*%
%TO.N,unconnected-(U16-PA6-Pad12)*%
X159200000Y-99100000D03*
%TO.P,U16,13,PA7*%
%TO.N,/ESC4/LI3*%
X159200000Y-98700000D03*
%TO.P,U16,14,PB0*%
%TO.N,/ESC4/LI2*%
X159200000Y-98300000D03*
D24*
%TO.P,U16,15,PB1*%
%TO.N,/ESC4/LI1*%
X158400000Y-97500000D03*
%TO.P,U16,16,VSS*%
%TO.N,/GND*%
X158000000Y-97500000D03*
%TO.P,U16,17,VDD*%
%TO.N,/3V3*%
X157600000Y-97500000D03*
%TO.P,U16,18,PA8*%
%TO.N,/ESC4/HI3*%
X157200000Y-97500000D03*
%TO.P,U16,19,PA9*%
%TO.N,/ESC4/HI2*%
X156800000Y-97500000D03*
%TO.P,U16,20,PA10*%
%TO.N,/ESC4/HI1*%
X156400000Y-97500000D03*
%TO.P,U16,21,PA13*%
%TO.N,/ESC4/SWDIO*%
X156000000Y-97500000D03*
D25*
%TO.P,U16,22,PA14*%
%TO.N,/ESC4/SWCLK*%
X155200000Y-98300000D03*
%TO.P,U16,23,PA15*%
%TO.N,unconnected-(U16-PA15-Pad23)*%
X155200000Y-98700000D03*
%TO.P,U16,24,PB3*%
%TO.N,unconnected-(U16-PB3-Pad24)*%
X155200000Y-99100000D03*
%TO.P,U16,25,PB4*%
%TO.N,unconnected-(U16-PB4-Pad25)*%
X155200000Y-99500000D03*
%TO.P,U16,26,PB5*%
%TO.N,unconnected-(U16-PB5-Pad26)*%
X155200000Y-99900000D03*
%TO.P,U16,27,PB6*%
%TO.N,unconnected-(U16-PB6-Pad27)*%
X155200000Y-100300000D03*
%TO.P,U16,28,PB7*%
%TO.N,unconnected-(U16-PB7-Pad28)*%
X155200000Y-100700000D03*
D26*
%TO.P,U16,29,GPAD*%
%TO.N,/GND*%
X157200000Y-99500000D03*
%TD*%
D17*
%TO.P,R26,1,1*%
%TO.N,Net-(U1-PA5)*%
X150275000Y-106715000D03*
%TO.P,R26,2,2*%
%TO.N,/GND*%
X150275000Y-106235000D03*
%TD*%
D20*
%TO.P,C10,1,1*%
%TO.N,/GND*%
X144175000Y-104175000D03*
%TO.P,C10,2,2*%
%TO.N,/VIN*%
X142175000Y-104175000D03*
%TD*%
D27*
%TO.P,R87,1*%
%TO.N,/CUR*%
X148900000Y-115540000D03*
%TO.P,R87,2*%
%TO.N,Net-(U24-OUT)*%
X148900000Y-118460000D03*
%TD*%
D16*
%TO.P,U9,1,1*%
%TO.N,/ESC1/ESC2_A*%
X172700000Y-112500000D03*
%TD*%
D18*
%TO.P,Q15,1,S*%
%TO.N,/ESC3/ESC2_A*%
X137450000Y-99520000D03*
%TO.P,Q15,2,S*%
X137450000Y-100180000D03*
%TO.P,Q15,3,S*%
X137450000Y-100830000D03*
%TO.P,Q15,4,G*%
%TO.N,Net-(Q15-G)*%
X137450000Y-101480000D03*
%TO.P,Q15,5,D*%
%TO.N,/VIN*%
X140450000Y-101480000D03*
%TO.P,Q15,6,D*%
X140450000Y-100830000D03*
%TO.P,Q15,7,D*%
X140450000Y-100170000D03*
%TO.P,Q15,8,D*%
X140450000Y-99520000D03*
D19*
%TO.P,Q15,9,EP*%
X139300000Y-100500000D03*
%TD*%
D15*
%TO.P,C36,1,1*%
%TO.N,Net-(D12-K)*%
X170920000Y-94500000D03*
%TO.P,C36,2,2*%
%TO.N,/ESC4/ESC2_C*%
X170380000Y-94500000D03*
%TD*%
D18*
%TO.P,Q20,1,S*%
%TO.N,/GND*%
X167950000Y-95520000D03*
%TO.P,Q20,2,S*%
X167950000Y-96180000D03*
%TO.P,Q20,3,S*%
X167950000Y-96830000D03*
%TO.P,Q20,4,G*%
%TO.N,Net-(Q20-G)*%
X167950000Y-97480000D03*
%TO.P,Q20,5,D*%
%TO.N,/ESC4/ESC2_B*%
X170950000Y-97480000D03*
%TO.P,Q20,6,D*%
X170950000Y-96830000D03*
%TO.P,Q20,7,D*%
X170950000Y-96170000D03*
%TO.P,Q20,8,D*%
X170950000Y-95520000D03*
D19*
%TO.P,Q20,9,EP*%
X169800000Y-96500000D03*
%TD*%
D15*
%TO.P,C32,1,1*%
%TO.N,/+8V*%
X160650000Y-97475000D03*
%TO.P,C32,2,2*%
%TO.N,/GND*%
X161190000Y-97475000D03*
%TD*%
D14*
%TO.P,VBAT,1,1*%
%TO.N,/VBAT*%
X158200000Y-122500000D03*
%TD*%
D17*
%TO.P,R72,1,1*%
%TO.N,Net-(U16-PA0)*%
X160000000Y-102500000D03*
%TO.P,R72,2,2*%
%TO.N,Net-(U16-PA1)*%
X160000000Y-102020000D03*
%TD*%
D28*
%TO.P,SWC4,1,1*%
%TO.N,/ESC4/SWCLK*%
X161800000Y-87275000D03*
%TD*%
D17*
%TO.P,R28,1,1*%
%TO.N,Net-(U1-PA5)*%
X149175000Y-105560000D03*
%TO.P,R28,2,2*%
%TO.N,Net-(U1-PA1)*%
X149175000Y-106040000D03*
%TD*%
D10*
%TO.P,R60,1,1*%
%TO.N,Net-(Q16-G)*%
X143010000Y-101900000D03*
%TO.P,R60,2,2*%
%TO.N,/ESC3/L01*%
X143490000Y-101900000D03*
%TD*%
D20*
%TO.P,C21,1,1*%
%TO.N,/GND*%
X144225000Y-100450000D03*
%TO.P,C21,2,2*%
%TO.N,/VIN*%
X142225000Y-100450000D03*
%TD*%
D29*
%TO.P,C33,1,1*%
%TO.N,/3V3*%
X155500000Y-95055000D03*
%TO.P,C33,2,2*%
%TO.N,/GND*%
X155500000Y-95595000D03*
%TD*%
D18*
%TO.P,Q22,1,S*%
%TO.N,/GND*%
X167950000Y-99520000D03*
%TO.P,Q22,2,S*%
X167950000Y-100180000D03*
%TO.P,Q22,3,S*%
X167950000Y-100830000D03*
%TO.P,Q22,4,G*%
%TO.N,Net-(Q22-G)*%
X167950000Y-101480000D03*
%TO.P,Q22,5,D*%
%TO.N,/ESC4/ESC2_A*%
X170950000Y-101480000D03*
%TO.P,Q22,6,D*%
X170950000Y-100830000D03*
%TO.P,Q22,7,D*%
X170950000Y-100170000D03*
%TO.P,Q22,8,D*%
X170950000Y-99520000D03*
D19*
%TO.P,Q22,9,EP*%
X169800000Y-100500000D03*
%TD*%
D16*
%TO.P,U19,1,1*%
%TO.N,/ESC4/ESC2_B*%
X172700000Y-96500000D03*
%TD*%
D29*
%TO.P,C7,1,1*%
%TO.N,Net-(D1-K)*%
X164300000Y-105730000D03*
%TO.P,C7,2,2*%
%TO.N,/ESC1/ESC2_A*%
X164300000Y-106270000D03*
%TD*%
D12*
%TO.P,U4,1,LIN1*%
%TO.N,/ESC1/LI1*%
X160290000Y-107250000D03*
%TO.P,U4,2,LIN2*%
%TO.N,/ESC1/LI2*%
X160290000Y-107750000D03*
%TO.P,U4,3,LIN3*%
%TO.N,/ESC1/LI3*%
X160290000Y-108250000D03*
%TO.P,U4,4,VCC*%
%TO.N,/+8V*%
X160290000Y-108750000D03*
%TO.P,U4,5,NC*%
%TO.N,unconnected-(U4-NC-Pad5)*%
X160290000Y-109250000D03*
%TO.P,U4,6,COM*%
%TO.N,/GND*%
X160290000Y-109750000D03*
D11*
%TO.P,U4,7,NC*%
%TO.N,unconnected-(U4-NC-Pad7)*%
X160950000Y-110410000D03*
%TO.P,U4,8,NC*%
%TO.N,unconnected-(U4-NC-Pad8)*%
X161450000Y-110410000D03*
%TO.P,U4,9,LO3*%
%TO.N,/ESC1/L03*%
X161950000Y-110410000D03*
%TO.P,U4,10,LO2*%
%TO.N,/ESC1/L02*%
X162450000Y-110410000D03*
%TO.P,U4,11,LO1*%
%TO.N,/ESC1/L01*%
X162950000Y-110410000D03*
%TO.P,U4,12,VS3*%
%TO.N,/ESC1/ESC2_C*%
X163450000Y-110410000D03*
D12*
%TO.P,U4,13,HO3*%
%TO.N,/ESC1/H03*%
X164110000Y-109750000D03*
%TO.P,U4,14,VB3*%
%TO.N,Net-(D3-K)*%
X164110000Y-109250000D03*
%TO.P,U4,15,VS2*%
%TO.N,/ESC1/ESC2_B*%
X164110000Y-108750000D03*
%TO.P,U4,16,HO2*%
%TO.N,/ESC1/H02*%
X164110000Y-108250000D03*
%TO.P,U4,17,VB2*%
%TO.N,Net-(D2-K)*%
X164110000Y-107750000D03*
%TO.P,U4,18,VS1*%
%TO.N,/ESC1/ESC2_A*%
X164110000Y-107250000D03*
D11*
%TO.P,U4,19,HO1*%
%TO.N,/ESC1/H01*%
X163450000Y-106590000D03*
%TO.P,U4,20,VB1*%
%TO.N,Net-(D1-K)*%
X162950000Y-106590000D03*
%TO.P,U4,21,NC*%
%TO.N,unconnected-(U4-NC-Pad21)*%
X162450000Y-106590000D03*
%TO.P,U4,22,HIN1*%
%TO.N,/ESC1/HI1*%
X161950000Y-106590000D03*
%TO.P,U4,23,HIN2*%
%TO.N,/ESC1/HI2*%
X161450000Y-106590000D03*
%TO.P,U4,24,HIN3*%
%TO.N,/ESC1/HI3*%
X160950000Y-106590000D03*
D13*
%TO.P,U4,25,EP*%
%TO.N,/GND*%
X162200000Y-108500000D03*
%TD*%
D10*
%TO.P,R62,1,1*%
%TO.N,Net-(Q18-G)*%
X143020000Y-94025000D03*
%TO.P,R62,2,2*%
%TO.N,/ESC3/L03*%
X143500000Y-94025000D03*
%TD*%
D23*
%TO.P,D2,1,K*%
%TO.N,Net-(D2-K)*%
X165200000Y-107700000D03*
%TO.P,D2,2,A*%
%TO.N,/+8V*%
X166000000Y-107700000D03*
%TD*%
D17*
%TO.P,R32,1,1*%
%TO.N,/3V3*%
X153175000Y-105690000D03*
%TO.P,R32,2,2*%
%TO.N,Net-(U1-NRST)*%
X153175000Y-105210000D03*
%TD*%
D10*
%TO.P,R61,1,1*%
%TO.N,Net-(Q14-G)*%
X143035000Y-94975000D03*
%TO.P,R61,2,2*%
%TO.N,/ESC3/L02*%
X143515000Y-94975000D03*
%TD*%
%TO.P,R35,1,1*%
%TO.N,/GND*%
X144090000Y-109975000D03*
%TO.P,R35,2,2*%
%TO.N,Net-(Q8-G)*%
X143610000Y-109975000D03*
%TD*%
D30*
%TO.P,L1,1,1*%
%TO.N,Net-(U21-SW)*%
X159700000Y-118830000D03*
%TO.P,L1,2,2*%
%TO.N,/+8V*%
X159700000Y-117170000D03*
%TD*%
D16*
%TO.P,U7,1,1*%
%TO.N,/ESC1/ESC2_C*%
X172700000Y-104500000D03*
%TD*%
D22*
%TO.P,D12,1,K*%
%TO.N,Net-(D12-K)*%
X161050000Y-90575000D03*
%TO.P,D12,2,A*%
%TO.N,/+8V*%
X161050000Y-89775000D03*
%TD*%
D16*
%TO.P,U18,1,1*%
%TO.N,/ESC4/ESC2_A*%
X172700000Y-100500000D03*
%TD*%
D31*
%TO.P,C51,1*%
%TO.N,/GND*%
X154020000Y-112400000D03*
%TO.P,C51,2*%
%TO.N,/+8V*%
X155580000Y-112400000D03*
%TD*%
D32*
%TO.P,C49,1*%
%TO.N,/VIN*%
X151600000Y-115500000D03*
%TO.P,C49,2*%
%TO.N,/VBAT*%
X152600000Y-115500000D03*
%TD*%
D21*
%TO.P,R90,1*%
%TO.N,/GND*%
X159300000Y-112600000D03*
%TO.P,R90,2*%
%TO.N,Net-(U22-FB)*%
X159300000Y-113600000D03*
%TD*%
D10*
%TO.P,R56,1,1*%
%TO.N,/GND*%
X143490000Y-97900000D03*
%TO.P,R56,2,2*%
%TO.N,Net-(Q14-G)*%
X143010000Y-97900000D03*
%TD*%
%TO.P,R41,1,1*%
%TO.N,Net-(Q12-G)*%
X141960000Y-105625000D03*
%TO.P,R41,2,2*%
%TO.N,/ESC2/L03*%
X142440000Y-105625000D03*
%TD*%
%TO.P,R65,1,1*%
%TO.N,/ESC4/ESC2_B*%
X169515000Y-98525000D03*
%TO.P,R65,2,2*%
%TO.N,Net-(U16-PA4)*%
X169035000Y-98525000D03*
%TD*%
D33*
%TO.P,C52,1,1*%
%TO.N,/GND*%
X154100000Y-115400000D03*
%TO.P,C52,2,2*%
%TO.N,/3V3*%
X154100000Y-114000000D03*
%TD*%
D17*
%TO.P,R53,1,1*%
%TO.N,/3V3*%
X153100000Y-99795000D03*
%TO.P,R53,2,2*%
%TO.N,Net-(U11-NRST)*%
X153100000Y-100275000D03*
%TD*%
%TO.P,R52,1,1*%
%TO.N,/GND*%
X152075000Y-99785000D03*
%TO.P,R52,2,2*%
%TO.N,Net-(U11-BOOT0)*%
X152075000Y-100265000D03*
%TD*%
D32*
%TO.P,C53,1*%
%TO.N,/GND*%
X157000000Y-112300000D03*
%TO.P,C53,2*%
%TO.N,Net-(U22-SS{slash}TR)*%
X158000000Y-112300000D03*
%TD*%
D29*
%TO.P,C6,1,1*%
%TO.N,/3V3*%
X160200000Y-105930000D03*
%TO.P,C6,2,2*%
%TO.N,/GND*%
X160200000Y-106470000D03*
%TD*%
%TO.P,C5,1,1*%
%TO.N,/+8V*%
X159300000Y-108930000D03*
%TO.P,C5,2,2*%
%TO.N,/GND*%
X159300000Y-109470000D03*
%TD*%
D10*
%TO.P,R39,1,1*%
%TO.N,Net-(Q10-G)*%
X142095000Y-113950000D03*
%TO.P,R39,2,2*%
%TO.N,/ESC2/L01*%
X142575000Y-113950000D03*
%TD*%
D28*
%TO.P,SWD2,1,1*%
%TO.N,/ESC2/SWDIO*%
X143475000Y-84450000D03*
%TD*%
D10*
%TO.P,R64,1,1*%
%TO.N,/ESC4/ESC2_C*%
X169375000Y-94500000D03*
%TO.P,R64,2,2*%
%TO.N,Net-(U16-PA5)*%
X168895000Y-94500000D03*
%TD*%
%TO.P,R66,1,1*%
%TO.N,/ESC4/ESC2_A*%
X170165000Y-102525000D03*
%TO.P,R66,2,2*%
%TO.N,Net-(U16-PA0)*%
X169685000Y-102525000D03*
%TD*%
D20*
%TO.P,C11,1,1*%
%TO.N,/GND*%
X144175000Y-108525000D03*
%TO.P,C11,2,2*%
%TO.N,/VIN*%
X142175000Y-108525000D03*
%TD*%
D18*
%TO.P,Q24,1,S*%
%TO.N,/GND*%
X167950000Y-91520000D03*
%TO.P,Q24,2,S*%
X167950000Y-92180000D03*
%TO.P,Q24,3,S*%
X167950000Y-92830000D03*
%TO.P,Q24,4,G*%
%TO.N,Net-(Q24-G)*%
X167950000Y-93480000D03*
%TO.P,Q24,5,D*%
%TO.N,/ESC4/ESC2_C*%
X170950000Y-93480000D03*
%TO.P,Q24,6,D*%
X170950000Y-92830000D03*
%TO.P,Q24,7,D*%
X170950000Y-92170000D03*
%TO.P,Q24,8,D*%
X170950000Y-91520000D03*
D19*
%TO.P,Q24,9,EP*%
X169800000Y-92500000D03*
%TD*%
D34*
%TO.P,U22,1,EN*%
%TO.N,/+8V*%
X155800000Y-113700000D03*
%TO.P,U22,2,VIN*%
X155800000Y-114350000D03*
%TO.P,U22,3,GND*%
%TO.N,/GND*%
X155800000Y-114990000D03*
%TO.P,U22,4,VOUT*%
%TO.N,/3V3*%
X155800000Y-115640000D03*
%TO.P,U22,5,VOUT*%
X158060000Y-115640000D03*
%TO.P,U22,6,FB*%
%TO.N,Net-(U22-FB)*%
X158060000Y-114990000D03*
%TO.P,U22,7,PG*%
%TO.N,unconnected-(U22-PG-Pad7)*%
X158060000Y-114350000D03*
%TO.P,U22,8,SS/TR*%
%TO.N,Net-(U22-SS{slash}TR)*%
X158060000Y-113700000D03*
D35*
%TO.P,U22,9,EP*%
%TO.N,/GND*%
X156930000Y-114670000D03*
%TD*%
D28*
%TO.P,SWC2,1,1*%
%TO.N,/ESC2/SWCLK*%
X146225000Y-86550000D03*
%TD*%
D36*
%TO.P,D17,1,C*%
%TO.N,/VBAT*%
X156000000Y-117800000D03*
%TO.P,D17,2,A*%
%TO.N,/GND*%
X152000000Y-117800000D03*
%TD*%
D28*
%TO.P,SWD4,1,1*%
%TO.N,/ESC4/SWDIO*%
X165125000Y-84400000D03*
%TD*%
D25*
%TO.P,U3,1,BOOT0*%
%TO.N,Net-(U3-BOOT0)*%
X155200000Y-104300000D03*
%TO.P,U3,2,PF0/OSC_IN/*%
%TO.N,unconnected-(U3-PF0{slash}OSC_IN{slash}-Pad2)*%
X155200000Y-104700000D03*
%TO.P,U3,3,PF1/OSC_OUT*%
%TO.N,unconnected-(U3-PF1{slash}OSC_OUT-Pad3)*%
X155200000Y-105100000D03*
%TO.P,U3,4,NRST*%
%TO.N,Net-(U3-NRST)*%
X155200000Y-105500000D03*
%TO.P,U3,5,VDDA*%
%TO.N,/3V3*%
X155200000Y-105900000D03*
%TO.P,U3,6,PA0*%
%TO.N,Net-(U3-PA0)*%
X155200000Y-106300000D03*
%TO.P,U3,7,PA1*%
%TO.N,Net-(U3-PA1)*%
X155200000Y-106700000D03*
D24*
%TO.P,U3,8,PA2*%
%TO.N,Net-(U3-PA2)*%
X156000000Y-107500000D03*
%TO.P,U3,9,PA3*%
%TO.N,unconnected-(U3-PA3-Pad9)*%
X156400000Y-107500000D03*
%TO.P,U3,10,PA4*%
%TO.N,Net-(U3-PA4)*%
X156800000Y-107500000D03*
%TO.P,U3,11,PA5*%
%TO.N,Net-(U3-PA5)*%
X157200000Y-107500000D03*
%TO.P,U3,12,PA6*%
%TO.N,unconnected-(U3-PA6-Pad12)*%
X157600000Y-107500000D03*
%TO.P,U3,13,PA7*%
%TO.N,/ESC1/LI3*%
X158000000Y-107500000D03*
%TO.P,U3,14,PB0*%
%TO.N,/ESC1/LI2*%
X158400000Y-107500000D03*
D25*
%TO.P,U3,15,PB1*%
%TO.N,/ESC1/LI1*%
X159200000Y-106700000D03*
%TO.P,U3,16,VSS*%
%TO.N,/GND*%
X159200000Y-106300000D03*
%TO.P,U3,17,VDD*%
%TO.N,/3V3*%
X159200000Y-105900000D03*
%TO.P,U3,18,PA8*%
%TO.N,/ESC1/HI3*%
X159200000Y-105500000D03*
%TO.P,U3,19,PA9*%
%TO.N,/ESC1/HI2*%
X159200000Y-105100000D03*
%TO.P,U3,20,PA10*%
%TO.N,/ESC1/HI1*%
X159200000Y-104700000D03*
%TO.P,U3,21,PA13*%
%TO.N,/ESC1/SWDIO*%
X159200000Y-104300000D03*
D24*
%TO.P,U3,22,PA14*%
%TO.N,/ESC1/SWCLK*%
X158400000Y-103500000D03*
%TO.P,U3,23,PA15*%
%TO.N,unconnected-(U3-PA15-Pad23)*%
X158000000Y-103500000D03*
%TO.P,U3,24,PB3*%
%TO.N,unconnected-(U3-PB3-Pad24)*%
X157600000Y-103500000D03*
%TO.P,U3,25,PB4*%
%TO.N,unconnected-(U3-PB4-Pad25)*%
X157200000Y-103500000D03*
%TO.P,U3,26,PB5*%
%TO.N,unconnected-(U3-PB5-Pad26)*%
X156800000Y-103500000D03*
%TO.P,U3,27,PB6*%
%TO.N,unconnected-(U3-PB6-Pad27)*%
X156400000Y-103500000D03*
%TO.P,U3,28,PB7*%
%TO.N,unconnected-(U3-PB7-Pad28)*%
X156000000Y-103500000D03*
D26*
%TO.P,U3,29,GPAD*%
%TO.N,/GND*%
X157200000Y-105500000D03*
%TD*%
D17*
%TO.P,R54,1,1*%
%TO.N,Net-(U11-PA2)*%
X152725000Y-89840000D03*
%TO.P,R54,2,2*%
%TO.N,/PWM3*%
X152725000Y-89360000D03*
%TD*%
D18*
%TO.P,Q13,1,S*%
%TO.N,/ESC3/ESC2_B*%
X137450000Y-95520000D03*
%TO.P,Q13,2,S*%
X137450000Y-96180000D03*
%TO.P,Q13,3,S*%
X137450000Y-96830000D03*
%TO.P,Q13,4,G*%
%TO.N,Net-(Q13-G)*%
X137450000Y-97480000D03*
%TO.P,Q13,5,D*%
%TO.N,/VIN*%
X140450000Y-97480000D03*
%TO.P,Q13,6,D*%
X140450000Y-96830000D03*
%TO.P,Q13,7,D*%
X140450000Y-96170000D03*
%TO.P,Q13,8,D*%
X140450000Y-95520000D03*
D19*
%TO.P,Q13,9,EP*%
X139300000Y-96500000D03*
%TD*%
D10*
%TO.P,R59,1,1*%
%TO.N,Net-(Q13-G)*%
X136165000Y-97475000D03*
%TO.P,R59,2,2*%
%TO.N,/ESC3/H02*%
X135685000Y-97475000D03*
%TD*%
%TO.P,R34,1,1*%
%TO.N,/GND*%
X144040000Y-113950000D03*
%TO.P,R34,2,2*%
%TO.N,Net-(Q10-G)*%
X143560000Y-113950000D03*
%TD*%
D37*
%TO.P,P1,1,1*%
%TO.N,/VIN*%
X157700000Y-87940000D03*
%TO.P,P1,2,2*%
%TO.N,/GND*%
X156700000Y-87940000D03*
%TO.P,P1,3,3*%
%TO.N,unconnected-(P1-Pad3)*%
X155700000Y-87940000D03*
%TO.P,P1,4,4*%
%TO.N,/CUR*%
X154700000Y-87940000D03*
%TO.P,P1,5,5*%
%TO.N,/PWM4*%
X153700000Y-87940000D03*
%TO.P,P1,6,6*%
%TO.N,/PWM3*%
X152700000Y-87940000D03*
%TO.P,P1,7,7*%
%TO.N,/PWM2*%
X151700000Y-87940000D03*
%TO.P,P1,8,8*%
%TO.N,/PWM1*%
X150700000Y-87940000D03*
D38*
%TO.P,P1,9,9*%
%TO.N,/GND*%
X149400000Y-84060000D03*
%TO.P,P1,10,10*%
X159000000Y-84060000D03*
%TD*%
D20*
%TO.P,C20,1,1*%
%TO.N,/GND*%
X144275000Y-96450000D03*
%TO.P,C20,2,2*%
%TO.N,/VIN*%
X142275000Y-96450000D03*
%TD*%
D17*
%TO.P,R69,1,1*%
%TO.N,Net-(U16-PA4)*%
X161475000Y-100010000D03*
%TO.P,R69,2,2*%
%TO.N,/GND*%
X161475000Y-100490000D03*
%TD*%
D10*
%TO.P,R40,1,1*%
%TO.N,Net-(Q8-G)*%
X142060000Y-109975000D03*
%TO.P,R40,2,2*%
%TO.N,/ESC2/L02*%
X142540000Y-109975000D03*
%TD*%
D17*
%TO.P,R33,1,1*%
%TO.N,Net-(U1-PA2)*%
X151700000Y-89840000D03*
%TO.P,R33,2,2*%
%TO.N,/PWM2*%
X151700000Y-89360000D03*
%TD*%
D10*
%TO.P,R1,1,1*%
%TO.N,/ESC1/ESC2_C*%
X169840000Y-106500000D03*
%TO.P,R1,2,2*%
%TO.N,Net-(U3-PA5)*%
X169360000Y-106500000D03*
%TD*%
D18*
%TO.P,Q7,1,S*%
%TO.N,/ESC2/ESC2_B*%
X137450000Y-107520000D03*
%TO.P,Q7,2,S*%
X137450000Y-108180000D03*
%TO.P,Q7,3,S*%
X137450000Y-108830000D03*
%TO.P,Q7,4,G*%
%TO.N,Net-(Q7-G)*%
X137450000Y-109480000D03*
%TO.P,Q7,5,D*%
%TO.N,/VIN*%
X140450000Y-109480000D03*
%TO.P,Q7,6,D*%
X140450000Y-108830000D03*
%TO.P,Q7,7,D*%
X140450000Y-108170000D03*
%TO.P,Q7,8,D*%
X140450000Y-107520000D03*
D19*
%TO.P,Q7,9,EP*%
X139300000Y-108500000D03*
%TD*%
D39*
%TO.N,/GND*%
X162200000Y-108500000D03*
X151200000Y-105500000D03*
X144225000Y-100450000D03*
X159000000Y-84060000D03*
D40*
X169450000Y-117750000D03*
D41*
X151600000Y-123600000D03*
D40*
X138950000Y-117750000D03*
D39*
X164100000Y-96525000D03*
X156275000Y-95675000D03*
X154100000Y-115400000D03*
D40*
X138950000Y-87250000D03*
D39*
X156700000Y-89450000D03*
D41*
X167950002Y-104180001D03*
X148900000Y-121500000D03*
D39*
X167950000Y-96825000D03*
D41*
X150200000Y-122500000D03*
D39*
X144200000Y-108550000D03*
X167950000Y-95525000D03*
X160200000Y-94500000D03*
X167950000Y-99525000D03*
D41*
X148900000Y-123700000D03*
D39*
X144125000Y-112550000D03*
X149400000Y-84060000D03*
X167950002Y-91520000D03*
X167925000Y-100825000D03*
D41*
X167700000Y-112180000D03*
D40*
X169450000Y-87250000D03*
D39*
X159300000Y-112600000D03*
X167950000Y-92825000D03*
X144325000Y-92625000D03*
X157200000Y-105500000D03*
X164200000Y-100575000D03*
D41*
X151500000Y-121500000D03*
D39*
X157100001Y-99500000D03*
D41*
X167950000Y-108180000D03*
X164000000Y-112500000D03*
D39*
X144275000Y-96400000D03*
X151200000Y-99500000D03*
X156900000Y-114700000D03*
X144200000Y-104175000D03*
%TO.N,/3V3*%
X157550000Y-102674998D03*
X153800000Y-113400000D03*
X150900000Y-102600000D03*
X156325000Y-95050000D03*
X157900000Y-96624998D03*
X160427572Y-105841725D03*
X154302799Y-105931582D03*
%TO.N,/+8V*%
X166000000Y-107700002D03*
X158700000Y-108800000D03*
X160355105Y-98073786D03*
X161726453Y-104771796D03*
X165900000Y-109200000D03*
X149900000Y-109300000D03*
X159700000Y-117200000D03*
X156500000Y-113000000D03*
X157181907Y-93493308D03*
X160275000Y-89775000D03*
%TO.N,/ESC1/ESC2_A*%
X172623000Y-112500000D03*
X160100000Y-112200000D03*
X164062515Y-106381679D03*
%TO.N,Net-(D2-K)*%
X165214166Y-107438952D03*
X172600000Y-110087500D03*
%TO.N,/ESC1/ESC2_B*%
X170950000Y-108200000D03*
%TO.N,/ESC1/ESC2_C*%
X162114296Y-103724893D03*
X159600000Y-110300000D03*
X170950000Y-104180000D03*
%TO.N,Net-(D3-K)*%
X166400000Y-110600000D03*
X172658711Y-106765109D03*
%TO.N,/ESC2/ESC2_A*%
X149124893Y-111074893D03*
X137450000Y-111520000D03*
X137450000Y-112170000D03*
X137450000Y-112830000D03*
X145280002Y-104314998D03*
%TO.N,/ESC2/ESC2_B*%
X137450000Y-108170000D03*
X137450000Y-108830000D03*
X137450000Y-107520000D03*
%TO.N,Net-(D5-K)*%
X143300000Y-107012500D03*
X136125000Y-110237500D03*
%TO.N,Net-(D6-K)*%
X135975000Y-106375000D03*
X141975000Y-110775000D03*
%TO.N,/ESC2/ESC2_C*%
X137450000Y-104170000D03*
X137350000Y-103520000D03*
X141325000Y-107400000D03*
X143833049Y-110577506D03*
X137450000Y-104830000D03*
%TO.N,Net-(D7-K)*%
X150890002Y-94208709D03*
X136025000Y-102700000D03*
%TO.N,/ESC3/ESC2_A*%
X149575000Y-91937500D03*
X137450000Y-99520000D03*
X144375000Y-101862500D03*
X137450000Y-100180000D03*
X137450000Y-100830000D03*
%TO.N,/ESC3/ESC2_B*%
X145600000Y-92750000D03*
X137450000Y-96170000D03*
X147950000Y-91775000D03*
X137450000Y-95520000D03*
X137450000Y-96830000D03*
%TO.N,Net-(D8-K)*%
X148950000Y-91900000D03*
X135750000Y-98600000D03*
%TO.N,Net-(D9-K)*%
X136575000Y-94375000D03*
X146575000Y-90425000D03*
%TO.N,/ESC3/ESC2_C*%
X137450000Y-92170000D03*
X137450000Y-91520000D03*
X137450000Y-92830000D03*
%TO.N,Net-(D10-K)*%
X172400000Y-102525000D03*
X157020404Y-94321756D03*
%TO.N,/ESC4/ESC2_A*%
X170950000Y-100830000D03*
X170950000Y-99520000D03*
X158799997Y-91800000D03*
X164325000Y-102175000D03*
%TO.N,/ESC4/ESC2_B*%
X162755390Y-92662500D03*
X160437500Y-91800000D03*
X170950000Y-95520000D03*
X170950000Y-96830000D03*
%TO.N,Net-(D11-K)*%
X159487391Y-91762609D03*
X171625000Y-98375000D03*
%TO.N,Net-(D12-K)*%
X171800000Y-94425000D03*
X160925000Y-91125000D03*
%TO.N,/ESC4/ESC2_C*%
X170950000Y-92830000D03*
X170950000Y-91520000D03*
D41*
%TO.N,Net-(U21-SW)*%
X163900000Y-119700000D03*
%TO.N,/VBAT*%
X152000000Y-114600000D03*
X156000000Y-117700000D03*
%TO.N,Net-(Q2-G)*%
X166700000Y-113687500D03*
D39*
%TO.N,Net-(Q4-G)*%
X167073728Y-109487500D03*
%TO.N,Net-(Q6-G)*%
X167145982Y-105521197D03*
%TO.N,Net-(Q8-G)*%
X141300002Y-109585906D03*
%TO.N,Net-(Q10-G)*%
X141250002Y-113550000D03*
%TO.N,Net-(Q12-G)*%
X141250000Y-105500000D03*
%TO.N,Net-(Q14-G)*%
X141450000Y-97650000D03*
%TO.N,Net-(Q16-G)*%
X141325000Y-101675000D03*
%TO.N,Net-(Q18-G)*%
X141625000Y-93750000D03*
%TO.N,Net-(Q20-G)*%
X166000000Y-97650000D03*
%TO.N,Net-(Q22-G)*%
X165775000Y-101650000D03*
%TO.N,Net-(Q24-G)*%
X165900000Y-93650000D03*
%TO.N,Net-(U3-PA5)*%
X157535395Y-108469095D03*
X160279598Y-103995617D03*
%TO.N,Net-(U3-PA4)*%
X156672643Y-108375455D03*
X157300000Y-109800000D03*
%TO.N,Net-(U3-PA0)*%
X154800000Y-107300000D03*
%TO.N,Net-(U3-PA1)*%
X155312500Y-108500000D03*
%TO.N,Net-(U3-BOOT0)*%
X155469404Y-104034000D03*
%TO.N,Net-(U3-NRST)*%
X154375001Y-105018207D03*
%TO.N,Net-(U3-PA2)*%
X154175000Y-103950000D03*
X158825000Y-110250000D03*
X155900000Y-108300000D03*
X151975000Y-91525000D03*
X153400000Y-97050000D03*
%TO.N,/ESC1/H01*%
X163484647Y-106126236D03*
%TO.N,/ESC1/L01*%
X162502858Y-111976000D03*
%TO.N,/ESC1/H02*%
X167099998Y-107370362D03*
%TO.N,/ESC1/L02*%
X162437500Y-111000000D03*
%TO.N,/ESC1/H03*%
X164250000Y-110400000D03*
%TO.N,/ESC1/L03*%
X161700000Y-111200000D03*
%TO.N,Net-(U1-PA5)*%
X151100000Y-108325000D03*
X148457710Y-103956428D03*
%TO.N,Net-(U1-PA4)*%
X151782118Y-108312461D03*
%TO.N,Net-(U1-PA0)*%
X154125000Y-107325000D03*
%TO.N,Net-(U1-PA1)*%
X151540294Y-109235873D03*
%TO.N,Net-(U1-BOOT0)*%
X153025000Y-103987500D03*
%TO.N,Net-(U1-NRST)*%
X153946413Y-105438106D03*
%TO.N,Net-(U1-PA2)*%
X153825000Y-102675000D03*
X152900000Y-107625000D03*
X151775000Y-90475000D03*
%TO.N,/ESC2/H01*%
X144729076Y-106410439D03*
%TO.N,/ESC2/H02*%
X141820474Y-106962500D03*
%TO.N,/ESC2/L01*%
X145508564Y-111039555D03*
%TO.N,/ESC2/L02*%
X143184140Y-110615188D03*
%TO.N,/ESC2/L03*%
X146575000Y-111250000D03*
%TO.N,/ESC2/H03*%
X144345335Y-110891450D03*
%TO.N,Net-(U11-PA5)*%
X142175000Y-95100000D03*
X141325000Y-94350000D03*
%TO.N,Net-(U11-PA1)*%
X147999000Y-99307019D03*
X148225000Y-101225000D03*
%TO.N,Net-(U11-BOOT0)*%
X152900000Y-101200002D03*
%TO.N,Net-(U11-NRST)*%
X151797015Y-102313058D03*
%TO.N,Net-(U11-PA2)*%
X149187607Y-101237607D03*
%TO.N,/ESC3/H01*%
X150493829Y-92647528D03*
%TO.N,/ESC3/H02*%
X145958732Y-98818036D03*
X148450000Y-91250000D03*
X142253326Y-97988283D03*
%TO.N,/ESC3/L01*%
X145675000Y-93750000D03*
%TO.N,/ESC3/L02*%
X145023256Y-94823042D03*
%TO.N,/ESC3/L03*%
X144266445Y-94297227D03*
%TO.N,/ESC3/H03*%
X146875000Y-91625000D03*
%TO.N,Net-(U16-PA5)*%
X167425000Y-94450000D03*
X166150000Y-95225000D03*
%TO.N,Net-(U16-PA1)*%
X160332643Y-101102627D03*
X160450000Y-99300000D03*
%TO.N,Net-(U16-BOOT0)*%
X155654987Y-101249001D03*
%TO.N,Net-(U16-NRST)*%
X156835902Y-102390160D03*
%TO.N,Net-(U16-PA2)*%
X158912500Y-101700000D03*
X153700000Y-90600000D03*
%TO.N,/ESC4/H01*%
X157538279Y-92888793D03*
%TO.N,/ESC4/H02*%
X160100000Y-91100000D03*
X162203172Y-99939072D03*
X166500000Y-99050000D03*
%TO.N,/ESC4/L01*%
X162732607Y-93737500D03*
%TO.N,/ESC4/L02*%
X163460529Y-94414257D03*
%TO.N,/ESC4/L03*%
X164350000Y-94475000D03*
%TO.N,/ESC4/H03*%
X161450000Y-91725000D03*
%TO.N,/ESC1/SWCLK*%
X158925000Y-103250000D03*
%TO.N,/ESC1/SWDIO*%
X159566713Y-103300000D03*
%TO.N,/ESC2/SWCLK*%
X147575000Y-102450000D03*
%TO.N,/ESC2/SWDIO*%
X146625000Y-102750000D03*
%TO.N,/ESC3/SWCLK*%
X155850000Y-90500000D03*
X152900000Y-97700000D03*
%TO.N,/ESC3/SWDIO*%
X152500000Y-96550000D03*
X155375000Y-90075000D03*
D41*
%TO.N,Net-(U24-OUT)*%
X149400000Y-117300000D03*
D39*
%TO.N,/VIN*%
X141075000Y-108175000D03*
X164700000Y-118900000D03*
X141100000Y-104175000D03*
X158525000Y-87650000D03*
X141075000Y-108800000D03*
X166237500Y-92462500D03*
X158500000Y-88225000D03*
X141125000Y-112175000D03*
X141100000Y-96175000D03*
X141075000Y-92800000D03*
X141075000Y-96825000D03*
X141150000Y-100800000D03*
X141075000Y-92150000D03*
X141150000Y-104850000D03*
X141100000Y-112825000D03*
D41*
X150499998Y-117866169D03*
D39*
X141125000Y-100150000D03*
%TD*%
D42*
%TO.N,/ESC4/H02*%
X160100000Y-91100000D02*
X159950000Y-91250000D01*
X159950000Y-91250000D02*
X159950000Y-92590000D01*
D43*
%TO.N,/GND*%
X151550000Y-121150000D02*
X151451000Y-121249000D01*
D42*
X159915000Y-106470000D02*
X159745000Y-106300000D01*
D44*
X156610000Y-114990000D02*
X156900000Y-114700000D01*
D42*
X158000000Y-98600001D02*
X157100001Y-99500000D01*
D43*
X152000000Y-117800000D02*
X151900000Y-117900000D01*
D42*
X143490000Y-97900000D02*
X144275000Y-97115000D01*
D43*
X167950000Y-91520002D02*
X167950002Y-91520000D01*
X152400000Y-120300000D02*
X151550000Y-121150000D01*
D42*
X143540000Y-91075000D02*
X144300000Y-91835000D01*
D44*
X164100000Y-96525000D02*
X164790000Y-96525000D01*
D43*
X151500000Y-118900000D02*
X151500000Y-121200000D01*
X151400000Y-118800000D02*
X151500000Y-118900000D01*
D45*
X154100000Y-115700000D02*
X152000000Y-117800000D01*
D43*
X167950000Y-99525000D02*
X167950000Y-100830000D01*
D42*
X167895000Y-103465000D02*
X167950000Y-103520000D01*
X150275000Y-106235000D02*
X151225000Y-106235000D01*
X151200000Y-106160000D02*
X151250000Y-106210000D01*
X151755000Y-105250000D02*
X151450000Y-105250000D01*
X151200000Y-105500000D02*
X151200000Y-106160000D01*
X144090000Y-109975000D02*
X144175000Y-109890000D01*
X152225000Y-106185000D02*
X151275000Y-106185000D01*
X156275000Y-95675000D02*
X155555000Y-95675000D01*
D43*
X152400000Y-118200000D02*
X152400000Y-118700000D01*
D42*
X143940000Y-105625000D02*
X143940000Y-104410000D01*
D43*
X152000000Y-117800000D02*
X152400000Y-118200000D01*
D42*
X167700000Y-112180000D02*
X167700000Y-111520000D01*
X159745000Y-106300000D02*
X159200000Y-106300000D01*
D43*
X151451000Y-121249000D02*
X150200000Y-121249000D01*
D42*
X151275000Y-106185000D02*
X151250000Y-106210000D01*
D45*
X158389000Y-111689000D02*
X157611000Y-111689000D01*
D42*
X151200000Y-104640000D02*
X151450000Y-104390000D01*
X152075000Y-99785000D02*
X151485000Y-99785000D01*
X151200000Y-105500000D02*
X151200000Y-104640000D01*
X161450000Y-96410000D02*
X161450000Y-95750000D01*
X143518500Y-99485123D02*
X143518500Y-99743500D01*
D45*
X159300000Y-112600000D02*
X158389000Y-111689000D01*
D42*
X160290000Y-109750000D02*
X160950000Y-109750000D01*
X143415000Y-99381622D02*
X143518500Y-99485123D01*
X144300000Y-91835000D02*
X144300000Y-92550000D01*
D43*
X151500000Y-121200000D02*
X151451000Y-121249000D01*
D44*
X164790000Y-96525000D02*
X165550000Y-95765000D01*
D43*
X167950000Y-92830000D02*
X167950000Y-91520002D01*
D45*
X157000000Y-112300000D02*
X156324000Y-111624000D01*
D43*
X152000000Y-117800000D02*
X151400000Y-118400000D01*
D42*
X152075000Y-99305000D02*
X152530000Y-98850000D01*
X143518500Y-99743500D02*
X144225000Y-100450000D01*
X166525000Y-103465000D02*
X167895000Y-103465000D01*
D43*
X151900000Y-119000000D02*
X151900000Y-120800000D01*
D42*
X161450000Y-95750000D02*
X160200000Y-94500000D01*
X159200000Y-106300000D02*
X158000000Y-106300000D01*
D43*
X167950000Y-112830000D02*
X167950000Y-111520000D01*
D42*
X167700000Y-112830000D02*
X167700000Y-112180000D01*
D43*
X167950000Y-96825000D02*
X167950000Y-95520000D01*
D42*
X143415000Y-99000000D02*
X143415000Y-99381622D01*
X151225000Y-106235000D02*
X151250000Y-106210000D01*
X160200000Y-106470000D02*
X159915000Y-106470000D01*
D45*
X154796000Y-111624000D02*
X154020000Y-112400000D01*
D43*
X151900000Y-120800000D02*
X151451000Y-121249000D01*
D42*
X160290000Y-109750000D02*
X159580000Y-109750000D01*
X152075000Y-99785000D02*
X152075000Y-99305000D01*
D43*
X152400000Y-118700000D02*
X152400000Y-120300000D01*
D42*
X161450000Y-97215000D02*
X161450000Y-96410000D01*
X161475000Y-100490000D02*
X164115000Y-100490000D01*
X158000000Y-97500000D02*
X158000000Y-98600001D01*
D43*
X151400000Y-118400000D02*
X151400000Y-118800000D01*
D42*
X144175000Y-109890000D02*
X144175000Y-108525000D01*
X144040000Y-113950000D02*
X144040000Y-112635000D01*
D45*
X157611000Y-111689000D02*
X157000000Y-112300000D01*
D42*
X161190000Y-97475000D02*
X161450000Y-97215000D01*
D43*
X167950000Y-107520000D02*
X167950000Y-108830000D01*
X151900000Y-117900000D02*
X151900000Y-119000000D01*
D42*
X155555000Y-95675000D02*
X155525000Y-95645000D01*
X144040000Y-112635000D02*
X144175000Y-112500000D01*
D45*
X156324000Y-111624000D02*
X154796000Y-111624000D01*
D42*
X164115000Y-100490000D02*
X164200000Y-100575000D01*
D45*
X154100000Y-115400000D02*
X154100000Y-115700000D01*
D42*
X159580000Y-109750000D02*
X159300000Y-109470000D01*
D43*
X156700000Y-87940000D02*
X156700000Y-89450000D01*
D44*
X155800000Y-114990000D02*
X156610000Y-114990000D01*
D42*
X143940000Y-104410000D02*
X144175000Y-104175000D01*
X151450000Y-105250000D02*
X151200000Y-105500000D01*
X158000000Y-106300000D02*
X157200000Y-105500000D01*
X160950000Y-109750000D02*
X162200000Y-108500000D01*
D43*
X167950000Y-103520000D02*
X167950000Y-104830000D01*
D42*
X151485000Y-99785000D02*
X151200000Y-99500000D01*
X144275000Y-97115000D02*
X144275000Y-96450000D01*
D45*
%TO.N,/3V3*%
X154100000Y-114000000D02*
X155100000Y-115000000D01*
D42*
X153541582Y-105931582D02*
X153325000Y-105715000D01*
X156325000Y-95050000D02*
X155580000Y-95050000D01*
X152735000Y-105690000D02*
X153175000Y-105690000D01*
D45*
X155100000Y-115465000D02*
X155275000Y-115640000D01*
X156079000Y-115921000D02*
X157779000Y-115921000D01*
D42*
X153100000Y-98880000D02*
X153070000Y-98850000D01*
X160200000Y-105930000D02*
X160270000Y-105930000D01*
X151076558Y-102776558D02*
X152873442Y-102776558D01*
D45*
X159300000Y-115700000D02*
X158120000Y-115700000D01*
D42*
X157600000Y-96924998D02*
X157900000Y-96624998D01*
D45*
X156079000Y-115919000D02*
X156079000Y-115921000D01*
D42*
X153100000Y-99795000D02*
X153100000Y-98880000D01*
X150900000Y-102600000D02*
X151076558Y-102776558D01*
X160200000Y-105930000D02*
X159230000Y-105930000D01*
X153645000Y-99795000D02*
X153100000Y-99795000D01*
D45*
X155275000Y-115640000D02*
X155800000Y-115640000D01*
X154100000Y-114000000D02*
X154100000Y-113700000D01*
D42*
X160270000Y-105930000D02*
X160358275Y-105841725D01*
X157600000Y-97500000D02*
X157600000Y-96924998D01*
X153775000Y-101875000D02*
X153775000Y-99925000D01*
X154302799Y-105931582D02*
X153541582Y-105931582D01*
X157600000Y-101500000D02*
X157600000Y-102624998D01*
D45*
X154100000Y-113700000D02*
X153800000Y-113400000D01*
X157779000Y-115921000D02*
X158060000Y-115640000D01*
D42*
X157600000Y-102624998D02*
X157550000Y-102674998D01*
X155200000Y-105900000D02*
X154334381Y-105900000D01*
D45*
X158120000Y-115700000D02*
X158060000Y-115640000D01*
D42*
X153775000Y-99925000D02*
X153645000Y-99795000D01*
X159230000Y-105930000D02*
X159200000Y-105900000D01*
X152295000Y-105250000D02*
X152735000Y-105690000D01*
X155580000Y-95050000D02*
X155525000Y-95105000D01*
D45*
X155800000Y-115640000D02*
X156079000Y-115919000D01*
X155100000Y-115000000D02*
X155100000Y-115465000D01*
D42*
X154334381Y-105900000D02*
X154302799Y-105931582D01*
X152873442Y-102776558D02*
X153775000Y-101875000D01*
X160358275Y-105841725D02*
X160427572Y-105841725D01*
D45*
%TO.N,/+8V*%
X155580000Y-112400000D02*
X155900000Y-112400000D01*
D43*
X156500000Y-113000000D02*
X156180000Y-113000000D01*
D42*
X161954657Y-105000000D02*
X161726453Y-104771796D01*
X160450000Y-97275000D02*
X160450000Y-96410000D01*
D43*
X158734000Y-108834000D02*
X159300000Y-108834000D01*
D42*
X161050000Y-89775000D02*
X160275000Y-89775000D01*
D43*
X156500000Y-113000000D02*
X156300000Y-113000000D01*
D42*
X162700000Y-105000000D02*
X161954657Y-105000000D01*
X156938599Y-93250000D02*
X157181907Y-93493308D01*
D43*
X155800000Y-113500000D02*
X155800000Y-114314000D01*
D42*
X160250000Y-89750000D02*
X160275000Y-89775000D01*
X159480000Y-108750000D02*
X160290000Y-108750000D01*
X160650000Y-97778891D02*
X160355105Y-98073786D01*
D43*
X158700000Y-108800000D02*
X158734000Y-108834000D01*
X156300000Y-113000000D02*
X155800000Y-113500000D01*
D45*
X155800000Y-112620000D02*
X155580000Y-112400000D01*
D43*
X156180000Y-113000000D02*
X155580000Y-112400000D01*
D42*
X159450000Y-89750000D02*
X160250000Y-89750000D01*
X159300000Y-108930000D02*
X159480000Y-108750000D01*
X160650000Y-97475000D02*
X160650000Y-97778891D01*
X160650000Y-97475000D02*
X160450000Y-97275000D01*
X156450000Y-93250000D02*
X156938599Y-93250000D01*
%TO.N,Net-(D1-K)*%
X162950000Y-106050000D02*
X162700000Y-105800000D01*
X164300000Y-105730000D02*
X164165614Y-105595614D01*
X162950000Y-105899855D02*
X162950000Y-106050000D01*
X162950000Y-106590000D02*
X162950000Y-106050000D01*
X164165614Y-105595614D02*
X163254241Y-105595614D01*
X163254241Y-105595614D02*
X162950000Y-105899855D01*
%TO.N,/ESC1/ESC2_A*%
X164045470Y-106384123D02*
X164047914Y-106381679D01*
X161800000Y-113600000D02*
X161540000Y-113340000D01*
X164047914Y-106381679D02*
X164062515Y-106381679D01*
X161700000Y-113500000D02*
X160400000Y-112200000D01*
X164300000Y-106270000D02*
X164300000Y-106687500D01*
X170950000Y-113950000D02*
X170800000Y-114100000D01*
X164040002Y-106627674D02*
X164008974Y-106596646D01*
D43*
X171930000Y-112500000D02*
X170950000Y-113480000D01*
X171930000Y-112500000D02*
X170950000Y-111520000D01*
D42*
X164008974Y-106466240D02*
X164040002Y-106435212D01*
X164008974Y-106466240D02*
X164008974Y-106596646D01*
X164040002Y-106627674D02*
X164040002Y-106654790D01*
D43*
X172700000Y-112500000D02*
X169800000Y-112500000D01*
D42*
X167500000Y-114300000D02*
X162500000Y-114300000D01*
X164008974Y-106466240D02*
X164008974Y-106596646D01*
X164292499Y-106695001D02*
X164080213Y-106695001D01*
X164045470Y-106384123D02*
X164045470Y-106410772D01*
X164045470Y-106384123D02*
X164045470Y-106410772D01*
X160400000Y-112200000D02*
X160100000Y-112200000D01*
D43*
X172623000Y-112500000D02*
X171930000Y-112500000D01*
D42*
X164110000Y-107250000D02*
X164110000Y-106724788D01*
X164040002Y-106416240D02*
X164040002Y-106435212D01*
X161800000Y-113600000D02*
X161700000Y-113500000D01*
X164045470Y-106384123D02*
X164047914Y-106381679D01*
X170950000Y-113480000D02*
X170950000Y-113950000D01*
X164080213Y-106695001D02*
X164040002Y-106654790D01*
X170800000Y-114100000D02*
X167700000Y-114100000D01*
X164047914Y-106381679D02*
X164062515Y-106381679D01*
X164040002Y-106627674D02*
X164008974Y-106596646D01*
X162500000Y-114300000D02*
X161800000Y-113600000D01*
X167700000Y-114100000D02*
X167500000Y-114300000D01*
X164040002Y-106627674D02*
X164040002Y-106654790D01*
D43*
X172700000Y-112500000D02*
X171930000Y-112500000D01*
D42*
X164110000Y-106724788D02*
X164040002Y-106654790D01*
X164300000Y-106687500D02*
X164292499Y-106695001D01*
D43*
X172674000Y-112500000D02*
X172700000Y-112500000D01*
X172674000Y-112526000D02*
X172674000Y-112500000D01*
D42*
X164040002Y-106416240D02*
X164040002Y-106435212D01*
X164040002Y-106416240D02*
X164045470Y-106410772D01*
X164040002Y-106416240D02*
X164045470Y-106410772D01*
X170840000Y-113590000D02*
X170950000Y-113480000D01*
X164008974Y-106466240D02*
X164040002Y-106435212D01*
%TO.N,Net-(D2-K)*%
X172407500Y-110087500D02*
X172600000Y-110087500D01*
X165150000Y-107750000D02*
X165200000Y-107700000D01*
X164110000Y-107750000D02*
X165150000Y-107750000D01*
X170945000Y-110500000D02*
X171995000Y-110500000D01*
X165200000Y-107453118D02*
X165214166Y-107438952D01*
X165200000Y-107700000D02*
X165200000Y-107453118D01*
X171995000Y-110500000D02*
X172407500Y-110087500D01*
D43*
%TO.N,/ESC1/ESC2_B*%
X172370000Y-108170000D02*
X172700000Y-108500000D01*
D42*
X166800000Y-110000000D02*
X166600000Y-109800000D01*
X164768500Y-108588500D02*
X164703500Y-108653500D01*
D43*
X171930000Y-108500000D02*
X170950000Y-107520000D01*
D42*
X166600000Y-109800000D02*
X166600000Y-108900000D01*
X164703500Y-108653500D02*
X164206500Y-108653500D01*
D43*
X172370000Y-108830000D02*
X172700000Y-108500000D01*
D42*
X170430000Y-110000000D02*
X166800000Y-110000000D01*
X170405000Y-110500000D02*
X170405000Y-110025000D01*
X170950000Y-109480000D02*
X170430000Y-110000000D01*
X170405000Y-110025000D02*
X170430000Y-110000000D01*
D43*
X172700000Y-108500000D02*
X171930000Y-108500000D01*
X171930000Y-108500000D02*
X170950000Y-109480000D01*
D42*
X166600000Y-108900000D02*
X166288500Y-108588500D01*
D43*
X172700000Y-108500000D02*
X169800000Y-108500000D01*
D42*
X166288500Y-108588500D02*
X164768500Y-108588500D01*
X169315000Y-110500000D02*
X170405000Y-110500000D01*
X164206500Y-108653500D02*
X164110000Y-108750000D01*
%TO.N,/ESC1/ESC2_C*%
X166100000Y-106000000D02*
X163759143Y-103659143D01*
D43*
X172700000Y-104500000D02*
X171930000Y-104500000D01*
D42*
X170950000Y-105480000D02*
X170950000Y-105780000D01*
X163759143Y-103659143D02*
X162180046Y-103659143D01*
D43*
X172370000Y-104830000D02*
X172700000Y-104500000D01*
D42*
X162180046Y-103659143D02*
X162114296Y-103724893D01*
X161739500Y-112439500D02*
X159600000Y-110300000D01*
X163450000Y-111750000D02*
X162760500Y-112439500D01*
D43*
X172380000Y-104180000D02*
X172700000Y-104500000D01*
X171930000Y-104500000D02*
X170950000Y-105480000D01*
D42*
X170730000Y-106500000D02*
X170730000Y-106000000D01*
X169840000Y-106500000D02*
X170730000Y-106500000D01*
D43*
X171930000Y-104500000D02*
X170950000Y-103520000D01*
X172700000Y-104500000D02*
X169800000Y-104500000D01*
D42*
X170730000Y-106000000D02*
X166100000Y-106000000D01*
X163450000Y-110410000D02*
X163450000Y-111750000D01*
X162760500Y-112439500D02*
X161739500Y-112439500D01*
D43*
X172370000Y-104170000D02*
X172700000Y-104500000D01*
D42*
X170950000Y-105780000D02*
X170730000Y-106000000D01*
%TO.N,Net-(D3-K)*%
X164160000Y-109200000D02*
X164110000Y-109250000D01*
X165100000Y-109200000D02*
X164160000Y-109200000D01*
X164900000Y-109677000D02*
X164900000Y-109400000D01*
X171270000Y-106500000D02*
X172393602Y-106500000D01*
X172393602Y-106500000D02*
X172658711Y-106765109D01*
X166400000Y-110600000D02*
X165823000Y-110600000D01*
X165823000Y-110600000D02*
X164900000Y-109677000D01*
D43*
%TO.N,/ESC2/ESC2_A*%
X137450000Y-112170000D02*
X137450000Y-111520000D01*
D42*
X145475000Y-105325000D02*
X145280002Y-105130002D01*
D43*
X137450000Y-112830000D02*
X137450000Y-112180000D01*
D42*
X145280002Y-105130002D02*
X145280002Y-104314998D01*
X148775000Y-110725000D02*
X149124893Y-111074893D01*
X145351500Y-105201500D02*
X145475000Y-105325000D01*
X145475000Y-105325000D02*
X148775000Y-108625000D01*
X148775000Y-108625000D02*
X148775000Y-110725000D01*
D43*
%TO.N,/ESC2/ESC2_B*%
X137450000Y-108830000D02*
X137450000Y-107520000D01*
D42*
%TO.N,Net-(D5-K)*%
X140335596Y-106450000D02*
X142032759Y-106450000D01*
X135725000Y-107300000D02*
X136400000Y-106625000D01*
X137110881Y-106682500D02*
X137796904Y-106682500D01*
X142595259Y-107012500D02*
X143300000Y-107012500D01*
X136400000Y-106625000D02*
X137053380Y-106625000D01*
X136012500Y-110237500D02*
X135725000Y-109950000D01*
X142032759Y-106450000D02*
X142595259Y-107012500D01*
X136125000Y-110237500D02*
X136012500Y-110237500D01*
X137053380Y-106625000D02*
X137110881Y-106682500D01*
X137825903Y-106711500D02*
X140074096Y-106711500D01*
X140074096Y-106711500D02*
X140335596Y-106450000D01*
X135725000Y-109950000D02*
X135725000Y-107300000D01*
X137796904Y-106682500D02*
X137825903Y-106711500D01*
%TO.N,Net-(D6-K)*%
X141500000Y-110775000D02*
X141975000Y-110775000D01*
X135325000Y-107025000D02*
X135325000Y-110325000D01*
X140900000Y-110175000D02*
X141500000Y-110775000D01*
X136925000Y-110175000D02*
X140900000Y-110175000D01*
X135325000Y-110325000D02*
X135750000Y-110750000D01*
X135975000Y-106375000D02*
X135325000Y-107025000D01*
X135750000Y-110750000D02*
X136350000Y-110750000D01*
X136350000Y-110750000D02*
X136925000Y-110175000D01*
%TO.N,/ESC2/ESC2_C*%
X145110086Y-107586500D02*
X145325000Y-107801414D01*
X144503500Y-110398500D02*
X144012055Y-110398500D01*
D43*
X137450000Y-104830000D02*
X137450000Y-103520000D01*
D42*
X145325000Y-109577000D02*
X144503500Y-110398500D01*
X144012055Y-110398500D02*
X143833049Y-110577506D01*
X141325000Y-107400000D02*
X141511500Y-107586500D01*
X141511500Y-107586500D02*
X145110086Y-107586500D01*
X145325000Y-107801414D02*
X145325000Y-109577000D01*
%TO.N,Net-(D7-K)*%
X150809767Y-94288944D02*
X150890002Y-94208709D01*
X136025000Y-102700000D02*
X145500000Y-102700000D01*
X147550000Y-96825000D02*
X150086056Y-94288944D01*
X145500000Y-102700000D02*
X146750000Y-101450000D01*
X146750000Y-101450000D02*
X146750000Y-98515380D01*
X146750000Y-98515380D02*
X147550000Y-97715380D01*
X147550000Y-97715380D02*
X147550000Y-96825000D01*
X150086056Y-94288944D02*
X150809767Y-94288944D01*
%TO.N,/ESC3/ESC2_A*%
X145492735Y-98626967D02*
X145492735Y-99051537D01*
X145775000Y-98344702D02*
X145492735Y-98626967D01*
X145033641Y-101962500D02*
X144475000Y-101962500D01*
X145492735Y-99051537D02*
X145580410Y-99139212D01*
X149575000Y-91937500D02*
X149475000Y-92037500D01*
X145580410Y-101415731D02*
X145033641Y-101962500D01*
D43*
X137450000Y-99520000D02*
X137450000Y-100180000D01*
D42*
X149475000Y-92037500D02*
X149475000Y-93075000D01*
X146175000Y-96375000D02*
X146175000Y-97711521D01*
X149475000Y-93075000D02*
X146175000Y-96375000D01*
X145580410Y-99139212D02*
X145580410Y-101415731D01*
X146175000Y-97711521D02*
X145775000Y-98111522D01*
X145775000Y-98111522D02*
X145775000Y-98344702D01*
X144475000Y-101962500D02*
X144375000Y-101862500D01*
D43*
X137450000Y-100830000D02*
X137450000Y-100180000D01*
D42*
%TO.N,/ESC3/ESC2_B*%
X146975000Y-92750000D02*
X147950000Y-91775000D01*
X145600000Y-92750000D02*
X146975000Y-92750000D01*
%TO.N,Net-(D8-K)*%
X147575000Y-93275000D02*
X148950000Y-91900000D01*
X145712345Y-94787345D02*
X145137500Y-94212500D01*
X144057000Y-98575000D02*
X145500000Y-97132000D01*
X145137500Y-93632012D02*
X145494512Y-93275000D01*
X142093500Y-99006500D02*
X142525000Y-98575000D01*
X145137500Y-94212500D02*
X145137500Y-93632012D01*
X135750000Y-98600000D02*
X136156500Y-99006500D01*
X136156500Y-99006500D02*
X142093500Y-99006500D01*
X145500000Y-96130760D02*
X145712345Y-95918416D01*
X145712345Y-95918416D02*
X145712345Y-94787345D01*
X145500000Y-97132000D02*
X145500000Y-96130760D01*
X142525000Y-98575000D02*
X144057000Y-98575000D01*
X145494512Y-93275000D02*
X147575000Y-93275000D01*
X142093500Y-99006500D02*
X142100000Y-99000000D01*
%TO.N,Net-(D9-K)*%
X135312500Y-94062500D02*
X135575000Y-94325000D01*
X146036120Y-90326500D02*
X146223119Y-90513500D01*
X141901880Y-90513500D02*
X142088881Y-90326500D01*
X135350000Y-91265380D02*
X136101880Y-90513500D01*
X136525000Y-94325000D02*
X136575000Y-94375000D01*
X146486500Y-90513500D02*
X146575000Y-90425000D01*
X135350000Y-92225000D02*
X135312500Y-92262500D01*
X135575000Y-94325000D02*
X136525000Y-94325000D01*
X136101880Y-90513500D02*
X141901880Y-90513500D01*
X135312500Y-92262500D02*
X135312500Y-94062500D01*
X135350000Y-92225000D02*
X135350000Y-91265380D01*
X142088881Y-90326500D02*
X146036120Y-90326500D01*
X146223119Y-90513500D02*
X146486500Y-90513500D01*
X135275000Y-92300000D02*
X135350000Y-92225000D01*
%TO.N,Net-(D10-K)*%
X158290000Y-93750000D02*
X157592160Y-93750000D01*
X157012074Y-94050000D02*
X157020404Y-94058330D01*
X156450000Y-94050000D02*
X157012074Y-94050000D01*
X157020404Y-94058330D02*
X157020404Y-94321756D01*
X157592160Y-93750000D02*
X157020404Y-94321756D01*
X171670000Y-102525000D02*
X172400000Y-102525000D01*
%TO.N,/ESC4/ESC2_A*%
X158950000Y-91950003D02*
X158799997Y-91800000D01*
D43*
X171930000Y-100500000D02*
X170950000Y-99520000D01*
D42*
X158950000Y-92590000D02*
X158950000Y-91950003D01*
X169800000Y-100500000D02*
X169800000Y-100650000D01*
X170165000Y-102525000D02*
X171130000Y-102525000D01*
X170165000Y-100865000D02*
X169800000Y-100500000D01*
D43*
X172370000Y-100830000D02*
X172700000Y-100500000D01*
D42*
X169800000Y-100650000D02*
X168275000Y-102175000D01*
X168275000Y-102175000D02*
X164325000Y-102175000D01*
D43*
X172370000Y-100170000D02*
X172700000Y-100500000D01*
X172700000Y-100500000D02*
X171930000Y-100500000D01*
D42*
X170165000Y-102525000D02*
X170165000Y-100865000D01*
D43*
X172700000Y-100500000D02*
X169800000Y-100500000D01*
X171930000Y-100500000D02*
X170950000Y-101480000D01*
%TO.N,/ESC4/ESC2_B*%
X171930000Y-96500000D02*
X170950000Y-95520000D01*
D42*
X160450000Y-91812500D02*
X160437500Y-91800000D01*
X162842890Y-92750000D02*
X162755390Y-92662500D01*
X169515000Y-98525000D02*
X169515000Y-96785000D01*
X160450000Y-92590000D02*
X160450000Y-91812500D01*
X168400000Y-94950000D02*
X166544512Y-94950000D01*
D43*
X172700000Y-96500000D02*
X169800000Y-96500000D01*
D42*
X170435000Y-98525000D02*
X170485000Y-98475000D01*
D43*
X172370000Y-96170000D02*
X172700000Y-96500000D01*
X171930000Y-96500000D02*
X170950000Y-97480000D01*
D42*
X169515000Y-96785000D02*
X169800000Y-96500000D01*
X169515000Y-98525000D02*
X170435000Y-98525000D01*
D43*
X172370000Y-96830000D02*
X172700000Y-96500000D01*
X172700000Y-96500000D02*
X171930000Y-96500000D01*
X169700000Y-97480000D02*
X170720000Y-97480000D01*
D42*
X169800000Y-96500000D02*
X169800000Y-96350000D01*
X166544512Y-94950000D02*
X164344512Y-92750000D01*
X169800000Y-96350000D02*
X168400000Y-94950000D01*
X164344512Y-92750000D02*
X162842890Y-92750000D01*
%TO.N,Net-(D11-K)*%
X159450000Y-92590000D02*
X159450000Y-91800000D01*
X159450000Y-90550000D02*
X159450000Y-91725218D01*
X159450000Y-91800000D02*
X159487391Y-91762609D01*
X159450000Y-91725218D02*
X159487391Y-91762609D01*
X171525000Y-98475000D02*
X171625000Y-98375000D01*
X171025000Y-98475000D02*
X171525000Y-98475000D01*
%TO.N,Net-(D12-K)*%
X160925000Y-91125000D02*
X160950000Y-91150000D01*
X160925000Y-90700000D02*
X161050000Y-90575000D01*
X170920000Y-94500000D02*
X171725000Y-94500000D01*
X160950000Y-91150000D02*
X160950000Y-92590000D01*
X160925000Y-91125000D02*
X160925000Y-90700000D01*
X171725000Y-94500000D02*
X171800000Y-94425000D01*
D43*
%TO.N,/ESC4/ESC2_C*%
X172370000Y-92830000D02*
X172700000Y-92500000D01*
X171930000Y-92500000D02*
X170950000Y-93480000D01*
D42*
X168457501Y-91007501D02*
X167737717Y-91007501D01*
D43*
X172700000Y-92500000D02*
X171930000Y-92500000D01*
D42*
X167688718Y-91056500D02*
X164303500Y-91056500D01*
X169800000Y-92500000D02*
X169800000Y-92350000D01*
X164303500Y-91056500D02*
X163210000Y-92150000D01*
X163210000Y-92150000D02*
X162543105Y-92150000D01*
D43*
X169700000Y-93480000D02*
X169530000Y-93480000D01*
D42*
X162110000Y-92583105D02*
X162110000Y-93250000D01*
X162543105Y-92150000D02*
X162110000Y-92583105D01*
X169800000Y-92350000D02*
X168457501Y-91007501D01*
X167737717Y-91007501D02*
X167688718Y-91056500D01*
D43*
X171930000Y-92500000D02*
X170950000Y-91520000D01*
X169700000Y-93480000D02*
X170720000Y-93480000D01*
X172700000Y-92500000D02*
X169800000Y-92500000D01*
X169700000Y-91520000D02*
X169530000Y-91520000D01*
D42*
X169375000Y-92925000D02*
X169800000Y-92500000D01*
X170380000Y-94500000D02*
X169375000Y-94500000D01*
X169375000Y-94500000D02*
X169375000Y-92925000D01*
D44*
%TO.N,Net-(U21-SW)*%
X159700000Y-118830000D02*
X163030000Y-118830000D01*
X163030000Y-118830000D02*
X163900000Y-119700000D01*
D45*
%TO.N,/VBAT*%
X152600000Y-115200000D02*
X152600000Y-115700000D01*
D43*
X156000000Y-117800000D02*
X156000000Y-117700000D01*
X157100000Y-121249000D02*
X157100000Y-118900000D01*
X156949000Y-121249000D02*
X156500000Y-120800000D01*
D45*
X152000000Y-114600000D02*
X152600000Y-115200000D01*
D43*
X156500000Y-120800000D02*
X156500000Y-118200000D01*
X156500000Y-118200000D02*
X156000000Y-117700000D01*
X156949000Y-121249000D02*
X157100000Y-121249000D01*
X155500000Y-117800000D02*
X155900000Y-117800000D01*
X157100000Y-118900000D02*
X156000000Y-117800000D01*
X155900000Y-117800000D02*
X156000000Y-117700000D01*
X156949000Y-121249000D02*
X156000000Y-120300000D01*
X156000000Y-120300000D02*
X156000000Y-117700000D01*
D42*
%TO.N,/CUR*%
X148187502Y-102962498D02*
X150600000Y-100550000D01*
X150600000Y-96825000D02*
X153512500Y-93912500D01*
X149387500Y-110612715D02*
X149387500Y-108537500D01*
X149637393Y-114802607D02*
X149637393Y-110862608D01*
X149387500Y-108537500D02*
X147425000Y-106575000D01*
X148053096Y-102962498D02*
X148187502Y-102962498D01*
X153512500Y-91552880D02*
X154700000Y-90365380D01*
X149637393Y-110862608D02*
X149387500Y-110612715D01*
X154700000Y-90365380D02*
X154700000Y-87940000D01*
X148900000Y-115540000D02*
X149637393Y-114802607D01*
X147425000Y-106575000D02*
X147425000Y-103590594D01*
X150600000Y-100550000D02*
X150600000Y-96825000D01*
X153512500Y-93912500D02*
X153512500Y-91552880D01*
X147425000Y-103590594D02*
X148053096Y-102962498D01*
%TO.N,/PWM4*%
X153700000Y-89385000D02*
X153700000Y-87940000D01*
%TO.N,/PWM1*%
X150700000Y-89360000D02*
X150700000Y-87940000D01*
%TO.N,/PWM3*%
X152725000Y-89360000D02*
X152725000Y-87965000D01*
X152725000Y-87965000D02*
X152700000Y-87940000D01*
%TO.N,/PWM2*%
X151700000Y-89360000D02*
X151700000Y-87940000D01*
%TO.N,Net-(Q2-G)*%
X166907500Y-113480000D02*
X166700000Y-113687500D01*
X167950000Y-113480000D02*
X166907500Y-113480000D01*
%TO.N,Net-(Q4-G)*%
X167950000Y-109480000D02*
X167081228Y-109480000D01*
X167081228Y-109480000D02*
X167073728Y-109487500D01*
%TO.N,Net-(Q6-G)*%
X167950000Y-105480000D02*
X167187179Y-105480000D01*
X167187179Y-105480000D02*
X167145982Y-105521197D01*
%TO.N,Net-(Q7-G)*%
X136380000Y-109350000D02*
X137320000Y-109350000D01*
X137320000Y-109350000D02*
X137450000Y-109480000D01*
%TO.N,Net-(Q8-G)*%
X143186500Y-109551500D02*
X142126500Y-109551500D01*
X143610000Y-109975000D02*
X143186500Y-109551500D01*
X142060000Y-109618000D02*
X142060000Y-109975000D01*
X142060000Y-109975000D02*
X141689096Y-109975000D01*
X142126500Y-109551500D02*
X142060000Y-109618000D01*
X141689096Y-109975000D02*
X141300002Y-109585906D01*
%TO.N,Net-(Q9-G)*%
X136255000Y-113450000D02*
X137420000Y-113450000D01*
X137420000Y-113450000D02*
X137450000Y-113480000D01*
%TO.N,Net-(Q10-G)*%
X141695000Y-113550000D02*
X142095000Y-113950000D01*
X142095000Y-113656500D02*
X142225000Y-113526500D01*
X142225000Y-113526500D02*
X143136500Y-113526500D01*
X142095000Y-113950000D02*
X142095000Y-113656500D01*
X141250002Y-113550000D02*
X141695000Y-113550000D01*
X143136500Y-113526500D02*
X143560000Y-113950000D01*
%TO.N,Net-(Q11-G)*%
X136190000Y-105475000D02*
X137445000Y-105475000D01*
X137445000Y-105475000D02*
X137450000Y-105480000D01*
%TO.N,Net-(Q12-G)*%
X141375000Y-105625000D02*
X141250000Y-105500000D01*
X143036500Y-105201500D02*
X142098500Y-105201500D01*
X142098500Y-105201500D02*
X141960000Y-105340000D01*
X141960000Y-105340000D02*
X141960000Y-105625000D01*
X141960000Y-105625000D02*
X141375000Y-105625000D01*
X143460000Y-105625000D02*
X143036500Y-105201500D01*
%TO.N,Net-(Q13-G)*%
X136165000Y-97475000D02*
X137445000Y-97475000D01*
X137445000Y-97475000D02*
X137450000Y-97480000D01*
%TO.N,Net-(Q14-G)*%
X143010000Y-97665000D02*
X143243500Y-97431500D01*
X141624217Y-97475783D02*
X141450000Y-97650000D01*
X143035000Y-95260000D02*
X143035000Y-94975000D01*
X143243500Y-95468500D02*
X143035000Y-95260000D01*
X142585783Y-97475783D02*
X141624217Y-97475783D01*
X143010000Y-97900000D02*
X143010000Y-97665000D01*
X143243500Y-97431500D02*
X143243500Y-95468500D01*
X143010000Y-97900000D02*
X142585783Y-97475783D01*
%TO.N,Net-(Q15-G)*%
X136180000Y-101400000D02*
X137370000Y-101400000D01*
X137370000Y-101400000D02*
X137450000Y-101480000D01*
%TO.N,Net-(Q16-G)*%
X142935000Y-99361242D02*
X143193500Y-99619742D01*
X142935000Y-99000000D02*
X142935000Y-99361242D01*
X143193500Y-99619742D02*
X143193500Y-101359500D01*
X143010000Y-101900000D02*
X141550000Y-101900000D01*
X141550000Y-101900000D02*
X141325000Y-101675000D01*
X143010000Y-101543000D02*
X143010000Y-101900000D01*
X143193500Y-101359500D02*
X143010000Y-101543000D01*
%TO.N,Net-(Q17-G)*%
X136290000Y-93450000D02*
X137420000Y-93450000D01*
X137420000Y-93450000D02*
X137450000Y-93480000D01*
%TO.N,Net-(Q18-G)*%
X143268500Y-91568500D02*
X143060000Y-91360000D01*
X143268500Y-93488500D02*
X143268500Y-91568500D01*
X143020000Y-93737000D02*
X143268500Y-93488500D01*
X143060000Y-91360000D02*
X143060000Y-91075000D01*
X143020000Y-94025000D02*
X141900000Y-94025000D01*
X141900000Y-94025000D02*
X141625000Y-93750000D01*
X143020000Y-94025000D02*
X143020000Y-93737000D01*
%TO.N,Net-(Q20-G)*%
X166170000Y-97480000D02*
X167950000Y-97480000D01*
X166000000Y-97650000D02*
X166170000Y-97480000D01*
%TO.N,Net-(Q22-G)*%
X167950000Y-101480000D02*
X165945000Y-101480000D01*
X165945000Y-101480000D02*
X165775000Y-101650000D01*
%TO.N,Net-(Q24-G)*%
X165900000Y-93650000D02*
X166070000Y-93480000D01*
X166070000Y-93480000D02*
X167950000Y-93480000D01*
%TO.N,Net-(U3-PA5)*%
X164400000Y-104800000D02*
X163625000Y-104800000D01*
X169360000Y-106500000D02*
X166100000Y-106500000D01*
X162326581Y-104237393D02*
X160521374Y-104237393D01*
D45*
X157200000Y-107500000D02*
X157200000Y-108133700D01*
D42*
X163625000Y-104800000D02*
X162996643Y-104171643D01*
D45*
X157200000Y-108133700D02*
X157535395Y-108469095D01*
D42*
X160521374Y-104237393D02*
X160279598Y-103995617D01*
X166100000Y-106500000D02*
X164400000Y-104800000D01*
X162392331Y-104171643D02*
X162326581Y-104237393D01*
X162996643Y-104171643D02*
X162392331Y-104171643D01*
%TO.N,Net-(U3-PA4)*%
X162759619Y-112900000D02*
X161740380Y-112900000D01*
X164059619Y-111600000D02*
X162759619Y-112900000D01*
X168835000Y-110500000D02*
X167600000Y-110500000D01*
X167600000Y-110500000D02*
X166500000Y-111600000D01*
D45*
X156800000Y-107500000D02*
X156800000Y-108248098D01*
D42*
X160040380Y-111200000D02*
X158700000Y-111200000D01*
X161740380Y-112900000D02*
X160040380Y-111200000D01*
X158700000Y-111200000D02*
X157300000Y-109800000D01*
D45*
X156800000Y-108248098D02*
X156672643Y-108375455D01*
D42*
X166500000Y-111600000D02*
X164059619Y-111600000D01*
%TO.N,Net-(U3-PA0)*%
X154500000Y-106450000D02*
X154500000Y-107000000D01*
X154500000Y-107000000D02*
X154800000Y-107300000D01*
X154650000Y-106300000D02*
X154500000Y-106450000D01*
X155200000Y-106300000D02*
X154650000Y-106300000D01*
D45*
%TO.N,Net-(U3-PA1)*%
X155200000Y-106700000D02*
X155200000Y-107000000D01*
X155200000Y-107000000D02*
X155312500Y-107112500D01*
X155312500Y-107112500D02*
X155312500Y-108500000D01*
%TO.N,Net-(U3-BOOT0)*%
X155203404Y-104300000D02*
X155469404Y-104034000D01*
X155200000Y-104300000D02*
X155203404Y-104300000D01*
D42*
%TO.N,Net-(U3-NRST)*%
X154350000Y-105200002D02*
X154649998Y-105500000D01*
X154350000Y-105043208D02*
X154350000Y-105200002D01*
X154649998Y-105500000D02*
X155200000Y-105500000D01*
X154375001Y-105018207D02*
X154350000Y-105043208D01*
%TO.N,Net-(U3-PA2)*%
X154350000Y-103775000D02*
X154175000Y-103950000D01*
X156600000Y-109000000D02*
X157500000Y-109000000D01*
X158750000Y-110250000D02*
X158825000Y-110250000D01*
X153400000Y-97950000D02*
X154125000Y-98675000D01*
X155900000Y-108300000D02*
X156600000Y-109000000D01*
X150700000Y-89840000D02*
X150700000Y-90250000D01*
X150700000Y-90250000D02*
X151975000Y-91525000D01*
X154125000Y-98675000D02*
X154350000Y-98900000D01*
X156000000Y-107500000D02*
X156000000Y-108200000D01*
X153400000Y-97050000D02*
X153400000Y-97950000D01*
X154350000Y-98900000D02*
X154350000Y-103225000D01*
X156000000Y-108200000D02*
X155900000Y-108300000D01*
X157500000Y-109000000D02*
X158750000Y-110250000D01*
X154350000Y-103225000D02*
X154350000Y-103775000D01*
%TO.N,/ESC1/H01*%
X163450000Y-106590000D02*
X163484647Y-106555353D01*
X163484647Y-106555353D02*
X163484647Y-106126236D01*
%TO.N,/ESC1/L01*%
X162502858Y-111972142D02*
X162950000Y-111525000D01*
X162502858Y-111976000D02*
X162502858Y-111972142D01*
X162950000Y-111525000D02*
X162950000Y-110410000D01*
%TO.N,/ESC1/H02*%
X164686500Y-108263500D02*
X166513500Y-108263500D01*
X164673000Y-108250000D02*
X164686500Y-108263500D01*
X167099998Y-107677002D02*
X167099998Y-107370362D01*
X164110000Y-108250000D02*
X164673000Y-108250000D01*
X166513500Y-108263500D02*
X167099998Y-107677002D01*
%TO.N,/ESC1/L02*%
X162450000Y-110410000D02*
X162450000Y-110987500D01*
X162450000Y-110987500D02*
X162437500Y-111000000D01*
%TO.N,/ESC1/H03*%
X164110000Y-109750000D02*
X164110000Y-110260000D01*
X164110000Y-110260000D02*
X164250000Y-110400000D01*
%TO.N,/ESC1/L03*%
X161950000Y-110950000D02*
X161950000Y-110410000D01*
X161700000Y-111200000D02*
X161950000Y-110950000D01*
%TO.N,Net-(U1-PA5)*%
X148457710Y-103956428D02*
X148556430Y-103956428D01*
X149532000Y-105560000D02*
X149175000Y-105560000D01*
X149700000Y-106497000D02*
X149700000Y-105728000D01*
X149918000Y-106715000D02*
X149700000Y-106497000D01*
X150275000Y-106715000D02*
X149918000Y-106715000D01*
X151100000Y-108325000D02*
X150275000Y-107500000D01*
X149175000Y-104574998D02*
X149175000Y-105560000D01*
X148556430Y-103956428D02*
X149175000Y-104574998D01*
X149700000Y-105728000D02*
X149532000Y-105560000D01*
X150275000Y-107500000D02*
X150275000Y-106715000D01*
%TO.N,Net-(U1-PA4)*%
X151250000Y-106690000D02*
X151250000Y-107780343D01*
X151250000Y-107780343D02*
X151782118Y-108312461D01*
%TO.N,Net-(U1-PA0)*%
X153465000Y-106665000D02*
X152225000Y-106665000D01*
X154125000Y-107325000D02*
X153465000Y-106665000D01*
%TO.N,Net-(U1-PA1)*%
X149175000Y-106040000D02*
X149175000Y-107124785D01*
X151286088Y-109235873D02*
X151540294Y-109235873D01*
X149175000Y-107124785D02*
X151286088Y-109235873D01*
%TO.N,Net-(U1-BOOT0)*%
X151450000Y-103910000D02*
X152947500Y-103910000D01*
X152947500Y-103910000D02*
X153025000Y-103987500D01*
%TO.N,Net-(U1-NRST)*%
X153718307Y-105210000D02*
X153175000Y-105210000D01*
X153946413Y-105438106D02*
X153718307Y-105210000D01*
%TO.N,Net-(U1-PA2)*%
X147887500Y-103587713D02*
X148000213Y-103475000D01*
X148000213Y-103475000D02*
X153025000Y-103475000D01*
X152052794Y-109448158D02*
X151752579Y-109748373D01*
X153025000Y-103475000D02*
X153825000Y-102675000D01*
X152052794Y-109297206D02*
X152052794Y-109448158D01*
X151700000Y-89840000D02*
X151700000Y-90400000D01*
X151328009Y-109748373D02*
X151229636Y-109650000D01*
X151229636Y-109650000D02*
X151225000Y-109650000D01*
X152900000Y-107625000D02*
X152900000Y-108450000D01*
X152900000Y-108450000D02*
X152052794Y-109297206D01*
X151225000Y-109650000D02*
X148050000Y-106475000D01*
X151752579Y-109748373D02*
X151328009Y-109748373D01*
X147887500Y-104012283D02*
X147887500Y-103587713D01*
X148050000Y-104174783D02*
X147887500Y-104012283D01*
X151700000Y-90400000D02*
X151775000Y-90475000D01*
X148050000Y-106475000D02*
X148050000Y-104174783D01*
%TO.N,/ESC2/H01*%
X144538070Y-111423500D02*
X144838285Y-111123285D01*
X135775000Y-112068000D02*
X137143000Y-110700000D01*
X146075000Y-107630761D02*
X145194239Y-106750000D01*
X145194239Y-106750000D02*
X145170180Y-106750000D01*
X135775000Y-113450000D02*
X135775000Y-112068000D01*
X143940000Y-111250000D02*
X144113500Y-111423500D01*
X144113500Y-111423500D02*
X144538070Y-111423500D01*
X145170180Y-106750000D02*
X144830619Y-106410439D01*
X141200000Y-111250000D02*
X143940000Y-111250000D01*
X144838285Y-110982954D02*
X146075000Y-109746239D01*
X144838285Y-111123285D02*
X144838285Y-110982954D01*
X140650000Y-110700000D02*
X141200000Y-111250000D01*
X144830619Y-106410439D02*
X144729076Y-106410439D01*
X146075000Y-109746239D02*
X146075000Y-107630761D01*
X137143000Y-110700000D02*
X140650000Y-110700000D01*
%TO.N,/ESC2/H02*%
X136917500Y-107007500D02*
X137662284Y-107007500D01*
X137691284Y-107036500D02*
X140208716Y-107036500D01*
X136325000Y-107600000D02*
X136917500Y-107007500D01*
X137662284Y-107007500D02*
X137691284Y-107036500D01*
X136325000Y-108810000D02*
X136325000Y-107600000D01*
X140357716Y-106887500D02*
X141745474Y-106887500D01*
X141745474Y-106887500D02*
X141820474Y-106962500D01*
X140208716Y-107036500D02*
X140357716Y-106887500D01*
%TO.N,/ESC2/L01*%
X144453500Y-114373500D02*
X145475000Y-113352000D01*
X142575000Y-113950000D02*
X142998500Y-114373500D01*
X145475000Y-111073119D02*
X145508564Y-111039555D01*
X142998500Y-114373500D02*
X144453500Y-114373500D01*
X145475000Y-113352000D02*
X145475000Y-111073119D01*
%TO.N,/ESC2/L02*%
X142543952Y-109975000D02*
X143184140Y-110615188D01*
X142540000Y-109975000D02*
X142543952Y-109975000D01*
%TO.N,/ESC2/L03*%
X144937500Y-105762500D02*
X144536000Y-105762500D01*
X144536000Y-105762500D02*
X144250000Y-106048500D01*
X146575000Y-111250000D02*
X146575000Y-107400000D01*
X142863500Y-106048500D02*
X142440000Y-105625000D01*
X144250000Y-106048500D02*
X142863500Y-106048500D01*
X146575000Y-107400000D02*
X144937500Y-105762500D01*
%TO.N,/ESC2/H03*%
X143398785Y-106386500D02*
X144087285Y-107075000D01*
X137931523Y-106357500D02*
X138164023Y-106125000D01*
X145700000Y-107715380D02*
X145700000Y-109661619D01*
X145059620Y-107075000D02*
X145700000Y-107715380D01*
X136786500Y-105898500D02*
X137245500Y-106357500D01*
X144470169Y-110891450D02*
X144345335Y-110891450D01*
X138164023Y-106125000D02*
X142167379Y-106125000D01*
X142167379Y-106125000D02*
X142428879Y-106386500D01*
X144087285Y-107075000D02*
X145059620Y-107075000D01*
X137245500Y-106357500D02*
X137662288Y-106357500D01*
X145700000Y-109661619D02*
X144470169Y-110891450D01*
X142428879Y-106386500D02*
X143398785Y-106386500D01*
X135776500Y-105898500D02*
X136786500Y-105898500D01*
X137662290Y-106357498D02*
X137931523Y-106357500D01*
X135710000Y-105832000D02*
X135776500Y-105898500D01*
X137662288Y-106357500D02*
X137662290Y-106357498D01*
X135710000Y-105475000D02*
X135710000Y-105832000D01*
%TO.N,Net-(U11-PA5)*%
X141425000Y-94350000D02*
X142175000Y-95100000D01*
X141325000Y-94350000D02*
X141425000Y-94350000D01*
%TO.N,Net-(U11-PA1)*%
X148225000Y-101225000D02*
X148225000Y-99533019D01*
X148225000Y-99533019D02*
X147999000Y-99307019D01*
%TO.N,Net-(U11-BOOT0)*%
X152075000Y-100265000D02*
X152075000Y-100375002D01*
X152075000Y-100375002D02*
X152900000Y-101200002D01*
%TO.N,Net-(U11-NRST)*%
X153400000Y-100675000D02*
X153400000Y-101625000D01*
X152160073Y-101950000D02*
X151797015Y-102313058D01*
X153100000Y-100275000D02*
X153400000Y-100575000D01*
X153400000Y-101625000D02*
X153075000Y-101950000D01*
X153400000Y-100575000D02*
X153400000Y-100675000D01*
X153075000Y-101950000D02*
X152160073Y-101950000D01*
%TO.N,Net-(U11-PA2)*%
X149750000Y-97225000D02*
X149750000Y-100900000D01*
X150275000Y-96690381D02*
X150275000Y-96700000D01*
X152725000Y-94240380D02*
X150275000Y-96690381D01*
X149750000Y-100900000D02*
X149412393Y-101237607D01*
X149412393Y-101237607D02*
X149187607Y-101237607D01*
X150275000Y-96700000D02*
X149750000Y-97225000D01*
X152725000Y-89840000D02*
X152725000Y-94240380D01*
%TO.N,/ESC3/H01*%
X141559619Y-102375000D02*
X145365380Y-102375000D01*
X141372119Y-102187500D02*
X141559619Y-102375000D01*
X150493829Y-93331171D02*
X150493829Y-92647528D01*
X135700000Y-101757000D02*
X136130500Y-102187500D01*
X147225000Y-97580760D02*
X147225000Y-96600000D01*
X147225000Y-96600000D02*
X150493829Y-93331171D01*
X136130500Y-102187500D02*
X141372119Y-102187500D01*
X146425000Y-101315380D02*
X146425000Y-98380760D01*
X146425000Y-98380760D02*
X147225000Y-97580760D01*
X145365380Y-102375000D02*
X146425000Y-101315380D01*
X135700000Y-101400000D02*
X135700000Y-101757000D01*
%TO.N,/ESC3/H02*%
X135685000Y-97475000D02*
X135685000Y-97832000D01*
X150049718Y-92366854D02*
X149981329Y-92435243D01*
X141741609Y-98500000D02*
X142253326Y-97988283D01*
X136353000Y-98500000D02*
X141741609Y-98500000D01*
X149900000Y-91250000D02*
X150049718Y-91399718D01*
X150049718Y-91399718D02*
X150049718Y-92366854D01*
X146900000Y-96250000D02*
X146900000Y-97446141D01*
X149981329Y-93168671D02*
X146900000Y-96250000D01*
X146100000Y-98676768D02*
X145958732Y-98818036D01*
X135685000Y-97832000D02*
X136353000Y-98500000D01*
X149981329Y-92435243D02*
X149981329Y-93168671D01*
X148450000Y-91250000D02*
X149900000Y-91250000D01*
X146100000Y-98246141D02*
X146100000Y-98676768D01*
X146900000Y-97446141D02*
X146100000Y-98246141D01*
%TO.N,/ESC3/L01*%
X145450000Y-98210082D02*
X145450000Y-97976903D01*
X145255410Y-101206111D02*
X145255410Y-99273832D01*
X145825000Y-96265380D02*
X146175000Y-95915380D01*
X145167735Y-99186156D02*
X145167735Y-98492347D01*
X145167735Y-98492347D02*
X145450000Y-98210082D01*
X146175000Y-95915380D02*
X146175000Y-94250000D01*
X146175000Y-94250000D02*
X145675000Y-93750000D01*
X145825000Y-97601902D02*
X145825000Y-96265380D01*
X143490000Y-101900000D02*
X144001500Y-101388500D01*
X145073021Y-101388500D02*
X145255410Y-101206111D01*
X145255410Y-99273832D02*
X145167735Y-99186156D01*
X144001500Y-101388500D02*
X145073021Y-101388500D01*
X145450000Y-97976903D02*
X145825000Y-97601902D01*
%TO.N,/ESC3/L02*%
X143515000Y-94975000D02*
X144871298Y-94975000D01*
X144871298Y-94975000D02*
X145023256Y-94823042D01*
%TO.N,/ESC3/L03*%
X143500000Y-94025000D02*
X143994218Y-94025000D01*
X143994218Y-94025000D02*
X144266445Y-94297227D01*
%TO.N,/ESC3/H03*%
X135810000Y-92033000D02*
X136868000Y-90975000D01*
X136868000Y-90975000D02*
X141900000Y-90975000D01*
X141900000Y-90975000D02*
X142223500Y-90651500D01*
X142223500Y-90651500D02*
X145901500Y-90651500D01*
X145901500Y-90651500D02*
X146875000Y-91625000D01*
X135810000Y-93450000D02*
X135810000Y-92033000D01*
%TO.N,Net-(U16-PA5)*%
X160224120Y-98787500D02*
X159912500Y-99099120D01*
X159912500Y-99439500D02*
X159852000Y-99500000D01*
X161638500Y-97713500D02*
X161638500Y-97898500D01*
X161085500Y-98451500D02*
X160701500Y-98451500D01*
X168895000Y-94500000D02*
X168150000Y-94500000D01*
X166150000Y-95225000D02*
X164127000Y-95225000D01*
X168150000Y-94500000D02*
X168100000Y-94450000D01*
X164127000Y-95225000D02*
X161638500Y-97713500D01*
X159852000Y-99500000D02*
X159200000Y-99500000D01*
X160701500Y-98451500D02*
X160365500Y-98787500D01*
X160365500Y-98787500D02*
X160224120Y-98787500D01*
X168100000Y-94450000D02*
X167425000Y-94450000D01*
X161638500Y-97898500D02*
X161085500Y-98451500D01*
X159912500Y-99099120D02*
X159912500Y-99439500D01*
%TO.N,Net-(U16-PA4)*%
X162875000Y-98525000D02*
X161500000Y-99900000D01*
X169035000Y-98525000D02*
X162875000Y-98525000D01*
X161500000Y-99900000D02*
X159200000Y-99900000D01*
%TO.N,Net-(U16-PA0)*%
X169685000Y-102525000D02*
X166525000Y-102525000D01*
X158000000Y-102152000D02*
X158000000Y-101500000D01*
X164537285Y-102687500D02*
X159387285Y-102687500D01*
X158435500Y-102587500D02*
X158000000Y-102152000D01*
X166525000Y-102525000D02*
X164699785Y-102525000D01*
X164699785Y-102525000D02*
X164537285Y-102687500D01*
X159387285Y-102687500D02*
X159287285Y-102587500D01*
X159287285Y-102587500D02*
X158435500Y-102587500D01*
X166525000Y-102985000D02*
X166525000Y-102525000D01*
%TO.N,Net-(U16-PA1)*%
X160940912Y-101779005D02*
X160940912Y-100930912D01*
X160940912Y-100930912D02*
X160500000Y-100490000D01*
X160640697Y-102079220D02*
X160940912Y-101779005D01*
X159162285Y-102175000D02*
X159571616Y-102175000D01*
X158400000Y-101500000D02*
X158400000Y-102050000D01*
X160059220Y-102079220D02*
X160640697Y-102079220D01*
X158400000Y-102050000D02*
X158562500Y-102212500D01*
X160690000Y-99300000D02*
X161125000Y-98865000D01*
X160450000Y-99300000D02*
X160690000Y-99300000D01*
X160500000Y-100935270D02*
X160332643Y-101102627D01*
X159660116Y-102086500D02*
X160385000Y-102086500D01*
X160500000Y-100490000D02*
X160500000Y-100935270D01*
X160000000Y-102020000D02*
X160059220Y-102079220D01*
X159124785Y-102212500D02*
X159162285Y-102175000D01*
X158562500Y-102212500D02*
X159124785Y-102212500D01*
X159571616Y-102175000D02*
X159660116Y-102086500D01*
%TO.N,Net-(U16-BOOT0)*%
X156000000Y-101500000D02*
X155749001Y-101249001D01*
X155749001Y-101249001D02*
X155654987Y-101249001D01*
%TO.N,Net-(U16-NRST)*%
X157200000Y-102050107D02*
X156859947Y-102390160D01*
X156859947Y-102390160D02*
X156835902Y-102390160D01*
X157200000Y-101500000D02*
X157200000Y-102050107D01*
%TO.N,Net-(U16-PA2)*%
X159200000Y-100700000D02*
X159200000Y-101412500D01*
X159200000Y-101412500D02*
X158912500Y-101700000D01*
X153700000Y-90600000D02*
X153700000Y-89865000D01*
%TO.N,/ESC4/H01*%
X157899486Y-93250000D02*
X157538279Y-92888793D01*
X158290000Y-93250000D02*
X157899486Y-93250000D01*
%TO.N,/ESC4/H02*%
X162203172Y-99896828D02*
X162203172Y-99939072D01*
X163050000Y-99050000D02*
X162203172Y-99896828D01*
X166500000Y-99050000D02*
X163050000Y-99050000D01*
%TO.N,/ESC4/L01*%
X162110000Y-93750000D02*
X162720107Y-93750000D01*
X162720107Y-93750000D02*
X162732607Y-93737500D01*
%TO.N,/ESC4/L02*%
X163296272Y-94250000D02*
X163460529Y-94414257D01*
X162110000Y-94250000D02*
X163296272Y-94250000D01*
%TO.N,/ESC4/L03*%
X163898243Y-94926757D02*
X163248244Y-94926757D01*
X163248244Y-94926757D02*
X163071487Y-94750000D01*
X163071487Y-94750000D02*
X162110000Y-94750000D01*
X164350000Y-94475000D02*
X163898243Y-94926757D01*
%TO.N,/ESC4/H03*%
X161450000Y-91725000D02*
X161450000Y-92590000D01*
%TO.N,/ESC1/SWCLK*%
X158675000Y-103500000D02*
X158925000Y-103250000D01*
X158400000Y-103500000D02*
X158675000Y-103500000D01*
%TO.N,/ESC1/SWDIO*%
X159200000Y-104300000D02*
X159200000Y-103666713D01*
X159200000Y-103666713D02*
X159566713Y-103300000D01*
%TO.N,/ESC2/SWCLK*%
X147575000Y-99109620D02*
X147575000Y-98725000D01*
X151975000Y-92250000D02*
X146150000Y-86425000D01*
X147575000Y-102450000D02*
X147486500Y-102361500D01*
X147486500Y-99198120D02*
X147575000Y-99109620D01*
X147486500Y-102361500D02*
X147486500Y-99198120D01*
X147575000Y-98725000D02*
X151248000Y-95052000D01*
X151453760Y-95052000D02*
X151975000Y-94530760D01*
X151248000Y-95052000D02*
X151453760Y-95052000D01*
X151975000Y-94530760D02*
X151975000Y-92250000D01*
%TO.N,/ESC2/SWDIO*%
X146625000Y-102750000D02*
X147075000Y-102300000D01*
X147075000Y-102300000D02*
X147075000Y-98650000D01*
X151353502Y-94561879D02*
X151353502Y-92153502D01*
X151268836Y-94643716D02*
X151293776Y-94618776D01*
X151353502Y-92153502D02*
X147125000Y-87925000D01*
X151000000Y-94725000D02*
X151190381Y-94725000D01*
X144000000Y-86425000D02*
X143475000Y-85900000D01*
X151190381Y-94725000D02*
X151353502Y-94561879D01*
X145500000Y-87925000D02*
X144000000Y-86425000D01*
X143475000Y-85900000D02*
X143475000Y-84450000D01*
X147125000Y-87925000D02*
X145500000Y-87925000D01*
X147075000Y-98650000D02*
X151000000Y-94725000D01*
X151268836Y-94681276D02*
X151268836Y-94643716D01*
X145500000Y-87925000D02*
X145400000Y-87925000D01*
%TO.N,/ESC3/SWCLK*%
X152900000Y-96806500D02*
X154215750Y-95490750D01*
X154215750Y-92134250D02*
X155850000Y-90500000D01*
X152900000Y-97700000D02*
X152900000Y-96806500D01*
X154215750Y-95490750D02*
X154215750Y-92134250D01*
%TO.N,/ESC3/SWDIO*%
X154200000Y-91325000D02*
X154225000Y-91325000D01*
X153837500Y-91687500D02*
X154200000Y-91325000D01*
X154225000Y-91325000D02*
X155375000Y-90175000D01*
X152500000Y-96550000D02*
X153837500Y-95212500D01*
X153837500Y-95212500D02*
X153837500Y-91687500D01*
X155375000Y-90175000D02*
X155375000Y-90075000D01*
%TO.N,/ESC4/SWCLK*%
X160515381Y-87275000D02*
X161800000Y-87275000D01*
X158513500Y-88911500D02*
X158878880Y-88911500D01*
X154550000Y-97650000D02*
X154550000Y-92875000D01*
X155200000Y-98300000D02*
X154550000Y-97650000D01*
X158878880Y-88911500D02*
X160515381Y-87275000D01*
X154550000Y-92875000D02*
X158513500Y-88911500D01*
%TO.N,/ESC4/SWDIO*%
X154900000Y-96075000D02*
X154900000Y-93350000D01*
X154900000Y-93350000D02*
X159100000Y-89150000D01*
X165125000Y-87675000D02*
X165125000Y-84400000D01*
X159100000Y-89150000D02*
X163650000Y-89150000D01*
X163650000Y-89150000D02*
X165125000Y-87675000D01*
X156000000Y-97175000D02*
X154900000Y-96075000D01*
X156000000Y-97500000D02*
X156000000Y-97175000D01*
%TO.N,/ESC1/HI1*%
X159925273Y-104700000D02*
X159200000Y-104700000D01*
X160841373Y-104611501D02*
X160013772Y-104611501D01*
X160013772Y-104611501D02*
X159925273Y-104700000D01*
X161950000Y-105720128D02*
X160841373Y-104611501D01*
X161950000Y-106590000D02*
X161950000Y-105720128D01*
%TO.N,/ESC1/LI1*%
X159810000Y-107310000D02*
X159200000Y-106700000D01*
X160290000Y-107250000D02*
X160230000Y-107310000D01*
X160230000Y-107310000D02*
X159810000Y-107310000D01*
%TO.N,/ESC1/HI3*%
X160572135Y-105261501D02*
X160283013Y-105261500D01*
X160950000Y-105639367D02*
X160572135Y-105261501D01*
X160063012Y-105481500D02*
X159218500Y-105481500D01*
X159218500Y-105481500D02*
X159200000Y-105500000D01*
X160950000Y-106590000D02*
X160950000Y-105639367D01*
X160283013Y-105261500D02*
X160063012Y-105481500D01*
%TO.N,/ESC1/LI2*%
X158950000Y-107750000D02*
X158700000Y-107500000D01*
X160290000Y-107750000D02*
X158950000Y-107750000D01*
X158700000Y-107500000D02*
X158400000Y-107500000D01*
%TO.N,/ESC1/LI3*%
X158000000Y-108152000D02*
X158000000Y-107500000D01*
X160290000Y-108250000D02*
X158098000Y-108250000D01*
X158098000Y-108250000D02*
X158000000Y-108152000D01*
%TO.N,/ESC1/HI2*%
X160148393Y-104936500D02*
X159984893Y-105100000D01*
X159984893Y-105100000D02*
X159200000Y-105100000D01*
X161450000Y-106590000D02*
X161450000Y-105679748D01*
X161450000Y-105679748D02*
X160706752Y-104936500D01*
X160706752Y-104936500D02*
X160148393Y-104936500D01*
%TO.N,/ESC4/LI3*%
X159950000Y-97754106D02*
X159950000Y-96410000D01*
X159888500Y-98663500D02*
X159888500Y-97815606D01*
X159888500Y-97815606D02*
X159950000Y-97754106D01*
X159852000Y-98700000D02*
X159888500Y-98663500D01*
X159200000Y-98700000D02*
X159852000Y-98700000D01*
%TO.N,/ESC4/LI2*%
X159450000Y-98050000D02*
X159450000Y-96410000D01*
X159200000Y-98300000D02*
X159450000Y-98050000D01*
%TO.N,/ESC4/HI1*%
X156400000Y-97500000D02*
X156400000Y-96250000D01*
X156400000Y-96250000D02*
X157900000Y-94750000D01*
X157900000Y-94750000D02*
X158290000Y-94750000D01*
%TO.N,/ESC4/HI2*%
X156800000Y-97500000D02*
X156800000Y-96309620D01*
X156800000Y-96309620D02*
X157859620Y-95250000D01*
X157859620Y-95250000D02*
X158290000Y-95250000D01*
%TO.N,/ESC4/HI3*%
X157200000Y-97500000D02*
X157200000Y-96369240D01*
X157200000Y-96369240D02*
X157819240Y-95750000D01*
X157819240Y-95750000D02*
X158290000Y-95750000D01*
%TO.N,/ESC4/LI1*%
X158950000Y-96950000D02*
X158950000Y-96410000D01*
X158400000Y-97500000D02*
X158950000Y-96950000D01*
D44*
%TO.N,Net-(U24-OUT)*%
X149400000Y-117960000D02*
X148900000Y-118460000D01*
X149400000Y-117300000D02*
X149400000Y-117960000D01*
D43*
%TO.N,/VIN*%
X140455000Y-112175000D02*
X140450000Y-112170000D01*
D45*
X150499998Y-116500002D02*
X151300000Y-115700000D01*
D43*
X140450000Y-107520000D02*
X140450000Y-109480000D01*
D45*
X150499998Y-117866169D02*
X150499998Y-116500002D01*
D43*
X142300000Y-92550000D02*
X141925000Y-92175000D01*
X142300000Y-92550000D02*
X142025000Y-92825000D01*
X140455000Y-96175000D02*
X140450000Y-96170000D01*
X142175000Y-108525000D02*
X141825000Y-108175000D01*
X142175000Y-108525000D02*
X141875000Y-108825000D01*
X142175000Y-112500000D02*
X141850000Y-112175000D01*
X141550000Y-92825000D02*
X141545000Y-92830000D01*
X142225000Y-100450000D02*
X141950000Y-100175000D01*
X141850000Y-112175000D02*
X140455000Y-112175000D01*
X157700000Y-87940000D02*
X158215000Y-87940000D01*
X141825000Y-112850000D02*
X140470000Y-112850000D01*
X140450000Y-111520000D02*
X140450000Y-113480000D01*
X142175000Y-104175000D02*
X140455000Y-104175000D01*
X140455000Y-96825000D02*
X140450000Y-96830000D01*
X141875000Y-108825000D02*
X140455000Y-108825000D01*
X141545000Y-92830000D02*
X140450000Y-92830000D01*
X142225000Y-100450000D02*
X141850000Y-100825000D01*
X141850000Y-100825000D02*
X140455000Y-100825000D01*
X140450000Y-101480000D02*
X140450000Y-100830000D01*
X140455000Y-108825000D02*
X140450000Y-108830000D01*
X142175000Y-104175000D02*
X141500000Y-104850000D01*
D45*
X151300000Y-115700000D02*
X151600000Y-115700000D01*
D43*
X157700000Y-87940000D02*
X158235000Y-87940000D01*
X140455000Y-92175000D02*
X140450000Y-92170000D01*
X141925000Y-92175000D02*
X140455000Y-92175000D01*
X140450000Y-95520000D02*
X140450000Y-96170000D01*
X141825000Y-108175000D02*
X140455000Y-108175000D01*
X142000000Y-96175000D02*
X140455000Y-96175000D01*
X140450000Y-91520000D02*
X140450000Y-92170000D01*
X142275000Y-96450000D02*
X142000000Y-96175000D01*
X142175000Y-112500000D02*
X141825000Y-112850000D01*
X140455000Y-108175000D02*
X140450000Y-108170000D01*
X140455000Y-100175000D02*
X140450000Y-100170000D01*
X140450000Y-97480000D02*
X140450000Y-96830000D01*
X142275000Y-96450000D02*
X141900000Y-96825000D01*
X142025000Y-92825000D02*
X141550000Y-92825000D01*
X141500000Y-104850000D02*
X140470000Y-104850000D01*
X140455000Y-100825000D02*
X140450000Y-100830000D01*
X140470000Y-112850000D02*
X140450000Y-112830000D01*
X158235000Y-87940000D02*
X158525000Y-87650000D01*
X140470000Y-104850000D02*
X140450000Y-104830000D01*
X141950000Y-100175000D02*
X140455000Y-100175000D01*
X140455000Y-104175000D02*
X140450000Y-104170000D01*
X141900000Y-96825000D02*
X140455000Y-96825000D01*
X140450000Y-93480000D02*
X140450000Y-92830000D01*
X140450000Y-99520000D02*
X140450000Y-100170000D01*
X158215000Y-87940000D02*
X158500000Y-88225000D01*
X140450000Y-103520000D02*
X140450000Y-105480000D01*
D45*
%TO.N,Net-(U22-SS{slash}TR)*%
X158000000Y-112300000D02*
X158000000Y-113640000D01*
X158000000Y-113640000D02*
X158060000Y-113700000D01*
%TO.N,Net-(U22-FB)*%
X159300000Y-114700000D02*
X159010000Y-114990000D01*
X159010000Y-114990000D02*
X158060000Y-114990000D01*
X159300000Y-113600000D02*
X159300000Y-114700000D01*
%TD*%
M02*
