M48
; DRILL file {KiCad 9.0.6} date 2025-12-26T21:42:13+0100
; FORMAT={-:-/ absolute / metric / decimal}
; #@! TF.CreationDate,2025-12-26T21:42:13+01:00
; #@! TF.GenerationSoftware,Kicad,Pcbnew,9.0.6
; #@! TF.FileFunction,Plated,3,4,Blind
FMAT,2
METRIC
; #@! TA.AperFunction,Plated,Buried,ViaDrill
T1C0.200
; #@! TA.AperFunction,Plated,Buried,ViaDrill
T2C0.300
%
G90
G05
T1
X142.3Y-110.05
X142.525Y-107.55
X147.478Y-104.168
X147.887Y-97.45
X147.925Y-105.9
X148.225Y-89.5
X150.475Y-96.675
X151.343Y-93.331
X152.225Y-95.05
X167.2Y-100.9
X167.225Y-108.175
X167.25Y-96.825
X167.25Y-100.225
X167.25Y-104.85
X167.275Y-96.15
X167.275Y-104.15
X167.3Y-108.85
X167.325Y-92.15
X167.35Y-92.825
X169.0Y-104.7
X169.0Y-108.5
X169.1Y-112.5
T2
X147.6Y-115.4
M30
