M48
; DRILL file {KiCad 9.0.6} date 2025-12-26T21:42:13+0100
; FORMAT={-:-/ absolute / metric / decimal}
; #@! TF.CreationDate,2025-12-26T21:42:13+01:00
; #@! TF.GenerationSoftware,Kicad,Pcbnew,9.0.6
; #@! TF.FileFunction,Plated,1,4,PTH
FMAT,2
METRIC
; #@! TA.AperFunction,Plated,PTH,ViaDrill
T1C0.200
; #@! TA.AperFunction,Plated,PTH,ViaDrill
T2C0.300
; #@! TA.AperFunction,Plated,PTH,ViaDrill
T3C4.200
%
G90
G05
T1
X135.75Y-98.6
X135.975Y-106.375
X136.025Y-102.7
X136.125Y-110.237
X136.575Y-94.375
X137.35Y-103.52
X137.45Y-91.52
X137.45Y-92.17
X137.45Y-92.83
X137.45Y-95.52
X137.45Y-96.17
X137.45Y-96.83
X137.45Y-99.52
X137.45Y-100.18
X137.45Y-100.83
X137.45Y-104.17
X137.45Y-104.83
X137.45Y-107.52
X137.45Y-108.17
X137.45Y-108.83
X137.45Y-111.52
X137.45Y-112.17
X137.45Y-112.83
X141.25Y-105.5
X141.25Y-113.55
X141.3Y-109.586
X141.325Y-94.35
X141.325Y-101.675
X141.325Y-107.4
X141.45Y-97.65
X141.625Y-93.75
X141.82Y-106.962
X141.975Y-110.775
X142.175Y-95.1
X142.253Y-97.988
X143.184Y-110.615
X143.3Y-107.012
X143.833Y-110.578
X144.225Y-100.45
X144.266Y-94.297
X144.345Y-110.891
X144.375Y-101.862
X144.729Y-106.41
X145.023Y-94.823
X145.28Y-104.315
X145.509Y-111.04
X145.6Y-92.75
X145.675Y-93.75
X145.959Y-98.818
X146.575Y-90.425
X146.575Y-111.25
X146.625Y-102.75
X146.875Y-91.625
X147.575Y-102.45
X147.95Y-91.775
X147.999Y-99.307
X148.225Y-101.225
X148.45Y-91.25
X148.458Y-103.956
X148.95Y-91.9
X149.125Y-111.075
X149.188Y-101.238
X149.4Y-84.06
X149.575Y-91.938
X150.494Y-92.648
X150.89Y-94.209
X150.9Y-102.6
X151.1Y-108.325
X151.2Y-99.5
X151.2Y-105.5
X151.54Y-109.236
X151.775Y-90.475
X151.782Y-108.312
X151.797Y-102.313
X151.975Y-91.525
X152.5Y-96.55
X152.9Y-97.7
X152.9Y-101.2
X152.9Y-107.625
X153.025Y-103.987
X153.4Y-97.05
X153.7Y-90.6
X153.825Y-102.675
X153.946Y-105.438
X154.125Y-107.325
X154.175Y-103.95
X154.303Y-105.932
X154.375Y-105.018
X154.8Y-107.3
X155.312Y-108.5
X155.375Y-90.075
X155.469Y-104.034
X155.655Y-101.249
X155.85Y-90.5
X155.9Y-108.3
X156.5Y-113.0
X156.673Y-108.375
X156.7Y-89.45
X156.836Y-102.39
X156.9Y-114.7
X157.02Y-94.322
X157.1Y-99.5
X157.2Y-105.5
X157.3Y-109.8
X157.535Y-108.469
X157.538Y-92.889
X157.55Y-102.675
X158.8Y-91.8
X158.825Y-110.25
X158.912Y-101.7
X158.925Y-103.25
X159.0Y-84.06
X159.3Y-112.6
X159.487Y-91.763
X159.567Y-103.3
X159.6Y-110.3
X160.1Y-91.1
X160.1Y-112.2
X160.28Y-103.996
X160.333Y-101.103
X160.438Y-91.8
X160.45Y-99.3
X160.925Y-91.125
X161.45Y-91.725
X161.7Y-111.2
X162.114Y-103.725
X162.203Y-99.939
X162.438Y-111.0
X162.503Y-111.976
X162.733Y-93.737
X162.755Y-92.662
X163.461Y-94.414
X163.485Y-106.126
X164.063Y-106.382
X164.1Y-96.525
X164.2Y-100.575
X164.25Y-110.4
X164.325Y-102.175
X164.35Y-94.475
X164.7Y-118.9
X165.214Y-107.439
X165.775Y-101.65
X165.9Y-93.65
X166.0Y-97.65
X166.15Y-95.225
X166.237Y-92.462
X166.4Y-110.6
X166.5Y-99.05
X167.074Y-109.487
X167.1Y-107.37
X167.146Y-105.521
X167.425Y-94.45
X170.95Y-91.52
X170.95Y-92.83
X170.95Y-95.52
X170.95Y-96.83
X170.95Y-99.52
X170.95Y-100.83
X170.95Y-104.18
X170.95Y-108.2
X171.625Y-98.375
X171.8Y-94.425
X172.4Y-102.525
X172.6Y-110.087
X172.623Y-112.5
X172.659Y-106.765
T2
X149.4Y-117.3
X150.5Y-117.866
X152.0Y-114.6
X156.0Y-117.7
X163.9Y-119.7
X164.0Y-112.5
X166.7Y-113.688
T3
X138.95Y-87.25
X138.95Y-117.75
X169.45Y-87.25
X169.45Y-117.75
M30
