M48
; DRILL file {KiCad 9.0.6} date 2025-12-26T21:42:13+0100
; FORMAT={-:-/ absolute / metric / decimal}
; #@! TF.CreationDate,2025-12-26T21:42:13+01:00
; #@! TF.GenerationSoftware,Kicad,Pcbnew,9.0.6
; #@! TF.FileFunction,Plated,1,2,Blind
FMAT,2
METRIC
; #@! TA.AperFunction,Plated,Buried,ViaDrill
T1C0.200
; #@! TA.AperFunction,Plated,Buried,ViaDrill
T2C0.300
%
G90
G05
T1
X144.125Y-112.55
X144.2Y-104.175
X144.2Y-108.55
X144.275Y-96.4
X144.325Y-92.625
X154.1Y-115.4
X156.275Y-95.675
X160.2Y-94.5
X162.2Y-108.5
X167.7Y-112.18
X167.925Y-100.825
X167.95Y-92.825
X167.95Y-95.525
X167.95Y-96.825
X167.95Y-99.525
X167.95Y-108.18
X167.95Y-91.52
X167.95Y-104.18
T2
X148.9Y-121.5
X148.9Y-123.7
X150.2Y-122.5
X151.5Y-121.5
X151.6Y-123.6
M30
