%TF.GenerationSoftware,KiCad,Pcbnew,9.0.6*%
%TF.CreationDate,2025-12-26T21:42:16+01:00*%
%TF.ProjectId,esc,6573632e-6b69-4636-9164-5f7063625858,rev?*%
%TF.SameCoordinates,Original*%
%TF.FileFunction,Legend,Bot*%
%TF.FilePolarity,Positive*%
%FSLAX46Y46*%
G04 Gerber Fmt 4.6, Leading zero omitted, Abs format (unit mm)*
G04 Created by KiCad (PCBNEW 9.0.6) date 2025-12-26 21:42:16*
%MOMM*%
%LPD*%
G01*
G04 APERTURE LIST*
%ADD10C,0.150000*%
%ADD11C,0.200000*%
%ADD12C,0.120000*%
%ADD13C,0.100000*%
%ADD14C,0.250000*%
G04 APERTURE END LIST*
D10*
X163633332Y-84807200D02*
X163490475Y-84854819D01*
X163490475Y-84854819D02*
X163252380Y-84854819D01*
X163252380Y-84854819D02*
X163157142Y-84807200D01*
X163157142Y-84807200D02*
X163109523Y-84759580D01*
X163109523Y-84759580D02*
X163061904Y-84664342D01*
X163061904Y-84664342D02*
X163061904Y-84569104D01*
X163061904Y-84569104D02*
X163109523Y-84473866D01*
X163109523Y-84473866D02*
X163157142Y-84426247D01*
X163157142Y-84426247D02*
X163252380Y-84378628D01*
X163252380Y-84378628D02*
X163442856Y-84331009D01*
X163442856Y-84331009D02*
X163538094Y-84283390D01*
X163538094Y-84283390D02*
X163585713Y-84235771D01*
X163585713Y-84235771D02*
X163633332Y-84140533D01*
X163633332Y-84140533D02*
X163633332Y-84045295D01*
X163633332Y-84045295D02*
X163585713Y-83950057D01*
X163585713Y-83950057D02*
X163538094Y-83902438D01*
X163538094Y-83902438D02*
X163442856Y-83854819D01*
X163442856Y-83854819D02*
X163204761Y-83854819D01*
X163204761Y-83854819D02*
X163061904Y-83902438D01*
X162728570Y-83854819D02*
X162490475Y-84854819D01*
X162490475Y-84854819D02*
X162299999Y-84140533D01*
X162299999Y-84140533D02*
X162109523Y-84854819D01*
X162109523Y-84854819D02*
X161871428Y-83854819D01*
X161490475Y-84854819D02*
X161490475Y-83854819D01*
X161490475Y-83854819D02*
X161252380Y-83854819D01*
X161252380Y-83854819D02*
X161109523Y-83902438D01*
X161109523Y-83902438D02*
X161014285Y-83997676D01*
X161014285Y-83997676D02*
X160966666Y-84092914D01*
X160966666Y-84092914D02*
X160919047Y-84283390D01*
X160919047Y-84283390D02*
X160919047Y-84426247D01*
X160919047Y-84426247D02*
X160966666Y-84616723D01*
X160966666Y-84616723D02*
X161014285Y-84711961D01*
X161014285Y-84711961D02*
X161109523Y-84807200D01*
X161109523Y-84807200D02*
X161252380Y-84854819D01*
X161252380Y-84854819D02*
X161490475Y-84854819D01*
X160585713Y-83854819D02*
X159966666Y-83854819D01*
X159966666Y-83854819D02*
X160299999Y-84235771D01*
X160299999Y-84235771D02*
X160157142Y-84235771D01*
X160157142Y-84235771D02*
X160061904Y-84283390D01*
X160061904Y-84283390D02*
X160014285Y-84331009D01*
X160014285Y-84331009D02*
X159966666Y-84426247D01*
X159966666Y-84426247D02*
X159966666Y-84664342D01*
X159966666Y-84664342D02*
X160014285Y-84759580D01*
X160014285Y-84759580D02*
X160061904Y-84807200D01*
X160061904Y-84807200D02*
X160157142Y-84854819D01*
X160157142Y-84854819D02*
X160442856Y-84854819D01*
X160442856Y-84854819D02*
X160538094Y-84807200D01*
X160538094Y-84807200D02*
X160585713Y-84759580D01*
X146558332Y-89207200D02*
X146415475Y-89254819D01*
X146415475Y-89254819D02*
X146177380Y-89254819D01*
X146177380Y-89254819D02*
X146082142Y-89207200D01*
X146082142Y-89207200D02*
X146034523Y-89159580D01*
X146034523Y-89159580D02*
X145986904Y-89064342D01*
X145986904Y-89064342D02*
X145986904Y-88969104D01*
X145986904Y-88969104D02*
X146034523Y-88873866D01*
X146034523Y-88873866D02*
X146082142Y-88826247D01*
X146082142Y-88826247D02*
X146177380Y-88778628D01*
X146177380Y-88778628D02*
X146367856Y-88731009D01*
X146367856Y-88731009D02*
X146463094Y-88683390D01*
X146463094Y-88683390D02*
X146510713Y-88635771D01*
X146510713Y-88635771D02*
X146558332Y-88540533D01*
X146558332Y-88540533D02*
X146558332Y-88445295D01*
X146558332Y-88445295D02*
X146510713Y-88350057D01*
X146510713Y-88350057D02*
X146463094Y-88302438D01*
X146463094Y-88302438D02*
X146367856Y-88254819D01*
X146367856Y-88254819D02*
X146129761Y-88254819D01*
X146129761Y-88254819D02*
X145986904Y-88302438D01*
X145653570Y-88254819D02*
X145415475Y-89254819D01*
X145415475Y-89254819D02*
X145224999Y-88540533D01*
X145224999Y-88540533D02*
X145034523Y-89254819D01*
X145034523Y-89254819D02*
X144796428Y-88254819D01*
X143844047Y-89159580D02*
X143891666Y-89207200D01*
X143891666Y-89207200D02*
X144034523Y-89254819D01*
X144034523Y-89254819D02*
X144129761Y-89254819D01*
X144129761Y-89254819D02*
X144272618Y-89207200D01*
X144272618Y-89207200D02*
X144367856Y-89111961D01*
X144367856Y-89111961D02*
X144415475Y-89016723D01*
X144415475Y-89016723D02*
X144463094Y-88826247D01*
X144463094Y-88826247D02*
X144463094Y-88683390D01*
X144463094Y-88683390D02*
X144415475Y-88492914D01*
X144415475Y-88492914D02*
X144367856Y-88397676D01*
X144367856Y-88397676D02*
X144272618Y-88302438D01*
X144272618Y-88302438D02*
X144129761Y-88254819D01*
X144129761Y-88254819D02*
X144034523Y-88254819D01*
X144034523Y-88254819D02*
X143891666Y-88302438D01*
X143891666Y-88302438D02*
X143844047Y-88350057D01*
X142891666Y-89254819D02*
X143463094Y-89254819D01*
X143177380Y-89254819D02*
X143177380Y-88254819D01*
X143177380Y-88254819D02*
X143272618Y-88397676D01*
X143272618Y-88397676D02*
X143367856Y-88492914D01*
X143367856Y-88492914D02*
X143463094Y-88540533D01*
X165658332Y-89407200D02*
X165515475Y-89454819D01*
X165515475Y-89454819D02*
X165277380Y-89454819D01*
X165277380Y-89454819D02*
X165182142Y-89407200D01*
X165182142Y-89407200D02*
X165134523Y-89359580D01*
X165134523Y-89359580D02*
X165086904Y-89264342D01*
X165086904Y-89264342D02*
X165086904Y-89169104D01*
X165086904Y-89169104D02*
X165134523Y-89073866D01*
X165134523Y-89073866D02*
X165182142Y-89026247D01*
X165182142Y-89026247D02*
X165277380Y-88978628D01*
X165277380Y-88978628D02*
X165467856Y-88931009D01*
X165467856Y-88931009D02*
X165563094Y-88883390D01*
X165563094Y-88883390D02*
X165610713Y-88835771D01*
X165610713Y-88835771D02*
X165658332Y-88740533D01*
X165658332Y-88740533D02*
X165658332Y-88645295D01*
X165658332Y-88645295D02*
X165610713Y-88550057D01*
X165610713Y-88550057D02*
X165563094Y-88502438D01*
X165563094Y-88502438D02*
X165467856Y-88454819D01*
X165467856Y-88454819D02*
X165229761Y-88454819D01*
X165229761Y-88454819D02*
X165086904Y-88502438D01*
X164753570Y-88454819D02*
X164515475Y-89454819D01*
X164515475Y-89454819D02*
X164324999Y-88740533D01*
X164324999Y-88740533D02*
X164134523Y-89454819D01*
X164134523Y-89454819D02*
X163896428Y-88454819D01*
X162944047Y-89359580D02*
X162991666Y-89407200D01*
X162991666Y-89407200D02*
X163134523Y-89454819D01*
X163134523Y-89454819D02*
X163229761Y-89454819D01*
X163229761Y-89454819D02*
X163372618Y-89407200D01*
X163372618Y-89407200D02*
X163467856Y-89311961D01*
X163467856Y-89311961D02*
X163515475Y-89216723D01*
X163515475Y-89216723D02*
X163563094Y-89026247D01*
X163563094Y-89026247D02*
X163563094Y-88883390D01*
X163563094Y-88883390D02*
X163515475Y-88692914D01*
X163515475Y-88692914D02*
X163467856Y-88597676D01*
X163467856Y-88597676D02*
X163372618Y-88502438D01*
X163372618Y-88502438D02*
X163229761Y-88454819D01*
X163229761Y-88454819D02*
X163134523Y-88454819D01*
X163134523Y-88454819D02*
X162991666Y-88502438D01*
X162991666Y-88502438D02*
X162944047Y-88550057D01*
X162610713Y-88454819D02*
X161991666Y-88454819D01*
X161991666Y-88454819D02*
X162324999Y-88835771D01*
X162324999Y-88835771D02*
X162182142Y-88835771D01*
X162182142Y-88835771D02*
X162086904Y-88883390D01*
X162086904Y-88883390D02*
X162039285Y-88931009D01*
X162039285Y-88931009D02*
X161991666Y-89026247D01*
X161991666Y-89026247D02*
X161991666Y-89264342D01*
X161991666Y-89264342D02*
X162039285Y-89359580D01*
X162039285Y-89359580D02*
X162086904Y-89407200D01*
X162086904Y-89407200D02*
X162182142Y-89454819D01*
X162182142Y-89454819D02*
X162467856Y-89454819D01*
X162467856Y-89454819D02*
X162563094Y-89407200D01*
X162563094Y-89407200D02*
X162610713Y-89359580D01*
X148608332Y-84807200D02*
X148465475Y-84854819D01*
X148465475Y-84854819D02*
X148227380Y-84854819D01*
X148227380Y-84854819D02*
X148132142Y-84807200D01*
X148132142Y-84807200D02*
X148084523Y-84759580D01*
X148084523Y-84759580D02*
X148036904Y-84664342D01*
X148036904Y-84664342D02*
X148036904Y-84569104D01*
X148036904Y-84569104D02*
X148084523Y-84473866D01*
X148084523Y-84473866D02*
X148132142Y-84426247D01*
X148132142Y-84426247D02*
X148227380Y-84378628D01*
X148227380Y-84378628D02*
X148417856Y-84331009D01*
X148417856Y-84331009D02*
X148513094Y-84283390D01*
X148513094Y-84283390D02*
X148560713Y-84235771D01*
X148560713Y-84235771D02*
X148608332Y-84140533D01*
X148608332Y-84140533D02*
X148608332Y-84045295D01*
X148608332Y-84045295D02*
X148560713Y-83950057D01*
X148560713Y-83950057D02*
X148513094Y-83902438D01*
X148513094Y-83902438D02*
X148417856Y-83854819D01*
X148417856Y-83854819D02*
X148179761Y-83854819D01*
X148179761Y-83854819D02*
X148036904Y-83902438D01*
X147703570Y-83854819D02*
X147465475Y-84854819D01*
X147465475Y-84854819D02*
X147274999Y-84140533D01*
X147274999Y-84140533D02*
X147084523Y-84854819D01*
X147084523Y-84854819D02*
X146846428Y-83854819D01*
X146465475Y-84854819D02*
X146465475Y-83854819D01*
X146465475Y-83854819D02*
X146227380Y-83854819D01*
X146227380Y-83854819D02*
X146084523Y-83902438D01*
X146084523Y-83902438D02*
X145989285Y-83997676D01*
X145989285Y-83997676D02*
X145941666Y-84092914D01*
X145941666Y-84092914D02*
X145894047Y-84283390D01*
X145894047Y-84283390D02*
X145894047Y-84426247D01*
X145894047Y-84426247D02*
X145941666Y-84616723D01*
X145941666Y-84616723D02*
X145989285Y-84711961D01*
X145989285Y-84711961D02*
X146084523Y-84807200D01*
X146084523Y-84807200D02*
X146227380Y-84854819D01*
X146227380Y-84854819D02*
X146465475Y-84854819D01*
X144941666Y-84854819D02*
X145513094Y-84854819D01*
X145227380Y-84854819D02*
X145227380Y-83854819D01*
X145227380Y-83854819D02*
X145322618Y-83997676D01*
X145322618Y-83997676D02*
X145417856Y-84092914D01*
X145417856Y-84092914D02*
X145513094Y-84140533D01*
D11*
%TO.C,Q8*%
X141150000Y-107000000D02*
G75*
G02*
X140950000Y-107000000I-100000J0D01*
G01*
X140950000Y-107000000D02*
G75*
G02*
X141150000Y-107000000I100000J0D01*
G01*
X137450000Y-110000000D02*
X140450000Y-110000000D01*
X137450000Y-107000000D02*
X140450000Y-107000000D01*
D12*
%TO.C,U6*%
X136900000Y-109700000D02*
X136900000Y-107300000D01*
X136900000Y-107300000D02*
X134500000Y-107300000D01*
X134500000Y-109700000D02*
X136900000Y-109700000D01*
X134500000Y-107300000D02*
X134500000Y-109700000D01*
D11*
%TO.C,Q12*%
X141150000Y-103000000D02*
G75*
G02*
X140950000Y-103000000I-100000J0D01*
G01*
X140950000Y-103000000D02*
G75*
G02*
X141150000Y-103000000I100000J0D01*
G01*
X137450000Y-106000000D02*
X140450000Y-106000000D01*
X137450000Y-103000000D02*
X140450000Y-103000000D01*
D12*
%TO.C,U10*%
X136900000Y-105700000D02*
X136900000Y-103300000D01*
X136900000Y-103300000D02*
X134500000Y-103300000D01*
X134500000Y-105700000D02*
X136900000Y-105700000D01*
X134500000Y-103300000D02*
X134500000Y-105700000D01*
D10*
%TO.C,R88*%
X159860000Y-119190000D02*
X158540000Y-119190000D01*
X159860000Y-118230000D02*
X159860000Y-119190000D01*
X159860000Y-117370000D02*
X159860000Y-116410000D01*
X159860000Y-116410000D02*
X158540000Y-116410000D01*
X158540000Y-119190000D02*
X158540000Y-118230000D01*
X158540000Y-116410000D02*
X158540000Y-117370000D01*
D13*
%TO.C,D8*%
X148450000Y-89100000D02*
X148450000Y-89700000D01*
X148450000Y-90700000D02*
X148450000Y-90100000D01*
X148620000Y-89100000D02*
X148450000Y-89100000D01*
X148620000Y-90700000D02*
X148450000Y-90700000D01*
X149250000Y-90800000D02*
X148650000Y-90800000D01*
X149450000Y-89100000D02*
X149280000Y-89100000D01*
X149450000Y-89700000D02*
X149450000Y-89100000D01*
X149450000Y-90100000D02*
X149450000Y-90700000D01*
X149450000Y-90700000D02*
X149280000Y-90700000D01*
D12*
%TO.C,SWD3*%
X166075000Y-84400000D02*
G75*
G02*
X164175000Y-84400000I-950000J0D01*
G01*
X164175000Y-84400000D02*
G75*
G02*
X166075000Y-84400000I950000J0D01*
G01*
D10*
%TO.C,R19*%
X164580000Y-110510000D02*
X165030000Y-110510000D01*
X164580000Y-111290000D02*
X164580000Y-110510000D01*
X165030000Y-111290000D02*
X164580000Y-111290000D01*
X165370000Y-111290000D02*
X165820000Y-111290000D01*
X165820000Y-110510000D02*
X165370000Y-110510000D01*
X165820000Y-111290000D02*
X165820000Y-110510000D01*
%TO.C,C26*%
X136685000Y-98260000D02*
X136685000Y-98740000D01*
X136845000Y-98890000D02*
X137205000Y-98890000D01*
X137205000Y-98110000D02*
X136845000Y-98110000D01*
X137545000Y-98110000D02*
X137905000Y-98110000D01*
X137905000Y-98890000D02*
X137545000Y-98890000D01*
X138065000Y-98260000D02*
X138065000Y-98740000D01*
X136685000Y-98260000D02*
G75*
G02*
X136845333Y-98110355I150001J0D01*
G01*
X136845000Y-98890000D02*
G75*
G02*
X136684668Y-98739643I-9999J150001D01*
G01*
X137904667Y-98110356D02*
G75*
G02*
X138065000Y-98260000I10333J-149644D01*
G01*
X138065333Y-98739643D02*
G75*
G02*
X137905000Y-98890000I-150333J-357D01*
G01*
%TO.C,R8*%
X156210000Y-109280000D02*
X156210000Y-109730000D01*
X156210000Y-110520000D02*
X156210000Y-110070000D01*
X156990000Y-109280000D02*
X156210000Y-109280000D01*
X156990000Y-109730000D02*
X156990000Y-109280000D01*
X156990000Y-110070000D02*
X156990000Y-110520000D01*
X156990000Y-110520000D02*
X156210000Y-110520000D01*
D14*
%TO.C,U11*%
X149200000Y-97500000D02*
X149200000Y-97970000D01*
X149200000Y-101030000D02*
X149200000Y-101500000D01*
X149200000Y-101500000D02*
X149670000Y-101500000D01*
X149670000Y-97500000D02*
X149200000Y-97500000D01*
X152730000Y-101500000D02*
X153200000Y-101500000D01*
X153200000Y-97500000D02*
X152730000Y-97500000D01*
X153200000Y-97970000D02*
X153200000Y-97500000D01*
X153200000Y-101500000D02*
X153200000Y-101030000D01*
X153000000Y-101900000D02*
G75*
G02*
X152800000Y-101900000I-100000J0D01*
G01*
X152800000Y-101900000D02*
G75*
G02*
X153000000Y-101900000I100000J0D01*
G01*
D10*
%TO.C,C18*%
X136985000Y-106260000D02*
X136985000Y-106740000D01*
X137145000Y-106890000D02*
X137505000Y-106890000D01*
X137505000Y-106110000D02*
X137145000Y-106110000D01*
X137845000Y-106110000D02*
X138205000Y-106110000D01*
X138205000Y-106890000D02*
X137845000Y-106890000D01*
X138365000Y-106260000D02*
X138365000Y-106740000D01*
X136985000Y-106260000D02*
G75*
G02*
X137145333Y-106110355I150001J0D01*
G01*
X137145000Y-106890000D02*
G75*
G02*
X136984668Y-106739643I-9999J150001D01*
G01*
X138204667Y-106110356D02*
G75*
G02*
X138365000Y-106260000I10333J-149644D01*
G01*
X138365333Y-106739643D02*
G75*
G02*
X138205000Y-106890000I-150333J-357D01*
G01*
%TO.C,R11*%
X154710000Y-104880000D02*
X155490000Y-104880000D01*
X154710000Y-105330000D02*
X154710000Y-104880000D01*
X154710000Y-105670000D02*
X154710000Y-106120000D01*
X154710000Y-106120000D02*
X155490000Y-106120000D01*
X155490000Y-104880000D02*
X155490000Y-105330000D01*
X155490000Y-106120000D02*
X155490000Y-105670000D01*
D13*
%TO.C,D6*%
X141925000Y-108775000D02*
X141925000Y-108945000D01*
X141925000Y-109605000D02*
X141925000Y-109775000D01*
X141925000Y-109775000D02*
X142525000Y-109775000D01*
X142525000Y-108775000D02*
X141925000Y-108775000D01*
X142925000Y-108775000D02*
X143525000Y-108775000D01*
X143525000Y-108775000D02*
X143525000Y-108945000D01*
X143525000Y-109605000D02*
X143525000Y-109775000D01*
X143525000Y-109775000D02*
X142925000Y-109775000D01*
X143625000Y-108975000D02*
X143625000Y-109575000D01*
D11*
%TO.C,Q23*%
X167950000Y-91000000D02*
X170950000Y-91000000D01*
X167950000Y-94000000D02*
X170950000Y-94000000D01*
X171650000Y-91000000D02*
G75*
G02*
X171450000Y-91000000I-100000J0D01*
G01*
X171450000Y-91000000D02*
G75*
G02*
X171650000Y-91000000I100000J0D01*
G01*
D10*
%TO.C,C14*%
X148685000Y-108695000D02*
X148685000Y-109055000D01*
X148685000Y-109755000D02*
X148685000Y-109395000D01*
X149315000Y-108535000D02*
X148835000Y-108535000D01*
X149315000Y-109915000D02*
X148835000Y-109915000D01*
X149465000Y-109055000D02*
X149465000Y-108695000D01*
X149465000Y-109395000D02*
X149465000Y-109755000D01*
X148685000Y-108695000D02*
G75*
G02*
X148835357Y-108534668I150001J9999D01*
G01*
X148835357Y-109915333D02*
G75*
G02*
X148685000Y-109755000I-357J150333D01*
G01*
X149315000Y-108535000D02*
G75*
G02*
X149464645Y-108695333I0J-150001D01*
G01*
X149464644Y-109754667D02*
G75*
G02*
X149315000Y-109915000I-149644J-10333D01*
G01*
%TO.C,U12*%
X146120000Y-92420000D02*
X146620000Y-92420000D01*
X146120000Y-92920000D02*
X146120000Y-92420000D01*
X146120000Y-96080000D02*
X146120000Y-96580000D01*
X146120000Y-96580000D02*
X146620000Y-96580000D01*
X150280000Y-92420000D02*
X149780000Y-92420000D01*
X150280000Y-92920000D02*
X150280000Y-92420000D01*
X150280000Y-96080000D02*
X150280000Y-96580000D01*
X150280000Y-96580000D02*
X149780000Y-96580000D01*
X149520000Y-96960000D02*
G75*
G02*
X149380000Y-96960000I-70000J0D01*
G01*
X149380000Y-96960000D02*
G75*
G02*
X149520000Y-96960000I70000J0D01*
G01*
%TO.C,C17*%
X137085000Y-110285000D02*
X137085000Y-110765000D01*
X137245000Y-110915000D02*
X137605000Y-110915000D01*
X137605000Y-110135000D02*
X137245000Y-110135000D01*
X137945000Y-110135000D02*
X138305000Y-110135000D01*
X138305000Y-110915000D02*
X137945000Y-110915000D01*
X138465000Y-110285000D02*
X138465000Y-110765000D01*
X137085000Y-110285000D02*
G75*
G02*
X137245333Y-110135355I150001J0D01*
G01*
X137245000Y-110915000D02*
G75*
G02*
X137084668Y-110764643I-9999J150001D01*
G01*
X138304667Y-110135356D02*
G75*
G02*
X138465000Y-110285000I10333J-149644D01*
G01*
X138465333Y-110764643D02*
G75*
G02*
X138305000Y-110915000I-150333J-357D01*
G01*
%TO.C,R80*%
X171530000Y-97085000D02*
X171530000Y-97865000D01*
X171530000Y-97865000D02*
X171980000Y-97865000D01*
X171980000Y-97085000D02*
X171530000Y-97085000D01*
X172320000Y-97085000D02*
X172770000Y-97085000D01*
X172770000Y-97085000D02*
X172770000Y-97865000D01*
X172770000Y-97865000D02*
X172320000Y-97865000D01*
D11*
%TO.C,Q3*%
X167950000Y-107000000D02*
X170950000Y-107000000D01*
X167950000Y-110000000D02*
X170950000Y-110000000D01*
X171650000Y-107000000D02*
G75*
G02*
X171450000Y-107000000I-100000J0D01*
G01*
X171450000Y-107000000D02*
G75*
G02*
X171650000Y-107000000I100000J0D01*
G01*
D12*
%TO.C,U13*%
X134500000Y-99300000D02*
X134500000Y-101700000D01*
X134500000Y-101700000D02*
X136900000Y-101700000D01*
X136900000Y-99300000D02*
X134500000Y-99300000D01*
X136900000Y-101700000D02*
X136900000Y-99300000D01*
D10*
%TO.C,R76*%
X164505000Y-98760000D02*
X164505000Y-99540000D01*
X164505000Y-99540000D02*
X164955000Y-99540000D01*
X164955000Y-98760000D02*
X164505000Y-98760000D01*
X165295000Y-98760000D02*
X165745000Y-98760000D01*
X165745000Y-98760000D02*
X165745000Y-99540000D01*
X165745000Y-99540000D02*
X165295000Y-99540000D01*
%TO.C,R46*%
X141360000Y-102355000D02*
X141360000Y-102805000D01*
X141360000Y-103595000D02*
X141360000Y-103145000D01*
X142140000Y-102355000D02*
X141360000Y-102355000D01*
X142140000Y-102805000D02*
X142140000Y-102355000D01*
X142140000Y-103145000D02*
X142140000Y-103595000D01*
X142140000Y-103595000D02*
X141360000Y-103595000D01*
%TO.C,C29*%
X163240000Y-91750000D02*
X163240000Y-93250000D01*
X163390000Y-93400000D02*
X164800000Y-93400000D01*
X164800000Y-91600000D02*
X163390000Y-91600000D01*
X165600000Y-91600000D02*
X167010000Y-91600000D01*
X167010000Y-93400000D02*
X165600000Y-93400000D01*
X167160000Y-91750000D02*
X167160000Y-93250000D01*
X163240000Y-91750000D02*
G75*
G02*
X163390000Y-91600000I150000J0D01*
G01*
X163390000Y-93400000D02*
G75*
G02*
X163240000Y-93250000I0J150000D01*
G01*
X167010000Y-91600000D02*
G75*
G02*
X167160000Y-91750000I0J-150000D01*
G01*
X167160000Y-93250000D02*
G75*
G02*
X167010000Y-93400000I-150000J0D01*
G01*
%TO.C,R15*%
X164740000Y-105410000D02*
X164740000Y-106190000D01*
X164740000Y-106190000D02*
X165190000Y-106190000D01*
X165190000Y-105410000D02*
X164740000Y-105410000D01*
X165530000Y-105410000D02*
X165980000Y-105410000D01*
X165980000Y-105410000D02*
X165980000Y-106190000D01*
X165980000Y-106190000D02*
X165530000Y-106190000D01*
D11*
%TO.C,Q10*%
X137450000Y-111000000D02*
X140450000Y-111000000D01*
X137450000Y-114000000D02*
X140450000Y-114000000D01*
X141150000Y-111000000D02*
G75*
G02*
X140950000Y-111000000I-100000J0D01*
G01*
X140950000Y-111000000D02*
G75*
G02*
X141150000Y-111000000I100000J0D01*
G01*
D10*
%TO.C,R240*%
X149840000Y-116140000D02*
X149840000Y-120260000D01*
X149840000Y-120260000D02*
X152520000Y-120260000D01*
X152520000Y-116140000D02*
X149840000Y-116140000D01*
X155480000Y-116140000D02*
X158160000Y-116140000D01*
X158160000Y-116140000D02*
X158160000Y-120260000D01*
X158160000Y-120260000D02*
X155480000Y-120260000D01*
D11*
%TO.C,Q18*%
X137450000Y-91000000D02*
X140450000Y-91000000D01*
X137450000Y-94000000D02*
X140450000Y-94000000D01*
X141150000Y-91000000D02*
G75*
G02*
X140950000Y-91000000I-100000J0D01*
G01*
X140950000Y-91000000D02*
G75*
G02*
X141150000Y-91000000I100000J0D01*
G01*
D10*
%TO.C,U2*%
X144120000Y-106420000D02*
X144120000Y-106920000D01*
X144120000Y-110580000D02*
X144120000Y-110080000D01*
X144620000Y-106420000D02*
X144120000Y-106420000D01*
X144620000Y-110580000D02*
X144120000Y-110580000D01*
X147780000Y-106420000D02*
X148280000Y-106420000D01*
X147780000Y-110580000D02*
X148280000Y-110580000D01*
X148280000Y-106420000D02*
X148280000Y-106920000D01*
X148280000Y-110580000D02*
X148280000Y-110080000D01*
X148730000Y-107250000D02*
G75*
G02*
X148590000Y-107250000I-70000J0D01*
G01*
X148590000Y-107250000D02*
G75*
G02*
X148730000Y-107250000I70000J0D01*
G01*
%TO.C,R73*%
X155660000Y-99455000D02*
X155660000Y-99905000D01*
X155660000Y-100695000D02*
X155660000Y-100245000D01*
X156440000Y-99455000D02*
X155660000Y-99455000D01*
X156440000Y-99905000D02*
X156440000Y-99455000D01*
X156440000Y-100245000D02*
X156440000Y-100695000D01*
X156440000Y-100695000D02*
X155660000Y-100695000D01*
%TO.C,C1*%
X163340000Y-103650000D02*
X163340000Y-105150000D01*
X163490000Y-105300000D02*
X164900000Y-105300000D01*
X164900000Y-103500000D02*
X163490000Y-103500000D01*
X165700000Y-103500000D02*
X167110000Y-103500000D01*
X167110000Y-105300000D02*
X165700000Y-105300000D01*
X167260000Y-103650000D02*
X167260000Y-105150000D01*
X163340000Y-103650000D02*
G75*
G02*
X163490000Y-103500000I150000J0D01*
G01*
X163490000Y-105300000D02*
G75*
G02*
X163340000Y-105150000I0J150000D01*
G01*
X167110000Y-103500000D02*
G75*
G02*
X167260000Y-103650000I0J-150000D01*
G01*
X167260000Y-105150000D02*
G75*
G02*
X167110000Y-105300000I-150000J0D01*
G01*
D11*
%TO.C,Q19*%
X167950000Y-95000000D02*
X170950000Y-95000000D01*
X167950000Y-98000000D02*
X170950000Y-98000000D01*
X171650000Y-95000000D02*
G75*
G02*
X171450000Y-95000000I-100000J0D01*
G01*
X171450000Y-95000000D02*
G75*
G02*
X171650000Y-95000000I100000J0D01*
G01*
D10*
%TO.C,R20*%
X171680000Y-105010000D02*
X171680000Y-105790000D01*
X171680000Y-105790000D02*
X172130000Y-105790000D01*
X172130000Y-105010000D02*
X171680000Y-105010000D01*
X172470000Y-105010000D02*
X172920000Y-105010000D01*
X172920000Y-105010000D02*
X172920000Y-105790000D01*
X172920000Y-105790000D02*
X172470000Y-105790000D01*
%TO.C,R48*%
X146610000Y-99580000D02*
X146610000Y-100030000D01*
X146610000Y-100820000D02*
X146610000Y-100370000D01*
X147390000Y-99580000D02*
X146610000Y-99580000D01*
X147390000Y-100030000D02*
X147390000Y-99580000D01*
X147390000Y-100370000D02*
X147390000Y-100820000D01*
X147390000Y-100820000D02*
X146610000Y-100820000D01*
D11*
%TO.C,Q1*%
X167950000Y-111000000D02*
X170950000Y-111000000D01*
X167950000Y-114000000D02*
X170950000Y-114000000D01*
X171650000Y-111000000D02*
G75*
G02*
X171450000Y-111000000I-100000J0D01*
G01*
X171450000Y-111000000D02*
G75*
G02*
X171650000Y-111000000I100000J0D01*
G01*
D10*
%TO.C,C31*%
X154835000Y-98560000D02*
X154835000Y-99040000D01*
X154995000Y-99190000D02*
X155355000Y-99190000D01*
X155355000Y-98410000D02*
X154995000Y-98410000D01*
X155695000Y-98410000D02*
X156055000Y-98410000D01*
X156055000Y-99190000D02*
X155695000Y-99190000D01*
X156215000Y-98560000D02*
X156215000Y-99040000D01*
X154835000Y-98560000D02*
G75*
G02*
X154995333Y-98410355I150001J0D01*
G01*
X154995000Y-99190000D02*
G75*
G02*
X154834668Y-99039643I-9999J150001D01*
G01*
X156054667Y-98410356D02*
G75*
G02*
X156215000Y-98560000I10333J-149644D01*
G01*
X156215333Y-99039643D02*
G75*
G02*
X156055000Y-99190000I-150333J-357D01*
G01*
%TO.C,R16*%
X171680000Y-113110000D02*
X171680000Y-113890000D01*
X171680000Y-113890000D02*
X172130000Y-113890000D01*
X172130000Y-113110000D02*
X171680000Y-113110000D01*
X172470000Y-113110000D02*
X172920000Y-113110000D01*
X172920000Y-113110000D02*
X172920000Y-113890000D01*
X172920000Y-113890000D02*
X172470000Y-113890000D01*
D11*
%TO.C,Q14*%
X137450000Y-95000000D02*
X140450000Y-95000000D01*
X137450000Y-98000000D02*
X140450000Y-98000000D01*
X141150000Y-95000000D02*
G75*
G02*
X140950000Y-95000000I-100000J0D01*
G01*
X140950000Y-95000000D02*
G75*
G02*
X141150000Y-95000000I100000J0D01*
G01*
D10*
%TO.C,R74*%
X154685000Y-99430000D02*
X154685000Y-99880000D01*
X154685000Y-100670000D02*
X154685000Y-100220000D01*
X155465000Y-99430000D02*
X154685000Y-99430000D01*
X155465000Y-99880000D02*
X155465000Y-99430000D01*
X155465000Y-100220000D02*
X155465000Y-100670000D01*
X155465000Y-100670000D02*
X154685000Y-100670000D01*
%TO.C,R47*%
X145585000Y-97180000D02*
X146365000Y-97180000D01*
X145585000Y-97630000D02*
X145585000Y-97180000D01*
X145585000Y-97970000D02*
X145585000Y-98420000D01*
X145585000Y-98420000D02*
X146365000Y-98420000D01*
X146365000Y-97180000D02*
X146365000Y-97630000D01*
X146365000Y-98420000D02*
X146365000Y-97970000D01*
%TO.C,R3*%
X159380000Y-111110000D02*
X159830000Y-111110000D01*
X159380000Y-111890000D02*
X159380000Y-111110000D01*
X159830000Y-111890000D02*
X159380000Y-111890000D01*
X160170000Y-111890000D02*
X160620000Y-111890000D01*
X160620000Y-111110000D02*
X160170000Y-111110000D01*
X160620000Y-111890000D02*
X160620000Y-111110000D01*
%TO.C,R49*%
X147285000Y-97730000D02*
X147285000Y-98180000D01*
X147285000Y-98970000D02*
X147285000Y-98520000D01*
X148065000Y-97730000D02*
X147285000Y-97730000D01*
X148065000Y-98180000D02*
X148065000Y-97730000D01*
X148065000Y-98520000D02*
X148065000Y-98970000D01*
X148065000Y-98970000D02*
X147285000Y-98970000D01*
%TO.C,C15*%
X147810000Y-105670000D02*
X147810000Y-106030000D01*
X147810000Y-106730000D02*
X147810000Y-106370000D01*
X148440000Y-105510000D02*
X147960000Y-105510000D01*
X148440000Y-106890000D02*
X147960000Y-106890000D01*
X148590000Y-106030000D02*
X148590000Y-105670000D01*
X148590000Y-106370000D02*
X148590000Y-106730000D01*
X147810000Y-105670000D02*
G75*
G02*
X147960357Y-105509668I150001J9999D01*
G01*
X147960357Y-106890333D02*
G75*
G02*
X147810000Y-106730000I-357J150333D01*
G01*
X148440000Y-105510000D02*
G75*
G02*
X148589645Y-105670333I0J-150001D01*
G01*
X148589644Y-106729667D02*
G75*
G02*
X148440000Y-106890000I-149644J-10333D01*
G01*
%TO.C,R23*%
X138855000Y-110135000D02*
X138855000Y-110915000D01*
X138855000Y-110915000D02*
X139305000Y-110915000D01*
X139305000Y-110135000D02*
X138855000Y-110135000D01*
X139645000Y-110135000D02*
X140095000Y-110135000D01*
X140095000Y-110135000D02*
X140095000Y-110915000D01*
X140095000Y-110915000D02*
X139645000Y-110915000D01*
%TO.C,C16*%
X144460000Y-105115000D02*
X144460000Y-104635000D01*
X144620000Y-104485000D02*
X144980000Y-104485000D01*
X144980000Y-105265000D02*
X144620000Y-105265000D01*
X145320000Y-105265000D02*
X145680000Y-105265000D01*
X145680000Y-104485000D02*
X145320000Y-104485000D01*
X145840000Y-105115000D02*
X145840000Y-104635000D01*
X144459667Y-104635357D02*
G75*
G02*
X144620000Y-104485000I150333J357D01*
G01*
X144620333Y-105264644D02*
G75*
G02*
X144460000Y-105115000I-10333J149644D01*
G01*
X145680000Y-104485000D02*
G75*
G02*
X145840332Y-104635357I9999J-150001D01*
G01*
X145840000Y-105115000D02*
G75*
G02*
X145679667Y-105264645I-150001J0D01*
G01*
D11*
%TO.C,Q16*%
X137450000Y-99000000D02*
X140450000Y-99000000D01*
X137450000Y-102000000D02*
X140450000Y-102000000D01*
X141150000Y-99000000D02*
G75*
G02*
X140950000Y-99000000I-100000J0D01*
G01*
X140950000Y-99000000D02*
G75*
G02*
X141150000Y-99000000I100000J0D01*
G01*
D10*
%TO.C,R81*%
X164555000Y-101660000D02*
X165005000Y-101660000D01*
X164555000Y-102440000D02*
X164555000Y-101660000D01*
X165005000Y-102440000D02*
X164555000Y-102440000D01*
X165345000Y-102440000D02*
X165795000Y-102440000D01*
X165795000Y-101660000D02*
X165345000Y-101660000D01*
X165795000Y-102440000D02*
X165795000Y-101660000D01*
%TO.C,R7*%
X158710000Y-105380000D02*
X158710000Y-105830000D01*
X158710000Y-106620000D02*
X158710000Y-106170000D01*
X159490000Y-105380000D02*
X158710000Y-105380000D01*
X159490000Y-105830000D02*
X159490000Y-105380000D01*
X159490000Y-106170000D02*
X159490000Y-106620000D01*
X159490000Y-106620000D02*
X158710000Y-106620000D01*
D13*
%TO.C,D5*%
X142125000Y-107050000D02*
X142125000Y-107220000D01*
X142125000Y-107880000D02*
X142125000Y-108050000D01*
X142125000Y-108050000D02*
X142725000Y-108050000D01*
X142725000Y-107050000D02*
X142125000Y-107050000D01*
X143125000Y-107050000D02*
X143725000Y-107050000D01*
X143725000Y-107050000D02*
X143725000Y-107220000D01*
X143725000Y-107880000D02*
X143725000Y-108050000D01*
X143725000Y-108050000D02*
X143125000Y-108050000D01*
X143825000Y-107250000D02*
X143825000Y-107850000D01*
D10*
%TO.C,C3*%
X163240000Y-107650000D02*
X163240000Y-109150000D01*
X163390000Y-109300000D02*
X164800000Y-109300000D01*
X164800000Y-107500000D02*
X163390000Y-107500000D01*
X165600000Y-107500000D02*
X167010000Y-107500000D01*
X167010000Y-109300000D02*
X165600000Y-109300000D01*
X167160000Y-107650000D02*
X167160000Y-109150000D01*
X163240000Y-107650000D02*
G75*
G02*
X163390000Y-107500000I150000J0D01*
G01*
X163390000Y-109300000D02*
G75*
G02*
X163240000Y-109150000I0J150000D01*
G01*
X167010000Y-107500000D02*
G75*
G02*
X167160000Y-107650000I0J-150000D01*
G01*
X167160000Y-109150000D02*
G75*
G02*
X167010000Y-109300000I-150000J0D01*
G01*
%TO.C,C4*%
X155660000Y-105060000D02*
X155660000Y-105540000D01*
X155820000Y-105690000D02*
X156180000Y-105690000D01*
X156180000Y-104910000D02*
X155820000Y-104910000D01*
X156520000Y-104910000D02*
X156880000Y-104910000D01*
X156880000Y-105690000D02*
X156520000Y-105690000D01*
X157040000Y-105060000D02*
X157040000Y-105540000D01*
X155660000Y-105060000D02*
G75*
G02*
X155820333Y-104910355I150001J0D01*
G01*
X155820000Y-105690000D02*
G75*
G02*
X155659668Y-105539643I-9999J150001D01*
G01*
X156879667Y-104910356D02*
G75*
G02*
X157040000Y-105060000I10333J-149644D01*
G01*
X157040333Y-105539643D02*
G75*
G02*
X156880000Y-105690000I-150333J-357D01*
G01*
%TO.C,R30*%
X151385000Y-110430000D02*
X152165000Y-110430000D01*
X151385000Y-110880000D02*
X151385000Y-110430000D01*
X151385000Y-111220000D02*
X151385000Y-111670000D01*
X151385000Y-111670000D02*
X152165000Y-111670000D01*
X152165000Y-110430000D02*
X152165000Y-110880000D01*
X152165000Y-111670000D02*
X152165000Y-111220000D01*
%TO.C,R79*%
X171630000Y-101035000D02*
X171630000Y-101815000D01*
X171630000Y-101815000D02*
X172080000Y-101815000D01*
X172080000Y-101035000D02*
X171630000Y-101035000D01*
X172420000Y-101035000D02*
X172870000Y-101035000D01*
X172870000Y-101035000D02*
X172870000Y-101815000D01*
X172870000Y-101815000D02*
X172420000Y-101815000D01*
%TO.C,R84*%
X171715000Y-93085000D02*
X171715000Y-93865000D01*
X171715000Y-93865000D02*
X172165000Y-93865000D01*
X172165000Y-93085000D02*
X171715000Y-93085000D01*
X172505000Y-93085000D02*
X172955000Y-93085000D01*
X172955000Y-93085000D02*
X172955000Y-93865000D01*
X172955000Y-93865000D02*
X172505000Y-93865000D01*
%TO.C,C2*%
X163240000Y-111750000D02*
X163240000Y-113250000D01*
X163390000Y-113400000D02*
X164800000Y-113400000D01*
X164800000Y-111600000D02*
X163390000Y-111600000D01*
X165600000Y-111600000D02*
X167010000Y-111600000D01*
X167010000Y-113400000D02*
X165600000Y-113400000D01*
X167160000Y-111750000D02*
X167160000Y-113250000D01*
X163240000Y-111750000D02*
G75*
G02*
X163390000Y-111600000I150000J0D01*
G01*
X163390000Y-113400000D02*
G75*
G02*
X163240000Y-113250000I0J150000D01*
G01*
X167010000Y-111600000D02*
G75*
G02*
X167160000Y-111750000I0J-150000D01*
G01*
X167160000Y-113250000D02*
G75*
G02*
X167010000Y-113400000I-150000J0D01*
G01*
%TO.C,C27*%
X137085000Y-94235000D02*
X137085000Y-94715000D01*
X137245000Y-94865000D02*
X137605000Y-94865000D01*
X137605000Y-94085000D02*
X137245000Y-94085000D01*
X137945000Y-94085000D02*
X138305000Y-94085000D01*
X138305000Y-94865000D02*
X137945000Y-94865000D01*
X138465000Y-94235000D02*
X138465000Y-94715000D01*
X137085000Y-94235000D02*
G75*
G02*
X137245333Y-94085355I150001J0D01*
G01*
X137245000Y-94865000D02*
G75*
G02*
X137084668Y-94714643I-9999J150001D01*
G01*
X138304667Y-94085356D02*
G75*
G02*
X138465000Y-94235000I10333J-149644D01*
G01*
X138465333Y-94714643D02*
G75*
G02*
X138305000Y-94865000I-150333J-357D01*
G01*
%TO.C,R4*%
X155710000Y-105880000D02*
X156490000Y-105880000D01*
X155710000Y-106330000D02*
X155710000Y-105880000D01*
X155710000Y-106670000D02*
X155710000Y-107120000D01*
X155710000Y-107120000D02*
X156490000Y-107120000D01*
X156490000Y-105880000D02*
X156490000Y-106330000D01*
X156490000Y-107120000D02*
X156490000Y-106670000D01*
%TO.C,R9*%
X156910000Y-110480000D02*
X157690000Y-110480000D01*
X156910000Y-110930000D02*
X156910000Y-110480000D01*
X156910000Y-111270000D02*
X156910000Y-111720000D01*
X156910000Y-111720000D02*
X157690000Y-111720000D01*
X157690000Y-110480000D02*
X157690000Y-110930000D01*
X157690000Y-111720000D02*
X157690000Y-111270000D01*
%TO.C,R18*%
X171810000Y-108480000D02*
X172590000Y-108480000D01*
X171810000Y-108930000D02*
X171810000Y-108480000D01*
X171810000Y-109270000D02*
X171810000Y-109720000D01*
X171810000Y-109720000D02*
X172590000Y-109720000D01*
X172590000Y-108480000D02*
X172590000Y-108930000D01*
X172590000Y-109720000D02*
X172590000Y-109270000D01*
%TO.C,R21*%
X166120000Y-105410000D02*
X166570000Y-105410000D01*
X166120000Y-106190000D02*
X166120000Y-105410000D01*
X166570000Y-106190000D02*
X166120000Y-106190000D01*
X166910000Y-106190000D02*
X167360000Y-106190000D01*
X167360000Y-105410000D02*
X166910000Y-105410000D01*
X167360000Y-106190000D02*
X167360000Y-105410000D01*
%TO.C,C28*%
X163165000Y-95750000D02*
X163165000Y-97250000D01*
X163315000Y-97400000D02*
X164725000Y-97400000D01*
X164725000Y-95600000D02*
X163315000Y-95600000D01*
X165525000Y-95600000D02*
X166935000Y-95600000D01*
X166935000Y-97400000D02*
X165525000Y-97400000D01*
X167085000Y-95750000D02*
X167085000Y-97250000D01*
X163165000Y-95750000D02*
G75*
G02*
X163315000Y-95600000I150000J0D01*
G01*
X163315000Y-97400000D02*
G75*
G02*
X163165000Y-97250000I0J150000D01*
G01*
X166935000Y-95600000D02*
G75*
G02*
X167085000Y-95750000I0J-150000D01*
G01*
X167085000Y-97250000D02*
G75*
G02*
X166935000Y-97400000I-150000J0D01*
G01*
%TO.C,R17*%
X164380000Y-114510000D02*
X164830000Y-114510000D01*
X164380000Y-115290000D02*
X164380000Y-114510000D01*
X164830000Y-115290000D02*
X164380000Y-115290000D01*
X165170000Y-115290000D02*
X165620000Y-115290000D01*
X165620000Y-114510000D02*
X165170000Y-114510000D01*
X165620000Y-115290000D02*
X165620000Y-114510000D01*
D11*
%TO.C,Q21*%
X167950000Y-99000000D02*
X170950000Y-99000000D01*
X167950000Y-102000000D02*
X170950000Y-102000000D01*
X171650000Y-99000000D02*
G75*
G02*
X171450000Y-99000000I-100000J0D01*
G01*
X171450000Y-99000000D02*
G75*
G02*
X171650000Y-99000000I100000J0D01*
G01*
D10*
%TO.C,R29*%
X152285000Y-109005000D02*
X152285000Y-109455000D01*
X152285000Y-110245000D02*
X152285000Y-109795000D01*
X153065000Y-109005000D02*
X152285000Y-109005000D01*
X153065000Y-109455000D02*
X153065000Y-109005000D01*
X153065000Y-109795000D02*
X153065000Y-110245000D01*
X153065000Y-110245000D02*
X152285000Y-110245000D01*
%TO.C,C25*%
X136935000Y-102260000D02*
X136935000Y-102740000D01*
X137095000Y-102890000D02*
X137455000Y-102890000D01*
X137455000Y-102110000D02*
X137095000Y-102110000D01*
X137795000Y-102110000D02*
X138155000Y-102110000D01*
X138155000Y-102890000D02*
X137795000Y-102890000D01*
X138315000Y-102260000D02*
X138315000Y-102740000D01*
X136935000Y-102260000D02*
G75*
G02*
X137095333Y-102110355I150001J0D01*
G01*
X137095000Y-102890000D02*
G75*
G02*
X136934668Y-102739643I-9999J150001D01*
G01*
X138154667Y-102110356D02*
G75*
G02*
X138315000Y-102260000I10333J-149644D01*
G01*
X138315333Y-102739643D02*
G75*
G02*
X138155000Y-102890000I-150333J-357D01*
G01*
%TO.C,R6*%
X156610000Y-105880000D02*
X157390000Y-105880000D01*
X156610000Y-106330000D02*
X156610000Y-105880000D01*
X156610000Y-106670000D02*
X156610000Y-107120000D01*
X156610000Y-107120000D02*
X157390000Y-107120000D01*
X157390000Y-105880000D02*
X157390000Y-106330000D01*
X157390000Y-107120000D02*
X157390000Y-106670000D01*
%TO.C,R77*%
X164480000Y-97535000D02*
X164480000Y-98315000D01*
X164480000Y-98315000D02*
X164930000Y-98315000D01*
X164930000Y-97535000D02*
X164480000Y-97535000D01*
X165270000Y-97535000D02*
X165720000Y-97535000D01*
X165720000Y-97535000D02*
X165720000Y-98315000D01*
X165720000Y-98315000D02*
X165270000Y-98315000D01*
%TO.C,R43*%
X138880000Y-94110000D02*
X138880000Y-94890000D01*
X138880000Y-94890000D02*
X139330000Y-94890000D01*
X139330000Y-94110000D02*
X138880000Y-94110000D01*
X139670000Y-94110000D02*
X140120000Y-94110000D01*
X140120000Y-94110000D02*
X140120000Y-94890000D01*
X140120000Y-94890000D02*
X139670000Y-94890000D01*
%TO.C,C30*%
X163240000Y-99825000D02*
X163240000Y-101325000D01*
X163390000Y-101475000D02*
X164800000Y-101475000D01*
X164800000Y-99675000D02*
X163390000Y-99675000D01*
X165600000Y-99675000D02*
X167010000Y-99675000D01*
X167010000Y-101475000D02*
X165600000Y-101475000D01*
X167160000Y-99825000D02*
X167160000Y-101325000D01*
X163240000Y-99825000D02*
G75*
G02*
X163390000Y-99675000I150000J0D01*
G01*
X163390000Y-101475000D02*
G75*
G02*
X163240000Y-101325000I0J150000D01*
G01*
X167010000Y-99675000D02*
G75*
G02*
X167160000Y-99825000I0J-150000D01*
G01*
X167160000Y-101325000D02*
G75*
G02*
X167010000Y-101475000I-150000J0D01*
G01*
%TO.C,R78*%
X164605000Y-90635000D02*
X164605000Y-91415000D01*
X164605000Y-91415000D02*
X165055000Y-91415000D01*
X165055000Y-90635000D02*
X164605000Y-90635000D01*
X165395000Y-90635000D02*
X165845000Y-90635000D01*
X165845000Y-90635000D02*
X165845000Y-91415000D01*
X165845000Y-91415000D02*
X165395000Y-91415000D01*
D12*
%TO.C,SWC1*%
X147175000Y-86550000D02*
G75*
G02*
X145275000Y-86550000I-950000J0D01*
G01*
X145275000Y-86550000D02*
G75*
G02*
X147175000Y-86550000I950000J0D01*
G01*
D10*
%TO.C,R82*%
X164555000Y-94610000D02*
X165005000Y-94610000D01*
X164555000Y-95390000D02*
X164555000Y-94610000D01*
X165005000Y-95390000D02*
X164555000Y-95390000D01*
X165345000Y-95390000D02*
X165795000Y-95390000D01*
X165795000Y-94610000D02*
X165345000Y-94610000D01*
X165795000Y-95390000D02*
X165795000Y-94610000D01*
D12*
%TO.C,SWC3*%
X162750000Y-87275000D02*
G75*
G02*
X160850000Y-87275000I-950000J0D01*
G01*
X160850000Y-87275000D02*
G75*
G02*
X162750000Y-87275000I950000J0D01*
G01*
D13*
%TO.C,D7*%
X151575000Y-92750000D02*
X151575000Y-93350000D01*
X151575000Y-94350000D02*
X151575000Y-93750000D01*
X151745000Y-92750000D02*
X151575000Y-92750000D01*
X151745000Y-94350000D02*
X151575000Y-94350000D01*
X152375000Y-94450000D02*
X151775000Y-94450000D01*
X152575000Y-92750000D02*
X152405000Y-92750000D01*
X152575000Y-93350000D02*
X152575000Y-92750000D01*
X152575000Y-93750000D02*
X152575000Y-94350000D01*
X152575000Y-94350000D02*
X152405000Y-94350000D01*
D10*
%TO.C,R5*%
X157410000Y-105880000D02*
X158190000Y-105880000D01*
X157410000Y-106330000D02*
X157410000Y-105880000D01*
X157410000Y-106670000D02*
X157410000Y-107120000D01*
X157410000Y-107120000D02*
X158190000Y-107120000D01*
X158190000Y-105880000D02*
X158190000Y-106330000D01*
X158190000Y-107120000D02*
X158190000Y-106670000D01*
%TO.C,R83*%
X164530000Y-93585000D02*
X164980000Y-93585000D01*
X164530000Y-94365000D02*
X164530000Y-93585000D01*
X164980000Y-94365000D02*
X164530000Y-94365000D01*
X165320000Y-94365000D02*
X165770000Y-94365000D01*
X165770000Y-93585000D02*
X165320000Y-93585000D01*
X165770000Y-94365000D02*
X165770000Y-93585000D01*
D14*
%TO.C,U21*%
X162800000Y-116550000D02*
X161000000Y-116550000D01*
X162800000Y-119650000D02*
X161000000Y-119650000D01*
X160630000Y-119750000D02*
G75*
G02*
X160370000Y-119750000I-130000J0D01*
G01*
X160370000Y-119750000D02*
G75*
G02*
X160630000Y-119750000I130000J0D01*
G01*
%TO.C,U1*%
X149200000Y-103500000D02*
X149200000Y-103970000D01*
X149200000Y-107030000D02*
X149200000Y-107500000D01*
X149200000Y-107500000D02*
X149670000Y-107500000D01*
X149670000Y-103500000D02*
X149200000Y-103500000D01*
X152730000Y-107500000D02*
X153200000Y-107500000D01*
X153200000Y-103500000D02*
X152730000Y-103500000D01*
X153200000Y-103970000D02*
X153200000Y-103500000D01*
X153200000Y-107500000D02*
X153200000Y-107030000D01*
X153700000Y-103800000D02*
G75*
G02*
X153500000Y-103800000I-100000J0D01*
G01*
X153500000Y-103800000D02*
G75*
G02*
X153700000Y-103800000I100000J0D01*
G01*
D10*
%TO.C,C23*%
X146760000Y-97690000D02*
X146760000Y-97210000D01*
X146920000Y-97060000D02*
X147280000Y-97060000D01*
X147280000Y-97840000D02*
X146920000Y-97840000D01*
X147620000Y-97840000D02*
X147980000Y-97840000D01*
X147980000Y-97060000D02*
X147620000Y-97060000D01*
X148140000Y-97690000D02*
X148140000Y-97210000D01*
X146759667Y-97210357D02*
G75*
G02*
X146920000Y-97060000I150333J357D01*
G01*
X146920333Y-97839644D02*
G75*
G02*
X146760000Y-97690000I-10333J149644D01*
G01*
X147980000Y-97060000D02*
G75*
G02*
X148140332Y-97210357I9999J-150001D01*
G01*
X148140000Y-97690000D02*
G75*
G02*
X147979667Y-97839645I-150001J0D01*
G01*
%TO.C,R22*%
X138605000Y-106160000D02*
X138605000Y-106940000D01*
X138605000Y-106940000D02*
X139055000Y-106940000D01*
X139055000Y-106160000D02*
X138605000Y-106160000D01*
X139395000Y-106160000D02*
X139845000Y-106160000D01*
X139845000Y-106160000D02*
X139845000Y-106940000D01*
X139845000Y-106940000D02*
X139395000Y-106940000D01*
%TO.C,C24*%
X152585000Y-94795000D02*
X152585000Y-95155000D01*
X152585000Y-95855000D02*
X152585000Y-95495000D01*
X153215000Y-94635000D02*
X152735000Y-94635000D01*
X153215000Y-96015000D02*
X152735000Y-96015000D01*
X153365000Y-95155000D02*
X153365000Y-94795000D01*
X153365000Y-95495000D02*
X153365000Y-95855000D01*
X152585000Y-94795000D02*
G75*
G02*
X152735357Y-94634668I150001J9999D01*
G01*
X152735357Y-96015333D02*
G75*
G02*
X152585000Y-95855000I-357J150333D01*
G01*
X153215000Y-94635000D02*
G75*
G02*
X153364645Y-94795333I0J-150001D01*
G01*
X153364644Y-95854667D02*
G75*
G02*
X153215000Y-96015000I-149644J-10333D01*
G01*
D13*
%TO.C,D9*%
X146950000Y-89075000D02*
X146950000Y-89675000D01*
X146950000Y-90675000D02*
X146950000Y-90075000D01*
X147120000Y-89075000D02*
X146950000Y-89075000D01*
X147120000Y-90675000D02*
X146950000Y-90675000D01*
X147750000Y-90775000D02*
X147150000Y-90775000D01*
X147950000Y-89075000D02*
X147780000Y-89075000D01*
X147950000Y-89675000D02*
X147950000Y-89075000D01*
X147950000Y-90075000D02*
X147950000Y-90675000D01*
X147950000Y-90675000D02*
X147780000Y-90675000D01*
D10*
%TO.C,R45*%
X138515000Y-102110000D02*
X138515000Y-102890000D01*
X138515000Y-102890000D02*
X138965000Y-102890000D01*
X138965000Y-102110000D02*
X138515000Y-102110000D01*
X139305000Y-102110000D02*
X139755000Y-102110000D01*
X139755000Y-102110000D02*
X139755000Y-102890000D01*
X139755000Y-102890000D02*
X139305000Y-102890000D01*
%TO.C,R14*%
X164580000Y-109610000D02*
X164580000Y-110390000D01*
X164580000Y-110390000D02*
X165030000Y-110390000D01*
X165030000Y-109610000D02*
X164580000Y-109610000D01*
X165370000Y-109610000D02*
X165820000Y-109610000D01*
X165820000Y-109610000D02*
X165820000Y-110390000D01*
X165820000Y-110390000D02*
X165370000Y-110390000D01*
%TO.C,R24*%
X148905000Y-111085000D02*
X148905000Y-111865000D01*
X148905000Y-111865000D02*
X149355000Y-111865000D01*
X149355000Y-111085000D02*
X148905000Y-111085000D01*
X149695000Y-111085000D02*
X150145000Y-111085000D01*
X150145000Y-111085000D02*
X150145000Y-111865000D01*
X150145000Y-111865000D02*
X149695000Y-111865000D01*
D11*
%TO.C,U24*%
X148400000Y-114900000D02*
X147000000Y-114900000D01*
X148400000Y-117100000D02*
X147000000Y-117100000D01*
X146610034Y-117089584D02*
G75*
G02*
X146600000Y-117090000I-34J-120416D01*
G01*
D13*
%TO.C,D4*%
X145600000Y-104175000D02*
X145600000Y-103575000D01*
X145700000Y-103375000D02*
X146300000Y-103375000D01*
X145700000Y-103545000D02*
X145700000Y-103375000D01*
X145700000Y-104375000D02*
X145700000Y-104205000D01*
X146300000Y-104375000D02*
X145700000Y-104375000D01*
X146700000Y-104375000D02*
X147300000Y-104375000D01*
X147300000Y-103375000D02*
X146700000Y-103375000D01*
X147300000Y-103545000D02*
X147300000Y-103375000D01*
X147300000Y-104375000D02*
X147300000Y-104205000D01*
D10*
%TO.C,R50*%
X147560000Y-99580000D02*
X147560000Y-100030000D01*
X147560000Y-100820000D02*
X147560000Y-100370000D01*
X148340000Y-99580000D02*
X147560000Y-99580000D01*
X148340000Y-100030000D02*
X148340000Y-99580000D01*
X148340000Y-100370000D02*
X148340000Y-100820000D01*
X148340000Y-100820000D02*
X147560000Y-100820000D01*
D12*
%TO.C,U14*%
X134500000Y-95300000D02*
X134500000Y-97700000D01*
X134500000Y-97700000D02*
X136900000Y-97700000D01*
X136900000Y-95300000D02*
X134500000Y-95300000D01*
X136900000Y-97700000D02*
X136900000Y-95300000D01*
%TO.C,U5*%
X134500000Y-111300000D02*
X134500000Y-113700000D01*
X134500000Y-113700000D02*
X136900000Y-113700000D01*
X136900000Y-111300000D02*
X134500000Y-111300000D01*
X136900000Y-113700000D02*
X136900000Y-111300000D01*
D10*
%TO.C,R51*%
X148235000Y-101705000D02*
X149015000Y-101705000D01*
X148235000Y-102155000D02*
X148235000Y-101705000D01*
X148235000Y-102495000D02*
X148235000Y-102945000D01*
X148235000Y-102945000D02*
X149015000Y-102945000D01*
X149015000Y-101705000D02*
X149015000Y-102155000D01*
X149015000Y-102945000D02*
X149015000Y-102495000D01*
D11*
%TO.C,Q5*%
X167950000Y-103000000D02*
X170950000Y-103000000D01*
X167950000Y-106000000D02*
X170950000Y-106000000D01*
X171650000Y-103000000D02*
G75*
G02*
X171450000Y-103000000I-100000J0D01*
G01*
X171450000Y-103000000D02*
G75*
G02*
X171650000Y-103000000I100000J0D01*
G01*
D12*
%TO.C,SWD1*%
X144425000Y-84450000D02*
G75*
G02*
X142525000Y-84450000I-950000J0D01*
G01*
X142525000Y-84450000D02*
G75*
G02*
X144425000Y-84450000I950000J0D01*
G01*
D10*
%TO.C,R13*%
X164380000Y-113610000D02*
X164380000Y-114390000D01*
X164380000Y-114390000D02*
X164830000Y-114390000D01*
X164830000Y-113610000D02*
X164380000Y-113610000D01*
X165170000Y-113610000D02*
X165620000Y-113610000D01*
X165620000Y-113610000D02*
X165620000Y-114390000D01*
X165620000Y-114390000D02*
X165170000Y-114390000D01*
%TO.C,R44*%
X138230000Y-98110000D02*
X138230000Y-98890000D01*
X138230000Y-98890000D02*
X138680000Y-98890000D01*
X138680000Y-98110000D02*
X138230000Y-98110000D01*
X139020000Y-98110000D02*
X139470000Y-98110000D01*
X139470000Y-98110000D02*
X139470000Y-98890000D01*
X139470000Y-98890000D02*
X139020000Y-98890000D01*
D12*
%TO.C,U15*%
X134500000Y-91300000D02*
X134500000Y-93700000D01*
X134500000Y-93700000D02*
X136900000Y-93700000D01*
X136900000Y-91300000D02*
X134500000Y-91300000D01*
X136900000Y-93700000D02*
X136900000Y-91300000D01*
D10*
%TO.C,R10*%
X156210000Y-103555000D02*
X156990000Y-103555000D01*
X156210000Y-104005000D02*
X156210000Y-103555000D01*
X156210000Y-104345000D02*
X156210000Y-104795000D01*
X156210000Y-104795000D02*
X156990000Y-104795000D01*
X156990000Y-103555000D02*
X156990000Y-104005000D01*
X156990000Y-104795000D02*
X156990000Y-104345000D01*
%TD*%
M02*
