%TF.GenerationSoftware,KiCad,Pcbnew,9.0.6*%
%TF.CreationDate,2025-12-26T21:42:16+01:00*%
%TF.ProjectId,esc,6573632e-6b69-4636-9164-5f7063625858,rev?*%
%TF.SameCoordinates,Original*%
%TF.FileFunction,Legend,Top*%
%TF.FilePolarity,Positive*%
%FSLAX46Y46*%
G04 Gerber Fmt 4.6, Leading zero omitted, Abs format (unit mm)*
G04 Created by KiCad (PCBNEW 9.0.6) date 2025-12-26 21:42:16*
%MOMM*%
%LPD*%
G01*
G04 APERTURE LIST*
%ADD10C,0.100000*%
%ADD11C,0.150000*%
%ADD12C,0.120000*%
%ADD13C,0.200000*%
%ADD14C,0.250000*%
%ADD15C,0.130000*%
G04 APERTURE END LIST*
D10*
X144638095Y-120305038D02*
X144542857Y-120257419D01*
X144542857Y-120257419D02*
X144400000Y-120257419D01*
X144400000Y-120257419D02*
X144257143Y-120305038D01*
X144257143Y-120305038D02*
X144161905Y-120400276D01*
X144161905Y-120400276D02*
X144114286Y-120495514D01*
X144114286Y-120495514D02*
X144066667Y-120685990D01*
X144066667Y-120685990D02*
X144066667Y-120828847D01*
X144066667Y-120828847D02*
X144114286Y-121019323D01*
X144114286Y-121019323D02*
X144161905Y-121114561D01*
X144161905Y-121114561D02*
X144257143Y-121209800D01*
X144257143Y-121209800D02*
X144400000Y-121257419D01*
X144400000Y-121257419D02*
X144495238Y-121257419D01*
X144495238Y-121257419D02*
X144638095Y-121209800D01*
X144638095Y-121209800D02*
X144685714Y-121162180D01*
X144685714Y-121162180D02*
X144685714Y-120828847D01*
X144685714Y-120828847D02*
X144495238Y-120828847D01*
X145114286Y-121257419D02*
X145114286Y-120257419D01*
X145114286Y-120257419D02*
X145685714Y-121257419D01*
X145685714Y-121257419D02*
X145685714Y-120257419D01*
X146161905Y-121257419D02*
X146161905Y-120257419D01*
X146161905Y-120257419D02*
X146400000Y-120257419D01*
X146400000Y-120257419D02*
X146542857Y-120305038D01*
X146542857Y-120305038D02*
X146638095Y-120400276D01*
X146638095Y-120400276D02*
X146685714Y-120495514D01*
X146685714Y-120495514D02*
X146733333Y-120685990D01*
X146733333Y-120685990D02*
X146733333Y-120828847D01*
X146733333Y-120828847D02*
X146685714Y-121019323D01*
X146685714Y-121019323D02*
X146638095Y-121114561D01*
X146638095Y-121114561D02*
X146542857Y-121209800D01*
X146542857Y-121209800D02*
X146400000Y-121257419D01*
X146400000Y-121257419D02*
X146161905Y-121257419D01*
X161657143Y-120257419D02*
X161990476Y-121257419D01*
X161990476Y-121257419D02*
X162323809Y-120257419D01*
X162990476Y-120733609D02*
X163133333Y-120781228D01*
X163133333Y-120781228D02*
X163180952Y-120828847D01*
X163180952Y-120828847D02*
X163228571Y-120924085D01*
X163228571Y-120924085D02*
X163228571Y-121066942D01*
X163228571Y-121066942D02*
X163180952Y-121162180D01*
X163180952Y-121162180D02*
X163133333Y-121209800D01*
X163133333Y-121209800D02*
X163038095Y-121257419D01*
X163038095Y-121257419D02*
X162657143Y-121257419D01*
X162657143Y-121257419D02*
X162657143Y-120257419D01*
X162657143Y-120257419D02*
X162990476Y-120257419D01*
X162990476Y-120257419D02*
X163085714Y-120305038D01*
X163085714Y-120305038D02*
X163133333Y-120352657D01*
X163133333Y-120352657D02*
X163180952Y-120447895D01*
X163180952Y-120447895D02*
X163180952Y-120543133D01*
X163180952Y-120543133D02*
X163133333Y-120638371D01*
X163133333Y-120638371D02*
X163085714Y-120685990D01*
X163085714Y-120685990D02*
X162990476Y-120733609D01*
X162990476Y-120733609D02*
X162657143Y-120733609D01*
X163609524Y-120971704D02*
X164085714Y-120971704D01*
X163514286Y-121257419D02*
X163847619Y-120257419D01*
X163847619Y-120257419D02*
X164180952Y-121257419D01*
X164371429Y-120257419D02*
X164942857Y-120257419D01*
X164657143Y-121257419D02*
X164657143Y-120257419D01*
D11*
X161941667Y-89382200D02*
X162084524Y-89429819D01*
X162084524Y-89429819D02*
X162322619Y-89429819D01*
X162322619Y-89429819D02*
X162417857Y-89382200D01*
X162417857Y-89382200D02*
X162465476Y-89334580D01*
X162465476Y-89334580D02*
X162513095Y-89239342D01*
X162513095Y-89239342D02*
X162513095Y-89144104D01*
X162513095Y-89144104D02*
X162465476Y-89048866D01*
X162465476Y-89048866D02*
X162417857Y-89001247D01*
X162417857Y-89001247D02*
X162322619Y-88953628D01*
X162322619Y-88953628D02*
X162132143Y-88906009D01*
X162132143Y-88906009D02*
X162036905Y-88858390D01*
X162036905Y-88858390D02*
X161989286Y-88810771D01*
X161989286Y-88810771D02*
X161941667Y-88715533D01*
X161941667Y-88715533D02*
X161941667Y-88620295D01*
X161941667Y-88620295D02*
X161989286Y-88525057D01*
X161989286Y-88525057D02*
X162036905Y-88477438D01*
X162036905Y-88477438D02*
X162132143Y-88429819D01*
X162132143Y-88429819D02*
X162370238Y-88429819D01*
X162370238Y-88429819D02*
X162513095Y-88477438D01*
X162846429Y-88429819D02*
X163084524Y-89429819D01*
X163084524Y-89429819D02*
X163275000Y-88715533D01*
X163275000Y-88715533D02*
X163465476Y-89429819D01*
X163465476Y-89429819D02*
X163703572Y-88429819D01*
X164655952Y-89334580D02*
X164608333Y-89382200D01*
X164608333Y-89382200D02*
X164465476Y-89429819D01*
X164465476Y-89429819D02*
X164370238Y-89429819D01*
X164370238Y-89429819D02*
X164227381Y-89382200D01*
X164227381Y-89382200D02*
X164132143Y-89286961D01*
X164132143Y-89286961D02*
X164084524Y-89191723D01*
X164084524Y-89191723D02*
X164036905Y-89001247D01*
X164036905Y-89001247D02*
X164036905Y-88858390D01*
X164036905Y-88858390D02*
X164084524Y-88667914D01*
X164084524Y-88667914D02*
X164132143Y-88572676D01*
X164132143Y-88572676D02*
X164227381Y-88477438D01*
X164227381Y-88477438D02*
X164370238Y-88429819D01*
X164370238Y-88429819D02*
X164465476Y-88429819D01*
X164465476Y-88429819D02*
X164608333Y-88477438D01*
X164608333Y-88477438D02*
X164655952Y-88525057D01*
X165513095Y-88763152D02*
X165513095Y-89429819D01*
X165275000Y-88382200D02*
X165036905Y-89096485D01*
X165036905Y-89096485D02*
X165655952Y-89096485D01*
X144441667Y-84932200D02*
X144584524Y-84979819D01*
X144584524Y-84979819D02*
X144822619Y-84979819D01*
X144822619Y-84979819D02*
X144917857Y-84932200D01*
X144917857Y-84932200D02*
X144965476Y-84884580D01*
X144965476Y-84884580D02*
X145013095Y-84789342D01*
X145013095Y-84789342D02*
X145013095Y-84694104D01*
X145013095Y-84694104D02*
X144965476Y-84598866D01*
X144965476Y-84598866D02*
X144917857Y-84551247D01*
X144917857Y-84551247D02*
X144822619Y-84503628D01*
X144822619Y-84503628D02*
X144632143Y-84456009D01*
X144632143Y-84456009D02*
X144536905Y-84408390D01*
X144536905Y-84408390D02*
X144489286Y-84360771D01*
X144489286Y-84360771D02*
X144441667Y-84265533D01*
X144441667Y-84265533D02*
X144441667Y-84170295D01*
X144441667Y-84170295D02*
X144489286Y-84075057D01*
X144489286Y-84075057D02*
X144536905Y-84027438D01*
X144536905Y-84027438D02*
X144632143Y-83979819D01*
X144632143Y-83979819D02*
X144870238Y-83979819D01*
X144870238Y-83979819D02*
X145013095Y-84027438D01*
X145346429Y-83979819D02*
X145584524Y-84979819D01*
X145584524Y-84979819D02*
X145775000Y-84265533D01*
X145775000Y-84265533D02*
X145965476Y-84979819D01*
X145965476Y-84979819D02*
X146203572Y-83979819D01*
X146584524Y-84979819D02*
X146584524Y-83979819D01*
X146584524Y-83979819D02*
X146822619Y-83979819D01*
X146822619Y-83979819D02*
X146965476Y-84027438D01*
X146965476Y-84027438D02*
X147060714Y-84122676D01*
X147060714Y-84122676D02*
X147108333Y-84217914D01*
X147108333Y-84217914D02*
X147155952Y-84408390D01*
X147155952Y-84408390D02*
X147155952Y-84551247D01*
X147155952Y-84551247D02*
X147108333Y-84741723D01*
X147108333Y-84741723D02*
X147060714Y-84836961D01*
X147060714Y-84836961D02*
X146965476Y-84932200D01*
X146965476Y-84932200D02*
X146822619Y-84979819D01*
X146822619Y-84979819D02*
X146584524Y-84979819D01*
X147536905Y-84075057D02*
X147584524Y-84027438D01*
X147584524Y-84027438D02*
X147679762Y-83979819D01*
X147679762Y-83979819D02*
X147917857Y-83979819D01*
X147917857Y-83979819D02*
X148013095Y-84027438D01*
X148013095Y-84027438D02*
X148060714Y-84075057D01*
X148060714Y-84075057D02*
X148108333Y-84170295D01*
X148108333Y-84170295D02*
X148108333Y-84265533D01*
X148108333Y-84265533D02*
X148060714Y-84408390D01*
X148060714Y-84408390D02*
X147489286Y-84979819D01*
X147489286Y-84979819D02*
X148108333Y-84979819D01*
X144241667Y-89032200D02*
X144384524Y-89079819D01*
X144384524Y-89079819D02*
X144622619Y-89079819D01*
X144622619Y-89079819D02*
X144717857Y-89032200D01*
X144717857Y-89032200D02*
X144765476Y-88984580D01*
X144765476Y-88984580D02*
X144813095Y-88889342D01*
X144813095Y-88889342D02*
X144813095Y-88794104D01*
X144813095Y-88794104D02*
X144765476Y-88698866D01*
X144765476Y-88698866D02*
X144717857Y-88651247D01*
X144717857Y-88651247D02*
X144622619Y-88603628D01*
X144622619Y-88603628D02*
X144432143Y-88556009D01*
X144432143Y-88556009D02*
X144336905Y-88508390D01*
X144336905Y-88508390D02*
X144289286Y-88460771D01*
X144289286Y-88460771D02*
X144241667Y-88365533D01*
X144241667Y-88365533D02*
X144241667Y-88270295D01*
X144241667Y-88270295D02*
X144289286Y-88175057D01*
X144289286Y-88175057D02*
X144336905Y-88127438D01*
X144336905Y-88127438D02*
X144432143Y-88079819D01*
X144432143Y-88079819D02*
X144670238Y-88079819D01*
X144670238Y-88079819D02*
X144813095Y-88127438D01*
X145146429Y-88079819D02*
X145384524Y-89079819D01*
X145384524Y-89079819D02*
X145575000Y-88365533D01*
X145575000Y-88365533D02*
X145765476Y-89079819D01*
X145765476Y-89079819D02*
X146003572Y-88079819D01*
X146955952Y-88984580D02*
X146908333Y-89032200D01*
X146908333Y-89032200D02*
X146765476Y-89079819D01*
X146765476Y-89079819D02*
X146670238Y-89079819D01*
X146670238Y-89079819D02*
X146527381Y-89032200D01*
X146527381Y-89032200D02*
X146432143Y-88936961D01*
X146432143Y-88936961D02*
X146384524Y-88841723D01*
X146384524Y-88841723D02*
X146336905Y-88651247D01*
X146336905Y-88651247D02*
X146336905Y-88508390D01*
X146336905Y-88508390D02*
X146384524Y-88317914D01*
X146384524Y-88317914D02*
X146432143Y-88222676D01*
X146432143Y-88222676D02*
X146527381Y-88127438D01*
X146527381Y-88127438D02*
X146670238Y-88079819D01*
X146670238Y-88079819D02*
X146765476Y-88079819D01*
X146765476Y-88079819D02*
X146908333Y-88127438D01*
X146908333Y-88127438D02*
X146955952Y-88175057D01*
X147336905Y-88175057D02*
X147384524Y-88127438D01*
X147384524Y-88127438D02*
X147479762Y-88079819D01*
X147479762Y-88079819D02*
X147717857Y-88079819D01*
X147717857Y-88079819D02*
X147813095Y-88127438D01*
X147813095Y-88127438D02*
X147860714Y-88175057D01*
X147860714Y-88175057D02*
X147908333Y-88270295D01*
X147908333Y-88270295D02*
X147908333Y-88365533D01*
X147908333Y-88365533D02*
X147860714Y-88508390D01*
X147860714Y-88508390D02*
X147289286Y-89079819D01*
X147289286Y-89079819D02*
X147908333Y-89079819D01*
X160391667Y-85707200D02*
X160534524Y-85754819D01*
X160534524Y-85754819D02*
X160772619Y-85754819D01*
X160772619Y-85754819D02*
X160867857Y-85707200D01*
X160867857Y-85707200D02*
X160915476Y-85659580D01*
X160915476Y-85659580D02*
X160963095Y-85564342D01*
X160963095Y-85564342D02*
X160963095Y-85469104D01*
X160963095Y-85469104D02*
X160915476Y-85373866D01*
X160915476Y-85373866D02*
X160867857Y-85326247D01*
X160867857Y-85326247D02*
X160772619Y-85278628D01*
X160772619Y-85278628D02*
X160582143Y-85231009D01*
X160582143Y-85231009D02*
X160486905Y-85183390D01*
X160486905Y-85183390D02*
X160439286Y-85135771D01*
X160439286Y-85135771D02*
X160391667Y-85040533D01*
X160391667Y-85040533D02*
X160391667Y-84945295D01*
X160391667Y-84945295D02*
X160439286Y-84850057D01*
X160439286Y-84850057D02*
X160486905Y-84802438D01*
X160486905Y-84802438D02*
X160582143Y-84754819D01*
X160582143Y-84754819D02*
X160820238Y-84754819D01*
X160820238Y-84754819D02*
X160963095Y-84802438D01*
X161296429Y-84754819D02*
X161534524Y-85754819D01*
X161534524Y-85754819D02*
X161725000Y-85040533D01*
X161725000Y-85040533D02*
X161915476Y-85754819D01*
X161915476Y-85754819D02*
X162153572Y-84754819D01*
X162534524Y-85754819D02*
X162534524Y-84754819D01*
X162534524Y-84754819D02*
X162772619Y-84754819D01*
X162772619Y-84754819D02*
X162915476Y-84802438D01*
X162915476Y-84802438D02*
X163010714Y-84897676D01*
X163010714Y-84897676D02*
X163058333Y-84992914D01*
X163058333Y-84992914D02*
X163105952Y-85183390D01*
X163105952Y-85183390D02*
X163105952Y-85326247D01*
X163105952Y-85326247D02*
X163058333Y-85516723D01*
X163058333Y-85516723D02*
X163010714Y-85611961D01*
X163010714Y-85611961D02*
X162915476Y-85707200D01*
X162915476Y-85707200D02*
X162772619Y-85754819D01*
X162772619Y-85754819D02*
X162534524Y-85754819D01*
X163963095Y-85088152D02*
X163963095Y-85754819D01*
X163725000Y-84707200D02*
X163486905Y-85421485D01*
X163486905Y-85421485D02*
X164105952Y-85421485D01*
%TO.C,R55*%
X142555000Y-98610000D02*
X142555000Y-99390000D01*
X142555000Y-99390000D02*
X143005000Y-99390000D01*
X143005000Y-98610000D02*
X142555000Y-98610000D01*
X143345000Y-98610000D02*
X143795000Y-98610000D01*
X143795000Y-98610000D02*
X143795000Y-99390000D01*
X143795000Y-99390000D02*
X143345000Y-99390000D01*
%TO.C,U17*%
X158120000Y-92420000D02*
X158620000Y-92420000D01*
X158120000Y-92920000D02*
X158120000Y-92420000D01*
X158120000Y-96080000D02*
X158120000Y-96580000D01*
X158120000Y-96580000D02*
X158620000Y-96580000D01*
X162280000Y-92420000D02*
X161780000Y-92420000D01*
X162280000Y-92920000D02*
X162280000Y-92420000D01*
X162280000Y-96080000D02*
X162280000Y-96580000D01*
X162280000Y-96580000D02*
X161780000Y-96580000D01*
X159020000Y-96960000D02*
G75*
G02*
X158880000Y-96960000I-70000J0D01*
G01*
X158880000Y-96960000D02*
G75*
G02*
X159020000Y-96960000I70000J0D01*
G01*
%TO.C,C34*%
X170710000Y-102285000D02*
X170710000Y-102765000D01*
X170870000Y-102915000D02*
X171230000Y-102915000D01*
X171230000Y-102135000D02*
X170870000Y-102135000D01*
X171570000Y-102135000D02*
X171930000Y-102135000D01*
X171930000Y-102915000D02*
X171570000Y-102915000D01*
X172090000Y-102285000D02*
X172090000Y-102765000D01*
X170710000Y-102285000D02*
G75*
G02*
X170870333Y-102135356I150000J0D01*
G01*
X170870000Y-102915000D02*
G75*
G02*
X170709667Y-102764643I-10000J150000D01*
G01*
X171929667Y-102135356D02*
G75*
G02*
X172090000Y-102285000I10334J-149643D01*
G01*
X172090333Y-102764643D02*
G75*
G02*
X171930000Y-102914999I-150332J-357D01*
G01*
%TO.C,C22*%
X152110000Y-98610000D02*
X152110000Y-99090000D01*
X152270000Y-99240000D02*
X152630000Y-99240000D01*
X152630000Y-98460000D02*
X152270000Y-98460000D01*
X152970000Y-98460000D02*
X153330000Y-98460000D01*
X153330000Y-99240000D02*
X152970000Y-99240000D01*
X153490000Y-98610000D02*
X153490000Y-99090000D01*
X152110000Y-98610000D02*
G75*
G02*
X152270333Y-98460356I150000J0D01*
G01*
X152270000Y-99240000D02*
G75*
G02*
X152109667Y-99089643I-10000J150000D01*
G01*
X153329667Y-98460356D02*
G75*
G02*
X153490000Y-98610000I10334J-149643D01*
G01*
X153490333Y-99089643D02*
G75*
G02*
X153330000Y-99239999I-150332J-357D01*
G01*
D12*
%TO.C,U20*%
X171500000Y-91300000D02*
X173900000Y-91300000D01*
X171500000Y-93700000D02*
X171500000Y-91300000D01*
X173900000Y-91300000D02*
X173900000Y-93700000D01*
X173900000Y-93700000D02*
X171500000Y-93700000D01*
D11*
%TO.C,R38*%
X135935000Y-108430000D02*
X135935000Y-108880000D01*
X135935000Y-109670000D02*
X135935000Y-109220000D01*
X136715000Y-108430000D02*
X135935000Y-108430000D01*
X136715000Y-108880000D02*
X136715000Y-108430000D01*
X136715000Y-109220000D02*
X136715000Y-109670000D01*
X136715000Y-109670000D02*
X135935000Y-109670000D01*
D13*
%TO.C,Q2*%
X170950000Y-111000000D02*
X167950000Y-111000000D01*
X170950000Y-114000000D02*
X167950000Y-114000000D01*
X167450000Y-111000000D02*
G75*
G02*
X167250000Y-111000000I-100000J0D01*
G01*
X167250000Y-111000000D02*
G75*
G02*
X167450000Y-111000000I100000J0D01*
G01*
D11*
%TO.C,R36*%
X143080000Y-105235000D02*
X143080000Y-106015000D01*
X143080000Y-106015000D02*
X143530000Y-106015000D01*
X143530000Y-105235000D02*
X143080000Y-105235000D01*
X143870000Y-105235000D02*
X144320000Y-105235000D01*
X144320000Y-105235000D02*
X144320000Y-106015000D01*
X144320000Y-106015000D02*
X143870000Y-106015000D01*
%TO.C,C8*%
X169985000Y-110260000D02*
X169985000Y-110740000D01*
X170145000Y-110890000D02*
X170505000Y-110890000D01*
X170505000Y-110110000D02*
X170145000Y-110110000D01*
X170845000Y-110110000D02*
X171205000Y-110110000D01*
X171205000Y-110890000D02*
X170845000Y-110890000D01*
X171365000Y-110260000D02*
X171365000Y-110740000D01*
X169985000Y-110260000D02*
G75*
G02*
X170145333Y-110110356I150000J0D01*
G01*
X170145000Y-110890000D02*
G75*
G02*
X169984667Y-110739643I-10000J150000D01*
G01*
X171204667Y-110110356D02*
G75*
G02*
X171365000Y-110260000I10334J-149643D01*
G01*
X171365333Y-110739643D02*
G75*
G02*
X171205000Y-110889999I-150332J-357D01*
G01*
%TO.C,C9*%
X170310000Y-106260000D02*
X170310000Y-106740000D01*
X170470000Y-106890000D02*
X170830000Y-106890000D01*
X170830000Y-106110000D02*
X170470000Y-106110000D01*
X171170000Y-106110000D02*
X171530000Y-106110000D01*
X171530000Y-106890000D02*
X171170000Y-106890000D01*
X171690000Y-106260000D02*
X171690000Y-106740000D01*
X170310000Y-106260000D02*
G75*
G02*
X170470333Y-106110356I150000J0D01*
G01*
X170470000Y-106890000D02*
G75*
G02*
X170309667Y-106739643I-10000J150000D01*
G01*
X171529667Y-106110356D02*
G75*
G02*
X171690000Y-106260000I10334J-149643D01*
G01*
X171690333Y-106739643D02*
G75*
G02*
X171530000Y-106889999I-150332J-357D01*
G01*
%TO.C,C12*%
X141215000Y-111750000D02*
X141215000Y-113250000D01*
X141365000Y-113400000D02*
X142775000Y-113400000D01*
X142775000Y-111600000D02*
X141365000Y-111600000D01*
X143575000Y-111600000D02*
X144985000Y-111600000D01*
X144985000Y-113400000D02*
X143575000Y-113400000D01*
X145135000Y-111750000D02*
X145135000Y-113250000D01*
X141215000Y-111750000D02*
G75*
G02*
X141365000Y-111600000I150000J0D01*
G01*
X141365000Y-113400000D02*
G75*
G02*
X141215000Y-113250000I0J150000D01*
G01*
X144985000Y-111600000D02*
G75*
G02*
X145135000Y-111750000I0J-150000D01*
G01*
X145135000Y-113250000D02*
G75*
G02*
X144985000Y-113400000I-150000J0D01*
G01*
%TO.C,R12*%
X150310000Y-88980000D02*
X150310000Y-89430000D01*
X150310000Y-90220000D02*
X150310000Y-89770000D01*
X151090000Y-88980000D02*
X150310000Y-88980000D01*
X151090000Y-89430000D02*
X151090000Y-88980000D01*
X151090000Y-89770000D02*
X151090000Y-90220000D01*
X151090000Y-90220000D02*
X150310000Y-90220000D01*
D13*
%TO.C,Q11*%
X140450000Y-103000000D02*
X137450000Y-103000000D01*
X140450000Y-106000000D02*
X137450000Y-106000000D01*
X136950000Y-103000000D02*
G75*
G02*
X136750000Y-103000000I-100000J0D01*
G01*
X136750000Y-103000000D02*
G75*
G02*
X136950000Y-103000000I100000J0D01*
G01*
D11*
%TO.C,R58*%
X135320000Y-101010000D02*
X135320000Y-101790000D01*
X135320000Y-101790000D02*
X135770000Y-101790000D01*
X135770000Y-101010000D02*
X135320000Y-101010000D01*
X136110000Y-101010000D02*
X136560000Y-101010000D01*
X136560000Y-101010000D02*
X136560000Y-101790000D01*
X136560000Y-101790000D02*
X136110000Y-101790000D01*
%TO.C,R75*%
X153310000Y-89005000D02*
X153310000Y-89455000D01*
X153310000Y-90245000D02*
X153310000Y-89795000D01*
X154090000Y-89005000D02*
X153310000Y-89005000D01*
X154090000Y-89455000D02*
X154090000Y-89005000D01*
X154090000Y-89795000D02*
X154090000Y-90245000D01*
X154090000Y-90245000D02*
X153310000Y-90245000D01*
D10*
%TO.C,D11*%
X158950000Y-89350000D02*
X159120000Y-89350000D01*
X158950000Y-89950000D02*
X158950000Y-89350000D01*
X158950000Y-90350000D02*
X158950000Y-90950000D01*
X158950000Y-90950000D02*
X159120000Y-90950000D01*
X159150000Y-91050000D02*
X159750000Y-91050000D01*
X159780000Y-89350000D02*
X159950000Y-89350000D01*
X159780000Y-90950000D02*
X159950000Y-90950000D01*
X159950000Y-89350000D02*
X159950000Y-89950000D01*
X159950000Y-90950000D02*
X159950000Y-90350000D01*
D11*
%TO.C,R71*%
X160110000Y-99630000D02*
X160890000Y-99630000D01*
X160110000Y-100080000D02*
X160110000Y-99630000D01*
X160110000Y-100420000D02*
X160110000Y-100870000D01*
X160110000Y-100870000D02*
X160890000Y-100870000D01*
X160890000Y-99630000D02*
X160890000Y-100080000D01*
X160890000Y-100870000D02*
X160890000Y-100420000D01*
D12*
%TO.C,U8*%
X171500000Y-107300000D02*
X173900000Y-107300000D01*
X171500000Y-109700000D02*
X171500000Y-107300000D01*
X173900000Y-107300000D02*
X173900000Y-109700000D01*
X173900000Y-109700000D02*
X171500000Y-109700000D01*
D11*
%TO.C,R67*%
X166135000Y-102605000D02*
X166915000Y-102605000D01*
X166135000Y-103055000D02*
X166135000Y-102605000D01*
X166135000Y-103395000D02*
X166135000Y-103845000D01*
X166135000Y-103845000D02*
X166915000Y-103845000D01*
X166915000Y-102605000D02*
X166915000Y-103055000D01*
X166915000Y-103845000D02*
X166915000Y-103395000D01*
%TO.C,R70*%
X160735000Y-98005000D02*
X161515000Y-98005000D01*
X160735000Y-98455000D02*
X160735000Y-98005000D01*
X160735000Y-98795000D02*
X160735000Y-99245000D01*
X160735000Y-99245000D02*
X161515000Y-99245000D01*
X161515000Y-98005000D02*
X161515000Y-98455000D01*
X161515000Y-99245000D02*
X161515000Y-98795000D01*
%TO.C,R57*%
X142680000Y-90685000D02*
X142680000Y-91465000D01*
X142680000Y-91465000D02*
X143130000Y-91465000D01*
X143130000Y-90685000D02*
X142680000Y-90685000D01*
X143470000Y-90685000D02*
X143920000Y-90685000D01*
X143920000Y-90685000D02*
X143920000Y-91465000D01*
X143920000Y-91465000D02*
X143470000Y-91465000D01*
%TO.C,R42*%
X135330000Y-105085000D02*
X135330000Y-105865000D01*
X135330000Y-105865000D02*
X135780000Y-105865000D01*
X135780000Y-105085000D02*
X135330000Y-105085000D01*
X136120000Y-105085000D02*
X136570000Y-105085000D01*
X136570000Y-105085000D02*
X136570000Y-105865000D01*
X136570000Y-105865000D02*
X136120000Y-105865000D01*
D13*
%TO.C,Q17*%
X140450000Y-91000000D02*
X137450000Y-91000000D01*
X140450000Y-94000000D02*
X137450000Y-94000000D01*
X136950000Y-91000000D02*
G75*
G02*
X136750000Y-91000000I-100000J0D01*
G01*
X136750000Y-91000000D02*
G75*
G02*
X136950000Y-91000000I100000J0D01*
G01*
%TO.C,Q4*%
X170950000Y-107000000D02*
X167950000Y-107000000D01*
X170950000Y-110000000D02*
X167950000Y-110000000D01*
X167450000Y-107000000D02*
G75*
G02*
X167250000Y-107000000I-100000J0D01*
G01*
X167250000Y-107000000D02*
G75*
G02*
X167450000Y-107000000I100000J0D01*
G01*
D10*
%TO.C,D3*%
X164600000Y-108900000D02*
X164600000Y-109500000D01*
X164700000Y-108700000D02*
X164700000Y-108870000D01*
X164700000Y-109530000D02*
X164700000Y-109700000D01*
X164700000Y-109700000D02*
X165300000Y-109700000D01*
X165300000Y-108700000D02*
X164700000Y-108700000D01*
X165700000Y-108700000D02*
X166300000Y-108700000D01*
X166300000Y-108700000D02*
X166300000Y-108870000D01*
X166300000Y-109530000D02*
X166300000Y-109700000D01*
X166300000Y-109700000D02*
X165700000Y-109700000D01*
D11*
%TO.C,C19*%
X141340000Y-91800000D02*
X141340000Y-93300000D01*
X141490000Y-93450000D02*
X142900000Y-93450000D01*
X142900000Y-91650000D02*
X141490000Y-91650000D01*
X143700000Y-91650000D02*
X145110000Y-91650000D01*
X145110000Y-93450000D02*
X143700000Y-93450000D01*
X145260000Y-91800000D02*
X145260000Y-93300000D01*
X141340000Y-91800000D02*
G75*
G02*
X141490000Y-91650000I150000J0D01*
G01*
X141490000Y-93450000D02*
G75*
G02*
X141340000Y-93300000I0J150000D01*
G01*
X145110000Y-91650000D02*
G75*
G02*
X145260000Y-91800000I0J-150000D01*
G01*
X145260000Y-93300000D02*
G75*
G02*
X145110000Y-93450000I-150000J0D01*
G01*
%TO.C,R27*%
X150860000Y-105830000D02*
X150860000Y-106280000D01*
X150860000Y-107070000D02*
X150860000Y-106620000D01*
X151640000Y-105830000D02*
X150860000Y-105830000D01*
X151640000Y-106280000D02*
X151640000Y-105830000D01*
X151640000Y-106620000D02*
X151640000Y-107070000D01*
X151640000Y-107070000D02*
X150860000Y-107070000D01*
D10*
%TO.C,D1*%
X162200000Y-104600000D02*
X162370000Y-104600000D01*
X162200000Y-105200000D02*
X162200000Y-104600000D01*
X162200000Y-105600000D02*
X162200000Y-106200000D01*
X162200000Y-106200000D02*
X162370000Y-106200000D01*
X162400000Y-106300000D02*
X163000000Y-106300000D01*
X163030000Y-104600000D02*
X163200000Y-104600000D01*
X163030000Y-106200000D02*
X163200000Y-106200000D01*
X163200000Y-104600000D02*
X163200000Y-105200000D01*
X163200000Y-106200000D02*
X163200000Y-105600000D01*
D11*
%TO.C,R63*%
X135430000Y-93060000D02*
X135430000Y-93840000D01*
X135430000Y-93840000D02*
X135880000Y-93840000D01*
X135880000Y-93060000D02*
X135430000Y-93060000D01*
X136220000Y-93060000D02*
X136670000Y-93060000D01*
X136670000Y-93060000D02*
X136670000Y-93840000D01*
X136670000Y-93840000D02*
X136220000Y-93840000D01*
D10*
%TO.C,D10*%
X155950000Y-92850000D02*
X156120000Y-92850000D01*
X155950000Y-93450000D02*
X155950000Y-92850000D01*
X155950000Y-93850000D02*
X155950000Y-94450000D01*
X155950000Y-94450000D02*
X156120000Y-94450000D01*
X156150000Y-94550000D02*
X156750000Y-94550000D01*
X156780000Y-92850000D02*
X156950000Y-92850000D01*
X156780000Y-94450000D02*
X156950000Y-94450000D01*
X156950000Y-92850000D02*
X156950000Y-93450000D01*
X156950000Y-94450000D02*
X156950000Y-93850000D01*
D13*
%TO.C,Q6*%
X170950000Y-103000000D02*
X167950000Y-103000000D01*
X170950000Y-106000000D02*
X167950000Y-106000000D01*
X167450000Y-103000000D02*
G75*
G02*
X167250000Y-103000000I-100000J0D01*
G01*
X167250000Y-103000000D02*
G75*
G02*
X167450000Y-103000000I100000J0D01*
G01*
D11*
%TO.C,R31*%
X151060000Y-103530000D02*
X151060000Y-103980000D01*
X151060000Y-104770000D02*
X151060000Y-104320000D01*
X151840000Y-103530000D02*
X151060000Y-103530000D01*
X151840000Y-103980000D02*
X151840000Y-103530000D01*
X151840000Y-104320000D02*
X151840000Y-104770000D01*
X151840000Y-104770000D02*
X151060000Y-104770000D01*
%TO.C,C13*%
X151335000Y-105010000D02*
X151335000Y-105490000D01*
X151495000Y-105640000D02*
X151855000Y-105640000D01*
X151855000Y-104860000D02*
X151495000Y-104860000D01*
X152195000Y-104860000D02*
X152555000Y-104860000D01*
X152555000Y-105640000D02*
X152195000Y-105640000D01*
X152715000Y-105010000D02*
X152715000Y-105490000D01*
X151335000Y-105010000D02*
G75*
G02*
X151495333Y-104860356I150000J0D01*
G01*
X151495000Y-105640000D02*
G75*
G02*
X151334667Y-105489643I-10000J150000D01*
G01*
X152554667Y-104860356D02*
G75*
G02*
X152715000Y-105010000I10334J-149643D01*
G01*
X152715333Y-105489643D02*
G75*
G02*
X152555000Y-105639999I-150332J-357D01*
G01*
%TO.C,R68*%
X165160000Y-94905000D02*
X165940000Y-94905000D01*
X165160000Y-95355000D02*
X165160000Y-94905000D01*
X165160000Y-95695000D02*
X165160000Y-96145000D01*
X165160000Y-96145000D02*
X165940000Y-96145000D01*
X165940000Y-94905000D02*
X165940000Y-95355000D01*
X165940000Y-96145000D02*
X165940000Y-95695000D01*
%TO.C,R2*%
X168455000Y-110110000D02*
X168455000Y-110890000D01*
X168455000Y-110890000D02*
X168905000Y-110890000D01*
X168905000Y-110110000D02*
X168455000Y-110110000D01*
X169245000Y-110110000D02*
X169695000Y-110110000D01*
X169695000Y-110110000D02*
X169695000Y-110890000D01*
X169695000Y-110890000D02*
X169245000Y-110890000D01*
D13*
%TO.C,Q9*%
X140450000Y-111000000D02*
X137450000Y-111000000D01*
X140450000Y-114000000D02*
X137450000Y-114000000D01*
X136950000Y-111000000D02*
G75*
G02*
X136750000Y-111000000I-100000J0D01*
G01*
X136750000Y-111000000D02*
G75*
G02*
X136950000Y-111000000I100000J0D01*
G01*
D11*
%TO.C,R25*%
X151835000Y-105805000D02*
X151835000Y-106255000D01*
X151835000Y-107045000D02*
X151835000Y-106595000D01*
X152615000Y-105805000D02*
X151835000Y-105805000D01*
X152615000Y-106255000D02*
X152615000Y-105805000D01*
X152615000Y-106595000D02*
X152615000Y-107045000D01*
X152615000Y-107045000D02*
X151835000Y-107045000D01*
%TO.C,C35*%
X170065000Y-98235000D02*
X170065000Y-98715000D01*
X170225000Y-98865000D02*
X170585000Y-98865000D01*
X170585000Y-98085000D02*
X170225000Y-98085000D01*
X170925000Y-98085000D02*
X171285000Y-98085000D01*
X171285000Y-98865000D02*
X170925000Y-98865000D01*
X171445000Y-98235000D02*
X171445000Y-98715000D01*
X170065000Y-98235000D02*
G75*
G02*
X170225333Y-98085356I150000J0D01*
G01*
X170225000Y-98865000D02*
G75*
G02*
X170064667Y-98714643I-10000J150000D01*
G01*
X171284667Y-98085356D02*
G75*
G02*
X171445000Y-98235000I10334J-149643D01*
G01*
X171445333Y-98714643D02*
G75*
G02*
X171285000Y-98864999I-150332J-357D01*
G01*
%TO.C,R37*%
X135395000Y-113060000D02*
X135395000Y-113840000D01*
X135395000Y-113840000D02*
X135845000Y-113840000D01*
X135845000Y-113060000D02*
X135395000Y-113060000D01*
X136185000Y-113060000D02*
X136635000Y-113060000D01*
X136635000Y-113060000D02*
X136635000Y-113840000D01*
X136635000Y-113840000D02*
X136185000Y-113840000D01*
D14*
%TO.C,U16*%
X155200000Y-97500000D02*
X155670000Y-97500000D01*
X155200000Y-97970000D02*
X155200000Y-97500000D01*
X155200000Y-101500000D02*
X155200000Y-101030000D01*
X155670000Y-101500000D02*
X155200000Y-101500000D01*
X158730000Y-97500000D02*
X159200000Y-97500000D01*
X159200000Y-97500000D02*
X159200000Y-97970000D01*
X159200000Y-101030000D02*
X159200000Y-101500000D01*
X159200000Y-101500000D02*
X158730000Y-101500000D01*
X155600000Y-101900000D02*
G75*
G02*
X155400000Y-101900000I-100000J0D01*
G01*
X155400000Y-101900000D02*
G75*
G02*
X155600000Y-101900000I100000J0D01*
G01*
D11*
%TO.C,R26*%
X149885000Y-105855000D02*
X149885000Y-106305000D01*
X149885000Y-107095000D02*
X149885000Y-106645000D01*
X150665000Y-105855000D02*
X149885000Y-105855000D01*
X150665000Y-106305000D02*
X150665000Y-105855000D01*
X150665000Y-106645000D02*
X150665000Y-107095000D01*
X150665000Y-107095000D02*
X149885000Y-107095000D01*
%TO.C,C10*%
X141215000Y-103425000D02*
X141215000Y-104925000D01*
X141365000Y-105075000D02*
X142775000Y-105075000D01*
X142775000Y-103275000D02*
X141365000Y-103275000D01*
X143575000Y-103275000D02*
X144985000Y-103275000D01*
X144985000Y-105075000D02*
X143575000Y-105075000D01*
X145135000Y-103425000D02*
X145135000Y-104925000D01*
X141215000Y-103425000D02*
G75*
G02*
X141365000Y-103275000I150000J0D01*
G01*
X141365000Y-105075000D02*
G75*
G02*
X141215000Y-104925000I0J150000D01*
G01*
X144985000Y-103275000D02*
G75*
G02*
X145135000Y-103425000I0J-150000D01*
G01*
X145135000Y-104925000D02*
G75*
G02*
X144985000Y-105075000I-150000J0D01*
G01*
D12*
%TO.C,U9*%
X171500000Y-111300000D02*
X173900000Y-111300000D01*
X171500000Y-113700000D02*
X171500000Y-111300000D01*
X173900000Y-111300000D02*
X173900000Y-113700000D01*
X173900000Y-113700000D02*
X171500000Y-113700000D01*
D13*
%TO.C,Q15*%
X140450000Y-99000000D02*
X137450000Y-99000000D01*
X140450000Y-102000000D02*
X137450000Y-102000000D01*
X136950000Y-99000000D02*
G75*
G02*
X136750000Y-99000000I-100000J0D01*
G01*
X136750000Y-99000000D02*
G75*
G02*
X136950000Y-99000000I100000J0D01*
G01*
D11*
%TO.C,C36*%
X169960000Y-94260000D02*
X169960000Y-94740000D01*
X170120000Y-94890000D02*
X170480000Y-94890000D01*
X170480000Y-94110000D02*
X170120000Y-94110000D01*
X170820000Y-94110000D02*
X171180000Y-94110000D01*
X171180000Y-94890000D02*
X170820000Y-94890000D01*
X171340000Y-94260000D02*
X171340000Y-94740000D01*
X169960000Y-94260000D02*
G75*
G02*
X170120333Y-94110356I150000J0D01*
G01*
X170120000Y-94890000D02*
G75*
G02*
X169959667Y-94739643I-10000J150000D01*
G01*
X171179667Y-94110356D02*
G75*
G02*
X171340000Y-94260000I10334J-149643D01*
G01*
X171340333Y-94739643D02*
G75*
G02*
X171180000Y-94889999I-150332J-357D01*
G01*
D13*
%TO.C,Q20*%
X170950000Y-95000000D02*
X167950000Y-95000000D01*
X170950000Y-98000000D02*
X167950000Y-98000000D01*
X167450000Y-95000000D02*
G75*
G02*
X167250000Y-95000000I-100000J0D01*
G01*
X167250000Y-95000000D02*
G75*
G02*
X167450000Y-95000000I100000J0D01*
G01*
D11*
%TO.C,C32*%
X160230000Y-97715000D02*
X160230000Y-97235000D01*
X160390000Y-97085000D02*
X160750000Y-97085000D01*
X160750000Y-97865000D02*
X160390000Y-97865000D01*
X161090000Y-97865000D02*
X161450000Y-97865000D01*
X161450000Y-97085000D02*
X161090000Y-97085000D01*
X161610000Y-97715000D02*
X161610000Y-97235000D01*
X160229667Y-97235357D02*
G75*
G02*
X160390000Y-97085001I150332J357D01*
G01*
X160390333Y-97864644D02*
G75*
G02*
X160230000Y-97715000I-10334J149643D01*
G01*
X161450000Y-97085000D02*
G75*
G02*
X161610333Y-97235357I10000J-150000D01*
G01*
X161610000Y-97715000D02*
G75*
G02*
X161449667Y-97864644I-150000J0D01*
G01*
%TO.C,R72*%
X159610000Y-101640000D02*
X159610000Y-102090000D01*
X159610000Y-102880000D02*
X159610000Y-102430000D01*
X160390000Y-101640000D02*
X159610000Y-101640000D01*
X160390000Y-102090000D02*
X160390000Y-101640000D01*
X160390000Y-102430000D02*
X160390000Y-102880000D01*
X160390000Y-102880000D02*
X159610000Y-102880000D01*
D12*
%TO.C,SWC4*%
X162750000Y-87275000D02*
G75*
G02*
X160850000Y-87275000I-950000J0D01*
G01*
X160850000Y-87275000D02*
G75*
G02*
X162750000Y-87275000I950000J0D01*
G01*
D11*
%TO.C,R28*%
X148785000Y-105180000D02*
X149565000Y-105180000D01*
X148785000Y-105630000D02*
X148785000Y-105180000D01*
X148785000Y-105970000D02*
X148785000Y-106420000D01*
X148785000Y-106420000D02*
X149565000Y-106420000D01*
X149565000Y-105180000D02*
X149565000Y-105630000D01*
X149565000Y-106420000D02*
X149565000Y-105970000D01*
%TO.C,R60*%
X142630000Y-101510000D02*
X143080000Y-101510000D01*
X142630000Y-102290000D02*
X142630000Y-101510000D01*
X143080000Y-102290000D02*
X142630000Y-102290000D01*
X143420000Y-102290000D02*
X143870000Y-102290000D01*
X143870000Y-101510000D02*
X143420000Y-101510000D01*
X143870000Y-102290000D02*
X143870000Y-101510000D01*
%TO.C,C21*%
X141265000Y-99700000D02*
X141265000Y-101200000D01*
X141415000Y-101350000D02*
X142825000Y-101350000D01*
X142825000Y-99550000D02*
X141415000Y-99550000D01*
X143625000Y-99550000D02*
X145035000Y-99550000D01*
X145035000Y-101350000D02*
X143625000Y-101350000D01*
X145185000Y-99700000D02*
X145185000Y-101200000D01*
X141265000Y-99700000D02*
G75*
G02*
X141415000Y-99550000I150000J0D01*
G01*
X141415000Y-101350000D02*
G75*
G02*
X141265000Y-101200000I0J150000D01*
G01*
X145035000Y-99550000D02*
G75*
G02*
X145185000Y-99700000I0J-150000D01*
G01*
X145185000Y-101200000D02*
G75*
G02*
X145035000Y-101350000I-150000J0D01*
G01*
%TO.C,C33*%
X155110000Y-95155000D02*
X155110000Y-94795000D01*
X155110000Y-95495000D02*
X155110000Y-95855000D01*
X155260000Y-94635000D02*
X155740000Y-94635000D01*
X155260000Y-96015000D02*
X155740000Y-96015000D01*
X155890000Y-94795000D02*
X155890000Y-95155000D01*
X155890000Y-95855000D02*
X155890000Y-95495000D01*
X155110356Y-94795333D02*
G75*
G02*
X155260000Y-94635000I149643J10334D01*
G01*
X155260000Y-96015000D02*
G75*
G02*
X155110356Y-95854667I0J150000D01*
G01*
X155739643Y-94634667D02*
G75*
G02*
X155889999Y-94795000I357J-150332D01*
G01*
X155890000Y-95855000D02*
G75*
G02*
X155739643Y-96015333I-150000J-10000D01*
G01*
D13*
%TO.C,Q22*%
X170950000Y-99000000D02*
X167950000Y-99000000D01*
X170950000Y-102000000D02*
X167950000Y-102000000D01*
X167450000Y-99000000D02*
G75*
G02*
X167250000Y-99000000I-100000J0D01*
G01*
X167250000Y-99000000D02*
G75*
G02*
X167450000Y-99000000I100000J0D01*
G01*
D12*
%TO.C,U19*%
X171500000Y-95300000D02*
X173900000Y-95300000D01*
X171500000Y-97700000D02*
X171500000Y-95300000D01*
X173900000Y-95300000D02*
X173900000Y-97700000D01*
X173900000Y-97700000D02*
X171500000Y-97700000D01*
D11*
%TO.C,C7*%
X163910000Y-105830000D02*
X163910000Y-105470000D01*
X163910000Y-106170000D02*
X163910000Y-106530000D01*
X164060000Y-105310000D02*
X164540000Y-105310000D01*
X164060000Y-106690000D02*
X164540000Y-106690000D01*
X164690000Y-105470000D02*
X164690000Y-105830000D01*
X164690000Y-106530000D02*
X164690000Y-106170000D01*
X163910356Y-105470333D02*
G75*
G02*
X164060000Y-105310000I149643J10334D01*
G01*
X164060000Y-106690000D02*
G75*
G02*
X163910356Y-106529667I0J150000D01*
G01*
X164539643Y-105309667D02*
G75*
G02*
X164689999Y-105470000I357J-150332D01*
G01*
X164690000Y-106530000D02*
G75*
G02*
X164539643Y-106690333I-150000J-10000D01*
G01*
%TO.C,U4*%
X160120000Y-106420000D02*
X160120000Y-106920000D01*
X160120000Y-110580000D02*
X160120000Y-110080000D01*
X160620000Y-106420000D02*
X160120000Y-106420000D01*
X160620000Y-110580000D02*
X160120000Y-110580000D01*
X163780000Y-106420000D02*
X164280000Y-106420000D01*
X163780000Y-110580000D02*
X164280000Y-110580000D01*
X164280000Y-106420000D02*
X164280000Y-106920000D01*
X164280000Y-110580000D02*
X164280000Y-110080000D01*
X159810000Y-107250000D02*
G75*
G02*
X159670000Y-107250000I-70000J0D01*
G01*
X159670000Y-107250000D02*
G75*
G02*
X159810000Y-107250000I70000J0D01*
G01*
%TO.C,R62*%
X142640000Y-93635000D02*
X143090000Y-93635000D01*
X142640000Y-94415000D02*
X142640000Y-93635000D01*
X143090000Y-94415000D02*
X142640000Y-94415000D01*
X143430000Y-94415000D02*
X143880000Y-94415000D01*
X143880000Y-93635000D02*
X143430000Y-93635000D01*
X143880000Y-94415000D02*
X143880000Y-93635000D01*
D10*
%TO.C,D2*%
X164700000Y-107400000D02*
X164700000Y-108000000D01*
X164800000Y-107200000D02*
X164800000Y-107370000D01*
X164800000Y-108030000D02*
X164800000Y-108200000D01*
X164800000Y-108200000D02*
X165400000Y-108200000D01*
X165400000Y-107200000D02*
X164800000Y-107200000D01*
X165800000Y-107200000D02*
X166400000Y-107200000D01*
X166400000Y-107200000D02*
X166400000Y-107370000D01*
X166400000Y-108030000D02*
X166400000Y-108200000D01*
X166400000Y-108200000D02*
X165800000Y-108200000D01*
D11*
%TO.C,R32*%
X152785000Y-104830000D02*
X152785000Y-105280000D01*
X152785000Y-106070000D02*
X152785000Y-105620000D01*
X153565000Y-104830000D02*
X152785000Y-104830000D01*
X153565000Y-105280000D02*
X153565000Y-104830000D01*
X153565000Y-105620000D02*
X153565000Y-106070000D01*
X153565000Y-106070000D02*
X152785000Y-106070000D01*
%TO.C,R61*%
X142655000Y-94585000D02*
X143105000Y-94585000D01*
X142655000Y-95365000D02*
X142655000Y-94585000D01*
X143105000Y-95365000D02*
X142655000Y-95365000D01*
X143445000Y-95365000D02*
X143895000Y-95365000D01*
X143895000Y-94585000D02*
X143445000Y-94585000D01*
X143895000Y-95365000D02*
X143895000Y-94585000D01*
%TO.C,R35*%
X143230000Y-109585000D02*
X143230000Y-110365000D01*
X143230000Y-110365000D02*
X143680000Y-110365000D01*
X143680000Y-109585000D02*
X143230000Y-109585000D01*
X144020000Y-109585000D02*
X144470000Y-109585000D01*
X144470000Y-109585000D02*
X144470000Y-110365000D01*
X144470000Y-110365000D02*
X144020000Y-110365000D01*
D10*
%TO.C,L1*%
X158610000Y-118290000D02*
X158610000Y-117710000D01*
X160800000Y-117710000D02*
X160800000Y-118290000D01*
D12*
%TO.C,U7*%
X171500000Y-103300000D02*
X173900000Y-103300000D01*
X171500000Y-105700000D02*
X171500000Y-103300000D01*
X173900000Y-103300000D02*
X173900000Y-105700000D01*
X173900000Y-105700000D02*
X171500000Y-105700000D01*
D10*
%TO.C,D12*%
X160550000Y-89375000D02*
X160720000Y-89375000D01*
X160550000Y-89975000D02*
X160550000Y-89375000D01*
X160550000Y-90375000D02*
X160550000Y-90975000D01*
X160550000Y-90975000D02*
X160720000Y-90975000D01*
X160750000Y-91075000D02*
X161350000Y-91075000D01*
X161380000Y-89375000D02*
X161550000Y-89375000D01*
X161380000Y-90975000D02*
X161550000Y-90975000D01*
X161550000Y-89375000D02*
X161550000Y-89975000D01*
X161550000Y-90975000D02*
X161550000Y-90375000D01*
D12*
%TO.C,U18*%
X171500000Y-99300000D02*
X173900000Y-99300000D01*
X171500000Y-101700000D02*
X171500000Y-99300000D01*
X173900000Y-99300000D02*
X173900000Y-101700000D01*
X173900000Y-101700000D02*
X171500000Y-101700000D01*
D11*
%TO.C,R56*%
X142630000Y-97510000D02*
X142630000Y-98290000D01*
X142630000Y-98290000D02*
X143080000Y-98290000D01*
X143080000Y-97510000D02*
X142630000Y-97510000D01*
X143420000Y-97510000D02*
X143870000Y-97510000D01*
X143870000Y-97510000D02*
X143870000Y-98290000D01*
X143870000Y-98290000D02*
X143420000Y-98290000D01*
%TO.C,R41*%
X141580000Y-105235000D02*
X142030000Y-105235000D01*
X141580000Y-106015000D02*
X141580000Y-105235000D01*
X142030000Y-106015000D02*
X141580000Y-106015000D01*
X142370000Y-106015000D02*
X142820000Y-106015000D01*
X142820000Y-105235000D02*
X142370000Y-105235000D01*
X142820000Y-106015000D02*
X142820000Y-105235000D01*
%TO.C,R65*%
X168655000Y-98135000D02*
X168655000Y-98915000D01*
X168655000Y-98915000D02*
X169105000Y-98915000D01*
X169105000Y-98135000D02*
X168655000Y-98135000D01*
X169445000Y-98135000D02*
X169895000Y-98135000D01*
X169895000Y-98135000D02*
X169895000Y-98915000D01*
X169895000Y-98915000D02*
X169445000Y-98915000D01*
D14*
%TO.C,C52*%
X153390000Y-114420000D02*
X153390000Y-113620000D01*
X153390000Y-114980000D02*
X153390000Y-115780000D01*
X153700000Y-113310000D02*
X154500000Y-113310000D01*
X154500000Y-116090000D02*
X153700000Y-116090000D01*
X154810000Y-114420000D02*
X154810000Y-113620000D01*
X154810000Y-114980000D02*
X154810000Y-115780000D01*
X153390000Y-113620000D02*
G75*
G02*
X153700000Y-113310000I310000J0D01*
G01*
X153700000Y-116090000D02*
G75*
G02*
X153390000Y-115780000I0J310000D01*
G01*
X154500000Y-113310000D02*
G75*
G02*
X154810000Y-113620000I0J-310000D01*
G01*
X154810000Y-115780000D02*
G75*
G02*
X154500000Y-116090000I-310000J0D01*
G01*
D11*
%TO.C,R53*%
X152710000Y-99415000D02*
X153490000Y-99415000D01*
X152710000Y-99865000D02*
X152710000Y-99415000D01*
X152710000Y-100205000D02*
X152710000Y-100655000D01*
X152710000Y-100655000D02*
X153490000Y-100655000D01*
X153490000Y-99415000D02*
X153490000Y-99865000D01*
X153490000Y-100655000D02*
X153490000Y-100205000D01*
%TO.C,R52*%
X151685000Y-99405000D02*
X152465000Y-99405000D01*
X151685000Y-99855000D02*
X151685000Y-99405000D01*
X151685000Y-100195000D02*
X151685000Y-100645000D01*
X151685000Y-100645000D02*
X152465000Y-100645000D01*
X152465000Y-99405000D02*
X152465000Y-99855000D01*
X152465000Y-100645000D02*
X152465000Y-100195000D01*
%TO.C,C6*%
X159810000Y-106030000D02*
X159810000Y-105670000D01*
X159810000Y-106370000D02*
X159810000Y-106730000D01*
X159960000Y-105510000D02*
X160440000Y-105510000D01*
X159960000Y-106890000D02*
X160440000Y-106890000D01*
X160590000Y-105670000D02*
X160590000Y-106030000D01*
X160590000Y-106730000D02*
X160590000Y-106370000D01*
X159810356Y-105670333D02*
G75*
G02*
X159960000Y-105510000I149643J10334D01*
G01*
X159960000Y-106890000D02*
G75*
G02*
X159810356Y-106729667I0J150000D01*
G01*
X160439643Y-105509667D02*
G75*
G02*
X160589999Y-105670000I357J-150332D01*
G01*
X160590000Y-106730000D02*
G75*
G02*
X160439643Y-106890333I-150000J-10000D01*
G01*
%TO.C,C5*%
X158910000Y-109030000D02*
X158910000Y-108670000D01*
X158910000Y-109370000D02*
X158910000Y-109730000D01*
X159060000Y-108510000D02*
X159540000Y-108510000D01*
X159060000Y-109890000D02*
X159540000Y-109890000D01*
X159690000Y-108670000D02*
X159690000Y-109030000D01*
X159690000Y-109730000D02*
X159690000Y-109370000D01*
X158910356Y-108670333D02*
G75*
G02*
X159060000Y-108510000I149643J10334D01*
G01*
X159060000Y-109890000D02*
G75*
G02*
X158910356Y-109729667I0J150000D01*
G01*
X159539643Y-108509667D02*
G75*
G02*
X159689999Y-108670000I357J-150332D01*
G01*
X159690000Y-109730000D02*
G75*
G02*
X159539643Y-109890333I-150000J-10000D01*
G01*
%TO.C,R39*%
X141715000Y-113560000D02*
X142165000Y-113560000D01*
X141715000Y-114340000D02*
X141715000Y-113560000D01*
X142165000Y-114340000D02*
X141715000Y-114340000D01*
X142505000Y-114340000D02*
X142955000Y-114340000D01*
X142955000Y-113560000D02*
X142505000Y-113560000D01*
X142955000Y-114340000D02*
X142955000Y-113560000D01*
D12*
%TO.C,SWD2*%
X144425000Y-84450000D02*
G75*
G02*
X142525000Y-84450000I-950000J0D01*
G01*
X142525000Y-84450000D02*
G75*
G02*
X144425000Y-84450000I950000J0D01*
G01*
D11*
%TO.C,R64*%
X168515000Y-94110000D02*
X168515000Y-94890000D01*
X168515000Y-94890000D02*
X168965000Y-94890000D01*
X168965000Y-94110000D02*
X168515000Y-94110000D01*
X169305000Y-94110000D02*
X169755000Y-94110000D01*
X169755000Y-94110000D02*
X169755000Y-94890000D01*
X169755000Y-94890000D02*
X169305000Y-94890000D01*
%TO.C,R66*%
X169305000Y-102135000D02*
X169305000Y-102915000D01*
X169305000Y-102915000D02*
X169755000Y-102915000D01*
X169755000Y-102135000D02*
X169305000Y-102135000D01*
X170095000Y-102135000D02*
X170545000Y-102135000D01*
X170545000Y-102135000D02*
X170545000Y-102915000D01*
X170545000Y-102915000D02*
X170095000Y-102915000D01*
%TO.C,C11*%
X141215000Y-107775000D02*
X141215000Y-109275000D01*
X141365000Y-109425000D02*
X142775000Y-109425000D01*
X142775000Y-107625000D02*
X141365000Y-107625000D01*
X143575000Y-107625000D02*
X144985000Y-107625000D01*
X144985000Y-109425000D02*
X143575000Y-109425000D01*
X145135000Y-107775000D02*
X145135000Y-109275000D01*
X141215000Y-107775000D02*
G75*
G02*
X141365000Y-107625000I150000J0D01*
G01*
X141365000Y-109425000D02*
G75*
G02*
X141215000Y-109275000I0J150000D01*
G01*
X144985000Y-107625000D02*
G75*
G02*
X145135000Y-107775000I0J-150000D01*
G01*
X145135000Y-109275000D02*
G75*
G02*
X144985000Y-109425000I-150000J0D01*
G01*
D13*
%TO.C,Q24*%
X170950000Y-91000000D02*
X167950000Y-91000000D01*
X170950000Y-94000000D02*
X167950000Y-94000000D01*
X167450000Y-91000000D02*
G75*
G02*
X167250000Y-91000000I-100000J0D01*
G01*
X167250000Y-91000000D02*
G75*
G02*
X167450000Y-91000000I100000J0D01*
G01*
D11*
%TO.C,U22*%
X155530000Y-113170000D02*
X155530000Y-113320000D01*
X155530000Y-113170000D02*
X158330000Y-113170000D01*
X155530000Y-116020000D02*
X155530000Y-116170000D01*
X155530000Y-116170000D02*
X158330000Y-116170000D01*
X158330000Y-113170000D02*
X158330000Y-113320000D01*
X158330000Y-116020000D02*
X158330000Y-116170000D01*
X155360000Y-113580000D02*
G75*
G02*
X155200000Y-113580000I-80000J0D01*
G01*
X155200000Y-113580000D02*
G75*
G02*
X155360000Y-113580000I80000J0D01*
G01*
D12*
%TO.C,SWC2*%
X147175000Y-86550000D02*
G75*
G02*
X145275000Y-86550000I-950000J0D01*
G01*
X145275000Y-86550000D02*
G75*
G02*
X147175000Y-86550000I950000J0D01*
G01*
D14*
%TO.C,D17*%
X151700000Y-116670000D02*
X151700000Y-116400000D01*
X151700000Y-119200000D02*
X151700000Y-118930000D01*
D15*
X153430000Y-118050000D02*
X153430000Y-117450000D01*
X153430000Y-118050000D02*
X154000000Y-117750000D01*
X153460000Y-117450000D02*
X154000000Y-117750000D01*
X154000000Y-117750000D02*
X154000000Y-117370000D01*
X154000000Y-117750000D02*
X154000000Y-118130000D01*
X154530000Y-117440000D02*
X154000000Y-117750000D01*
X154590000Y-118040000D02*
X154000000Y-117750000D01*
X154590000Y-118040000D02*
X154590000Y-117440000D01*
X154760000Y-117740000D02*
X153270000Y-117740000D01*
D14*
X156300000Y-116400000D02*
X151700000Y-116400000D01*
X156300000Y-116670000D02*
X156300000Y-116400000D01*
X156300000Y-119200000D02*
X151700000Y-119200000D01*
X156300000Y-119200000D02*
X156300000Y-118930000D01*
D12*
%TO.C,SWD4*%
X166075000Y-84400000D02*
G75*
G02*
X164175000Y-84400000I-950000J0D01*
G01*
X164175000Y-84400000D02*
G75*
G02*
X166075000Y-84400000I950000J0D01*
G01*
D14*
%TO.C,U3*%
X155200000Y-103500000D02*
X155670000Y-103500000D01*
X155200000Y-103970000D02*
X155200000Y-103500000D01*
X155200000Y-107500000D02*
X155200000Y-107030000D01*
X155670000Y-107500000D02*
X155200000Y-107500000D01*
X158730000Y-103500000D02*
X159200000Y-103500000D01*
X159200000Y-103500000D02*
X159200000Y-103970000D01*
X159200000Y-107030000D02*
X159200000Y-107500000D01*
X159200000Y-107500000D02*
X158730000Y-107500000D01*
X154900000Y-103800000D02*
G75*
G02*
X154700000Y-103800000I-100000J0D01*
G01*
X154700000Y-103800000D02*
G75*
G02*
X154900000Y-103800000I100000J0D01*
G01*
D11*
%TO.C,R54*%
X152335000Y-88980000D02*
X152335000Y-89430000D01*
X152335000Y-90220000D02*
X152335000Y-89770000D01*
X153115000Y-88980000D02*
X152335000Y-88980000D01*
X153115000Y-89430000D02*
X153115000Y-88980000D01*
X153115000Y-89770000D02*
X153115000Y-90220000D01*
X153115000Y-90220000D02*
X152335000Y-90220000D01*
D13*
%TO.C,Q13*%
X140450000Y-95000000D02*
X137450000Y-95000000D01*
X140450000Y-98000000D02*
X137450000Y-98000000D01*
X136950000Y-95000000D02*
G75*
G02*
X136750000Y-95000000I-100000J0D01*
G01*
X136750000Y-95000000D02*
G75*
G02*
X136950000Y-95000000I100000J0D01*
G01*
D11*
%TO.C,R59*%
X135305000Y-97085000D02*
X135305000Y-97865000D01*
X135305000Y-97865000D02*
X135755000Y-97865000D01*
X135755000Y-97085000D02*
X135305000Y-97085000D01*
X136095000Y-97085000D02*
X136545000Y-97085000D01*
X136545000Y-97085000D02*
X136545000Y-97865000D01*
X136545000Y-97865000D02*
X136095000Y-97865000D01*
%TO.C,R34*%
X143180000Y-113560000D02*
X143180000Y-114340000D01*
X143180000Y-114340000D02*
X143630000Y-114340000D01*
X143630000Y-113560000D02*
X143180000Y-113560000D01*
X143970000Y-113560000D02*
X144420000Y-113560000D01*
X144420000Y-113560000D02*
X144420000Y-114340000D01*
X144420000Y-114340000D02*
X143970000Y-114340000D01*
D14*
%TO.C,P1*%
X148980000Y-87820000D02*
X148980000Y-85280000D01*
X150220000Y-87820000D02*
X148980000Y-87820000D01*
X158080000Y-83140000D02*
X150400000Y-83140000D01*
X158260000Y-87860000D02*
X159460000Y-87860000D01*
X159460000Y-87860000D02*
X159460000Y-85320000D01*
D11*
%TO.C,C20*%
X141315000Y-95700000D02*
X141315000Y-97200000D01*
X141465000Y-97350000D02*
X142875000Y-97350000D01*
X142875000Y-95550000D02*
X141465000Y-95550000D01*
X143675000Y-95550000D02*
X145085000Y-95550000D01*
X145085000Y-97350000D02*
X143675000Y-97350000D01*
X145235000Y-95700000D02*
X145235000Y-97200000D01*
X141315000Y-95700000D02*
G75*
G02*
X141465000Y-95550000I150000J0D01*
G01*
X141465000Y-97350000D02*
G75*
G02*
X141315000Y-97200000I0J150000D01*
G01*
X145085000Y-95550000D02*
G75*
G02*
X145235000Y-95700000I0J-150000D01*
G01*
X145235000Y-97200000D02*
G75*
G02*
X145085000Y-97350000I-150000J0D01*
G01*
%TO.C,R69*%
X161085000Y-99630000D02*
X161865000Y-99630000D01*
X161085000Y-100080000D02*
X161085000Y-99630000D01*
X161085000Y-100420000D02*
X161085000Y-100870000D01*
X161085000Y-100870000D02*
X161865000Y-100870000D01*
X161865000Y-99630000D02*
X161865000Y-100080000D01*
X161865000Y-100870000D02*
X161865000Y-100420000D01*
%TO.C,R40*%
X141680000Y-109585000D02*
X142130000Y-109585000D01*
X141680000Y-110365000D02*
X141680000Y-109585000D01*
X142130000Y-110365000D02*
X141680000Y-110365000D01*
X142470000Y-110365000D02*
X142920000Y-110365000D01*
X142920000Y-109585000D02*
X142470000Y-109585000D01*
X142920000Y-110365000D02*
X142920000Y-109585000D01*
%TO.C,R33*%
X151310000Y-88980000D02*
X151310000Y-89430000D01*
X151310000Y-90220000D02*
X151310000Y-89770000D01*
X152090000Y-88980000D02*
X151310000Y-88980000D01*
X152090000Y-89430000D02*
X152090000Y-88980000D01*
X152090000Y-89770000D02*
X152090000Y-90220000D01*
X152090000Y-90220000D02*
X151310000Y-90220000D01*
%TO.C,R1*%
X168980000Y-106110000D02*
X168980000Y-106890000D01*
X168980000Y-106890000D02*
X169430000Y-106890000D01*
X169430000Y-106110000D02*
X168980000Y-106110000D01*
X169770000Y-106110000D02*
X170220000Y-106110000D01*
X170220000Y-106110000D02*
X170220000Y-106890000D01*
X170220000Y-106890000D02*
X169770000Y-106890000D01*
D13*
%TO.C,Q7*%
X140450000Y-107000000D02*
X137450000Y-107000000D01*
X140450000Y-110000000D02*
X137450000Y-110000000D01*
X136950000Y-107000000D02*
G75*
G02*
X136750000Y-107000000I-100000J0D01*
G01*
X136750000Y-107000000D02*
G75*
G02*
X136950000Y-107000000I100000J0D01*
G01*
%TD*%
M02*
