%TF.GenerationSoftware,KiCad,Pcbnew,9.0.6*%
%TF.CreationDate,2025-12-26T21:42:16+01:00*%
%TF.ProjectId,esc,6573632e-6b69-4636-9164-5f7063625858,rev?*%
%TF.SameCoordinates,Original*%
%TF.FileFunction,Copper,L4,Bot*%
%TF.FilePolarity,Positive*%
%FSLAX46Y46*%
G04 Gerber Fmt 4.6, Leading zero omitted, Abs format (unit mm)*
G04 Created by KiCad (PCBNEW 9.0.6) date 2025-12-26 21:42:16*
%MOMM*%
%LPD*%
G01*
G04 APERTURE LIST*
G04 Aperture macros list*
%AMRoundRect*
0 Rectangle with rounded corners*
0 $1 Rounding radius*
0 $2 $3 $4 $5 $6 $7 $8 $9 X,Y pos of 4 corners*
0 Add a 4 corners polygon primitive as box body*
4,1,4,$2,$3,$4,$5,$6,$7,$8,$9,$2,$3,0*
0 Add four circle primitives for the rounded corners*
1,1,$1+$1,$2,$3*
1,1,$1+$1,$4,$5*
1,1,$1+$1,$6,$7*
1,1,$1+$1,$8,$9*
0 Add four rect primitives between the rounded corners*
20,1,$1+$1,$2,$3,$4,$5,0*
20,1,$1+$1,$4,$5,$6,$7,0*
20,1,$1+$1,$6,$7,$8,$9,0*
20,1,$1+$1,$8,$9,$2,$3,0*%
G04 Aperture macros list end*
%TA.AperFunction,SMDPad,CuDef*%
%ADD10R,2.100000X2.400000*%
%TD*%
%TA.AperFunction,SMDPad,CuDef*%
%ADD11R,0.800000X0.400000*%
%TD*%
%TA.AperFunction,SMDPad,CuDef*%
%ADD12R,2.000000X2.000000*%
%TD*%
%TA.AperFunction,SMDPad,CuDef*%
%ADD13R,0.860000X0.810000*%
%TD*%
%TA.AperFunction,SMDPad,CuDef*%
%ADD14RoundRect,0.140000X-0.140000X-0.170000X0.140000X-0.170000X0.140000X0.170000X-0.140000X0.170000X0*%
%TD*%
%TA.AperFunction,SMDPad,CuDef*%
%ADD15R,0.600000X0.500000*%
%TD*%
%TA.AperFunction,SMDPad,CuDef*%
%ADD16C,1.500000*%
%TD*%
%TA.AperFunction,SMDPad,CuDef*%
%ADD17R,0.300000X0.320000*%
%TD*%
%TA.AperFunction,SMDPad,CuDef*%
%ADD18R,0.370000X0.320000*%
%TD*%
%TA.AperFunction,SMDPad,CuDef*%
%ADD19R,0.320000X0.300000*%
%TD*%
%TA.AperFunction,SMDPad,CuDef*%
%ADD20R,0.200000X0.850000*%
%TD*%
%TA.AperFunction,SMDPad,CuDef*%
%ADD21R,0.850000X0.200000*%
%TD*%
%TA.AperFunction,SMDPad,CuDef*%
%ADD22R,2.400000X2.400000*%
%TD*%
%TA.AperFunction,SMDPad,CuDef*%
%ADD23R,0.500000X0.600000*%
%TD*%
%TA.AperFunction,SMDPad,CuDef*%
%ADD24RoundRect,0.250000X0.250000X0.475000X-0.250000X0.475000X-0.250000X-0.475000X0.250000X-0.475000X0*%
%TD*%
%TA.AperFunction,SMDPad,CuDef*%
%ADD25R,0.320000X0.370000*%
%TD*%
%TA.AperFunction,SMDPad,CuDef*%
%ADD26R,0.280000X0.660000*%
%TD*%
%TA.AperFunction,SMDPad,CuDef*%
%ADD27R,0.660000X0.280000*%
%TD*%
%TA.AperFunction,SMDPad,CuDef*%
%ADD28R,2.550000X2.550000*%
%TD*%
%TA.AperFunction,SMDPad,CuDef*%
%ADD29R,1.410000X1.350000*%
%TD*%
%TA.AperFunction,SMDPad,CuDef*%
%ADD30R,2.530000X3.670000*%
%TD*%
%TA.AperFunction,SMDPad,CuDef*%
%ADD31RoundRect,0.225000X0.225000X0.250000X-0.225000X0.250000X-0.225000X-0.250000X0.225000X-0.250000X0*%
%TD*%
%TA.AperFunction,SMDPad,CuDef*%
%ADD32RoundRect,0.140000X-0.170000X0.140000X-0.170000X-0.140000X0.170000X-0.140000X0.170000X0.140000X0*%
%TD*%
%TA.AperFunction,SMDPad,CuDef*%
%ADD33R,1.100000X0.600000*%
%TD*%
%TA.AperFunction,SMDPad,CuDef*%
%ADD34R,0.600000X0.420000*%
%TD*%
%TA.AperFunction,ViaPad*%
%ADD35C,0.400000*%
%TD*%
%TA.AperFunction,ViaPad*%
%ADD36C,6.000000*%
%TD*%
%TA.AperFunction,ViaPad*%
%ADD37C,0.600000*%
%TD*%
%TA.AperFunction,Conductor*%
%ADD38C,0.125000*%
%TD*%
%TA.AperFunction,Conductor*%
%ADD39C,0.250000*%
%TD*%
%TA.AperFunction,Conductor*%
%ADD40C,0.500000*%
%TD*%
%TA.AperFunction,Conductor*%
%ADD41C,0.200000*%
%TD*%
G04 APERTURE END LIST*
D10*
%TO.P,Q8,9,EP*%
%TO.N,/ESC2/ESC2_B*%
X138600000Y-108500000D03*
D11*
%TO.P,Q8,8,D*%
X137450000Y-107520000D03*
%TO.P,Q8,7,D*%
X137450000Y-108170000D03*
%TO.P,Q8,6,D*%
X137450000Y-108830000D03*
%TO.P,Q8,5,D*%
X137450000Y-109480000D03*
%TO.P,Q8,4,G*%
%TO.N,Net-(Q8-G)*%
X140450000Y-109480000D03*
%TO.P,Q8,3,S*%
%TO.N,/GND*%
X140450000Y-108830000D03*
%TO.P,Q8,2,S*%
X140450000Y-108180000D03*
%TO.P,Q8,1,S*%
X140450000Y-107520000D03*
%TD*%
D12*
%TO.P,U6,1,1*%
%TO.N,/ESC2/ESC2_B*%
X135700000Y-108500000D03*
%TD*%
D10*
%TO.P,Q12,9,EP*%
%TO.N,/ESC2/ESC2_C*%
X138600000Y-104500000D03*
D11*
%TO.P,Q12,8,D*%
X137450000Y-103520000D03*
%TO.P,Q12,7,D*%
X137450000Y-104170000D03*
%TO.P,Q12,6,D*%
X137450000Y-104830000D03*
%TO.P,Q12,5,D*%
X137450000Y-105480000D03*
%TO.P,Q12,4,G*%
%TO.N,Net-(Q12-G)*%
X140450000Y-105480000D03*
%TO.P,Q12,3,S*%
%TO.N,/GND*%
X140450000Y-104830000D03*
%TO.P,Q12,2,S*%
X140450000Y-104180000D03*
%TO.P,Q12,1,S*%
X140450000Y-103520000D03*
%TD*%
D12*
%TO.P,U10,1,1*%
%TO.N,/ESC2/ESC2_C*%
X135700000Y-104500000D03*
%TD*%
D13*
%TO.P,R88,2*%
%TO.N,/GND*%
X159200000Y-118550000D03*
%TO.P,R88,1*%
%TO.N,Net-(U21-FB)*%
X159200000Y-117050000D03*
%TD*%
D14*
%TO.P,C37,1*%
%TO.N,Net-(U21-BST)*%
X161400000Y-120500000D03*
%TO.P,C37,2*%
%TO.N,Net-(U21-SW)*%
X162400000Y-120500000D03*
%TD*%
D15*
%TO.P,D8,1,K*%
%TO.N,Net-(D8-K)*%
X148950000Y-90300000D03*
%TO.P,D8,2,A*%
%TO.N,/+8V*%
X148950000Y-89500000D03*
%TD*%
D16*
%TO.P,SWD3,1,1*%
%TO.N,/ESC3/SWDIO*%
X165125000Y-84400000D03*
%TD*%
D17*
%TO.P,R19,1,1*%
%TO.N,Net-(Q4-G)*%
X165440000Y-110900000D03*
%TO.P,R19,2,2*%
%TO.N,/ESC1/L02*%
X164960000Y-110900000D03*
%TD*%
D18*
%TO.P,C26,1,1*%
%TO.N,Net-(D8-K)*%
X137105000Y-98500000D03*
%TO.P,C26,2,2*%
%TO.N,/ESC3/ESC2_B*%
X137645000Y-98500000D03*
%TD*%
D19*
%TO.P,R8,1,1*%
%TO.N,Net-(U3-PA4)*%
X156600000Y-109660000D03*
%TO.P,R8,2,2*%
%TO.N,Net-(U3-PA1)*%
X156600000Y-110140000D03*
%TD*%
D20*
%TO.P,U11,1,BOOT0*%
%TO.N,Net-(U11-BOOT0)*%
X152400000Y-101500000D03*
%TO.P,U11,2,PF0/OSC_IN/*%
%TO.N,unconnected-(U11-PF0{slash}OSC_IN{slash}-Pad2)*%
X152000000Y-101500000D03*
%TO.P,U11,3,PF1/OSC_OUT*%
%TO.N,unconnected-(U11-PF1{slash}OSC_OUT-Pad3)*%
X151600000Y-101500000D03*
%TO.P,U11,4,NRST*%
%TO.N,Net-(U11-NRST)*%
X151200000Y-101500000D03*
%TO.P,U11,5,VDDA*%
%TO.N,/3V3*%
X150800000Y-101500000D03*
%TO.P,U11,6,PA0*%
%TO.N,Net-(U11-PA0)*%
X150400000Y-101500000D03*
%TO.P,U11,7,PA1*%
%TO.N,Net-(U11-PA1)*%
X150000000Y-101500000D03*
D21*
%TO.P,U11,8,PA2*%
%TO.N,Net-(U11-PA2)*%
X149200000Y-100700000D03*
%TO.P,U11,9,PA3*%
%TO.N,unconnected-(U11-PA3-Pad9)*%
X149200000Y-100300000D03*
%TO.P,U11,10,PA4*%
%TO.N,Net-(U11-PA4)*%
X149200000Y-99900000D03*
%TO.P,U11,11,PA5*%
%TO.N,Net-(U11-PA5)*%
X149200000Y-99500000D03*
%TO.P,U11,12,PA6*%
%TO.N,unconnected-(U11-PA6-Pad12)*%
X149200000Y-99100000D03*
%TO.P,U11,13,PA7*%
%TO.N,/ESC3/LI3*%
X149200000Y-98700000D03*
%TO.P,U11,14,PB0*%
%TO.N,/ESC3/LI2*%
X149200000Y-98300000D03*
D20*
%TO.P,U11,15,PB1*%
%TO.N,/ESC3/LI1*%
X150000000Y-97500000D03*
%TO.P,U11,16,VSS*%
%TO.N,/GND*%
X150400000Y-97500000D03*
%TO.P,U11,17,VDD*%
%TO.N,/3V3*%
X150800000Y-97500000D03*
%TO.P,U11,18,PA8*%
%TO.N,/ESC3/HI3*%
X151200000Y-97500000D03*
%TO.P,U11,19,PA9*%
%TO.N,/ESC3/HI2*%
X151600000Y-97500000D03*
%TO.P,U11,20,PA10*%
%TO.N,/ESC3/HI1*%
X152000000Y-97500000D03*
%TO.P,U11,21,PA13*%
%TO.N,/ESC3/SWDIO*%
X152400000Y-97500000D03*
D21*
%TO.P,U11,22,PA14*%
%TO.N,/ESC3/SWCLK*%
X153200000Y-98300000D03*
%TO.P,U11,23,PA15*%
%TO.N,unconnected-(U11-PA15-Pad23)*%
X153200000Y-98700000D03*
%TO.P,U11,24,PB3*%
%TO.N,unconnected-(U11-PB3-Pad24)*%
X153200000Y-99100000D03*
%TO.P,U11,25,PB4*%
%TO.N,unconnected-(U11-PB4-Pad25)*%
X153200000Y-99500000D03*
%TO.P,U11,26,PB5*%
%TO.N,unconnected-(U11-PB5-Pad26)*%
X153200000Y-99900000D03*
%TO.P,U11,27,PB6*%
%TO.N,unconnected-(U11-PB6-Pad27)*%
X153200000Y-100300000D03*
%TO.P,U11,28,PB7*%
%TO.N,unconnected-(U11-PB7-Pad28)*%
X153200000Y-100700000D03*
D22*
%TO.P,U11,29,GPAD*%
%TO.N,/GND*%
X151200000Y-99500000D03*
%TD*%
D18*
%TO.P,C18,1,1*%
%TO.N,Net-(D6-K)*%
X137405000Y-106500000D03*
%TO.P,C18,2,2*%
%TO.N,/ESC2/ESC2_C*%
X137945000Y-106500000D03*
%TD*%
D19*
%TO.P,R11,1,1*%
%TO.N,/3V3*%
X155100000Y-105740000D03*
%TO.P,R11,2,2*%
%TO.N,Net-(U3-NRST)*%
X155100000Y-105260000D03*
%TD*%
D23*
%TO.P,D6,1,K*%
%TO.N,Net-(D6-K)*%
X143125000Y-109275000D03*
%TO.P,D6,2,A*%
%TO.N,/+8V*%
X142325000Y-109275000D03*
%TD*%
D24*
%TO.P,C50,1*%
%TO.N,/VIN*%
X148650000Y-118500000D03*
%TO.P,C50,2*%
%TO.N,/GND*%
X146750000Y-118500000D03*
%TD*%
D11*
%TO.P,Q23,1,S*%
%TO.N,/ESC4/ESC2_C*%
X170950000Y-91520000D03*
%TO.P,Q23,2,S*%
X170950000Y-92180000D03*
%TO.P,Q23,3,S*%
X170950000Y-92830000D03*
%TO.P,Q23,4,G*%
%TO.N,Net-(Q23-G)*%
X170950000Y-93480000D03*
%TO.P,Q23,5,D*%
%TO.N,/VIN*%
X167950000Y-93480000D03*
%TO.P,Q23,6,D*%
X167950000Y-92830000D03*
%TO.P,Q23,7,D*%
X167950000Y-92170000D03*
%TO.P,Q23,8,D*%
X167950000Y-91520000D03*
D10*
%TO.P,Q23,9,EP*%
X169100000Y-92500000D03*
%TD*%
D25*
%TO.P,C14,1,1*%
%TO.N,/+8V*%
X149075000Y-108955000D03*
%TO.P,C14,2,2*%
%TO.N,/GND*%
X149075000Y-109495000D03*
%TD*%
D26*
%TO.P,U12,1,LIN1*%
%TO.N,/ESC3/LI1*%
X149450000Y-96410000D03*
%TO.P,U12,2,LIN2*%
%TO.N,/ESC3/LI2*%
X148950000Y-96410000D03*
%TO.P,U12,3,LIN3*%
%TO.N,/ESC3/LI3*%
X148450000Y-96410000D03*
%TO.P,U12,4,VCC*%
%TO.N,/+8V*%
X147950000Y-96410000D03*
%TO.P,U12,5,NC*%
%TO.N,unconnected-(U12-NC-Pad5)*%
X147450000Y-96410000D03*
%TO.P,U12,6,COM*%
%TO.N,/GND*%
X146950000Y-96410000D03*
D27*
%TO.P,U12,7,NC*%
%TO.N,unconnected-(U12-NC-Pad7)*%
X146290000Y-95750000D03*
%TO.P,U12,8,NC*%
%TO.N,unconnected-(U12-NC-Pad8)*%
X146290000Y-95250000D03*
%TO.P,U12,9,LO3*%
%TO.N,/ESC3/L03*%
X146290000Y-94750000D03*
%TO.P,U12,10,LO2*%
%TO.N,/ESC3/L02*%
X146290000Y-94250000D03*
%TO.P,U12,11,LO1*%
%TO.N,/ESC3/L01*%
X146290000Y-93750000D03*
%TO.P,U12,12,VS3*%
%TO.N,/ESC3/ESC2_C*%
X146290000Y-93250000D03*
D26*
%TO.P,U12,13,HO3*%
%TO.N,/ESC3/H03*%
X146950000Y-92590000D03*
%TO.P,U12,14,VB3*%
%TO.N,Net-(D9-K)*%
X147450000Y-92590000D03*
%TO.P,U12,15,VS2*%
%TO.N,/ESC3/ESC2_B*%
X147950000Y-92590000D03*
%TO.P,U12,16,HO2*%
%TO.N,/ESC3/H02*%
X148450000Y-92590000D03*
%TO.P,U12,17,VB2*%
%TO.N,Net-(D8-K)*%
X148950000Y-92590000D03*
%TO.P,U12,18,VS1*%
%TO.N,/ESC3/ESC2_A*%
X149450000Y-92590000D03*
D27*
%TO.P,U12,19,HO1*%
%TO.N,/ESC3/H01*%
X150110000Y-93250000D03*
%TO.P,U12,20,VB1*%
%TO.N,Net-(D7-K)*%
X150110000Y-93750000D03*
%TO.P,U12,21,NC*%
%TO.N,unconnected-(U12-NC-Pad21)*%
X150110000Y-94250000D03*
%TO.P,U12,22,HIN1*%
%TO.N,/ESC3/HI1*%
X150110000Y-94750000D03*
%TO.P,U12,23,HIN2*%
%TO.N,/ESC3/HI2*%
X150110000Y-95250000D03*
%TO.P,U12,24,HIN3*%
%TO.N,/ESC3/HI3*%
X150110000Y-95750000D03*
D28*
%TO.P,U12,25,EP*%
%TO.N,/GND*%
X148200000Y-94500000D03*
%TD*%
D18*
%TO.P,C17,1,1*%
%TO.N,Net-(D5-K)*%
X137505000Y-110525000D03*
%TO.P,C17,2,2*%
%TO.N,/ESC2/ESC2_B*%
X138045000Y-110525000D03*
%TD*%
D17*
%TO.P,R80,1,1*%
%TO.N,Net-(Q19-G)*%
X171910000Y-97475000D03*
%TO.P,R80,2,2*%
%TO.N,/ESC4/H02*%
X172390000Y-97475000D03*
%TD*%
D11*
%TO.P,Q3,1,S*%
%TO.N,/ESC1/ESC2_B*%
X170950000Y-107520000D03*
%TO.P,Q3,2,S*%
X170950000Y-108180000D03*
%TO.P,Q3,3,S*%
X170950000Y-108830000D03*
%TO.P,Q3,4,G*%
%TO.N,Net-(Q3-G)*%
X170950000Y-109480000D03*
%TO.P,Q3,5,D*%
%TO.N,/VIN*%
X167950000Y-109480000D03*
%TO.P,Q3,6,D*%
X167950000Y-108830000D03*
%TO.P,Q3,7,D*%
X167950000Y-108170000D03*
%TO.P,Q3,8,D*%
X167950000Y-107520000D03*
D10*
%TO.P,Q3,9,EP*%
X169100000Y-108500000D03*
%TD*%
D12*
%TO.P,U13,1,1*%
%TO.N,/ESC3/ESC2_A*%
X135700000Y-100500000D03*
%TD*%
D17*
%TO.P,R76,1,1*%
%TO.N,/GND*%
X164885000Y-99150000D03*
%TO.P,R76,2,2*%
%TO.N,Net-(Q22-G)*%
X165365000Y-99150000D03*
%TD*%
D19*
%TO.P,R46,1,1*%
%TO.N,Net-(U11-PA0)*%
X141750000Y-102735000D03*
%TO.P,R46,2,2*%
%TO.N,/GND*%
X141750000Y-103215000D03*
%TD*%
D29*
%TO.P,C29,1,1*%
%TO.N,/GND*%
X164200000Y-92500000D03*
%TO.P,C29,2,2*%
%TO.N,/VIN*%
X166200000Y-92500000D03*
%TD*%
D17*
%TO.P,R15,1,1*%
%TO.N,/GND*%
X165120000Y-105800000D03*
%TO.P,R15,2,2*%
%TO.N,Net-(Q6-G)*%
X165600000Y-105800000D03*
%TD*%
D11*
%TO.P,Q10,1,S*%
%TO.N,/GND*%
X140450000Y-111520000D03*
%TO.P,Q10,2,S*%
X140450000Y-112180000D03*
%TO.P,Q10,3,S*%
X140450000Y-112830000D03*
%TO.P,Q10,4,G*%
%TO.N,Net-(Q10-G)*%
X140450000Y-113480000D03*
%TO.P,Q10,5,D*%
%TO.N,/ESC2/ESC2_A*%
X137450000Y-113480000D03*
%TO.P,Q10,6,D*%
X137450000Y-112830000D03*
%TO.P,Q10,7,D*%
X137450000Y-112170000D03*
%TO.P,Q10,8,D*%
X137450000Y-111520000D03*
D10*
%TO.P,Q10,9,EP*%
X138600000Y-112500000D03*
%TD*%
D30*
%TO.P,R240,1,1*%
%TO.N,/VBAT*%
X156670000Y-118200000D03*
%TO.P,R240,2,2*%
%TO.N,/VIN*%
X151330000Y-118200000D03*
%TD*%
D11*
%TO.P,Q18,1,S*%
%TO.N,/GND*%
X140450000Y-91520000D03*
%TO.P,Q18,2,S*%
X140450000Y-92180000D03*
%TO.P,Q18,3,S*%
X140450000Y-92830000D03*
%TO.P,Q18,4,G*%
%TO.N,Net-(Q18-G)*%
X140450000Y-93480000D03*
%TO.P,Q18,5,D*%
%TO.N,/ESC3/ESC2_C*%
X137450000Y-93480000D03*
%TO.P,Q18,6,D*%
X137450000Y-92830000D03*
%TO.P,Q18,7,D*%
X137450000Y-92170000D03*
%TO.P,Q18,8,D*%
X137450000Y-91520000D03*
D10*
%TO.P,Q18,9,EP*%
X138600000Y-92500000D03*
%TD*%
D27*
%TO.P,U2,1,LIN1*%
%TO.N,/ESC2/LI1*%
X148110000Y-107250000D03*
%TO.P,U2,2,LIN2*%
%TO.N,/ESC2/LI2*%
X148110000Y-107750000D03*
%TO.P,U2,3,LIN3*%
%TO.N,/ESC2/LI3*%
X148110000Y-108250000D03*
%TO.P,U2,4,VCC*%
%TO.N,/+8V*%
X148110000Y-108750000D03*
%TO.P,U2,5,NC*%
%TO.N,unconnected-(U2-NC-Pad5)*%
X148110000Y-109250000D03*
%TO.P,U2,6,COM*%
%TO.N,/GND*%
X148110000Y-109750000D03*
D26*
%TO.P,U2,7,NC*%
%TO.N,unconnected-(U2-NC-Pad7)*%
X147450000Y-110410000D03*
%TO.P,U2,8,NC*%
%TO.N,unconnected-(U2-NC-Pad8)*%
X146950000Y-110410000D03*
%TO.P,U2,9,LO3*%
%TO.N,/ESC2/L03*%
X146450000Y-110410000D03*
%TO.P,U2,10,LO2*%
%TO.N,/ESC2/L02*%
X145950000Y-110410000D03*
%TO.P,U2,11,LO1*%
%TO.N,/ESC2/L01*%
X145450000Y-110410000D03*
%TO.P,U2,12,VS3*%
%TO.N,/ESC2/ESC2_C*%
X144950000Y-110410000D03*
D27*
%TO.P,U2,13,HO3*%
%TO.N,/ESC2/H03*%
X144290000Y-109750000D03*
%TO.P,U2,14,VB3*%
%TO.N,Net-(D6-K)*%
X144290000Y-109250000D03*
%TO.P,U2,15,VS2*%
%TO.N,/ESC2/ESC2_B*%
X144290000Y-108750000D03*
%TO.P,U2,16,HO2*%
%TO.N,/ESC2/H02*%
X144290000Y-108250000D03*
%TO.P,U2,17,VB2*%
%TO.N,Net-(D5-K)*%
X144290000Y-107750000D03*
%TO.P,U2,18,VS1*%
%TO.N,/ESC2/ESC2_A*%
X144290000Y-107250000D03*
D26*
%TO.P,U2,19,HO1*%
%TO.N,/ESC2/H01*%
X144950000Y-106590000D03*
%TO.P,U2,20,VB1*%
%TO.N,Net-(D4-K)*%
X145450000Y-106590000D03*
%TO.P,U2,21,NC*%
%TO.N,unconnected-(U2-NC-Pad21)*%
X145950000Y-106590000D03*
%TO.P,U2,22,HIN1*%
%TO.N,/ESC2/HI1*%
X146450000Y-106590000D03*
%TO.P,U2,23,HIN2*%
%TO.N,/ESC2/HI2*%
X146950000Y-106590000D03*
%TO.P,U2,24,HIN3*%
%TO.N,/ESC2/HI3*%
X147450000Y-106590000D03*
D28*
%TO.P,U2,25,EP*%
%TO.N,/GND*%
X146200000Y-108500000D03*
%TD*%
D19*
%TO.P,R73,1,1*%
%TO.N,/GND*%
X156050000Y-99835000D03*
%TO.P,R73,2,2*%
%TO.N,Net-(U16-BOOT0)*%
X156050000Y-100315000D03*
%TD*%
D29*
%TO.P,C1,1,1*%
%TO.N,/GND*%
X164300000Y-104400000D03*
%TO.P,C1,2,2*%
%TO.N,/VIN*%
X166300000Y-104400000D03*
%TD*%
D11*
%TO.P,Q19,1,S*%
%TO.N,/ESC4/ESC2_B*%
X170950000Y-95520000D03*
%TO.P,Q19,2,S*%
X170950000Y-96180000D03*
%TO.P,Q19,3,S*%
X170950000Y-96830000D03*
%TO.P,Q19,4,G*%
%TO.N,Net-(Q19-G)*%
X170950000Y-97480000D03*
%TO.P,Q19,5,D*%
%TO.N,/VIN*%
X167950000Y-97480000D03*
%TO.P,Q19,6,D*%
X167950000Y-96830000D03*
%TO.P,Q19,7,D*%
X167950000Y-96170000D03*
%TO.P,Q19,8,D*%
X167950000Y-95520000D03*
D10*
%TO.P,Q19,9,EP*%
X169100000Y-96500000D03*
%TD*%
D17*
%TO.P,R20,1,1*%
%TO.N,Net-(Q5-G)*%
X172060000Y-105400000D03*
%TO.P,R20,2,2*%
%TO.N,/ESC1/H03*%
X172540000Y-105400000D03*
%TD*%
D19*
%TO.P,R48,1,1*%
%TO.N,Net-(U11-PA4)*%
X147000000Y-99960000D03*
%TO.P,R48,2,2*%
%TO.N,/GND*%
X147000000Y-100440000D03*
%TD*%
D11*
%TO.P,Q1,1,S*%
%TO.N,/ESC1/ESC2_A*%
X170950000Y-111520000D03*
%TO.P,Q1,2,S*%
X170950000Y-112180000D03*
%TO.P,Q1,3,S*%
X170950000Y-112830000D03*
%TO.P,Q1,4,G*%
%TO.N,Net-(Q1-G)*%
X170950000Y-113480000D03*
%TO.P,Q1,5,D*%
%TO.N,/VIN*%
X167950000Y-113480000D03*
%TO.P,Q1,6,D*%
X167950000Y-112830000D03*
%TO.P,Q1,7,D*%
X167950000Y-112170000D03*
%TO.P,Q1,8,D*%
X167950000Y-111520000D03*
D10*
%TO.P,Q1,9,EP*%
X169100000Y-112500000D03*
%TD*%
D18*
%TO.P,C31,1,1*%
%TO.N,/3V3*%
X155255000Y-98800000D03*
%TO.P,C31,2,2*%
%TO.N,/GND*%
X155795000Y-98800000D03*
%TD*%
D17*
%TO.P,R16,1,1*%
%TO.N,Net-(Q1-G)*%
X172060000Y-113500000D03*
%TO.P,R16,2,2*%
%TO.N,/ESC1/H01*%
X172540000Y-113500000D03*
%TD*%
D31*
%TO.P,C38,1*%
%TO.N,/+8V*%
X157980000Y-114800000D03*
%TO.P,C38,2*%
%TO.N,/GND*%
X156420000Y-114800000D03*
%TD*%
D11*
%TO.P,Q14,1,S*%
%TO.N,/GND*%
X140450000Y-95520000D03*
%TO.P,Q14,2,S*%
X140450000Y-96180000D03*
%TO.P,Q14,3,S*%
X140450000Y-96830000D03*
%TO.P,Q14,4,G*%
%TO.N,Net-(Q14-G)*%
X140450000Y-97480000D03*
%TO.P,Q14,5,D*%
%TO.N,/ESC3/ESC2_B*%
X137450000Y-97480000D03*
%TO.P,Q14,6,D*%
X137450000Y-96830000D03*
%TO.P,Q14,7,D*%
X137450000Y-96170000D03*
%TO.P,Q14,8,D*%
X137450000Y-95520000D03*
D10*
%TO.P,Q14,9,EP*%
X138600000Y-96500000D03*
%TD*%
D19*
%TO.P,R74,1,1*%
%TO.N,/3V3*%
X155075000Y-99810000D03*
%TO.P,R74,2,2*%
%TO.N,Net-(U16-NRST)*%
X155075000Y-100290000D03*
%TD*%
%TO.P,R47,1,1*%
%TO.N,Net-(U11-PA5)*%
X145975000Y-98040000D03*
%TO.P,R47,2,2*%
%TO.N,/GND*%
X145975000Y-97560000D03*
%TD*%
D17*
%TO.P,R3,1,1*%
%TO.N,/ESC1/ESC2_A*%
X160240000Y-111500000D03*
%TO.P,R3,2,2*%
%TO.N,Net-(U3-PA0)*%
X159760000Y-111500000D03*
%TD*%
D19*
%TO.P,R49,1,1*%
%TO.N,Net-(U11-PA5)*%
X147675000Y-98110000D03*
%TO.P,R49,2,2*%
%TO.N,Net-(U11-PA1)*%
X147675000Y-98590000D03*
%TD*%
D25*
%TO.P,C15,1,1*%
%TO.N,/3V3*%
X148200000Y-105930000D03*
%TO.P,C15,2,2*%
%TO.N,/GND*%
X148200000Y-106470000D03*
%TD*%
D17*
%TO.P,R23,1,1*%
%TO.N,/ESC2/ESC2_B*%
X139235000Y-110525000D03*
%TO.P,R23,2,2*%
%TO.N,Net-(U1-PA4)*%
X139715000Y-110525000D03*
%TD*%
D18*
%TO.P,C16,1,1*%
%TO.N,Net-(D4-K)*%
X145420000Y-104875000D03*
%TO.P,C16,2,2*%
%TO.N,/ESC2/ESC2_A*%
X144880000Y-104875000D03*
%TD*%
D11*
%TO.P,Q16,1,S*%
%TO.N,/GND*%
X140450000Y-99520000D03*
%TO.P,Q16,2,S*%
X140450000Y-100180000D03*
%TO.P,Q16,3,S*%
X140450000Y-100830000D03*
%TO.P,Q16,4,G*%
%TO.N,Net-(Q16-G)*%
X140450000Y-101480000D03*
%TO.P,Q16,5,D*%
%TO.N,/ESC3/ESC2_A*%
X137450000Y-101480000D03*
%TO.P,Q16,6,D*%
X137450000Y-100830000D03*
%TO.P,Q16,7,D*%
X137450000Y-100170000D03*
%TO.P,Q16,8,D*%
X137450000Y-99520000D03*
D10*
%TO.P,Q16,9,EP*%
X138600000Y-100500000D03*
%TD*%
D17*
%TO.P,R81,1,1*%
%TO.N,Net-(Q22-G)*%
X165415000Y-102050000D03*
%TO.P,R81,2,2*%
%TO.N,/ESC4/L01*%
X164935000Y-102050000D03*
%TD*%
D19*
%TO.P,R7,1,1*%
%TO.N,Net-(U3-PA5)*%
X159100000Y-105760000D03*
%TO.P,R7,2,2*%
%TO.N,Net-(U3-PA1)*%
X159100000Y-106240000D03*
%TD*%
D23*
%TO.P,D5,1,K*%
%TO.N,Net-(D5-K)*%
X143325000Y-107550000D03*
%TO.P,D5,2,A*%
%TO.N,/+8V*%
X142525000Y-107550000D03*
%TD*%
D29*
%TO.P,C3,1,1*%
%TO.N,/GND*%
X164200000Y-108400000D03*
%TO.P,C3,2,2*%
%TO.N,/VIN*%
X166200000Y-108400000D03*
%TD*%
D18*
%TO.P,C4,1,1*%
%TO.N,/3V3*%
X156080000Y-105300000D03*
%TO.P,C4,2,2*%
%TO.N,/GND*%
X156620000Y-105300000D03*
%TD*%
D19*
%TO.P,R30,1,1*%
%TO.N,Net-(U1-PA0)*%
X151775000Y-111290000D03*
%TO.P,R30,2,2*%
%TO.N,Net-(U1-PA1)*%
X151775000Y-110810000D03*
%TD*%
D17*
%TO.P,R79,1,1*%
%TO.N,Net-(Q21-G)*%
X172010000Y-101425000D03*
%TO.P,R79,2,2*%
%TO.N,/ESC4/H01*%
X172490000Y-101425000D03*
%TD*%
%TO.P,R84,1,1*%
%TO.N,Net-(Q23-G)*%
X172095000Y-93475000D03*
%TO.P,R84,2,2*%
%TO.N,/ESC4/H03*%
X172575000Y-93475000D03*
%TD*%
D29*
%TO.P,C2,1,1*%
%TO.N,/GND*%
X164200000Y-112500000D03*
%TO.P,C2,2,2*%
%TO.N,/VIN*%
X166200000Y-112500000D03*
%TD*%
D18*
%TO.P,C27,1,1*%
%TO.N,Net-(D9-K)*%
X137505000Y-94475000D03*
%TO.P,C27,2,2*%
%TO.N,/ESC3/ESC2_C*%
X138045000Y-94475000D03*
%TD*%
D19*
%TO.P,R4,1,1*%
%TO.N,Net-(U3-PA0)*%
X156100000Y-106740000D03*
%TO.P,R4,2,2*%
%TO.N,/GND*%
X156100000Y-106260000D03*
%TD*%
%TO.P,R9,1,1*%
%TO.N,Net-(U3-PA0)*%
X157300000Y-111340000D03*
%TO.P,R9,2,2*%
%TO.N,Net-(U3-PA1)*%
X157300000Y-110860000D03*
%TD*%
%TO.P,R18,1,1*%
%TO.N,Net-(Q3-G)*%
X172200000Y-109340000D03*
%TO.P,R18,2,2*%
%TO.N,/ESC1/H02*%
X172200000Y-108860000D03*
%TD*%
D17*
%TO.P,R21,1,1*%
%TO.N,Net-(Q6-G)*%
X166980000Y-105800000D03*
%TO.P,R21,2,2*%
%TO.N,/ESC1/L03*%
X166500000Y-105800000D03*
%TD*%
D29*
%TO.P,C28,1,1*%
%TO.N,/GND*%
X164125000Y-96500000D03*
%TO.P,C28,2,2*%
%TO.N,/VIN*%
X166125000Y-96500000D03*
%TD*%
D17*
%TO.P,R17,1,1*%
%TO.N,Net-(Q2-G)*%
X165240000Y-114900000D03*
%TO.P,R17,2,2*%
%TO.N,/ESC1/L01*%
X164760000Y-114900000D03*
%TD*%
D11*
%TO.P,Q21,1,S*%
%TO.N,/ESC4/ESC2_A*%
X170950000Y-99520000D03*
%TO.P,Q21,2,S*%
X170950000Y-100180000D03*
%TO.P,Q21,3,S*%
X170950000Y-100830000D03*
%TO.P,Q21,4,G*%
%TO.N,Net-(Q21-G)*%
X170950000Y-101480000D03*
%TO.P,Q21,5,D*%
%TO.N,/VIN*%
X167950000Y-101480000D03*
%TO.P,Q21,6,D*%
X167950000Y-100830000D03*
%TO.P,Q21,7,D*%
X167950000Y-100170000D03*
%TO.P,Q21,8,D*%
X167950000Y-99520000D03*
D10*
%TO.P,Q21,9,EP*%
X169100000Y-100500000D03*
%TD*%
D32*
%TO.P,R86,1*%
%TO.N,/+8V*%
X159200000Y-114800000D03*
%TO.P,R86,2*%
%TO.N,Net-(U21-FB)*%
X159200000Y-115800000D03*
%TD*%
D19*
%TO.P,R29,1,1*%
%TO.N,Net-(U1-PA4)*%
X152675000Y-109385000D03*
%TO.P,R29,2,2*%
%TO.N,Net-(U1-PA1)*%
X152675000Y-109865000D03*
%TD*%
D18*
%TO.P,C25,1,1*%
%TO.N,Net-(D7-K)*%
X137355000Y-102500000D03*
%TO.P,C25,2,2*%
%TO.N,/ESC3/ESC2_A*%
X137895000Y-102500000D03*
%TD*%
D19*
%TO.P,R6,1,1*%
%TO.N,Net-(U3-PA4)*%
X157000000Y-106740000D03*
%TO.P,R6,2,2*%
%TO.N,/GND*%
X157000000Y-106260000D03*
%TD*%
D17*
%TO.P,R77,1,1*%
%TO.N,/GND*%
X164860000Y-97925000D03*
%TO.P,R77,2,2*%
%TO.N,Net-(Q20-G)*%
X165340000Y-97925000D03*
%TD*%
D32*
%TO.P,R85,1*%
%TO.N,Net-(U21-EN)*%
X164600000Y-117100000D03*
%TO.P,R85,2*%
%TO.N,/VIN*%
X164600000Y-118100000D03*
%TD*%
D17*
%TO.P,R43,1,1*%
%TO.N,/ESC3/ESC2_C*%
X139260000Y-94500000D03*
%TO.P,R43,2,2*%
%TO.N,Net-(U11-PA5)*%
X139740000Y-94500000D03*
%TD*%
D29*
%TO.P,C30,1,1*%
%TO.N,/GND*%
X164200000Y-100575000D03*
%TO.P,C30,2,2*%
%TO.N,/VIN*%
X166200000Y-100575000D03*
%TD*%
D17*
%TO.P,R78,1,1*%
%TO.N,/GND*%
X164985000Y-91025000D03*
%TO.P,R78,2,2*%
%TO.N,Net-(Q24-G)*%
X165465000Y-91025000D03*
%TD*%
D16*
%TO.P,SWC1,1,1*%
%TO.N,/ESC1/SWCLK*%
X146225000Y-86550000D03*
%TD*%
D17*
%TO.P,R82,1,1*%
%TO.N,Net-(Q20-G)*%
X165415000Y-95000000D03*
%TO.P,R82,2,2*%
%TO.N,/ESC4/L02*%
X164935000Y-95000000D03*
%TD*%
D16*
%TO.P,SWC3,1,1*%
%TO.N,/ESC3/SWCLK*%
X161800000Y-87275000D03*
%TD*%
D15*
%TO.P,D7,1,K*%
%TO.N,Net-(D7-K)*%
X152075000Y-93950000D03*
%TO.P,D7,2,A*%
%TO.N,/+8V*%
X152075000Y-93150000D03*
%TD*%
D19*
%TO.P,R5,1,1*%
%TO.N,Net-(U3-PA5)*%
X157800000Y-106740000D03*
%TO.P,R5,2,2*%
%TO.N,/GND*%
X157800000Y-106260000D03*
%TD*%
D17*
%TO.P,R83,1,1*%
%TO.N,Net-(Q24-G)*%
X165390000Y-93975000D03*
%TO.P,R83,2,2*%
%TO.N,/ESC4/L03*%
X164910000Y-93975000D03*
%TD*%
D33*
%TO.P,U21,1,BST*%
%TO.N,Net-(U21-BST)*%
X160550000Y-119050000D03*
%TO.P,U21,2,GND*%
%TO.N,/GND*%
X160550000Y-118100000D03*
%TO.P,U21,3,FB*%
%TO.N,Net-(U21-FB)*%
X160550000Y-117150000D03*
%TO.P,U21,4,EN*%
%TO.N,Net-(U21-EN)*%
X163250000Y-117150000D03*
%TO.P,U21,5,VIN*%
%TO.N,/VIN*%
X163250000Y-118100000D03*
%TO.P,U21,6,SW*%
%TO.N,Net-(U21-SW)*%
X163250000Y-119050000D03*
%TD*%
D21*
%TO.P,U1,1,BOOT0*%
%TO.N,Net-(U1-BOOT0)*%
X153200000Y-104300000D03*
%TO.P,U1,2,PF0/OSC_IN/*%
%TO.N,unconnected-(U1-PF0{slash}OSC_IN{slash}-Pad2)*%
X153200000Y-104700000D03*
%TO.P,U1,3,PF1/OSC_OUT*%
%TO.N,unconnected-(U1-PF1{slash}OSC_OUT-Pad3)*%
X153200000Y-105100000D03*
%TO.P,U1,4,NRST*%
%TO.N,Net-(U1-NRST)*%
X153200000Y-105500000D03*
%TO.P,U1,5,VDDA*%
%TO.N,/3V3*%
X153200000Y-105900000D03*
%TO.P,U1,6,PA0*%
%TO.N,Net-(U1-PA0)*%
X153200000Y-106300000D03*
%TO.P,U1,7,PA1*%
%TO.N,Net-(U1-PA1)*%
X153200000Y-106700000D03*
D20*
%TO.P,U1,8,PA2*%
%TO.N,Net-(U1-PA2)*%
X152400000Y-107500000D03*
%TO.P,U1,9,PA3*%
%TO.N,unconnected-(U1-PA3-Pad9)*%
X152000000Y-107500000D03*
%TO.P,U1,10,PA4*%
%TO.N,Net-(U1-PA4)*%
X151600000Y-107500000D03*
%TO.P,U1,11,PA5*%
%TO.N,Net-(U1-PA5)*%
X151200000Y-107500000D03*
%TO.P,U1,12,PA6*%
%TO.N,unconnected-(U1-PA6-Pad12)*%
X150800000Y-107500000D03*
%TO.P,U1,13,PA7*%
%TO.N,/ESC2/LI3*%
X150400000Y-107500000D03*
%TO.P,U1,14,PB0*%
%TO.N,/ESC2/LI2*%
X150000000Y-107500000D03*
D21*
%TO.P,U1,15,PB1*%
%TO.N,/ESC2/LI1*%
X149200000Y-106700000D03*
%TO.P,U1,16,VSS*%
%TO.N,/GND*%
X149200000Y-106300000D03*
%TO.P,U1,17,VDD*%
%TO.N,/3V3*%
X149200000Y-105900000D03*
%TO.P,U1,18,PA8*%
%TO.N,/ESC2/HI3*%
X149200000Y-105500000D03*
%TO.P,U1,19,PA9*%
%TO.N,/ESC2/HI2*%
X149200000Y-105100000D03*
%TO.P,U1,20,PA10*%
%TO.N,/ESC2/HI1*%
X149200000Y-104700000D03*
%TO.P,U1,21,PA13*%
%TO.N,/ESC2/SWDIO*%
X149200000Y-104300000D03*
D20*
%TO.P,U1,22,PA14*%
%TO.N,/ESC2/SWCLK*%
X150000000Y-103500000D03*
%TO.P,U1,23,PA15*%
%TO.N,unconnected-(U1-PA15-Pad23)*%
X150400000Y-103500000D03*
%TO.P,U1,24,PB3*%
%TO.N,unconnected-(U1-PB3-Pad24)*%
X150800000Y-103500000D03*
%TO.P,U1,25,PB4*%
%TO.N,unconnected-(U1-PB4-Pad25)*%
X151200000Y-103500000D03*
%TO.P,U1,26,PB5*%
%TO.N,unconnected-(U1-PB5-Pad26)*%
X151600000Y-103500000D03*
%TO.P,U1,27,PB6*%
%TO.N,unconnected-(U1-PB6-Pad27)*%
X152000000Y-103500000D03*
%TO.P,U1,28,PB7*%
%TO.N,unconnected-(U1-PB7-Pad28)*%
X152400000Y-103500000D03*
D22*
%TO.P,U1,29,GPAD*%
%TO.N,/GND*%
X151200000Y-105500000D03*
%TD*%
D18*
%TO.P,C23,1,1*%
%TO.N,/+8V*%
X147720000Y-97450000D03*
%TO.P,C23,2,2*%
%TO.N,/GND*%
X147180000Y-97450000D03*
%TD*%
D17*
%TO.P,R22,1,1*%
%TO.N,/ESC2/ESC2_C*%
X138985000Y-106550000D03*
%TO.P,R22,2,2*%
%TO.N,Net-(U1-PA5)*%
X139465000Y-106550000D03*
%TD*%
D25*
%TO.P,C24,1,1*%
%TO.N,/3V3*%
X152975000Y-95055000D03*
%TO.P,C24,2,2*%
%TO.N,/GND*%
X152975000Y-95595000D03*
%TD*%
D15*
%TO.P,D9,1,K*%
%TO.N,Net-(D9-K)*%
X147450000Y-90275000D03*
%TO.P,D9,2,A*%
%TO.N,/+8V*%
X147450000Y-89475000D03*
%TD*%
D17*
%TO.P,R45,1,1*%
%TO.N,/ESC3/ESC2_A*%
X138895000Y-102500000D03*
%TO.P,R45,2,2*%
%TO.N,Net-(U11-PA0)*%
X139375000Y-102500000D03*
%TD*%
%TO.P,R14,1,1*%
%TO.N,/GND*%
X164960000Y-110000000D03*
%TO.P,R14,2,2*%
%TO.N,Net-(Q4-G)*%
X165440000Y-110000000D03*
%TD*%
%TO.P,R24,1,1*%
%TO.N,/ESC2/ESC2_A*%
X149285000Y-111475000D03*
%TO.P,R24,2,2*%
%TO.N,Net-(U1-PA0)*%
X149765000Y-111475000D03*
%TD*%
D34*
%TO.P,U24,1,REF*%
%TO.N,/GND*%
X146750000Y-116650000D03*
%TO.P,U24,2,GND*%
X146750000Y-116000000D03*
%TO.P,U24,3,V+*%
%TO.N,/3V3*%
X146750000Y-115350000D03*
%TO.P,U24,4,IN+*%
%TO.N,/VBAT*%
X148650000Y-115350000D03*
%TO.P,U24,5,IN-*%
%TO.N,/VIN*%
X148650000Y-116000000D03*
%TO.P,U24,6,OUT*%
%TO.N,Net-(U24-OUT)*%
X148650000Y-116650000D03*
%TD*%
D23*
%TO.P,D4,1,K*%
%TO.N,Net-(D4-K)*%
X146100000Y-103875000D03*
%TO.P,D4,2,A*%
%TO.N,/+8V*%
X146900000Y-103875000D03*
%TD*%
D19*
%TO.P,R50,1,1*%
%TO.N,Net-(U11-PA4)*%
X147950000Y-99960000D03*
%TO.P,R50,2,2*%
%TO.N,Net-(U11-PA1)*%
X147950000Y-100440000D03*
%TD*%
D12*
%TO.P,U14,1,1*%
%TO.N,/ESC3/ESC2_B*%
X135700000Y-96500000D03*
%TD*%
%TO.P,U5,1,1*%
%TO.N,/ESC2/ESC2_A*%
X135700000Y-112500000D03*
%TD*%
D19*
%TO.P,R51,1,1*%
%TO.N,Net-(U11-PA0)*%
X148625000Y-102565000D03*
%TO.P,R51,2,2*%
%TO.N,Net-(U11-PA1)*%
X148625000Y-102085000D03*
%TD*%
D11*
%TO.P,Q5,1,S*%
%TO.N,/ESC1/ESC2_C*%
X170950000Y-103520000D03*
%TO.P,Q5,2,S*%
X170950000Y-104180000D03*
%TO.P,Q5,3,S*%
X170950000Y-104830000D03*
%TO.P,Q5,4,G*%
%TO.N,Net-(Q5-G)*%
X170950000Y-105480000D03*
%TO.P,Q5,5,D*%
%TO.N,/VIN*%
X167950000Y-105480000D03*
%TO.P,Q5,6,D*%
X167950000Y-104830000D03*
%TO.P,Q5,7,D*%
X167950000Y-104170000D03*
%TO.P,Q5,8,D*%
X167950000Y-103520000D03*
D10*
%TO.P,Q5,9,EP*%
X169100000Y-104500000D03*
%TD*%
D16*
%TO.P,SWD1,1,1*%
%TO.N,/ESC1/SWDIO*%
X143475000Y-84450000D03*
%TD*%
D17*
%TO.P,R13,1,1*%
%TO.N,/GND*%
X164760000Y-114000000D03*
%TO.P,R13,2,2*%
%TO.N,Net-(Q2-G)*%
X165240000Y-114000000D03*
%TD*%
%TO.P,R44,1,1*%
%TO.N,/ESC3/ESC2_B*%
X138610000Y-98500000D03*
%TO.P,R44,2,2*%
%TO.N,Net-(U11-PA4)*%
X139090000Y-98500000D03*
%TD*%
D12*
%TO.P,U15,1,1*%
%TO.N,/ESC3/ESC2_C*%
X135700000Y-92500000D03*
%TD*%
D19*
%TO.P,R10,1,1*%
%TO.N,/GND*%
X156600000Y-104415000D03*
%TO.P,R10,2,2*%
%TO.N,Net-(U3-BOOT0)*%
X156600000Y-103935000D03*
%TD*%
D35*
%TO.N,/GND*%
X151200000Y-105500000D03*
X144225000Y-100450000D03*
X159000000Y-84060000D03*
D36*
X169450000Y-117750000D03*
X138950000Y-117750000D03*
D35*
X164100000Y-96525000D03*
D36*
X138950000Y-87250000D03*
D35*
X156700000Y-89450000D03*
X149400000Y-84060000D03*
D36*
X169450000Y-87250000D03*
D35*
X159300000Y-112600000D03*
X157200000Y-105500000D03*
X164200000Y-100575000D03*
D37*
X164200000Y-108400000D03*
D35*
X157100001Y-99500000D03*
D37*
X164000000Y-112500000D03*
D35*
X151200000Y-99500000D03*
X156900000Y-114700000D03*
X140475000Y-92825000D03*
X164250000Y-93600000D03*
X146225000Y-108625000D03*
X140475000Y-112825000D03*
X140425000Y-111550000D03*
X140475000Y-96825000D03*
X140450000Y-95525000D03*
X148200000Y-94500000D03*
X140450000Y-99500000D03*
X140450000Y-91525000D03*
X152305537Y-95794463D03*
D37*
X146800000Y-118500000D03*
D35*
X140475000Y-103550000D03*
X164300000Y-104400000D03*
X140425000Y-107500000D03*
X140475000Y-104875000D03*
X140425000Y-108825000D03*
X140450000Y-100825000D03*
%TO.N,/3V3*%
X157550000Y-102674998D03*
X150900000Y-102600000D03*
X154302799Y-105931582D03*
X147925000Y-105900000D03*
X152225000Y-95050000D03*
X150475000Y-96675000D03*
D37*
X147600000Y-115400000D03*
D35*
%TO.N,/+8V*%
X156500000Y-113000000D03*
X148225000Y-89500000D03*
X147477861Y-104167596D03*
X151342584Y-93331295D03*
X147887500Y-97450000D03*
X142300000Y-110050000D03*
X142525000Y-107550000D03*
%TO.N,/ESC1/ESC2_A*%
X172623000Y-112500000D03*
X160100000Y-112200000D03*
X164062515Y-106381679D03*
%TO.N,Net-(D2-K)*%
X165214166Y-107438952D03*
X172600000Y-110087500D03*
%TO.N,/ESC1/ESC2_B*%
X170950000Y-108200000D03*
%TO.N,/ESC1/ESC2_C*%
X162114296Y-103724893D03*
X159600000Y-110300000D03*
X170950000Y-104180000D03*
%TO.N,Net-(D3-K)*%
X166400000Y-110600000D03*
X172658711Y-106765109D03*
%TO.N,/ESC2/ESC2_A*%
X149124893Y-111074893D03*
X137450000Y-111520000D03*
X137450000Y-112170000D03*
X137450000Y-112830000D03*
X145280002Y-104314998D03*
%TO.N,/ESC2/ESC2_B*%
X137450000Y-108170000D03*
X137450000Y-108830000D03*
X137450000Y-107520000D03*
%TO.N,Net-(D5-K)*%
X143300000Y-107012500D03*
X136125000Y-110237500D03*
%TO.N,Net-(D6-K)*%
X135975000Y-106375000D03*
X141975000Y-110775000D03*
%TO.N,/ESC2/ESC2_C*%
X137450000Y-104170000D03*
X137350000Y-103520000D03*
X141325000Y-107400000D03*
X143833049Y-110577506D03*
X137450000Y-104830000D03*
%TO.N,Net-(D7-K)*%
X150890002Y-94208709D03*
X136025000Y-102700000D03*
%TO.N,/ESC3/ESC2_A*%
X149575000Y-91937500D03*
X137450000Y-99520000D03*
X144375000Y-101862500D03*
X137450000Y-100180000D03*
X137450000Y-100830000D03*
%TO.N,/ESC3/ESC2_B*%
X145600000Y-92750000D03*
X137450000Y-96170000D03*
X147950000Y-91775000D03*
X137450000Y-95520000D03*
X137450000Y-96830000D03*
%TO.N,Net-(D8-K)*%
X148950000Y-91900000D03*
X135750000Y-98600000D03*
%TO.N,Net-(D9-K)*%
X136575000Y-94375000D03*
X146575000Y-90425000D03*
%TO.N,/ESC3/ESC2_C*%
X137450000Y-92170000D03*
X137450000Y-91520000D03*
X137450000Y-92830000D03*
%TO.N,Net-(D10-K)*%
X172400000Y-102525000D03*
X157020404Y-94321756D03*
%TO.N,/ESC4/ESC2_A*%
X170950000Y-100830000D03*
X170950000Y-99520000D03*
X158799997Y-91800000D03*
X164325000Y-102175000D03*
%TO.N,/ESC4/ESC2_B*%
X162755390Y-92662500D03*
X160437500Y-91800000D03*
X170950000Y-95520000D03*
X170950000Y-96830000D03*
%TO.N,Net-(D11-K)*%
X159487391Y-91762609D03*
X171625000Y-98375000D03*
%TO.N,Net-(D12-K)*%
X171800000Y-94425000D03*
X160925000Y-91125000D03*
%TO.N,/ESC4/ESC2_C*%
X170950000Y-92830000D03*
X170950000Y-91520000D03*
D37*
%TO.N,Net-(U21-SW)*%
X163900000Y-119700000D03*
%TO.N,/VBAT*%
X152000000Y-114600000D03*
X156000000Y-117700000D03*
%TO.N,Net-(Q2-G)*%
X166700000Y-113687500D03*
D35*
%TO.N,Net-(Q4-G)*%
X167073728Y-109487500D03*
%TO.N,Net-(Q6-G)*%
X167145982Y-105521197D03*
%TO.N,Net-(Q8-G)*%
X141300002Y-109585906D03*
%TO.N,Net-(Q10-G)*%
X141250002Y-113550000D03*
%TO.N,Net-(Q12-G)*%
X141250000Y-105500000D03*
%TO.N,Net-(Q14-G)*%
X141450000Y-97650000D03*
%TO.N,Net-(Q16-G)*%
X141325000Y-101675000D03*
%TO.N,Net-(Q18-G)*%
X141625000Y-93750000D03*
%TO.N,Net-(Q20-G)*%
X166000000Y-97650000D03*
%TO.N,Net-(Q22-G)*%
X165775000Y-101650000D03*
%TO.N,Net-(Q24-G)*%
X165900000Y-93650000D03*
%TO.N,Net-(U3-PA5)*%
X157535395Y-108469095D03*
X160279598Y-103995617D03*
%TO.N,Net-(U3-PA4)*%
X156672643Y-108375455D03*
X157300000Y-109800000D03*
%TO.N,Net-(U3-PA0)*%
X154800000Y-107300000D03*
%TO.N,Net-(U3-PA1)*%
X155312500Y-108500000D03*
%TO.N,Net-(U3-BOOT0)*%
X155469404Y-104034000D03*
%TO.N,Net-(U3-NRST)*%
X154375001Y-105018207D03*
%TO.N,Net-(U3-PA2)*%
X154175000Y-103950000D03*
X158825000Y-110250000D03*
X155900000Y-108300000D03*
X151975000Y-91525000D03*
X153400000Y-97050000D03*
%TO.N,/ESC1/H01*%
X163484647Y-106126236D03*
%TO.N,/ESC1/L01*%
X162502858Y-111976000D03*
%TO.N,/ESC1/H02*%
X167099998Y-107370362D03*
%TO.N,/ESC1/L02*%
X162437500Y-111000000D03*
%TO.N,/ESC1/H03*%
X164250000Y-110400000D03*
%TO.N,/ESC1/L03*%
X161700000Y-111200000D03*
%TO.N,Net-(U1-PA5)*%
X151100000Y-108325000D03*
X148457710Y-103956428D03*
%TO.N,Net-(U1-PA4)*%
X151782118Y-108312461D03*
%TO.N,Net-(U1-PA0)*%
X154125000Y-107325000D03*
%TO.N,Net-(U1-PA1)*%
X151540294Y-109235873D03*
%TO.N,Net-(U1-BOOT0)*%
X153025000Y-103987500D03*
%TO.N,Net-(U1-NRST)*%
X153946413Y-105438106D03*
%TO.N,Net-(U1-PA2)*%
X153825000Y-102675000D03*
X152900000Y-107625000D03*
X151775000Y-90475000D03*
%TO.N,/ESC2/H01*%
X144729076Y-106410439D03*
%TO.N,/ESC2/H02*%
X141820474Y-106962500D03*
%TO.N,/ESC2/L01*%
X145508564Y-111039555D03*
%TO.N,/ESC2/L02*%
X143184140Y-110615188D03*
%TO.N,/ESC2/L03*%
X146575000Y-111250000D03*
%TO.N,/ESC2/H03*%
X144345335Y-110891450D03*
%TO.N,Net-(U11-PA5)*%
X142175000Y-95100000D03*
X141325000Y-94350000D03*
%TO.N,Net-(U11-PA1)*%
X147999000Y-99307019D03*
X148225000Y-101225000D03*
%TO.N,Net-(U11-BOOT0)*%
X152900000Y-101200002D03*
%TO.N,Net-(U11-NRST)*%
X151797015Y-102313058D03*
%TO.N,Net-(U11-PA2)*%
X149187607Y-101237607D03*
%TO.N,/ESC3/H01*%
X150493829Y-92647528D03*
%TO.N,/ESC3/H02*%
X145958732Y-98818036D03*
X148450000Y-91250000D03*
X142253326Y-97988283D03*
%TO.N,/ESC3/L01*%
X145675000Y-93750000D03*
%TO.N,/ESC3/L02*%
X145023256Y-94823042D03*
%TO.N,/ESC3/L03*%
X144266445Y-94297227D03*
%TO.N,/ESC3/H03*%
X146875000Y-91625000D03*
%TO.N,Net-(U16-PA5)*%
X167425000Y-94450000D03*
X166150000Y-95225000D03*
%TO.N,Net-(U16-PA1)*%
X160332643Y-101102627D03*
X160450000Y-99300000D03*
%TO.N,Net-(U16-BOOT0)*%
X155654987Y-101249001D03*
%TO.N,Net-(U16-NRST)*%
X156835902Y-102390160D03*
%TO.N,Net-(U16-PA2)*%
X158912500Y-101700000D03*
X153700000Y-90600000D03*
%TO.N,/ESC4/H01*%
X157538279Y-92888793D03*
%TO.N,/ESC4/H02*%
X160100000Y-91100000D03*
X162203172Y-99939072D03*
X166500000Y-99050000D03*
%TO.N,/ESC4/L01*%
X162732607Y-93737500D03*
%TO.N,/ESC4/L02*%
X163460529Y-94414257D03*
%TO.N,/ESC4/L03*%
X164350000Y-94475000D03*
%TO.N,/ESC4/H03*%
X161450000Y-91725000D03*
%TO.N,/ESC1/SWCLK*%
X158925000Y-103250000D03*
%TO.N,/ESC1/SWDIO*%
X159566713Y-103300000D03*
%TO.N,/ESC2/SWCLK*%
X147575000Y-102450000D03*
%TO.N,/ESC2/SWDIO*%
X146625000Y-102750000D03*
%TO.N,/ESC3/SWCLK*%
X155850000Y-90500000D03*
X152900000Y-97700000D03*
%TO.N,/ESC3/SWDIO*%
X152500000Y-96550000D03*
X155375000Y-90075000D03*
D37*
%TO.N,Net-(U24-OUT)*%
X149400000Y-117300000D03*
D35*
%TO.N,/VIN*%
X164700000Y-118900000D03*
X166237500Y-92462500D03*
D37*
X150499998Y-117866169D03*
D35*
X167250000Y-96825000D03*
X167275000Y-104150000D03*
X167325000Y-92150000D03*
X167250000Y-104850000D03*
X167250000Y-100225000D03*
X167350000Y-92825000D03*
X169000000Y-104700000D03*
X167300000Y-108850000D03*
X167200000Y-100900000D03*
X169000000Y-108500000D03*
X167275000Y-96150000D03*
X167225000Y-108175000D03*
X169100000Y-112500000D03*
%TD*%
D38*
%TO.N,/ESC4/H02*%
X160175000Y-93875000D02*
X161625000Y-95325000D01*
X160159620Y-93875000D02*
X160175000Y-93875000D01*
X159234620Y-92950000D02*
X160159620Y-93875000D01*
X159225000Y-92950000D02*
X159234620Y-92950000D01*
X161625000Y-99360900D02*
X162203172Y-99939072D01*
X158300000Y-92025000D02*
X159225000Y-92950000D01*
X158300000Y-91575212D02*
X158300000Y-92025000D01*
X159950000Y-91100000D02*
X159762500Y-91287500D01*
X160100000Y-91100000D02*
X159950000Y-91100000D01*
X158587712Y-91287500D02*
X158300000Y-91575212D01*
X159762500Y-91287500D02*
X158587712Y-91287500D01*
X161625000Y-95325000D02*
X161625000Y-99360900D01*
D39*
%TO.N,/VBAT*%
X153550000Y-115350000D02*
X152750000Y-115350000D01*
X156400000Y-118200000D02*
X153550000Y-115350000D01*
X156670000Y-118200000D02*
X156400000Y-118200000D01*
D38*
%TO.N,/GND*%
X156050000Y-99080000D02*
X155795000Y-98825000D01*
D39*
X146750000Y-116000000D02*
X146750000Y-118500000D01*
D38*
X147070000Y-97560000D02*
X147180000Y-97450000D01*
X146950000Y-96410000D02*
X146950000Y-95750000D01*
D40*
X140450000Y-104830000D02*
X140450000Y-103575000D01*
D38*
X152225000Y-95625000D02*
X152945000Y-95625000D01*
D40*
X140425000Y-112805000D02*
X140450000Y-112830000D01*
D38*
X164975000Y-91025000D02*
X164200000Y-91800000D01*
X164760000Y-114000000D02*
X164760000Y-113260000D01*
X148225000Y-106445000D02*
X148510000Y-106445000D01*
D40*
X140450000Y-108180000D02*
X140450000Y-108800000D01*
D38*
X140450000Y-103520000D02*
X141445000Y-103520000D01*
X148820000Y-109750000D02*
X148110000Y-109750000D01*
D39*
X159650000Y-118100000D02*
X159200000Y-118550000D01*
X156420000Y-114800000D02*
X157659000Y-116039000D01*
D38*
X150400000Y-98700000D02*
X151200000Y-99500000D01*
X164985000Y-91025000D02*
X164975000Y-91025000D01*
X148510000Y-106445000D02*
X148655000Y-106300000D01*
X144265000Y-100490000D02*
X144225000Y-100450000D01*
X164125000Y-97190000D02*
X164885000Y-97950000D01*
X146625000Y-100490000D02*
X144265000Y-100490000D01*
X156865000Y-104415000D02*
X156600000Y-104415000D01*
X156765001Y-99835000D02*
X157100001Y-99500000D01*
X150400000Y-106300000D02*
X151200000Y-105500000D01*
X156050000Y-99835000D02*
X156050000Y-99080000D01*
X157000000Y-105700000D02*
X157200000Y-105500000D01*
X148110000Y-109750000D02*
X147450000Y-109750000D01*
X157200000Y-105500000D02*
X157200000Y-104750000D01*
X164125000Y-96500000D02*
X164125000Y-97190000D01*
D40*
X140450000Y-91520000D02*
X140450000Y-92800000D01*
D38*
X149200000Y-106300000D02*
X150400000Y-106300000D01*
D40*
X164250000Y-93600000D02*
X164250000Y-92550000D01*
D38*
X157200000Y-105500000D02*
X156820000Y-105500000D01*
X164200000Y-91800000D02*
X164200000Y-92500000D01*
D39*
X157659000Y-116039000D02*
X158261000Y-116039000D01*
D38*
X147000000Y-100440000D02*
X146675000Y-100440000D01*
X156820000Y-105500000D02*
X156620000Y-105300000D01*
X141445000Y-103520000D02*
X141750000Y-103215000D01*
D40*
X140450000Y-95520000D02*
X140450000Y-96800000D01*
D38*
X165120000Y-105220000D02*
X164300000Y-104400000D01*
X164200000Y-99860000D02*
X164200000Y-100575000D01*
X157800000Y-106260000D02*
X157000000Y-106260000D01*
D40*
X140450000Y-108180000D02*
X140450000Y-107520000D01*
D38*
X148655000Y-106300000D02*
X149200000Y-106300000D01*
X164935000Y-99125000D02*
X164200000Y-99860000D01*
D39*
X160550000Y-118100000D02*
X159650000Y-118100000D01*
D38*
X156100000Y-106260000D02*
X157000000Y-106260000D01*
D40*
X164250000Y-92550000D02*
X164200000Y-92500000D01*
D38*
X146675000Y-100440000D02*
X146625000Y-100490000D01*
X157000000Y-106260000D02*
X157000000Y-105700000D01*
X164760000Y-113260000D02*
X164000000Y-112500000D01*
X164960000Y-109160000D02*
X164200000Y-108400000D01*
D40*
X140450000Y-92800000D02*
X140475000Y-92825000D01*
D38*
X157200000Y-104750000D02*
X156865000Y-104415000D01*
D40*
X140450000Y-96800000D02*
X140475000Y-96825000D01*
D39*
X158261000Y-116039000D02*
X158261000Y-117611000D01*
X158261000Y-117611000D02*
X159200000Y-118550000D01*
D40*
X140450000Y-103575000D02*
X140475000Y-103550000D01*
X140450000Y-108800000D02*
X140425000Y-108825000D01*
X140450000Y-99520000D02*
X140450000Y-100830000D01*
D38*
X146950000Y-97220000D02*
X146950000Y-96410000D01*
X156050000Y-99835000D02*
X156765001Y-99835000D01*
X149075000Y-109495000D02*
X148820000Y-109750000D01*
X145975000Y-97560000D02*
X147070000Y-97560000D01*
X152945000Y-95625000D02*
X152975000Y-95595000D01*
X147180000Y-97450000D02*
X146950000Y-97220000D01*
X146950000Y-95750000D02*
X148200000Y-94500000D01*
X165120000Y-105800000D02*
X165120000Y-105220000D01*
D40*
X140425000Y-111550000D02*
X140425000Y-112805000D01*
D38*
X147450000Y-109750000D02*
X146200000Y-108500000D01*
X164960000Y-110000000D02*
X164960000Y-109160000D01*
X150400000Y-97500000D02*
X150400000Y-98700000D01*
%TO.N,/3V3*%
X157274998Y-102950000D02*
X156809619Y-102950000D01*
X147600000Y-115400000D02*
X146800000Y-115400000D01*
X156809619Y-102950000D02*
X156709619Y-102850000D01*
X155640000Y-105740000D02*
X156080000Y-105300000D01*
X150800000Y-101500000D02*
X150800000Y-102500000D01*
X157550000Y-102674998D02*
X157274998Y-102950000D01*
X154650000Y-99810000D02*
X155075000Y-99810000D01*
X148280000Y-105900000D02*
X148200000Y-105980000D01*
X150800000Y-102500000D02*
X150900000Y-102600000D01*
X152970000Y-95050000D02*
X152975000Y-95055000D01*
X150800000Y-97500000D02*
X150800000Y-97000000D01*
X155100000Y-105740000D02*
X155640000Y-105740000D01*
X157550000Y-102674998D02*
X157524998Y-102674998D01*
X155075000Y-99810000D02*
X155075000Y-99005000D01*
X155075000Y-99005000D02*
X155255000Y-98825000D01*
X155100000Y-105740000D02*
X154494381Y-105740000D01*
X152225000Y-95050000D02*
X152970000Y-95050000D01*
X156709619Y-102850000D02*
X156100000Y-102850000D01*
X153781582Y-105931582D02*
X154302799Y-105931582D01*
X153200000Y-105900000D02*
X153750000Y-105900000D01*
X154525000Y-101275000D02*
X154525000Y-99935000D01*
X154494381Y-105740000D02*
X154302799Y-105931582D01*
X150800000Y-97000000D02*
X150475000Y-96675000D01*
X156100000Y-102850000D02*
X154525000Y-101275000D01*
X146800000Y-115400000D02*
X146750000Y-115350000D01*
X153750000Y-105900000D02*
X153781582Y-105931582D01*
X149200000Y-105900000D02*
X148280000Y-105900000D01*
X154525000Y-99935000D02*
X154650000Y-99810000D01*
%TO.N,/+8V*%
X147950000Y-97220000D02*
X147950000Y-96410000D01*
X147450000Y-89475000D02*
X148200000Y-89475000D01*
X149621518Y-108955000D02*
X149788259Y-108788259D01*
X151523879Y-93150000D02*
X151342584Y-93331295D01*
X149075000Y-108955000D02*
X148870000Y-108750000D01*
X147435265Y-103875000D02*
X147477861Y-103917596D01*
D39*
X157980000Y-114800000D02*
X159200000Y-114800000D01*
D38*
X142300000Y-110050000D02*
X142300000Y-109300000D01*
D40*
X156500000Y-113000000D02*
X156500000Y-113320000D01*
D38*
X146900000Y-103875000D02*
X147435265Y-103875000D01*
D40*
X156500000Y-113320000D02*
X157980000Y-114800000D01*
D38*
X147477861Y-103917596D02*
X147477861Y-104167596D01*
X148870000Y-108750000D02*
X148110000Y-108750000D01*
X152075000Y-93150000D02*
X151523879Y-93150000D01*
X147720000Y-97450000D02*
X147950000Y-97220000D01*
X148950000Y-89500000D02*
X148225000Y-89500000D01*
X148200000Y-89475000D02*
X148225000Y-89500000D01*
X142300000Y-109300000D02*
X142325000Y-109275000D01*
X149075000Y-108955000D02*
X149621518Y-108955000D01*
%TO.N,/ESC1/ESC2_A*%
X164062515Y-105979318D02*
X164062515Y-106381679D01*
D40*
X170950000Y-112830000D02*
X170950000Y-112180000D01*
D38*
X163254241Y-105595614D02*
X163678811Y-105595614D01*
X160240000Y-111500000D02*
X160240000Y-108609855D01*
X160240000Y-112060000D02*
X160240000Y-111500000D01*
D40*
X170950000Y-111520000D02*
X170950000Y-112180000D01*
D38*
X160100000Y-112200000D02*
X160240000Y-112060000D01*
D40*
X172303000Y-112180000D02*
X172623000Y-112500000D01*
X170950000Y-112180000D02*
X172303000Y-112180000D01*
D38*
X163678811Y-105595614D02*
X164062515Y-105979318D01*
X160240000Y-108609855D02*
X163254241Y-105595614D01*
%TO.N,Net-(D2-K)*%
X172600000Y-110087500D02*
X172700000Y-109987500D01*
X172700000Y-107600000D02*
X171811500Y-106711500D01*
X172700000Y-109987500D02*
X172700000Y-107600000D01*
X167034075Y-106711500D02*
X166284075Y-107461500D01*
X165236714Y-107461500D02*
X165214166Y-107438952D01*
X166284075Y-107461500D02*
X165236714Y-107461500D01*
X171811500Y-106711500D02*
X167034075Y-106711500D01*
%TO.N,/ESC1/ESC2_B*%
X170950000Y-108200000D02*
X170950000Y-107520000D01*
X170950000Y-108830000D02*
X170950000Y-108200000D01*
D40*
%TO.N,/ESC1/ESC2_C*%
X170950000Y-104830000D02*
X170950000Y-103520000D01*
D38*
X159848500Y-105861119D02*
X161984726Y-103724893D01*
X159848500Y-109272153D02*
X159848500Y-105861119D01*
X159600000Y-110300000D02*
X159600000Y-109520654D01*
X159600000Y-109520654D02*
X159848500Y-109272153D01*
X161984726Y-103724893D02*
X162114296Y-103724893D01*
%TO.N,Net-(D3-K)*%
X173136500Y-110363500D02*
X172900000Y-110600000D01*
X173136500Y-108700000D02*
X173136500Y-110363500D01*
X173136500Y-108700000D02*
X173136500Y-107236500D01*
X173136500Y-108700000D02*
X173136500Y-108763500D01*
X172900000Y-110600000D02*
X166400000Y-110600000D01*
X173136500Y-107236500D02*
X172665109Y-106765109D01*
X173136500Y-108763500D02*
X173100000Y-108800000D01*
X172665109Y-106765109D02*
X172658711Y-106765109D01*
D40*
%TO.N,/ESC2/ESC2_A*%
X137450000Y-113480000D02*
X136680000Y-113480000D01*
D38*
X149124893Y-111314893D02*
X149124893Y-111074893D01*
X144260294Y-105214706D02*
X144600000Y-104875000D01*
X144600000Y-104875000D02*
X144880000Y-104875000D01*
D40*
X136030000Y-112170000D02*
X135700000Y-112500000D01*
D38*
X145280002Y-104314998D02*
X145108002Y-104314998D01*
X146287285Y-113312500D02*
X146187500Y-113312500D01*
X144880000Y-104543000D02*
X144880000Y-104875000D01*
X138120000Y-114150000D02*
X137450000Y-113480000D01*
X146587500Y-113012285D02*
X146287285Y-113312500D01*
X144260294Y-106685294D02*
X144260294Y-105214706D01*
X144350000Y-106775000D02*
X144350000Y-107190000D01*
D40*
X136680000Y-113480000D02*
X135700000Y-112500000D01*
X137450000Y-111520000D02*
X136680000Y-111520000D01*
X137450000Y-112170000D02*
X136030000Y-112170000D01*
D38*
X145350000Y-114150000D02*
X138120000Y-114150000D01*
D40*
X136680000Y-111520000D02*
X135700000Y-112500000D01*
D38*
X146587500Y-112912500D02*
X146587500Y-113012285D01*
X144350000Y-106775000D02*
X144260294Y-106685294D01*
X149124893Y-111074893D02*
X148574786Y-111625000D01*
X148574786Y-111625000D02*
X147875000Y-111625000D01*
X145108002Y-104314998D02*
X144880000Y-104543000D01*
D40*
X137450000Y-112830000D02*
X136030000Y-112830000D01*
X136030000Y-112830000D02*
X135700000Y-112500000D01*
D38*
X146187500Y-113312500D02*
X145350000Y-114150000D01*
X144350000Y-107190000D02*
X144290000Y-107250000D01*
X147875000Y-111625000D02*
X146587500Y-112912500D01*
X149285000Y-111475000D02*
X149124893Y-111314893D01*
%TO.N,Net-(D4-K)*%
X146100000Y-104725000D02*
X146100000Y-103875000D01*
X146125000Y-104750000D02*
X146100000Y-104725000D01*
X145420000Y-106560000D02*
X145420000Y-104875000D01*
X145420000Y-104875000D02*
X146000000Y-104875000D01*
X145450000Y-106590000D02*
X145420000Y-106560000D01*
X146000000Y-104875000D02*
X146125000Y-104750000D01*
%TO.N,/ESC2/ESC2_B*%
X141575000Y-110050000D02*
X140000000Y-110050000D01*
D40*
X137450000Y-109480000D02*
X136680000Y-109480000D01*
D38*
X144290000Y-108750000D02*
X144251500Y-108711500D01*
D40*
X137450000Y-107520000D02*
X136680000Y-107520000D01*
D38*
X141950000Y-108711500D02*
X141811500Y-108850000D01*
D40*
X136680000Y-107520000D02*
X135700000Y-108500000D01*
D38*
X139235000Y-110525000D02*
X138045000Y-110525000D01*
X138045000Y-110525000D02*
X138045000Y-109055000D01*
D40*
X136030000Y-108830000D02*
X135700000Y-108500000D01*
D38*
X140000000Y-110050000D02*
X138600000Y-108650000D01*
X138600000Y-108650000D02*
X138600000Y-108500000D01*
X141811500Y-108850000D02*
X141811500Y-109813500D01*
X141811500Y-109813500D02*
X141575000Y-110050000D01*
D40*
X137450000Y-108170000D02*
X136030000Y-108170000D01*
D38*
X138045000Y-109055000D02*
X138600000Y-108500000D01*
D40*
X136030000Y-108170000D02*
X135700000Y-108500000D01*
X136680000Y-109480000D02*
X135700000Y-108500000D01*
X137450000Y-108830000D02*
X136030000Y-108830000D01*
D38*
X144251500Y-108711500D02*
X141950000Y-108711500D01*
%TO.N,Net-(D5-K)*%
X143325000Y-107037500D02*
X143300000Y-107012500D01*
X143525000Y-107750000D02*
X144290000Y-107750000D01*
X137505000Y-110525000D02*
X136412500Y-110525000D01*
X143325000Y-107550000D02*
X143325000Y-107037500D01*
X136412500Y-110525000D02*
X136125000Y-110237500D01*
X143325000Y-107550000D02*
X143525000Y-107750000D01*
%TO.N,Net-(D6-K)*%
X137405000Y-106500000D02*
X136100000Y-106500000D01*
X143125000Y-109949785D02*
X142299785Y-110775000D01*
X144265000Y-109275000D02*
X144290000Y-109250000D01*
X142299785Y-110775000D02*
X141975000Y-110775000D01*
X143125000Y-109275000D02*
X143125000Y-109949785D01*
X136100000Y-106500000D02*
X135975000Y-106375000D01*
X143125000Y-109275000D02*
X144265000Y-109275000D01*
%TO.N,/ESC2/ESC2_C*%
X144113500Y-111423500D02*
X143833049Y-111143049D01*
X137945000Y-105975000D02*
X137450000Y-105480000D01*
X140208716Y-107036500D02*
X140237716Y-107007500D01*
D40*
X137450000Y-103520000D02*
X137350000Y-103520000D01*
D38*
X137945000Y-106500000D02*
X137945000Y-105975000D01*
X138985000Y-106550000D02*
X138985000Y-106907000D01*
X144950000Y-110410000D02*
X144950000Y-111011570D01*
D40*
X136030000Y-104830000D02*
X135700000Y-104500000D01*
X136680000Y-105480000D02*
X135700000Y-104500000D01*
D38*
X141064500Y-107007500D02*
X141325000Y-107268000D01*
D40*
X137450000Y-105480000D02*
X136680000Y-105480000D01*
D38*
X144950000Y-111011570D02*
X144538070Y-111423500D01*
X138985000Y-106550000D02*
X137995000Y-106550000D01*
D40*
X136030000Y-104170000D02*
X135700000Y-104500000D01*
X136680000Y-103520000D02*
X135700000Y-104500000D01*
X137350000Y-103520000D02*
X136680000Y-103520000D01*
D38*
X144538070Y-111423500D02*
X144113500Y-111423500D01*
X140237716Y-107007500D02*
X141064500Y-107007500D01*
D40*
X137450000Y-104830000D02*
X136030000Y-104830000D01*
X137450000Y-104170000D02*
X136030000Y-104170000D01*
D38*
X138985000Y-106907000D02*
X139114500Y-107036500D01*
X137995000Y-106550000D02*
X137945000Y-106500000D01*
X139114500Y-107036500D02*
X140208716Y-107036500D01*
X143833049Y-111143049D02*
X143833049Y-110577506D01*
X141325000Y-107268000D02*
X141325000Y-107400000D01*
%TO.N,Net-(D7-K)*%
X150890002Y-93896502D02*
X150890002Y-94208709D01*
X152075000Y-93950000D02*
X151236504Y-93950000D01*
X151036504Y-93750000D02*
X150110000Y-93750000D01*
X137355000Y-102500000D02*
X136225000Y-102500000D01*
X151036504Y-93750000D02*
X150890002Y-93896502D01*
X136225000Y-102500000D02*
X136025000Y-102700000D01*
X151236504Y-93950000D02*
X151036504Y-93750000D01*
D40*
%TO.N,/ESC3/ESC2_A*%
X137450000Y-100180000D02*
X136020000Y-100180000D01*
X137450000Y-101480000D02*
X136680000Y-101480000D01*
D38*
X143987500Y-102250000D02*
X144375000Y-101862500D01*
D40*
X137450000Y-99520000D02*
X136680000Y-99520000D01*
X136020000Y-100180000D02*
X135700000Y-100500000D01*
X136680000Y-99520000D02*
X135700000Y-100500000D01*
D38*
X138600000Y-100500000D02*
X138600000Y-100650000D01*
D40*
X136680000Y-101480000D02*
X135700000Y-100500000D01*
X137450000Y-100830000D02*
X136030000Y-100830000D01*
D38*
X140200000Y-102250000D02*
X143987500Y-102250000D01*
X137895000Y-102500000D02*
X138895000Y-102500000D01*
X138895000Y-102380000D02*
X138600000Y-102085000D01*
X138600000Y-100650000D02*
X140200000Y-102250000D01*
X138600000Y-102085000D02*
X138600000Y-100500000D01*
X149450000Y-92062500D02*
X149575000Y-91937500D01*
X149450000Y-92590000D02*
X149450000Y-92062500D01*
D40*
X136030000Y-100830000D02*
X135700000Y-100500000D01*
D38*
X138895000Y-102500000D02*
X138895000Y-102380000D01*
%TO.N,/ESC3/ESC2_B*%
X138600000Y-96500000D02*
X138600000Y-96243000D01*
D40*
X137450000Y-96830000D02*
X136030000Y-96830000D01*
D38*
X147950000Y-91775000D02*
X147950000Y-92590000D01*
D40*
X137450000Y-97480000D02*
X136680000Y-97480000D01*
X137450000Y-96170000D02*
X136030000Y-96170000D01*
D38*
X138600000Y-96243000D02*
X139919500Y-94923500D01*
X145150000Y-92750000D02*
X145600000Y-92750000D01*
X142025000Y-94450000D02*
X143450000Y-94450000D01*
X138610000Y-96510000D02*
X138600000Y-96500000D01*
D40*
X136030000Y-96830000D02*
X135700000Y-96500000D01*
D38*
X137645000Y-98500000D02*
X138610000Y-98500000D01*
X141551500Y-94923500D02*
X142025000Y-94450000D01*
X143450000Y-94450000D02*
X144075000Y-93825000D01*
D40*
X137450000Y-95520000D02*
X136680000Y-95520000D01*
D38*
X144075000Y-93825000D02*
X145150000Y-92750000D01*
X138610000Y-98500000D02*
X138610000Y-96510000D01*
D40*
X136680000Y-97480000D02*
X135700000Y-96500000D01*
X136680000Y-95520000D02*
X135700000Y-96500000D01*
D38*
X139919500Y-94923500D02*
X141551500Y-94923500D01*
D40*
X136030000Y-96170000D02*
X135700000Y-96500000D01*
D38*
%TO.N,Net-(D8-K)*%
X135850000Y-98500000D02*
X135750000Y-98600000D01*
X137105000Y-98500000D02*
X135850000Y-98500000D01*
X148950000Y-91900000D02*
X148950000Y-90300000D01*
X148950000Y-92590000D02*
X148950000Y-91900000D01*
%TO.N,Net-(D9-K)*%
X147200000Y-91050000D02*
X147450000Y-91050000D01*
X147450000Y-92590000D02*
X147450000Y-91050000D01*
X136675000Y-94475000D02*
X136575000Y-94375000D01*
X146575000Y-90425000D02*
X147200000Y-91050000D01*
X137505000Y-94475000D02*
X136675000Y-94475000D01*
X147450000Y-91050000D02*
X147450000Y-90275000D01*
%TO.N,/ESC3/ESC2_C*%
X146290000Y-91365000D02*
X145650000Y-90725000D01*
D40*
X136680000Y-91520000D02*
X135700000Y-92500000D01*
X137450000Y-93480000D02*
X136680000Y-93480000D01*
X137450000Y-92170000D02*
X136030000Y-92170000D01*
X136030000Y-92170000D02*
X135700000Y-92500000D01*
D38*
X139300000Y-91500000D02*
X139300000Y-92500000D01*
X139260000Y-93160000D02*
X138600000Y-92500000D01*
D40*
X136030000Y-92830000D02*
X135700000Y-92500000D01*
D38*
X145650000Y-90725000D02*
X140075000Y-90725000D01*
D40*
X136680000Y-93480000D02*
X135700000Y-92500000D01*
D38*
X139235000Y-94475000D02*
X139260000Y-94500000D01*
D40*
X137450000Y-91520000D02*
X136680000Y-91520000D01*
D38*
X146290000Y-93250000D02*
X146290000Y-91365000D01*
X140075000Y-90725000D02*
X139300000Y-91500000D01*
X139260000Y-94500000D02*
X139260000Y-93160000D01*
D40*
X137450000Y-92830000D02*
X136030000Y-92830000D01*
D38*
X138045000Y-94475000D02*
X139235000Y-94475000D01*
%TO.N,Net-(D10-K)*%
X157192160Y-94150000D02*
X157020404Y-94321756D01*
X160900000Y-95675000D02*
X159375000Y-94150000D01*
X161412500Y-100287715D02*
X160962500Y-99837715D01*
X166944240Y-102525000D02*
X166494240Y-102975000D01*
X172400000Y-102525000D02*
X166944240Y-102525000D01*
X160962500Y-99087715D02*
X160900000Y-99025215D01*
X166494240Y-102975000D02*
X162850000Y-102975000D01*
X162850000Y-102975000D02*
X161412500Y-101537500D01*
X160900000Y-99025215D02*
X160900000Y-95675000D01*
X161412500Y-101537500D02*
X161412500Y-100287715D01*
X159375000Y-94150000D02*
X157192160Y-94150000D01*
X160962500Y-99837715D02*
X160962500Y-99087715D01*
%TO.N,/ESC4/ESC2_A*%
X162654810Y-99665925D02*
X162654810Y-98054810D01*
X162025000Y-97425000D02*
X162025000Y-95025004D01*
D40*
X170950000Y-99520000D02*
X170950000Y-100830000D01*
X171090000Y-100180000D02*
X171100000Y-100170000D01*
D38*
X162715672Y-101306052D02*
X162715672Y-99726787D01*
X162025000Y-95025004D02*
X158799997Y-91800000D01*
X162715672Y-99726787D02*
X162654810Y-99665925D01*
X163459513Y-102049893D02*
X162715672Y-101306052D01*
X162654810Y-98054810D02*
X162025000Y-97425000D01*
X164199893Y-102049893D02*
X163459513Y-102049893D01*
X164325000Y-102175000D02*
X164199893Y-102049893D01*
D40*
%TO.N,/ESC4/ESC2_B*%
X170950000Y-96830000D02*
X170950000Y-95520000D01*
D38*
X161287500Y-92650000D02*
X160437500Y-91800000D01*
X162755390Y-92662500D02*
X162742890Y-92650000D01*
X162742890Y-92650000D02*
X161287500Y-92650000D01*
%TO.N,Net-(D11-K)*%
X162900000Y-93175000D02*
X160899782Y-93175000D01*
X171625000Y-98375000D02*
X171600000Y-98350000D01*
X163925000Y-98350000D02*
X162875000Y-97300000D01*
X163250000Y-93900000D02*
X163250000Y-93525000D01*
X160899782Y-93175000D02*
X159487391Y-91762609D01*
X162875000Y-94275000D02*
X163250000Y-93900000D01*
X162875000Y-97300000D02*
X162875000Y-94275000D01*
X163250000Y-93525000D02*
X162900000Y-93175000D01*
X171600000Y-98350000D02*
X163925000Y-98350000D01*
%TO.N,Net-(D12-K)*%
X166013119Y-90276500D02*
X161773500Y-90276500D01*
X171563500Y-90513500D02*
X166250119Y-90513500D01*
X173050000Y-92000000D02*
X171563500Y-90513500D01*
X161773500Y-90276500D02*
X160925000Y-91125000D01*
X166250119Y-90513500D02*
X166013119Y-90276500D01*
X172462000Y-94425000D02*
X173050000Y-93837000D01*
X171800000Y-94425000D02*
X172462000Y-94425000D01*
X173050000Y-93837000D02*
X173050000Y-92000000D01*
D40*
%TO.N,/ESC4/ESC2_C*%
X170950000Y-92830000D02*
X170950000Y-91520000D01*
D39*
%TO.N,Net-(U21-BST)*%
X160550000Y-119050000D02*
X160550000Y-119650000D01*
X160550000Y-119650000D02*
X161400000Y-120500000D01*
%TO.N,Net-(U21-SW)*%
X163250000Y-119050000D02*
X163250000Y-119650000D01*
X163250000Y-119650000D02*
X162400000Y-120500000D01*
X163250000Y-119050000D02*
X163900000Y-119700000D01*
%TO.N,/VBAT*%
X152750000Y-115350000D02*
X148650000Y-115350000D01*
D41*
X152000000Y-114600000D02*
X152750000Y-115350000D01*
D39*
%TO.N,Net-(Q1-G)*%
X172040000Y-113480000D02*
X172060000Y-113500000D01*
X170950000Y-113480000D02*
X172040000Y-113480000D01*
D38*
%TO.N,Net-(Q2-G)*%
X165240000Y-114000000D02*
X166387500Y-114000000D01*
X165240000Y-114000000D02*
X165240000Y-114900000D01*
X166387500Y-114000000D02*
X166700000Y-113687500D01*
%TO.N,Net-(Q3-G)*%
X171940000Y-109480000D02*
X172080000Y-109340000D01*
X170950000Y-109480000D02*
X171940000Y-109480000D01*
X172080000Y-109340000D02*
X172200000Y-109340000D01*
%TO.N,Net-(Q4-G)*%
X165440000Y-110000000D02*
X166561228Y-110000000D01*
X166561228Y-110000000D02*
X167073728Y-109487500D01*
X165440000Y-110000000D02*
X165440000Y-110900000D01*
%TO.N,Net-(Q5-G)*%
X171400000Y-105480000D02*
X171480000Y-105400000D01*
X171480000Y-105400000D02*
X172060000Y-105400000D01*
X170950000Y-105480000D02*
X171400000Y-105480000D01*
%TO.N,Net-(Q6-G)*%
X166023500Y-105376500D02*
X165600000Y-105800000D01*
X166980000Y-105800000D02*
X166980000Y-105687179D01*
X166980000Y-105800000D02*
X166980000Y-105443000D01*
X166980000Y-105687179D02*
X167145982Y-105521197D01*
X166913500Y-105376500D02*
X166023500Y-105376500D01*
X166980000Y-105443000D02*
X166913500Y-105376500D01*
%TO.N,Net-(Q8-G)*%
X141194096Y-109480000D02*
X141300002Y-109585906D01*
X140450000Y-109480000D02*
X141194096Y-109480000D01*
%TO.N,Net-(Q10-G)*%
X140450000Y-113480000D02*
X141180002Y-113480000D01*
X141180002Y-113480000D02*
X141250002Y-113550000D01*
%TO.N,Net-(Q12-G)*%
X140450000Y-105480000D02*
X141230000Y-105480000D01*
X141230000Y-105480000D02*
X141250000Y-105500000D01*
%TO.N,Net-(Q14-G)*%
X141450000Y-97650000D02*
X140620000Y-97650000D01*
X140620000Y-97650000D02*
X140450000Y-97480000D01*
%TO.N,Net-(Q16-G)*%
X141325000Y-101675000D02*
X140645000Y-101675000D01*
X140645000Y-101675000D02*
X140450000Y-101480000D01*
%TO.N,Net-(Q18-G)*%
X141625000Y-93750000D02*
X141355000Y-93480000D01*
X141355000Y-93480000D02*
X140450000Y-93480000D01*
%TO.N,Net-(Q19-G)*%
X170950000Y-97480000D02*
X171905000Y-97480000D01*
X171905000Y-97480000D02*
X171910000Y-97475000D01*
%TO.N,Net-(Q20-G)*%
X165365000Y-97950000D02*
X165700000Y-97950000D01*
X165156500Y-97438500D02*
X165156500Y-95615500D01*
X165156500Y-95615500D02*
X165415000Y-95357000D01*
X165365000Y-97950000D02*
X165365000Y-97647000D01*
X165415000Y-95357000D02*
X165415000Y-95000000D01*
X165365000Y-97647000D02*
X165156500Y-97438500D01*
X165700000Y-97950000D02*
X166000000Y-97650000D01*
%TO.N,Net-(Q21-G)*%
X171955000Y-101480000D02*
X172010000Y-101425000D01*
X170950000Y-101480000D02*
X171955000Y-101480000D01*
%TO.N,Net-(Q22-G)*%
X165638500Y-101513500D02*
X165775000Y-101650000D01*
X165415000Y-101628500D02*
X165415000Y-102050000D01*
X165415000Y-99125000D02*
X165415000Y-99453000D01*
X165231500Y-101445000D02*
X165300000Y-101513500D01*
X165415000Y-99453000D02*
X165231500Y-99636500D01*
X165300000Y-101513500D02*
X165638500Y-101513500D01*
X165300000Y-101513500D02*
X165415000Y-101628500D01*
X165775000Y-101650000D02*
X165775000Y-101690000D01*
X165231500Y-99636500D02*
X165231500Y-101445000D01*
%TO.N,Net-(Q23-G)*%
X172090000Y-93480000D02*
X172095000Y-93475000D01*
X170950000Y-93480000D02*
X172090000Y-93480000D01*
%TO.N,Net-(Q24-G)*%
X165465000Y-91385000D02*
X165206000Y-91644000D01*
X165390000Y-93975000D02*
X165575000Y-93975000D01*
X165390000Y-93618000D02*
X165390000Y-93975000D01*
X165206000Y-93434000D02*
X165390000Y-93618000D01*
X165465000Y-91025000D02*
X165465000Y-91385000D01*
X165575000Y-93975000D02*
X165900000Y-93650000D01*
X165206000Y-91644000D02*
X165206000Y-93434000D01*
%TO.N,Net-(U3-PA5)*%
X160279598Y-104067305D02*
X160279598Y-103995617D01*
X158000000Y-107300000D02*
X157800000Y-107100000D01*
X158157000Y-106740000D02*
X157800000Y-106740000D01*
X159100000Y-105760000D02*
X158743000Y-105760000D01*
X159100000Y-105760000D02*
X159100000Y-105246903D01*
X158000000Y-107300000D02*
X158000000Y-108004490D01*
X159100000Y-105246903D02*
X160279598Y-104067305D01*
X158743000Y-105760000D02*
X158223500Y-106279500D01*
X157800000Y-107100000D02*
X157800000Y-106740000D01*
X158000000Y-108004490D02*
X157535395Y-108469095D01*
X158223500Y-106673500D02*
X158157000Y-106740000D01*
X158223500Y-106279500D02*
X158223500Y-106673500D01*
%TO.N,Net-(U3-PA4)*%
X156588729Y-108400000D02*
X156613274Y-108375455D01*
X157160000Y-109660000D02*
X157300000Y-109800000D01*
X156600000Y-109660000D02*
X156600000Y-108448098D01*
X157000000Y-108048098D02*
X156672643Y-108375455D01*
X156600000Y-108448098D02*
X156672643Y-108375455D01*
X156613274Y-108375455D02*
X156672643Y-108375455D01*
X156600000Y-109660000D02*
X157160000Y-109660000D01*
X157000000Y-106740000D02*
X157000000Y-108048098D01*
%TO.N,Net-(U3-PA0)*%
X156923500Y-111523500D02*
X154800000Y-109400000D01*
X155360000Y-106740000D02*
X154800000Y-107300000D01*
X159760000Y-111500000D02*
X159447000Y-111500000D01*
X154800000Y-109400000D02*
X154800000Y-107300000D01*
X159447000Y-111500000D02*
X159423500Y-111523500D01*
X159423500Y-111523500D02*
X156923500Y-111523500D01*
X156100000Y-106740000D02*
X155360000Y-106740000D01*
%TO.N,Net-(U3-PA1)*%
X158625000Y-106715000D02*
X158625000Y-109575000D01*
X158625000Y-109575000D02*
X157785000Y-110415000D01*
X156610000Y-110140000D02*
X156600000Y-110140000D01*
X156252500Y-110140000D02*
X155312500Y-109200000D01*
X155312500Y-109200000D02*
X155312500Y-108500000D01*
X157785000Y-110415000D02*
X156885000Y-110415000D01*
X157300000Y-110830000D02*
X156885000Y-110415000D01*
X156885000Y-110415000D02*
X156610000Y-110140000D01*
X157300000Y-110860000D02*
X157300000Y-110830000D01*
X156600000Y-110140000D02*
X156252500Y-110140000D01*
X159100000Y-106240000D02*
X158625000Y-106715000D01*
D41*
%TO.N,Net-(U3-BOOT0)*%
X156600000Y-103935000D02*
X155568404Y-103935000D01*
X155568404Y-103935000D02*
X155469404Y-104034000D01*
D38*
%TO.N,Net-(U3-NRST)*%
X154760000Y-105260000D02*
X155100000Y-105260000D01*
X154375001Y-105018207D02*
X154518207Y-105018207D01*
X154518207Y-105018207D02*
X154760000Y-105260000D01*
%TO.N,Net-(U3-PA2)*%
X154175000Y-103950000D02*
X154603500Y-103521500D01*
X160112500Y-103425000D02*
X160725000Y-103425000D01*
X151975000Y-91525000D02*
X153400000Y-92950000D01*
X154603500Y-103521500D02*
X157503500Y-103521500D01*
X153400000Y-92950000D02*
X153400000Y-97050000D01*
X158712715Y-103762500D02*
X159775000Y-103762500D01*
X158650215Y-103700000D02*
X158712715Y-103762500D01*
X160725000Y-103425000D02*
X160900000Y-103250000D01*
X158825000Y-109836034D02*
X158825000Y-110250000D01*
X159523500Y-105476500D02*
X159523500Y-109137534D01*
X159775000Y-103762500D02*
X160112500Y-103425000D01*
X157503500Y-103521500D02*
X157682000Y-103700000D01*
X157682000Y-103700000D02*
X158650215Y-103700000D01*
X159523500Y-109137534D02*
X158825000Y-109836034D01*
X160900000Y-103250000D02*
X160900000Y-104100000D01*
X160900000Y-104100000D02*
X159523500Y-105476500D01*
%TO.N,/ESC1/H01*%
X173136500Y-112903500D02*
X173136500Y-111836500D01*
X161375000Y-107984620D02*
X162784621Y-106574999D01*
X172300000Y-111000000D02*
X167400000Y-111000000D01*
X162312285Y-111512500D02*
X161877236Y-111947549D01*
X166887500Y-111512500D02*
X162312285Y-111512500D01*
X173136500Y-111836500D02*
X172300000Y-111000000D01*
X163233384Y-106126236D02*
X163484647Y-106126236D01*
X162784621Y-106574999D02*
X163233384Y-106126236D01*
X161447549Y-111947549D02*
X161300000Y-111800000D01*
X167400000Y-111000000D02*
X166887500Y-111512500D01*
X161254528Y-111800000D02*
X160987500Y-111532972D01*
X172540000Y-113500000D02*
X173136500Y-112903500D01*
X161300000Y-111800000D02*
X161254528Y-111800000D01*
X160987500Y-111532972D02*
X160987500Y-109552880D01*
X160987500Y-109552880D02*
X161375000Y-109165380D01*
X161375000Y-109165380D02*
X161375000Y-107984620D01*
X161877236Y-111947549D02*
X161447549Y-111947549D01*
%TO.N,/ESC1/L01*%
X164200000Y-114900000D02*
X164760000Y-114900000D01*
X162568960Y-112042102D02*
X162568960Y-113268960D01*
X162502858Y-111976000D02*
X162568960Y-112042102D01*
X162568960Y-113268960D02*
X164200000Y-114900000D01*
%TO.N,/ESC1/H02*%
X167766500Y-107056500D02*
X167413860Y-107056500D01*
X172175000Y-107575000D02*
X171636500Y-107036500D01*
X167786500Y-107036500D02*
X167766500Y-107056500D01*
X171636500Y-107036500D02*
X167786500Y-107036500D01*
X167413860Y-107056500D02*
X167099998Y-107370362D01*
X172175000Y-108875000D02*
X172175000Y-107575000D01*
%TO.N,/ESC1/L02*%
X162537500Y-110900000D02*
X162437500Y-111000000D01*
X164960000Y-110900000D02*
X162537500Y-110900000D01*
%TO.N,/ESC1/H03*%
X163293000Y-107400000D02*
X163000000Y-107693000D01*
X163000000Y-109200000D02*
X163300000Y-109500000D01*
X172540000Y-106160000D02*
X172315500Y-106384500D01*
X166715500Y-106384500D02*
X166200000Y-106900000D01*
X164413287Y-110236713D02*
X164250000Y-110400000D01*
X166200000Y-106900000D02*
X165000000Y-106900000D01*
X172540000Y-105400000D02*
X172540000Y-106160000D01*
X172315500Y-106384500D02*
X166715500Y-106384500D01*
X164000000Y-109500000D02*
X164413287Y-109913287D01*
X163000000Y-107693000D02*
X163000000Y-109200000D01*
X163300000Y-109500000D02*
X164000000Y-109500000D01*
X164413287Y-109913287D02*
X164413287Y-110236713D01*
X164500000Y-107400000D02*
X163293000Y-107400000D01*
X165000000Y-106900000D02*
X164500000Y-107400000D01*
%TO.N,/ESC1/L03*%
X164800000Y-106300000D02*
X164200000Y-106900000D01*
X166500000Y-105800000D02*
X166500000Y-106100000D01*
X165176500Y-106223500D02*
X165100000Y-106300000D01*
X166300000Y-106300000D02*
X165100000Y-106300000D01*
X161700000Y-108119240D02*
X161700000Y-111200000D01*
X162919240Y-106900000D02*
X161700000Y-108119240D01*
X166500000Y-106100000D02*
X166300000Y-106300000D01*
X165100000Y-106300000D02*
X164800000Y-106300000D01*
X164200000Y-106900000D02*
X162919240Y-106900000D01*
%TO.N,Net-(U1-PA5)*%
X147228095Y-103287500D02*
X147215596Y-103275000D01*
X143750000Y-103275000D02*
X143500000Y-103525000D01*
X148037189Y-103956428D02*
X147368261Y-103287500D01*
X141375000Y-106550000D02*
X139465000Y-106550000D01*
X151200000Y-107500000D02*
X151200000Y-108225000D01*
X143500000Y-103525000D02*
X143500000Y-104425000D01*
X143500000Y-104425000D02*
X141375000Y-106550000D01*
X147215596Y-103275000D02*
X143750000Y-103275000D01*
X147368261Y-103287500D02*
X147228095Y-103287500D01*
X148457710Y-103956428D02*
X148037189Y-103956428D01*
X151200000Y-108225000D02*
X151100000Y-108325000D01*
%TO.N,Net-(U1-PA4)*%
X147725000Y-111300000D02*
X148175000Y-111300000D01*
X148175000Y-111300000D02*
X149498500Y-109976500D01*
X147212500Y-111812500D02*
X147725000Y-111300000D01*
X149498500Y-109540466D02*
X150063966Y-108975000D01*
X146322120Y-111812500D02*
X147212500Y-111812500D01*
X142112500Y-111812500D02*
X143583261Y-111812500D01*
X151600000Y-108130343D02*
X151782118Y-108312461D01*
X151782118Y-108492118D02*
X151782118Y-108312461D01*
X143583261Y-111812500D02*
X143844261Y-112073500D01*
X151546051Y-108562500D02*
X151842500Y-108562500D01*
X151842500Y-108562500D02*
X152665000Y-109385000D01*
X152665000Y-109385000D02*
X152675000Y-109385000D01*
X150063966Y-108975000D02*
X151133551Y-108975000D01*
X149498500Y-109976500D02*
X149498500Y-109540466D01*
X151133551Y-108975000D02*
X151546051Y-108562500D01*
X152675000Y-109385000D02*
X151782118Y-108492118D01*
X151600000Y-107500000D02*
X151600000Y-108130343D01*
X143844261Y-112073500D02*
X146061120Y-112073500D01*
X140825000Y-110525000D02*
X142112500Y-111812500D01*
X146061120Y-112073500D02*
X146322120Y-111812500D01*
X139715000Y-110525000D02*
X140825000Y-110525000D01*
%TO.N,Net-(U1-PA0)*%
X154075000Y-106450000D02*
X154075000Y-107275000D01*
X150750000Y-111475000D02*
X150850000Y-111375000D01*
X153200000Y-106300000D02*
X153925000Y-106300000D01*
X154075000Y-107275000D02*
X154125000Y-107325000D01*
X153925000Y-106300000D02*
X154075000Y-106450000D01*
X154125000Y-109375000D02*
X154125000Y-107325000D01*
X149765000Y-111475000D02*
X150750000Y-111475000D01*
X152125000Y-111375000D02*
X154125000Y-109375000D01*
X150850000Y-111375000D02*
X152125000Y-111375000D01*
%TO.N,Net-(U1-PA1)*%
X152675000Y-109865000D02*
X152675000Y-109910000D01*
X153160000Y-109865000D02*
X152675000Y-109865000D01*
X151775000Y-109470579D02*
X151540294Y-109235873D01*
X151775000Y-110810000D02*
X151775000Y-109470579D01*
X153500000Y-107000000D02*
X153500000Y-109525000D01*
X153200000Y-106700000D02*
X153500000Y-107000000D01*
X152675000Y-109910000D02*
X151775000Y-110810000D01*
X153500000Y-109525000D02*
X153425000Y-109600000D01*
X153425000Y-109600000D02*
X153160000Y-109865000D01*
%TO.N,Net-(U1-BOOT0)*%
X153200000Y-104300000D02*
X153200000Y-104025000D01*
X153162500Y-103987500D02*
X153025000Y-103987500D01*
X153200000Y-104025000D02*
X153162500Y-103987500D01*
%TO.N,Net-(U1-NRST)*%
X153200000Y-105500000D02*
X153884519Y-105500000D01*
X153884519Y-105500000D02*
X153946413Y-105438106D01*
%TO.N,Net-(U1-PA2)*%
X151775000Y-90475000D02*
X153150000Y-91850000D01*
X152400000Y-107500000D02*
X152775000Y-107500000D01*
X154150000Y-93894240D02*
X154150000Y-102350000D01*
X154125000Y-93325000D02*
X154125000Y-93869240D01*
X154125000Y-93869240D02*
X154150000Y-93894240D01*
X153150000Y-92240380D02*
X153725000Y-92815381D01*
X152775000Y-107500000D02*
X152900000Y-107625000D01*
X153150000Y-91850000D02*
X153150000Y-92240380D01*
X154150000Y-102350000D02*
X153825000Y-102675000D01*
X153725000Y-92815381D02*
X153725000Y-92925000D01*
X153725000Y-92925000D02*
X154125000Y-93325000D01*
%TO.N,/ESC2/H01*%
X144950000Y-106372290D02*
X144894988Y-106317278D01*
X144894988Y-106317278D02*
X144822237Y-106317278D01*
X144822237Y-106317278D02*
X144729076Y-106410439D01*
X144950000Y-106590000D02*
X144950000Y-106372290D01*
%TO.N,/ESC2/H02*%
X141820474Y-107922474D02*
X141820474Y-106962500D01*
X144290000Y-108250000D02*
X142148000Y-108250000D01*
X142148000Y-108250000D02*
X141820474Y-107922474D01*
%TO.N,/ESC2/L01*%
X145450000Y-110410000D02*
X145450000Y-110980991D01*
X145450000Y-110980991D02*
X145508564Y-111039555D01*
%TO.N,/ESC2/L02*%
X143184140Y-110953759D02*
X143184140Y-110615188D01*
X146021064Y-111478936D02*
X145751500Y-111748500D01*
X145950000Y-110410000D02*
X146021064Y-110481064D01*
X143978880Y-111748500D02*
X143184140Y-110953759D01*
X145751500Y-111748500D02*
X143978880Y-111748500D01*
X146021064Y-110481064D02*
X146021064Y-111478936D01*
%TO.N,/ESC2/L03*%
X146450000Y-111125000D02*
X146575000Y-111250000D01*
X146450000Y-110410000D02*
X146450000Y-111125000D01*
%TO.N,/ESC2/H03*%
X144345335Y-109805335D02*
X144345335Y-110891450D01*
X144290000Y-109750000D02*
X144345335Y-109805335D01*
%TO.N,Net-(U11-PA5)*%
X148186500Y-98696064D02*
X148511500Y-99021064D01*
X145125000Y-98050000D02*
X147825000Y-98050000D01*
X148511500Y-99361500D02*
X148650000Y-99500000D01*
X148511500Y-99021064D02*
X148511500Y-99361500D01*
X147825000Y-98050000D02*
X148186500Y-98411500D01*
X148186500Y-98411500D02*
X148186500Y-98696064D01*
X141175000Y-94500000D02*
X141325000Y-94350000D01*
X142175000Y-95100000D02*
X145125000Y-98050000D01*
X139740000Y-94500000D02*
X141175000Y-94500000D01*
X148650000Y-99500000D02*
X149200000Y-99500000D01*
%TO.N,Net-(U11-PA4)*%
X139090000Y-98500000D02*
X144655761Y-98500000D01*
X144655761Y-98500000D02*
X146055761Y-99900000D01*
X146055761Y-99900000D02*
X149200000Y-99900000D01*
%TO.N,Net-(U11-PA0)*%
X147787285Y-101937500D02*
X148524785Y-102675000D01*
X147250215Y-102050000D02*
X147362715Y-101937500D01*
X148524785Y-102675000D02*
X150125000Y-102675000D01*
X145890215Y-102785000D02*
X146625215Y-102050000D01*
X150125000Y-102675000D02*
X150400000Y-102400000D01*
X146625215Y-102050000D02*
X147250215Y-102050000D01*
X150400000Y-102400000D02*
X150400000Y-101500000D01*
X139375000Y-102510000D02*
X139650000Y-102785000D01*
X147362715Y-101937500D02*
X147787285Y-101937500D01*
X139375000Y-102500000D02*
X139375000Y-102510000D01*
X139650000Y-102785000D02*
X145890215Y-102785000D01*
%TO.N,Net-(U11-PA1)*%
X147675000Y-98590000D02*
X147675000Y-98983019D01*
X148225000Y-100715000D02*
X147950000Y-100440000D01*
X150000000Y-101870000D02*
X150000000Y-101500000D01*
X148625000Y-102085000D02*
X148625000Y-101625000D01*
X147675000Y-98983019D02*
X147999000Y-99307019D01*
X148225000Y-101225000D02*
X148225000Y-100715000D01*
X148625000Y-101625000D02*
X148225000Y-101225000D01*
X149785000Y-102085000D02*
X150000000Y-101870000D01*
X149785000Y-102085000D02*
X148625000Y-102085000D01*
%TO.N,Net-(U11-BOOT0)*%
X152900000Y-101200002D02*
X152699998Y-101200002D01*
X152699998Y-101200002D02*
X152400000Y-101500000D01*
%TO.N,Net-(U11-NRST)*%
X151200000Y-102225000D02*
X151200000Y-101500000D01*
X151797015Y-102313058D02*
X151288058Y-102313058D01*
X151288058Y-102313058D02*
X151200000Y-102225000D01*
%TO.N,Net-(U11-PA2)*%
X149200000Y-100700000D02*
X149200000Y-101225214D01*
X149200000Y-101225214D02*
X149187607Y-101237607D01*
X149200000Y-100700000D02*
X149200000Y-100725000D01*
%TO.N,/ESC3/H01*%
X150110000Y-93031357D02*
X150493829Y-92647528D01*
X150110000Y-93250000D02*
X150110000Y-93031357D01*
%TO.N,/ESC3/H02*%
X145454632Y-98839252D02*
X145937516Y-98839252D01*
X148450000Y-91250000D02*
X148450000Y-92590000D01*
X144603663Y-97988283D02*
X145454632Y-98839252D01*
X145937516Y-98839252D02*
X145958732Y-98818036D01*
X142253326Y-97988283D02*
X144603663Y-97988283D01*
%TO.N,/ESC3/L01*%
X146290000Y-93750000D02*
X145675000Y-93750000D01*
%TO.N,/ESC3/L02*%
X145596298Y-94250000D02*
X145023256Y-94823042D01*
X146290000Y-94250000D02*
X145596298Y-94250000D01*
%TO.N,/ESC3/L03*%
X146290000Y-94750000D02*
X145821083Y-94750000D01*
X145821083Y-94750000D02*
X145235541Y-95335542D01*
X144810971Y-95335542D02*
X144266445Y-94791016D01*
X145235541Y-95335542D02*
X144810971Y-95335542D01*
X144266445Y-94791016D02*
X144266445Y-94297227D01*
%TO.N,/ESC3/H03*%
X146875000Y-91625000D02*
X146875000Y-92515000D01*
X146875000Y-92515000D02*
X146950000Y-92590000D01*
%TO.N,Net-(U16-PA5)*%
X167425000Y-94450000D02*
X166925000Y-94450000D01*
X166925000Y-94450000D02*
X166150000Y-95225000D01*
%TO.N,Net-(U16-PA1)*%
X160450000Y-100985270D02*
X160332643Y-101102627D01*
X160450000Y-99300000D02*
X160450000Y-100985270D01*
%TO.N,Net-(U16-BOOT0)*%
X156050000Y-100315000D02*
X156050000Y-100853988D01*
X156050000Y-100853988D02*
X155654987Y-101249001D01*
%TO.N,Net-(U16-NRST)*%
X155075000Y-101324703D02*
X156140457Y-102390160D01*
X156812607Y-102515540D02*
X156812607Y-102413455D01*
X156140457Y-102390160D02*
X156835902Y-102390160D01*
X156812607Y-102413455D02*
X156835902Y-102390160D01*
X155075000Y-100290000D02*
X155075000Y-101324703D01*
X156848534Y-102551467D02*
X156812607Y-102515540D01*
%TO.N,Net-(U16-PA2)*%
X154450000Y-92925000D02*
X154450000Y-93734620D01*
X158912500Y-98197120D02*
X158912500Y-101700000D01*
X153700000Y-90600000D02*
X153700000Y-92175000D01*
X154450000Y-93734620D02*
X158912500Y-98197120D01*
X153700000Y-92175000D02*
X154450000Y-92925000D01*
%TO.N,/ESC4/H01*%
X161287500Y-98953095D02*
X161250000Y-98915595D01*
X163100000Y-102650000D02*
X161737500Y-101287500D01*
X166809620Y-102200000D02*
X166359621Y-102650000D01*
X161250000Y-95425000D02*
X159100000Y-93275000D01*
X157924486Y-93275000D02*
X157538279Y-92888793D01*
X166359621Y-102650000D02*
X163100000Y-102650000D01*
X161287500Y-99646904D02*
X161287500Y-98953095D01*
X172000000Y-102200000D02*
X166809620Y-102200000D01*
X161737500Y-100096904D02*
X161287500Y-99646904D01*
X161737500Y-101287500D02*
X161737500Y-100096904D01*
X172490000Y-101425000D02*
X172490000Y-101710000D01*
X161250000Y-98915595D02*
X161250000Y-95425000D01*
X172490000Y-101710000D02*
X172000000Y-102200000D01*
X159100000Y-93275000D02*
X157924486Y-93275000D01*
%TO.N,/ESC4/H02*%
X172390000Y-97475000D02*
X172390000Y-98385000D01*
X168162284Y-99007500D02*
X167404000Y-99007500D01*
X167375000Y-99036500D02*
X167306500Y-99036500D01*
X171767500Y-99007500D02*
X170737716Y-99007500D01*
X167375000Y-99036500D02*
X166513500Y-99036500D01*
X170708716Y-99036500D02*
X168191284Y-99036500D01*
X168191284Y-99036500D02*
X168162284Y-99007500D01*
X172390000Y-98385000D02*
X171767500Y-99007500D01*
X167404000Y-99007500D02*
X167375000Y-99036500D01*
X170737716Y-99007500D02*
X170708716Y-99036500D01*
X166513500Y-99036500D02*
X166500000Y-99050000D01*
%TO.N,/ESC4/L01*%
X164935000Y-102050000D02*
X164547500Y-101662500D01*
X163047120Y-97952880D02*
X163050000Y-97950000D01*
X163047120Y-101177880D02*
X163047120Y-97952880D01*
X164547500Y-101662500D02*
X163531740Y-101662500D01*
X163531740Y-101662500D02*
X163047120Y-101177880D01*
X162550000Y-97450000D02*
X162550000Y-93920107D01*
X162550000Y-93920107D02*
X162732607Y-93737500D01*
X163050000Y-97950000D02*
X162550000Y-97450000D01*
%TO.N,/ESC4/L02*%
X164046272Y-95000000D02*
X163460529Y-94414257D01*
X164935000Y-95000000D02*
X164046272Y-95000000D01*
%TO.N,/ESC4/L03*%
X164850000Y-93975000D02*
X164350000Y-94475000D01*
X164910000Y-93975000D02*
X164850000Y-93975000D01*
%TO.N,/ESC4/H03*%
X172575000Y-93475000D02*
X172575000Y-92018000D01*
X171395500Y-90838500D02*
X166115499Y-90838500D01*
X166115499Y-90838500D02*
X165878499Y-90601500D01*
X165878499Y-90601500D02*
X162573500Y-90601500D01*
X162573500Y-90601500D02*
X161450000Y-91725000D01*
X172575000Y-92018000D02*
X171395500Y-90838500D01*
D39*
%TO.N,Net-(U21-EN)*%
X163250000Y-117150000D02*
X164550000Y-117150000D01*
X164550000Y-117150000D02*
X164600000Y-117100000D01*
%TO.N,Net-(U21-FB)*%
X159200000Y-115800000D02*
X159200000Y-117050000D01*
X159200000Y-117050000D02*
X160450000Y-117050000D01*
X160450000Y-117050000D02*
X160550000Y-117150000D01*
D38*
%TO.N,/ESC1/SWCLK*%
X159275000Y-97925000D02*
X154775000Y-93425000D01*
X146650000Y-86975000D02*
X146225000Y-86550000D01*
X158925000Y-102825000D02*
X159375000Y-102375000D01*
X159375000Y-99109619D02*
X159275000Y-99009618D01*
X150850000Y-86975000D02*
X146650000Y-86975000D01*
X155075000Y-91200000D02*
X150850000Y-86975000D01*
X159275000Y-99009618D02*
X159275000Y-97925000D01*
X154775000Y-93425000D02*
X155075000Y-93125000D01*
X155075000Y-93125000D02*
X155075000Y-91200000D01*
X159375000Y-102375000D02*
X159375000Y-99109619D01*
X158925000Y-103250000D02*
X158925000Y-102825000D01*
%TO.N,/ESC1/SWDIO*%
X147533306Y-86425000D02*
X147325000Y-86216694D01*
X159566713Y-102658287D02*
X159725000Y-102500000D01*
X150825000Y-86425000D02*
X148075000Y-86425000D01*
X147325000Y-86216694D02*
X145558306Y-84450000D01*
X148075000Y-86425000D02*
X147533306Y-86425000D01*
X155675000Y-91275000D02*
X150825000Y-86425000D01*
X159725708Y-97850708D02*
X155675000Y-93800000D01*
X155675000Y-91825000D02*
X155675000Y-91275000D01*
X145558306Y-84450000D02*
X143475000Y-84450000D01*
X159725000Y-102500000D02*
X159725000Y-101951416D01*
X155675000Y-93800000D02*
X155675000Y-91825000D01*
X159725708Y-101950708D02*
X159725708Y-97850708D01*
X159566713Y-103300000D02*
X159566713Y-102658287D01*
X155675000Y-91825000D02*
X155675000Y-91725000D01*
X159725000Y-101951416D02*
X159725708Y-101950708D01*
%TO.N,/ESC2/SWCLK*%
X150000000Y-103500000D02*
X149501000Y-103001000D01*
X149501000Y-103001000D02*
X148126000Y-103001000D01*
X148126000Y-103001000D02*
X147575000Y-102450000D01*
%TO.N,/ESC2/SWDIO*%
X147502881Y-102962500D02*
X147362715Y-102962500D01*
X147362715Y-102962500D02*
X147150215Y-102750000D01*
X147866381Y-103326000D02*
X147502881Y-102962500D01*
X147150215Y-102750000D02*
X146625000Y-102750000D01*
X149200000Y-104300000D02*
X149200000Y-103944510D01*
X149200000Y-103944510D02*
X148581490Y-103326000D01*
X148581490Y-103326000D02*
X147866381Y-103326000D01*
%TO.N,/ESC3/SWCLK*%
X158575000Y-90500000D02*
X161800000Y-87275000D01*
X155850000Y-90500000D02*
X158575000Y-90500000D01*
X153200000Y-98300000D02*
X153200000Y-98000000D01*
X153200000Y-98000000D02*
X152900000Y-97700000D01*
%TO.N,/ESC3/SWDIO*%
X152400000Y-97500000D02*
X152400000Y-96650000D01*
X152400000Y-96650000D02*
X152500000Y-96550000D01*
X159850000Y-85600000D02*
X163925000Y-85600000D01*
X155375000Y-90075000D02*
X158875000Y-86575000D01*
X158875000Y-86575000D02*
X159850000Y-85600000D01*
X163925000Y-85600000D02*
X165125000Y-84400000D01*
X158875000Y-86575000D02*
X158925000Y-86525000D01*
%TO.N,/ESC2/HI2*%
X148511500Y-105026000D02*
X147415795Y-105026000D01*
X148746119Y-105100000D02*
X148709619Y-105063500D01*
X149200000Y-105100000D02*
X148746119Y-105100000D01*
X146950000Y-105491795D02*
X146950000Y-106590000D01*
X148709619Y-105063500D02*
X148549000Y-105063500D01*
X148549000Y-105063500D02*
X148511500Y-105026000D01*
X147415795Y-105026000D02*
X146950000Y-105491795D01*
%TO.N,/ESC2/LI1*%
X148110000Y-107250000D02*
X148650000Y-107250000D01*
X148650000Y-107250000D02*
X149200000Y-106700000D01*
%TO.N,/ESC2/HI1*%
X146450000Y-105530761D02*
X147280761Y-104700000D01*
X147280761Y-104700000D02*
X149200000Y-104700000D01*
X146450000Y-106590000D02*
X146450000Y-105530761D01*
%TO.N,/ESC2/LI2*%
X149750000Y-107750000D02*
X150000000Y-107500000D01*
X148110000Y-107750000D02*
X149750000Y-107750000D01*
%TO.N,/ESC2/LI3*%
X150400000Y-108152000D02*
X150302000Y-108250000D01*
X150302000Y-108250000D02*
X148110000Y-108250000D01*
X150400000Y-107500000D02*
X150400000Y-108152000D01*
%TO.N,/ESC2/HI3*%
X147353500Y-106493500D02*
X147353500Y-105771500D01*
X147736500Y-105388500D02*
X148436500Y-105388500D01*
X149163500Y-105463500D02*
X149200000Y-105500000D01*
X147450000Y-106590000D02*
X147353500Y-106493500D01*
X148511500Y-105463500D02*
X149163500Y-105463500D01*
X148436500Y-105388500D02*
X148511500Y-105463500D01*
X147353500Y-105771500D02*
X147736500Y-105388500D01*
%TO.N,/ESC3/LI3*%
X149200000Y-98700000D02*
X148650000Y-98700000D01*
X148511500Y-96471500D02*
X148450000Y-96410000D01*
X148511500Y-98561500D02*
X148511500Y-96471500D01*
X148650000Y-98700000D02*
X148511500Y-98561500D01*
%TO.N,/ESC3/LI2*%
X149200000Y-98300000D02*
X148950000Y-98050000D01*
X148950000Y-98050000D02*
X148950000Y-96410000D01*
%TO.N,/ESC3/LI1*%
X150000000Y-97425000D02*
X149450000Y-96875000D01*
X150000000Y-97500000D02*
X150000000Y-97425000D01*
X149450000Y-96875000D02*
X149450000Y-96410000D01*
%TO.N,/ESC3/HI3*%
X151200000Y-96650000D02*
X150300000Y-95750000D01*
X151200000Y-97500000D02*
X151200000Y-96650000D01*
X150300000Y-95750000D02*
X150110000Y-95750000D01*
%TO.N,/ESC3/HI1*%
X152000000Y-97500000D02*
X152000000Y-96143000D01*
X150607000Y-94750000D02*
X150110000Y-94750000D01*
X152000000Y-96143000D02*
X150607000Y-94750000D01*
%TO.N,/ESC3/HI2*%
X150607000Y-95250000D02*
X150110000Y-95250000D01*
X151600000Y-96243000D02*
X150607000Y-95250000D01*
X151600000Y-97500000D02*
X151600000Y-96243000D01*
D39*
%TO.N,Net-(U24-OUT)*%
X148650000Y-116650000D02*
X148750000Y-116650000D01*
X148750000Y-116650000D02*
X149400000Y-117300000D01*
D40*
%TO.N,/VIN*%
X151330000Y-118200000D02*
X148950000Y-118200000D01*
D39*
X167650000Y-111520000D02*
X167650000Y-112170000D01*
X166330000Y-112830000D02*
X167650000Y-112830000D01*
D40*
X166455000Y-96830000D02*
X166125000Y-96500000D01*
X167950000Y-101480000D02*
X167950000Y-100830000D01*
D39*
X167650000Y-113480000D02*
X167650000Y-112830000D01*
X164600000Y-118100000D02*
X164600000Y-118800000D01*
X164600000Y-118800000D02*
X164700000Y-118900000D01*
D41*
X150996169Y-117866169D02*
X151330000Y-118200000D01*
D40*
X167950000Y-92830000D02*
X166530000Y-92830000D01*
D39*
X166630000Y-108830000D02*
X166200000Y-108400000D01*
X167650000Y-112170000D02*
X166330000Y-112170000D01*
X167950000Y-105480000D02*
X167950000Y-104830000D01*
D40*
X166530000Y-92170000D02*
X166237500Y-92462500D01*
D39*
X166000000Y-112500000D02*
X166330000Y-112830000D01*
X167950000Y-109480000D02*
X167950000Y-108830000D01*
D40*
X166200000Y-100575000D02*
X166550000Y-100225000D01*
X167950000Y-96170000D02*
X166455000Y-96170000D01*
X148950000Y-118200000D02*
X148650000Y-118500000D01*
D39*
X164600000Y-118100000D02*
X163250000Y-118100000D01*
D40*
X167950000Y-92170000D02*
X166530000Y-92170000D01*
X167950000Y-99520000D02*
X167950000Y-100170000D01*
X167880000Y-100900000D02*
X167950000Y-100830000D01*
D39*
X167950000Y-108830000D02*
X166630000Y-108830000D01*
D40*
X167950000Y-96830000D02*
X166455000Y-96830000D01*
X169710000Y-92170000D02*
X169700000Y-92180000D01*
D38*
X169720000Y-109500000D02*
X169700000Y-109480000D01*
D39*
X167950000Y-104830000D02*
X166730000Y-104830000D01*
D40*
X166550000Y-100225000D02*
X167895000Y-100225000D01*
X166237500Y-92462500D02*
X166200000Y-92500000D01*
D39*
X167950000Y-108170000D02*
X166430000Y-108170000D01*
D40*
X166530000Y-92830000D02*
X166200000Y-92500000D01*
X166455000Y-96170000D02*
X166125000Y-96500000D01*
D39*
X166300000Y-104400000D02*
X166530000Y-104170000D01*
X166530000Y-104170000D02*
X167950000Y-104170000D01*
D40*
X167950000Y-91520000D02*
X167950000Y-92170000D01*
X167950000Y-93480000D02*
X167950000Y-92830000D01*
X167895000Y-100225000D02*
X167950000Y-100170000D01*
D39*
X167950000Y-107520000D02*
X167950000Y-108170000D01*
D40*
X167950000Y-97480000D02*
X167950000Y-96830000D01*
X167950000Y-95520000D02*
X167950000Y-96170000D01*
X166525000Y-100900000D02*
X167880000Y-100900000D01*
D39*
X167950000Y-104170000D02*
X167950000Y-103520000D01*
D41*
X150499998Y-117866169D02*
X150996169Y-117866169D01*
D38*
X169720000Y-113500000D02*
X169700000Y-113480000D01*
D40*
X166200000Y-100575000D02*
X166525000Y-100900000D01*
D39*
X166430000Y-108170000D02*
X166200000Y-108400000D01*
X149130000Y-116000000D02*
X151330000Y-118200000D01*
D38*
X169720000Y-105500000D02*
X169700000Y-105480000D01*
D39*
X148650000Y-116000000D02*
X149130000Y-116000000D01*
X166330000Y-112170000D02*
X166000000Y-112500000D01*
X166730000Y-104830000D02*
X166300000Y-104400000D01*
%TD*%
M02*
