M48
; DRILL file {KiCad 9.0.6} date 2025-12-26T21:42:13+0100
; FORMAT={-:-/ absolute / metric / decimal}
; #@! TF.CreationDate,2025-12-26T21:42:13+01:00
; #@! TF.GenerationSoftware,Kicad,Pcbnew,9.0.6
; #@! TF.FileFunction,Plated,1,3,Blind
FMAT,2
METRIC
; #@! TA.AperFunction,Plated,Buried,ViaDrill
T1C0.200
%
G90
G05
T1
X141.075Y-92.15
X141.075Y-92.8
X141.075Y-96.825
X141.075Y-108.175
X141.075Y-108.8
X141.1Y-96.175
X141.1Y-104.175
X141.1Y-112.825
X141.125Y-100.15
X141.125Y-112.175
X141.15Y-100.8
X141.15Y-104.85
X149.9Y-109.3
X153.8Y-113.4
X156.325Y-95.05
X157.182Y-93.493
X157.9Y-96.625
X158.5Y-88.225
X158.525Y-87.65
X158.7Y-108.8
X159.7Y-117.2
X160.275Y-89.775
X160.355Y-98.074
X160.428Y-105.842
X161.726Y-104.772
X165.9Y-109.2
X166.0Y-107.7
M30
