%TF.GenerationSoftware,KiCad,Pcbnew,9.0.6*%
%TF.CreationDate,2025-12-27T02:42:00+01:00*%
%TF.ProjectId,hardware,68617264-7761-4726-952e-6b696361645f,rev?*%
%TF.SameCoordinates,Original*%
%TF.FileFunction,Copper,L1,Top*%
%TF.FilePolarity,Positive*%
%FSLAX46Y46*%
G04 Gerber Fmt 4.6, Leading zero omitted, Abs format (unit mm)*
G04 Created by KiCad (PCBNEW 9.0.6) date 2025-12-27 02:42:00*
%MOMM*%
%LPD*%
G01*
G04 APERTURE LIST*
G04 Aperture macros list*
%AMRoundRect*
0 Rectangle with rounded corners*
0 $1 Rounding radius*
0 $2 $3 $4 $5 $6 $7 $8 $9 X,Y pos of 4 corners*
0 Add a 4 corners polygon primitive as box body*
4,1,4,$2,$3,$4,$5,$6,$7,$8,$9,$2,$3,0*
0 Add four circle primitives for the rounded corners*
1,1,$1+$1,$2,$3*
1,1,$1+$1,$4,$5*
1,1,$1+$1,$6,$7*
1,1,$1+$1,$8,$9*
0 Add four rect primitives between the rounded corners*
20,1,$1+$1,$2,$3,$4,$5,0*
20,1,$1+$1,$4,$5,$6,$7,0*
20,1,$1+$1,$6,$7,$8,$9,0*
20,1,$1+$1,$8,$9,$2,$3,0*%
G04 Aperture macros list end*
%TA.AperFunction,SMDPad,CuDef*%
%ADD10RoundRect,0.180000X0.420000X-0.570000X0.420000X0.570000X-0.420000X0.570000X-0.420000X-0.570000X0*%
%TD*%
%TA.AperFunction,SMDPad,CuDef*%
%ADD11R,1.550000X0.600000*%
%TD*%
%TA.AperFunction,SMDPad,CuDef*%
%ADD12R,1.800000X1.200000*%
%TD*%
%TA.AperFunction,SMDPad,CuDef*%
%ADD13R,0.900000X0.800000*%
%TD*%
%TA.AperFunction,SMDPad,CuDef*%
%ADD14R,0.600000X1.550000*%
%TD*%
%TA.AperFunction,SMDPad,CuDef*%
%ADD15R,1.500000X2.000000*%
%TD*%
%TA.AperFunction,SMDPad,CuDef*%
%ADD16R,0.320000X0.370000*%
%TD*%
%TA.AperFunction,SMDPad,CuDef*%
%ADD17R,2.000000X0.800000*%
%TD*%
%TA.AperFunction,SMDPad,CuDef*%
%ADD18R,0.300000X0.320000*%
%TD*%
%TA.AperFunction,SMDPad,CuDef*%
%ADD19R,1.200000X1.800000*%
%TD*%
%TA.AperFunction,SMDPad,CuDef*%
%ADD20R,0.800000X0.900000*%
%TD*%
%TA.AperFunction,SMDPad,CuDef*%
%ADD21R,0.320000X0.300000*%
%TD*%
%TA.AperFunction,SMDPad,CuDef*%
%ADD22R,0.640000X0.540000*%
%TD*%
%TA.AperFunction,SMDPad,CuDef*%
%ADD23R,2.150000X3.320000*%
%TD*%
%TA.AperFunction,SMDPad,CuDef*%
%ADD24R,2.000000X1.500000*%
%TD*%
%TA.AperFunction,SMDPad,CuDef*%
%ADD25R,0.370000X0.320000*%
%TD*%
%TA.AperFunction,SMDPad,CuDef*%
%ADD26O,1.730000X0.340000*%
%TD*%
%TA.AperFunction,SMDPad,CuDef*%
%ADD27R,2.900000X6.700000*%
%TD*%
%TA.AperFunction,SMDPad,CuDef*%
%ADD28R,0.810000X0.860000*%
%TD*%
%TA.AperFunction,SMDPad,CuDef*%
%ADD29R,1.100000X0.800000*%
%TD*%
%TA.AperFunction,SMDPad,CuDef*%
%ADD30RoundRect,0.140000X-0.140000X-0.170000X0.140000X-0.170000X0.140000X0.170000X-0.140000X0.170000X0*%
%TD*%
%TA.AperFunction,SMDPad,CuDef*%
%ADD31R,0.790000X0.540000*%
%TD*%
%TA.AperFunction,SMDPad,CuDef*%
%ADD32RoundRect,0.150000X-0.512500X-0.150000X0.512500X-0.150000X0.512500X0.150000X-0.512500X0.150000X0*%
%TD*%
%TA.AperFunction,SMDPad,CuDef*%
%ADD33R,1.520000X0.800000*%
%TD*%
%TA.AperFunction,SMDPad,CuDef*%
%ADD34O,0.330000X1.500000*%
%TD*%
%TA.AperFunction,ComponentPad*%
%ADD35C,0.700000*%
%TD*%
%TA.AperFunction,SMDPad,CuDef*%
%ADD36R,1.100000X0.550000*%
%TD*%
%TA.AperFunction,SMDPad,CuDef*%
%ADD37R,1.100000X0.300000*%
%TD*%
%TA.AperFunction,ComponentPad*%
%ADD38O,2.000000X1.100000*%
%TD*%
%TA.AperFunction,ComponentPad*%
%ADD39O,1.800000X1.200000*%
%TD*%
%TA.AperFunction,ViaPad*%
%ADD40C,0.600000*%
%TD*%
%TA.AperFunction,ViaPad*%
%ADD41C,5.000000*%
%TD*%
%TA.AperFunction,Conductor*%
%ADD42C,0.200000*%
%TD*%
%TA.AperFunction,Conductor*%
%ADD43C,0.150000*%
%TD*%
%TA.AperFunction,Conductor*%
%ADD44C,0.250000*%
%TD*%
%TA.AperFunction,Conductor*%
%ADD45C,0.500000*%
%TD*%
G04 APERTURE END LIST*
D10*
%TO.P,U67,1,1*%
%TO.N,SWDIO*%
X164500000Y-90000000D03*
%TD*%
D11*
%TO.P,METEOR1,1,1*%
%TO.N,VBAT*%
X167460000Y-101000000D03*
%TO.P,METEOR1,2,2*%
%TO.N,GND*%
X167460000Y-100000000D03*
%TO.P,METEOR1,3,3*%
%TO.N,UART5_RX*%
X167460000Y-99000000D03*
%TO.P,METEOR1,4,4*%
%TO.N,UART5_TX*%
X167460000Y-98000000D03*
%TO.P,METEOR1,5,5*%
%TO.N,BOOT*%
X167460000Y-97000000D03*
D12*
%TO.P,METEOR1,6,6*%
%TO.N,GND*%
X171340000Y-102300000D03*
%TO.P,METEOR1,7,7*%
X171340000Y-95700000D03*
%TD*%
D13*
%TO.P,C28,1,1*%
%TO.N,GND*%
X135750000Y-114550000D03*
%TO.P,C28,2,2*%
%TO.N,Net-(D2-A)*%
X135750000Y-115950000D03*
%TD*%
D14*
%TO.P,BUZ1,1,1*%
%TO.N,BB-*%
X142500000Y-122370000D03*
%TO.P,BUZ1,2,2*%
%TO.N,5V*%
X143500000Y-122370000D03*
%TO.P,BUZ1,3,3*%
%TO.N,GND*%
X144500000Y-122370000D03*
D15*
%TO.P,BUZ1,4,4*%
X145800000Y-126250000D03*
%TO.P,BUZ1,5,5*%
X141200000Y-126250000D03*
%TD*%
D16*
%TO.P,C9,1,1*%
%TO.N,3V3-MCU*%
X158500000Y-119730000D03*
%TO.P,C9,2,2*%
%TO.N,GND*%
X158500000Y-120270000D03*
%TD*%
D17*
%TO.P,U4,1,Input*%
%TO.N,Net-(U4-Input)*%
X165300000Y-108450000D03*
%TO.P,U4,2,GND*%
%TO.N,GND*%
X165300000Y-107250000D03*
%TO.P,U4,3,Output*%
%TO.N,Net-(U4-Output)*%
X165300000Y-106050000D03*
%TD*%
D18*
%TO.P,R18,1,1*%
%TO.N,Net-(U8-NRST)*%
X159740000Y-102900000D03*
%TO.P,R18,2,2*%
%TO.N,3V3-IMU*%
X159260000Y-102900000D03*
%TD*%
%TO.P,R24,1,1*%
%TO.N,GND*%
X143490000Y-92250000D03*
%TO.P,R24,2,2*%
%TO.N,CAM*%
X143010000Y-92250000D03*
%TD*%
D10*
%TO.P,U70,1,1*%
%TO.N,SDA*%
X161500000Y-90000000D03*
%TD*%
D14*
%TO.P,A_VTX1,1,1*%
%TO.N,UART3_TX*%
X159500000Y-122510000D03*
%TO.P,A_VTX1,2,2*%
%TO.N,UART3_RX*%
X160500000Y-122510000D03*
%TO.P,A_VTX1,3,3*%
%TO.N,VTX*%
X161500000Y-122510000D03*
%TO.P,A_VTX1,4,4*%
%TO.N,GND*%
X162500000Y-122510000D03*
%TO.P,A_VTX1,5,5*%
%TO.N,9V*%
X163500000Y-122510000D03*
D19*
%TO.P,A_VTX1,6,6*%
%TO.N,GND*%
X158200000Y-126390000D03*
%TO.P,A_VTX1,7,7*%
X164800000Y-126390000D03*
%TD*%
D20*
%TO.P,C26,1,1*%
%TO.N,VBAT*%
X139550000Y-114250000D03*
%TO.P,C26,2,2*%
%TO.N,GND*%
X140950000Y-114250000D03*
%TD*%
D10*
%TO.P,U15,1,1*%
%TO.N,GND*%
X161500000Y-93000000D03*
%TD*%
D21*
%TO.P,R249,1,1*%
%TO.N,VBAT*%
X137500000Y-117260000D03*
%TO.P,R249,2,2*%
%TO.N,Net-(U52-EN{slash}SYNC)*%
X137500000Y-117740000D03*
%TD*%
%TO.P,R21,1,1*%
%TO.N,Net-(U8-PB2)*%
X149330000Y-107300000D03*
%TO.P,R21,2,2*%
%TO.N,GND*%
X149330000Y-107780000D03*
%TD*%
D10*
%TO.P,U13,1,1*%
%TO.N,GND*%
X161500000Y-96000000D03*
%TD*%
D14*
%TO.P,CAM1,1,1*%
%TO.N,5V*%
X144800000Y-93640000D03*
%TO.P,CAM1,2,2*%
%TO.N,GND*%
X143800000Y-93640000D03*
%TO.P,CAM1,3,3*%
%TO.N,CAM*%
X142800000Y-93640000D03*
D15*
%TO.P,CAM1,4,4*%
%TO.N,GND*%
X141500000Y-89760000D03*
%TO.P,CAM1,5,5*%
X146100000Y-89760000D03*
%TD*%
D16*
%TO.P,C24,1,1*%
%TO.N,Net-(U52-VCC)*%
X139500000Y-119980000D03*
%TO.P,C24,2,2*%
%TO.N,GND*%
X139500000Y-120520000D03*
%TD*%
D22*
%TO.P,LED1,1,-*%
%TO.N,Net-(LED1--)*%
X162160000Y-99500000D03*
%TO.P,LED1,2,+*%
%TO.N,3V3-MCU*%
X163240000Y-99500000D03*
%TD*%
D10*
%TO.P,U59,1,1*%
%TO.N,LED*%
X163000000Y-96000000D03*
%TD*%
D23*
%TO.P,U11,1,1*%
%TO.N,5V*%
X148910000Y-103200000D03*
%TO.P,U11,2,2*%
%TO.N,Net-(U7-SW)*%
X143090000Y-103200000D03*
%TD*%
D10*
%TO.P,U69,1,1*%
%TO.N,SCL*%
X160000000Y-90000000D03*
%TD*%
D14*
%TO.P,HD_VIDEO1,1,1*%
%TO.N,9V*%
X149500000Y-122310000D03*
%TO.P,HD_VIDEO1,2,2*%
%TO.N,GND*%
X150500000Y-122310000D03*
%TO.P,HD_VIDEO1,3,3*%
%TO.N,UART1_TX*%
X151500000Y-122310000D03*
%TO.P,HD_VIDEO1,4,4*%
%TO.N,UART1_RX*%
X152500000Y-122310000D03*
%TO.P,HD_VIDEO1,5,5*%
%TO.N,GND*%
X153500000Y-122310000D03*
%TO.P,HD_VIDEO1,6,6*%
%TO.N,SBUS*%
X154500000Y-122310000D03*
D15*
%TO.P,HD_VIDEO1,7,7*%
%TO.N,GND*%
X155800000Y-126190000D03*
%TO.P,HD_VIDEO1,8,8*%
X148200000Y-126190000D03*
%TD*%
D11*
%TO.P,GPS1,1,1*%
%TO.N,SCL*%
X167360000Y-110800000D03*
%TO.P,GPS1,2,2*%
%TO.N,SDA*%
X167360000Y-109800000D03*
%TO.P,GPS1,3,3*%
%TO.N,UART7_TX*%
X167360000Y-108800000D03*
%TO.P,GPS1,4,4*%
%TO.N,UART7_RX*%
X167360000Y-107800000D03*
%TO.P,GPS1,5,5*%
%TO.N,GND*%
X167360000Y-106800000D03*
%TO.P,GPS1,6,6*%
%TO.N,5V*%
X167360000Y-105800000D03*
D24*
%TO.P,GPS1,7,7*%
%TO.N,GND*%
X171240000Y-104500000D03*
%TO.P,GPS1,8,8*%
X171240000Y-112100000D03*
%TD*%
D10*
%TO.P,U66,1,1*%
%TO.N,SWDCLK*%
X164500000Y-96000000D03*
%TD*%
D18*
%TO.P,R28,1,1*%
%TO.N,Net-(LED2--)*%
X162400000Y-101410000D03*
%TO.P,R28,2,2*%
%TO.N,Net-(U8-PC14)*%
X161920000Y-101410000D03*
%TD*%
D16*
%TO.P,C7,1,1*%
%TO.N,GND*%
X162000000Y-113770000D03*
%TO.P,C7,2,2*%
%TO.N,3V3-MCU*%
X162000000Y-113230000D03*
%TD*%
D18*
%TO.P,R25,1,1*%
%TO.N,Net-(U10-RESET#)*%
X144740000Y-112000000D03*
%TO.P,R25,2,2*%
%TO.N,5V*%
X144260000Y-112000000D03*
%TD*%
D25*
%TO.P,C25,1,1*%
%TO.N,VBAT*%
X137930000Y-113900000D03*
%TO.P,C25,2,2*%
%TO.N,GND*%
X138470000Y-113900000D03*
%TD*%
D10*
%TO.P,U71,1,1*%
%TO.N,SBUS*%
X163000000Y-90000000D03*
%TD*%
D11*
%TO.P,RECIEVER1,1,1*%
%TO.N,GND*%
X167460000Y-119000000D03*
%TO.P,RECIEVER1,2,2*%
%TO.N,5V*%
X167460000Y-118000000D03*
%TO.P,RECIEVER1,3,3*%
%TO.N,UART2_RX*%
X167460000Y-117000000D03*
%TO.P,RECIEVER1,4,4*%
%TO.N,UART2_TX*%
X167460000Y-116000000D03*
D12*
%TO.P,RECIEVER1,5,5*%
%TO.N,GND*%
X171340000Y-114700000D03*
%TO.P,RECIEVER1,6,6*%
X171340000Y-120300000D03*
%TD*%
D16*
%TO.P,C12,1,1*%
%TO.N,GND*%
X162810000Y-113770000D03*
%TO.P,C12,2,2*%
%TO.N,3V3-MCU*%
X162810000Y-113230000D03*
%TD*%
D26*
%TO.P,U10,1,NC*%
%TO.N,unconnected-(U10-NC-Pad1)*%
X151740000Y-117500000D03*
%TO.P,U10,2,NC*%
%TO.N,unconnected-(U10-NC-Pad2)*%
X151740000Y-116850000D03*
%TO.P,U10,3,DVDD*%
%TO.N,5V*%
X151740000Y-116200000D03*
%TO.P,U10,4,DGND*%
%TO.N,GND*%
X151740000Y-115550000D03*
%TO.P,U10,5,CLKIN*%
%TO.N,Net-(U10-CLKIN)*%
X151740000Y-114900000D03*
%TO.P,U10,6,XFB*%
%TO.N,Net-(U10-XFB)*%
X151740000Y-114250000D03*
%TO.P,U10,7,CLKOUT*%
%TO.N,unconnected-(U10-CLKOUT-Pad7)*%
X151740000Y-113590000D03*
%TO.P,U10,8,CS#*%
%TO.N,SPI2_CS*%
X151740000Y-112940000D03*
%TO.P,U10,9,SDIN*%
%TO.N,SPI2_MOSI*%
X151740000Y-112290000D03*
%TO.P,U10,10,SCLK*%
%TO.N,SPI2_SCK*%
X151740000Y-111640000D03*
%TO.P,U10,11,SDOUT*%
%TO.N,SPI2_MISO*%
X151740000Y-110990000D03*
%TO.P,U10,12,LOS*%
%TO.N,unconnected-(U10-LOS-Pad12)*%
X151740000Y-110340000D03*
%TO.P,U10,13,SYNC_IN*%
%TO.N,unconnected-(U10-SYNC_IN-Pad13)*%
X151740000Y-109690000D03*
%TO.P,U10,14,NC*%
%TO.N,unconnected-(U10-NC-Pad14)*%
X151740000Y-109040000D03*
%TO.P,U10,15,NC*%
%TO.N,unconnected-(U10-NC-Pad15)*%
X146000000Y-109040000D03*
%TO.P,U10,16,NC*%
%TO.N,unconnected-(U10-NC-Pad16)*%
X146000000Y-109690000D03*
%TO.P,U10,17,VSYNC#*%
%TO.N,unconnected-(U10-VSYNC#-Pad17)*%
X146000000Y-110340000D03*
%TO.P,U10,18,HSYNC#*%
%TO.N,unconnected-(U10-HSYNC#-Pad18)*%
X146000000Y-110990000D03*
%TO.P,U10,19,RESET#*%
%TO.N,Net-(U10-RESET#)*%
X146000000Y-111640000D03*
%TO.P,U10,20,AGND*%
%TO.N,GND*%
X146000000Y-112290000D03*
%TO.P,U10,21,AVDD*%
%TO.N,5V*%
X146000000Y-112940000D03*
%TO.P,U10,22,VIN*%
%TO.N,Net-(U10-VIN)*%
X146000000Y-113590000D03*
%TO.P,U10,23,PGND*%
%TO.N,GND*%
X146000000Y-114250000D03*
%TO.P,U10,24,PVDD*%
%TO.N,5V*%
X146000000Y-114900000D03*
%TO.P,U10,25,SAG*%
%TO.N,Net-(U10-SAG)*%
X146000000Y-115550000D03*
%TO.P,U10,26,VOUT*%
%TO.N,Net-(U10-VOUT)*%
X146000000Y-116200000D03*
%TO.P,U10,27,NC*%
%TO.N,unconnected-(U10-NC-Pad27)*%
X146000000Y-116850000D03*
%TO.P,U10,28,NC*%
%TO.N,unconnected-(U10-NC-Pad28)*%
X146000000Y-117500000D03*
D27*
%TO.P,U10,29,EP*%
%TO.N,GND*%
X148870000Y-113270000D03*
%TD*%
D18*
%TO.P,R248,1,1*%
%TO.N,FB-5V*%
X137440000Y-119250000D03*
%TO.P,R248,2,2*%
%TO.N,Net-(R246-Pad2)*%
X136960000Y-119250000D03*
%TD*%
D16*
%TO.P,C128,1,1*%
%TO.N,Net-(U52-SW)*%
X141750000Y-117230000D03*
%TO.P,C128,2,2*%
%TO.N,Net-(U52-BST)*%
X141750000Y-117770000D03*
%TD*%
D18*
%TO.P,R246,1,1*%
%TO.N,Net-(D2-A)*%
X135660000Y-120100000D03*
%TO.P,R246,2,2*%
%TO.N,Net-(R246-Pad2)*%
X136140000Y-120100000D03*
%TD*%
D28*
%TO.P,R4,1,1*%
%TO.N,GND*%
X139500000Y-98750000D03*
%TO.P,R4,2,2*%
%TO.N,Net-(U7-FB)*%
X141000000Y-98750000D03*
%TD*%
D14*
%TO.P,ESC1,1,1*%
%TO.N,VBAT*%
X156600000Y-93640000D03*
%TO.P,ESC1,2,2*%
%TO.N,GND*%
X155600000Y-93640000D03*
%TO.P,ESC1,3,3*%
%TO.N,unconnected-(ESC1-Pad3)*%
X154600000Y-93640000D03*
%TO.P,ESC1,4,4*%
%TO.N,CUR*%
X153600000Y-93640000D03*
%TO.P,ESC1,5,5*%
%TO.N,PWM4*%
X152600000Y-93640000D03*
%TO.P,ESC1,6,6*%
%TO.N,PWM3*%
X151600000Y-93640000D03*
%TO.P,ESC1,7,7*%
%TO.N,PWM2*%
X150600000Y-93640000D03*
%TO.P,ESC1,8,8*%
%TO.N,PWM1*%
X149600000Y-93640000D03*
D15*
%TO.P,ESC1,9,9*%
%TO.N,GND*%
X148300000Y-89760000D03*
%TO.P,ESC1,10,10*%
X157900000Y-89760000D03*
%TD*%
D18*
%TO.P,R247,1,1*%
%TO.N,GND*%
X137440000Y-119750000D03*
%TO.P,R247,2,2*%
%TO.N,Net-(R246-Pad2)*%
X136960000Y-119750000D03*
%TD*%
D10*
%TO.P,U5,1,1*%
%TO.N,5V*%
X160000000Y-96000000D03*
%TD*%
D18*
%TO.P,R27,1,1*%
%TO.N,Net-(LED1--)*%
X161240000Y-99600000D03*
%TO.P,R27,2,2*%
%TO.N,Net-(U8-PC13)*%
X160760000Y-99600000D03*
%TD*%
D25*
%TO.P,C2,1,1*%
%TO.N,GND*%
X156430000Y-117300000D03*
%TO.P,C2,2,2*%
%TO.N,Net-(U10-XFB)*%
X156970000Y-117300000D03*
%TD*%
%TO.P,C1,1,1*%
%TO.N,GND*%
X155520000Y-117300000D03*
%TO.P,C1,2,2*%
%TO.N,Net-(U10-CLKIN)*%
X154980000Y-117300000D03*
%TD*%
D29*
%TO.P,U9,1,1*%
%TO.N,Net-(U10-XFB)*%
X157300000Y-118670000D03*
%TO.P,U9,2,GND*%
%TO.N,GND*%
X155700000Y-118680000D03*
%TO.P,U9,3,3*%
%TO.N,Net-(U10-CLKIN)*%
X155700000Y-119830000D03*
%TO.P,U9,4,GND*%
%TO.N,GND*%
X157300000Y-119820000D03*
%TD*%
D10*
%TO.P,U14,1,1*%
%TO.N,GND*%
X163000000Y-93000000D03*
%TD*%
D30*
%TO.P,R3,1*%
%TO.N,9V*%
X140000000Y-97750000D03*
%TO.P,R3,2*%
%TO.N,Net-(U7-FB)*%
X141000000Y-97750000D03*
%TD*%
D22*
%TO.P,LED2,1,-*%
%TO.N,Net-(LED2--)*%
X162200000Y-100500000D03*
%TO.P,LED2,2,+*%
%TO.N,3V3-MCU*%
X163280000Y-100500000D03*
%TD*%
D25*
%TO.P,C31,1,1*%
%TO.N,Net-(U10-VIN)*%
X142230000Y-91750000D03*
%TO.P,C31,2,2*%
%TO.N,CAM*%
X142770000Y-91750000D03*
%TD*%
D10*
%TO.P,U6,1,1*%
%TO.N,3V3*%
X164500000Y-93000000D03*
%TD*%
D31*
%TO.P,C30,1,1*%
%TO.N,Net-(C29-Pad1)*%
X143450000Y-115500000D03*
%TO.P,C30,2,2*%
%TO.N,Net-(U10-SAG)*%
X144550000Y-115500000D03*
%TD*%
D10*
%TO.P,U12,1,1*%
%TO.N,9V*%
X160000000Y-93000000D03*
%TD*%
D32*
%TO.P,U7,1,SW*%
%TO.N,Net-(U7-SW)*%
X142362500Y-95800000D03*
%TO.P,U7,2,GND*%
%TO.N,GND*%
X142362500Y-96750000D03*
%TO.P,U7,3,FB*%
%TO.N,Net-(U7-FB)*%
X142362500Y-97700000D03*
%TO.P,U7,4,EN*%
%TO.N,5V*%
X144637500Y-97700000D03*
%TO.P,U7,5,IN*%
X144637500Y-96750000D03*
%TO.P,U7,6,NC*%
%TO.N,unconnected-(U7-NC-Pad6)*%
X144637500Y-95800000D03*
%TD*%
D21*
%TO.P,R17,1,1*%
%TO.N,BOOT*%
X136000000Y-95840000D03*
%TO.P,R17,2,2*%
%TO.N,GND*%
X136000000Y-95360000D03*
%TD*%
D33*
%TO.P,SW1,1,A*%
%TO.N,BOOT*%
X135750000Y-96850000D03*
%TO.P,SW1,2,A'*%
%TO.N,3V3*%
X135750000Y-100150000D03*
%TD*%
D34*
%TO.P,U52,1,FB*%
%TO.N,FB-5V*%
X139020000Y-118750000D03*
%TO.P,U52,2,VCC*%
%TO.N,Net-(U52-VCC)*%
X139670000Y-118750000D03*
%TO.P,U52,3,EN/SYNC*%
%TO.N,Net-(U52-EN{slash}SYNC)*%
X140330000Y-118750000D03*
%TO.P,U52,4,BST*%
%TO.N,Net-(U52-BST)*%
X140980000Y-118750000D03*
%TO.P,U52,5,GND*%
%TO.N,GND*%
X140980000Y-116250000D03*
%TO.P,U52,6,SW*%
%TO.N,Net-(U52-SW)*%
X140330000Y-116250000D03*
%TO.P,U52,7,IN*%
%TO.N,VBAT*%
X139670000Y-116250000D03*
%TO.P,U52,8,PG*%
%TO.N,Net-(U52-PG)*%
X139020000Y-116250000D03*
%TD*%
D35*
%TO.P,USB1,*%
%TO.N,*%
X138882500Y-105110000D03*
X138882500Y-110890000D03*
D36*
%TO.P,USB1,1,GND*%
%TO.N,GND*%
X139962500Y-104800000D03*
%TO.P,USB1,2,VBUS*%
%TO.N,5V*%
X139962500Y-105600000D03*
D37*
%TO.P,USB1,3,SBU2*%
%TO.N,unconnected-(USB1-SBU2-Pad3)*%
X139962500Y-106250000D03*
%TO.P,USB1,4,CC1*%
%TO.N,Net-(USB1-CC1)*%
X139962500Y-106750000D03*
%TO.P,USB1,5,DN2*%
%TO.N,D-*%
X139962500Y-107250000D03*
%TO.P,USB1,6,DP1*%
%TO.N,D+*%
X139962500Y-107750000D03*
%TO.P,USB1,7,DN1*%
%TO.N,D-*%
X139962500Y-108250000D03*
%TO.P,USB1,8,DP2*%
%TO.N,D+*%
X139962500Y-108750000D03*
%TO.P,USB1,9,SBU1*%
%TO.N,unconnected-(USB1-SBU1-Pad9)*%
X139962500Y-109250000D03*
%TO.P,USB1,10,CC2*%
%TO.N,Net-(USB1-CC2)*%
X139962500Y-109750000D03*
D36*
%TO.P,USB1,11,VBUS*%
%TO.N,5V*%
X139962500Y-110400000D03*
%TO.P,USB1,12,GND*%
%TO.N,GND*%
X139962500Y-111200000D03*
D38*
%TO.P,USB1,13,SHELL*%
X139412500Y-103680000D03*
D39*
X135202500Y-103680000D03*
D38*
%TO.P,USB1,14,SHELL*%
X139412500Y-112320000D03*
D39*
X135202500Y-112320000D03*
%TD*%
D40*
%TO.N,GND*%
X171500000Y-104500000D03*
X139500000Y-98750000D03*
X136087500Y-106750000D03*
D41*
X137750000Y-92750000D03*
D40*
X162500000Y-122620000D03*
D41*
X137750000Y-123250000D03*
D40*
X142500000Y-118500000D03*
X148200000Y-126440000D03*
X163000000Y-93000000D03*
X153500000Y-122560000D03*
X144500000Y-122560000D03*
X143800000Y-93380000D03*
D41*
X168250000Y-92750000D03*
D40*
X161750000Y-115250000D03*
X171440000Y-95700000D03*
X171440000Y-102300000D03*
X155700000Y-118680000D03*
X148870000Y-113270000D03*
X145800000Y-126440000D03*
X164800000Y-126500000D03*
X167620000Y-106800000D03*
X136087500Y-109750000D03*
X161500000Y-96000000D03*
X155500000Y-93440000D03*
X158200000Y-126500000D03*
X148200000Y-89560000D03*
X148870000Y-113270000D03*
X156400000Y-102700000D03*
X140980000Y-114280000D03*
X139962500Y-111200000D03*
X159990000Y-120201000D03*
X171440000Y-114700000D03*
D41*
X168250000Y-123250000D03*
D40*
X141200000Y-126440000D03*
X135750000Y-114500000D03*
X150500000Y-122560000D03*
X161500000Y-93000000D03*
X146100000Y-89500000D03*
X157300000Y-119820000D03*
X171500000Y-112100000D03*
X139962500Y-104800000D03*
X141500000Y-89500000D03*
X171440000Y-120300000D03*
X142362500Y-96750000D03*
X167560000Y-119000000D03*
X144000000Y-118500000D03*
X167560000Y-100000000D03*
X155800000Y-126440000D03*
X156217502Y-90493511D03*
%TO.N,5V*%
X160000000Y-96000000D03*
X148910000Y-100500000D03*
X139962500Y-105600000D03*
X159850000Y-121000000D03*
X143500000Y-122560000D03*
X167560000Y-118000000D03*
X139962500Y-110400000D03*
X153750000Y-116750000D03*
X167620000Y-105800000D03*
X144000000Y-120500000D03*
X144800000Y-93380000D03*
%TO.N,3V3-IMU*%
X152500000Y-121000000D03*
X158500002Y-103796997D03*
%TO.N,3V3-MCU*%
X158500000Y-119000000D03*
X171204293Y-109544293D03*
X163660000Y-112240000D03*
X159583220Y-99475569D03*
X162380000Y-112490000D03*
X152450735Y-100049265D03*
X166250000Y-113000000D03*
X152000000Y-107599000D03*
%TO.N,3V3*%
X155750000Y-122500000D03*
X164270000Y-93000000D03*
X135750000Y-100150000D03*
%TO.N,/AT32/VBATADC*%
X162350167Y-103149832D03*
X158000001Y-91651471D03*
%TO.N,Net-(U52-VCC)*%
X140016163Y-119984074D03*
%TO.N,Net-(D2-A)*%
X135650000Y-117000000D03*
X140500000Y-121500000D03*
X162750000Y-124500000D03*
%TO.N,Net-(C29-Pad1)*%
X142500000Y-115500000D03*
%TO.N,Net-(U10-VOUT)*%
X144500000Y-116500000D03*
%TO.N,Net-(U10-VIN)*%
X137000000Y-99400000D03*
X144716000Y-113540000D03*
X144200000Y-109600000D03*
X142000000Y-91350000D03*
%TO.N,VBAT*%
X150595740Y-98445740D03*
X167560000Y-101000000D03*
X146500000Y-98830000D03*
X142900000Y-111200000D03*
X139550000Y-114250000D03*
X156500000Y-93440000D03*
X142300000Y-116500000D03*
%TO.N,Net-(U52-SW)*%
X140287737Y-117206103D03*
%TO.N,Net-(USB1-CC2)*%
X138000000Y-109750000D03*
%TO.N,Net-(USB1-CC1)*%
X138000000Y-106750000D03*
%TO.N,Net-(U8-NRST)*%
X160500000Y-103500000D03*
%TO.N,Net-(U8-PB2)*%
X155600000Y-109515627D03*
%TO.N,Net-(U8-PC13)*%
X160885927Y-100311630D03*
%TO.N,Net-(U8-PC14)*%
X160750000Y-101100000D03*
%TO.N,CUR*%
X158543592Y-104595809D03*
X153500000Y-93440000D03*
%TO.N,Net-(U52-PG)*%
X138999007Y-117081970D03*
%TO.N,Net-(U4-Output)*%
X161450735Y-102549265D03*
%TO.N,Net-(U4-Input)*%
X158500002Y-102250000D03*
%TO.N,UART3_TX*%
X159024000Y-116976000D03*
X155399000Y-113351000D03*
X159500000Y-122620000D03*
%TO.N,VTX*%
X161500000Y-122620000D03*
%TO.N,UART3_RX*%
X154475982Y-104763717D03*
%TO.N,9V*%
X149500000Y-122750000D03*
X142500000Y-120500000D03*
X139250000Y-101000000D03*
X163500000Y-122620000D03*
X160000000Y-93000000D03*
%TO.N,BB-*%
X142500000Y-122560000D03*
%TO.N,UART2_TX*%
X162250000Y-106750000D03*
%TO.N,UART2_RX*%
X156273611Y-106818366D03*
X167560000Y-117000000D03*
X170000000Y-109000000D03*
X169825000Y-104175000D03*
%TO.N,Net-(U7-SW)*%
X139250000Y-97000000D03*
%TO.N,PWM4*%
X156250000Y-104800002D03*
%TO.N,PWM1*%
X156450735Y-97950735D03*
X149500000Y-93440000D03*
X152500000Y-91750000D03*
%TO.N,PWM3*%
X158800002Y-105500000D03*
%TO.N,PWM2*%
X157250000Y-97850000D03*
%TO.N,UART1_RX*%
X152500000Y-122560000D03*
%TO.N,SDA*%
X168801473Y-96350000D03*
X170239000Y-101250000D03*
X164900000Y-109850000D03*
X154400000Y-107750000D03*
X167620000Y-109800000D03*
X159850000Y-109958585D03*
X165600000Y-96500000D03*
X161740078Y-91349000D03*
%TO.N,SCL*%
X160000000Y-90000000D03*
X151832815Y-99332815D03*
X170000000Y-103000000D03*
X167620000Y-110800000D03*
X155000000Y-89701000D03*
X168250000Y-95750000D03*
%TO.N,UART1_TX*%
X151500000Y-122560000D03*
%TO.N,UART7_TX*%
X167500000Y-108750000D03*
%TO.N,SBUS*%
X163000000Y-90000000D03*
X171500000Y-108250000D03*
%TO.N,UART7_RX*%
X158900000Y-95500000D03*
X167500000Y-107750000D03*
%TO.N,BOOT*%
X137000000Y-95900000D03*
X167560000Y-97000000D03*
X155750000Y-95750000D03*
X156750000Y-100599998D03*
%TO.N,UART5_RX*%
X165031587Y-97468413D03*
X167560000Y-99000000D03*
X159940868Y-98121722D03*
%TO.N,UART5_TX*%
X160681397Y-98539000D03*
%TO.N,SPI2_CS*%
X153250000Y-113090003D03*
%TO.N,SP1_SCK*%
X158500000Y-110251000D03*
X156500000Y-110390000D03*
%TO.N,SP1_CS*%
X156501000Y-107585372D03*
X158600000Y-107082207D03*
%TO.N,GYRO_EXTI*%
X159250000Y-108650000D03*
X154298064Y-102243981D03*
%TO.N,D+*%
X138500000Y-108250000D03*
%TO.N,D-*%
X143250000Y-107750000D03*
%TO.N,SWDCLK*%
X153902000Y-97600000D03*
X154750000Y-94750000D03*
X164500000Y-96000000D03*
%TO.N,SPI2_MISO*%
X162380000Y-118260000D03*
X153000000Y-110990000D03*
%TO.N,SWDIO*%
X151232815Y-99932812D03*
X164250000Y-91250000D03*
X150700472Y-89701000D03*
%TO.N,BOX_CS*%
X163660000Y-118260000D03*
X162500000Y-108400000D03*
%TO.N,SPI2_MOSI*%
X153250000Y-112290000D03*
X159850000Y-112490000D03*
%TO.N,LED*%
X159000000Y-94150000D03*
X151000000Y-103750000D03*
X158833182Y-91483201D03*
%TO.N,SPI2_SCK*%
X161120000Y-112490000D03*
X153750000Y-111640000D03*
%TD*%
D42*
%TO.N,GND*%
X139500000Y-120520000D02*
X139500000Y-121500000D01*
D43*
X162810000Y-114190000D02*
X162810000Y-113770000D01*
X161750000Y-115250000D02*
X162810000Y-114190000D01*
D42*
X156674513Y-90036500D02*
X157323500Y-90036500D01*
X150675000Y-115550000D02*
X148870000Y-113745000D01*
X138180000Y-119750000D02*
X137440000Y-119750000D01*
D43*
X161750000Y-115250000D02*
X162310000Y-114690000D01*
X149330000Y-107780000D02*
X149330000Y-112810000D01*
D42*
X156290000Y-117840000D02*
X156430000Y-117700000D01*
D43*
X162000000Y-113870000D02*
X162000000Y-113681000D01*
D42*
X138490000Y-120060000D02*
X138180000Y-119750000D01*
X155520000Y-118500000D02*
X155520000Y-117100000D01*
D43*
X165500000Y-107250000D02*
X165950000Y-106800000D01*
D42*
X140980000Y-114280000D02*
X140950000Y-114250000D01*
X156290000Y-118090000D02*
X156290000Y-117840000D01*
X159921000Y-120270000D02*
X158500000Y-120270000D01*
X135750000Y-114550000D02*
X135750000Y-114500000D01*
X156290000Y-118090000D02*
X155700000Y-118680000D01*
D43*
X162310000Y-114180000D02*
X162000000Y-113870000D01*
D42*
X156430000Y-117700000D02*
X156430000Y-117300000D01*
D43*
X165950000Y-106800000D02*
X167620000Y-106800000D01*
D42*
X146000000Y-114250000D02*
X147890000Y-114250000D01*
X156217502Y-90493511D02*
X156674513Y-90036500D01*
D43*
X149330000Y-112810000D02*
X148870000Y-113270000D01*
D42*
X136250000Y-94250000D02*
X137750000Y-92750000D01*
X140980000Y-116250000D02*
X140980000Y-114280000D01*
D43*
X136000000Y-94500000D02*
X137750000Y-92750000D01*
D42*
X139500000Y-121500000D02*
X137750000Y-123250000D01*
X143800000Y-92560000D02*
X143490000Y-92250000D01*
X138770000Y-113500000D02*
X138770000Y-112962500D01*
X138770000Y-112962500D02*
X139412500Y-112320000D01*
X137750000Y-123250000D02*
X138490000Y-122510000D01*
X147890000Y-112290000D02*
X148870000Y-113270000D01*
X157750000Y-120270000D02*
X157300000Y-119820000D01*
X159990000Y-120201000D02*
X159921000Y-120270000D01*
X155700000Y-118680000D02*
X155520000Y-118500000D01*
X146000000Y-112290000D02*
X147890000Y-112290000D01*
X158500000Y-120270000D02*
X157750000Y-120270000D01*
X143800000Y-93380000D02*
X143800000Y-92560000D01*
D43*
X162310000Y-114690000D02*
X162310000Y-114180000D01*
D42*
X151740000Y-115550000D02*
X150675000Y-115550000D01*
D43*
X137710000Y-92750000D02*
X137750000Y-92750000D01*
D42*
X147890000Y-114250000D02*
X148870000Y-113270000D01*
D43*
X136000000Y-95360000D02*
X136000000Y-94500000D01*
D42*
X138490000Y-122510000D02*
X138490000Y-120060000D01*
X157323500Y-90036500D02*
X157800000Y-89560000D01*
X138770000Y-113500000D02*
X138770000Y-113600000D01*
X148870000Y-113745000D02*
X148870000Y-113270000D01*
X138770000Y-113600000D02*
X138470000Y-113900000D01*
%TO.N,Net-(U10-CLKIN)*%
X154849000Y-119599000D02*
X155080000Y-119830000D01*
X155080000Y-119830000D02*
X155700000Y-119830000D01*
X151740000Y-114900000D02*
X152805000Y-114900000D01*
X154849000Y-116944000D02*
X154849000Y-119599000D01*
X152805000Y-114900000D02*
X154849000Y-116944000D01*
%TO.N,Net-(U10-XFB)*%
X154072900Y-114322900D02*
X157300000Y-117550000D01*
X151740000Y-114250000D02*
X153734961Y-114250000D01*
X157300000Y-117550000D02*
X157300000Y-118670000D01*
X153734961Y-114250000D02*
X153807861Y-114322900D01*
X153807861Y-114322900D02*
X154072900Y-114322900D01*
%TO.N,5V*%
X146000000Y-112940000D02*
X143252500Y-112940000D01*
X142500000Y-114250000D02*
X142500000Y-112187500D01*
D43*
X144192500Y-112000000D02*
X143252500Y-112940000D01*
D42*
X147200000Y-97700000D02*
X148910000Y-99410000D01*
D44*
X153200000Y-116200000D02*
X153750000Y-116750000D01*
D42*
X144637500Y-97700000D02*
X147200000Y-97700000D01*
X142500000Y-112187500D02*
X140712500Y-110400000D01*
D43*
X144260000Y-112000000D02*
X144192500Y-112000000D01*
D42*
X143150000Y-114900000D02*
X142500000Y-114250000D01*
X143252500Y-112940000D02*
X142500000Y-112187500D01*
X146000000Y-114900000D02*
X143150000Y-114900000D01*
X148910000Y-100500000D02*
X148910000Y-103200000D01*
X139962500Y-105600000D02*
X140712500Y-105600000D01*
X140712500Y-110400000D02*
X139962500Y-110400000D01*
X148910000Y-99410000D02*
X148910000Y-100500000D01*
X144637500Y-96750000D02*
X144637500Y-97700000D01*
D44*
X151740000Y-116200000D02*
X153200000Y-116200000D01*
D42*
%TO.N,3V3-IMU*%
X158526607Y-103823602D02*
X158526607Y-103840403D01*
X159260000Y-103106332D02*
X159260000Y-102900000D01*
X158569335Y-103796997D02*
X159260000Y-103106332D01*
X158526607Y-103840403D02*
X158537204Y-103851000D01*
X158500002Y-103796997D02*
X158526607Y-103823602D01*
X158500002Y-103796997D02*
X158569335Y-103796997D01*
D43*
%TO.N,3V3-MCU*%
X163240000Y-99500000D02*
X162694000Y-98954000D01*
D42*
X158500000Y-119000000D02*
X158500000Y-119730000D01*
D43*
X162310000Y-113020000D02*
X162310000Y-112560000D01*
X162310000Y-112560000D02*
X162380000Y-112490000D01*
X161310000Y-98954000D02*
X161100000Y-99164000D01*
X162000000Y-113330000D02*
X162310000Y-113020000D01*
X163240000Y-100460000D02*
X163280000Y-100500000D01*
X162810000Y-112920000D02*
X162380000Y-112490000D01*
X161100000Y-99164000D02*
X159894789Y-99164000D01*
X159894789Y-99164000D02*
X159583220Y-99475569D01*
X162694000Y-98954000D02*
X161310000Y-98954000D01*
X163240000Y-99500000D02*
X163240000Y-100460000D01*
X162810000Y-113230000D02*
X162810000Y-112920000D01*
D42*
%TO.N,/AT32/VBATADC*%
X158151000Y-96401000D02*
X158151000Y-92083900D01*
X159334277Y-100076569D02*
X158982220Y-99724512D01*
X158982220Y-99226626D02*
X158983220Y-99225626D01*
X158983220Y-97233220D02*
X158151000Y-96401000D01*
X158983220Y-99225626D02*
X158983220Y-97233220D01*
X158000000Y-91932900D02*
X158000001Y-91651471D01*
X162350167Y-103149832D02*
X162350167Y-102600167D01*
X159750000Y-101750000D02*
X159334277Y-101334277D01*
X162350167Y-102600167D02*
X161500000Y-101750000D01*
X158151000Y-92083900D02*
X158000000Y-91932900D01*
X159334277Y-101334277D02*
X159334277Y-100076569D01*
X161500000Y-101750000D02*
X159750000Y-101750000D01*
X158982220Y-99724512D02*
X158982220Y-99226626D01*
D43*
%TO.N,Net-(U52-VCC)*%
X140016163Y-119984074D02*
X139504074Y-119984074D01*
D42*
X139670000Y-118750000D02*
X139670000Y-119810000D01*
D43*
X139504074Y-119984074D02*
X139500000Y-119980000D01*
D42*
X139670000Y-119810000D02*
X139500000Y-119980000D01*
%TO.N,Net-(D2-A)*%
X136260000Y-116740000D02*
X136260000Y-116460000D01*
X136260000Y-119000000D02*
X135660000Y-119600000D01*
X135660000Y-119600000D02*
X135660000Y-120100000D01*
X160750000Y-125750000D02*
X159750000Y-124750000D01*
X140500000Y-122237000D02*
X140500000Y-121500000D01*
X159750000Y-124750000D02*
X143013000Y-124750000D01*
X136000000Y-117000000D02*
X136260000Y-116740000D01*
X136260000Y-119000000D02*
X136260000Y-116740000D01*
X162750000Y-124500000D02*
X161500000Y-125750000D01*
X143013000Y-124750000D02*
X140500000Y-122237000D01*
X161500000Y-125750000D02*
X160750000Y-125750000D01*
X136260000Y-116460000D02*
X135750000Y-115950000D01*
X135650000Y-117000000D02*
X136000000Y-117000000D01*
%TO.N,Net-(C29-Pad1)*%
X142500000Y-115500000D02*
X143450000Y-115500000D01*
%TO.N,Net-(U10-VOUT)*%
X144800000Y-116200000D02*
X146000000Y-116200000D01*
X144500000Y-116500000D02*
X144800000Y-116200000D01*
D43*
%TO.N,Net-(U10-SAG)*%
X146000000Y-115550000D02*
X144600000Y-115550000D01*
X144600000Y-115550000D02*
X144550000Y-115500000D01*
D42*
%TO.N,Net-(U10-VIN)*%
X142000000Y-93400057D02*
X137000000Y-98400057D01*
X137000000Y-98400057D02*
X137000000Y-99400000D01*
X146000000Y-113590000D02*
X144766000Y-113590000D01*
X144766000Y-113590000D02*
X144716000Y-113540000D01*
X142000000Y-91350000D02*
X142000000Y-93400057D01*
X144770000Y-113500000D02*
X144716000Y-113500000D01*
X142230000Y-91580000D02*
X142000000Y-91350000D01*
X142230000Y-91750000D02*
X142230000Y-91580000D01*
%TO.N,VBAT*%
X138230000Y-114657000D02*
X138284000Y-114711000D01*
X137500000Y-116900000D02*
X137500000Y-117260000D01*
X138230000Y-116170000D02*
X137900000Y-116500000D01*
X139670000Y-116250000D02*
X139670000Y-115381000D01*
X138230000Y-116170000D02*
X137500000Y-116900000D01*
X139000000Y-114711000D02*
X139089000Y-114711000D01*
X138023000Y-114400000D02*
X137930000Y-114307000D01*
X139089000Y-114711000D02*
X139550000Y-114250000D01*
D45*
X146500000Y-106237925D02*
X142900000Y-109837925D01*
D42*
X138230000Y-114400000D02*
X138023000Y-114400000D01*
D45*
X146500000Y-98830000D02*
X146500000Y-106237925D01*
D42*
X139670000Y-115381000D02*
X139000000Y-114711000D01*
D43*
X137500000Y-116900000D02*
X137900000Y-116500000D01*
D45*
X142900000Y-109837925D02*
X142900000Y-111200000D01*
D42*
X138230000Y-114657000D02*
X138230000Y-116170000D01*
X137930000Y-114307000D02*
X137930000Y-113900000D01*
X138230000Y-114400000D02*
X138230000Y-114657000D01*
X138284000Y-114711000D02*
X139000000Y-114711000D01*
%TO.N,Net-(U52-SW)*%
X140330000Y-117163840D02*
X140287737Y-117206103D01*
X141244024Y-117230000D02*
X141173024Y-117301000D01*
X141750000Y-117230000D02*
X141244024Y-117230000D01*
X141173024Y-117301000D02*
X140382634Y-117301000D01*
X140382634Y-117301000D02*
X140287737Y-117206103D01*
X140330000Y-116250000D02*
X140330000Y-117163840D01*
%TO.N,Net-(U52-BST)*%
X140980000Y-118540000D02*
X141750000Y-117770000D01*
X140980000Y-118750000D02*
X140980000Y-118540000D01*
D43*
%TO.N,Net-(LED1--)*%
X161240000Y-99600000D02*
X162060000Y-99600000D01*
X162060000Y-99600000D02*
X162160000Y-99500000D01*
%TO.N,Net-(LED2--)*%
X162400000Y-101410000D02*
X162400000Y-100700000D01*
X162400000Y-100700000D02*
X162200000Y-100500000D01*
D42*
%TO.N,Net-(USB1-CC2)*%
X139962500Y-109750000D02*
X138000000Y-109750000D01*
%TO.N,Net-(USB1-CC1)*%
X139962500Y-106750000D02*
X138000000Y-106750000D01*
%TO.N,Net-(U8-NRST)*%
X160500000Y-103500000D02*
X159900000Y-102900000D01*
X159900000Y-102900000D02*
X159740000Y-102900000D01*
%TO.N,Net-(U8-PB2)*%
X151031000Y-108569000D02*
X149762000Y-107300000D01*
X154653373Y-108569000D02*
X151031000Y-108569000D01*
X155600000Y-109515627D02*
X154653373Y-108569000D01*
X149762000Y-107300000D02*
X149330000Y-107300000D01*
D43*
%TO.N,Net-(U10-RESET#)*%
X145100000Y-111640000D02*
X146000000Y-111640000D01*
X144740000Y-112000000D02*
X145100000Y-111640000D01*
%TO.N,Net-(U8-PC13)*%
X160885927Y-100311630D02*
X160760000Y-100185703D01*
X160885927Y-100385925D02*
X161000002Y-100500000D01*
X160760000Y-100185703D02*
X160760000Y-99600000D01*
X160885927Y-100311630D02*
X160885927Y-100385925D01*
%TO.N,Net-(U8-PC14)*%
X161610000Y-101100000D02*
X161920000Y-101410000D01*
X160750000Y-101100000D02*
X161610000Y-101100000D01*
D42*
%TO.N,CUR*%
X158365482Y-104621103D02*
X158264797Y-104520418D01*
X158543592Y-104595809D02*
X158518298Y-104621103D01*
X157001000Y-103501000D02*
X157001000Y-102451057D01*
X153101000Y-94283900D02*
X153101000Y-93839000D01*
X157001000Y-102451057D02*
X156648943Y-102099000D01*
X153302000Y-94969800D02*
X153151000Y-94818800D01*
X153101000Y-93839000D02*
X153500000Y-93440000D01*
X158264797Y-104520418D02*
X158020418Y-104520418D01*
X156349000Y-102099000D02*
X156200000Y-101950000D01*
X153151000Y-94818800D02*
X153151000Y-94333900D01*
X156200000Y-101815800D02*
X153302000Y-98917800D01*
X156648943Y-102099000D02*
X156349000Y-102099000D01*
X153302000Y-98917800D02*
X153302000Y-94969800D01*
X158518298Y-104621103D02*
X158365482Y-104621103D01*
X156200000Y-101950000D02*
X156200000Y-101815800D01*
X158020418Y-104520418D02*
X157001000Y-103501000D01*
X153151000Y-94333900D02*
X153101000Y-94283900D01*
%TO.N,Net-(U52-PG)*%
X139020000Y-117060977D02*
X138999007Y-117081970D01*
X139020000Y-116250000D02*
X139020000Y-117060977D01*
D43*
%TO.N,Net-(R246-Pad2)*%
X136610000Y-120100000D02*
X136960000Y-119750000D01*
X136960000Y-119250000D02*
X136960000Y-119750000D01*
X136140000Y-120100000D02*
X136610000Y-120100000D01*
D42*
%TO.N,FB-5V*%
X139020000Y-118750000D02*
X138990000Y-118750000D01*
X138990000Y-118750000D02*
X138490000Y-119250000D01*
X138490000Y-119250000D02*
X137440000Y-119250000D01*
%TO.N,Net-(U52-EN{slash}SYNC)*%
X138781000Y-117699000D02*
X138740000Y-117740000D01*
X140330000Y-118750000D02*
X140330000Y-118165000D01*
X140330000Y-118165000D02*
X139864000Y-117699000D01*
X138740000Y-117740000D02*
X137500000Y-117740000D01*
X139864000Y-117699000D02*
X138781000Y-117699000D01*
%TO.N,Net-(U4-Output)*%
X162101224Y-103750832D02*
X162599110Y-103750832D01*
X161749167Y-103398775D02*
X162101224Y-103750832D01*
X161507605Y-102992395D02*
X161749167Y-103233957D01*
X161749167Y-103233957D02*
X161749167Y-103398775D01*
X161450735Y-102549265D02*
X161450735Y-102935525D01*
X162674971Y-103674971D02*
X165050000Y-106050000D01*
X161450735Y-102935525D02*
X161507605Y-102992395D01*
X161749167Y-103398775D02*
X161800196Y-103449804D01*
X162599110Y-103750832D02*
X162674971Y-103674971D01*
X165050000Y-106050000D02*
X165500000Y-106050000D01*
%TO.N,Net-(U4-Input)*%
X162682900Y-104250000D02*
X163966450Y-105533550D01*
X160198110Y-102250000D02*
X161348167Y-103400057D01*
X164300000Y-108450000D02*
X165500000Y-108450000D01*
X163966450Y-108116450D02*
X164300000Y-108450000D01*
X162033292Y-104250000D02*
X162682900Y-104250000D01*
X161348167Y-103564875D02*
X162033292Y-104250000D01*
X158500002Y-102250000D02*
X160198110Y-102250000D01*
X163966450Y-105533550D02*
X163966450Y-108116450D01*
X161348167Y-103400057D02*
X161348167Y-103564875D01*
%TO.N,UART3_TX*%
X158250000Y-113250000D02*
X155500000Y-113250000D01*
X155500000Y-113250000D02*
X155399000Y-113351000D01*
X159024000Y-116976000D02*
X159000000Y-116952000D01*
X159000000Y-114000000D02*
X158250000Y-113250000D01*
X159000000Y-116952000D02*
X159000000Y-114000000D01*
%TO.N,UART3_RX*%
X160500000Y-122620000D02*
X160500000Y-120989943D01*
X163271000Y-112700943D02*
X163059000Y-112488943D01*
X163059000Y-112488943D02*
X163059000Y-112319057D01*
X163271000Y-114256000D02*
X163271000Y-112700943D01*
X154475982Y-106975982D02*
X154475982Y-104763717D01*
X160500000Y-120989943D02*
X162990000Y-118499943D01*
X159989943Y-109250000D02*
X156750000Y-109250000D01*
X163186000Y-114345744D02*
X163186000Y-114256000D01*
X163059000Y-112319057D02*
X159989943Y-109250000D01*
X162990000Y-114541744D02*
X163186000Y-114345744D01*
X163186000Y-114256000D02*
X163271000Y-114256000D01*
X162990000Y-118499943D02*
X162990000Y-114541744D01*
X156750000Y-109250000D02*
X154475982Y-106975982D01*
%TO.N,9V*%
X140000000Y-97750000D02*
X140206000Y-97956000D01*
X140206000Y-97956000D02*
X140206000Y-100044000D01*
X140206000Y-100044000D02*
X139250000Y-101000000D01*
%TO.N,CAM*%
X143010000Y-92250000D02*
X143010000Y-93170000D01*
X142770000Y-91750000D02*
X142770000Y-92010000D01*
X143010000Y-93590000D02*
X142800000Y-93380000D01*
X142770000Y-92010000D02*
X143010000Y-92250000D01*
X143010000Y-93170000D02*
X142800000Y-93380000D01*
%TO.N,UART2_TX*%
X164299000Y-110049000D02*
X164299000Y-110098943D01*
X164299000Y-110098943D02*
X164651057Y-110451000D01*
X167560000Y-115310000D02*
X167560000Y-116000000D01*
X163500000Y-108000000D02*
X163500000Y-109000000D01*
X164701000Y-110451000D02*
X165375000Y-111125000D01*
X162250000Y-106750000D02*
X163500000Y-108000000D01*
X164000000Y-109500000D02*
X164000000Y-109750000D01*
X164651057Y-110451000D02*
X164701000Y-110451000D01*
X165375000Y-111125000D02*
X165375000Y-113125000D01*
X163500000Y-109000000D02*
X164000000Y-109500000D01*
X164000000Y-109750000D02*
X164299000Y-110049000D01*
X165375000Y-113125000D02*
X167560000Y-115310000D01*
D43*
%TO.N,UART2_RX*%
X164999000Y-111280744D02*
X164999000Y-115066000D01*
X162294256Y-107326000D02*
X163124000Y-108155744D01*
X161674000Y-106988588D02*
X162011412Y-107326000D01*
D42*
X169750000Y-108250000D02*
X169750000Y-116000000D01*
X169750000Y-116000000D02*
X168750000Y-117000000D01*
X169825000Y-105325000D02*
X169825000Y-104175000D01*
D43*
X161717706Y-106467706D02*
X161674000Y-106511412D01*
D42*
X169750000Y-108250000D02*
X169750000Y-108750000D01*
D43*
X164999000Y-115066000D02*
X166933000Y-117000000D01*
X156917977Y-106174000D02*
X161424000Y-106174000D01*
X163124000Y-109155744D02*
X163624000Y-109655744D01*
X156273611Y-106818366D02*
X156917977Y-106174000D01*
D42*
X169750000Y-108250000D02*
X169750000Y-105400000D01*
D43*
X161424000Y-106174000D02*
X161717706Y-106467706D01*
X162011412Y-107326000D02*
X162294256Y-107326000D01*
X161674000Y-106511412D02*
X161674000Y-106988588D01*
X163923000Y-110204744D02*
X163923000Y-110254687D01*
D42*
X169750000Y-105400000D02*
X169825000Y-105325000D01*
X168750000Y-117000000D02*
X167560000Y-117000000D01*
D43*
X166933000Y-117000000D02*
X167560000Y-117000000D01*
X163124000Y-108155744D02*
X163124000Y-109155744D01*
X163923000Y-110254687D02*
X164495313Y-110827000D01*
X164545256Y-110827000D02*
X164999000Y-111280744D01*
X164495313Y-110827000D02*
X164545256Y-110827000D01*
D42*
X169750000Y-108750000D02*
X170000000Y-109000000D01*
D43*
X163624000Y-109655744D02*
X163624000Y-109905744D01*
X163624000Y-109905744D02*
X163923000Y-110204744D01*
D42*
%TO.N,Net-(U7-SW)*%
X142362500Y-95800000D02*
X143024999Y-95800000D01*
X143326000Y-96101001D02*
X143326000Y-100264000D01*
X142362500Y-95800000D02*
X140450000Y-95800000D01*
X143024999Y-95800000D02*
X143326000Y-96101001D01*
X139250000Y-97000000D02*
X140450000Y-95800000D01*
X143090000Y-100500000D02*
X143090000Y-103200000D01*
X143326000Y-100264000D02*
X143090000Y-100500000D01*
%TO.N,PWM4*%
X155799000Y-102948943D02*
X155799000Y-101981900D01*
X152750000Y-94500000D02*
X152500000Y-94250000D01*
X156151057Y-103301000D02*
X155799000Y-102948943D01*
X152750000Y-94984900D02*
X152750000Y-94500000D01*
X156250000Y-103301000D02*
X156151057Y-103301000D01*
X152901000Y-99083900D02*
X152901000Y-95135900D01*
X152500000Y-94250000D02*
X152500000Y-93440000D01*
X152901000Y-95135900D02*
X152750000Y-94984900D01*
X155799000Y-101981900D02*
X152901000Y-99083900D01*
X156250000Y-104800002D02*
X156250000Y-103301000D01*
%TO.N,PWM1*%
X153000000Y-92250000D02*
X152500000Y-91750000D01*
X156450735Y-97649321D02*
X157349000Y-96751056D01*
X157349000Y-92416100D02*
X157182900Y-92250000D01*
X157349000Y-96751056D02*
X157349000Y-92416100D01*
X157182900Y-92250000D02*
X153000000Y-92250000D01*
X156450735Y-97950735D02*
X156450735Y-97649321D01*
%TO.N,PWM3*%
X155649000Y-105048945D02*
X155649000Y-104551059D01*
X155398000Y-102148000D02*
X152500000Y-99250000D01*
X158701004Y-105401002D02*
X156001057Y-105401002D01*
X151500000Y-94302000D02*
X151500000Y-93440000D01*
X152500000Y-99250000D02*
X152500000Y-95302000D01*
X152500000Y-95302000D02*
X151500000Y-94302000D01*
X156001057Y-105401002D02*
X155649000Y-105048945D01*
X158800002Y-105500000D02*
X158701004Y-105401002D01*
X155649000Y-104551059D02*
X155398000Y-104300059D01*
X155398000Y-104300059D02*
X155398000Y-102148000D01*
%TO.N,PWM2*%
X157750000Y-97350000D02*
X157250000Y-97850000D01*
X151900057Y-92000000D02*
X151899000Y-91998943D01*
X150750000Y-92000000D02*
X151900057Y-92000000D01*
X153166100Y-91849000D02*
X157349000Y-91849000D01*
X151899000Y-91998943D02*
X151899000Y-91501057D01*
X150500000Y-91750000D02*
X150750000Y-92000000D01*
X157750000Y-92250000D02*
X157750000Y-97350000D01*
X152251057Y-91149000D02*
X152748943Y-91149000D01*
X151899000Y-91501057D02*
X152251057Y-91149000D01*
X153101000Y-91783900D02*
X153166100Y-91849000D01*
X152748943Y-91149000D02*
X153101000Y-91501057D01*
X157349000Y-91849000D02*
X157750000Y-92250000D01*
X150500000Y-93440000D02*
X150500000Y-91750000D01*
X153101000Y-91501057D02*
X153101000Y-91783900D01*
%TO.N,SDA*%
X156583900Y-109651000D02*
X159750000Y-109651000D01*
D43*
X168750000Y-109297000D02*
X168247000Y-109800000D01*
D42*
X159750000Y-109651000D02*
X159750000Y-109858585D01*
X154682900Y-107750000D02*
X156583900Y-109651000D01*
X164950000Y-109800000D02*
X167620000Y-109800000D01*
D43*
X168750000Y-102739000D02*
X168750000Y-109297000D01*
X170239000Y-101250000D02*
X168750000Y-102739000D01*
X166350000Y-96350000D02*
X168801473Y-96350000D01*
X168247000Y-109800000D02*
X167620000Y-109800000D01*
X166200000Y-96500000D02*
X166350000Y-96350000D01*
X161500000Y-91108922D02*
X161740078Y-91349000D01*
X161500000Y-90000000D02*
X161500000Y-91108922D01*
D42*
X154400000Y-107750000D02*
X154682900Y-107750000D01*
X159750000Y-109858585D02*
X159850000Y-109958585D01*
X164900000Y-109850000D02*
X164950000Y-109800000D01*
D43*
X165600000Y-96500000D02*
X166200000Y-96500000D01*
D42*
%TO.N,SCL*%
X148750000Y-92500000D02*
X151549000Y-89701000D01*
X169224000Y-104423943D02*
X169224000Y-103776000D01*
X165449000Y-93910213D02*
X167288787Y-95750000D01*
X160301000Y-91949000D02*
X160624222Y-91949000D01*
X163624222Y-91949000D02*
X163675222Y-92000000D01*
X162375778Y-91949000D02*
X163624222Y-91949000D01*
X165124222Y-91949000D02*
X165401000Y-92225778D01*
X169224000Y-103776000D02*
X170000000Y-103000000D01*
X151832815Y-99332815D02*
X152099000Y-99066630D01*
X152099000Y-95468100D02*
X151190450Y-94559550D01*
X160000000Y-90750000D02*
X160301000Y-91051000D01*
X160301000Y-91051000D02*
X160301000Y-91949000D01*
X168297000Y-110800000D02*
X169349000Y-109748000D01*
X169424000Y-105158900D02*
X169424000Y-104623943D01*
X167288787Y-95750000D02*
X168250000Y-95750000D01*
X163875778Y-91949000D02*
X165124222Y-91949000D01*
X162324778Y-92000000D02*
X162375778Y-91949000D01*
X169424000Y-104623943D02*
X169224000Y-104423943D01*
X165449000Y-92699000D02*
X165449000Y-93910213D01*
X160875778Y-91949000D02*
X162124222Y-91949000D01*
X163675222Y-92000000D02*
X163824778Y-92000000D01*
X162124222Y-91949000D02*
X162175222Y-92000000D01*
X169349000Y-105233900D02*
X169424000Y-105158900D01*
X167620000Y-110800000D02*
X168297000Y-110800000D01*
X148750000Y-94250000D02*
X148750000Y-92750000D01*
X162175222Y-92000000D02*
X162324778Y-92000000D01*
X151190450Y-94559550D02*
X149059550Y-94559550D01*
X149000000Y-94500000D02*
X148750000Y-94250000D01*
X165401000Y-92225778D02*
X165401000Y-92651000D01*
X152099000Y-99066630D02*
X152099000Y-95500000D01*
X160675222Y-92000000D02*
X160824778Y-92000000D01*
X165401000Y-92651000D02*
X165449000Y-92699000D01*
X169349000Y-109748000D02*
X169349000Y-105233900D01*
X149059550Y-94559550D02*
X149000000Y-94500000D01*
X148750000Y-92750000D02*
X148750000Y-92500000D01*
X163824778Y-92000000D02*
X163875778Y-91949000D01*
X160824778Y-92000000D02*
X160875778Y-91949000D01*
X151549000Y-89701000D02*
X155000000Y-89701000D01*
X160624222Y-91949000D02*
X160675222Y-92000000D01*
X160000000Y-90000000D02*
X160000000Y-90750000D01*
X152099000Y-95500000D02*
X152099000Y-95468100D01*
%TO.N,SBUS*%
X154500000Y-123035000D02*
X154500000Y-122560000D01*
X162170765Y-124000000D02*
X155465000Y-124000000D01*
X155465000Y-124000000D02*
X154500000Y-123035000D01*
X162401526Y-123769239D02*
X162170765Y-124000000D01*
X170151000Y-109749058D02*
X170151000Y-119599000D01*
X171500000Y-108250000D02*
X171500000Y-108400057D01*
X167089787Y-120449000D02*
X164150000Y-123388787D01*
X170151000Y-119599000D02*
X169301000Y-120449000D01*
X171500000Y-108400057D02*
X170151000Y-109749058D01*
X169301000Y-120449000D02*
X167089787Y-120449000D01*
X164150000Y-123769239D02*
X162401526Y-123769239D01*
X164150000Y-123388787D02*
X164150000Y-123769239D01*
%TO.N,BOOT*%
X135375000Y-96375000D02*
X135375000Y-96475000D01*
X135375000Y-96475000D02*
X135750000Y-96850000D01*
X155750000Y-99599998D02*
X156750000Y-100599998D01*
X135850000Y-95900000D02*
X135375000Y-96375000D01*
X137000000Y-95900000D02*
X135850000Y-95900000D01*
X155750000Y-95750000D02*
X155750000Y-99599998D01*
%TO.N,UART5_RX*%
X165031587Y-97468413D02*
X164800000Y-97700000D01*
X160362590Y-97700000D02*
X159940868Y-98121722D01*
X164800000Y-97700000D02*
X160362590Y-97700000D01*
%TO.N,UART5_TX*%
X160681397Y-98539000D02*
X160970397Y-98250000D01*
X167210000Y-98250000D02*
X167460000Y-98000000D01*
X160970397Y-98250000D02*
X167210000Y-98250000D01*
%TO.N,Net-(U7-FB)*%
X141050000Y-97700000D02*
X141000000Y-97750000D01*
X141000000Y-98750000D02*
X141000000Y-97750000D01*
X142362500Y-97700000D02*
X141050000Y-97700000D01*
D43*
%TO.N,SPI2_CS*%
X151740000Y-112940000D02*
X153099997Y-112940000D01*
X153099997Y-112940000D02*
X153250000Y-113090003D01*
D42*
%TO.N,SP1_SCK*%
X157861000Y-110251000D02*
X157860000Y-110250000D01*
X156640000Y-110250000D02*
X156500000Y-110390000D01*
X157860000Y-110250000D02*
X156640000Y-110250000D01*
X158500000Y-110251000D02*
X157861000Y-110251000D01*
%TO.N,SP1_CS*%
X158096835Y-107585372D02*
X158600000Y-107082207D01*
X156501000Y-107585372D02*
X158096835Y-107585372D01*
%TO.N,GYRO_EXTI*%
X158175088Y-108724912D02*
X157374088Y-108724912D01*
X157250000Y-108849000D02*
X156916100Y-108849000D01*
X155248000Y-105215045D02*
X155248000Y-104717159D01*
X155500000Y-106532956D02*
X155766478Y-106266478D01*
X159250000Y-108650000D02*
X158250000Y-108650000D01*
X155500000Y-107432900D02*
X155500000Y-106532956D01*
X154997000Y-104466159D02*
X154997000Y-102997000D01*
X154997000Y-102997000D02*
X154298064Y-102298064D01*
X156916100Y-108849000D02*
X155500000Y-107432900D01*
X158250000Y-108650000D02*
X158175088Y-108724912D01*
X155766478Y-105733523D02*
X155248000Y-105215045D01*
X157374088Y-108724912D02*
X157250000Y-108849000D01*
X155766478Y-106266478D02*
X155766478Y-105733523D01*
X155248000Y-104717159D02*
X154997000Y-104466159D01*
X154298064Y-102298064D02*
X154298064Y-102243981D01*
D43*
%TO.N,D+*%
X139962500Y-108750000D02*
X139000000Y-108750000D01*
X139000000Y-107750000D02*
X138500000Y-108250000D01*
X139000000Y-108750000D02*
X138500000Y-108250000D01*
X139962500Y-107750000D02*
X139000000Y-107750000D01*
D42*
%TO.N,D-*%
X143250000Y-107750000D02*
X142750000Y-107250000D01*
X139962500Y-108250000D02*
X142750000Y-108250000D01*
X142750000Y-107250000D02*
X139962500Y-107250000D01*
X142750000Y-108250000D02*
X143250000Y-107750000D01*
%TO.N,SWDCLK*%
X154000000Y-96500000D02*
X154000000Y-97502000D01*
X154250000Y-95250000D02*
X154250000Y-96250000D01*
X154250000Y-96250000D02*
X154000000Y-96500000D01*
X154750000Y-94750000D02*
X154250000Y-95250000D01*
X154000000Y-97502000D02*
X153902000Y-97600000D01*
%TO.N,SPI2_MISO*%
X160990000Y-116870000D02*
X162380000Y-118260000D01*
X160990000Y-113469943D02*
X160990000Y-116870000D01*
X161721000Y-112738943D02*
X160990000Y-113469943D01*
X160469943Y-110990000D02*
X161721000Y-112241057D01*
X153000000Y-110990000D02*
X160469943Y-110990000D01*
X161721000Y-112241057D02*
X161721000Y-112738943D01*
X151740000Y-110990000D02*
X153000000Y-110990000D01*
D43*
%TO.N,SWDIO*%
X164250000Y-90250000D02*
X164500000Y-90000000D01*
X148374000Y-92344256D02*
X148484128Y-92234128D01*
X148968256Y-95000000D02*
X148374000Y-94405744D01*
X151000000Y-95000000D02*
X148968256Y-95000000D01*
X151232815Y-99118227D02*
X151601042Y-98750000D01*
X151232815Y-99932812D02*
X151232815Y-99118227D01*
X148374000Y-94405744D02*
X148374000Y-92344256D01*
X148484128Y-92234128D02*
X150700472Y-90017784D01*
X150700472Y-90017784D02*
X150700472Y-89701000D01*
X164250000Y-91250000D02*
X164250000Y-90250000D01*
X151601042Y-98750000D02*
X151723000Y-98750000D01*
X151723000Y-95723000D02*
X151000000Y-95000000D01*
X151723000Y-98750000D02*
X151723000Y-95723000D01*
D42*
%TO.N,BOX_CS*%
X164261000Y-117659000D02*
X163660000Y-118260000D01*
X162500000Y-109594918D02*
X164261000Y-111355918D01*
X162500000Y-108400000D02*
X162500000Y-109594918D01*
X164261000Y-111355918D02*
X164261000Y-117659000D01*
%TO.N,SPI2_MOSI*%
X151740000Y-112290000D02*
X153250000Y-112290000D01*
X153250000Y-112290000D02*
X159650000Y-112290000D01*
X159650000Y-112290000D02*
X159850000Y-112490000D01*
D43*
%TO.N,LED*%
X155641502Y-89760498D02*
X155641502Y-90732099D01*
X148023000Y-94551133D02*
X148023000Y-92198868D01*
X155978914Y-91069511D02*
X158319511Y-91069511D01*
X150261000Y-103011000D02*
X150261000Y-99593653D01*
X163000000Y-95500000D02*
X163000000Y-96000000D01*
X150124472Y-90097396D02*
X150124472Y-89462412D01*
X150261000Y-99593653D02*
X151372000Y-98482654D01*
X148822867Y-95351000D02*
X148023000Y-94551133D01*
X159000000Y-94150000D02*
X161650000Y-94150000D01*
X151000000Y-103750000D02*
X150261000Y-103011000D01*
X151372000Y-95868388D02*
X150854612Y-95351000D01*
X150510884Y-89076000D02*
X156326000Y-89076000D01*
X158733201Y-91483201D02*
X158833182Y-91483201D01*
X150854612Y-95351000D02*
X148822867Y-95351000D01*
X151372000Y-98482654D02*
X151372000Y-95868388D01*
X148023000Y-92198868D02*
X150124472Y-90097396D01*
X158319511Y-91069511D02*
X158733201Y-91483201D01*
X161650000Y-94150000D02*
X163000000Y-95500000D01*
X150124472Y-89462412D02*
X150510884Y-89076000D01*
X156326000Y-89076000D02*
X155641502Y-89760498D01*
X155641502Y-90732099D02*
X155978914Y-91069511D01*
D42*
%TO.N,SPI2_SCK*%
X153750000Y-111640000D02*
X151740000Y-111640000D01*
X153750000Y-111640000D02*
X160270000Y-111640000D01*
X160270000Y-111640000D02*
X161120000Y-112490000D01*
%TD*%
M02*
