%TF.GenerationSoftware,KiCad,Pcbnew,9.0.6*%
%TF.CreationDate,2025-12-27T02:42:00+01:00*%
%TF.ProjectId,hardware,68617264-7761-4726-952e-6b696361645f,rev?*%
%TF.SameCoordinates,Original*%
%TF.FileFunction,Copper,L2,Inr*%
%TF.FilePolarity,Positive*%
%FSLAX46Y46*%
G04 Gerber Fmt 4.6, Leading zero omitted, Abs format (unit mm)*
G04 Created by KiCad (PCBNEW 9.0.6) date 2025-12-27 02:42:00*
%MOMM*%
%LPD*%
G01*
G04 APERTURE LIST*
%TA.AperFunction,ComponentPad*%
%ADD10C,0.700000*%
%TD*%
%TA.AperFunction,ComponentPad*%
%ADD11O,2.000000X1.100000*%
%TD*%
%TA.AperFunction,ComponentPad*%
%ADD12O,1.800000X1.200000*%
%TD*%
%TA.AperFunction,ViaPad*%
%ADD13C,0.600000*%
%TD*%
%TA.AperFunction,ViaPad*%
%ADD14C,5.000000*%
%TD*%
%TA.AperFunction,Conductor*%
%ADD15C,0.200000*%
%TD*%
%TA.AperFunction,Conductor*%
%ADD16C,0.250000*%
%TD*%
%TA.AperFunction,Conductor*%
%ADD17C,0.500000*%
%TD*%
G04 APERTURE END LIST*
D10*
%TO.N,*%
%TO.C,USB1*%
X138882500Y-105110000D03*
X138882500Y-110890000D03*
D11*
%TO.N,GND*%
X139412500Y-103680000D03*
D12*
X135202500Y-103680000D03*
D11*
X139412500Y-112320000D03*
D12*
X135202500Y-112320000D03*
%TD*%
D13*
%TO.N,GND*%
X171500000Y-104500000D03*
X139500000Y-98750000D03*
X136087500Y-106750000D03*
D14*
X137750000Y-92750000D03*
D13*
X162500000Y-122620000D03*
D14*
X137750000Y-123250000D03*
D13*
X142500000Y-118500000D03*
X148200000Y-126440000D03*
X163000000Y-93000000D03*
X153500000Y-122560000D03*
X144500000Y-122560000D03*
X143800000Y-93380000D03*
D14*
X168250000Y-92750000D03*
D13*
X161750000Y-115250000D03*
X171440000Y-95700000D03*
X171440000Y-102300000D03*
X155700000Y-118680000D03*
X148870000Y-113270000D03*
X145800000Y-126440000D03*
X164800000Y-126500000D03*
X167620000Y-106800000D03*
X136087500Y-109750000D03*
X161500000Y-96000000D03*
X155500000Y-93440000D03*
X158200000Y-126500000D03*
X148200000Y-89560000D03*
X148870000Y-113270000D03*
X156400000Y-102700000D03*
X140980000Y-114280000D03*
X139962500Y-111200000D03*
X159990000Y-120201000D03*
X171440000Y-114700000D03*
D14*
X168250000Y-123250000D03*
D13*
X141200000Y-126440000D03*
X135750000Y-114500000D03*
X150500000Y-122560000D03*
X161500000Y-93000000D03*
X146100000Y-89500000D03*
X157300000Y-119820000D03*
X171500000Y-112100000D03*
X139962500Y-104800000D03*
X141500000Y-89500000D03*
X171440000Y-120300000D03*
X142362500Y-96750000D03*
X167560000Y-119000000D03*
X144000000Y-118500000D03*
X167560000Y-100000000D03*
X155800000Y-126440000D03*
X156217502Y-90493511D03*
%TO.N,5V*%
X160000000Y-96000000D03*
X148910000Y-100500000D03*
X139962500Y-105600000D03*
X159850000Y-121000000D03*
X143500000Y-122560000D03*
X167560000Y-118000000D03*
X139962500Y-110400000D03*
X153750000Y-116750000D03*
X167620000Y-105800000D03*
X144000000Y-120500000D03*
X144800000Y-93380000D03*
%TO.N,3V3-IMU*%
X152500000Y-121000000D03*
X158500002Y-103796997D03*
%TO.N,3V3-MCU*%
X158500000Y-119000000D03*
X171204293Y-109544293D03*
X163660000Y-112240000D03*
X159583220Y-99475569D03*
X162380000Y-112490000D03*
X152450735Y-100049265D03*
X166250000Y-113000000D03*
X152000000Y-107599000D03*
%TO.N,3V3*%
X155750000Y-122500000D03*
X164270000Y-93000000D03*
X135750000Y-100150000D03*
%TO.N,/AT32/VBATADC*%
X162350167Y-103149832D03*
X158000001Y-91651471D03*
%TO.N,Net-(U52-VCC)*%
X140016163Y-119984074D03*
%TO.N,Net-(D2-A)*%
X135650000Y-117000000D03*
X140500000Y-121500000D03*
X162750000Y-124500000D03*
%TO.N,Net-(C29-Pad1)*%
X142500000Y-115500000D03*
%TO.N,Net-(U10-VOUT)*%
X144500000Y-116500000D03*
%TO.N,Net-(U10-VIN)*%
X137000000Y-99400000D03*
X144716000Y-113540000D03*
X144200000Y-109600000D03*
X142000000Y-91350000D03*
%TO.N,VBAT*%
X150595740Y-98445740D03*
X167560000Y-101000000D03*
X146500000Y-98830000D03*
X142900000Y-111200000D03*
X139550000Y-114250000D03*
X156500000Y-93440000D03*
X142300000Y-116500000D03*
%TO.N,Net-(U52-SW)*%
X140287737Y-117206103D03*
%TO.N,Net-(USB1-CC2)*%
X138000000Y-109750000D03*
%TO.N,Net-(USB1-CC1)*%
X138000000Y-106750000D03*
%TO.N,Net-(U8-NRST)*%
X160500000Y-103500000D03*
%TO.N,Net-(U8-PB2)*%
X155600000Y-109515627D03*
%TO.N,Net-(U8-PC13)*%
X160885927Y-100311630D03*
%TO.N,Net-(U8-PC14)*%
X160750000Y-101100000D03*
%TO.N,CUR*%
X158543592Y-104595809D03*
X153500000Y-93440000D03*
%TO.N,Net-(U52-PG)*%
X138999007Y-117081970D03*
%TO.N,Net-(U4-Output)*%
X161450735Y-102549265D03*
%TO.N,Net-(U4-Input)*%
X158500002Y-102250000D03*
%TO.N,UART3_TX*%
X159024000Y-116976000D03*
X155399000Y-113351000D03*
X159500000Y-122620000D03*
%TO.N,VTX*%
X161500000Y-122620000D03*
%TO.N,UART3_RX*%
X154475982Y-104763717D03*
%TO.N,9V*%
X149500000Y-122750000D03*
X142500000Y-120500000D03*
X139250000Y-101000000D03*
X163500000Y-122620000D03*
X160000000Y-93000000D03*
%TO.N,BB-*%
X142500000Y-122560000D03*
%TO.N,UART2_TX*%
X162250000Y-106750000D03*
%TO.N,UART2_RX*%
X156273611Y-106818366D03*
X167560000Y-117000000D03*
X170000000Y-109000000D03*
X169825000Y-104175000D03*
%TO.N,Net-(U7-SW)*%
X139250000Y-97000000D03*
%TO.N,PWM4*%
X156250000Y-104800002D03*
%TO.N,PWM1*%
X156450735Y-97950735D03*
X149500000Y-93440000D03*
X152500000Y-91750000D03*
%TO.N,PWM3*%
X158800002Y-105500000D03*
%TO.N,PWM2*%
X157250000Y-97850000D03*
%TO.N,UART1_RX*%
X152500000Y-122560000D03*
%TO.N,SDA*%
X168801473Y-96350000D03*
X170239000Y-101250000D03*
X164900000Y-109850000D03*
X154400000Y-107750000D03*
X167620000Y-109800000D03*
X159850000Y-109958585D03*
X165600000Y-96500000D03*
X161740078Y-91349000D03*
%TO.N,SCL*%
X160000000Y-90000000D03*
X151832815Y-99332815D03*
X170000000Y-103000000D03*
X167620000Y-110800000D03*
X155000000Y-89701000D03*
X168250000Y-95750000D03*
%TO.N,UART1_TX*%
X151500000Y-122560000D03*
%TO.N,UART7_TX*%
X167500000Y-108750000D03*
%TO.N,SBUS*%
X163000000Y-90000000D03*
X171500000Y-108250000D03*
%TO.N,UART7_RX*%
X158900000Y-95500000D03*
X167500000Y-107750000D03*
%TO.N,BOOT*%
X137000000Y-95900000D03*
X167560000Y-97000000D03*
X155750000Y-95750000D03*
X156750000Y-100599998D03*
%TO.N,UART5_RX*%
X165031587Y-97468413D03*
X167560000Y-99000000D03*
X159940868Y-98121722D03*
%TO.N,UART5_TX*%
X160681397Y-98539000D03*
%TO.N,SPI2_CS*%
X153250000Y-113090003D03*
%TO.N,SP1_SCK*%
X158500000Y-110251000D03*
X156500000Y-110390000D03*
%TO.N,SP1_CS*%
X156501000Y-107585372D03*
X158600000Y-107082207D03*
%TO.N,GYRO_EXTI*%
X159250000Y-108650000D03*
X154298064Y-102243981D03*
%TO.N,D+*%
X138500000Y-108250000D03*
%TO.N,D-*%
X143250000Y-107750000D03*
%TO.N,SWDCLK*%
X153902000Y-97600000D03*
X154750000Y-94750000D03*
X164500000Y-96000000D03*
%TO.N,SPI2_MISO*%
X162380000Y-118260000D03*
X153000000Y-110990000D03*
%TO.N,SWDIO*%
X151232815Y-99932812D03*
X164250000Y-91250000D03*
X150700472Y-89701000D03*
%TO.N,BOX_CS*%
X163660000Y-118260000D03*
X162500000Y-108400000D03*
%TO.N,SPI2_MOSI*%
X153250000Y-112290000D03*
X159850000Y-112490000D03*
%TO.N,LED*%
X159000000Y-94150000D03*
X151000000Y-103750000D03*
X158833182Y-91483201D03*
%TO.N,SPI2_SCK*%
X161120000Y-112490000D03*
X153750000Y-111640000D03*
%TD*%
D15*
%TO.N,5V*%
X159500000Y-121000000D02*
X157899000Y-119399000D01*
D16*
X158819298Y-94874000D02*
X156759298Y-92814000D01*
X149310000Y-116750000D02*
X143500000Y-122560000D01*
D15*
X139962500Y-105600000D02*
X139962500Y-110400000D01*
D16*
X156759298Y-92814000D02*
X155240702Y-92814000D01*
D15*
X157899000Y-119399000D02*
X157899000Y-118235000D01*
D16*
X148910000Y-99144702D02*
X148910000Y-100500000D01*
D15*
X145337500Y-100500000D02*
X148910000Y-100500000D01*
X139962500Y-105600000D02*
X140237500Y-105600000D01*
X149652351Y-97652351D02*
X149652351Y-98402351D01*
X167560000Y-118000000D02*
X168250000Y-117310000D01*
D16*
X153750000Y-116750000D02*
X154634000Y-117634000D01*
D15*
X168250000Y-106430000D02*
X167620000Y-105800000D01*
X144800000Y-93380000D02*
X145380000Y-93380000D01*
D16*
X153750000Y-116750000D02*
X147400000Y-110400000D01*
D15*
X159850000Y-121000000D02*
X159500000Y-121000000D01*
D16*
X147400000Y-110400000D02*
X139962500Y-110400000D01*
X160000000Y-95250000D02*
X159624000Y-94874000D01*
X167194000Y-117634000D02*
X167560000Y-118000000D01*
X158500000Y-117634000D02*
X167194000Y-117634000D01*
D17*
X143500000Y-121000000D02*
X143500000Y-122560000D01*
X144000000Y-120500000D02*
X143500000Y-121000000D01*
D15*
X145380000Y-93380000D02*
X149652351Y-97652351D01*
D16*
X159624000Y-94874000D02*
X158819298Y-94874000D01*
X149652351Y-98402351D02*
X148910000Y-99144702D01*
X154634000Y-117634000D02*
X158500000Y-117634000D01*
D15*
X140237500Y-105600000D02*
X145337500Y-100500000D01*
X157899000Y-118235000D02*
X158500000Y-117634000D01*
D16*
X160000000Y-96000000D02*
X160000000Y-95250000D01*
X155240702Y-92814000D02*
X149652351Y-98402351D01*
X153750000Y-116750000D02*
X149310000Y-116750000D01*
D15*
X168250000Y-117310000D02*
X168250000Y-106430000D01*
%TO.N,3V3-IMU*%
X170839000Y-117138043D02*
X167975043Y-120002000D01*
X171220393Y-108943293D02*
X171453236Y-108943293D01*
X170839000Y-110759529D02*
X170839000Y-117138043D01*
X158898726Y-104101000D02*
X167338043Y-104101000D01*
X166108000Y-120002000D02*
X164259000Y-121851000D01*
X170771000Y-108353957D02*
X171002000Y-108584957D01*
X158500002Y-103796997D02*
X158594723Y-103796997D01*
X171453236Y-108943293D02*
X171805293Y-109295350D01*
X167338043Y-104101000D02*
X170771000Y-107533957D01*
X167975043Y-120002000D02*
X166108000Y-120002000D01*
X171002000Y-108724900D02*
X171220393Y-108943293D01*
X158594723Y-103796997D02*
X158898726Y-104101000D01*
X159501000Y-121851000D02*
X158650000Y-121000000D01*
X171805293Y-109793236D02*
X170839000Y-110759529D01*
X171002000Y-108584957D02*
X171002000Y-108724900D01*
X170771000Y-107533957D02*
X170771000Y-108353957D01*
X171805293Y-109295350D02*
X171805293Y-109793236D01*
X158650000Y-121000000D02*
X152500000Y-121000000D01*
X164259000Y-121851000D02*
X159501000Y-121851000D01*
%TO.N,3V3-MCU*%
X170040000Y-110710000D02*
X170040000Y-117369943D01*
X171204293Y-109544293D02*
X171320000Y-109428586D01*
X162380000Y-112490000D02*
X161779000Y-111889000D01*
X171204293Y-109544293D02*
X171204293Y-109545707D01*
X153024431Y-99475569D02*
X159583220Y-99475569D01*
X156290000Y-111889000D02*
X152000000Y-107599000D01*
X171204293Y-109545707D02*
X170040000Y-110710000D01*
X163660000Y-112240000D02*
X162630000Y-112240000D01*
X159101000Y-119601000D02*
X158500000Y-119000000D01*
X170370000Y-107982900D02*
X168500000Y-106112900D01*
X167808943Y-119601000D02*
X159101000Y-119601000D01*
X167868943Y-105199000D02*
X167371057Y-105199000D01*
X152000000Y-100500000D02*
X152450735Y-100049265D01*
X168500000Y-106112900D02*
X168500000Y-105830057D01*
X152000000Y-107599000D02*
X152000000Y-100500000D01*
X171320000Y-109428586D02*
X171138586Y-109428586D01*
X170601000Y-108751057D02*
X170370000Y-108520057D01*
X167371057Y-105199000D02*
X166250000Y-106320057D01*
X161779000Y-111889000D02*
X156290000Y-111889000D01*
X152450735Y-100049265D02*
X153024431Y-99475569D01*
X170370000Y-108520057D02*
X170370000Y-107982900D01*
X171138586Y-109428586D02*
X170601000Y-108891000D01*
X170601000Y-108891000D02*
X170601000Y-108751057D01*
X166250000Y-106320057D02*
X166250000Y-113000000D01*
X165490000Y-112240000D02*
X163660000Y-112240000D01*
X162630000Y-112240000D02*
X162380000Y-112490000D01*
X170040000Y-117369943D02*
X167808943Y-119601000D01*
X168500000Y-105830057D02*
X167868943Y-105199000D01*
X166250000Y-113000000D02*
X165490000Y-112240000D01*
D16*
%TO.N,3V3*%
X141173000Y-121287702D02*
X141173000Y-123109663D01*
X140759298Y-120874000D02*
X141173000Y-121287702D01*
X164270000Y-93000000D02*
X164270000Y-92770000D01*
X156336298Y-89250000D02*
X155163298Y-90423000D01*
X138250000Y-119103209D02*
X140020791Y-120874000D01*
X154363000Y-123887000D02*
X155750000Y-122500000D01*
X136428500Y-105523702D02*
X135461500Y-106490702D01*
X140020791Y-120874000D02*
X140759298Y-120874000D01*
X138250000Y-119000000D02*
X138250000Y-119103209D01*
X136673000Y-112173000D02*
X136673000Y-117423000D01*
X136673000Y-117423000D02*
X138250000Y-119000000D01*
X136428500Y-100828500D02*
X136428500Y-105523702D01*
X135750000Y-100150000D02*
X136428500Y-100828500D01*
X135461500Y-106490702D02*
X135461500Y-110961500D01*
X141950338Y-123887000D02*
X154363000Y-123887000D01*
X135461500Y-110961500D02*
X136673000Y-112173000D01*
X160750000Y-89250000D02*
X156336298Y-89250000D01*
X141173000Y-123109663D02*
X141950338Y-123887000D01*
X155163298Y-90423000D02*
X144827000Y-90423000D01*
X144827000Y-90423000D02*
X135750000Y-99500000D01*
X164270000Y-92770000D02*
X160750000Y-89250000D01*
X135750000Y-99500000D02*
X135750000Y-100150000D01*
D17*
%TO.N,VBAT*%
X167560000Y-101000000D02*
X164250000Y-101000000D01*
X157535000Y-95805000D02*
X157580000Y-95760000D01*
X159088925Y-96751000D02*
X156828962Y-94491038D01*
X157568962Y-95231038D02*
X157018962Y-94681038D01*
X142900000Y-111200000D02*
X143251000Y-111551000D01*
X156500000Y-94162075D02*
X156500000Y-93440000D01*
X158078962Y-95741038D02*
X157568962Y-95231038D01*
X158060000Y-95760000D02*
X158078962Y-95741038D01*
X156995000Y-95805000D02*
X157535000Y-95805000D01*
X154354260Y-98445740D02*
X150595740Y-98445740D01*
X164250000Y-101000000D02*
X160001000Y-96751000D01*
X159088925Y-96751000D02*
X158078962Y-95741038D01*
X142562075Y-116500000D02*
X142300000Y-116500000D01*
X157018962Y-94681038D02*
X156500000Y-94162075D01*
X143251000Y-111551000D02*
X143251000Y-115811075D01*
X143251000Y-115811075D02*
X142562075Y-116500000D01*
X156828962Y-94491038D02*
X156500000Y-94162075D01*
X157580000Y-95760000D02*
X158060000Y-95760000D01*
X160001000Y-96751000D02*
X159088925Y-96751000D01*
X156995000Y-95805000D02*
X154354260Y-98445740D01*
X157018962Y-94681038D02*
X156995000Y-94705000D01*
X156995000Y-94705000D02*
X156995000Y-95805000D01*
%TO.N,9V*%
X152560000Y-121749000D02*
X152500000Y-121809000D01*
X142500000Y-120500000D02*
X141749000Y-119749000D01*
X156061075Y-121749000D02*
X152560000Y-121749000D01*
X163500000Y-122620000D02*
X163500000Y-122682075D01*
X150188925Y-121809000D02*
X149500000Y-122497925D01*
X157000000Y-123250000D02*
X157000000Y-122687925D01*
X141749000Y-119749000D02*
X141749000Y-117605291D01*
X153251000Y-91438925D02*
X152811075Y-90999000D01*
X142500000Y-120500000D02*
X141749000Y-121251000D01*
X141749000Y-122871075D02*
X142188925Y-123311000D01*
X152811075Y-90999000D02*
X145118925Y-90999000D01*
X140251000Y-95866925D02*
X140251000Y-99999000D01*
X137249000Y-113105291D02*
X137249000Y-103001000D01*
X149500000Y-122497925D02*
X149500000Y-122750000D01*
X162182075Y-124000000D02*
X157750000Y-124000000D01*
X141749000Y-117605291D02*
X137249000Y-113105291D01*
X157759886Y-93000000D02*
X156198811Y-91438925D01*
X145118925Y-90999000D02*
X140251000Y-95866925D01*
X157750000Y-124000000D02*
X157000000Y-123250000D01*
X141749000Y-121251000D02*
X141749000Y-122871075D01*
X137249000Y-103001000D02*
X139250000Y-101000000D01*
X156198811Y-91438925D02*
X153251000Y-91438925D01*
X152500000Y-121809000D02*
X150188925Y-121809000D01*
X148939000Y-123311000D02*
X149500000Y-122750000D01*
X142188925Y-123311000D02*
X148939000Y-123311000D01*
X140251000Y-99999000D02*
X139250000Y-101000000D01*
X163500000Y-122682075D02*
X162182075Y-124000000D01*
X157000000Y-122687925D02*
X156061075Y-121749000D01*
X160000000Y-93000000D02*
X157759886Y-93000000D01*
%TD*%
M02*
