%TF.GenerationSoftware,KiCad,Pcbnew,9.0.6*%
%TF.CreationDate,2025-12-27T02:42:00+01:00*%
%TF.ProjectId,hardware,68617264-7761-4726-952e-6b696361645f,rev?*%
%TF.SameCoordinates,Original*%
%TF.FileFunction,Copper,L3,Inr*%
%TF.FilePolarity,Positive*%
%FSLAX46Y46*%
G04 Gerber Fmt 4.6, Leading zero omitted, Abs format (unit mm)*
G04 Created by KiCad (PCBNEW 9.0.6) date 2025-12-27 02:42:00*
%MOMM*%
%LPD*%
G01*
G04 APERTURE LIST*
%TA.AperFunction,ComponentPad*%
%ADD10C,0.700000*%
%TD*%
%TA.AperFunction,ComponentPad*%
%ADD11O,2.000000X1.100000*%
%TD*%
%TA.AperFunction,ComponentPad*%
%ADD12O,1.800000X1.200000*%
%TD*%
%TA.AperFunction,ViaPad*%
%ADD13C,0.600000*%
%TD*%
%TA.AperFunction,ViaPad*%
%ADD14C,5.000000*%
%TD*%
%TA.AperFunction,Conductor*%
%ADD15C,0.200000*%
%TD*%
G04 APERTURE END LIST*
D10*
%TO.N,*%
%TO.C,USB1*%
X138882500Y-105110000D03*
X138882500Y-110890000D03*
D11*
%TO.N,GND*%
X139412500Y-103680000D03*
D12*
X135202500Y-103680000D03*
D11*
X139412500Y-112320000D03*
D12*
X135202500Y-112320000D03*
%TD*%
D13*
%TO.N,GND*%
X171500000Y-104500000D03*
X139500000Y-98750000D03*
X136087500Y-106750000D03*
D14*
X137750000Y-92750000D03*
D13*
X162500000Y-122620000D03*
D14*
X137750000Y-123250000D03*
D13*
X142500000Y-118500000D03*
X148200000Y-126440000D03*
X163000000Y-93000000D03*
X153500000Y-122560000D03*
X144500000Y-122560000D03*
X143800000Y-93380000D03*
D14*
X168250000Y-92750000D03*
D13*
X161750000Y-115250000D03*
X171440000Y-95700000D03*
X171440000Y-102300000D03*
X155700000Y-118680000D03*
X148870000Y-113270000D03*
X145800000Y-126440000D03*
X164800000Y-126500000D03*
X167620000Y-106800000D03*
X136087500Y-109750000D03*
X161500000Y-96000000D03*
X155500000Y-93440000D03*
X158200000Y-126500000D03*
X148200000Y-89560000D03*
X148870000Y-113270000D03*
X156400000Y-102700000D03*
X140980000Y-114280000D03*
X139962500Y-111200000D03*
X159990000Y-120201000D03*
X171440000Y-114700000D03*
D14*
X168250000Y-123250000D03*
D13*
X141200000Y-126440000D03*
X135750000Y-114500000D03*
X150500000Y-122560000D03*
X161500000Y-93000000D03*
X146100000Y-89500000D03*
X157300000Y-119820000D03*
X171500000Y-112100000D03*
X139962500Y-104800000D03*
X141500000Y-89500000D03*
X171440000Y-120300000D03*
X142362500Y-96750000D03*
X167560000Y-119000000D03*
X144000000Y-118500000D03*
X167560000Y-100000000D03*
X155800000Y-126440000D03*
X156217502Y-90493511D03*
%TO.N,5V*%
X160000000Y-96000000D03*
X148910000Y-100500000D03*
X139962500Y-105600000D03*
X159850000Y-121000000D03*
X143500000Y-122560000D03*
X167560000Y-118000000D03*
X139962500Y-110400000D03*
X153750000Y-116750000D03*
X167620000Y-105800000D03*
X144000000Y-120500000D03*
X144800000Y-93380000D03*
%TO.N,3V3-IMU*%
X152500000Y-121000000D03*
X158500002Y-103796997D03*
%TO.N,3V3-MCU*%
X158500000Y-119000000D03*
X171204293Y-109544293D03*
X163660000Y-112240000D03*
X159583220Y-99475569D03*
X162380000Y-112490000D03*
X152450735Y-100049265D03*
X166250000Y-113000000D03*
X152000000Y-107599000D03*
%TO.N,3V3*%
X155750000Y-122500000D03*
X164270000Y-93000000D03*
X135750000Y-100150000D03*
%TO.N,/AT32/VBATADC*%
X162350167Y-103149832D03*
X158000001Y-91651471D03*
%TO.N,Net-(U52-VCC)*%
X140016163Y-119984074D03*
%TO.N,Net-(D2-A)*%
X135650000Y-117000000D03*
X140500000Y-121500000D03*
X162750000Y-124500000D03*
%TO.N,Net-(C29-Pad1)*%
X142500000Y-115500000D03*
%TO.N,Net-(U10-VOUT)*%
X144500000Y-116500000D03*
%TO.N,Net-(U10-VIN)*%
X137000000Y-99400000D03*
X144716000Y-113540000D03*
X144200000Y-109600000D03*
X142000000Y-91350000D03*
%TO.N,VBAT*%
X150595740Y-98445740D03*
X167560000Y-101000000D03*
X146500000Y-98830000D03*
X142900000Y-111200000D03*
X139550000Y-114250000D03*
X156500000Y-93440000D03*
X142300000Y-116500000D03*
%TO.N,Net-(U52-SW)*%
X140287737Y-117206103D03*
%TO.N,Net-(USB1-CC2)*%
X138000000Y-109750000D03*
%TO.N,Net-(USB1-CC1)*%
X138000000Y-106750000D03*
%TO.N,Net-(U8-NRST)*%
X160500000Y-103500000D03*
%TO.N,Net-(U8-PB2)*%
X155600000Y-109515627D03*
%TO.N,Net-(U8-PC13)*%
X160885927Y-100311630D03*
%TO.N,Net-(U8-PC14)*%
X160750000Y-101100000D03*
%TO.N,CUR*%
X158543592Y-104595809D03*
X153500000Y-93440000D03*
%TO.N,Net-(U52-PG)*%
X138999007Y-117081970D03*
%TO.N,Net-(U4-Output)*%
X161450735Y-102549265D03*
%TO.N,Net-(U4-Input)*%
X158500002Y-102250000D03*
%TO.N,UART3_TX*%
X159024000Y-116976000D03*
X155399000Y-113351000D03*
X159500000Y-122620000D03*
%TO.N,VTX*%
X161500000Y-122620000D03*
%TO.N,UART3_RX*%
X154475982Y-104763717D03*
%TO.N,9V*%
X149500000Y-122750000D03*
X142500000Y-120500000D03*
X139250000Y-101000000D03*
X163500000Y-122620000D03*
X160000000Y-93000000D03*
%TO.N,BB-*%
X142500000Y-122560000D03*
%TO.N,UART2_TX*%
X162250000Y-106750000D03*
%TO.N,UART2_RX*%
X156273611Y-106818366D03*
X167560000Y-117000000D03*
X170000000Y-109000000D03*
X169825000Y-104175000D03*
%TO.N,Net-(U7-SW)*%
X139250000Y-97000000D03*
%TO.N,PWM4*%
X156250000Y-104800002D03*
%TO.N,PWM1*%
X156450735Y-97950735D03*
X149500000Y-93440000D03*
X152500000Y-91750000D03*
%TO.N,PWM3*%
X158800002Y-105500000D03*
%TO.N,PWM2*%
X157250000Y-97850000D03*
%TO.N,UART1_RX*%
X152500000Y-122560000D03*
%TO.N,SDA*%
X168801473Y-96350000D03*
X170239000Y-101250000D03*
X164900000Y-109850000D03*
X154400000Y-107750000D03*
X167620000Y-109800000D03*
X159850000Y-109958585D03*
X165600000Y-96500000D03*
X161740078Y-91349000D03*
%TO.N,SCL*%
X160000000Y-90000000D03*
X151832815Y-99332815D03*
X170000000Y-103000000D03*
X167620000Y-110800000D03*
X155000000Y-89701000D03*
X168250000Y-95750000D03*
%TO.N,UART1_TX*%
X151500000Y-122560000D03*
%TO.N,UART7_TX*%
X167500000Y-108750000D03*
%TO.N,SBUS*%
X163000000Y-90000000D03*
X171500000Y-108250000D03*
%TO.N,UART7_RX*%
X158900000Y-95500000D03*
X167500000Y-107750000D03*
%TO.N,BOOT*%
X137000000Y-95900000D03*
X167560000Y-97000000D03*
X155750000Y-95750000D03*
X156750000Y-100599998D03*
%TO.N,UART5_RX*%
X165031587Y-97468413D03*
X167560000Y-99000000D03*
X159940868Y-98121722D03*
%TO.N,UART5_TX*%
X160681397Y-98539000D03*
%TO.N,SPI2_CS*%
X153250000Y-113090003D03*
%TO.N,SP1_SCK*%
X158500000Y-110251000D03*
X156500000Y-110390000D03*
%TO.N,SP1_CS*%
X156501000Y-107585372D03*
X158600000Y-107082207D03*
%TO.N,GYRO_EXTI*%
X159250000Y-108650000D03*
X154298064Y-102243981D03*
%TO.N,D+*%
X138500000Y-108250000D03*
%TO.N,D-*%
X143250000Y-107750000D03*
%TO.N,SWDCLK*%
X153902000Y-97600000D03*
X154750000Y-94750000D03*
X164500000Y-96000000D03*
%TO.N,SPI2_MISO*%
X162380000Y-118260000D03*
X153000000Y-110990000D03*
%TO.N,SWDIO*%
X151232815Y-99932812D03*
X164250000Y-91250000D03*
X150700472Y-89701000D03*
%TO.N,BOX_CS*%
X163660000Y-118260000D03*
X162500000Y-108400000D03*
%TO.N,SPI2_MOSI*%
X153250000Y-112290000D03*
X159850000Y-112490000D03*
%TO.N,LED*%
X159000000Y-94150000D03*
X151000000Y-103750000D03*
X158833182Y-91483201D03*
%TO.N,SPI2_SCK*%
X161120000Y-112490000D03*
X153750000Y-111640000D03*
%TD*%
D15*
%TO.N,GND*%
X168250000Y-92750000D02*
X169750000Y-92750000D01*
%TD*%
%TA.AperFunction,Conductor*%
%TO.N,GND*%
G36*
X172192539Y-88770185D02*
G01*
X172238294Y-88822989D01*
X172249500Y-88874500D01*
X172249500Y-127125500D01*
X172229815Y-127192539D01*
X172177011Y-127238294D01*
X172125500Y-127249500D01*
X133874500Y-127249500D01*
X133807461Y-127229815D01*
X133761706Y-127177011D01*
X133750500Y-127125500D01*
X133750500Y-124434108D01*
X162249500Y-124434108D01*
X162249500Y-124565891D01*
X162283608Y-124693187D01*
X162316554Y-124750250D01*
X162349500Y-124807314D01*
X162442686Y-124900500D01*
X162556814Y-124966392D01*
X162684108Y-125000500D01*
X162684110Y-125000500D01*
X162815890Y-125000500D01*
X162815892Y-125000500D01*
X162943186Y-124966392D01*
X163057314Y-124900500D01*
X163150500Y-124807314D01*
X163216392Y-124693186D01*
X163250500Y-124565892D01*
X163250500Y-124434108D01*
X163216392Y-124306814D01*
X163150500Y-124192686D01*
X163057314Y-124099500D01*
X163000250Y-124066554D01*
X162943187Y-124033608D01*
X162879539Y-124016554D01*
X162815892Y-123999500D01*
X162684108Y-123999500D01*
X162556812Y-124033608D01*
X162442686Y-124099500D01*
X162442683Y-124099502D01*
X162349502Y-124192683D01*
X162349500Y-124192686D01*
X162283608Y-124306812D01*
X162249500Y-124434108D01*
X133750500Y-124434108D01*
X133750500Y-122494108D01*
X141999500Y-122494108D01*
X141999500Y-122625892D01*
X142000000Y-122627758D01*
X142033608Y-122753187D01*
X142064858Y-122807313D01*
X142099500Y-122867314D01*
X142192686Y-122960500D01*
X142261968Y-123000500D01*
X142296603Y-123020497D01*
X142306814Y-123026392D01*
X142434108Y-123060500D01*
X142434110Y-123060500D01*
X142565890Y-123060500D01*
X142565892Y-123060500D01*
X142693186Y-123026392D01*
X142807314Y-122960500D01*
X142900500Y-122867314D01*
X142900504Y-122867306D01*
X142901625Y-122865847D01*
X142902892Y-122864921D01*
X142906247Y-122861567D01*
X142906770Y-122862090D01*
X142958053Y-122824645D01*
X143027799Y-122820491D01*
X143088719Y-122854704D01*
X143098375Y-122865847D01*
X143099498Y-122867311D01*
X143099500Y-122867314D01*
X143192686Y-122960500D01*
X143261968Y-123000500D01*
X143296603Y-123020497D01*
X143306814Y-123026392D01*
X143434108Y-123060500D01*
X143434110Y-123060500D01*
X143565890Y-123060500D01*
X143565892Y-123060500D01*
X143693186Y-123026392D01*
X143807314Y-122960500D01*
X143900500Y-122867314D01*
X143966392Y-122753186D01*
X143984901Y-122684108D01*
X148999500Y-122684108D01*
X148999500Y-122815892D01*
X149011879Y-122862090D01*
X149033608Y-122943187D01*
X149043604Y-122960500D01*
X149099500Y-123057314D01*
X149192686Y-123150500D01*
X149306814Y-123216392D01*
X149434108Y-123250500D01*
X149434110Y-123250500D01*
X149565890Y-123250500D01*
X149565892Y-123250500D01*
X149693186Y-123216392D01*
X149807314Y-123150500D01*
X149900500Y-123057314D01*
X149966392Y-122943186D01*
X150000500Y-122815892D01*
X150000500Y-122684108D01*
X149966392Y-122556814D01*
X149930189Y-122494108D01*
X150999500Y-122494108D01*
X150999500Y-122625892D01*
X151000000Y-122627758D01*
X151033608Y-122753187D01*
X151064858Y-122807313D01*
X151099500Y-122867314D01*
X151192686Y-122960500D01*
X151261968Y-123000500D01*
X151296603Y-123020497D01*
X151306814Y-123026392D01*
X151434108Y-123060500D01*
X151434110Y-123060500D01*
X151565890Y-123060500D01*
X151565892Y-123060500D01*
X151693186Y-123026392D01*
X151807314Y-122960500D01*
X151900500Y-122867314D01*
X151900504Y-122867306D01*
X151901625Y-122865847D01*
X151902892Y-122864921D01*
X151906247Y-122861567D01*
X151906770Y-122862090D01*
X151958053Y-122824645D01*
X152027799Y-122820491D01*
X152088719Y-122854704D01*
X152098375Y-122865847D01*
X152099498Y-122867311D01*
X152099500Y-122867314D01*
X152192686Y-122960500D01*
X152261968Y-123000500D01*
X152296603Y-123020497D01*
X152306814Y-123026392D01*
X152434108Y-123060500D01*
X152434110Y-123060500D01*
X152565890Y-123060500D01*
X152565892Y-123060500D01*
X152693186Y-123026392D01*
X152807314Y-122960500D01*
X152900500Y-122867314D01*
X152966392Y-122753186D01*
X153000500Y-122625892D01*
X153000500Y-122494108D01*
X152984423Y-122434108D01*
X155249500Y-122434108D01*
X155249500Y-122565891D01*
X155283608Y-122693187D01*
X155316554Y-122750250D01*
X155349500Y-122807314D01*
X155442686Y-122900500D01*
X155516622Y-122943187D01*
X155546603Y-122960497D01*
X155556814Y-122966392D01*
X155684108Y-123000500D01*
X155684110Y-123000500D01*
X155815890Y-123000500D01*
X155815892Y-123000500D01*
X155943186Y-122966392D01*
X156057314Y-122900500D01*
X156150500Y-122807314D01*
X156216392Y-122693186D01*
X156250500Y-122565892D01*
X156250500Y-122554108D01*
X158999500Y-122554108D01*
X158999500Y-122685892D01*
X159001455Y-122693187D01*
X159033608Y-122813187D01*
X159057578Y-122854704D01*
X159099500Y-122927314D01*
X159192686Y-123020500D01*
X159306814Y-123086392D01*
X159434108Y-123120500D01*
X159434110Y-123120500D01*
X159565890Y-123120500D01*
X159565892Y-123120500D01*
X159693186Y-123086392D01*
X159807314Y-123020500D01*
X159900500Y-122927314D01*
X159966392Y-122813186D01*
X160000500Y-122685892D01*
X160000500Y-122554108D01*
X160999500Y-122554108D01*
X160999500Y-122685892D01*
X161001455Y-122693187D01*
X161033608Y-122813187D01*
X161057578Y-122854704D01*
X161099500Y-122927314D01*
X161192686Y-123020500D01*
X161306814Y-123086392D01*
X161434108Y-123120500D01*
X161434110Y-123120500D01*
X161565890Y-123120500D01*
X161565892Y-123120500D01*
X161693186Y-123086392D01*
X161807314Y-123020500D01*
X161900500Y-122927314D01*
X161966392Y-122813186D01*
X162000500Y-122685892D01*
X162000500Y-122554108D01*
X162999500Y-122554108D01*
X162999500Y-122685892D01*
X163001455Y-122693187D01*
X163033608Y-122813187D01*
X163057578Y-122854704D01*
X163099500Y-122927314D01*
X163192686Y-123020500D01*
X163306814Y-123086392D01*
X163434108Y-123120500D01*
X163434110Y-123120500D01*
X163565890Y-123120500D01*
X163565892Y-123120500D01*
X163693186Y-123086392D01*
X163807314Y-123020500D01*
X163900500Y-122927314D01*
X163966392Y-122813186D01*
X164000500Y-122685892D01*
X164000500Y-122554108D01*
X163966392Y-122426814D01*
X163900500Y-122312686D01*
X163807314Y-122219500D01*
X163750250Y-122186554D01*
X163693187Y-122153608D01*
X163629539Y-122136554D01*
X163565892Y-122119500D01*
X163434108Y-122119500D01*
X163306812Y-122153608D01*
X163192686Y-122219500D01*
X163192683Y-122219502D01*
X163099502Y-122312683D01*
X163099500Y-122312686D01*
X163033608Y-122426812D01*
X163016077Y-122492241D01*
X162999500Y-122554108D01*
X162000500Y-122554108D01*
X161966392Y-122426814D01*
X161900500Y-122312686D01*
X161807314Y-122219500D01*
X161750250Y-122186554D01*
X161693187Y-122153608D01*
X161629539Y-122136554D01*
X161565892Y-122119500D01*
X161434108Y-122119500D01*
X161306812Y-122153608D01*
X161192686Y-122219500D01*
X161192683Y-122219502D01*
X161099502Y-122312683D01*
X161099500Y-122312686D01*
X161033608Y-122426812D01*
X161016077Y-122492241D01*
X160999500Y-122554108D01*
X160000500Y-122554108D01*
X159966392Y-122426814D01*
X159900500Y-122312686D01*
X159807314Y-122219500D01*
X159750250Y-122186554D01*
X159693187Y-122153608D01*
X159629539Y-122136554D01*
X159565892Y-122119500D01*
X159434108Y-122119500D01*
X159306812Y-122153608D01*
X159192686Y-122219500D01*
X159192683Y-122219502D01*
X159099502Y-122312683D01*
X159099500Y-122312686D01*
X159033608Y-122426812D01*
X159016077Y-122492241D01*
X158999500Y-122554108D01*
X156250500Y-122554108D01*
X156250500Y-122434108D01*
X156216392Y-122306814D01*
X156150500Y-122192686D01*
X156057314Y-122099500D01*
X155988032Y-122059500D01*
X155943187Y-122033608D01*
X155879539Y-122016554D01*
X155815892Y-121999500D01*
X155684108Y-121999500D01*
X155556812Y-122033608D01*
X155442686Y-122099500D01*
X155442683Y-122099502D01*
X155349502Y-122192683D01*
X155349500Y-122192686D01*
X155283608Y-122306812D01*
X155249500Y-122434108D01*
X152984423Y-122434108D01*
X152966392Y-122366814D01*
X152900500Y-122252686D01*
X152807314Y-122159500D01*
X152738032Y-122119500D01*
X152693187Y-122093608D01*
X152629539Y-122076554D01*
X152565892Y-122059500D01*
X152434108Y-122059500D01*
X152306812Y-122093608D01*
X152192686Y-122159500D01*
X152192683Y-122159502D01*
X152099498Y-122252687D01*
X152098370Y-122254158D01*
X152097102Y-122255083D01*
X152093753Y-122258433D01*
X152093230Y-122257910D01*
X152041940Y-122295356D01*
X151972193Y-122299506D01*
X151911275Y-122265289D01*
X151901630Y-122254158D01*
X151900501Y-122252687D01*
X151807316Y-122159502D01*
X151807314Y-122159500D01*
X151738032Y-122119500D01*
X151693187Y-122093608D01*
X151629539Y-122076554D01*
X151565892Y-122059500D01*
X151434108Y-122059500D01*
X151306812Y-122093608D01*
X151192686Y-122159500D01*
X151192683Y-122159502D01*
X151099502Y-122252683D01*
X151099500Y-122252686D01*
X151033608Y-122366812D01*
X151017531Y-122426814D01*
X150999500Y-122494108D01*
X149930189Y-122494108D01*
X149900500Y-122442686D01*
X149807314Y-122349500D01*
X149750250Y-122316554D01*
X149693187Y-122283608D01*
X149624818Y-122265289D01*
X149565892Y-122249500D01*
X149434108Y-122249500D01*
X149306812Y-122283608D01*
X149192686Y-122349500D01*
X149192683Y-122349502D01*
X149099502Y-122442683D01*
X149099500Y-122442686D01*
X149033608Y-122556812D01*
X149010277Y-122643887D01*
X148999500Y-122684108D01*
X143984901Y-122684108D01*
X144000500Y-122625892D01*
X144000500Y-122494108D01*
X143966392Y-122366814D01*
X143900500Y-122252686D01*
X143807314Y-122159500D01*
X143738032Y-122119500D01*
X143693187Y-122093608D01*
X143629539Y-122076554D01*
X143565892Y-122059500D01*
X143434108Y-122059500D01*
X143306812Y-122093608D01*
X143192686Y-122159500D01*
X143192683Y-122159502D01*
X143099498Y-122252687D01*
X143098370Y-122254158D01*
X143097102Y-122255083D01*
X143093753Y-122258433D01*
X143093230Y-122257910D01*
X143041940Y-122295356D01*
X142972193Y-122299506D01*
X142911275Y-122265289D01*
X142901630Y-122254158D01*
X142900501Y-122252687D01*
X142807316Y-122159502D01*
X142807314Y-122159500D01*
X142738032Y-122119500D01*
X142693187Y-122093608D01*
X142629539Y-122076554D01*
X142565892Y-122059500D01*
X142434108Y-122059500D01*
X142306812Y-122093608D01*
X142192686Y-122159500D01*
X142192683Y-122159502D01*
X142099502Y-122252683D01*
X142099500Y-122252686D01*
X142033608Y-122366812D01*
X142017531Y-122426814D01*
X141999500Y-122494108D01*
X133750500Y-122494108D01*
X133750500Y-121434108D01*
X139999500Y-121434108D01*
X139999500Y-121565891D01*
X140033608Y-121693187D01*
X140066554Y-121750250D01*
X140099500Y-121807314D01*
X140192686Y-121900500D01*
X140306814Y-121966392D01*
X140434108Y-122000500D01*
X140434110Y-122000500D01*
X140565890Y-122000500D01*
X140565892Y-122000500D01*
X140693186Y-121966392D01*
X140807314Y-121900500D01*
X140900500Y-121807314D01*
X140966392Y-121693186D01*
X141000500Y-121565892D01*
X141000500Y-121434108D01*
X140966392Y-121306814D01*
X140900500Y-121192686D01*
X140807314Y-121099500D01*
X140749100Y-121065890D01*
X140693187Y-121033608D01*
X140629539Y-121016554D01*
X140565892Y-120999500D01*
X140434108Y-120999500D01*
X140306812Y-121033608D01*
X140192686Y-121099500D01*
X140192683Y-121099502D01*
X140099502Y-121192683D01*
X140099500Y-121192686D01*
X140033608Y-121306812D01*
X139999500Y-121434108D01*
X133750500Y-121434108D01*
X133750500Y-119918182D01*
X139515663Y-119918182D01*
X139515663Y-120049966D01*
X139528936Y-120099502D01*
X139549771Y-120177261D01*
X139558675Y-120192683D01*
X139615663Y-120291388D01*
X139708849Y-120384574D01*
X139822977Y-120450466D01*
X139950271Y-120484574D01*
X139950273Y-120484574D01*
X140082053Y-120484574D01*
X140082055Y-120484574D01*
X140209349Y-120450466D01*
X140237682Y-120434108D01*
X141999500Y-120434108D01*
X141999500Y-120565891D01*
X142033608Y-120693187D01*
X142066554Y-120750250D01*
X142099500Y-120807314D01*
X142192686Y-120900500D01*
X142306814Y-120966392D01*
X142434108Y-121000500D01*
X142434110Y-121000500D01*
X142565890Y-121000500D01*
X142565892Y-121000500D01*
X142693186Y-120966392D01*
X142807314Y-120900500D01*
X142900500Y-120807314D01*
X142966392Y-120693186D01*
X143000500Y-120565892D01*
X143000500Y-120434108D01*
X143499500Y-120434108D01*
X143499500Y-120565891D01*
X143533608Y-120693187D01*
X143566554Y-120750250D01*
X143599500Y-120807314D01*
X143692686Y-120900500D01*
X143806814Y-120966392D01*
X143934108Y-121000500D01*
X143934110Y-121000500D01*
X144065890Y-121000500D01*
X144065892Y-121000500D01*
X144193186Y-120966392D01*
X144249103Y-120934108D01*
X151999500Y-120934108D01*
X151999500Y-121065891D01*
X152033608Y-121193187D01*
X152066554Y-121250250D01*
X152099500Y-121307314D01*
X152192686Y-121400500D01*
X152306814Y-121466392D01*
X152434108Y-121500500D01*
X152434110Y-121500500D01*
X152565890Y-121500500D01*
X152565892Y-121500500D01*
X152693186Y-121466392D01*
X152807314Y-121400500D01*
X152900500Y-121307314D01*
X152966392Y-121193186D01*
X153000500Y-121065892D01*
X153000500Y-120934108D01*
X159349500Y-120934108D01*
X159349500Y-121065891D01*
X159383608Y-121193187D01*
X159416554Y-121250250D01*
X159449500Y-121307314D01*
X159542686Y-121400500D01*
X159656814Y-121466392D01*
X159784108Y-121500500D01*
X159784110Y-121500500D01*
X159915890Y-121500500D01*
X159915892Y-121500500D01*
X160043186Y-121466392D01*
X160157314Y-121400500D01*
X160250500Y-121307314D01*
X160316392Y-121193186D01*
X160350500Y-121065892D01*
X160350500Y-120934108D01*
X160316392Y-120806814D01*
X160250500Y-120692686D01*
X160157314Y-120599500D01*
X160099100Y-120565890D01*
X160043187Y-120533608D01*
X159979539Y-120516554D01*
X159915892Y-120499500D01*
X159784108Y-120499500D01*
X159656812Y-120533608D01*
X159542686Y-120599500D01*
X159542683Y-120599502D01*
X159449502Y-120692683D01*
X159449500Y-120692686D01*
X159383608Y-120806812D01*
X159349500Y-120934108D01*
X153000500Y-120934108D01*
X152966392Y-120806814D01*
X152900500Y-120692686D01*
X152807314Y-120599500D01*
X152749100Y-120565890D01*
X152693187Y-120533608D01*
X152629539Y-120516554D01*
X152565892Y-120499500D01*
X152434108Y-120499500D01*
X152306812Y-120533608D01*
X152192686Y-120599500D01*
X152192683Y-120599502D01*
X152099502Y-120692683D01*
X152099500Y-120692686D01*
X152033608Y-120806812D01*
X151999500Y-120934108D01*
X144249103Y-120934108D01*
X144307314Y-120900500D01*
X144400500Y-120807314D01*
X144466392Y-120693186D01*
X144500500Y-120565892D01*
X144500500Y-120434108D01*
X144466392Y-120306814D01*
X144400500Y-120192686D01*
X144307314Y-120099500D01*
X144221519Y-120049966D01*
X144193187Y-120033608D01*
X144129539Y-120016554D01*
X144065892Y-119999500D01*
X143934108Y-119999500D01*
X143806812Y-120033608D01*
X143692686Y-120099500D01*
X143692683Y-120099502D01*
X143599502Y-120192683D01*
X143599500Y-120192686D01*
X143533608Y-120306812D01*
X143499500Y-120434108D01*
X143000500Y-120434108D01*
X142966392Y-120306814D01*
X142900500Y-120192686D01*
X142807314Y-120099500D01*
X142721519Y-120049966D01*
X142693187Y-120033608D01*
X142629539Y-120016554D01*
X142565892Y-119999500D01*
X142434108Y-119999500D01*
X142306812Y-120033608D01*
X142192686Y-120099500D01*
X142192683Y-120099502D01*
X142099502Y-120192683D01*
X142099500Y-120192686D01*
X142033608Y-120306812D01*
X141999500Y-120434108D01*
X140237682Y-120434108D01*
X140323477Y-120384574D01*
X140416663Y-120291388D01*
X140482555Y-120177260D01*
X140516663Y-120049966D01*
X140516663Y-119918182D01*
X140482555Y-119790888D01*
X140416663Y-119676760D01*
X140323477Y-119583574D01*
X140266413Y-119550628D01*
X140209350Y-119517682D01*
X140145221Y-119500499D01*
X140082055Y-119483574D01*
X139950271Y-119483574D01*
X139822975Y-119517682D01*
X139708849Y-119583574D01*
X139708846Y-119583576D01*
X139615665Y-119676757D01*
X139615663Y-119676760D01*
X139549771Y-119790886D01*
X139515663Y-119918182D01*
X133750500Y-119918182D01*
X133750500Y-118934108D01*
X157999500Y-118934108D01*
X157999500Y-119065891D01*
X158033608Y-119193187D01*
X158066554Y-119250250D01*
X158099500Y-119307314D01*
X158192686Y-119400500D01*
X158306814Y-119466392D01*
X158434108Y-119500500D01*
X158434110Y-119500500D01*
X158565890Y-119500500D01*
X158565892Y-119500500D01*
X158693186Y-119466392D01*
X158807314Y-119400500D01*
X158900500Y-119307314D01*
X158966392Y-119193186D01*
X159000500Y-119065892D01*
X159000500Y-118934108D01*
X158966392Y-118806814D01*
X158900500Y-118692686D01*
X158807314Y-118599500D01*
X158750250Y-118566554D01*
X158693187Y-118533608D01*
X158629539Y-118516554D01*
X158565892Y-118499500D01*
X158434108Y-118499500D01*
X158306812Y-118533608D01*
X158192686Y-118599500D01*
X158192683Y-118599502D01*
X158099502Y-118692683D01*
X158099500Y-118692686D01*
X158033608Y-118806812D01*
X157999500Y-118934108D01*
X133750500Y-118934108D01*
X133750500Y-118194108D01*
X161879500Y-118194108D01*
X161879500Y-118325891D01*
X161913608Y-118453187D01*
X161940347Y-118499500D01*
X161979500Y-118567314D01*
X162072686Y-118660500D01*
X162186814Y-118726392D01*
X162314108Y-118760500D01*
X162314110Y-118760500D01*
X162445890Y-118760500D01*
X162445892Y-118760500D01*
X162573186Y-118726392D01*
X162687314Y-118660500D01*
X162780500Y-118567314D01*
X162846392Y-118453186D01*
X162880500Y-118325892D01*
X162880500Y-118194108D01*
X163159500Y-118194108D01*
X163159500Y-118325891D01*
X163193608Y-118453187D01*
X163220347Y-118499500D01*
X163259500Y-118567314D01*
X163352686Y-118660500D01*
X163466814Y-118726392D01*
X163594108Y-118760500D01*
X163594110Y-118760500D01*
X163725890Y-118760500D01*
X163725892Y-118760500D01*
X163853186Y-118726392D01*
X163967314Y-118660500D01*
X164060500Y-118567314D01*
X164126392Y-118453186D01*
X164160500Y-118325892D01*
X164160500Y-118194108D01*
X164126392Y-118066814D01*
X164060500Y-117952686D01*
X163967314Y-117859500D01*
X163910250Y-117826554D01*
X163853187Y-117793608D01*
X163789539Y-117776554D01*
X163725892Y-117759500D01*
X163594108Y-117759500D01*
X163466812Y-117793608D01*
X163352686Y-117859500D01*
X163352683Y-117859502D01*
X163259502Y-117952683D01*
X163259500Y-117952686D01*
X163193608Y-118066812D01*
X163159500Y-118194108D01*
X162880500Y-118194108D01*
X162846392Y-118066814D01*
X162780500Y-117952686D01*
X162687314Y-117859500D01*
X162630250Y-117826554D01*
X162573187Y-117793608D01*
X162509539Y-117776554D01*
X162445892Y-117759500D01*
X162314108Y-117759500D01*
X162186812Y-117793608D01*
X162072686Y-117859500D01*
X162072683Y-117859502D01*
X161979502Y-117952683D01*
X161979500Y-117952686D01*
X161913608Y-118066812D01*
X161879500Y-118194108D01*
X133750500Y-118194108D01*
X133750500Y-116934108D01*
X135149500Y-116934108D01*
X135149500Y-117065891D01*
X135183608Y-117193187D01*
X135197005Y-117216391D01*
X135249500Y-117307314D01*
X135342686Y-117400500D01*
X135456814Y-117466392D01*
X135584108Y-117500500D01*
X135584110Y-117500500D01*
X135715890Y-117500500D01*
X135715892Y-117500500D01*
X135843186Y-117466392D01*
X135957314Y-117400500D01*
X136050500Y-117307314D01*
X136116392Y-117193186D01*
X136150500Y-117065892D01*
X136150500Y-117016078D01*
X138498507Y-117016078D01*
X138498507Y-117147861D01*
X138532615Y-117275157D01*
X138565561Y-117332220D01*
X138598507Y-117389284D01*
X138691693Y-117482470D01*
X138805821Y-117548362D01*
X138933115Y-117582470D01*
X138933117Y-117582470D01*
X139064897Y-117582470D01*
X139064899Y-117582470D01*
X139192193Y-117548362D01*
X139306321Y-117482470D01*
X139399507Y-117389284D01*
X139465399Y-117275156D01*
X139499507Y-117147862D01*
X139499507Y-117140211D01*
X139787237Y-117140211D01*
X139787237Y-117271995D01*
X139796700Y-117307313D01*
X139821345Y-117399290D01*
X139854291Y-117456353D01*
X139887237Y-117513417D01*
X139980423Y-117606603D01*
X140094551Y-117672495D01*
X140221845Y-117706603D01*
X140221847Y-117706603D01*
X140353627Y-117706603D01*
X140353629Y-117706603D01*
X140480923Y-117672495D01*
X140595051Y-117606603D01*
X140688237Y-117513417D01*
X140754129Y-117399289D01*
X140788237Y-117271995D01*
X140788237Y-117140211D01*
X140754129Y-117012917D01*
X140688237Y-116898789D01*
X140595051Y-116805603D01*
X140537987Y-116772657D01*
X140480924Y-116739711D01*
X140417276Y-116722657D01*
X140353629Y-116705603D01*
X140221845Y-116705603D01*
X140094549Y-116739711D01*
X139980423Y-116805603D01*
X139980420Y-116805605D01*
X139887239Y-116898786D01*
X139887237Y-116898789D01*
X139821345Y-117012915D01*
X139787237Y-117140211D01*
X139499507Y-117140211D01*
X139499507Y-117016078D01*
X139465399Y-116888784D01*
X139399507Y-116774656D01*
X139306321Y-116681470D01*
X139241224Y-116643886D01*
X139192194Y-116615578D01*
X139128546Y-116598524D01*
X139064899Y-116581470D01*
X138933115Y-116581470D01*
X138805819Y-116615578D01*
X138691693Y-116681470D01*
X138691690Y-116681472D01*
X138598509Y-116774653D01*
X138598507Y-116774656D01*
X138532615Y-116888782D01*
X138498507Y-117016078D01*
X136150500Y-117016078D01*
X136150500Y-116934108D01*
X136116392Y-116806814D01*
X136050500Y-116692686D01*
X135957314Y-116599500D01*
X135843186Y-116533608D01*
X135715892Y-116499500D01*
X135584108Y-116499500D01*
X135456812Y-116533608D01*
X135342686Y-116599500D01*
X135342683Y-116599502D01*
X135249502Y-116692683D01*
X135249500Y-116692686D01*
X135183608Y-116806812D01*
X135149500Y-116934108D01*
X133750500Y-116934108D01*
X133750500Y-116434108D01*
X141799500Y-116434108D01*
X141799500Y-116565892D01*
X141802075Y-116575502D01*
X141833608Y-116693187D01*
X141840777Y-116705603D01*
X141899500Y-116807314D01*
X141992686Y-116900500D01*
X142106814Y-116966392D01*
X142234108Y-117000500D01*
X142234110Y-117000500D01*
X142365890Y-117000500D01*
X142365892Y-117000500D01*
X142493186Y-116966392D01*
X142607314Y-116900500D01*
X142700500Y-116807314D01*
X142766392Y-116693186D01*
X142800500Y-116565892D01*
X142800500Y-116434108D01*
X143999500Y-116434108D01*
X143999500Y-116565892D01*
X144002075Y-116575502D01*
X144033608Y-116693187D01*
X144040777Y-116705603D01*
X144099500Y-116807314D01*
X144192686Y-116900500D01*
X144306814Y-116966392D01*
X144434108Y-117000500D01*
X144434110Y-117000500D01*
X144565890Y-117000500D01*
X144565892Y-117000500D01*
X144693186Y-116966392D01*
X144807314Y-116900500D01*
X144900500Y-116807314D01*
X144966392Y-116693186D01*
X144968824Y-116684108D01*
X153249500Y-116684108D01*
X153249500Y-116815891D01*
X153283608Y-116943187D01*
X153297005Y-116966391D01*
X153349500Y-117057314D01*
X153442686Y-117150500D01*
X153556814Y-117216392D01*
X153684108Y-117250500D01*
X153684110Y-117250500D01*
X153815890Y-117250500D01*
X153815892Y-117250500D01*
X153943186Y-117216392D01*
X154057314Y-117150500D01*
X154150500Y-117057314D01*
X154216392Y-116943186D01*
X154225255Y-116910108D01*
X158523500Y-116910108D01*
X158523500Y-117041892D01*
X158529931Y-117065892D01*
X158557608Y-117169187D01*
X158571464Y-117193186D01*
X158623500Y-117283314D01*
X158716686Y-117376500D01*
X158830814Y-117442392D01*
X158958108Y-117476500D01*
X158958110Y-117476500D01*
X159089890Y-117476500D01*
X159089892Y-117476500D01*
X159217186Y-117442392D01*
X159331314Y-117376500D01*
X159424500Y-117283314D01*
X159490392Y-117169186D01*
X159524500Y-117041892D01*
X159524500Y-116934108D01*
X167059500Y-116934108D01*
X167059500Y-117065891D01*
X167093608Y-117193187D01*
X167107005Y-117216391D01*
X167159500Y-117307314D01*
X167159502Y-117307316D01*
X167252687Y-117400501D01*
X167254158Y-117401630D01*
X167255083Y-117402897D01*
X167258433Y-117406247D01*
X167257910Y-117406769D01*
X167295356Y-117458060D01*
X167299506Y-117527807D01*
X167265289Y-117588725D01*
X167254158Y-117598370D01*
X167252687Y-117599498D01*
X167159502Y-117692683D01*
X167159500Y-117692686D01*
X167093608Y-117806812D01*
X167059500Y-117934108D01*
X167059500Y-118065891D01*
X167093608Y-118193187D01*
X167094140Y-118194108D01*
X167159500Y-118307314D01*
X167252686Y-118400500D01*
X167366814Y-118466392D01*
X167494108Y-118500500D01*
X167494110Y-118500500D01*
X167625890Y-118500500D01*
X167625892Y-118500500D01*
X167753186Y-118466392D01*
X167867314Y-118400500D01*
X167960500Y-118307314D01*
X168026392Y-118193186D01*
X168060500Y-118065892D01*
X168060500Y-117934108D01*
X168026392Y-117806814D01*
X168018767Y-117793608D01*
X167999075Y-117759500D01*
X167960500Y-117692686D01*
X167867314Y-117599500D01*
X167867311Y-117599498D01*
X167865847Y-117598375D01*
X167864921Y-117597107D01*
X167861567Y-117593753D01*
X167862090Y-117593229D01*
X167824645Y-117541947D01*
X167820491Y-117472201D01*
X167854704Y-117411281D01*
X167865847Y-117401625D01*
X167867306Y-117400504D01*
X167867314Y-117400500D01*
X167960500Y-117307314D01*
X168026392Y-117193186D01*
X168060500Y-117065892D01*
X168060500Y-116934108D01*
X168026392Y-116806814D01*
X167960500Y-116692686D01*
X167867314Y-116599500D01*
X167793380Y-116556814D01*
X167753187Y-116533608D01*
X167663616Y-116509608D01*
X167625892Y-116499500D01*
X167494108Y-116499500D01*
X167366812Y-116533608D01*
X167252686Y-116599500D01*
X167252683Y-116599502D01*
X167159502Y-116692683D01*
X167159500Y-116692686D01*
X167093608Y-116806812D01*
X167059500Y-116934108D01*
X159524500Y-116934108D01*
X159524500Y-116910108D01*
X159490392Y-116782814D01*
X159424500Y-116668686D01*
X159331314Y-116575500D01*
X159258755Y-116533608D01*
X159217187Y-116509608D01*
X159153539Y-116492554D01*
X159089892Y-116475500D01*
X158958108Y-116475500D01*
X158830812Y-116509608D01*
X158716686Y-116575500D01*
X158716683Y-116575502D01*
X158623502Y-116668683D01*
X158623500Y-116668686D01*
X158557608Y-116782812D01*
X158534277Y-116869886D01*
X158523500Y-116910108D01*
X154225255Y-116910108D01*
X154250500Y-116815892D01*
X154250500Y-116684108D01*
X154216392Y-116556814D01*
X154150500Y-116442686D01*
X154057314Y-116349500D01*
X153983380Y-116306814D01*
X153943187Y-116283608D01*
X153879539Y-116266554D01*
X153815892Y-116249500D01*
X153684108Y-116249500D01*
X153556812Y-116283608D01*
X153442686Y-116349500D01*
X153442683Y-116349502D01*
X153349502Y-116442683D01*
X153349500Y-116442686D01*
X153283608Y-116556812D01*
X153249500Y-116684108D01*
X144968824Y-116684108D01*
X145000500Y-116565892D01*
X145000500Y-116434108D01*
X144966392Y-116306814D01*
X144900500Y-116192686D01*
X144807314Y-116099500D01*
X144750250Y-116066554D01*
X144693187Y-116033608D01*
X144629539Y-116016554D01*
X144565892Y-115999500D01*
X144434108Y-115999500D01*
X144306812Y-116033608D01*
X144192686Y-116099500D01*
X144192683Y-116099502D01*
X144099502Y-116192683D01*
X144099500Y-116192686D01*
X144033608Y-116306812D01*
X144022170Y-116349500D01*
X143999500Y-116434108D01*
X142800500Y-116434108D01*
X142766392Y-116306814D01*
X142700500Y-116192686D01*
X142668626Y-116160812D01*
X142635141Y-116099489D01*
X142640125Y-116029797D01*
X142681997Y-115973864D01*
X142694297Y-115965750D01*
X142807314Y-115900500D01*
X142900500Y-115807314D01*
X142966392Y-115693186D01*
X143000500Y-115565892D01*
X143000500Y-115434108D01*
X142966392Y-115306814D01*
X142900500Y-115192686D01*
X142807314Y-115099500D01*
X142750250Y-115066554D01*
X142693187Y-115033608D01*
X142629539Y-115016554D01*
X142565892Y-114999500D01*
X142434108Y-114999500D01*
X142306812Y-115033608D01*
X142192686Y-115099500D01*
X142192683Y-115099502D01*
X142099502Y-115192683D01*
X142099500Y-115192686D01*
X142033608Y-115306812D01*
X141999500Y-115434108D01*
X141999500Y-115565891D01*
X142033608Y-115693187D01*
X142066554Y-115750250D01*
X142099500Y-115807314D01*
X142099502Y-115807316D01*
X142131373Y-115839187D01*
X142164858Y-115900510D01*
X142159874Y-115970202D01*
X142118002Y-116026135D01*
X142105693Y-116034255D01*
X141992686Y-116099500D01*
X141992683Y-116099502D01*
X141899502Y-116192683D01*
X141899500Y-116192686D01*
X141833608Y-116306812D01*
X141822170Y-116349500D01*
X141799500Y-116434108D01*
X133750500Y-116434108D01*
X133750500Y-114184108D01*
X139049500Y-114184108D01*
X139049500Y-114315891D01*
X139083608Y-114443187D01*
X139116554Y-114500250D01*
X139149500Y-114557314D01*
X139242686Y-114650500D01*
X139356814Y-114716392D01*
X139484108Y-114750500D01*
X139484110Y-114750500D01*
X139615890Y-114750500D01*
X139615892Y-114750500D01*
X139743186Y-114716392D01*
X139857314Y-114650500D01*
X139950500Y-114557314D01*
X140016392Y-114443186D01*
X140050500Y-114315892D01*
X140050500Y-114184108D01*
X140016392Y-114056814D01*
X139950500Y-113942686D01*
X139857314Y-113849500D01*
X139800250Y-113816554D01*
X139743187Y-113783608D01*
X139679539Y-113766554D01*
X139615892Y-113749500D01*
X139484108Y-113749500D01*
X139356812Y-113783608D01*
X139242686Y-113849500D01*
X139242683Y-113849502D01*
X139149502Y-113942683D01*
X139149500Y-113942686D01*
X139083608Y-114056812D01*
X139049500Y-114184108D01*
X133750500Y-114184108D01*
X133750500Y-113474108D01*
X144215500Y-113474108D01*
X144215500Y-113605891D01*
X144249608Y-113733187D01*
X144278719Y-113783608D01*
X144315500Y-113847314D01*
X144408686Y-113940500D01*
X144522814Y-114006392D01*
X144650108Y-114040500D01*
X144650110Y-114040500D01*
X144781890Y-114040500D01*
X144781892Y-114040500D01*
X144909186Y-114006392D01*
X145023314Y-113940500D01*
X145116500Y-113847314D01*
X145182392Y-113733186D01*
X145216500Y-113605892D01*
X145216500Y-113474108D01*
X145182392Y-113346814D01*
X145116500Y-113232686D01*
X145023314Y-113139500D01*
X144966250Y-113106554D01*
X144909187Y-113073608D01*
X144845539Y-113056554D01*
X144781892Y-113039500D01*
X144650108Y-113039500D01*
X144522812Y-113073608D01*
X144408686Y-113139500D01*
X144408683Y-113139502D01*
X144315502Y-113232683D01*
X144315500Y-113232686D01*
X144249608Y-113346812D01*
X144215500Y-113474108D01*
X133750500Y-113474108D01*
X133750500Y-112987472D01*
X133770185Y-112920433D01*
X133822989Y-112874678D01*
X133892147Y-112864734D01*
X133955703Y-112893759D01*
X133974819Y-112914587D01*
X134063467Y-113036602D01*
X134185897Y-113159032D01*
X134325975Y-113260804D01*
X134480242Y-113339408D01*
X134644915Y-113392914D01*
X134815929Y-113420000D01*
X134952500Y-113420000D01*
X134952500Y-112620000D01*
X135452500Y-112620000D01*
X135452500Y-113420000D01*
X135589071Y-113420000D01*
X135760084Y-113392914D01*
X135924757Y-113339408D01*
X136079024Y-113260804D01*
X136219102Y-113159032D01*
X136341532Y-113036602D01*
X136443304Y-112896524D01*
X136521908Y-112742255D01*
X136575414Y-112577584D01*
X136576615Y-112570000D01*
X135669487Y-112570000D01*
X135686704Y-112560060D01*
X135742559Y-112504205D01*
X135782055Y-112435796D01*
X135802499Y-112359496D01*
X135802499Y-112280504D01*
X135782055Y-112204204D01*
X135742559Y-112135795D01*
X135686704Y-112079940D01*
X135669487Y-112070000D01*
X136576615Y-112070000D01*
X137941657Y-112070000D01*
X138795501Y-112070000D01*
X138778284Y-112079940D01*
X138722429Y-112135795D01*
X138682933Y-112204204D01*
X138662489Y-112280504D01*
X138662489Y-112359496D01*
X138682933Y-112435796D01*
X138722429Y-112504205D01*
X138778284Y-112560060D01*
X138795501Y-112570000D01*
X137941657Y-112570000D01*
X137952850Y-112626274D01*
X137952851Y-112626276D01*
X138032000Y-112817358D01*
X138032005Y-112817368D01*
X138146910Y-112989335D01*
X138146913Y-112989339D01*
X138293160Y-113135586D01*
X138293164Y-113135589D01*
X138465131Y-113250494D01*
X138465141Y-113250499D01*
X138656225Y-113329649D01*
X138656233Y-113329651D01*
X138859079Y-113369999D01*
X138859083Y-113370000D01*
X139162500Y-113370000D01*
X139162500Y-112620000D01*
X139662500Y-112620000D01*
X139662500Y-113370000D01*
X139965917Y-113370000D01*
X139965920Y-113369999D01*
X140094780Y-113344368D01*
X140094802Y-113344363D01*
X140168775Y-113329649D01*
X140359858Y-113250499D01*
X140359868Y-113250494D01*
X140531835Y-113135589D01*
X140531839Y-113135586D01*
X140678086Y-112989339D01*
X140678089Y-112989335D01*
X140792994Y-112817368D01*
X140792999Y-112817358D01*
X140872148Y-112626276D01*
X140872149Y-112626274D01*
X140883343Y-112570000D01*
X140029499Y-112570000D01*
X140046716Y-112560060D01*
X140102571Y-112504205D01*
X140142067Y-112435796D01*
X140162511Y-112359496D01*
X140162511Y-112280504D01*
X140142067Y-112204204D01*
X140102571Y-112135795D01*
X140046716Y-112079940D01*
X140029499Y-112070000D01*
X140883343Y-112070000D01*
X140872149Y-112013725D01*
X140872148Y-112013723D01*
X140792999Y-111822641D01*
X140792994Y-111822631D01*
X140678089Y-111650664D01*
X140678086Y-111650660D01*
X140531839Y-111504413D01*
X140531835Y-111504410D01*
X140359868Y-111389505D01*
X140359858Y-111389500D01*
X140168774Y-111310350D01*
X140168766Y-111310348D01*
X139965920Y-111270000D01*
X139563962Y-111270000D01*
X139539973Y-111262956D01*
X139515150Y-111259988D01*
X139507028Y-111253282D01*
X139496923Y-111250315D01*
X139480551Y-111231421D01*
X139461272Y-111215503D01*
X139458064Y-111205470D01*
X139451168Y-111197511D01*
X139447609Y-111172765D01*
X139439997Y-111148951D01*
X139441771Y-111134108D01*
X142399500Y-111134108D01*
X142399500Y-111265892D01*
X142411412Y-111310348D01*
X142433608Y-111393187D01*
X142462092Y-111442521D01*
X142499500Y-111507314D01*
X142592686Y-111600500D01*
X142706814Y-111666392D01*
X142834108Y-111700500D01*
X142834110Y-111700500D01*
X142965890Y-111700500D01*
X142965892Y-111700500D01*
X143093186Y-111666392D01*
X143207314Y-111600500D01*
X143300500Y-111507314D01*
X143366392Y-111393186D01*
X143400500Y-111265892D01*
X143400500Y-111134108D01*
X143366392Y-111006814D01*
X143366390Y-111006810D01*
X143349747Y-110977983D01*
X143349746Y-110977982D01*
X143341350Y-110963440D01*
X143318642Y-110924108D01*
X152499500Y-110924108D01*
X152499500Y-111055891D01*
X152533608Y-111183187D01*
X152566121Y-111239500D01*
X152599500Y-111297314D01*
X152692686Y-111390500D01*
X152806814Y-111456392D01*
X152934108Y-111490500D01*
X152934110Y-111490500D01*
X153065890Y-111490500D01*
X153065892Y-111490500D01*
X153093408Y-111483127D01*
X153118401Y-111483722D01*
X153143147Y-111480164D01*
X153152727Y-111484539D01*
X153163256Y-111484790D01*
X153183960Y-111498802D01*
X153206703Y-111509189D01*
X153212396Y-111518048D01*
X153221119Y-111523952D01*
X153230960Y-111546935D01*
X153244477Y-111567967D01*
X153246756Y-111583822D01*
X153248623Y-111588181D01*
X153249500Y-111602902D01*
X153249500Y-111676829D01*
X153229815Y-111743868D01*
X153177011Y-111789623D01*
X153157594Y-111796604D01*
X153115176Y-111807969D01*
X153056814Y-111823608D01*
X153056812Y-111823608D01*
X153056812Y-111823609D01*
X152942686Y-111889500D01*
X152942683Y-111889502D01*
X152849502Y-111982683D01*
X152849500Y-111982686D01*
X152783608Y-112096812D01*
X152749500Y-112224108D01*
X152749500Y-112355891D01*
X152783608Y-112483187D01*
X152793027Y-112499500D01*
X152849500Y-112597314D01*
X152849501Y-112597315D01*
X152849502Y-112597316D01*
X152854506Y-112602320D01*
X152887991Y-112663643D01*
X152883007Y-112733335D01*
X152854510Y-112777678D01*
X152849503Y-112782685D01*
X152849501Y-112782687D01*
X152849500Y-112782689D01*
X152829484Y-112817358D01*
X152783608Y-112896816D01*
X152749500Y-113024111D01*
X152749500Y-113155894D01*
X152783608Y-113283190D01*
X152810432Y-113329649D01*
X152849500Y-113397317D01*
X152942686Y-113490503D01*
X153056814Y-113556395D01*
X153184108Y-113590503D01*
X153184110Y-113590503D01*
X153315890Y-113590503D01*
X153315892Y-113590503D01*
X153443186Y-113556395D01*
X153557314Y-113490503D01*
X153650500Y-113397317D01*
X153715284Y-113285108D01*
X154898500Y-113285108D01*
X154898500Y-113416891D01*
X154932608Y-113544187D01*
X154959349Y-113590502D01*
X154998500Y-113658314D01*
X155091686Y-113751500D01*
X155205814Y-113817392D01*
X155333108Y-113851500D01*
X155333110Y-113851500D01*
X155464890Y-113851500D01*
X155464892Y-113851500D01*
X155592186Y-113817392D01*
X155706314Y-113751500D01*
X155799500Y-113658314D01*
X155865392Y-113544186D01*
X155899500Y-113416892D01*
X155899500Y-113285108D01*
X155865392Y-113157814D01*
X155864283Y-113155894D01*
X155852559Y-113135586D01*
X155799500Y-113043686D01*
X155706314Y-112950500D01*
X155613331Y-112896816D01*
X155592187Y-112884608D01*
X155528539Y-112867554D01*
X155464892Y-112850500D01*
X155333108Y-112850500D01*
X155205812Y-112884608D01*
X155091686Y-112950500D01*
X155091683Y-112950502D01*
X154998502Y-113043683D01*
X154998500Y-113043686D01*
X154932608Y-113157812D01*
X154898500Y-113285108D01*
X153715284Y-113285108D01*
X153716392Y-113283189D01*
X153750500Y-113155895D01*
X153750500Y-113024111D01*
X153716392Y-112896817D01*
X153714626Y-112893759D01*
X153697869Y-112864734D01*
X153650500Y-112782689D01*
X153645493Y-112777682D01*
X153612008Y-112716359D01*
X153616992Y-112646667D01*
X153645499Y-112602314D01*
X153650500Y-112597314D01*
X153716392Y-112483186D01*
X153732222Y-112424108D01*
X159349500Y-112424108D01*
X159349500Y-112555892D01*
X159361185Y-112599500D01*
X159383608Y-112683187D01*
X159397005Y-112706391D01*
X159449500Y-112797314D01*
X159542686Y-112890500D01*
X159656814Y-112956392D01*
X159784108Y-112990500D01*
X159784110Y-112990500D01*
X159915890Y-112990500D01*
X159915892Y-112990500D01*
X160043186Y-112956392D01*
X160157314Y-112890500D01*
X160250500Y-112797314D01*
X160316392Y-112683186D01*
X160350500Y-112555892D01*
X160350500Y-112424108D01*
X160619500Y-112424108D01*
X160619500Y-112555892D01*
X160631185Y-112599500D01*
X160653608Y-112683187D01*
X160667005Y-112706391D01*
X160719500Y-112797314D01*
X160812686Y-112890500D01*
X160926814Y-112956392D01*
X161054108Y-112990500D01*
X161054110Y-112990500D01*
X161185890Y-112990500D01*
X161185892Y-112990500D01*
X161313186Y-112956392D01*
X161427314Y-112890500D01*
X161520500Y-112797314D01*
X161586392Y-112683186D01*
X161620500Y-112555892D01*
X161620500Y-112424108D01*
X161879500Y-112424108D01*
X161879500Y-112555892D01*
X161891185Y-112599500D01*
X161913608Y-112683187D01*
X161927005Y-112706391D01*
X161979500Y-112797314D01*
X162072686Y-112890500D01*
X162186814Y-112956392D01*
X162314108Y-112990500D01*
X162314110Y-112990500D01*
X162445890Y-112990500D01*
X162445892Y-112990500D01*
X162573186Y-112956392D01*
X162611783Y-112934108D01*
X165749500Y-112934108D01*
X165749500Y-113065892D01*
X165766554Y-113129539D01*
X165783608Y-113193187D01*
X165806413Y-113232686D01*
X165849500Y-113307314D01*
X165942686Y-113400500D01*
X166056814Y-113466392D01*
X166184108Y-113500500D01*
X166184110Y-113500500D01*
X166315890Y-113500500D01*
X166315892Y-113500500D01*
X166443186Y-113466392D01*
X166557314Y-113400500D01*
X166650500Y-113307314D01*
X166716392Y-113193186D01*
X166750500Y-113065892D01*
X166750500Y-112934108D01*
X166716392Y-112806814D01*
X166650500Y-112692686D01*
X166557314Y-112599500D01*
X166481783Y-112555892D01*
X166443187Y-112533608D01*
X166333451Y-112504205D01*
X166315892Y-112499500D01*
X166184108Y-112499500D01*
X166056812Y-112533608D01*
X165942686Y-112599500D01*
X165942683Y-112599502D01*
X165849502Y-112692683D01*
X165849500Y-112692686D01*
X165783608Y-112806812D01*
X165759492Y-112896816D01*
X165749500Y-112934108D01*
X162611783Y-112934108D01*
X162687314Y-112890500D01*
X162780500Y-112797314D01*
X162846392Y-112683186D01*
X162880500Y-112555892D01*
X162880500Y-112424108D01*
X162846392Y-112296814D01*
X162780500Y-112182686D01*
X162771922Y-112174108D01*
X163159500Y-112174108D01*
X163159500Y-112305891D01*
X163193608Y-112433187D01*
X163222476Y-112483186D01*
X163259500Y-112547314D01*
X163352686Y-112640500D01*
X163466814Y-112706392D01*
X163594108Y-112740500D01*
X163594110Y-112740500D01*
X163725890Y-112740500D01*
X163725892Y-112740500D01*
X163853186Y-112706392D01*
X163967314Y-112640500D01*
X164060500Y-112547314D01*
X164126392Y-112433186D01*
X164160500Y-112305892D01*
X164160500Y-112174108D01*
X164126392Y-112046814D01*
X164060500Y-111932686D01*
X163967314Y-111839500D01*
X163880712Y-111789500D01*
X163853187Y-111773608D01*
X163789539Y-111756554D01*
X163725892Y-111739500D01*
X163594108Y-111739500D01*
X163466812Y-111773608D01*
X163352686Y-111839500D01*
X163352683Y-111839502D01*
X163259502Y-111932683D01*
X163259500Y-111932686D01*
X163193608Y-112046812D01*
X163159500Y-112174108D01*
X162771922Y-112174108D01*
X162687314Y-112089500D01*
X162613380Y-112046814D01*
X162573187Y-112023608D01*
X162509539Y-112006554D01*
X162445892Y-111989500D01*
X162314108Y-111989500D01*
X162186812Y-112023608D01*
X162072686Y-112089500D01*
X162072683Y-112089502D01*
X161979502Y-112182683D01*
X161979500Y-112182686D01*
X161913608Y-112296812D01*
X161887220Y-112395296D01*
X161879500Y-112424108D01*
X161620500Y-112424108D01*
X161586392Y-112296814D01*
X161520500Y-112182686D01*
X161427314Y-112089500D01*
X161353380Y-112046814D01*
X161313187Y-112023608D01*
X161249539Y-112006554D01*
X161185892Y-111989500D01*
X161054108Y-111989500D01*
X160926812Y-112023608D01*
X160812686Y-112089500D01*
X160812683Y-112089502D01*
X160719502Y-112182683D01*
X160719500Y-112182686D01*
X160653608Y-112296812D01*
X160627220Y-112395296D01*
X160619500Y-112424108D01*
X160350500Y-112424108D01*
X160316392Y-112296814D01*
X160250500Y-112182686D01*
X160157314Y-112089500D01*
X160083380Y-112046814D01*
X160043187Y-112023608D01*
X159979539Y-112006554D01*
X159915892Y-111989500D01*
X159784108Y-111989500D01*
X159656812Y-112023608D01*
X159542686Y-112089500D01*
X159542683Y-112089502D01*
X159449502Y-112182683D01*
X159449500Y-112182686D01*
X159383608Y-112296812D01*
X159357220Y-112395296D01*
X159349500Y-112424108D01*
X153732222Y-112424108D01*
X153750500Y-112355892D01*
X153750500Y-112248704D01*
X153750820Y-112244262D01*
X153761550Y-112215537D01*
X153770185Y-112186131D01*
X153773660Y-112183119D01*
X153775270Y-112178810D01*
X153799827Y-112160445D01*
X153822989Y-112140376D01*
X153830068Y-112137830D01*
X153831225Y-112136966D01*
X153832781Y-112136855D01*
X153842402Y-112133396D01*
X153943186Y-112106392D01*
X154057314Y-112040500D01*
X154150500Y-111947314D01*
X154216392Y-111833186D01*
X154250500Y-111705892D01*
X154250500Y-111574108D01*
X154216392Y-111446814D01*
X154213913Y-111442521D01*
X154185430Y-111393187D01*
X154150500Y-111332686D01*
X154057314Y-111239500D01*
X153989764Y-111200500D01*
X153943187Y-111173608D01*
X153851164Y-111148951D01*
X153815892Y-111139500D01*
X153684108Y-111139500D01*
X153656590Y-111146873D01*
X153586740Y-111145208D01*
X153528879Y-111106044D01*
X153501377Y-111041815D01*
X153500500Y-111027097D01*
X153500500Y-110924110D01*
X153500500Y-110924108D01*
X153466392Y-110796814D01*
X153400500Y-110682686D01*
X153307314Y-110589500D01*
X153250250Y-110556554D01*
X153193187Y-110523608D01*
X153077782Y-110492686D01*
X153065892Y-110489500D01*
X152934108Y-110489500D01*
X152806812Y-110523608D01*
X152692686Y-110589500D01*
X152692683Y-110589502D01*
X152599502Y-110682683D01*
X152599500Y-110682686D01*
X152533608Y-110796812D01*
X152499500Y-110924108D01*
X143318642Y-110924108D01*
X143300500Y-110892686D01*
X143207314Y-110799500D01*
X143124174Y-110751499D01*
X143093187Y-110733608D01*
X143029539Y-110716554D01*
X142965892Y-110699500D01*
X142834108Y-110699500D01*
X142706812Y-110733608D01*
X142592686Y-110799500D01*
X142592683Y-110799502D01*
X142499502Y-110892683D01*
X142499500Y-110892686D01*
X142433608Y-111006812D01*
X142410277Y-111093887D01*
X142399500Y-111134108D01*
X139441771Y-111134108D01*
X139441898Y-111133045D01*
X139441224Y-111128353D01*
X139444184Y-111113917D01*
X139483000Y-110969057D01*
X139483000Y-110915862D01*
X139502685Y-110848823D01*
X139555489Y-110803068D01*
X139624647Y-110793124D01*
X139668996Y-110808473D01*
X139769314Y-110866392D01*
X139896608Y-110900500D01*
X139896610Y-110900500D01*
X140028390Y-110900500D01*
X140028392Y-110900500D01*
X140155686Y-110866392D01*
X140269814Y-110800500D01*
X140363000Y-110707314D01*
X140428892Y-110593186D01*
X140463000Y-110465892D01*
X140463000Y-110334108D01*
X140460321Y-110324108D01*
X155999500Y-110324108D01*
X155999500Y-110455892D01*
X156008505Y-110489500D01*
X156033608Y-110583187D01*
X156066554Y-110640250D01*
X156099500Y-110697314D01*
X156192686Y-110790500D01*
X156306814Y-110856392D01*
X156434108Y-110890500D01*
X156434110Y-110890500D01*
X156565890Y-110890500D01*
X156565892Y-110890500D01*
X156693186Y-110856392D01*
X156807314Y-110790500D01*
X156900500Y-110697314D01*
X156966392Y-110583186D01*
X157000500Y-110455892D01*
X157000500Y-110324108D01*
X156969677Y-110209073D01*
X156969677Y-110209072D01*
X156966392Y-110196815D01*
X156966392Y-110196814D01*
X156959635Y-110185110D01*
X156959634Y-110185108D01*
X157999500Y-110185108D01*
X157999500Y-110316892D01*
X158016554Y-110380539D01*
X158033608Y-110444187D01*
X158066554Y-110501250D01*
X158099500Y-110558314D01*
X158192686Y-110651500D01*
X158306814Y-110717392D01*
X158434108Y-110751500D01*
X158434110Y-110751500D01*
X158565890Y-110751500D01*
X158565892Y-110751500D01*
X158693186Y-110717392D01*
X158807314Y-110651500D01*
X158900500Y-110558314D01*
X158966392Y-110444186D01*
X159000500Y-110316892D01*
X159000500Y-110185108D01*
X158966392Y-110057814D01*
X158966104Y-110057316D01*
X158902163Y-109946566D01*
X158901139Y-109944793D01*
X158900500Y-109943686D01*
X158849507Y-109892693D01*
X159349500Y-109892693D01*
X159349500Y-110024477D01*
X159358432Y-110057811D01*
X159383608Y-110151772D01*
X159386808Y-110157314D01*
X159449500Y-110265899D01*
X159542686Y-110359085D01*
X159656814Y-110424977D01*
X159784108Y-110459085D01*
X159784110Y-110459085D01*
X159915890Y-110459085D01*
X159915892Y-110459085D01*
X160043186Y-110424977D01*
X160157314Y-110359085D01*
X160250500Y-110265899D01*
X160316392Y-110151771D01*
X160350500Y-110024477D01*
X160350500Y-109892693D01*
X160321405Y-109784108D01*
X164399500Y-109784108D01*
X164399500Y-109915892D01*
X164404247Y-109933608D01*
X164433608Y-110043187D01*
X164456413Y-110082686D01*
X164499500Y-110157314D01*
X164592686Y-110250500D01*
X164706814Y-110316392D01*
X164834108Y-110350500D01*
X164834110Y-110350500D01*
X164965890Y-110350500D01*
X164965892Y-110350500D01*
X165093186Y-110316392D01*
X165207314Y-110250500D01*
X165300500Y-110157314D01*
X165366392Y-110043186D01*
X165400500Y-109915892D01*
X165400500Y-109784108D01*
X165366392Y-109656814D01*
X165300500Y-109542686D01*
X165207314Y-109449500D01*
X165133380Y-109406814D01*
X165093187Y-109383608D01*
X164971889Y-109351107D01*
X164965892Y-109349500D01*
X164834108Y-109349500D01*
X164706812Y-109383608D01*
X164592686Y-109449500D01*
X164592683Y-109449502D01*
X164499502Y-109542683D01*
X164499500Y-109542686D01*
X164433608Y-109656812D01*
X164404513Y-109765399D01*
X164399500Y-109784108D01*
X160321405Y-109784108D01*
X160316392Y-109765399D01*
X160250500Y-109651271D01*
X160157314Y-109558085D01*
X160100250Y-109525139D01*
X160043187Y-109492193D01*
X159946894Y-109466392D01*
X159915892Y-109458085D01*
X159784108Y-109458085D01*
X159656812Y-109492193D01*
X159542686Y-109558085D01*
X159542683Y-109558087D01*
X159449502Y-109651268D01*
X159449500Y-109651271D01*
X159383608Y-109765397D01*
X159356681Y-109865892D01*
X159349500Y-109892693D01*
X158849507Y-109892693D01*
X158807314Y-109850500D01*
X158733830Y-109808074D01*
X158693187Y-109784608D01*
X158621489Y-109765397D01*
X158565892Y-109750500D01*
X158434108Y-109750500D01*
X158306812Y-109784608D01*
X158192686Y-109850500D01*
X158192683Y-109850502D01*
X158099502Y-109943683D01*
X158099500Y-109943686D01*
X158033608Y-110057812D01*
X158006947Y-110157314D01*
X157999500Y-110185108D01*
X156959634Y-110185108D01*
X156900500Y-110082686D01*
X156807314Y-109989500D01*
X156750250Y-109956554D01*
X156693187Y-109923608D01*
X156629539Y-109906554D01*
X156565892Y-109889500D01*
X156434108Y-109889500D01*
X156306812Y-109923608D01*
X156192686Y-109989500D01*
X156192683Y-109989502D01*
X156099502Y-110082683D01*
X156099500Y-110082686D01*
X156033608Y-110196812D01*
X155999500Y-110324108D01*
X140460321Y-110324108D01*
X140428892Y-110206814D01*
X140423118Y-110196814D01*
X140400313Y-110157314D01*
X140363000Y-110092686D01*
X140269814Y-109999500D01*
X140178130Y-109946566D01*
X140155687Y-109933608D01*
X140089561Y-109915890D01*
X140028392Y-109899500D01*
X139896608Y-109899500D01*
X139769312Y-109933608D01*
X139655186Y-109999500D01*
X139655183Y-109999502D01*
X139562002Y-110092683D01*
X139562000Y-110092686D01*
X139496108Y-110206812D01*
X139461997Y-110334117D01*
X139461527Y-110337691D01*
X139460293Y-110340479D01*
X139459897Y-110341958D01*
X139459666Y-110341896D01*
X139433254Y-110401584D01*
X139374925Y-110440049D01*
X139305061Y-110440873D01*
X139258349Y-110413528D01*
X139257661Y-110414426D01*
X139251209Y-110409475D01*
X139114290Y-110330426D01*
X139114286Y-110330424D01*
X139114284Y-110330423D01*
X138961557Y-110289500D01*
X138803443Y-110289500D01*
X138650716Y-110330423D01*
X138650709Y-110330426D01*
X138513790Y-110409475D01*
X138513782Y-110409481D01*
X138401981Y-110521282D01*
X138401975Y-110521290D01*
X138322926Y-110658209D01*
X138322923Y-110658216D01*
X138282000Y-110810943D01*
X138282000Y-110969057D01*
X138320813Y-111113907D01*
X138322923Y-111121783D01*
X138322926Y-111121790D01*
X138401975Y-111258709D01*
X138406926Y-111265161D01*
X138404915Y-111266704D01*
X138432322Y-111316896D01*
X138427338Y-111386588D01*
X138385466Y-111442521D01*
X138380048Y-111446356D01*
X138293160Y-111504413D01*
X138146913Y-111650660D01*
X138146910Y-111650664D01*
X138032005Y-111822631D01*
X138032000Y-111822641D01*
X137952851Y-112013723D01*
X137952850Y-112013725D01*
X137941657Y-112070000D01*
X136576615Y-112070000D01*
X136576615Y-112069999D01*
X136575414Y-112062415D01*
X136521908Y-111897744D01*
X136443304Y-111743475D01*
X136341532Y-111603397D01*
X136219102Y-111480967D01*
X136079024Y-111379195D01*
X135924757Y-111300591D01*
X135760084Y-111247085D01*
X135589071Y-111220000D01*
X135452500Y-111220000D01*
X135452500Y-112020000D01*
X134952500Y-112020000D01*
X134952500Y-111220000D01*
X134815929Y-111220000D01*
X134644915Y-111247085D01*
X134480242Y-111300591D01*
X134325975Y-111379195D01*
X134185897Y-111480967D01*
X134063465Y-111603399D01*
X134063461Y-111603404D01*
X133974818Y-111725412D01*
X133919488Y-111768078D01*
X133849875Y-111774057D01*
X133788080Y-111741452D01*
X133753723Y-111680613D01*
X133750500Y-111652527D01*
X133750500Y-109684108D01*
X137499500Y-109684108D01*
X137499500Y-109815892D01*
X137509070Y-109851607D01*
X137533608Y-109943187D01*
X137535559Y-109946566D01*
X137599500Y-110057314D01*
X137692686Y-110150500D01*
X137779290Y-110200501D01*
X137797961Y-110211281D01*
X137806814Y-110216392D01*
X137934108Y-110250500D01*
X137934110Y-110250500D01*
X138065890Y-110250500D01*
X138065892Y-110250500D01*
X138193186Y-110216392D01*
X138307314Y-110150500D01*
X138400500Y-110057314D01*
X138466392Y-109943186D01*
X138500500Y-109815892D01*
X138500500Y-109684108D01*
X138466392Y-109556814D01*
X138453283Y-109534108D01*
X143699500Y-109534108D01*
X143699500Y-109665892D01*
X143711001Y-109708813D01*
X143733608Y-109793187D01*
X143750787Y-109822941D01*
X143799500Y-109907314D01*
X143892686Y-110000500D01*
X143966622Y-110043187D01*
X143991956Y-110057814D01*
X144006814Y-110066392D01*
X144134108Y-110100500D01*
X144134110Y-110100500D01*
X144265890Y-110100500D01*
X144265892Y-110100500D01*
X144393186Y-110066392D01*
X144507314Y-110000500D01*
X144600500Y-109907314D01*
X144666392Y-109793186D01*
X144700500Y-109665892D01*
X144700500Y-109534108D01*
X144677893Y-109449735D01*
X155099500Y-109449735D01*
X155099500Y-109581519D01*
X155107181Y-109610184D01*
X155133608Y-109708814D01*
X155148212Y-109734108D01*
X155199500Y-109822941D01*
X155292686Y-109916127D01*
X155406814Y-109982019D01*
X155534108Y-110016127D01*
X155534110Y-110016127D01*
X155665890Y-110016127D01*
X155665892Y-110016127D01*
X155793186Y-109982019D01*
X155907314Y-109916127D01*
X156000500Y-109822941D01*
X156066392Y-109708813D01*
X156100500Y-109581519D01*
X156100500Y-109449735D01*
X156066392Y-109322441D01*
X156000500Y-109208313D01*
X155907314Y-109115127D01*
X155822035Y-109065891D01*
X155793187Y-109049235D01*
X155729539Y-109032181D01*
X155665892Y-109015127D01*
X155534108Y-109015127D01*
X155406812Y-109049235D01*
X155292686Y-109115127D01*
X155292683Y-109115129D01*
X155199502Y-109208310D01*
X155199500Y-109208313D01*
X155133608Y-109322439D01*
X155101390Y-109442683D01*
X155099500Y-109449735D01*
X144677893Y-109449735D01*
X144666392Y-109406814D01*
X144600500Y-109292686D01*
X144507314Y-109199500D01*
X144422439Y-109150497D01*
X144393187Y-109133608D01*
X144324213Y-109115127D01*
X144265892Y-109099500D01*
X144134108Y-109099500D01*
X144006812Y-109133608D01*
X143892686Y-109199500D01*
X143892683Y-109199502D01*
X143799502Y-109292683D01*
X143799500Y-109292686D01*
X143733608Y-109406812D01*
X143714426Y-109478403D01*
X143699500Y-109534108D01*
X138453283Y-109534108D01*
X138400500Y-109442686D01*
X138307314Y-109349500D01*
X138250250Y-109316554D01*
X138193187Y-109283608D01*
X138129539Y-109266554D01*
X138065892Y-109249500D01*
X137934108Y-109249500D01*
X137806812Y-109283608D01*
X137692686Y-109349500D01*
X137692683Y-109349502D01*
X137599502Y-109442683D01*
X137599500Y-109442686D01*
X137533608Y-109556812D01*
X137506814Y-109656812D01*
X137499500Y-109684108D01*
X133750500Y-109684108D01*
X133750500Y-108184108D01*
X137999500Y-108184108D01*
X137999500Y-108315892D01*
X138008204Y-108348375D01*
X138033608Y-108443187D01*
X138046717Y-108465892D01*
X138099500Y-108557314D01*
X138192686Y-108650500D01*
X138291089Y-108707313D01*
X138305944Y-108715890D01*
X138306814Y-108716392D01*
X138434108Y-108750500D01*
X138434110Y-108750500D01*
X138565890Y-108750500D01*
X138565892Y-108750500D01*
X138693186Y-108716392D01*
X138807314Y-108650500D01*
X138873706Y-108584108D01*
X158749500Y-108584108D01*
X158749500Y-108715891D01*
X158783608Y-108843187D01*
X158797005Y-108866391D01*
X158849500Y-108957314D01*
X158942686Y-109050500D01*
X159056814Y-109116392D01*
X159184108Y-109150500D01*
X159184110Y-109150500D01*
X159315890Y-109150500D01*
X159315892Y-109150500D01*
X159443186Y-109116392D01*
X159557314Y-109050500D01*
X159650500Y-108957314D01*
X159716392Y-108843186D01*
X159750500Y-108715892D01*
X159750500Y-108584108D01*
X159716392Y-108456814D01*
X159650500Y-108342686D01*
X159641922Y-108334108D01*
X161999500Y-108334108D01*
X161999500Y-108465891D01*
X162033608Y-108593187D01*
X162066554Y-108650250D01*
X162099500Y-108707314D01*
X162192686Y-108800500D01*
X162306814Y-108866392D01*
X162434108Y-108900500D01*
X162434110Y-108900500D01*
X162565890Y-108900500D01*
X162565892Y-108900500D01*
X162693186Y-108866392D01*
X162807314Y-108800500D01*
X162900500Y-108707314D01*
X162966392Y-108593186D01*
X163000500Y-108465892D01*
X163000500Y-108334108D01*
X162966392Y-108206814D01*
X162900500Y-108092686D01*
X162807314Y-107999500D01*
X162750250Y-107966554D01*
X162693187Y-107933608D01*
X162629539Y-107916554D01*
X162565892Y-107899500D01*
X162434108Y-107899500D01*
X162306812Y-107933608D01*
X162192686Y-107999500D01*
X162192683Y-107999502D01*
X162099502Y-108092683D01*
X162099500Y-108092686D01*
X162033608Y-108206812D01*
X161999500Y-108334108D01*
X159641922Y-108334108D01*
X159557314Y-108249500D01*
X159483380Y-108206814D01*
X159443187Y-108183608D01*
X159379539Y-108166554D01*
X159315892Y-108149500D01*
X159184108Y-108149500D01*
X159056812Y-108183608D01*
X158942686Y-108249500D01*
X158942683Y-108249502D01*
X158849502Y-108342683D01*
X158849500Y-108342686D01*
X158783608Y-108456812D01*
X158749500Y-108584108D01*
X138873706Y-108584108D01*
X138900500Y-108557314D01*
X138914187Y-108533608D01*
X138925520Y-108513980D01*
X138966390Y-108443189D01*
X138966392Y-108443186D01*
X139000500Y-108315892D01*
X139000500Y-108184108D01*
X138966392Y-108056814D01*
X138900500Y-107942686D01*
X138807314Y-107849500D01*
X138708045Y-107792187D01*
X138693188Y-107783609D01*
X138693187Y-107783608D01*
X138693186Y-107783608D01*
X138565892Y-107749500D01*
X138434108Y-107749500D01*
X138306812Y-107783608D01*
X138192686Y-107849500D01*
X138192683Y-107849502D01*
X138099502Y-107942683D01*
X138099500Y-107942686D01*
X138033608Y-108056812D01*
X138022170Y-108099500D01*
X137999500Y-108184108D01*
X133750500Y-108184108D01*
X133750500Y-107684108D01*
X142749500Y-107684108D01*
X142749500Y-107815891D01*
X142783608Y-107943187D01*
X142808251Y-107985869D01*
X142849500Y-108057314D01*
X142942686Y-108150500D01*
X143056814Y-108216392D01*
X143184108Y-108250500D01*
X143184110Y-108250500D01*
X143315890Y-108250500D01*
X143315892Y-108250500D01*
X143443186Y-108216392D01*
X143557314Y-108150500D01*
X143650500Y-108057314D01*
X143716392Y-107943186D01*
X143750500Y-107815892D01*
X143750500Y-107684108D01*
X143716392Y-107556814D01*
X143702705Y-107533108D01*
X151499500Y-107533108D01*
X151499500Y-107664892D01*
X151516554Y-107728539D01*
X151533608Y-107792187D01*
X151566554Y-107849250D01*
X151599500Y-107906314D01*
X151692686Y-107999500D01*
X151783208Y-108051763D01*
X151791956Y-108056814D01*
X151806814Y-108065392D01*
X151934108Y-108099500D01*
X151934110Y-108099500D01*
X152065890Y-108099500D01*
X152065892Y-108099500D01*
X152193186Y-108065392D01*
X152307314Y-107999500D01*
X152400500Y-107906314D01*
X152466392Y-107792186D01*
X152495351Y-107684108D01*
X153899500Y-107684108D01*
X153899500Y-107815891D01*
X153933608Y-107943187D01*
X153958251Y-107985869D01*
X153999500Y-108057314D01*
X154092686Y-108150500D01*
X154206814Y-108216392D01*
X154334108Y-108250500D01*
X154334110Y-108250500D01*
X154465890Y-108250500D01*
X154465892Y-108250500D01*
X154593186Y-108216392D01*
X154707314Y-108150500D01*
X154800500Y-108057314D01*
X154866392Y-107943186D01*
X154900500Y-107815892D01*
X154900500Y-107684108D01*
X154866392Y-107556814D01*
X154861648Y-107548598D01*
X154823606Y-107482707D01*
X154800500Y-107442686D01*
X154707314Y-107349500D01*
X154650250Y-107316554D01*
X154593187Y-107283608D01*
X154529539Y-107266554D01*
X154465892Y-107249500D01*
X154334108Y-107249500D01*
X154206812Y-107283608D01*
X154092686Y-107349500D01*
X154092683Y-107349502D01*
X153999502Y-107442683D01*
X153999500Y-107442686D01*
X153933608Y-107556812D01*
X153899500Y-107684108D01*
X152495351Y-107684108D01*
X152500500Y-107664892D01*
X152500500Y-107533108D01*
X152466392Y-107405814D01*
X152400500Y-107291686D01*
X152307314Y-107198500D01*
X152224171Y-107150497D01*
X152193187Y-107132608D01*
X152128289Y-107115219D01*
X152065892Y-107098500D01*
X151934108Y-107098500D01*
X151806812Y-107132608D01*
X151692686Y-107198500D01*
X151692683Y-107198502D01*
X151599502Y-107291683D01*
X151599500Y-107291686D01*
X151533608Y-107405812D01*
X151513005Y-107482706D01*
X151499500Y-107533108D01*
X143702705Y-107533108D01*
X143650500Y-107442686D01*
X143557314Y-107349500D01*
X143500250Y-107316554D01*
X143443187Y-107283608D01*
X143379539Y-107266554D01*
X143315892Y-107249500D01*
X143184108Y-107249500D01*
X143056812Y-107283608D01*
X142942686Y-107349500D01*
X142942683Y-107349502D01*
X142849502Y-107442683D01*
X142849500Y-107442686D01*
X142783608Y-107556812D01*
X142749500Y-107684108D01*
X133750500Y-107684108D01*
X133750500Y-106684108D01*
X137499500Y-106684108D01*
X137499500Y-106815891D01*
X137533608Y-106943187D01*
X137551394Y-106973993D01*
X137599500Y-107057314D01*
X137692686Y-107150500D01*
X137806814Y-107216392D01*
X137934108Y-107250500D01*
X137934110Y-107250500D01*
X138065890Y-107250500D01*
X138065892Y-107250500D01*
X138193186Y-107216392D01*
X138307314Y-107150500D01*
X138400500Y-107057314D01*
X138466392Y-106943186D01*
X138500500Y-106815892D01*
X138500500Y-106752474D01*
X155773111Y-106752474D01*
X155773111Y-106884257D01*
X155807219Y-107011553D01*
X155809970Y-107016317D01*
X155873111Y-107125680D01*
X155966297Y-107218866D01*
X155985192Y-107229775D01*
X156033408Y-107280340D01*
X156046632Y-107348947D01*
X156035579Y-107383789D01*
X156037719Y-107384676D01*
X156034609Y-107392184D01*
X156034608Y-107392186D01*
X156000500Y-107519480D01*
X156000500Y-107651264D01*
X156009301Y-107684110D01*
X156034608Y-107778559D01*
X156056162Y-107815891D01*
X156100500Y-107892686D01*
X156193686Y-107985872D01*
X156307814Y-108051764D01*
X156435108Y-108085872D01*
X156435110Y-108085872D01*
X156566890Y-108085872D01*
X156566892Y-108085872D01*
X156694186Y-108051764D01*
X156808314Y-107985872D01*
X156901500Y-107892686D01*
X156967392Y-107778558D01*
X156992700Y-107684108D01*
X166999500Y-107684108D01*
X166999500Y-107815891D01*
X167033608Y-107943187D01*
X167058251Y-107985869D01*
X167099500Y-108057314D01*
X167099502Y-108057316D01*
X167192687Y-108150501D01*
X167194158Y-108151630D01*
X167195083Y-108152897D01*
X167198433Y-108156247D01*
X167197910Y-108156769D01*
X167235356Y-108208060D01*
X167239506Y-108277807D01*
X167205289Y-108338725D01*
X167194158Y-108348370D01*
X167192687Y-108349498D01*
X167099502Y-108442683D01*
X167099500Y-108442686D01*
X167033608Y-108556812D01*
X166999500Y-108684108D01*
X166999500Y-108815891D01*
X167033608Y-108943187D01*
X167041766Y-108957316D01*
X167099500Y-109057314D01*
X167192686Y-109150500D01*
X167257886Y-109188143D01*
X167286673Y-109204764D01*
X167334888Y-109255332D01*
X167348110Y-109323939D01*
X167322142Y-109388804D01*
X167312354Y-109399832D01*
X167219500Y-109492686D01*
X167153608Y-109606812D01*
X167137778Y-109665892D01*
X167119500Y-109734108D01*
X167119500Y-109865892D01*
X167132960Y-109916126D01*
X167153608Y-109993187D01*
X167171673Y-110024476D01*
X167219500Y-110107314D01*
X167219502Y-110107316D01*
X167312687Y-110200501D01*
X167314158Y-110201630D01*
X167315083Y-110202897D01*
X167318433Y-110206247D01*
X167317910Y-110206769D01*
X167355356Y-110258060D01*
X167359506Y-110327807D01*
X167325289Y-110388725D01*
X167314158Y-110398370D01*
X167312687Y-110399498D01*
X167219502Y-110492683D01*
X167219500Y-110492686D01*
X167153608Y-110606812D01*
X167139837Y-110658209D01*
X167119500Y-110734108D01*
X167119500Y-110865892D01*
X167128773Y-110900499D01*
X167153608Y-110993187D01*
X167181684Y-111041815D01*
X167219500Y-111107314D01*
X167312686Y-111200500D01*
X167398968Y-111250315D01*
X167425944Y-111265890D01*
X167426814Y-111266392D01*
X167554108Y-111300500D01*
X167554110Y-111300500D01*
X167685890Y-111300500D01*
X167685892Y-111300500D01*
X167813186Y-111266392D01*
X167927314Y-111200500D01*
X168020500Y-111107314D01*
X168086392Y-110993186D01*
X168120500Y-110865892D01*
X168120500Y-110734108D01*
X168086392Y-110606814D01*
X168020500Y-110492686D01*
X167927314Y-110399500D01*
X167927311Y-110399498D01*
X167925847Y-110398375D01*
X167924921Y-110397107D01*
X167921567Y-110393753D01*
X167922090Y-110393229D01*
X167884645Y-110341947D01*
X167880491Y-110272201D01*
X167914704Y-110211281D01*
X167925847Y-110201625D01*
X167927306Y-110200504D01*
X167927314Y-110200500D01*
X168020500Y-110107314D01*
X168086392Y-109993186D01*
X168120500Y-109865892D01*
X168120500Y-109734108D01*
X168086392Y-109606814D01*
X168020500Y-109492686D01*
X167927314Y-109399500D01*
X167927311Y-109399498D01*
X167927307Y-109399495D01*
X167833326Y-109345234D01*
X167785111Y-109294667D01*
X167771889Y-109226060D01*
X167797857Y-109161195D01*
X167807630Y-109150183D01*
X167900500Y-109057314D01*
X167966392Y-108943186D01*
X167968824Y-108934108D01*
X169499500Y-108934108D01*
X169499500Y-109065891D01*
X169533608Y-109193187D01*
X169547006Y-109216392D01*
X169599500Y-109307314D01*
X169692686Y-109400500D01*
X169806814Y-109466392D01*
X169934108Y-109500500D01*
X169934110Y-109500500D01*
X170065890Y-109500500D01*
X170065892Y-109500500D01*
X170148367Y-109478401D01*
X170703793Y-109478401D01*
X170703793Y-109610184D01*
X170737901Y-109737480D01*
X170764822Y-109784108D01*
X170803793Y-109851607D01*
X170896979Y-109944793D01*
X171011107Y-110010685D01*
X171138401Y-110044793D01*
X171138403Y-110044793D01*
X171270183Y-110044793D01*
X171270185Y-110044793D01*
X171397479Y-110010685D01*
X171511607Y-109944793D01*
X171604793Y-109851607D01*
X171670685Y-109737479D01*
X171704793Y-109610185D01*
X171704793Y-109478401D01*
X171670685Y-109351107D01*
X171604793Y-109236979D01*
X171511607Y-109143793D01*
X171454543Y-109110847D01*
X171397480Y-109077901D01*
X171320654Y-109057316D01*
X171270185Y-109043793D01*
X171138401Y-109043793D01*
X171011105Y-109077901D01*
X170896979Y-109143793D01*
X170896976Y-109143795D01*
X170803795Y-109236976D01*
X170803793Y-109236979D01*
X170737901Y-109351105D01*
X170703793Y-109478401D01*
X170148367Y-109478401D01*
X170193186Y-109466392D01*
X170307314Y-109400500D01*
X170400500Y-109307314D01*
X170466392Y-109193186D01*
X170500500Y-109065892D01*
X170500500Y-108934108D01*
X170466392Y-108806814D01*
X170400500Y-108692686D01*
X170307314Y-108599500D01*
X170250250Y-108566554D01*
X170193187Y-108533608D01*
X170129539Y-108516554D01*
X170065892Y-108499500D01*
X169934108Y-108499500D01*
X169806812Y-108533608D01*
X169692686Y-108599500D01*
X169692683Y-108599502D01*
X169599502Y-108692683D01*
X169599500Y-108692686D01*
X169533608Y-108806812D01*
X169499500Y-108934108D01*
X167968824Y-108934108D01*
X168000500Y-108815892D01*
X168000500Y-108684108D01*
X167966392Y-108556814D01*
X167900500Y-108442686D01*
X167807314Y-108349500D01*
X167807311Y-108349498D01*
X167805847Y-108348375D01*
X167804921Y-108347107D01*
X167801567Y-108343753D01*
X167802090Y-108343229D01*
X167795319Y-108333957D01*
X167781163Y-108323086D01*
X167775146Y-108306329D01*
X167764645Y-108291947D01*
X167763583Y-108274124D01*
X167757552Y-108257326D01*
X167761549Y-108239977D01*
X167760491Y-108222201D01*
X167769232Y-108206635D01*
X167773241Y-108189241D01*
X167777690Y-108184108D01*
X170999500Y-108184108D01*
X170999500Y-108315892D01*
X171008204Y-108348375D01*
X171033608Y-108443187D01*
X171046717Y-108465892D01*
X171099500Y-108557314D01*
X171192686Y-108650500D01*
X171291089Y-108707313D01*
X171305944Y-108715890D01*
X171306814Y-108716392D01*
X171434108Y-108750500D01*
X171434110Y-108750500D01*
X171565890Y-108750500D01*
X171565892Y-108750500D01*
X171693186Y-108716392D01*
X171807314Y-108650500D01*
X171900500Y-108557314D01*
X171966392Y-108443186D01*
X172000500Y-108315892D01*
X172000500Y-108184108D01*
X171966392Y-108056814D01*
X171900500Y-107942686D01*
X171807314Y-107849500D01*
X171749100Y-107815890D01*
X171693187Y-107783608D01*
X171629539Y-107766554D01*
X171565892Y-107749500D01*
X171434108Y-107749500D01*
X171306812Y-107783608D01*
X171192686Y-107849500D01*
X171192683Y-107849502D01*
X171099502Y-107942683D01*
X171099500Y-107942686D01*
X171033608Y-108056812D01*
X171022170Y-108099500D01*
X170999500Y-108184108D01*
X167777690Y-108184108D01*
X167789601Y-108170366D01*
X167794704Y-108161281D01*
X167794737Y-108161248D01*
X167803488Y-108152708D01*
X167807314Y-108150500D01*
X167900500Y-108057314D01*
X167966392Y-107943186D01*
X168000500Y-107815892D01*
X168000500Y-107684108D01*
X167966392Y-107556814D01*
X167961648Y-107548598D01*
X167923606Y-107482707D01*
X167900500Y-107442686D01*
X167807314Y-107349500D01*
X167750250Y-107316554D01*
X167693187Y-107283608D01*
X167629539Y-107266554D01*
X167565892Y-107249500D01*
X167434108Y-107249500D01*
X167306812Y-107283608D01*
X167192686Y-107349500D01*
X167192683Y-107349502D01*
X167099502Y-107442683D01*
X167099500Y-107442686D01*
X167033608Y-107556812D01*
X166999500Y-107684108D01*
X156992700Y-107684108D01*
X157001500Y-107651264D01*
X157001500Y-107519480D01*
X156967392Y-107392186D01*
X156901500Y-107278058D01*
X156808314Y-107184872D01*
X156808311Y-107184870D01*
X156808307Y-107184867D01*
X156789417Y-107173961D01*
X156741202Y-107123394D01*
X156727980Y-107054787D01*
X156732841Y-107030304D01*
X156736969Y-107016805D01*
X156737252Y-107016315D01*
X158099500Y-107016315D01*
X158099500Y-107148099D01*
X158106430Y-107173961D01*
X158133608Y-107275394D01*
X158166554Y-107332457D01*
X158199500Y-107389521D01*
X158292686Y-107482707D01*
X158391521Y-107539770D01*
X158406810Y-107548597D01*
X158406814Y-107548599D01*
X158534108Y-107582707D01*
X158534110Y-107582707D01*
X158665890Y-107582707D01*
X158665892Y-107582707D01*
X158793186Y-107548599D01*
X158907314Y-107482707D01*
X159000500Y-107389521D01*
X159066392Y-107275393D01*
X159100500Y-107148099D01*
X159100500Y-107016315D01*
X159066392Y-106889021D01*
X159063641Y-106884257D01*
X159057563Y-106873728D01*
X159000500Y-106774893D01*
X158909715Y-106684108D01*
X161749500Y-106684108D01*
X161749500Y-106815891D01*
X161783608Y-106943187D01*
X161801394Y-106973993D01*
X161849500Y-107057314D01*
X161942686Y-107150500D01*
X162056814Y-107216392D01*
X162184108Y-107250500D01*
X162184110Y-107250500D01*
X162315890Y-107250500D01*
X162315892Y-107250500D01*
X162443186Y-107216392D01*
X162557314Y-107150500D01*
X162650500Y-107057314D01*
X162716392Y-106943186D01*
X162750500Y-106815892D01*
X162750500Y-106684108D01*
X162716392Y-106556814D01*
X162650500Y-106442686D01*
X162557314Y-106349500D01*
X162472442Y-106300499D01*
X162443187Y-106283608D01*
X162378931Y-106266391D01*
X162315892Y-106249500D01*
X162184108Y-106249500D01*
X162056812Y-106283608D01*
X161942686Y-106349500D01*
X161942683Y-106349502D01*
X161849502Y-106442683D01*
X161849500Y-106442686D01*
X161783608Y-106556812D01*
X161749500Y-106684108D01*
X158909715Y-106684108D01*
X158907314Y-106681707D01*
X158809407Y-106625180D01*
X158793187Y-106615815D01*
X158729539Y-106598761D01*
X158665892Y-106581707D01*
X158534108Y-106581707D01*
X158406812Y-106615815D01*
X158292686Y-106681707D01*
X158292683Y-106681709D01*
X158199502Y-106774890D01*
X158199500Y-106774893D01*
X158133608Y-106889019D01*
X158119094Y-106943187D01*
X158099500Y-107016315D01*
X156737252Y-107016315D01*
X156740003Y-107011552D01*
X156774111Y-106884258D01*
X156774111Y-106752474D01*
X156740003Y-106625180D01*
X156674111Y-106511052D01*
X156580925Y-106417866D01*
X156523861Y-106384920D01*
X156466798Y-106351974D01*
X156403150Y-106334920D01*
X156339503Y-106317866D01*
X156207719Y-106317866D01*
X156080423Y-106351974D01*
X155966297Y-106417866D01*
X155966294Y-106417868D01*
X155873113Y-106511049D01*
X155873111Y-106511052D01*
X155807219Y-106625178D01*
X155773111Y-106752474D01*
X138500500Y-106752474D01*
X138500500Y-106684108D01*
X138466392Y-106556814D01*
X138400500Y-106442686D01*
X138307314Y-106349500D01*
X138222442Y-106300499D01*
X138193187Y-106283608D01*
X138128931Y-106266391D01*
X138065892Y-106249500D01*
X137934108Y-106249500D01*
X137806812Y-106283608D01*
X137692686Y-106349500D01*
X137692683Y-106349502D01*
X137599502Y-106442683D01*
X137599500Y-106442686D01*
X137533608Y-106556812D01*
X137499500Y-106684108D01*
X133750500Y-106684108D01*
X133750500Y-104347472D01*
X133770185Y-104280433D01*
X133822989Y-104234678D01*
X133892147Y-104224734D01*
X133955703Y-104253759D01*
X133974819Y-104274587D01*
X134063467Y-104396602D01*
X134185897Y-104519032D01*
X134325975Y-104620804D01*
X134480242Y-104699408D01*
X134644915Y-104752914D01*
X134815929Y-104780000D01*
X134952500Y-104780000D01*
X134952500Y-103980000D01*
X135452500Y-103980000D01*
X135452500Y-104780000D01*
X135589071Y-104780000D01*
X135760084Y-104752914D01*
X135924757Y-104699408D01*
X136079024Y-104620804D01*
X136219102Y-104519032D01*
X136341532Y-104396602D01*
X136443304Y-104256524D01*
X136521908Y-104102255D01*
X136575414Y-103937584D01*
X136576615Y-103930000D01*
X135669487Y-103930000D01*
X135686704Y-103920060D01*
X135742559Y-103864205D01*
X135782055Y-103795796D01*
X135802499Y-103719496D01*
X135802499Y-103640504D01*
X135782055Y-103564204D01*
X135742559Y-103495795D01*
X135686704Y-103439940D01*
X135669487Y-103430000D01*
X136576615Y-103430000D01*
X137941657Y-103430000D01*
X138795513Y-103430000D01*
X138778296Y-103439940D01*
X138722441Y-103495795D01*
X138682945Y-103564204D01*
X138662501Y-103640504D01*
X138662501Y-103719496D01*
X138682945Y-103795796D01*
X138722441Y-103864205D01*
X138778296Y-103920060D01*
X138795513Y-103930000D01*
X137941657Y-103930000D01*
X137952850Y-103986274D01*
X137952851Y-103986276D01*
X138032000Y-104177358D01*
X138032005Y-104177368D01*
X138146910Y-104349335D01*
X138146913Y-104349339D01*
X138293161Y-104495587D01*
X138380046Y-104553641D01*
X138424852Y-104607253D01*
X138433559Y-104676578D01*
X138406020Y-104734138D01*
X138406928Y-104734834D01*
X138403634Y-104739126D01*
X138403405Y-104739606D01*
X138402677Y-104740373D01*
X138401979Y-104741283D01*
X138322926Y-104878209D01*
X138322923Y-104878216D01*
X138282000Y-105030943D01*
X138282000Y-105189057D01*
X138320733Y-105333608D01*
X138322923Y-105341783D01*
X138322926Y-105341790D01*
X138401975Y-105478709D01*
X138401979Y-105478714D01*
X138401980Y-105478716D01*
X138513784Y-105590520D01*
X138513786Y-105590521D01*
X138513790Y-105590524D01*
X138644333Y-105665892D01*
X138650716Y-105669577D01*
X138803443Y-105710500D01*
X138803445Y-105710500D01*
X138961555Y-105710500D01*
X138961557Y-105710500D01*
X139114284Y-105669577D01*
X139251216Y-105590520D01*
X139251221Y-105590514D01*
X139257661Y-105585574D01*
X139258508Y-105586678D01*
X139312221Y-105557343D01*
X139381913Y-105562321D01*
X139437850Y-105604187D01*
X139459799Y-105658068D01*
X139459897Y-105658042D01*
X139460103Y-105658814D01*
X139461528Y-105662310D01*
X139461999Y-105665888D01*
X139496108Y-105793187D01*
X139504266Y-105807316D01*
X139562000Y-105907314D01*
X139655186Y-106000500D01*
X139769314Y-106066392D01*
X139896608Y-106100500D01*
X139896610Y-106100500D01*
X140028390Y-106100500D01*
X140028392Y-106100500D01*
X140155686Y-106066392D01*
X140269814Y-106000500D01*
X140363000Y-105907314D01*
X140428892Y-105793186D01*
X140463000Y-105665892D01*
X140463000Y-105534108D01*
X140428892Y-105406814D01*
X140363000Y-105292686D01*
X140269814Y-105199500D01*
X140208702Y-105164217D01*
X140155687Y-105133608D01*
X140057569Y-105107318D01*
X140028392Y-105099500D01*
X139896608Y-105099500D01*
X139769314Y-105133608D01*
X139769313Y-105133608D01*
X139769311Y-105133609D01*
X139769310Y-105133609D01*
X139669000Y-105191524D01*
X139601100Y-105207997D01*
X139535073Y-105185145D01*
X139491882Y-105130223D01*
X139485113Y-105106931D01*
X139483000Y-105095632D01*
X139483000Y-105030943D01*
X139442950Y-104881476D01*
X139442075Y-104876794D01*
X139445127Y-104846593D01*
X139445850Y-104816244D01*
X139448606Y-104812171D01*
X139449101Y-104807279D01*
X139467994Y-104783525D01*
X139485012Y-104758381D01*
X139489533Y-104756444D01*
X139492594Y-104752597D01*
X139521332Y-104742828D01*
X139549241Y-104730877D01*
X139558029Y-104730353D01*
X139558746Y-104730110D01*
X139559397Y-104730271D01*
X139563962Y-104730000D01*
X139965917Y-104730000D01*
X139965920Y-104729999D01*
X140127672Y-104697825D01*
X153975482Y-104697825D01*
X153975482Y-104829609D01*
X153986931Y-104872339D01*
X154009590Y-104956904D01*
X154029368Y-104991160D01*
X154075482Y-105071031D01*
X154168668Y-105164217D01*
X154282796Y-105230109D01*
X154410090Y-105264217D01*
X154410092Y-105264217D01*
X154541872Y-105264217D01*
X154541874Y-105264217D01*
X154669168Y-105230109D01*
X154783296Y-105164217D01*
X154876482Y-105071031D01*
X154942374Y-104956903D01*
X154976482Y-104829609D01*
X154976482Y-104734110D01*
X155749500Y-104734110D01*
X155749500Y-104865893D01*
X155783608Y-104993189D01*
X155811632Y-105041727D01*
X155849500Y-105107316D01*
X155942686Y-105200502D01*
X156041521Y-105257565D01*
X156053041Y-105264216D01*
X156056814Y-105266394D01*
X156184108Y-105300502D01*
X156184110Y-105300502D01*
X156315890Y-105300502D01*
X156315892Y-105300502D01*
X156443186Y-105266394D01*
X156557314Y-105200502D01*
X156650500Y-105107316D01*
X156716392Y-104993188D01*
X156750500Y-104865894D01*
X156750500Y-104734110D01*
X156716392Y-104606816D01*
X156650500Y-104492688D01*
X156557314Y-104399502D01*
X156494467Y-104363217D01*
X156443187Y-104333610D01*
X156379539Y-104316556D01*
X156315892Y-104299502D01*
X156184108Y-104299502D01*
X156056812Y-104333610D01*
X155942686Y-104399502D01*
X155942683Y-104399504D01*
X155849502Y-104492685D01*
X155849500Y-104492688D01*
X155783608Y-104606814D01*
X155749500Y-104734110D01*
X154976482Y-104734110D01*
X154976482Y-104697825D01*
X154942374Y-104570531D01*
X154876482Y-104456403D01*
X154783296Y-104363217D01*
X154726232Y-104330271D01*
X154669169Y-104297325D01*
X154605521Y-104280271D01*
X154541874Y-104263217D01*
X154410090Y-104263217D01*
X154282794Y-104297325D01*
X154168668Y-104363217D01*
X154168665Y-104363219D01*
X154075484Y-104456400D01*
X154075482Y-104456403D01*
X154009590Y-104570529D01*
X153985161Y-104661701D01*
X153975482Y-104697825D01*
X140127672Y-104697825D01*
X140168766Y-104689651D01*
X140168774Y-104689649D01*
X140359858Y-104610499D01*
X140359868Y-104610494D01*
X140395635Y-104586596D01*
X140531835Y-104495589D01*
X140531839Y-104495586D01*
X140678086Y-104349339D01*
X140678089Y-104349335D01*
X140792994Y-104177368D01*
X140792999Y-104177358D01*
X140872148Y-103986276D01*
X140872149Y-103986274D01*
X140883343Y-103930000D01*
X140029487Y-103930000D01*
X140046704Y-103920060D01*
X140102559Y-103864205D01*
X140142055Y-103795796D01*
X140162499Y-103719496D01*
X140162499Y-103684108D01*
X150499500Y-103684108D01*
X150499500Y-103815891D01*
X150533608Y-103943187D01*
X150555559Y-103981206D01*
X150599500Y-104057314D01*
X150692686Y-104150500D01*
X150806814Y-104216392D01*
X150934108Y-104250500D01*
X150934110Y-104250500D01*
X151065890Y-104250500D01*
X151065892Y-104250500D01*
X151193186Y-104216392D01*
X151307314Y-104150500D01*
X151400500Y-104057314D01*
X151466392Y-103943186D01*
X151500500Y-103815892D01*
X151500500Y-103731105D01*
X157999502Y-103731105D01*
X157999502Y-103862889D01*
X158009580Y-103900500D01*
X158033610Y-103990184D01*
X158066556Y-104047247D01*
X158099502Y-104104311D01*
X158099504Y-104104313D01*
X158127273Y-104132082D01*
X158160758Y-104193405D01*
X158155774Y-104263097D01*
X158146979Y-104281764D01*
X158143093Y-104288493D01*
X158143092Y-104288495D01*
X158117484Y-104332847D01*
X158077200Y-104402621D01*
X158052290Y-104495589D01*
X158043092Y-104529917D01*
X158043092Y-104661701D01*
X158060146Y-104725348D01*
X158077200Y-104788996D01*
X158110146Y-104846059D01*
X158143092Y-104903123D01*
X158236278Y-104996309D01*
X158336342Y-105054081D01*
X158384558Y-105104648D01*
X158397781Y-105173255D01*
X158381729Y-105223468D01*
X158333611Y-105306810D01*
X158333611Y-105306811D01*
X158333611Y-105306812D01*
X158333610Y-105306814D01*
X158299502Y-105434108D01*
X158299502Y-105565892D01*
X158306101Y-105590520D01*
X158333610Y-105693187D01*
X158366556Y-105750250D01*
X158399502Y-105807314D01*
X158492688Y-105900500D01*
X158606816Y-105966392D01*
X158734110Y-106000500D01*
X158734112Y-106000500D01*
X158865892Y-106000500D01*
X158865894Y-106000500D01*
X158993188Y-105966392D01*
X159107316Y-105900500D01*
X159200502Y-105807314D01*
X159242768Y-105734108D01*
X167119500Y-105734108D01*
X167119500Y-105865892D01*
X167136554Y-105929539D01*
X167153608Y-105993187D01*
X167186554Y-106050250D01*
X167219500Y-106107314D01*
X167312686Y-106200500D01*
X167426814Y-106266392D01*
X167554108Y-106300500D01*
X167554110Y-106300500D01*
X167685890Y-106300500D01*
X167685892Y-106300500D01*
X167813186Y-106266392D01*
X167927314Y-106200500D01*
X168020500Y-106107314D01*
X168086392Y-105993186D01*
X168120500Y-105865892D01*
X168120500Y-105734108D01*
X168086392Y-105606814D01*
X168020500Y-105492686D01*
X167927314Y-105399500D01*
X167827358Y-105341790D01*
X167813187Y-105333608D01*
X167713188Y-105306814D01*
X167685892Y-105299500D01*
X167554108Y-105299500D01*
X167426812Y-105333608D01*
X167312686Y-105399500D01*
X167312683Y-105399502D01*
X167219502Y-105492683D01*
X167219500Y-105492686D01*
X167153608Y-105606812D01*
X167125826Y-105710499D01*
X167119500Y-105734108D01*
X159242768Y-105734108D01*
X159266394Y-105693186D01*
X159300502Y-105565892D01*
X159300502Y-105434108D01*
X159266394Y-105306814D01*
X159200502Y-105192686D01*
X159107316Y-105099500D01*
X159056307Y-105070050D01*
X159007251Y-105041727D01*
X158959035Y-104991160D01*
X158945813Y-104922553D01*
X158961865Y-104872339D01*
X158986537Y-104829607D01*
X159009984Y-104788995D01*
X159044092Y-104661701D01*
X159044092Y-104529917D01*
X159009984Y-104402623D01*
X158944092Y-104288495D01*
X158916319Y-104260722D01*
X158882835Y-104199398D01*
X158887821Y-104129707D01*
X158896615Y-104111041D01*
X158897731Y-104109108D01*
X169324500Y-104109108D01*
X169324500Y-104240892D01*
X169335095Y-104280433D01*
X169358608Y-104368187D01*
X169378489Y-104402621D01*
X169424500Y-104482314D01*
X169517686Y-104575500D01*
X169631814Y-104641392D01*
X169759108Y-104675500D01*
X169759110Y-104675500D01*
X169890890Y-104675500D01*
X169890892Y-104675500D01*
X170018186Y-104641392D01*
X170132314Y-104575500D01*
X170225500Y-104482314D01*
X170291392Y-104368186D01*
X170325500Y-104240892D01*
X170325500Y-104109108D01*
X170291392Y-103981814D01*
X170225500Y-103867686D01*
X170132314Y-103774500D01*
X170046367Y-103724878D01*
X169998153Y-103674311D01*
X169984931Y-103605704D01*
X170010899Y-103540840D01*
X170067813Y-103500312D01*
X170076259Y-103497722D01*
X170193186Y-103466392D01*
X170307314Y-103400500D01*
X170400500Y-103307314D01*
X170466392Y-103193186D01*
X170500500Y-103065892D01*
X170500500Y-102934108D01*
X170466392Y-102806814D01*
X170400500Y-102692686D01*
X170307314Y-102599500D01*
X170250250Y-102566554D01*
X170193187Y-102533608D01*
X170129539Y-102516554D01*
X170065892Y-102499500D01*
X169934108Y-102499500D01*
X169806812Y-102533608D01*
X169692686Y-102599500D01*
X169692683Y-102599502D01*
X169599502Y-102692683D01*
X169599500Y-102692686D01*
X169533608Y-102806812D01*
X169499500Y-102934108D01*
X169499500Y-103065892D01*
X169508505Y-103099500D01*
X169533608Y-103193187D01*
X169546620Y-103215724D01*
X169599500Y-103307314D01*
X169692686Y-103400500D01*
X169750897Y-103434108D01*
X169778630Y-103450120D01*
X169826846Y-103500687D01*
X169840068Y-103569294D01*
X169814100Y-103634159D01*
X169757186Y-103674687D01*
X169748724Y-103677282D01*
X169697817Y-103690922D01*
X169631814Y-103708608D01*
X169631812Y-103708608D01*
X169631812Y-103708609D01*
X169517686Y-103774500D01*
X169517683Y-103774502D01*
X169424502Y-103867683D01*
X169424500Y-103867686D01*
X169358608Y-103981812D01*
X169356365Y-103990184D01*
X169324500Y-104109108D01*
X158897731Y-104109108D01*
X158900498Y-104104314D01*
X158900502Y-104104311D01*
X158966394Y-103990183D01*
X159000502Y-103862889D01*
X159000502Y-103731105D01*
X158966394Y-103603811D01*
X158900502Y-103489683D01*
X158844927Y-103434108D01*
X159999500Y-103434108D01*
X159999500Y-103565892D01*
X160012986Y-103616223D01*
X160033608Y-103693187D01*
X160055502Y-103731107D01*
X160099500Y-103807314D01*
X160192686Y-103900500D01*
X160306814Y-103966392D01*
X160434108Y-104000500D01*
X160434110Y-104000500D01*
X160565890Y-104000500D01*
X160565892Y-104000500D01*
X160693186Y-103966392D01*
X160807314Y-103900500D01*
X160900500Y-103807314D01*
X160966392Y-103693186D01*
X161000500Y-103565892D01*
X161000500Y-103434108D01*
X160966392Y-103306814D01*
X160960435Y-103296497D01*
X160938061Y-103257744D01*
X160900500Y-103192686D01*
X160807314Y-103099500D01*
X160721169Y-103049764D01*
X160693187Y-103033608D01*
X160607542Y-103010660D01*
X160565892Y-102999500D01*
X160434108Y-102999500D01*
X160306812Y-103033608D01*
X160192686Y-103099500D01*
X160192683Y-103099502D01*
X160099502Y-103192683D01*
X160099500Y-103192686D01*
X160033608Y-103306812D01*
X160033473Y-103307316D01*
X159999500Y-103434108D01*
X158844927Y-103434108D01*
X158807316Y-103396497D01*
X158750252Y-103363551D01*
X158693189Y-103330605D01*
X158604390Y-103306812D01*
X158565894Y-103296497D01*
X158434110Y-103296497D01*
X158306814Y-103330605D01*
X158192688Y-103396497D01*
X158192685Y-103396499D01*
X158099504Y-103489680D01*
X158099502Y-103489683D01*
X158033610Y-103603809D01*
X158012094Y-103684110D01*
X157999502Y-103731105D01*
X151500500Y-103731105D01*
X151500500Y-103684108D01*
X151466392Y-103556814D01*
X151400500Y-103442686D01*
X151307314Y-103349500D01*
X151250250Y-103316554D01*
X151193187Y-103283608D01*
X151096659Y-103257744D01*
X151065892Y-103249500D01*
X150934108Y-103249500D01*
X150806812Y-103283608D01*
X150692686Y-103349500D01*
X150692683Y-103349502D01*
X150599502Y-103442683D01*
X150599500Y-103442686D01*
X150533608Y-103556812D01*
X150499500Y-103684108D01*
X140162499Y-103684108D01*
X140162499Y-103640504D01*
X140142055Y-103564204D01*
X140102559Y-103495795D01*
X140046704Y-103439940D01*
X140029487Y-103430000D01*
X140883343Y-103430000D01*
X140872149Y-103373725D01*
X140872148Y-103373723D01*
X140792999Y-103182641D01*
X140792994Y-103182631D01*
X140678089Y-103010664D01*
X140678086Y-103010660D01*
X140531839Y-102864413D01*
X140531835Y-102864410D01*
X140359868Y-102749505D01*
X140359858Y-102749500D01*
X140168774Y-102670350D01*
X140168766Y-102670348D01*
X139965920Y-102630000D01*
X139662500Y-102630000D01*
X139662500Y-103380000D01*
X139162500Y-103380000D01*
X139162500Y-102630000D01*
X138859079Y-102630000D01*
X138656233Y-102670348D01*
X138656225Y-102670350D01*
X138465141Y-102749500D01*
X138465131Y-102749505D01*
X138293164Y-102864410D01*
X138293160Y-102864413D01*
X138146913Y-103010660D01*
X138146910Y-103010664D01*
X138032005Y-103182631D01*
X138032000Y-103182641D01*
X137952851Y-103373723D01*
X137952850Y-103373725D01*
X137941657Y-103430000D01*
X136576615Y-103430000D01*
X136576615Y-103429999D01*
X136575414Y-103422415D01*
X136521908Y-103257744D01*
X136443304Y-103103475D01*
X136341532Y-102963397D01*
X136219102Y-102840967D01*
X136079024Y-102739195D01*
X135924757Y-102660591D01*
X135760084Y-102607085D01*
X135589071Y-102580000D01*
X135452500Y-102580000D01*
X135452500Y-103380000D01*
X134952500Y-103380000D01*
X134952500Y-102580000D01*
X134815929Y-102580000D01*
X134644915Y-102607085D01*
X134480242Y-102660591D01*
X134325975Y-102739195D01*
X134185897Y-102840967D01*
X134063465Y-102963399D01*
X134063461Y-102963404D01*
X133974818Y-103085412D01*
X133919488Y-103128078D01*
X133849875Y-103134057D01*
X133788080Y-103101452D01*
X133753723Y-103040613D01*
X133750500Y-103012527D01*
X133750500Y-102178089D01*
X153797564Y-102178089D01*
X153797564Y-102309872D01*
X153831672Y-102437168D01*
X153858349Y-102483373D01*
X153897564Y-102551295D01*
X153990750Y-102644481D01*
X154104878Y-102710373D01*
X154232172Y-102744481D01*
X154232174Y-102744481D01*
X154363954Y-102744481D01*
X154363956Y-102744481D01*
X154491250Y-102710373D01*
X154605378Y-102644481D01*
X154698564Y-102551295D01*
X154764456Y-102437167D01*
X154798564Y-102309873D01*
X154798564Y-102184108D01*
X157999502Y-102184108D01*
X157999502Y-102315892D01*
X158010270Y-102356079D01*
X158033610Y-102443187D01*
X158056812Y-102483373D01*
X158099502Y-102557314D01*
X158192688Y-102650500D01*
X158306816Y-102716392D01*
X158434110Y-102750500D01*
X158434112Y-102750500D01*
X158565892Y-102750500D01*
X158565894Y-102750500D01*
X158693188Y-102716392D01*
X158807316Y-102650500D01*
X158900502Y-102557314D01*
X158943192Y-102483373D01*
X160950235Y-102483373D01*
X160950235Y-102615157D01*
X160958092Y-102644480D01*
X160984343Y-102742452D01*
X160988990Y-102750500D01*
X161050235Y-102856579D01*
X161143421Y-102949765D01*
X161257549Y-103015657D01*
X161384843Y-103049765D01*
X161384845Y-103049765D01*
X161516625Y-103049765D01*
X161516627Y-103049765D01*
X161643921Y-103015657D01*
X161663666Y-103004256D01*
X161731566Y-102987784D01*
X161797593Y-103010636D01*
X161840784Y-103065557D01*
X161849667Y-103111644D01*
X161849667Y-103215723D01*
X161883775Y-103343019D01*
X161914651Y-103396497D01*
X161949667Y-103457146D01*
X162042853Y-103550332D01*
X162156981Y-103616224D01*
X162284275Y-103650332D01*
X162284277Y-103650332D01*
X162416057Y-103650332D01*
X162416059Y-103650332D01*
X162543353Y-103616224D01*
X162657481Y-103550332D01*
X162750667Y-103457146D01*
X162816559Y-103343018D01*
X162850667Y-103215724D01*
X162850667Y-103083940D01*
X162816559Y-102956646D01*
X162750667Y-102842518D01*
X162657481Y-102749332D01*
X162590002Y-102710373D01*
X162543354Y-102683440D01*
X162479706Y-102666386D01*
X162416059Y-102649332D01*
X162284275Y-102649332D01*
X162156981Y-102683440D01*
X162156980Y-102683440D01*
X162156978Y-102683441D01*
X162156975Y-102683442D01*
X162137233Y-102694840D01*
X162069332Y-102711311D01*
X162003306Y-102688458D01*
X161960116Y-102633536D01*
X161951235Y-102587452D01*
X161951235Y-102483375D01*
X161951235Y-102483373D01*
X161917127Y-102356079D01*
X161851235Y-102241951D01*
X161758049Y-102148765D01*
X161700985Y-102115819D01*
X161643922Y-102082873D01*
X161580274Y-102065819D01*
X161516627Y-102048765D01*
X161384843Y-102048765D01*
X161257547Y-102082873D01*
X161143421Y-102148765D01*
X161143418Y-102148767D01*
X161050237Y-102241948D01*
X161050235Y-102241951D01*
X160984343Y-102356077D01*
X160962616Y-102437167D01*
X160950235Y-102483373D01*
X158943192Y-102483373D01*
X158966394Y-102443186D01*
X159000502Y-102315892D01*
X159000502Y-102184108D01*
X158966394Y-102056814D01*
X158900502Y-101942686D01*
X158807316Y-101849500D01*
X158750252Y-101816554D01*
X158693189Y-101783608D01*
X158629541Y-101766554D01*
X158565894Y-101749500D01*
X158434110Y-101749500D01*
X158306814Y-101783608D01*
X158192688Y-101849500D01*
X158192685Y-101849502D01*
X158099504Y-101942683D01*
X158099502Y-101942686D01*
X158033610Y-102056812D01*
X158001115Y-102178089D01*
X157999502Y-102184108D01*
X154798564Y-102184108D01*
X154798564Y-102178089D01*
X154764456Y-102050795D01*
X154698564Y-101936667D01*
X154605378Y-101843481D01*
X154548314Y-101810535D01*
X154491251Y-101777589D01*
X154427603Y-101760535D01*
X154363956Y-101743481D01*
X154232172Y-101743481D01*
X154104876Y-101777589D01*
X153990750Y-101843481D01*
X153990747Y-101843483D01*
X153897566Y-101936664D01*
X153897564Y-101936667D01*
X153831672Y-102050793D01*
X153797564Y-102178089D01*
X133750500Y-102178089D01*
X133750500Y-100934108D01*
X138749500Y-100934108D01*
X138749500Y-101065892D01*
X138758772Y-101100497D01*
X138783608Y-101193187D01*
X138816554Y-101250250D01*
X138849500Y-101307314D01*
X138942686Y-101400500D01*
X139056814Y-101466392D01*
X139184108Y-101500500D01*
X139184110Y-101500500D01*
X139315890Y-101500500D01*
X139315892Y-101500500D01*
X139443186Y-101466392D01*
X139557314Y-101400500D01*
X139650500Y-101307314D01*
X139716392Y-101193186D01*
X139750500Y-101065892D01*
X139750500Y-100934108D01*
X139716392Y-100806814D01*
X139650500Y-100692686D01*
X139557314Y-100599500D01*
X139443186Y-100533608D01*
X139315892Y-100499500D01*
X139184108Y-100499500D01*
X139056812Y-100533608D01*
X138942686Y-100599500D01*
X138942683Y-100599502D01*
X138849502Y-100692683D01*
X138849500Y-100692686D01*
X138783608Y-100806812D01*
X138775334Y-100837693D01*
X138749500Y-100934108D01*
X133750500Y-100934108D01*
X133750500Y-100084108D01*
X135249500Y-100084108D01*
X135249500Y-100215892D01*
X135256617Y-100242452D01*
X135283608Y-100343187D01*
X135303431Y-100377520D01*
X135349500Y-100457314D01*
X135442686Y-100550500D01*
X135556814Y-100616392D01*
X135684108Y-100650500D01*
X135684110Y-100650500D01*
X135815890Y-100650500D01*
X135815892Y-100650500D01*
X135943186Y-100616392D01*
X136057314Y-100550500D01*
X136150500Y-100457314D01*
X136163898Y-100434108D01*
X148409500Y-100434108D01*
X148409500Y-100565891D01*
X148443608Y-100693187D01*
X148451448Y-100706766D01*
X148509500Y-100807314D01*
X148602686Y-100900500D01*
X148716814Y-100966392D01*
X148844108Y-101000500D01*
X148844110Y-101000500D01*
X148975890Y-101000500D01*
X148975892Y-101000500D01*
X149103186Y-100966392D01*
X149217314Y-100900500D01*
X149310500Y-100807314D01*
X149376392Y-100693186D01*
X149410500Y-100565892D01*
X149410500Y-100434108D01*
X149376392Y-100306814D01*
X149310500Y-100192686D01*
X149217314Y-100099500D01*
X149147109Y-100058967D01*
X149103187Y-100033608D01*
X149000852Y-100006188D01*
X148975892Y-99999500D01*
X148844108Y-99999500D01*
X148716812Y-100033608D01*
X148602686Y-100099500D01*
X148602683Y-100099502D01*
X148509502Y-100192683D01*
X148509500Y-100192686D01*
X148443608Y-100306812D01*
X148409500Y-100434108D01*
X136163898Y-100434108D01*
X136216392Y-100343186D01*
X136250500Y-100215892D01*
X136250500Y-100084108D01*
X136216392Y-99956814D01*
X136150500Y-99842686D01*
X136057314Y-99749500D01*
X136000250Y-99716554D01*
X135943187Y-99683608D01*
X135879539Y-99666554D01*
X135815892Y-99649500D01*
X135684108Y-99649500D01*
X135556812Y-99683608D01*
X135442686Y-99749500D01*
X135442683Y-99749502D01*
X135349502Y-99842683D01*
X135349500Y-99842686D01*
X135283608Y-99956812D01*
X135270880Y-100004316D01*
X135249500Y-100084108D01*
X133750500Y-100084108D01*
X133750500Y-99334108D01*
X136499500Y-99334108D01*
X136499500Y-99465892D01*
X136508773Y-99500499D01*
X136533608Y-99593187D01*
X136552263Y-99625498D01*
X136599500Y-99707314D01*
X136692686Y-99800500D01*
X136806814Y-99866392D01*
X136934108Y-99900500D01*
X136934110Y-99900500D01*
X137065890Y-99900500D01*
X137065892Y-99900500D01*
X137191215Y-99866920D01*
X150732315Y-99866920D01*
X150732315Y-99998704D01*
X150742501Y-100036718D01*
X150766423Y-100125999D01*
X150770815Y-100133606D01*
X150832315Y-100240126D01*
X150925501Y-100333312D01*
X151039629Y-100399204D01*
X151166923Y-100433312D01*
X151166925Y-100433312D01*
X151298705Y-100433312D01*
X151298707Y-100433312D01*
X151426001Y-100399204D01*
X151540129Y-100333312D01*
X151633315Y-100240126D01*
X151699207Y-100125998D01*
X151707144Y-100096376D01*
X151743507Y-100036718D01*
X151806354Y-100006188D01*
X151875730Y-100014482D01*
X151929608Y-100058967D01*
X151947982Y-100107347D01*
X151948132Y-100107307D01*
X151948527Y-100108784D01*
X151949857Y-100112284D01*
X151950235Y-100115155D01*
X151950235Y-100115157D01*
X151967289Y-100178804D01*
X151984343Y-100242452D01*
X152013343Y-100292681D01*
X152050235Y-100356579D01*
X152143421Y-100449765D01*
X152257549Y-100515657D01*
X152384843Y-100549765D01*
X152384845Y-100549765D01*
X152516625Y-100549765D01*
X152516627Y-100549765D01*
X152575068Y-100534106D01*
X156249500Y-100534106D01*
X156249500Y-100665889D01*
X156283608Y-100793185D01*
X156309305Y-100837693D01*
X156349500Y-100907312D01*
X156442686Y-101000498D01*
X156500904Y-101034110D01*
X156555949Y-101065891D01*
X156556814Y-101066390D01*
X156684108Y-101100498D01*
X156684110Y-101100498D01*
X156815890Y-101100498D01*
X156815892Y-101100498D01*
X156943186Y-101066390D01*
X156999100Y-101034108D01*
X160249500Y-101034108D01*
X160249500Y-101165892D01*
X160256813Y-101193186D01*
X160283608Y-101293187D01*
X160296717Y-101315892D01*
X160349500Y-101407314D01*
X160442686Y-101500500D01*
X160556814Y-101566392D01*
X160684108Y-101600500D01*
X160684110Y-101600500D01*
X160815890Y-101600500D01*
X160815892Y-101600500D01*
X160943186Y-101566392D01*
X161057314Y-101500500D01*
X161150500Y-101407314D01*
X161216392Y-101293186D01*
X161250500Y-101165892D01*
X161250500Y-101034108D01*
X161223705Y-100934108D01*
X167059500Y-100934108D01*
X167059500Y-101065892D01*
X167068772Y-101100497D01*
X167093608Y-101193187D01*
X167126554Y-101250250D01*
X167159500Y-101307314D01*
X167252686Y-101400500D01*
X167366814Y-101466392D01*
X167494108Y-101500500D01*
X167494110Y-101500500D01*
X167625890Y-101500500D01*
X167625892Y-101500500D01*
X167753186Y-101466392D01*
X167867314Y-101400500D01*
X167960500Y-101307314D01*
X168026392Y-101193186D01*
X168028824Y-101184108D01*
X169738500Y-101184108D01*
X169738500Y-101315891D01*
X169772608Y-101443187D01*
X169786005Y-101466391D01*
X169838500Y-101557314D01*
X169931686Y-101650500D01*
X170045814Y-101716392D01*
X170173108Y-101750500D01*
X170173110Y-101750500D01*
X170304890Y-101750500D01*
X170304892Y-101750500D01*
X170432186Y-101716392D01*
X170546314Y-101650500D01*
X170639500Y-101557314D01*
X170705392Y-101443186D01*
X170739500Y-101315892D01*
X170739500Y-101184108D01*
X170705392Y-101056814D01*
X170639500Y-100942686D01*
X170546314Y-100849500D01*
X170478174Y-100810159D01*
X170432187Y-100783608D01*
X170333849Y-100757259D01*
X170304892Y-100749500D01*
X170173108Y-100749500D01*
X170045812Y-100783608D01*
X169931686Y-100849500D01*
X169931683Y-100849502D01*
X169838502Y-100942683D01*
X169838500Y-100942686D01*
X169772608Y-101056812D01*
X169738500Y-101184108D01*
X168028824Y-101184108D01*
X168060500Y-101065892D01*
X168060500Y-100934108D01*
X168026392Y-100806814D01*
X167960500Y-100692686D01*
X167867314Y-100599500D01*
X167781169Y-100549764D01*
X167753187Y-100533608D01*
X167686188Y-100515656D01*
X167625892Y-100499500D01*
X167494108Y-100499500D01*
X167366812Y-100533608D01*
X167252686Y-100599500D01*
X167252683Y-100599502D01*
X167159502Y-100692683D01*
X167159500Y-100692686D01*
X167093608Y-100806812D01*
X167085334Y-100837693D01*
X167059500Y-100934108D01*
X161223705Y-100934108D01*
X161216392Y-100906814D01*
X161180478Y-100844610D01*
X161177533Y-100837693D01*
X161174297Y-100810159D01*
X161167760Y-100783212D01*
X161170276Y-100775940D01*
X161169379Y-100768301D01*
X161181543Y-100743387D01*
X161190613Y-100717185D01*
X161199425Y-100706766D01*
X161200036Y-100705516D01*
X161200954Y-100704958D01*
X161203928Y-100701442D01*
X161286427Y-100618944D01*
X161352319Y-100504816D01*
X161386427Y-100377522D01*
X161386427Y-100245738D01*
X161352319Y-100118444D01*
X161286427Y-100004316D01*
X161193241Y-99911130D01*
X161132509Y-99876066D01*
X161079114Y-99845238D01*
X160988707Y-99821014D01*
X160951819Y-99811130D01*
X160820035Y-99811130D01*
X160692739Y-99845238D01*
X160578613Y-99911130D01*
X160578610Y-99911132D01*
X160485429Y-100004313D01*
X160485427Y-100004316D01*
X160419535Y-100118442D01*
X160415472Y-100133606D01*
X160385427Y-100245738D01*
X160385427Y-100377522D01*
X160404784Y-100449765D01*
X160419536Y-100504818D01*
X160419536Y-100504819D01*
X160451693Y-100560517D01*
X160468166Y-100628418D01*
X160445313Y-100694445D01*
X160431988Y-100710198D01*
X160349500Y-100792686D01*
X160283608Y-100906812D01*
X160267644Y-100966392D01*
X160249500Y-101034108D01*
X156999100Y-101034108D01*
X157057314Y-101000498D01*
X157150500Y-100907312D01*
X157216392Y-100793184D01*
X157250500Y-100665890D01*
X157250500Y-100534106D01*
X157216392Y-100406812D01*
X157150500Y-100292684D01*
X157057314Y-100199498D01*
X157000250Y-100166552D01*
X156943187Y-100133606D01*
X156845185Y-100107347D01*
X156815892Y-100099498D01*
X156684108Y-100099498D01*
X156556812Y-100133606D01*
X156442686Y-100199498D01*
X156442683Y-100199500D01*
X156349502Y-100292681D01*
X156349500Y-100292684D01*
X156283608Y-100406810D01*
X156249500Y-100534106D01*
X152575068Y-100534106D01*
X152643921Y-100515657D01*
X152758049Y-100449765D01*
X152851235Y-100356579D01*
X152917127Y-100242451D01*
X152951235Y-100115157D01*
X152951235Y-99983373D01*
X152917127Y-99856079D01*
X152851235Y-99741951D01*
X152758049Y-99648765D01*
X152700985Y-99615819D01*
X152643922Y-99582873D01*
X152580274Y-99565819D01*
X152516627Y-99548765D01*
X152454707Y-99548765D01*
X152387668Y-99529080D01*
X152341913Y-99476276D01*
X152331482Y-99410922D01*
X152331622Y-99409677D01*
X159082720Y-99409677D01*
X159082720Y-99541460D01*
X159116828Y-99668756D01*
X159139090Y-99707314D01*
X159182720Y-99782883D01*
X159275906Y-99876069D01*
X159390034Y-99941961D01*
X159517328Y-99976069D01*
X159517330Y-99976069D01*
X159649110Y-99976069D01*
X159649112Y-99976069D01*
X159776406Y-99941961D01*
X159890534Y-99876069D01*
X159983720Y-99782883D01*
X160049612Y-99668755D01*
X160083720Y-99541461D01*
X160083720Y-99409677D01*
X160049612Y-99282383D01*
X159983720Y-99168255D01*
X159890534Y-99075069D01*
X159804675Y-99025498D01*
X159776407Y-99009177D01*
X159712759Y-98992123D01*
X159649112Y-98975069D01*
X159517328Y-98975069D01*
X159390032Y-99009177D01*
X159275906Y-99075069D01*
X159275903Y-99075071D01*
X159182722Y-99168252D01*
X159182720Y-99168255D01*
X159116828Y-99282381D01*
X159082720Y-99409677D01*
X152331622Y-99409677D01*
X152332521Y-99401668D01*
X152333315Y-99398707D01*
X152333315Y-99266923D01*
X152299207Y-99139629D01*
X152297870Y-99137314D01*
X152272104Y-99092686D01*
X152233315Y-99025501D01*
X152140129Y-98932315D01*
X152077039Y-98895890D01*
X152026002Y-98866423D01*
X151950676Y-98846240D01*
X151898707Y-98832315D01*
X151766923Y-98832315D01*
X151639627Y-98866423D01*
X151525501Y-98932315D01*
X151525498Y-98932317D01*
X151432317Y-99025498D01*
X151432315Y-99025501D01*
X151366423Y-99139627D01*
X151332315Y-99266923D01*
X151332315Y-99308312D01*
X151312630Y-99375351D01*
X151259826Y-99421106D01*
X151208315Y-99432312D01*
X151166923Y-99432312D01*
X151039627Y-99466420D01*
X150925501Y-99532312D01*
X150925498Y-99532314D01*
X150832317Y-99625495D01*
X150832315Y-99625498D01*
X150766423Y-99739624D01*
X150754832Y-99782883D01*
X150732315Y-99866920D01*
X137191215Y-99866920D01*
X137193186Y-99866392D01*
X137307314Y-99800500D01*
X137400500Y-99707314D01*
X137466392Y-99593186D01*
X137500500Y-99465892D01*
X137500500Y-99334108D01*
X137466392Y-99206814D01*
X137400500Y-99092686D01*
X137307314Y-98999500D01*
X137250250Y-98966554D01*
X137193187Y-98933608D01*
X137129539Y-98916554D01*
X137065892Y-98899500D01*
X136934108Y-98899500D01*
X136806812Y-98933608D01*
X136692686Y-98999500D01*
X136692683Y-98999502D01*
X136599502Y-99092683D01*
X136599500Y-99092686D01*
X136533608Y-99206812D01*
X136509606Y-99296391D01*
X136499500Y-99334108D01*
X133750500Y-99334108D01*
X133750500Y-98764108D01*
X145999500Y-98764108D01*
X145999500Y-98895892D01*
X146009260Y-98932317D01*
X146033608Y-99023187D01*
X146043026Y-99039499D01*
X146099500Y-99137314D01*
X146192686Y-99230500D01*
X146306814Y-99296392D01*
X146434108Y-99330500D01*
X146434110Y-99330500D01*
X146565890Y-99330500D01*
X146565892Y-99330500D01*
X146693186Y-99296392D01*
X146807314Y-99230500D01*
X146900500Y-99137314D01*
X146966392Y-99023186D01*
X147000500Y-98895892D01*
X147000500Y-98764108D01*
X146966392Y-98636814D01*
X146900500Y-98522686D01*
X146807314Y-98429500D01*
X146721318Y-98379850D01*
X146721315Y-98379848D01*
X150095240Y-98379848D01*
X150095240Y-98511632D01*
X150112294Y-98575279D01*
X150129348Y-98638927D01*
X150135999Y-98650446D01*
X150195240Y-98753054D01*
X150288426Y-98846240D01*
X150402554Y-98912132D01*
X150529848Y-98946240D01*
X150529850Y-98946240D01*
X150661630Y-98946240D01*
X150661632Y-98946240D01*
X150788926Y-98912132D01*
X150903054Y-98846240D01*
X150996240Y-98753054D01*
X151062132Y-98638926D01*
X151096240Y-98511632D01*
X151096240Y-98379848D01*
X151062132Y-98252554D01*
X151060944Y-98250497D01*
X151050082Y-98231683D01*
X150996240Y-98138426D01*
X150903054Y-98045240D01*
X150842495Y-98010276D01*
X150788927Y-97979348D01*
X150725279Y-97962294D01*
X150661632Y-97945240D01*
X150529848Y-97945240D01*
X150402552Y-97979348D01*
X150288426Y-98045240D01*
X150288423Y-98045242D01*
X150195242Y-98138423D01*
X150195240Y-98138426D01*
X150129348Y-98252552D01*
X150102907Y-98351234D01*
X150095240Y-98379848D01*
X146721315Y-98379848D01*
X146693187Y-98363608D01*
X146626770Y-98345812D01*
X146565892Y-98329500D01*
X146434108Y-98329500D01*
X146306812Y-98363608D01*
X146192686Y-98429500D01*
X146192683Y-98429502D01*
X146099502Y-98522683D01*
X146099500Y-98522686D01*
X146033608Y-98636812D01*
X146008053Y-98732186D01*
X145999500Y-98764108D01*
X133750500Y-98764108D01*
X133750500Y-97534108D01*
X153401500Y-97534108D01*
X153401500Y-97665892D01*
X153416326Y-97721224D01*
X153435608Y-97793187D01*
X153448038Y-97814716D01*
X153501500Y-97907314D01*
X153594686Y-98000500D01*
X153708814Y-98066392D01*
X153836108Y-98100500D01*
X153836110Y-98100500D01*
X153967890Y-98100500D01*
X153967892Y-98100500D01*
X154095186Y-98066392D01*
X154209314Y-98000500D01*
X154302500Y-97907314D01*
X154315474Y-97884843D01*
X155950235Y-97884843D01*
X155950235Y-98016627D01*
X155960739Y-98055830D01*
X155984343Y-98143922D01*
X156009569Y-98187613D01*
X156050235Y-98258049D01*
X156143421Y-98351235D01*
X156257549Y-98417127D01*
X156384843Y-98451235D01*
X156384845Y-98451235D01*
X156516625Y-98451235D01*
X156516627Y-98451235D01*
X156643921Y-98417127D01*
X156758049Y-98351235D01*
X156822216Y-98287067D01*
X156883535Y-98253585D01*
X156953227Y-98258569D01*
X156971894Y-98267364D01*
X157056810Y-98316390D01*
X157056811Y-98316390D01*
X157056814Y-98316392D01*
X157184108Y-98350500D01*
X157184110Y-98350500D01*
X157315890Y-98350500D01*
X157315892Y-98350500D01*
X157443186Y-98316392D01*
X157557314Y-98250500D01*
X157650500Y-98157314D01*
X157709092Y-98055830D01*
X159440368Y-98055830D01*
X159440368Y-98187614D01*
X159452176Y-98231683D01*
X159474476Y-98314909D01*
X159495025Y-98350500D01*
X159540368Y-98429036D01*
X159633554Y-98522222D01*
X159747682Y-98588114D01*
X159874976Y-98622222D01*
X159874978Y-98622222D01*
X160006758Y-98622222D01*
X160006760Y-98622222D01*
X160053791Y-98609620D01*
X160123639Y-98611283D01*
X160181502Y-98650446D01*
X160205657Y-98697299D01*
X160215005Y-98732186D01*
X160280897Y-98846314D01*
X160374083Y-98939500D01*
X160488211Y-99005392D01*
X160615505Y-99039500D01*
X160615507Y-99039500D01*
X160747287Y-99039500D01*
X160747289Y-99039500D01*
X160874583Y-99005392D01*
X160988711Y-98939500D01*
X160994103Y-98934108D01*
X167059500Y-98934108D01*
X167059500Y-99065892D01*
X167076554Y-99129539D01*
X167093608Y-99193187D01*
X167115151Y-99230499D01*
X167159500Y-99307314D01*
X167252686Y-99400500D01*
X167329090Y-99444612D01*
X167365944Y-99465890D01*
X167366814Y-99466392D01*
X167494108Y-99500500D01*
X167494110Y-99500500D01*
X167625890Y-99500500D01*
X167625892Y-99500500D01*
X167753186Y-99466392D01*
X167867314Y-99400500D01*
X167960500Y-99307314D01*
X168026392Y-99193186D01*
X168060500Y-99065892D01*
X168060500Y-98934108D01*
X168026392Y-98806814D01*
X167960500Y-98692686D01*
X167867314Y-98599500D01*
X167800750Y-98561069D01*
X167753187Y-98533608D01*
X167689539Y-98516554D01*
X167625892Y-98499500D01*
X167494108Y-98499500D01*
X167366812Y-98533608D01*
X167252686Y-98599500D01*
X167252683Y-98599502D01*
X167159502Y-98692683D01*
X167159500Y-98692686D01*
X167093608Y-98806812D01*
X167077636Y-98866423D01*
X167059500Y-98934108D01*
X160994103Y-98934108D01*
X161081897Y-98846314D01*
X161147789Y-98732186D01*
X161181897Y-98604892D01*
X161181897Y-98473108D01*
X161147789Y-98345814D01*
X161081897Y-98231686D01*
X160988711Y-98138500D01*
X160922892Y-98100499D01*
X160874584Y-98072608D01*
X160810936Y-98055554D01*
X160747289Y-98038500D01*
X160615505Y-98038500D01*
X160568473Y-98051101D01*
X160498624Y-98049439D01*
X160440762Y-98010276D01*
X160416607Y-97963420D01*
X160407260Y-97928536D01*
X160341368Y-97814408D01*
X160248182Y-97721222D01*
X160191118Y-97688276D01*
X160134055Y-97655330D01*
X160070407Y-97638276D01*
X160006760Y-97621222D01*
X159874976Y-97621222D01*
X159747680Y-97655330D01*
X159633554Y-97721222D01*
X159633551Y-97721224D01*
X159540370Y-97814405D01*
X159540368Y-97814408D01*
X159474476Y-97928534D01*
X159443756Y-98043185D01*
X159440368Y-98055830D01*
X157709092Y-98055830D01*
X157716392Y-98043186D01*
X157718762Y-98034340D01*
X157723782Y-98015608D01*
X157736293Y-97968912D01*
X157750500Y-97915892D01*
X157750500Y-97784108D01*
X157716392Y-97656814D01*
X157650500Y-97542686D01*
X157557314Y-97449500D01*
X157483380Y-97406814D01*
X157443187Y-97383608D01*
X157379539Y-97366554D01*
X157315892Y-97349500D01*
X157184108Y-97349500D01*
X157056812Y-97383608D01*
X156942686Y-97449500D01*
X156942682Y-97449503D01*
X156878519Y-97513665D01*
X156817195Y-97547150D01*
X156747504Y-97542164D01*
X156728839Y-97533370D01*
X156643924Y-97484344D01*
X156643921Y-97484343D01*
X156516627Y-97450235D01*
X156384843Y-97450235D01*
X156257547Y-97484343D01*
X156143421Y-97550235D01*
X156143418Y-97550237D01*
X156050237Y-97643418D01*
X156050235Y-97643421D01*
X155984343Y-97757547D01*
X155969025Y-97814716D01*
X155950235Y-97884843D01*
X154315474Y-97884843D01*
X154368392Y-97793186D01*
X154402500Y-97665892D01*
X154402500Y-97534108D01*
X154368392Y-97406814D01*
X154365913Y-97402521D01*
X154354994Y-97383608D01*
X154302500Y-97292686D01*
X154209314Y-97199500D01*
X154142802Y-97161099D01*
X154095187Y-97133608D01*
X154031539Y-97116554D01*
X153967892Y-97099500D01*
X153836108Y-97099500D01*
X153708812Y-97133608D01*
X153594686Y-97199500D01*
X153594683Y-97199502D01*
X153501502Y-97292683D01*
X153501500Y-97292686D01*
X153435608Y-97406812D01*
X153419644Y-97466392D01*
X153401500Y-97534108D01*
X133750500Y-97534108D01*
X133750500Y-96934108D01*
X138749500Y-96934108D01*
X138749500Y-97065891D01*
X138783608Y-97193187D01*
X138816554Y-97250250D01*
X138849500Y-97307314D01*
X138942686Y-97400500D01*
X139041521Y-97457563D01*
X139056810Y-97466390D01*
X139056814Y-97466392D01*
X139184108Y-97500500D01*
X139184110Y-97500500D01*
X139315890Y-97500500D01*
X139315892Y-97500500D01*
X139443186Y-97466392D01*
X139557314Y-97400500D01*
X139650500Y-97307314D01*
X139716392Y-97193186D01*
X139750500Y-97065892D01*
X139750500Y-96934108D01*
X139716392Y-96806814D01*
X139650500Y-96692686D01*
X139557314Y-96599500D01*
X139499100Y-96565890D01*
X139443187Y-96533608D01*
X139379539Y-96516554D01*
X139315892Y-96499500D01*
X139184108Y-96499500D01*
X139056812Y-96533608D01*
X138942686Y-96599500D01*
X138942683Y-96599502D01*
X138849502Y-96692683D01*
X138849500Y-96692686D01*
X138783608Y-96806812D01*
X138749500Y-96934108D01*
X133750500Y-96934108D01*
X133750500Y-95834108D01*
X136499500Y-95834108D01*
X136499500Y-95965891D01*
X136533608Y-96093187D01*
X136566554Y-96150250D01*
X136599500Y-96207314D01*
X136692686Y-96300500D01*
X136806814Y-96366392D01*
X136934108Y-96400500D01*
X136934110Y-96400500D01*
X137065890Y-96400500D01*
X137065892Y-96400500D01*
X137193186Y-96366392D01*
X137307314Y-96300500D01*
X137400500Y-96207314D01*
X137466392Y-96093186D01*
X137500500Y-95965892D01*
X137500500Y-95834108D01*
X137466392Y-95706814D01*
X137453283Y-95684108D01*
X155249500Y-95684108D01*
X155249500Y-95815892D01*
X155257343Y-95845164D01*
X155283608Y-95943187D01*
X155296717Y-95965892D01*
X155349500Y-96057314D01*
X155442686Y-96150500D01*
X155556814Y-96216392D01*
X155684108Y-96250500D01*
X155684110Y-96250500D01*
X155815890Y-96250500D01*
X155815892Y-96250500D01*
X155943186Y-96216392D01*
X156057314Y-96150500D01*
X156150500Y-96057314D01*
X156216392Y-95943186D01*
X156250500Y-95815892D01*
X156250500Y-95684108D01*
X156216392Y-95556814D01*
X156150500Y-95442686D01*
X156141922Y-95434108D01*
X158399500Y-95434108D01*
X158399500Y-95565892D01*
X158416554Y-95629539D01*
X158433608Y-95693187D01*
X158459470Y-95737980D01*
X158499500Y-95807314D01*
X158592686Y-95900500D01*
X158677560Y-95949502D01*
X158705944Y-95965890D01*
X158706814Y-95966392D01*
X158834108Y-96000500D01*
X158834110Y-96000500D01*
X158965890Y-96000500D01*
X158965892Y-96000500D01*
X159093186Y-95966392D01*
X159207314Y-95900500D01*
X159291521Y-95816292D01*
X159352840Y-95782810D01*
X159422532Y-95787794D01*
X159478466Y-95829665D01*
X159502883Y-95895129D01*
X159499940Y-95925970D01*
X159500561Y-95926052D01*
X159499500Y-95934106D01*
X159499500Y-95934108D01*
X159499500Y-96065892D01*
X159516554Y-96129539D01*
X159533608Y-96193187D01*
X159547005Y-96216391D01*
X159599500Y-96307314D01*
X159692686Y-96400500D01*
X159806814Y-96466392D01*
X159934108Y-96500500D01*
X159934110Y-96500500D01*
X160065890Y-96500500D01*
X160065892Y-96500500D01*
X160193186Y-96466392D01*
X160307314Y-96400500D01*
X160400500Y-96307314D01*
X160466392Y-96193186D01*
X160500500Y-96065892D01*
X160500500Y-95934108D01*
X163999500Y-95934108D01*
X163999500Y-96065892D01*
X164016554Y-96129539D01*
X164033608Y-96193187D01*
X164047005Y-96216391D01*
X164099500Y-96307314D01*
X164192686Y-96400500D01*
X164306814Y-96466392D01*
X164434108Y-96500500D01*
X164434110Y-96500500D01*
X164565890Y-96500500D01*
X164565892Y-96500500D01*
X164693186Y-96466392D01*
X164807314Y-96400500D01*
X164891521Y-96316292D01*
X164952840Y-96282810D01*
X165022532Y-96287794D01*
X165078466Y-96329665D01*
X165102883Y-96395129D01*
X165099940Y-96425970D01*
X165100561Y-96426052D01*
X165099500Y-96434106D01*
X165099500Y-96434108D01*
X165099500Y-96565892D01*
X165133608Y-96693186D01*
X165184835Y-96781914D01*
X165201308Y-96849812D01*
X165178456Y-96915839D01*
X165123535Y-96959030D01*
X165077448Y-96967913D01*
X164965695Y-96967913D01*
X164838399Y-97002021D01*
X164724273Y-97067913D01*
X164724270Y-97067915D01*
X164631089Y-97161096D01*
X164631087Y-97161099D01*
X164565195Y-97275225D01*
X164545294Y-97349500D01*
X164531087Y-97402521D01*
X164531087Y-97534305D01*
X164535356Y-97550237D01*
X164565195Y-97661600D01*
X164598141Y-97718663D01*
X164631087Y-97775727D01*
X164724273Y-97868913D01*
X164838401Y-97934805D01*
X164965695Y-97968913D01*
X164965697Y-97968913D01*
X165097477Y-97968913D01*
X165097479Y-97968913D01*
X165224773Y-97934805D01*
X165338901Y-97868913D01*
X165432087Y-97775727D01*
X165497979Y-97661599D01*
X165532087Y-97534305D01*
X165532087Y-97402521D01*
X165497979Y-97275227D01*
X165446751Y-97186498D01*
X165430279Y-97118601D01*
X165453131Y-97052574D01*
X165508052Y-97009383D01*
X165554139Y-97000500D01*
X165665890Y-97000500D01*
X165665892Y-97000500D01*
X165793186Y-96966392D01*
X165849103Y-96934108D01*
X167059500Y-96934108D01*
X167059500Y-97065891D01*
X167093608Y-97193187D01*
X167126554Y-97250250D01*
X167159500Y-97307314D01*
X167252686Y-97400500D01*
X167351521Y-97457563D01*
X167366810Y-97466390D01*
X167366814Y-97466392D01*
X167494108Y-97500500D01*
X167494110Y-97500500D01*
X167625890Y-97500500D01*
X167625892Y-97500500D01*
X167753186Y-97466392D01*
X167867314Y-97400500D01*
X167960500Y-97307314D01*
X168026392Y-97193186D01*
X168060500Y-97065892D01*
X168060500Y-96934108D01*
X168026392Y-96806814D01*
X167960500Y-96692686D01*
X167867314Y-96599500D01*
X167809100Y-96565890D01*
X167753187Y-96533608D01*
X167689539Y-96516554D01*
X167625892Y-96499500D01*
X167494108Y-96499500D01*
X167366812Y-96533608D01*
X167252686Y-96599500D01*
X167252683Y-96599502D01*
X167159502Y-96692683D01*
X167159500Y-96692686D01*
X167093608Y-96806812D01*
X167059500Y-96934108D01*
X165849103Y-96934108D01*
X165907314Y-96900500D01*
X166000500Y-96807314D01*
X166066392Y-96693186D01*
X166100500Y-96565892D01*
X166100500Y-96434108D01*
X166066392Y-96306814D01*
X166000500Y-96192686D01*
X165907314Y-96099500D01*
X165849100Y-96065890D01*
X165793187Y-96033608D01*
X165729539Y-96016554D01*
X165665892Y-95999500D01*
X165534108Y-95999500D01*
X165406812Y-96033608D01*
X165292686Y-96099500D01*
X165208481Y-96183705D01*
X165147157Y-96217189D01*
X165077466Y-96212205D01*
X165021532Y-96170333D01*
X164997116Y-96104868D01*
X165000061Y-96074029D01*
X164999439Y-96073948D01*
X165000500Y-96065890D01*
X165000500Y-95934110D01*
X165000500Y-95934108D01*
X164966392Y-95806814D01*
X164900500Y-95692686D01*
X164891922Y-95684108D01*
X167749500Y-95684108D01*
X167749500Y-95815892D01*
X167757343Y-95845164D01*
X167783608Y-95943187D01*
X167796717Y-95965892D01*
X167849500Y-96057314D01*
X167942686Y-96150500D01*
X168056814Y-96216392D01*
X168184108Y-96250500D01*
X168184116Y-96250500D01*
X168192168Y-96251561D01*
X168191736Y-96254835D01*
X168244012Y-96270185D01*
X168289767Y-96322989D01*
X168300973Y-96374500D01*
X168300973Y-96415892D01*
X168314504Y-96466391D01*
X168335081Y-96543187D01*
X168348190Y-96565892D01*
X168400973Y-96657314D01*
X168494159Y-96750500D01*
X168608287Y-96816392D01*
X168735581Y-96850500D01*
X168735583Y-96850500D01*
X168867363Y-96850500D01*
X168867365Y-96850500D01*
X168994659Y-96816392D01*
X169108787Y-96750500D01*
X169201973Y-96657314D01*
X169267865Y-96543186D01*
X169301973Y-96415892D01*
X169301973Y-96284108D01*
X169267865Y-96156814D01*
X169201973Y-96042686D01*
X169108787Y-95949500D01*
X169023912Y-95900497D01*
X168994660Y-95883608D01*
X168931012Y-95866554D01*
X168867365Y-95849500D01*
X168867364Y-95849500D01*
X168859305Y-95848439D01*
X168859736Y-95845164D01*
X168807461Y-95829815D01*
X168761706Y-95777011D01*
X168750500Y-95725500D01*
X168750500Y-95684110D01*
X168750500Y-95684108D01*
X168716392Y-95556814D01*
X168650500Y-95442686D01*
X168557314Y-95349500D01*
X168483380Y-95306814D01*
X168443187Y-95283608D01*
X168379539Y-95266554D01*
X168315892Y-95249500D01*
X168184108Y-95249500D01*
X168056812Y-95283608D01*
X167942686Y-95349500D01*
X167942683Y-95349502D01*
X167849502Y-95442683D01*
X167849500Y-95442686D01*
X167783608Y-95556812D01*
X167779017Y-95573948D01*
X167749500Y-95684108D01*
X164891922Y-95684108D01*
X164807314Y-95599500D01*
X164733378Y-95556813D01*
X164693187Y-95533608D01*
X164629539Y-95516554D01*
X164565892Y-95499500D01*
X164434108Y-95499500D01*
X164306812Y-95533608D01*
X164192686Y-95599500D01*
X164192683Y-95599502D01*
X164099502Y-95692683D01*
X164099500Y-95692686D01*
X164033608Y-95806812D01*
X164022170Y-95849500D01*
X163999500Y-95934108D01*
X160500500Y-95934108D01*
X160466392Y-95806814D01*
X160400500Y-95692686D01*
X160307314Y-95599500D01*
X160233378Y-95556813D01*
X160193187Y-95533608D01*
X160129539Y-95516554D01*
X160065892Y-95499500D01*
X159934108Y-95499500D01*
X159806812Y-95533608D01*
X159692686Y-95599500D01*
X159608481Y-95683705D01*
X159547157Y-95717189D01*
X159477466Y-95712205D01*
X159421532Y-95670333D01*
X159397116Y-95604868D01*
X159400061Y-95574029D01*
X159399439Y-95573948D01*
X159400500Y-95565890D01*
X159400500Y-95434110D01*
X159400500Y-95434108D01*
X159366392Y-95306814D01*
X159300500Y-95192686D01*
X159207314Y-95099500D01*
X159150250Y-95066554D01*
X159093187Y-95033608D01*
X159029539Y-95016554D01*
X158965892Y-94999500D01*
X158834108Y-94999500D01*
X158706812Y-95033608D01*
X158592686Y-95099500D01*
X158592683Y-95099502D01*
X158499502Y-95192683D01*
X158499500Y-95192686D01*
X158433608Y-95306812D01*
X158422170Y-95349500D01*
X158399500Y-95434108D01*
X156141922Y-95434108D01*
X156057314Y-95349500D01*
X155983380Y-95306814D01*
X155943187Y-95283608D01*
X155879539Y-95266554D01*
X155815892Y-95249500D01*
X155684108Y-95249500D01*
X155556812Y-95283608D01*
X155442686Y-95349500D01*
X155442683Y-95349502D01*
X155349502Y-95442683D01*
X155349500Y-95442686D01*
X155283608Y-95556812D01*
X155279017Y-95573948D01*
X155249500Y-95684108D01*
X137453283Y-95684108D01*
X137400500Y-95592686D01*
X137307314Y-95499500D01*
X137208910Y-95442686D01*
X137193187Y-95433608D01*
X137129539Y-95416554D01*
X137065892Y-95399500D01*
X136934108Y-95399500D01*
X136806812Y-95433608D01*
X136692686Y-95499500D01*
X136692683Y-95499502D01*
X136599502Y-95592683D01*
X136599500Y-95592686D01*
X136533608Y-95706812D01*
X136499500Y-95834108D01*
X133750500Y-95834108D01*
X133750500Y-94684108D01*
X154249500Y-94684108D01*
X154249500Y-94815891D01*
X154283608Y-94943187D01*
X154316121Y-94999500D01*
X154349500Y-95057314D01*
X154442686Y-95150500D01*
X154556814Y-95216392D01*
X154684108Y-95250500D01*
X154684110Y-95250500D01*
X154815890Y-95250500D01*
X154815892Y-95250500D01*
X154943186Y-95216392D01*
X155057314Y-95150500D01*
X155150500Y-95057314D01*
X155216392Y-94943186D01*
X155250500Y-94815892D01*
X155250500Y-94684108D01*
X155216392Y-94556814D01*
X155150500Y-94442686D01*
X155057314Y-94349500D01*
X155000250Y-94316554D01*
X154943187Y-94283608D01*
X154879539Y-94266554D01*
X154815892Y-94249500D01*
X154684108Y-94249500D01*
X154556812Y-94283608D01*
X154442686Y-94349500D01*
X154442683Y-94349502D01*
X154349502Y-94442683D01*
X154349500Y-94442686D01*
X154283608Y-94556812D01*
X154249500Y-94684108D01*
X133750500Y-94684108D01*
X133750500Y-94084108D01*
X158499500Y-94084108D01*
X158499500Y-94215891D01*
X158533608Y-94343187D01*
X158566554Y-94400250D01*
X158599500Y-94457314D01*
X158692686Y-94550500D01*
X158806814Y-94616392D01*
X158934108Y-94650500D01*
X158934110Y-94650500D01*
X159065890Y-94650500D01*
X159065892Y-94650500D01*
X159193186Y-94616392D01*
X159307314Y-94550500D01*
X159400500Y-94457314D01*
X159466392Y-94343186D01*
X159500500Y-94215892D01*
X159500500Y-94084108D01*
X159466392Y-93956814D01*
X159400500Y-93842686D01*
X159307314Y-93749500D01*
X159250250Y-93716554D01*
X159193187Y-93683608D01*
X159129539Y-93666554D01*
X159065892Y-93649500D01*
X158934108Y-93649500D01*
X158806812Y-93683608D01*
X158692686Y-93749500D01*
X158692683Y-93749502D01*
X158599502Y-93842683D01*
X158599500Y-93842686D01*
X158533608Y-93956812D01*
X158499500Y-94084108D01*
X133750500Y-94084108D01*
X133750500Y-93314108D01*
X144299500Y-93314108D01*
X144299500Y-93445891D01*
X144333608Y-93573187D01*
X144366554Y-93630250D01*
X144399500Y-93687314D01*
X144492686Y-93780500D01*
X144591521Y-93837563D01*
X144596603Y-93840497D01*
X144606814Y-93846392D01*
X144734108Y-93880500D01*
X144734110Y-93880500D01*
X144865890Y-93880500D01*
X144865892Y-93880500D01*
X144993186Y-93846392D01*
X145107314Y-93780500D01*
X145200500Y-93687314D01*
X145266392Y-93573186D01*
X145300500Y-93445892D01*
X145300500Y-93374108D01*
X148999500Y-93374108D01*
X148999500Y-93505891D01*
X149033608Y-93633187D01*
X149043027Y-93649500D01*
X149099500Y-93747314D01*
X149192686Y-93840500D01*
X149306814Y-93906392D01*
X149434108Y-93940500D01*
X149434110Y-93940500D01*
X149565890Y-93940500D01*
X149565892Y-93940500D01*
X149693186Y-93906392D01*
X149807314Y-93840500D01*
X149900500Y-93747314D01*
X149966392Y-93633186D01*
X150000500Y-93505892D01*
X150000500Y-93374108D01*
X152999500Y-93374108D01*
X152999500Y-93505891D01*
X153033608Y-93633187D01*
X153043027Y-93649500D01*
X153099500Y-93747314D01*
X153192686Y-93840500D01*
X153306814Y-93906392D01*
X153434108Y-93940500D01*
X153434110Y-93940500D01*
X153565890Y-93940500D01*
X153565892Y-93940500D01*
X153693186Y-93906392D01*
X153807314Y-93840500D01*
X153900500Y-93747314D01*
X153966392Y-93633186D01*
X154000500Y-93505892D01*
X154000500Y-93374108D01*
X155999500Y-93374108D01*
X155999500Y-93505891D01*
X156033608Y-93633187D01*
X156043027Y-93649500D01*
X156099500Y-93747314D01*
X156192686Y-93840500D01*
X156306814Y-93906392D01*
X156434108Y-93940500D01*
X156434110Y-93940500D01*
X156565890Y-93940500D01*
X156565892Y-93940500D01*
X156693186Y-93906392D01*
X156807314Y-93840500D01*
X156900500Y-93747314D01*
X156966392Y-93633186D01*
X157000500Y-93505892D01*
X157000500Y-93374108D01*
X156966392Y-93246814D01*
X156900500Y-93132686D01*
X156807314Y-93039500D01*
X156703395Y-92979502D01*
X156693187Y-92973608D01*
X156629539Y-92956554D01*
X156565892Y-92939500D01*
X156434108Y-92939500D01*
X156306812Y-92973608D01*
X156192686Y-93039500D01*
X156192683Y-93039502D01*
X156099502Y-93132683D01*
X156099500Y-93132686D01*
X156033608Y-93246812D01*
X155999500Y-93374108D01*
X154000500Y-93374108D01*
X153966392Y-93246814D01*
X153900500Y-93132686D01*
X153807314Y-93039500D01*
X153750250Y-93006554D01*
X153693187Y-92973608D01*
X153629539Y-92956554D01*
X153565892Y-92939500D01*
X153434108Y-92939500D01*
X153306812Y-92973608D01*
X153192686Y-93039500D01*
X153192683Y-93039502D01*
X153099502Y-93132683D01*
X153099500Y-93132686D01*
X153033608Y-93246812D01*
X152999500Y-93374108D01*
X150000500Y-93374108D01*
X149966392Y-93246814D01*
X149900500Y-93132686D01*
X149807314Y-93039500D01*
X149750250Y-93006554D01*
X149693187Y-92973608D01*
X149629539Y-92956554D01*
X149565892Y-92939500D01*
X149434108Y-92939500D01*
X149306812Y-92973608D01*
X149192686Y-93039500D01*
X149192683Y-93039502D01*
X149099502Y-93132683D01*
X149099500Y-93132686D01*
X149033608Y-93246812D01*
X148999500Y-93374108D01*
X145300500Y-93374108D01*
X145300500Y-93314108D01*
X145266392Y-93186814D01*
X145200500Y-93072686D01*
X145107314Y-92979500D01*
X145038032Y-92939500D01*
X145028693Y-92934108D01*
X159499500Y-92934108D01*
X159499500Y-93065892D01*
X159516554Y-93129539D01*
X159533608Y-93193187D01*
X159564569Y-93246812D01*
X159599500Y-93307314D01*
X159692686Y-93400500D01*
X159806814Y-93466392D01*
X159934108Y-93500500D01*
X159934110Y-93500500D01*
X160065890Y-93500500D01*
X160065892Y-93500500D01*
X160193186Y-93466392D01*
X160307314Y-93400500D01*
X160400500Y-93307314D01*
X160466392Y-93193186D01*
X160500500Y-93065892D01*
X160500500Y-92934108D01*
X163769500Y-92934108D01*
X163769500Y-93065892D01*
X163786554Y-93129539D01*
X163803608Y-93193187D01*
X163834569Y-93246812D01*
X163869500Y-93307314D01*
X163962686Y-93400500D01*
X164076814Y-93466392D01*
X164204108Y-93500500D01*
X164204110Y-93500500D01*
X164335890Y-93500500D01*
X164335892Y-93500500D01*
X164463186Y-93466392D01*
X164577314Y-93400500D01*
X164670500Y-93307314D01*
X164736392Y-93193186D01*
X164770500Y-93065892D01*
X164770500Y-92934108D01*
X164736392Y-92806814D01*
X164670500Y-92692686D01*
X164577314Y-92599500D01*
X164520250Y-92566554D01*
X164463187Y-92533608D01*
X164399539Y-92516554D01*
X164335892Y-92499500D01*
X164204108Y-92499500D01*
X164076812Y-92533608D01*
X163962686Y-92599500D01*
X163962683Y-92599502D01*
X163869502Y-92692683D01*
X163869500Y-92692686D01*
X163803608Y-92806812D01*
X163784132Y-92879500D01*
X163769500Y-92934108D01*
X160500500Y-92934108D01*
X160466392Y-92806814D01*
X160400500Y-92692686D01*
X160307314Y-92599500D01*
X160250250Y-92566554D01*
X160193187Y-92533608D01*
X160129539Y-92516554D01*
X160065892Y-92499500D01*
X159934108Y-92499500D01*
X159806812Y-92533608D01*
X159692686Y-92599500D01*
X159692683Y-92599502D01*
X159599502Y-92692683D01*
X159599500Y-92692686D01*
X159533608Y-92806812D01*
X159514132Y-92879500D01*
X159499500Y-92934108D01*
X145028693Y-92934108D01*
X144993187Y-92913608D01*
X144929539Y-92896554D01*
X144865892Y-92879500D01*
X144734108Y-92879500D01*
X144606812Y-92913608D01*
X144492686Y-92979500D01*
X144492683Y-92979502D01*
X144399502Y-93072683D01*
X144399500Y-93072686D01*
X144333608Y-93186812D01*
X144299500Y-93314108D01*
X133750500Y-93314108D01*
X133750500Y-91284108D01*
X141499500Y-91284108D01*
X141499500Y-91415892D01*
X141506813Y-91443186D01*
X141533608Y-91543187D01*
X141541766Y-91557316D01*
X141599500Y-91657314D01*
X141692686Y-91750500D01*
X141791521Y-91807563D01*
X141805944Y-91815890D01*
X141806814Y-91816392D01*
X141934108Y-91850500D01*
X141934110Y-91850500D01*
X142065890Y-91850500D01*
X142065892Y-91850500D01*
X142193186Y-91816392D01*
X142307314Y-91750500D01*
X142373706Y-91684108D01*
X151999500Y-91684108D01*
X151999500Y-91815892D01*
X152007208Y-91844658D01*
X152033608Y-91943187D01*
X152042614Y-91958785D01*
X152099500Y-92057314D01*
X152192686Y-92150500D01*
X152306814Y-92216392D01*
X152434108Y-92250500D01*
X152434110Y-92250500D01*
X152565890Y-92250500D01*
X152565892Y-92250500D01*
X152693186Y-92216392D01*
X152807314Y-92150500D01*
X152900500Y-92057314D01*
X152966392Y-91943186D01*
X153000500Y-91815892D01*
X153000500Y-91684108D01*
X152974099Y-91585579D01*
X157499501Y-91585579D01*
X157499501Y-91717362D01*
X157533609Y-91844658D01*
X157556151Y-91883701D01*
X157599501Y-91958785D01*
X157692687Y-92051971D01*
X157806815Y-92117863D01*
X157934109Y-92151971D01*
X157934111Y-92151971D01*
X158065891Y-92151971D01*
X158065893Y-92151971D01*
X158193187Y-92117863D01*
X158307315Y-92051971D01*
X158400501Y-91958785D01*
X158402354Y-91955574D01*
X158404625Y-91953408D01*
X158405449Y-91952336D01*
X158405616Y-91952464D01*
X158452919Y-91907359D01*
X158521525Y-91894134D01*
X158571743Y-91910187D01*
X158639990Y-91949590D01*
X158639991Y-91949590D01*
X158639996Y-91949593D01*
X158767290Y-91983701D01*
X158767292Y-91983701D01*
X158899072Y-91983701D01*
X158899074Y-91983701D01*
X159026368Y-91949593D01*
X159140496Y-91883701D01*
X159233682Y-91790515D01*
X159299574Y-91676387D01*
X159333682Y-91549093D01*
X159333682Y-91417309D01*
X159304145Y-91307074D01*
X159304145Y-91307072D01*
X159299574Y-91290016D01*
X159299574Y-91290015D01*
X159295586Y-91283108D01*
X161239578Y-91283108D01*
X161239578Y-91414892D01*
X161251205Y-91458285D01*
X161273686Y-91542187D01*
X161282420Y-91557314D01*
X161339578Y-91656314D01*
X161432764Y-91749500D01*
X161546892Y-91815392D01*
X161674186Y-91849500D01*
X161674188Y-91849500D01*
X161805968Y-91849500D01*
X161805970Y-91849500D01*
X161933264Y-91815392D01*
X162047392Y-91749500D01*
X162140578Y-91656314D01*
X162206470Y-91542186D01*
X162240578Y-91414892D01*
X162240578Y-91283108D01*
X162214051Y-91184108D01*
X163749500Y-91184108D01*
X163749500Y-91315891D01*
X163783608Y-91443187D01*
X163792324Y-91458283D01*
X163849500Y-91557314D01*
X163942686Y-91650500D01*
X164056814Y-91716392D01*
X164184108Y-91750500D01*
X164184110Y-91750500D01*
X164315890Y-91750500D01*
X164315892Y-91750500D01*
X164443186Y-91716392D01*
X164557314Y-91650500D01*
X164650500Y-91557314D01*
X164716392Y-91443186D01*
X164750500Y-91315892D01*
X164750500Y-91184108D01*
X164716392Y-91056814D01*
X164650500Y-90942686D01*
X164557314Y-90849500D01*
X164500250Y-90816554D01*
X164443187Y-90783608D01*
X164379539Y-90766554D01*
X164315892Y-90749500D01*
X164184108Y-90749500D01*
X164056812Y-90783608D01*
X163942686Y-90849500D01*
X163942683Y-90849502D01*
X163849502Y-90942683D01*
X163849500Y-90942686D01*
X163783608Y-91056812D01*
X163749500Y-91184108D01*
X162214051Y-91184108D01*
X162206470Y-91155814D01*
X162140578Y-91041686D01*
X162047392Y-90948500D01*
X161990328Y-90915554D01*
X161933265Y-90882608D01*
X161869617Y-90865554D01*
X161805970Y-90848500D01*
X161674186Y-90848500D01*
X161546890Y-90882608D01*
X161432764Y-90948500D01*
X161432761Y-90948502D01*
X161339580Y-91041683D01*
X161339578Y-91041686D01*
X161273686Y-91155812D01*
X161259683Y-91208074D01*
X161239578Y-91283108D01*
X159295586Y-91283108D01*
X159277032Y-91250971D01*
X159233682Y-91175887D01*
X159140496Y-91082701D01*
X159069451Y-91041683D01*
X159026369Y-91016809D01*
X158962721Y-90999755D01*
X158899074Y-90982701D01*
X158767290Y-90982701D01*
X158639994Y-91016809D01*
X158525868Y-91082701D01*
X158525865Y-91082703D01*
X158432684Y-91175884D01*
X158432677Y-91175893D01*
X158430822Y-91179107D01*
X158428548Y-91181273D01*
X158427734Y-91182336D01*
X158427568Y-91182208D01*
X158380251Y-91227318D01*
X158311643Y-91240536D01*
X158261441Y-91224485D01*
X158226982Y-91204590D01*
X158193188Y-91185079D01*
X158129540Y-91168025D01*
X158065893Y-91150971D01*
X157934109Y-91150971D01*
X157806813Y-91185079D01*
X157692687Y-91250971D01*
X157692684Y-91250973D01*
X157599503Y-91344154D01*
X157599501Y-91344157D01*
X157533609Y-91458283D01*
X157499501Y-91585579D01*
X152974099Y-91585579D01*
X152966392Y-91556814D01*
X152900500Y-91442686D01*
X152807314Y-91349500D01*
X152732192Y-91306128D01*
X152693187Y-91283608D01*
X152629539Y-91266554D01*
X152565892Y-91249500D01*
X152434108Y-91249500D01*
X152306812Y-91283608D01*
X152192686Y-91349500D01*
X152192683Y-91349502D01*
X152099502Y-91442683D01*
X152099500Y-91442686D01*
X152033608Y-91556812D01*
X152006947Y-91656314D01*
X151999500Y-91684108D01*
X142373706Y-91684108D01*
X142400500Y-91657314D01*
X142413023Y-91635622D01*
X142425520Y-91613980D01*
X142458525Y-91556812D01*
X142466392Y-91543186D01*
X142500500Y-91415892D01*
X142500500Y-91284108D01*
X142466392Y-91156814D01*
X142465813Y-91155812D01*
X142457563Y-91141521D01*
X142400500Y-91042686D01*
X142307314Y-90949500D01*
X142250250Y-90916554D01*
X142193187Y-90883608D01*
X142129539Y-90866554D01*
X142065892Y-90849500D01*
X141934108Y-90849500D01*
X141806812Y-90883608D01*
X141692686Y-90949500D01*
X141692683Y-90949502D01*
X141599502Y-91042683D01*
X141599500Y-91042686D01*
X141533608Y-91156812D01*
X141511175Y-91240536D01*
X141499500Y-91284108D01*
X133750500Y-91284108D01*
X133750500Y-89635108D01*
X150199972Y-89635108D01*
X150199972Y-89766892D01*
X150210669Y-89806814D01*
X150234080Y-89894187D01*
X150257129Y-89934108D01*
X150299972Y-90008314D01*
X150393158Y-90101500D01*
X150507286Y-90167392D01*
X150634580Y-90201500D01*
X150634582Y-90201500D01*
X150766362Y-90201500D01*
X150766364Y-90201500D01*
X150893658Y-90167392D01*
X151007786Y-90101500D01*
X151100972Y-90008314D01*
X151166864Y-89894186D01*
X151200972Y-89766892D01*
X151200972Y-89635108D01*
X154499500Y-89635108D01*
X154499500Y-89766892D01*
X154510197Y-89806814D01*
X154533608Y-89894187D01*
X154556657Y-89934108D01*
X154599500Y-90008314D01*
X154692686Y-90101500D01*
X154806814Y-90167392D01*
X154934108Y-90201500D01*
X154934110Y-90201500D01*
X155065890Y-90201500D01*
X155065892Y-90201500D01*
X155193186Y-90167392D01*
X155307314Y-90101500D01*
X155400500Y-90008314D01*
X155443343Y-89934108D01*
X159499500Y-89934108D01*
X159499500Y-90065891D01*
X159533608Y-90193187D01*
X159538408Y-90201500D01*
X159599500Y-90307314D01*
X159692686Y-90400500D01*
X159806814Y-90466392D01*
X159934108Y-90500500D01*
X159934110Y-90500500D01*
X160065890Y-90500500D01*
X160065892Y-90500500D01*
X160193186Y-90466392D01*
X160307314Y-90400500D01*
X160400500Y-90307314D01*
X160466392Y-90193186D01*
X160500500Y-90065892D01*
X160500500Y-89934108D01*
X162499500Y-89934108D01*
X162499500Y-90065891D01*
X162533608Y-90193187D01*
X162538408Y-90201500D01*
X162599500Y-90307314D01*
X162692686Y-90400500D01*
X162806814Y-90466392D01*
X162934108Y-90500500D01*
X162934110Y-90500500D01*
X163065890Y-90500500D01*
X163065892Y-90500500D01*
X163193186Y-90466392D01*
X163307314Y-90400500D01*
X163400500Y-90307314D01*
X163466392Y-90193186D01*
X163500500Y-90065892D01*
X163500500Y-89934108D01*
X163466392Y-89806814D01*
X163400500Y-89692686D01*
X163307314Y-89599500D01*
X163250250Y-89566554D01*
X163193187Y-89533608D01*
X163129539Y-89516554D01*
X163065892Y-89499500D01*
X162934108Y-89499500D01*
X162806812Y-89533608D01*
X162692686Y-89599500D01*
X162692683Y-89599502D01*
X162599502Y-89692683D01*
X162599500Y-89692686D01*
X162533608Y-89806812D01*
X162499500Y-89934108D01*
X160500500Y-89934108D01*
X160466392Y-89806814D01*
X160400500Y-89692686D01*
X160307314Y-89599500D01*
X160250250Y-89566554D01*
X160193187Y-89533608D01*
X160129539Y-89516554D01*
X160065892Y-89499500D01*
X159934108Y-89499500D01*
X159806812Y-89533608D01*
X159692686Y-89599500D01*
X159692683Y-89599502D01*
X159599502Y-89692683D01*
X159599500Y-89692686D01*
X159533608Y-89806812D01*
X159499500Y-89934108D01*
X155443343Y-89934108D01*
X155466392Y-89894186D01*
X155500500Y-89766892D01*
X155500500Y-89635108D01*
X155466392Y-89507814D01*
X155400500Y-89393686D01*
X155307314Y-89300500D01*
X155250250Y-89267554D01*
X155193187Y-89234608D01*
X155129539Y-89217554D01*
X155065892Y-89200500D01*
X154934108Y-89200500D01*
X154806812Y-89234608D01*
X154692686Y-89300500D01*
X154692683Y-89300502D01*
X154599502Y-89393683D01*
X154599500Y-89393686D01*
X154533608Y-89507812D01*
X154499500Y-89635108D01*
X151200972Y-89635108D01*
X151166864Y-89507814D01*
X151100972Y-89393686D01*
X151007786Y-89300500D01*
X150950722Y-89267554D01*
X150893659Y-89234608D01*
X150830011Y-89217554D01*
X150766364Y-89200500D01*
X150634580Y-89200500D01*
X150507284Y-89234608D01*
X150393158Y-89300500D01*
X150393155Y-89300502D01*
X150299974Y-89393683D01*
X150299972Y-89393686D01*
X150234080Y-89507812D01*
X150199972Y-89635108D01*
X133750500Y-89635108D01*
X133750500Y-88874500D01*
X133770185Y-88807461D01*
X133822989Y-88761706D01*
X133874500Y-88750500D01*
X172125500Y-88750500D01*
X172192539Y-88770185D01*
G37*
%TD.AperFunction*%
%TD*%
M02*
