M48
; DRILL file {KiCad 9.0.6} date 2025-12-27T02:42:09+0100
; FORMAT={-:-/ absolute / metric / decimal}
; #@! TF.CreationDate,2025-12-27T02:42:09+01:00
; #@! TF.GenerationSoftware,Kicad,Pcbnew,9.0.6
; #@! TF.FileFunction,Plated,1,4,PTH
FMAT,2
METRIC
; #@! TA.AperFunction,Plated,PTH,ViaDrill
T1C0.300
; #@! TA.AperFunction,Plated,PTH,ComponentDrill
T2C0.600
; #@! TA.AperFunction,Plated,PTH,ComponentDrill
T3C0.700
; #@! TA.AperFunction,Plated,PTH,ViaDrill
T4C4.200
%
G90
G05
T1
X135.65Y-117.0
X135.75Y-100.15
X135.75Y-114.5
X136.088Y-106.75
X136.088Y-109.75
X137.0Y-95.9
X137.0Y-99.4
X138.0Y-106.75
X138.0Y-109.75
X138.5Y-108.25
X138.999Y-117.082
X139.25Y-97.0
X139.25Y-101.0
X139.5Y-98.75
X139.55Y-114.25
X139.963Y-104.8
X139.963Y-105.6
X139.963Y-110.4
X139.963Y-111.2
X140.016Y-119.984
X140.288Y-117.206
X140.5Y-121.5
X140.98Y-114.28
X141.2Y-126.44
X141.5Y-89.5
X142.0Y-91.35
X142.3Y-116.5
X142.362Y-96.75
X142.5Y-115.5
X142.5Y-118.5
X142.5Y-120.5
X142.5Y-122.56
X142.9Y-111.2
X143.25Y-107.75
X143.5Y-122.56
X143.8Y-93.38
X144.0Y-118.5
X144.0Y-120.5
X144.2Y-109.6
X144.5Y-116.5
X144.5Y-122.56
X144.716Y-113.54
X144.8Y-93.38
X145.8Y-126.44
X146.1Y-89.5
X146.5Y-98.83
X148.2Y-89.56
X148.2Y-126.44
X148.87Y-113.27
X148.87Y-113.27
X148.91Y-100.5
X149.5Y-93.44
X149.5Y-122.75
X150.5Y-122.56
X150.596Y-98.446
X150.7Y-89.701
X151.0Y-103.75
X151.233Y-99.933
X151.5Y-122.56
X151.833Y-99.333
X152.0Y-107.599
X152.451Y-100.049
X152.5Y-91.75
X152.5Y-121.0
X152.5Y-122.56
X153.0Y-110.99
X153.25Y-112.29
X153.25Y-113.09
X153.5Y-93.44
X153.5Y-122.56
X153.75Y-111.64
X153.75Y-116.75
X153.902Y-97.6
X154.298Y-102.244
X154.4Y-107.75
X154.476Y-104.764
X154.75Y-94.75
X155.0Y-89.701
X155.399Y-113.351
X155.5Y-93.44
X155.6Y-109.516
X155.7Y-118.68
X155.75Y-95.75
X155.75Y-122.5
X155.8Y-126.44
X156.218Y-90.494
X156.25Y-104.8
X156.274Y-106.818
X156.4Y-102.7
X156.451Y-97.951
X156.5Y-93.44
X156.5Y-110.39
X156.501Y-107.585
X156.75Y-100.6
X157.25Y-97.85
X157.3Y-119.82
X158.0Y-91.651
X158.2Y-126.5
X158.5Y-110.251
X158.5Y-119.0
X158.5Y-102.25
X158.5Y-103.797
X158.544Y-104.596
X158.6Y-107.082
X158.8Y-105.5
X158.833Y-91.483
X158.9Y-95.5
X159.0Y-94.15
X159.024Y-116.976
X159.25Y-108.65
X159.5Y-122.62
X159.583Y-99.476
X159.85Y-109.959
X159.85Y-112.49
X159.85Y-121.0
X159.941Y-98.122
X159.99Y-120.201
X160.0Y-90.0
X160.0Y-93.0
X160.0Y-96.0
X160.5Y-103.5
X160.681Y-98.539
X160.75Y-101.1
X160.886Y-100.312
X161.12Y-112.49
X161.451Y-102.549
X161.5Y-93.0
X161.5Y-96.0
X161.5Y-122.62
X161.74Y-91.349
X161.75Y-115.25
X162.25Y-106.75
X162.35Y-103.15
X162.38Y-112.49
X162.38Y-118.26
X162.5Y-108.4
X162.5Y-122.62
X162.75Y-124.5
X163.0Y-90.0
X163.0Y-93.0
X163.5Y-122.62
X163.66Y-112.24
X163.66Y-118.26
X164.25Y-91.25
X164.27Y-93.0
X164.5Y-96.0
X164.8Y-126.5
X164.9Y-109.85
X165.032Y-97.468
X165.6Y-96.5
X166.25Y-113.0
X167.5Y-107.75
X167.5Y-108.75
X167.56Y-97.0
X167.56Y-99.0
X167.56Y-100.0
X167.56Y-101.0
X167.56Y-117.0
X167.56Y-118.0
X167.56Y-119.0
X167.62Y-105.8
X167.62Y-106.8
X167.62Y-109.8
X167.62Y-110.8
X168.25Y-95.75
X168.801Y-96.35
X169.825Y-104.175
X170.0Y-103.0
X170.0Y-109.0
X170.239Y-101.25
X171.204Y-109.544
X171.44Y-95.7
X171.44Y-102.3
X171.44Y-114.7
X171.44Y-120.3
X171.5Y-104.5
X171.5Y-108.25
X171.5Y-112.1
T3
X138.882Y-105.11
X138.882Y-110.89
T4
X137.75Y-92.75
X137.75Y-123.25
X168.25Y-92.75
X168.25Y-123.25
T2
G00X135.502Y-103.68
M15
G01X134.903Y-103.68
M16
G05
G00X135.502Y-112.32
M15
G01X134.903Y-112.32
M16
G05
G00X139.862Y-103.68
M15
G01X138.963Y-103.68
M16
G05
G00X139.863Y-112.32
M15
G01X138.962Y-112.32
M16
G05
M30
