%TF.GenerationSoftware,KiCad,Pcbnew,9.0.6*%
%TF.CreationDate,2025-12-27T02:42:01+01:00*%
%TF.ProjectId,hardware,68617264-7761-4726-952e-6b696361645f,rev?*%
%TF.SameCoordinates,Original*%
%TF.FileFunction,Legend,Bot*%
%TF.FilePolarity,Positive*%
%FSLAX46Y46*%
G04 Gerber Fmt 4.6, Leading zero omitted, Abs format (unit mm)*
G04 Created by KiCad (PCBNEW 9.0.6) date 2025-12-27 02:42:01*
%MOMM*%
%LPD*%
G01*
G04 APERTURE LIST*
%ADD10C,0.150000*%
%ADD11C,0.120000*%
%ADD12C,0.200000*%
%ADD13C,0.250000*%
%ADD14C,0.300000*%
%ADD15C,0.190000*%
G04 APERTURE END LIST*
D10*
X159359580Y-116107142D02*
X159407200Y-116059523D01*
X159407200Y-116059523D02*
X159454819Y-115916666D01*
X159454819Y-115916666D02*
X159454819Y-115821428D01*
X159454819Y-115821428D02*
X159407200Y-115678571D01*
X159407200Y-115678571D02*
X159311961Y-115583333D01*
X159311961Y-115583333D02*
X159216723Y-115535714D01*
X159216723Y-115535714D02*
X159026247Y-115488095D01*
X159026247Y-115488095D02*
X158883390Y-115488095D01*
X158883390Y-115488095D02*
X158692914Y-115535714D01*
X158692914Y-115535714D02*
X158597676Y-115583333D01*
X158597676Y-115583333D02*
X158502438Y-115678571D01*
X158502438Y-115678571D02*
X158454819Y-115821428D01*
X158454819Y-115821428D02*
X158454819Y-115916666D01*
X158454819Y-115916666D02*
X158502438Y-116059523D01*
X158502438Y-116059523D02*
X158550057Y-116107142D01*
X159454819Y-117059523D02*
X159454819Y-116488095D01*
X159454819Y-116773809D02*
X158454819Y-116773809D01*
X158454819Y-116773809D02*
X158597676Y-116678571D01*
X158597676Y-116678571D02*
X158692914Y-116583333D01*
X158692914Y-116583333D02*
X158740533Y-116488095D01*
X158454819Y-117678571D02*
X158454819Y-117773809D01*
X158454819Y-117773809D02*
X158502438Y-117869047D01*
X158502438Y-117869047D02*
X158550057Y-117916666D01*
X158550057Y-117916666D02*
X158645295Y-117964285D01*
X158645295Y-117964285D02*
X158835771Y-118011904D01*
X158835771Y-118011904D02*
X159073866Y-118011904D01*
X159073866Y-118011904D02*
X159264342Y-117964285D01*
X159264342Y-117964285D02*
X159359580Y-117916666D01*
X159359580Y-117916666D02*
X159407200Y-117869047D01*
X159407200Y-117869047D02*
X159454819Y-117773809D01*
X159454819Y-117773809D02*
X159454819Y-117678571D01*
X159454819Y-117678571D02*
X159407200Y-117583333D01*
X159407200Y-117583333D02*
X159359580Y-117535714D01*
X159359580Y-117535714D02*
X159264342Y-117488095D01*
X159264342Y-117488095D02*
X159073866Y-117440476D01*
X159073866Y-117440476D02*
X158835771Y-117440476D01*
X158835771Y-117440476D02*
X158645295Y-117488095D01*
X158645295Y-117488095D02*
X158550057Y-117535714D01*
X158550057Y-117535714D02*
X158502438Y-117583333D01*
X158502438Y-117583333D02*
X158454819Y-117678571D01*
X157152857Y-88954819D02*
X157486190Y-88478628D01*
X157724285Y-88954819D02*
X157724285Y-87954819D01*
X157724285Y-87954819D02*
X157343333Y-87954819D01*
X157343333Y-87954819D02*
X157248095Y-88002438D01*
X157248095Y-88002438D02*
X157200476Y-88050057D01*
X157200476Y-88050057D02*
X157152857Y-88145295D01*
X157152857Y-88145295D02*
X157152857Y-88288152D01*
X157152857Y-88288152D02*
X157200476Y-88383390D01*
X157200476Y-88383390D02*
X157248095Y-88431009D01*
X157248095Y-88431009D02*
X157343333Y-88478628D01*
X157343333Y-88478628D02*
X157724285Y-88478628D01*
X156200476Y-88954819D02*
X156771904Y-88954819D01*
X156486190Y-88954819D02*
X156486190Y-87954819D01*
X156486190Y-87954819D02*
X156581428Y-88097676D01*
X156581428Y-88097676D02*
X156676666Y-88192914D01*
X156676666Y-88192914D02*
X156771904Y-88240533D01*
X155295714Y-87954819D02*
X155771904Y-87954819D01*
X155771904Y-87954819D02*
X155819523Y-88431009D01*
X155819523Y-88431009D02*
X155771904Y-88383390D01*
X155771904Y-88383390D02*
X155676666Y-88335771D01*
X155676666Y-88335771D02*
X155438571Y-88335771D01*
X155438571Y-88335771D02*
X155343333Y-88383390D01*
X155343333Y-88383390D02*
X155295714Y-88431009D01*
X155295714Y-88431009D02*
X155248095Y-88526247D01*
X155248095Y-88526247D02*
X155248095Y-88764342D01*
X155248095Y-88764342D02*
X155295714Y-88859580D01*
X155295714Y-88859580D02*
X155343333Y-88907200D01*
X155343333Y-88907200D02*
X155438571Y-88954819D01*
X155438571Y-88954819D02*
X155676666Y-88954819D01*
X155676666Y-88954819D02*
X155771904Y-88907200D01*
X155771904Y-88907200D02*
X155819523Y-88859580D01*
X169261904Y-116924819D02*
X169261904Y-117734342D01*
X169261904Y-117734342D02*
X169214285Y-117829580D01*
X169214285Y-117829580D02*
X169166666Y-117877200D01*
X169166666Y-117877200D02*
X169071428Y-117924819D01*
X169071428Y-117924819D02*
X168880952Y-117924819D01*
X168880952Y-117924819D02*
X168785714Y-117877200D01*
X168785714Y-117877200D02*
X168738095Y-117829580D01*
X168738095Y-117829580D02*
X168690476Y-117734342D01*
X168690476Y-117734342D02*
X168690476Y-116924819D01*
X167690476Y-117924819D02*
X168261904Y-117924819D01*
X167976190Y-117924819D02*
X167976190Y-116924819D01*
X167976190Y-116924819D02*
X168071428Y-117067676D01*
X168071428Y-117067676D02*
X168166666Y-117162914D01*
X168166666Y-117162914D02*
X168261904Y-117210533D01*
X167142857Y-116454819D02*
X167476190Y-115978628D01*
X167714285Y-116454819D02*
X167714285Y-115454819D01*
X167714285Y-115454819D02*
X167333333Y-115454819D01*
X167333333Y-115454819D02*
X167238095Y-115502438D01*
X167238095Y-115502438D02*
X167190476Y-115550057D01*
X167190476Y-115550057D02*
X167142857Y-115645295D01*
X167142857Y-115645295D02*
X167142857Y-115788152D01*
X167142857Y-115788152D02*
X167190476Y-115883390D01*
X167190476Y-115883390D02*
X167238095Y-115931009D01*
X167238095Y-115931009D02*
X167333333Y-115978628D01*
X167333333Y-115978628D02*
X167714285Y-115978628D01*
X166190476Y-116454819D02*
X166761904Y-116454819D01*
X166476190Y-116454819D02*
X166476190Y-115454819D01*
X166476190Y-115454819D02*
X166571428Y-115597676D01*
X166571428Y-115597676D02*
X166666666Y-115692914D01*
X166666666Y-115692914D02*
X166761904Y-115740533D01*
X165714285Y-116454819D02*
X165523809Y-116454819D01*
X165523809Y-116454819D02*
X165428571Y-116407200D01*
X165428571Y-116407200D02*
X165380952Y-116359580D01*
X165380952Y-116359580D02*
X165285714Y-116216723D01*
X165285714Y-116216723D02*
X165238095Y-116026247D01*
X165238095Y-116026247D02*
X165238095Y-115645295D01*
X165238095Y-115645295D02*
X165285714Y-115550057D01*
X165285714Y-115550057D02*
X165333333Y-115502438D01*
X165333333Y-115502438D02*
X165428571Y-115454819D01*
X165428571Y-115454819D02*
X165619047Y-115454819D01*
X165619047Y-115454819D02*
X165714285Y-115502438D01*
X165714285Y-115502438D02*
X165761904Y-115550057D01*
X165761904Y-115550057D02*
X165809523Y-115645295D01*
X165809523Y-115645295D02*
X165809523Y-115883390D01*
X165809523Y-115883390D02*
X165761904Y-115978628D01*
X165761904Y-115978628D02*
X165714285Y-116026247D01*
X165714285Y-116026247D02*
X165619047Y-116073866D01*
X165619047Y-116073866D02*
X165428571Y-116073866D01*
X165428571Y-116073866D02*
X165333333Y-116026247D01*
X165333333Y-116026247D02*
X165285714Y-115978628D01*
X165285714Y-115978628D02*
X165238095Y-115883390D01*
X153759580Y-90057142D02*
X153807200Y-90009523D01*
X153807200Y-90009523D02*
X153854819Y-89866666D01*
X153854819Y-89866666D02*
X153854819Y-89771428D01*
X153854819Y-89771428D02*
X153807200Y-89628571D01*
X153807200Y-89628571D02*
X153711961Y-89533333D01*
X153711961Y-89533333D02*
X153616723Y-89485714D01*
X153616723Y-89485714D02*
X153426247Y-89438095D01*
X153426247Y-89438095D02*
X153283390Y-89438095D01*
X153283390Y-89438095D02*
X153092914Y-89485714D01*
X153092914Y-89485714D02*
X152997676Y-89533333D01*
X152997676Y-89533333D02*
X152902438Y-89628571D01*
X152902438Y-89628571D02*
X152854819Y-89771428D01*
X152854819Y-89771428D02*
X152854819Y-89866666D01*
X152854819Y-89866666D02*
X152902438Y-90009523D01*
X152902438Y-90009523D02*
X152950057Y-90057142D01*
X152950057Y-90438095D02*
X152902438Y-90485714D01*
X152902438Y-90485714D02*
X152854819Y-90580952D01*
X152854819Y-90580952D02*
X152854819Y-90819047D01*
X152854819Y-90819047D02*
X152902438Y-90914285D01*
X152902438Y-90914285D02*
X152950057Y-90961904D01*
X152950057Y-90961904D02*
X153045295Y-91009523D01*
X153045295Y-91009523D02*
X153140533Y-91009523D01*
X153140533Y-91009523D02*
X153283390Y-90961904D01*
X153283390Y-90961904D02*
X153854819Y-90390476D01*
X153854819Y-90390476D02*
X153854819Y-91009523D01*
X153854819Y-91961904D02*
X153854819Y-91390476D01*
X153854819Y-91676190D02*
X152854819Y-91676190D01*
X152854819Y-91676190D02*
X152997676Y-91580952D01*
X152997676Y-91580952D02*
X153092914Y-91485714D01*
X153092914Y-91485714D02*
X153140533Y-91390476D01*
X175109580Y-109130952D02*
X175157200Y-109083333D01*
X175157200Y-109083333D02*
X175204819Y-108940476D01*
X175204819Y-108940476D02*
X175204819Y-108845238D01*
X175204819Y-108845238D02*
X175157200Y-108702381D01*
X175157200Y-108702381D02*
X175061961Y-108607143D01*
X175061961Y-108607143D02*
X174966723Y-108559524D01*
X174966723Y-108559524D02*
X174776247Y-108511905D01*
X174776247Y-108511905D02*
X174633390Y-108511905D01*
X174633390Y-108511905D02*
X174442914Y-108559524D01*
X174442914Y-108559524D02*
X174347676Y-108607143D01*
X174347676Y-108607143D02*
X174252438Y-108702381D01*
X174252438Y-108702381D02*
X174204819Y-108845238D01*
X174204819Y-108845238D02*
X174204819Y-108940476D01*
X174204819Y-108940476D02*
X174252438Y-109083333D01*
X174252438Y-109083333D02*
X174300057Y-109130952D01*
X175204819Y-110083333D02*
X175204819Y-109511905D01*
X175204819Y-109797619D02*
X174204819Y-109797619D01*
X174204819Y-109797619D02*
X174347676Y-109702381D01*
X174347676Y-109702381D02*
X174442914Y-109607143D01*
X174442914Y-109607143D02*
X174490533Y-109511905D01*
X174300057Y-110464286D02*
X174252438Y-110511905D01*
X174252438Y-110511905D02*
X174204819Y-110607143D01*
X174204819Y-110607143D02*
X174204819Y-110845238D01*
X174204819Y-110845238D02*
X174252438Y-110940476D01*
X174252438Y-110940476D02*
X174300057Y-110988095D01*
X174300057Y-110988095D02*
X174395295Y-111035714D01*
X174395295Y-111035714D02*
X174490533Y-111035714D01*
X174490533Y-111035714D02*
X174633390Y-110988095D01*
X174633390Y-110988095D02*
X175204819Y-110416667D01*
X175204819Y-110416667D02*
X175204819Y-111035714D01*
X174204819Y-111369048D02*
X174204819Y-112035714D01*
X174204819Y-112035714D02*
X175204819Y-111607143D01*
X150359580Y-119380952D02*
X150407200Y-119333333D01*
X150407200Y-119333333D02*
X150454819Y-119190476D01*
X150454819Y-119190476D02*
X150454819Y-119095238D01*
X150454819Y-119095238D02*
X150407200Y-118952381D01*
X150407200Y-118952381D02*
X150311961Y-118857143D01*
X150311961Y-118857143D02*
X150216723Y-118809524D01*
X150216723Y-118809524D02*
X150026247Y-118761905D01*
X150026247Y-118761905D02*
X149883390Y-118761905D01*
X149883390Y-118761905D02*
X149692914Y-118809524D01*
X149692914Y-118809524D02*
X149597676Y-118857143D01*
X149597676Y-118857143D02*
X149502438Y-118952381D01*
X149502438Y-118952381D02*
X149454819Y-119095238D01*
X149454819Y-119095238D02*
X149454819Y-119190476D01*
X149454819Y-119190476D02*
X149502438Y-119333333D01*
X149502438Y-119333333D02*
X149550057Y-119380952D01*
X150454819Y-120333333D02*
X150454819Y-119761905D01*
X150454819Y-120047619D02*
X149454819Y-120047619D01*
X149454819Y-120047619D02*
X149597676Y-119952381D01*
X149597676Y-119952381D02*
X149692914Y-119857143D01*
X149692914Y-119857143D02*
X149740533Y-119761905D01*
X149454819Y-120666667D02*
X149454819Y-121285714D01*
X149454819Y-121285714D02*
X149835771Y-120952381D01*
X149835771Y-120952381D02*
X149835771Y-121095238D01*
X149835771Y-121095238D02*
X149883390Y-121190476D01*
X149883390Y-121190476D02*
X149931009Y-121238095D01*
X149931009Y-121238095D02*
X150026247Y-121285714D01*
X150026247Y-121285714D02*
X150264342Y-121285714D01*
X150264342Y-121285714D02*
X150359580Y-121238095D01*
X150359580Y-121238095D02*
X150407200Y-121190476D01*
X150407200Y-121190476D02*
X150454819Y-121095238D01*
X150454819Y-121095238D02*
X150454819Y-120809524D01*
X150454819Y-120809524D02*
X150407200Y-120714286D01*
X150407200Y-120714286D02*
X150359580Y-120666667D01*
X149454819Y-121619048D02*
X149454819Y-122238095D01*
X149454819Y-122238095D02*
X149835771Y-121904762D01*
X149835771Y-121904762D02*
X149835771Y-122047619D01*
X149835771Y-122047619D02*
X149883390Y-122142857D01*
X149883390Y-122142857D02*
X149931009Y-122190476D01*
X149931009Y-122190476D02*
X150026247Y-122238095D01*
X150026247Y-122238095D02*
X150264342Y-122238095D01*
X150264342Y-122238095D02*
X150359580Y-122190476D01*
X150359580Y-122190476D02*
X150407200Y-122142857D01*
X150407200Y-122142857D02*
X150454819Y-122047619D01*
X150454819Y-122047619D02*
X150454819Y-121761905D01*
X150454819Y-121761905D02*
X150407200Y-121666667D01*
X150407200Y-121666667D02*
X150359580Y-121619048D01*
X150859580Y-120333333D02*
X150907200Y-120285714D01*
X150907200Y-120285714D02*
X150954819Y-120142857D01*
X150954819Y-120142857D02*
X150954819Y-120047619D01*
X150954819Y-120047619D02*
X150907200Y-119904762D01*
X150907200Y-119904762D02*
X150811961Y-119809524D01*
X150811961Y-119809524D02*
X150716723Y-119761905D01*
X150716723Y-119761905D02*
X150526247Y-119714286D01*
X150526247Y-119714286D02*
X150383390Y-119714286D01*
X150383390Y-119714286D02*
X150192914Y-119761905D01*
X150192914Y-119761905D02*
X150097676Y-119809524D01*
X150097676Y-119809524D02*
X150002438Y-119904762D01*
X150002438Y-119904762D02*
X149954819Y-120047619D01*
X149954819Y-120047619D02*
X149954819Y-120142857D01*
X149954819Y-120142857D02*
X150002438Y-120285714D01*
X150002438Y-120285714D02*
X150050057Y-120333333D01*
X150288152Y-121190476D02*
X150954819Y-121190476D01*
X149907200Y-120952381D02*
X150621485Y-120714286D01*
X150621485Y-120714286D02*
X150621485Y-121333333D01*
X156869047Y-116609580D02*
X156916666Y-116657200D01*
X156916666Y-116657200D02*
X157059523Y-116704819D01*
X157059523Y-116704819D02*
X157154761Y-116704819D01*
X157154761Y-116704819D02*
X157297618Y-116657200D01*
X157297618Y-116657200D02*
X157392856Y-116561961D01*
X157392856Y-116561961D02*
X157440475Y-116466723D01*
X157440475Y-116466723D02*
X157488094Y-116276247D01*
X157488094Y-116276247D02*
X157488094Y-116133390D01*
X157488094Y-116133390D02*
X157440475Y-115942914D01*
X157440475Y-115942914D02*
X157392856Y-115847676D01*
X157392856Y-115847676D02*
X157297618Y-115752438D01*
X157297618Y-115752438D02*
X157154761Y-115704819D01*
X157154761Y-115704819D02*
X157059523Y-115704819D01*
X157059523Y-115704819D02*
X156916666Y-115752438D01*
X156916666Y-115752438D02*
X156869047Y-115800057D01*
X155916666Y-116704819D02*
X156488094Y-116704819D01*
X156202380Y-116704819D02*
X156202380Y-115704819D01*
X156202380Y-115704819D02*
X156297618Y-115847676D01*
X156297618Y-115847676D02*
X156392856Y-115942914D01*
X156392856Y-115942914D02*
X156488094Y-115990533D01*
X155583332Y-115704819D02*
X154964285Y-115704819D01*
X154964285Y-115704819D02*
X155297618Y-116085771D01*
X155297618Y-116085771D02*
X155154761Y-116085771D01*
X155154761Y-116085771D02*
X155059523Y-116133390D01*
X155059523Y-116133390D02*
X155011904Y-116181009D01*
X155011904Y-116181009D02*
X154964285Y-116276247D01*
X154964285Y-116276247D02*
X154964285Y-116514342D01*
X154964285Y-116514342D02*
X155011904Y-116609580D01*
X155011904Y-116609580D02*
X155059523Y-116657200D01*
X155059523Y-116657200D02*
X155154761Y-116704819D01*
X155154761Y-116704819D02*
X155440475Y-116704819D01*
X155440475Y-116704819D02*
X155535713Y-116657200D01*
X155535713Y-116657200D02*
X155583332Y-116609580D01*
X154011904Y-116704819D02*
X154583332Y-116704819D01*
X154297618Y-116704819D02*
X154297618Y-115704819D01*
X154297618Y-115704819D02*
X154392856Y-115847676D01*
X154392856Y-115847676D02*
X154488094Y-115942914D01*
X154488094Y-115942914D02*
X154583332Y-115990533D01*
X156658094Y-125164819D02*
X156658094Y-125974342D01*
X156658094Y-125974342D02*
X156610475Y-126069580D01*
X156610475Y-126069580D02*
X156562856Y-126117200D01*
X156562856Y-126117200D02*
X156467618Y-126164819D01*
X156467618Y-126164819D02*
X156277142Y-126164819D01*
X156277142Y-126164819D02*
X156181904Y-126117200D01*
X156181904Y-126117200D02*
X156134285Y-126069580D01*
X156134285Y-126069580D02*
X156086666Y-125974342D01*
X156086666Y-125974342D02*
X156086666Y-125164819D01*
X155134285Y-125164819D02*
X155610475Y-125164819D01*
X155610475Y-125164819D02*
X155658094Y-125641009D01*
X155658094Y-125641009D02*
X155610475Y-125593390D01*
X155610475Y-125593390D02*
X155515237Y-125545771D01*
X155515237Y-125545771D02*
X155277142Y-125545771D01*
X155277142Y-125545771D02*
X155181904Y-125593390D01*
X155181904Y-125593390D02*
X155134285Y-125641009D01*
X155134285Y-125641009D02*
X155086666Y-125736247D01*
X155086666Y-125736247D02*
X155086666Y-125974342D01*
X155086666Y-125974342D02*
X155134285Y-126069580D01*
X155134285Y-126069580D02*
X155181904Y-126117200D01*
X155181904Y-126117200D02*
X155277142Y-126164819D01*
X155277142Y-126164819D02*
X155515237Y-126164819D01*
X155515237Y-126164819D02*
X155610475Y-126117200D01*
X155610475Y-126117200D02*
X155658094Y-126069580D01*
X154753332Y-125164819D02*
X154134285Y-125164819D01*
X154134285Y-125164819D02*
X154467618Y-125545771D01*
X154467618Y-125545771D02*
X154324761Y-125545771D01*
X154324761Y-125545771D02*
X154229523Y-125593390D01*
X154229523Y-125593390D02*
X154181904Y-125641009D01*
X154181904Y-125641009D02*
X154134285Y-125736247D01*
X154134285Y-125736247D02*
X154134285Y-125974342D01*
X154134285Y-125974342D02*
X154181904Y-126069580D01*
X154181904Y-126069580D02*
X154229523Y-126117200D01*
X154229523Y-126117200D02*
X154324761Y-126164819D01*
X154324761Y-126164819D02*
X154610475Y-126164819D01*
X154610475Y-126164819D02*
X154705713Y-126117200D01*
X154705713Y-126117200D02*
X154753332Y-126069580D01*
X162988094Y-107694819D02*
X162988094Y-108504342D01*
X162988094Y-108504342D02*
X162940475Y-108599580D01*
X162940475Y-108599580D02*
X162892856Y-108647200D01*
X162892856Y-108647200D02*
X162797618Y-108694819D01*
X162797618Y-108694819D02*
X162607142Y-108694819D01*
X162607142Y-108694819D02*
X162511904Y-108647200D01*
X162511904Y-108647200D02*
X162464285Y-108599580D01*
X162464285Y-108599580D02*
X162416666Y-108504342D01*
X162416666Y-108504342D02*
X162416666Y-107694819D01*
X162035713Y-107694819D02*
X161369047Y-107694819D01*
X161369047Y-107694819D02*
X161797618Y-108694819D01*
X161083332Y-107694819D02*
X160464285Y-107694819D01*
X160464285Y-107694819D02*
X160797618Y-108075771D01*
X160797618Y-108075771D02*
X160654761Y-108075771D01*
X160654761Y-108075771D02*
X160559523Y-108123390D01*
X160559523Y-108123390D02*
X160511904Y-108171009D01*
X160511904Y-108171009D02*
X160464285Y-108266247D01*
X160464285Y-108266247D02*
X160464285Y-108504342D01*
X160464285Y-108504342D02*
X160511904Y-108599580D01*
X160511904Y-108599580D02*
X160559523Y-108647200D01*
X160559523Y-108647200D02*
X160654761Y-108694819D01*
X160654761Y-108694819D02*
X160940475Y-108694819D01*
X160940475Y-108694819D02*
X161035713Y-108647200D01*
X161035713Y-108647200D02*
X161083332Y-108599580D01*
X167609580Y-109130952D02*
X167657200Y-109083333D01*
X167657200Y-109083333D02*
X167704819Y-108940476D01*
X167704819Y-108940476D02*
X167704819Y-108845238D01*
X167704819Y-108845238D02*
X167657200Y-108702381D01*
X167657200Y-108702381D02*
X167561961Y-108607143D01*
X167561961Y-108607143D02*
X167466723Y-108559524D01*
X167466723Y-108559524D02*
X167276247Y-108511905D01*
X167276247Y-108511905D02*
X167133390Y-108511905D01*
X167133390Y-108511905D02*
X166942914Y-108559524D01*
X166942914Y-108559524D02*
X166847676Y-108607143D01*
X166847676Y-108607143D02*
X166752438Y-108702381D01*
X166752438Y-108702381D02*
X166704819Y-108845238D01*
X166704819Y-108845238D02*
X166704819Y-108940476D01*
X166704819Y-108940476D02*
X166752438Y-109083333D01*
X166752438Y-109083333D02*
X166800057Y-109130952D01*
X167704819Y-110083333D02*
X167704819Y-109511905D01*
X167704819Y-109797619D02*
X166704819Y-109797619D01*
X166704819Y-109797619D02*
X166847676Y-109702381D01*
X166847676Y-109702381D02*
X166942914Y-109607143D01*
X166942914Y-109607143D02*
X166990533Y-109511905D01*
X166800057Y-110464286D02*
X166752438Y-110511905D01*
X166752438Y-110511905D02*
X166704819Y-110607143D01*
X166704819Y-110607143D02*
X166704819Y-110845238D01*
X166704819Y-110845238D02*
X166752438Y-110940476D01*
X166752438Y-110940476D02*
X166800057Y-110988095D01*
X166800057Y-110988095D02*
X166895295Y-111035714D01*
X166895295Y-111035714D02*
X166990533Y-111035714D01*
X166990533Y-111035714D02*
X167133390Y-110988095D01*
X167133390Y-110988095D02*
X167704819Y-110416667D01*
X167704819Y-110416667D02*
X167704819Y-111035714D01*
X167038152Y-111892857D02*
X167704819Y-111892857D01*
X166657200Y-111654762D02*
X167371485Y-111416667D01*
X167371485Y-111416667D02*
X167371485Y-112035714D01*
X159859580Y-116583333D02*
X159907200Y-116535714D01*
X159907200Y-116535714D02*
X159954819Y-116392857D01*
X159954819Y-116392857D02*
X159954819Y-116297619D01*
X159954819Y-116297619D02*
X159907200Y-116154762D01*
X159907200Y-116154762D02*
X159811961Y-116059524D01*
X159811961Y-116059524D02*
X159716723Y-116011905D01*
X159716723Y-116011905D02*
X159526247Y-115964286D01*
X159526247Y-115964286D02*
X159383390Y-115964286D01*
X159383390Y-115964286D02*
X159192914Y-116011905D01*
X159192914Y-116011905D02*
X159097676Y-116059524D01*
X159097676Y-116059524D02*
X159002438Y-116154762D01*
X159002438Y-116154762D02*
X158954819Y-116297619D01*
X158954819Y-116297619D02*
X158954819Y-116392857D01*
X158954819Y-116392857D02*
X159002438Y-116535714D01*
X159002438Y-116535714D02*
X159050057Y-116583333D01*
X158954819Y-117488095D02*
X158954819Y-117011905D01*
X158954819Y-117011905D02*
X159431009Y-116964286D01*
X159431009Y-116964286D02*
X159383390Y-117011905D01*
X159383390Y-117011905D02*
X159335771Y-117107143D01*
X159335771Y-117107143D02*
X159335771Y-117345238D01*
X159335771Y-117345238D02*
X159383390Y-117440476D01*
X159383390Y-117440476D02*
X159431009Y-117488095D01*
X159431009Y-117488095D02*
X159526247Y-117535714D01*
X159526247Y-117535714D02*
X159764342Y-117535714D01*
X159764342Y-117535714D02*
X159859580Y-117488095D01*
X159859580Y-117488095D02*
X159907200Y-117440476D01*
X159907200Y-117440476D02*
X159954819Y-117345238D01*
X159954819Y-117345238D02*
X159954819Y-117107143D01*
X159954819Y-117107143D02*
X159907200Y-117011905D01*
X159907200Y-117011905D02*
X159859580Y-116964286D01*
X169704819Y-117761905D02*
X168704819Y-117761905D01*
X168704819Y-117761905D02*
X168704819Y-118000000D01*
X168704819Y-118000000D02*
X168752438Y-118142857D01*
X168752438Y-118142857D02*
X168847676Y-118238095D01*
X168847676Y-118238095D02*
X168942914Y-118285714D01*
X168942914Y-118285714D02*
X169133390Y-118333333D01*
X169133390Y-118333333D02*
X169276247Y-118333333D01*
X169276247Y-118333333D02*
X169466723Y-118285714D01*
X169466723Y-118285714D02*
X169561961Y-118238095D01*
X169561961Y-118238095D02*
X169657200Y-118142857D01*
X169657200Y-118142857D02*
X169704819Y-118000000D01*
X169704819Y-118000000D02*
X169704819Y-117761905D01*
X168800057Y-118714286D02*
X168752438Y-118761905D01*
X168752438Y-118761905D02*
X168704819Y-118857143D01*
X168704819Y-118857143D02*
X168704819Y-119095238D01*
X168704819Y-119095238D02*
X168752438Y-119190476D01*
X168752438Y-119190476D02*
X168800057Y-119238095D01*
X168800057Y-119238095D02*
X168895295Y-119285714D01*
X168895295Y-119285714D02*
X168990533Y-119285714D01*
X168990533Y-119285714D02*
X169133390Y-119238095D01*
X169133390Y-119238095D02*
X169704819Y-118666667D01*
X169704819Y-118666667D02*
X169704819Y-119285714D01*
X161392857Y-128609580D02*
X161440476Y-128657200D01*
X161440476Y-128657200D02*
X161583333Y-128704819D01*
X161583333Y-128704819D02*
X161678571Y-128704819D01*
X161678571Y-128704819D02*
X161821428Y-128657200D01*
X161821428Y-128657200D02*
X161916666Y-128561961D01*
X161916666Y-128561961D02*
X161964285Y-128466723D01*
X161964285Y-128466723D02*
X162011904Y-128276247D01*
X162011904Y-128276247D02*
X162011904Y-128133390D01*
X162011904Y-128133390D02*
X161964285Y-127942914D01*
X161964285Y-127942914D02*
X161916666Y-127847676D01*
X161916666Y-127847676D02*
X161821428Y-127752438D01*
X161821428Y-127752438D02*
X161678571Y-127704819D01*
X161678571Y-127704819D02*
X161583333Y-127704819D01*
X161583333Y-127704819D02*
X161440476Y-127752438D01*
X161440476Y-127752438D02*
X161392857Y-127800057D01*
X161011904Y-127800057D02*
X160964285Y-127752438D01*
X160964285Y-127752438D02*
X160869047Y-127704819D01*
X160869047Y-127704819D02*
X160630952Y-127704819D01*
X160630952Y-127704819D02*
X160535714Y-127752438D01*
X160535714Y-127752438D02*
X160488095Y-127800057D01*
X160488095Y-127800057D02*
X160440476Y-127895295D01*
X160440476Y-127895295D02*
X160440476Y-127990533D01*
X160440476Y-127990533D02*
X160488095Y-128133390D01*
X160488095Y-128133390D02*
X161059523Y-128704819D01*
X161059523Y-128704819D02*
X160440476Y-128704819D01*
X159964285Y-128704819D02*
X159773809Y-128704819D01*
X159773809Y-128704819D02*
X159678571Y-128657200D01*
X159678571Y-128657200D02*
X159630952Y-128609580D01*
X159630952Y-128609580D02*
X159535714Y-128466723D01*
X159535714Y-128466723D02*
X159488095Y-128276247D01*
X159488095Y-128276247D02*
X159488095Y-127895295D01*
X159488095Y-127895295D02*
X159535714Y-127800057D01*
X159535714Y-127800057D02*
X159583333Y-127752438D01*
X159583333Y-127752438D02*
X159678571Y-127704819D01*
X159678571Y-127704819D02*
X159869047Y-127704819D01*
X159869047Y-127704819D02*
X159964285Y-127752438D01*
X159964285Y-127752438D02*
X160011904Y-127800057D01*
X160011904Y-127800057D02*
X160059523Y-127895295D01*
X160059523Y-127895295D02*
X160059523Y-128133390D01*
X160059523Y-128133390D02*
X160011904Y-128228628D01*
X160011904Y-128228628D02*
X159964285Y-128276247D01*
X159964285Y-128276247D02*
X159869047Y-128323866D01*
X159869047Y-128323866D02*
X159678571Y-128323866D01*
X159678571Y-128323866D02*
X159583333Y-128276247D01*
X159583333Y-128276247D02*
X159535714Y-128228628D01*
X159535714Y-128228628D02*
X159488095Y-128133390D01*
X157359580Y-119857142D02*
X157407200Y-119809523D01*
X157407200Y-119809523D02*
X157454819Y-119666666D01*
X157454819Y-119666666D02*
X157454819Y-119571428D01*
X157454819Y-119571428D02*
X157407200Y-119428571D01*
X157407200Y-119428571D02*
X157311961Y-119333333D01*
X157311961Y-119333333D02*
X157216723Y-119285714D01*
X157216723Y-119285714D02*
X157026247Y-119238095D01*
X157026247Y-119238095D02*
X156883390Y-119238095D01*
X156883390Y-119238095D02*
X156692914Y-119285714D01*
X156692914Y-119285714D02*
X156597676Y-119333333D01*
X156597676Y-119333333D02*
X156502438Y-119428571D01*
X156502438Y-119428571D02*
X156454819Y-119571428D01*
X156454819Y-119571428D02*
X156454819Y-119666666D01*
X156454819Y-119666666D02*
X156502438Y-119809523D01*
X156502438Y-119809523D02*
X156550057Y-119857142D01*
X157454819Y-120809523D02*
X157454819Y-120238095D01*
X157454819Y-120523809D02*
X156454819Y-120523809D01*
X156454819Y-120523809D02*
X156597676Y-120428571D01*
X156597676Y-120428571D02*
X156692914Y-120333333D01*
X156692914Y-120333333D02*
X156740533Y-120238095D01*
X156788152Y-121666666D02*
X157454819Y-121666666D01*
X156407200Y-121428571D02*
X157121485Y-121190476D01*
X157121485Y-121190476D02*
X157121485Y-121809523D01*
X157152857Y-96204819D02*
X157486190Y-95728628D01*
X157724285Y-96204819D02*
X157724285Y-95204819D01*
X157724285Y-95204819D02*
X157343333Y-95204819D01*
X157343333Y-95204819D02*
X157248095Y-95252438D01*
X157248095Y-95252438D02*
X157200476Y-95300057D01*
X157200476Y-95300057D02*
X157152857Y-95395295D01*
X157152857Y-95395295D02*
X157152857Y-95538152D01*
X157152857Y-95538152D02*
X157200476Y-95633390D01*
X157200476Y-95633390D02*
X157248095Y-95681009D01*
X157248095Y-95681009D02*
X157343333Y-95728628D01*
X157343333Y-95728628D02*
X157724285Y-95728628D01*
X156200476Y-96204819D02*
X156771904Y-96204819D01*
X156486190Y-96204819D02*
X156486190Y-95204819D01*
X156486190Y-95204819D02*
X156581428Y-95347676D01*
X156581428Y-95347676D02*
X156676666Y-95442914D01*
X156676666Y-95442914D02*
X156771904Y-95490533D01*
X155343333Y-95204819D02*
X155533809Y-95204819D01*
X155533809Y-95204819D02*
X155629047Y-95252438D01*
X155629047Y-95252438D02*
X155676666Y-95300057D01*
X155676666Y-95300057D02*
X155771904Y-95442914D01*
X155771904Y-95442914D02*
X155819523Y-95633390D01*
X155819523Y-95633390D02*
X155819523Y-96014342D01*
X155819523Y-96014342D02*
X155771904Y-96109580D01*
X155771904Y-96109580D02*
X155724285Y-96157200D01*
X155724285Y-96157200D02*
X155629047Y-96204819D01*
X155629047Y-96204819D02*
X155438571Y-96204819D01*
X155438571Y-96204819D02*
X155343333Y-96157200D01*
X155343333Y-96157200D02*
X155295714Y-96109580D01*
X155295714Y-96109580D02*
X155248095Y-96014342D01*
X155248095Y-96014342D02*
X155248095Y-95776247D01*
X155248095Y-95776247D02*
X155295714Y-95681009D01*
X155295714Y-95681009D02*
X155343333Y-95633390D01*
X155343333Y-95633390D02*
X155438571Y-95585771D01*
X155438571Y-95585771D02*
X155629047Y-95585771D01*
X155629047Y-95585771D02*
X155724285Y-95633390D01*
X155724285Y-95633390D02*
X155771904Y-95681009D01*
X155771904Y-95681009D02*
X155819523Y-95776247D01*
X157761904Y-126184819D02*
X157761904Y-126994342D01*
X157761904Y-126994342D02*
X157714285Y-127089580D01*
X157714285Y-127089580D02*
X157666666Y-127137200D01*
X157666666Y-127137200D02*
X157571428Y-127184819D01*
X157571428Y-127184819D02*
X157380952Y-127184819D01*
X157380952Y-127184819D02*
X157285714Y-127137200D01*
X157285714Y-127137200D02*
X157238095Y-127089580D01*
X157238095Y-127089580D02*
X157190476Y-126994342D01*
X157190476Y-126994342D02*
X157190476Y-126184819D01*
X156809523Y-126184819D02*
X156190476Y-126184819D01*
X156190476Y-126184819D02*
X156523809Y-126565771D01*
X156523809Y-126565771D02*
X156380952Y-126565771D01*
X156380952Y-126565771D02*
X156285714Y-126613390D01*
X156285714Y-126613390D02*
X156238095Y-126661009D01*
X156238095Y-126661009D02*
X156190476Y-126756247D01*
X156190476Y-126756247D02*
X156190476Y-126994342D01*
X156190476Y-126994342D02*
X156238095Y-127089580D01*
X156238095Y-127089580D02*
X156285714Y-127137200D01*
X156285714Y-127137200D02*
X156380952Y-127184819D01*
X156380952Y-127184819D02*
X156666666Y-127184819D01*
X156666666Y-127184819D02*
X156761904Y-127137200D01*
X156761904Y-127137200D02*
X156809523Y-127089580D01*
X166204819Y-109107142D02*
X165728628Y-108773809D01*
X166204819Y-108535714D02*
X165204819Y-108535714D01*
X165204819Y-108535714D02*
X165204819Y-108916666D01*
X165204819Y-108916666D02*
X165252438Y-109011904D01*
X165252438Y-109011904D02*
X165300057Y-109059523D01*
X165300057Y-109059523D02*
X165395295Y-109107142D01*
X165395295Y-109107142D02*
X165538152Y-109107142D01*
X165538152Y-109107142D02*
X165633390Y-109059523D01*
X165633390Y-109059523D02*
X165681009Y-109011904D01*
X165681009Y-109011904D02*
X165728628Y-108916666D01*
X165728628Y-108916666D02*
X165728628Y-108535714D01*
X165300057Y-109488095D02*
X165252438Y-109535714D01*
X165252438Y-109535714D02*
X165204819Y-109630952D01*
X165204819Y-109630952D02*
X165204819Y-109869047D01*
X165204819Y-109869047D02*
X165252438Y-109964285D01*
X165252438Y-109964285D02*
X165300057Y-110011904D01*
X165300057Y-110011904D02*
X165395295Y-110059523D01*
X165395295Y-110059523D02*
X165490533Y-110059523D01*
X165490533Y-110059523D02*
X165633390Y-110011904D01*
X165633390Y-110011904D02*
X166204819Y-109440476D01*
X166204819Y-109440476D02*
X166204819Y-110059523D01*
X165204819Y-110916666D02*
X165204819Y-110726190D01*
X165204819Y-110726190D02*
X165252438Y-110630952D01*
X165252438Y-110630952D02*
X165300057Y-110583333D01*
X165300057Y-110583333D02*
X165442914Y-110488095D01*
X165442914Y-110488095D02*
X165633390Y-110440476D01*
X165633390Y-110440476D02*
X166014342Y-110440476D01*
X166014342Y-110440476D02*
X166109580Y-110488095D01*
X166109580Y-110488095D02*
X166157200Y-110535714D01*
X166157200Y-110535714D02*
X166204819Y-110630952D01*
X166204819Y-110630952D02*
X166204819Y-110821428D01*
X166204819Y-110821428D02*
X166157200Y-110916666D01*
X166157200Y-110916666D02*
X166109580Y-110964285D01*
X166109580Y-110964285D02*
X166014342Y-111011904D01*
X166014342Y-111011904D02*
X165776247Y-111011904D01*
X165776247Y-111011904D02*
X165681009Y-110964285D01*
X165681009Y-110964285D02*
X165633390Y-110916666D01*
X165633390Y-110916666D02*
X165585771Y-110821428D01*
X165585771Y-110821428D02*
X165585771Y-110630952D01*
X165585771Y-110630952D02*
X165633390Y-110535714D01*
X165633390Y-110535714D02*
X165681009Y-110488095D01*
X165681009Y-110488095D02*
X165776247Y-110440476D01*
X136916666Y-113454819D02*
X137392856Y-113454819D01*
X137392856Y-113454819D02*
X137392856Y-112454819D01*
X136678570Y-112454819D02*
X136059523Y-112454819D01*
X136059523Y-112454819D02*
X136392856Y-112835771D01*
X136392856Y-112835771D02*
X136249999Y-112835771D01*
X136249999Y-112835771D02*
X136154761Y-112883390D01*
X136154761Y-112883390D02*
X136107142Y-112931009D01*
X136107142Y-112931009D02*
X136059523Y-113026247D01*
X136059523Y-113026247D02*
X136059523Y-113264342D01*
X136059523Y-113264342D02*
X136107142Y-113359580D01*
X136107142Y-113359580D02*
X136154761Y-113407200D01*
X136154761Y-113407200D02*
X136249999Y-113454819D01*
X136249999Y-113454819D02*
X136535713Y-113454819D01*
X136535713Y-113454819D02*
X136630951Y-113407200D01*
X136630951Y-113407200D02*
X136678570Y-113359580D01*
X164392857Y-97109580D02*
X164440476Y-97157200D01*
X164440476Y-97157200D02*
X164583333Y-97204819D01*
X164583333Y-97204819D02*
X164678571Y-97204819D01*
X164678571Y-97204819D02*
X164821428Y-97157200D01*
X164821428Y-97157200D02*
X164916666Y-97061961D01*
X164916666Y-97061961D02*
X164964285Y-96966723D01*
X164964285Y-96966723D02*
X165011904Y-96776247D01*
X165011904Y-96776247D02*
X165011904Y-96633390D01*
X165011904Y-96633390D02*
X164964285Y-96442914D01*
X164964285Y-96442914D02*
X164916666Y-96347676D01*
X164916666Y-96347676D02*
X164821428Y-96252438D01*
X164821428Y-96252438D02*
X164678571Y-96204819D01*
X164678571Y-96204819D02*
X164583333Y-96204819D01*
X164583333Y-96204819D02*
X164440476Y-96252438D01*
X164440476Y-96252438D02*
X164392857Y-96300057D01*
X163440476Y-97204819D02*
X164011904Y-97204819D01*
X163726190Y-97204819D02*
X163726190Y-96204819D01*
X163726190Y-96204819D02*
X163821428Y-96347676D01*
X163821428Y-96347676D02*
X163916666Y-96442914D01*
X163916666Y-96442914D02*
X164011904Y-96490533D01*
X162535714Y-96204819D02*
X163011904Y-96204819D01*
X163011904Y-96204819D02*
X163059523Y-96681009D01*
X163059523Y-96681009D02*
X163011904Y-96633390D01*
X163011904Y-96633390D02*
X162916666Y-96585771D01*
X162916666Y-96585771D02*
X162678571Y-96585771D01*
X162678571Y-96585771D02*
X162583333Y-96633390D01*
X162583333Y-96633390D02*
X162535714Y-96681009D01*
X162535714Y-96681009D02*
X162488095Y-96776247D01*
X162488095Y-96776247D02*
X162488095Y-97014342D01*
X162488095Y-97014342D02*
X162535714Y-97109580D01*
X162535714Y-97109580D02*
X162583333Y-97157200D01*
X162583333Y-97157200D02*
X162678571Y-97204819D01*
X162678571Y-97204819D02*
X162916666Y-97204819D01*
X162916666Y-97204819D02*
X163011904Y-97157200D01*
X163011904Y-97157200D02*
X163059523Y-97109580D01*
X138859580Y-118857142D02*
X138907200Y-118809523D01*
X138907200Y-118809523D02*
X138954819Y-118666666D01*
X138954819Y-118666666D02*
X138954819Y-118571428D01*
X138954819Y-118571428D02*
X138907200Y-118428571D01*
X138907200Y-118428571D02*
X138811961Y-118333333D01*
X138811961Y-118333333D02*
X138716723Y-118285714D01*
X138716723Y-118285714D02*
X138526247Y-118238095D01*
X138526247Y-118238095D02*
X138383390Y-118238095D01*
X138383390Y-118238095D02*
X138192914Y-118285714D01*
X138192914Y-118285714D02*
X138097676Y-118333333D01*
X138097676Y-118333333D02*
X138002438Y-118428571D01*
X138002438Y-118428571D02*
X137954819Y-118571428D01*
X137954819Y-118571428D02*
X137954819Y-118666666D01*
X137954819Y-118666666D02*
X138002438Y-118809523D01*
X138002438Y-118809523D02*
X138050057Y-118857142D01*
X138954819Y-119809523D02*
X138954819Y-119238095D01*
X138954819Y-119523809D02*
X137954819Y-119523809D01*
X137954819Y-119523809D02*
X138097676Y-119428571D01*
X138097676Y-119428571D02*
X138192914Y-119333333D01*
X138192914Y-119333333D02*
X138240533Y-119238095D01*
X138383390Y-120380952D02*
X138335771Y-120285714D01*
X138335771Y-120285714D02*
X138288152Y-120238095D01*
X138288152Y-120238095D02*
X138192914Y-120190476D01*
X138192914Y-120190476D02*
X138145295Y-120190476D01*
X138145295Y-120190476D02*
X138050057Y-120238095D01*
X138050057Y-120238095D02*
X138002438Y-120285714D01*
X138002438Y-120285714D02*
X137954819Y-120380952D01*
X137954819Y-120380952D02*
X137954819Y-120571428D01*
X137954819Y-120571428D02*
X138002438Y-120666666D01*
X138002438Y-120666666D02*
X138050057Y-120714285D01*
X138050057Y-120714285D02*
X138145295Y-120761904D01*
X138145295Y-120761904D02*
X138192914Y-120761904D01*
X138192914Y-120761904D02*
X138288152Y-120714285D01*
X138288152Y-120714285D02*
X138335771Y-120666666D01*
X138335771Y-120666666D02*
X138383390Y-120571428D01*
X138383390Y-120571428D02*
X138383390Y-120380952D01*
X138383390Y-120380952D02*
X138431009Y-120285714D01*
X138431009Y-120285714D02*
X138478628Y-120238095D01*
X138478628Y-120238095D02*
X138573866Y-120190476D01*
X138573866Y-120190476D02*
X138764342Y-120190476D01*
X138764342Y-120190476D02*
X138859580Y-120238095D01*
X138859580Y-120238095D02*
X138907200Y-120285714D01*
X138907200Y-120285714D02*
X138954819Y-120380952D01*
X138954819Y-120380952D02*
X138954819Y-120571428D01*
X138954819Y-120571428D02*
X138907200Y-120666666D01*
X138907200Y-120666666D02*
X138859580Y-120714285D01*
X138859580Y-120714285D02*
X138764342Y-120761904D01*
X138764342Y-120761904D02*
X138573866Y-120761904D01*
X138573866Y-120761904D02*
X138478628Y-120714285D01*
X138478628Y-120714285D02*
X138431009Y-120666666D01*
X138431009Y-120666666D02*
X138383390Y-120571428D01*
X161869047Y-92359580D02*
X161916666Y-92407200D01*
X161916666Y-92407200D02*
X162059523Y-92454819D01*
X162059523Y-92454819D02*
X162154761Y-92454819D01*
X162154761Y-92454819D02*
X162297618Y-92407200D01*
X162297618Y-92407200D02*
X162392856Y-92311961D01*
X162392856Y-92311961D02*
X162440475Y-92216723D01*
X162440475Y-92216723D02*
X162488094Y-92026247D01*
X162488094Y-92026247D02*
X162488094Y-91883390D01*
X162488094Y-91883390D02*
X162440475Y-91692914D01*
X162440475Y-91692914D02*
X162392856Y-91597676D01*
X162392856Y-91597676D02*
X162297618Y-91502438D01*
X162297618Y-91502438D02*
X162154761Y-91454819D01*
X162154761Y-91454819D02*
X162059523Y-91454819D01*
X162059523Y-91454819D02*
X161916666Y-91502438D01*
X161916666Y-91502438D02*
X161869047Y-91550057D01*
X160916666Y-92454819D02*
X161488094Y-92454819D01*
X161202380Y-92454819D02*
X161202380Y-91454819D01*
X161202380Y-91454819D02*
X161297618Y-91597676D01*
X161297618Y-91597676D02*
X161392856Y-91692914D01*
X161392856Y-91692914D02*
X161488094Y-91740533D01*
X160535713Y-91550057D02*
X160488094Y-91502438D01*
X160488094Y-91502438D02*
X160392856Y-91454819D01*
X160392856Y-91454819D02*
X160154761Y-91454819D01*
X160154761Y-91454819D02*
X160059523Y-91502438D01*
X160059523Y-91502438D02*
X160011904Y-91550057D01*
X160011904Y-91550057D02*
X159964285Y-91645295D01*
X159964285Y-91645295D02*
X159964285Y-91740533D01*
X159964285Y-91740533D02*
X160011904Y-91883390D01*
X160011904Y-91883390D02*
X160583332Y-92454819D01*
X160583332Y-92454819D02*
X159964285Y-92454819D01*
X159107142Y-91454819D02*
X159297618Y-91454819D01*
X159297618Y-91454819D02*
X159392856Y-91502438D01*
X159392856Y-91502438D02*
X159440475Y-91550057D01*
X159440475Y-91550057D02*
X159535713Y-91692914D01*
X159535713Y-91692914D02*
X159583332Y-91883390D01*
X159583332Y-91883390D02*
X159583332Y-92264342D01*
X159583332Y-92264342D02*
X159535713Y-92359580D01*
X159535713Y-92359580D02*
X159488094Y-92407200D01*
X159488094Y-92407200D02*
X159392856Y-92454819D01*
X159392856Y-92454819D02*
X159202380Y-92454819D01*
X159202380Y-92454819D02*
X159107142Y-92407200D01*
X159107142Y-92407200D02*
X159059523Y-92359580D01*
X159059523Y-92359580D02*
X159011904Y-92264342D01*
X159011904Y-92264342D02*
X159011904Y-92026247D01*
X159011904Y-92026247D02*
X159059523Y-91931009D01*
X159059523Y-91931009D02*
X159107142Y-91883390D01*
X159107142Y-91883390D02*
X159202380Y-91835771D01*
X159202380Y-91835771D02*
X159392856Y-91835771D01*
X159392856Y-91835771D02*
X159488094Y-91883390D01*
X159488094Y-91883390D02*
X159535713Y-91931009D01*
X159535713Y-91931009D02*
X159583332Y-92026247D01*
X137166666Y-105554819D02*
X137499999Y-105078628D01*
X137738094Y-105554819D02*
X137738094Y-104554819D01*
X137738094Y-104554819D02*
X137357142Y-104554819D01*
X137357142Y-104554819D02*
X137261904Y-104602438D01*
X137261904Y-104602438D02*
X137214285Y-104650057D01*
X137214285Y-104650057D02*
X137166666Y-104745295D01*
X137166666Y-104745295D02*
X137166666Y-104888152D01*
X137166666Y-104888152D02*
X137214285Y-104983390D01*
X137214285Y-104983390D02*
X137261904Y-105031009D01*
X137261904Y-105031009D02*
X137357142Y-105078628D01*
X137357142Y-105078628D02*
X137738094Y-105078628D01*
X136785713Y-104650057D02*
X136738094Y-104602438D01*
X136738094Y-104602438D02*
X136642856Y-104554819D01*
X136642856Y-104554819D02*
X136404761Y-104554819D01*
X136404761Y-104554819D02*
X136309523Y-104602438D01*
X136309523Y-104602438D02*
X136261904Y-104650057D01*
X136261904Y-104650057D02*
X136214285Y-104745295D01*
X136214285Y-104745295D02*
X136214285Y-104840533D01*
X136214285Y-104840533D02*
X136261904Y-104983390D01*
X136261904Y-104983390D02*
X136833332Y-105554819D01*
X136833332Y-105554819D02*
X136214285Y-105554819D01*
X144416666Y-96609580D02*
X144464285Y-96657200D01*
X144464285Y-96657200D02*
X144607142Y-96704819D01*
X144607142Y-96704819D02*
X144702380Y-96704819D01*
X144702380Y-96704819D02*
X144845237Y-96657200D01*
X144845237Y-96657200D02*
X144940475Y-96561961D01*
X144940475Y-96561961D02*
X144988094Y-96466723D01*
X144988094Y-96466723D02*
X145035713Y-96276247D01*
X145035713Y-96276247D02*
X145035713Y-96133390D01*
X145035713Y-96133390D02*
X144988094Y-95942914D01*
X144988094Y-95942914D02*
X144940475Y-95847676D01*
X144940475Y-95847676D02*
X144845237Y-95752438D01*
X144845237Y-95752438D02*
X144702380Y-95704819D01*
X144702380Y-95704819D02*
X144607142Y-95704819D01*
X144607142Y-95704819D02*
X144464285Y-95752438D01*
X144464285Y-95752438D02*
X144416666Y-95800057D01*
X144083332Y-95704819D02*
X143464285Y-95704819D01*
X143464285Y-95704819D02*
X143797618Y-96085771D01*
X143797618Y-96085771D02*
X143654761Y-96085771D01*
X143654761Y-96085771D02*
X143559523Y-96133390D01*
X143559523Y-96133390D02*
X143511904Y-96181009D01*
X143511904Y-96181009D02*
X143464285Y-96276247D01*
X143464285Y-96276247D02*
X143464285Y-96514342D01*
X143464285Y-96514342D02*
X143511904Y-96609580D01*
X143511904Y-96609580D02*
X143559523Y-96657200D01*
X143559523Y-96657200D02*
X143654761Y-96704819D01*
X143654761Y-96704819D02*
X143940475Y-96704819D01*
X143940475Y-96704819D02*
X144035713Y-96657200D01*
X144035713Y-96657200D02*
X144083332Y-96609580D01*
X173359580Y-105130952D02*
X173407200Y-105083333D01*
X173407200Y-105083333D02*
X173454819Y-104940476D01*
X173454819Y-104940476D02*
X173454819Y-104845238D01*
X173454819Y-104845238D02*
X173407200Y-104702381D01*
X173407200Y-104702381D02*
X173311961Y-104607143D01*
X173311961Y-104607143D02*
X173216723Y-104559524D01*
X173216723Y-104559524D02*
X173026247Y-104511905D01*
X173026247Y-104511905D02*
X172883390Y-104511905D01*
X172883390Y-104511905D02*
X172692914Y-104559524D01*
X172692914Y-104559524D02*
X172597676Y-104607143D01*
X172597676Y-104607143D02*
X172502438Y-104702381D01*
X172502438Y-104702381D02*
X172454819Y-104845238D01*
X172454819Y-104845238D02*
X172454819Y-104940476D01*
X172454819Y-104940476D02*
X172502438Y-105083333D01*
X172502438Y-105083333D02*
X172550057Y-105130952D01*
X173454819Y-106083333D02*
X173454819Y-105511905D01*
X173454819Y-105797619D02*
X172454819Y-105797619D01*
X172454819Y-105797619D02*
X172597676Y-105702381D01*
X172597676Y-105702381D02*
X172692914Y-105607143D01*
X172692914Y-105607143D02*
X172740533Y-105511905D01*
X172550057Y-106464286D02*
X172502438Y-106511905D01*
X172502438Y-106511905D02*
X172454819Y-106607143D01*
X172454819Y-106607143D02*
X172454819Y-106845238D01*
X172454819Y-106845238D02*
X172502438Y-106940476D01*
X172502438Y-106940476D02*
X172550057Y-106988095D01*
X172550057Y-106988095D02*
X172645295Y-107035714D01*
X172645295Y-107035714D02*
X172740533Y-107035714D01*
X172740533Y-107035714D02*
X172883390Y-106988095D01*
X172883390Y-106988095D02*
X173454819Y-106416667D01*
X173454819Y-106416667D02*
X173454819Y-107035714D01*
X172454819Y-107369048D02*
X172454819Y-107988095D01*
X172454819Y-107988095D02*
X172835771Y-107654762D01*
X172835771Y-107654762D02*
X172835771Y-107797619D01*
X172835771Y-107797619D02*
X172883390Y-107892857D01*
X172883390Y-107892857D02*
X172931009Y-107940476D01*
X172931009Y-107940476D02*
X173026247Y-107988095D01*
X173026247Y-107988095D02*
X173264342Y-107988095D01*
X173264342Y-107988095D02*
X173359580Y-107940476D01*
X173359580Y-107940476D02*
X173407200Y-107892857D01*
X173407200Y-107892857D02*
X173454819Y-107797619D01*
X173454819Y-107797619D02*
X173454819Y-107511905D01*
X173454819Y-107511905D02*
X173407200Y-107416667D01*
X173407200Y-107416667D02*
X173359580Y-107369048D01*
X164142857Y-125609580D02*
X164190476Y-125657200D01*
X164190476Y-125657200D02*
X164333333Y-125704819D01*
X164333333Y-125704819D02*
X164428571Y-125704819D01*
X164428571Y-125704819D02*
X164571428Y-125657200D01*
X164571428Y-125657200D02*
X164666666Y-125561961D01*
X164666666Y-125561961D02*
X164714285Y-125466723D01*
X164714285Y-125466723D02*
X164761904Y-125276247D01*
X164761904Y-125276247D02*
X164761904Y-125133390D01*
X164761904Y-125133390D02*
X164714285Y-124942914D01*
X164714285Y-124942914D02*
X164666666Y-124847676D01*
X164666666Y-124847676D02*
X164571428Y-124752438D01*
X164571428Y-124752438D02*
X164428571Y-124704819D01*
X164428571Y-124704819D02*
X164333333Y-124704819D01*
X164333333Y-124704819D02*
X164190476Y-124752438D01*
X164190476Y-124752438D02*
X164142857Y-124800057D01*
X163761904Y-124800057D02*
X163714285Y-124752438D01*
X163714285Y-124752438D02*
X163619047Y-124704819D01*
X163619047Y-124704819D02*
X163380952Y-124704819D01*
X163380952Y-124704819D02*
X163285714Y-124752438D01*
X163285714Y-124752438D02*
X163238095Y-124800057D01*
X163238095Y-124800057D02*
X163190476Y-124895295D01*
X163190476Y-124895295D02*
X163190476Y-124990533D01*
X163190476Y-124990533D02*
X163238095Y-125133390D01*
X163238095Y-125133390D02*
X163809523Y-125704819D01*
X163809523Y-125704819D02*
X163190476Y-125704819D01*
X162857142Y-124704819D02*
X162190476Y-124704819D01*
X162190476Y-124704819D02*
X162619047Y-125704819D01*
X145892857Y-120704819D02*
X146226190Y-120228628D01*
X146464285Y-120704819D02*
X146464285Y-119704819D01*
X146464285Y-119704819D02*
X146083333Y-119704819D01*
X146083333Y-119704819D02*
X145988095Y-119752438D01*
X145988095Y-119752438D02*
X145940476Y-119800057D01*
X145940476Y-119800057D02*
X145892857Y-119895295D01*
X145892857Y-119895295D02*
X145892857Y-120038152D01*
X145892857Y-120038152D02*
X145940476Y-120133390D01*
X145940476Y-120133390D02*
X145988095Y-120181009D01*
X145988095Y-120181009D02*
X146083333Y-120228628D01*
X146083333Y-120228628D02*
X146464285Y-120228628D01*
X145511904Y-119800057D02*
X145464285Y-119752438D01*
X145464285Y-119752438D02*
X145369047Y-119704819D01*
X145369047Y-119704819D02*
X145130952Y-119704819D01*
X145130952Y-119704819D02*
X145035714Y-119752438D01*
X145035714Y-119752438D02*
X144988095Y-119800057D01*
X144988095Y-119800057D02*
X144940476Y-119895295D01*
X144940476Y-119895295D02*
X144940476Y-119990533D01*
X144940476Y-119990533D02*
X144988095Y-120133390D01*
X144988095Y-120133390D02*
X145559523Y-120704819D01*
X145559523Y-120704819D02*
X144940476Y-120704819D01*
X144464285Y-120704819D02*
X144273809Y-120704819D01*
X144273809Y-120704819D02*
X144178571Y-120657200D01*
X144178571Y-120657200D02*
X144130952Y-120609580D01*
X144130952Y-120609580D02*
X144035714Y-120466723D01*
X144035714Y-120466723D02*
X143988095Y-120276247D01*
X143988095Y-120276247D02*
X143988095Y-119895295D01*
X143988095Y-119895295D02*
X144035714Y-119800057D01*
X144035714Y-119800057D02*
X144083333Y-119752438D01*
X144083333Y-119752438D02*
X144178571Y-119704819D01*
X144178571Y-119704819D02*
X144369047Y-119704819D01*
X144369047Y-119704819D02*
X144464285Y-119752438D01*
X144464285Y-119752438D02*
X144511904Y-119800057D01*
X144511904Y-119800057D02*
X144559523Y-119895295D01*
X144559523Y-119895295D02*
X144559523Y-120133390D01*
X144559523Y-120133390D02*
X144511904Y-120228628D01*
X144511904Y-120228628D02*
X144464285Y-120276247D01*
X144464285Y-120276247D02*
X144369047Y-120323866D01*
X144369047Y-120323866D02*
X144178571Y-120323866D01*
X144178571Y-120323866D02*
X144083333Y-120276247D01*
X144083333Y-120276247D02*
X144035714Y-120228628D01*
X144035714Y-120228628D02*
X143988095Y-120133390D01*
X173109580Y-117380952D02*
X173157200Y-117333333D01*
X173157200Y-117333333D02*
X173204819Y-117190476D01*
X173204819Y-117190476D02*
X173204819Y-117095238D01*
X173204819Y-117095238D02*
X173157200Y-116952381D01*
X173157200Y-116952381D02*
X173061961Y-116857143D01*
X173061961Y-116857143D02*
X172966723Y-116809524D01*
X172966723Y-116809524D02*
X172776247Y-116761905D01*
X172776247Y-116761905D02*
X172633390Y-116761905D01*
X172633390Y-116761905D02*
X172442914Y-116809524D01*
X172442914Y-116809524D02*
X172347676Y-116857143D01*
X172347676Y-116857143D02*
X172252438Y-116952381D01*
X172252438Y-116952381D02*
X172204819Y-117095238D01*
X172204819Y-117095238D02*
X172204819Y-117190476D01*
X172204819Y-117190476D02*
X172252438Y-117333333D01*
X172252438Y-117333333D02*
X172300057Y-117380952D01*
X173204819Y-118333333D02*
X173204819Y-117761905D01*
X173204819Y-118047619D02*
X172204819Y-118047619D01*
X172204819Y-118047619D02*
X172347676Y-117952381D01*
X172347676Y-117952381D02*
X172442914Y-117857143D01*
X172442914Y-117857143D02*
X172490533Y-117761905D01*
X172300057Y-118714286D02*
X172252438Y-118761905D01*
X172252438Y-118761905D02*
X172204819Y-118857143D01*
X172204819Y-118857143D02*
X172204819Y-119095238D01*
X172204819Y-119095238D02*
X172252438Y-119190476D01*
X172252438Y-119190476D02*
X172300057Y-119238095D01*
X172300057Y-119238095D02*
X172395295Y-119285714D01*
X172395295Y-119285714D02*
X172490533Y-119285714D01*
X172490533Y-119285714D02*
X172633390Y-119238095D01*
X172633390Y-119238095D02*
X173204819Y-118666667D01*
X173204819Y-118666667D02*
X173204819Y-119285714D01*
X173204819Y-119761905D02*
X173204819Y-119952381D01*
X173204819Y-119952381D02*
X173157200Y-120047619D01*
X173157200Y-120047619D02*
X173109580Y-120095238D01*
X173109580Y-120095238D02*
X172966723Y-120190476D01*
X172966723Y-120190476D02*
X172776247Y-120238095D01*
X172776247Y-120238095D02*
X172395295Y-120238095D01*
X172395295Y-120238095D02*
X172300057Y-120190476D01*
X172300057Y-120190476D02*
X172252438Y-120142857D01*
X172252438Y-120142857D02*
X172204819Y-120047619D01*
X172204819Y-120047619D02*
X172204819Y-119857143D01*
X172204819Y-119857143D02*
X172252438Y-119761905D01*
X172252438Y-119761905D02*
X172300057Y-119714286D01*
X172300057Y-119714286D02*
X172395295Y-119666667D01*
X172395295Y-119666667D02*
X172633390Y-119666667D01*
X172633390Y-119666667D02*
X172728628Y-119714286D01*
X172728628Y-119714286D02*
X172776247Y-119761905D01*
X172776247Y-119761905D02*
X172823866Y-119857143D01*
X172823866Y-119857143D02*
X172823866Y-120047619D01*
X172823866Y-120047619D02*
X172776247Y-120142857D01*
X172776247Y-120142857D02*
X172728628Y-120190476D01*
X172728628Y-120190476D02*
X172633390Y-120238095D01*
X153359580Y-120357142D02*
X153407200Y-120309523D01*
X153407200Y-120309523D02*
X153454819Y-120166666D01*
X153454819Y-120166666D02*
X153454819Y-120071428D01*
X153454819Y-120071428D02*
X153407200Y-119928571D01*
X153407200Y-119928571D02*
X153311961Y-119833333D01*
X153311961Y-119833333D02*
X153216723Y-119785714D01*
X153216723Y-119785714D02*
X153026247Y-119738095D01*
X153026247Y-119738095D02*
X152883390Y-119738095D01*
X152883390Y-119738095D02*
X152692914Y-119785714D01*
X152692914Y-119785714D02*
X152597676Y-119833333D01*
X152597676Y-119833333D02*
X152502438Y-119928571D01*
X152502438Y-119928571D02*
X152454819Y-120071428D01*
X152454819Y-120071428D02*
X152454819Y-120166666D01*
X152454819Y-120166666D02*
X152502438Y-120309523D01*
X152502438Y-120309523D02*
X152550057Y-120357142D01*
X153454819Y-121309523D02*
X153454819Y-120738095D01*
X153454819Y-121023809D02*
X152454819Y-121023809D01*
X152454819Y-121023809D02*
X152597676Y-120928571D01*
X152597676Y-120928571D02*
X152692914Y-120833333D01*
X152692914Y-120833333D02*
X152740533Y-120738095D01*
X153454819Y-122261904D02*
X153454819Y-121690476D01*
X153454819Y-121976190D02*
X152454819Y-121976190D01*
X152454819Y-121976190D02*
X152597676Y-121880952D01*
X152597676Y-121880952D02*
X152692914Y-121785714D01*
X152692914Y-121785714D02*
X152740533Y-121690476D01*
X160119047Y-116359580D02*
X160166666Y-116407200D01*
X160166666Y-116407200D02*
X160309523Y-116454819D01*
X160309523Y-116454819D02*
X160404761Y-116454819D01*
X160404761Y-116454819D02*
X160547618Y-116407200D01*
X160547618Y-116407200D02*
X160642856Y-116311961D01*
X160642856Y-116311961D02*
X160690475Y-116216723D01*
X160690475Y-116216723D02*
X160738094Y-116026247D01*
X160738094Y-116026247D02*
X160738094Y-115883390D01*
X160738094Y-115883390D02*
X160690475Y-115692914D01*
X160690475Y-115692914D02*
X160642856Y-115597676D01*
X160642856Y-115597676D02*
X160547618Y-115502438D01*
X160547618Y-115502438D02*
X160404761Y-115454819D01*
X160404761Y-115454819D02*
X160309523Y-115454819D01*
X160309523Y-115454819D02*
X160166666Y-115502438D01*
X160166666Y-115502438D02*
X160119047Y-115550057D01*
X159166666Y-116454819D02*
X159738094Y-116454819D01*
X159452380Y-116454819D02*
X159452380Y-115454819D01*
X159452380Y-115454819D02*
X159547618Y-115597676D01*
X159547618Y-115597676D02*
X159642856Y-115692914D01*
X159642856Y-115692914D02*
X159738094Y-115740533D01*
X158785713Y-115550057D02*
X158738094Y-115502438D01*
X158738094Y-115502438D02*
X158642856Y-115454819D01*
X158642856Y-115454819D02*
X158404761Y-115454819D01*
X158404761Y-115454819D02*
X158309523Y-115502438D01*
X158309523Y-115502438D02*
X158261904Y-115550057D01*
X158261904Y-115550057D02*
X158214285Y-115645295D01*
X158214285Y-115645295D02*
X158214285Y-115740533D01*
X158214285Y-115740533D02*
X158261904Y-115883390D01*
X158261904Y-115883390D02*
X158833332Y-116454819D01*
X158833332Y-116454819D02*
X158214285Y-116454819D01*
X157309523Y-115454819D02*
X157785713Y-115454819D01*
X157785713Y-115454819D02*
X157833332Y-115931009D01*
X157833332Y-115931009D02*
X157785713Y-115883390D01*
X157785713Y-115883390D02*
X157690475Y-115835771D01*
X157690475Y-115835771D02*
X157452380Y-115835771D01*
X157452380Y-115835771D02*
X157357142Y-115883390D01*
X157357142Y-115883390D02*
X157309523Y-115931009D01*
X157309523Y-115931009D02*
X157261904Y-116026247D01*
X157261904Y-116026247D02*
X157261904Y-116264342D01*
X157261904Y-116264342D02*
X157309523Y-116359580D01*
X157309523Y-116359580D02*
X157357142Y-116407200D01*
X157357142Y-116407200D02*
X157452380Y-116454819D01*
X157452380Y-116454819D02*
X157690475Y-116454819D01*
X157690475Y-116454819D02*
X157785713Y-116407200D01*
X157785713Y-116407200D02*
X157833332Y-116359580D01*
X166454819Y-122607142D02*
X165978628Y-122273809D01*
X166454819Y-122035714D02*
X165454819Y-122035714D01*
X165454819Y-122035714D02*
X165454819Y-122416666D01*
X165454819Y-122416666D02*
X165502438Y-122511904D01*
X165502438Y-122511904D02*
X165550057Y-122559523D01*
X165550057Y-122559523D02*
X165645295Y-122607142D01*
X165645295Y-122607142D02*
X165788152Y-122607142D01*
X165788152Y-122607142D02*
X165883390Y-122559523D01*
X165883390Y-122559523D02*
X165931009Y-122511904D01*
X165931009Y-122511904D02*
X165978628Y-122416666D01*
X165978628Y-122416666D02*
X165978628Y-122035714D01*
X165550057Y-122988095D02*
X165502438Y-123035714D01*
X165502438Y-123035714D02*
X165454819Y-123130952D01*
X165454819Y-123130952D02*
X165454819Y-123369047D01*
X165454819Y-123369047D02*
X165502438Y-123464285D01*
X165502438Y-123464285D02*
X165550057Y-123511904D01*
X165550057Y-123511904D02*
X165645295Y-123559523D01*
X165645295Y-123559523D02*
X165740533Y-123559523D01*
X165740533Y-123559523D02*
X165883390Y-123511904D01*
X165883390Y-123511904D02*
X166454819Y-122940476D01*
X166454819Y-122940476D02*
X166454819Y-123559523D01*
X165550057Y-123940476D02*
X165502438Y-123988095D01*
X165502438Y-123988095D02*
X165454819Y-124083333D01*
X165454819Y-124083333D02*
X165454819Y-124321428D01*
X165454819Y-124321428D02*
X165502438Y-124416666D01*
X165502438Y-124416666D02*
X165550057Y-124464285D01*
X165550057Y-124464285D02*
X165645295Y-124511904D01*
X165645295Y-124511904D02*
X165740533Y-124511904D01*
X165740533Y-124511904D02*
X165883390Y-124464285D01*
X165883390Y-124464285D02*
X166454819Y-123892857D01*
X166454819Y-123892857D02*
X166454819Y-124511904D01*
X157161904Y-95054819D02*
X157161904Y-95864342D01*
X157161904Y-95864342D02*
X157114285Y-95959580D01*
X157114285Y-95959580D02*
X157066666Y-96007200D01*
X157066666Y-96007200D02*
X156971428Y-96054819D01*
X156971428Y-96054819D02*
X156780952Y-96054819D01*
X156780952Y-96054819D02*
X156685714Y-96007200D01*
X156685714Y-96007200D02*
X156638095Y-95959580D01*
X156638095Y-95959580D02*
X156590476Y-95864342D01*
X156590476Y-95864342D02*
X156590476Y-95054819D01*
X155971428Y-95483390D02*
X156066666Y-95435771D01*
X156066666Y-95435771D02*
X156114285Y-95388152D01*
X156114285Y-95388152D02*
X156161904Y-95292914D01*
X156161904Y-95292914D02*
X156161904Y-95245295D01*
X156161904Y-95245295D02*
X156114285Y-95150057D01*
X156114285Y-95150057D02*
X156066666Y-95102438D01*
X156066666Y-95102438D02*
X155971428Y-95054819D01*
X155971428Y-95054819D02*
X155780952Y-95054819D01*
X155780952Y-95054819D02*
X155685714Y-95102438D01*
X155685714Y-95102438D02*
X155638095Y-95150057D01*
X155638095Y-95150057D02*
X155590476Y-95245295D01*
X155590476Y-95245295D02*
X155590476Y-95292914D01*
X155590476Y-95292914D02*
X155638095Y-95388152D01*
X155638095Y-95388152D02*
X155685714Y-95435771D01*
X155685714Y-95435771D02*
X155780952Y-95483390D01*
X155780952Y-95483390D02*
X155971428Y-95483390D01*
X155971428Y-95483390D02*
X156066666Y-95531009D01*
X156066666Y-95531009D02*
X156114285Y-95578628D01*
X156114285Y-95578628D02*
X156161904Y-95673866D01*
X156161904Y-95673866D02*
X156161904Y-95864342D01*
X156161904Y-95864342D02*
X156114285Y-95959580D01*
X156114285Y-95959580D02*
X156066666Y-96007200D01*
X156066666Y-96007200D02*
X155971428Y-96054819D01*
X155971428Y-96054819D02*
X155780952Y-96054819D01*
X155780952Y-96054819D02*
X155685714Y-96007200D01*
X155685714Y-96007200D02*
X155638095Y-95959580D01*
X155638095Y-95959580D02*
X155590476Y-95864342D01*
X155590476Y-95864342D02*
X155590476Y-95673866D01*
X155590476Y-95673866D02*
X155638095Y-95578628D01*
X155638095Y-95578628D02*
X155685714Y-95531009D01*
X155685714Y-95531009D02*
X155780952Y-95483390D01*
X157261904Y-109694819D02*
X157261904Y-110504342D01*
X157261904Y-110504342D02*
X157214285Y-110599580D01*
X157214285Y-110599580D02*
X157166666Y-110647200D01*
X157166666Y-110647200D02*
X157071428Y-110694819D01*
X157071428Y-110694819D02*
X156880952Y-110694819D01*
X156880952Y-110694819D02*
X156785714Y-110647200D01*
X156785714Y-110647200D02*
X156738095Y-110599580D01*
X156738095Y-110599580D02*
X156690476Y-110504342D01*
X156690476Y-110504342D02*
X156690476Y-109694819D01*
X156261904Y-109790057D02*
X156214285Y-109742438D01*
X156214285Y-109742438D02*
X156119047Y-109694819D01*
X156119047Y-109694819D02*
X155880952Y-109694819D01*
X155880952Y-109694819D02*
X155785714Y-109742438D01*
X155785714Y-109742438D02*
X155738095Y-109790057D01*
X155738095Y-109790057D02*
X155690476Y-109885295D01*
X155690476Y-109885295D02*
X155690476Y-109980533D01*
X155690476Y-109980533D02*
X155738095Y-110123390D01*
X155738095Y-110123390D02*
X156309523Y-110694819D01*
X156309523Y-110694819D02*
X155690476Y-110694819D01*
X137166666Y-108554819D02*
X137499999Y-108078628D01*
X137738094Y-108554819D02*
X137738094Y-107554819D01*
X137738094Y-107554819D02*
X137357142Y-107554819D01*
X137357142Y-107554819D02*
X137261904Y-107602438D01*
X137261904Y-107602438D02*
X137214285Y-107650057D01*
X137214285Y-107650057D02*
X137166666Y-107745295D01*
X137166666Y-107745295D02*
X137166666Y-107888152D01*
X137166666Y-107888152D02*
X137214285Y-107983390D01*
X137214285Y-107983390D02*
X137261904Y-108031009D01*
X137261904Y-108031009D02*
X137357142Y-108078628D01*
X137357142Y-108078628D02*
X137738094Y-108078628D01*
X136214285Y-108554819D02*
X136785713Y-108554819D01*
X136499999Y-108554819D02*
X136499999Y-107554819D01*
X136499999Y-107554819D02*
X136595237Y-107697676D01*
X136595237Y-107697676D02*
X136690475Y-107792914D01*
X136690475Y-107792914D02*
X136785713Y-107840533D01*
X143595238Y-129800057D02*
X143690476Y-129752438D01*
X143690476Y-129752438D02*
X143785714Y-129657200D01*
X143785714Y-129657200D02*
X143928571Y-129514342D01*
X143928571Y-129514342D02*
X144023809Y-129466723D01*
X144023809Y-129466723D02*
X144119047Y-129466723D01*
X144071428Y-129704819D02*
X144166666Y-129657200D01*
X144166666Y-129657200D02*
X144261904Y-129561961D01*
X144261904Y-129561961D02*
X144309523Y-129371485D01*
X144309523Y-129371485D02*
X144309523Y-129038152D01*
X144309523Y-129038152D02*
X144261904Y-128847676D01*
X144261904Y-128847676D02*
X144166666Y-128752438D01*
X144166666Y-128752438D02*
X144071428Y-128704819D01*
X144071428Y-128704819D02*
X143880952Y-128704819D01*
X143880952Y-128704819D02*
X143785714Y-128752438D01*
X143785714Y-128752438D02*
X143690476Y-128847676D01*
X143690476Y-128847676D02*
X143642857Y-129038152D01*
X143642857Y-129038152D02*
X143642857Y-129371485D01*
X143642857Y-129371485D02*
X143690476Y-129561961D01*
X143690476Y-129561961D02*
X143785714Y-129657200D01*
X143785714Y-129657200D02*
X143880952Y-129704819D01*
X143880952Y-129704819D02*
X144071428Y-129704819D01*
X143261904Y-128800057D02*
X143214285Y-128752438D01*
X143214285Y-128752438D02*
X143119047Y-128704819D01*
X143119047Y-128704819D02*
X142880952Y-128704819D01*
X142880952Y-128704819D02*
X142785714Y-128752438D01*
X142785714Y-128752438D02*
X142738095Y-128800057D01*
X142738095Y-128800057D02*
X142690476Y-128895295D01*
X142690476Y-128895295D02*
X142690476Y-128990533D01*
X142690476Y-128990533D02*
X142738095Y-129133390D01*
X142738095Y-129133390D02*
X143309523Y-129704819D01*
X143309523Y-129704819D02*
X142690476Y-129704819D01*
X159818094Y-124934819D02*
X159818094Y-125744342D01*
X159818094Y-125744342D02*
X159770475Y-125839580D01*
X159770475Y-125839580D02*
X159722856Y-125887200D01*
X159722856Y-125887200D02*
X159627618Y-125934819D01*
X159627618Y-125934819D02*
X159437142Y-125934819D01*
X159437142Y-125934819D02*
X159341904Y-125887200D01*
X159341904Y-125887200D02*
X159294285Y-125839580D01*
X159294285Y-125839580D02*
X159246666Y-125744342D01*
X159246666Y-125744342D02*
X159246666Y-124934819D01*
X158341904Y-125268152D02*
X158341904Y-125934819D01*
X158579999Y-124887200D02*
X158818094Y-125601485D01*
X158818094Y-125601485D02*
X158199047Y-125601485D01*
X157675237Y-125363390D02*
X157770475Y-125315771D01*
X157770475Y-125315771D02*
X157818094Y-125268152D01*
X157818094Y-125268152D02*
X157865713Y-125172914D01*
X157865713Y-125172914D02*
X157865713Y-125125295D01*
X157865713Y-125125295D02*
X157818094Y-125030057D01*
X157818094Y-125030057D02*
X157770475Y-124982438D01*
X157770475Y-124982438D02*
X157675237Y-124934819D01*
X157675237Y-124934819D02*
X157484761Y-124934819D01*
X157484761Y-124934819D02*
X157389523Y-124982438D01*
X157389523Y-124982438D02*
X157341904Y-125030057D01*
X157341904Y-125030057D02*
X157294285Y-125125295D01*
X157294285Y-125125295D02*
X157294285Y-125172914D01*
X157294285Y-125172914D02*
X157341904Y-125268152D01*
X157341904Y-125268152D02*
X157389523Y-125315771D01*
X157389523Y-125315771D02*
X157484761Y-125363390D01*
X157484761Y-125363390D02*
X157675237Y-125363390D01*
X157675237Y-125363390D02*
X157770475Y-125411009D01*
X157770475Y-125411009D02*
X157818094Y-125458628D01*
X157818094Y-125458628D02*
X157865713Y-125553866D01*
X157865713Y-125553866D02*
X157865713Y-125744342D01*
X157865713Y-125744342D02*
X157818094Y-125839580D01*
X157818094Y-125839580D02*
X157770475Y-125887200D01*
X157770475Y-125887200D02*
X157675237Y-125934819D01*
X157675237Y-125934819D02*
X157484761Y-125934819D01*
X157484761Y-125934819D02*
X157389523Y-125887200D01*
X157389523Y-125887200D02*
X157341904Y-125839580D01*
X157341904Y-125839580D02*
X157294285Y-125744342D01*
X157294285Y-125744342D02*
X157294285Y-125553866D01*
X157294285Y-125553866D02*
X157341904Y-125458628D01*
X157341904Y-125458628D02*
X157389523Y-125411009D01*
X157389523Y-125411009D02*
X157484761Y-125363390D01*
X140359580Y-118857142D02*
X140407200Y-118809523D01*
X140407200Y-118809523D02*
X140454819Y-118666666D01*
X140454819Y-118666666D02*
X140454819Y-118571428D01*
X140454819Y-118571428D02*
X140407200Y-118428571D01*
X140407200Y-118428571D02*
X140311961Y-118333333D01*
X140311961Y-118333333D02*
X140216723Y-118285714D01*
X140216723Y-118285714D02*
X140026247Y-118238095D01*
X140026247Y-118238095D02*
X139883390Y-118238095D01*
X139883390Y-118238095D02*
X139692914Y-118285714D01*
X139692914Y-118285714D02*
X139597676Y-118333333D01*
X139597676Y-118333333D02*
X139502438Y-118428571D01*
X139502438Y-118428571D02*
X139454819Y-118571428D01*
X139454819Y-118571428D02*
X139454819Y-118666666D01*
X139454819Y-118666666D02*
X139502438Y-118809523D01*
X139502438Y-118809523D02*
X139550057Y-118857142D01*
X140454819Y-119809523D02*
X140454819Y-119238095D01*
X140454819Y-119523809D02*
X139454819Y-119523809D01*
X139454819Y-119523809D02*
X139597676Y-119428571D01*
X139597676Y-119428571D02*
X139692914Y-119333333D01*
X139692914Y-119333333D02*
X139740533Y-119238095D01*
X139454819Y-120142857D02*
X139454819Y-120809523D01*
X139454819Y-120809523D02*
X140454819Y-120380952D01*
X143954819Y-116380952D02*
X143478628Y-116047619D01*
X143954819Y-115809524D02*
X142954819Y-115809524D01*
X142954819Y-115809524D02*
X142954819Y-116190476D01*
X142954819Y-116190476D02*
X143002438Y-116285714D01*
X143002438Y-116285714D02*
X143050057Y-116333333D01*
X143050057Y-116333333D02*
X143145295Y-116380952D01*
X143145295Y-116380952D02*
X143288152Y-116380952D01*
X143288152Y-116380952D02*
X143383390Y-116333333D01*
X143383390Y-116333333D02*
X143431009Y-116285714D01*
X143431009Y-116285714D02*
X143478628Y-116190476D01*
X143478628Y-116190476D02*
X143478628Y-115809524D01*
X143050057Y-116761905D02*
X143002438Y-116809524D01*
X143002438Y-116809524D02*
X142954819Y-116904762D01*
X142954819Y-116904762D02*
X142954819Y-117142857D01*
X142954819Y-117142857D02*
X143002438Y-117238095D01*
X143002438Y-117238095D02*
X143050057Y-117285714D01*
X143050057Y-117285714D02*
X143145295Y-117333333D01*
X143145295Y-117333333D02*
X143240533Y-117333333D01*
X143240533Y-117333333D02*
X143383390Y-117285714D01*
X143383390Y-117285714D02*
X143954819Y-116714286D01*
X143954819Y-116714286D02*
X143954819Y-117333333D01*
X143288152Y-118190476D02*
X143954819Y-118190476D01*
X142907200Y-117952381D02*
X143621485Y-117714286D01*
X143621485Y-117714286D02*
X143621485Y-118333333D01*
X142954819Y-119190476D02*
X142954819Y-118714286D01*
X142954819Y-118714286D02*
X143431009Y-118666667D01*
X143431009Y-118666667D02*
X143383390Y-118714286D01*
X143383390Y-118714286D02*
X143335771Y-118809524D01*
X143335771Y-118809524D02*
X143335771Y-119047619D01*
X143335771Y-119047619D02*
X143383390Y-119142857D01*
X143383390Y-119142857D02*
X143431009Y-119190476D01*
X143431009Y-119190476D02*
X143526247Y-119238095D01*
X143526247Y-119238095D02*
X143764342Y-119238095D01*
X143764342Y-119238095D02*
X143859580Y-119190476D01*
X143859580Y-119190476D02*
X143907200Y-119142857D01*
X143907200Y-119142857D02*
X143954819Y-119047619D01*
X143954819Y-119047619D02*
X143954819Y-118809524D01*
X143954819Y-118809524D02*
X143907200Y-118714286D01*
X143907200Y-118714286D02*
X143859580Y-118666667D01*
X157859580Y-119380952D02*
X157907200Y-119333333D01*
X157907200Y-119333333D02*
X157954819Y-119190476D01*
X157954819Y-119190476D02*
X157954819Y-119095238D01*
X157954819Y-119095238D02*
X157907200Y-118952381D01*
X157907200Y-118952381D02*
X157811961Y-118857143D01*
X157811961Y-118857143D02*
X157716723Y-118809524D01*
X157716723Y-118809524D02*
X157526247Y-118761905D01*
X157526247Y-118761905D02*
X157383390Y-118761905D01*
X157383390Y-118761905D02*
X157192914Y-118809524D01*
X157192914Y-118809524D02*
X157097676Y-118857143D01*
X157097676Y-118857143D02*
X157002438Y-118952381D01*
X157002438Y-118952381D02*
X156954819Y-119095238D01*
X156954819Y-119095238D02*
X156954819Y-119190476D01*
X156954819Y-119190476D02*
X157002438Y-119333333D01*
X157002438Y-119333333D02*
X157050057Y-119380952D01*
X157954819Y-120333333D02*
X157954819Y-119761905D01*
X157954819Y-120047619D02*
X156954819Y-120047619D01*
X156954819Y-120047619D02*
X157097676Y-119952381D01*
X157097676Y-119952381D02*
X157192914Y-119857143D01*
X157192914Y-119857143D02*
X157240533Y-119761905D01*
X156954819Y-120666667D02*
X156954819Y-121285714D01*
X156954819Y-121285714D02*
X157335771Y-120952381D01*
X157335771Y-120952381D02*
X157335771Y-121095238D01*
X157335771Y-121095238D02*
X157383390Y-121190476D01*
X157383390Y-121190476D02*
X157431009Y-121238095D01*
X157431009Y-121238095D02*
X157526247Y-121285714D01*
X157526247Y-121285714D02*
X157764342Y-121285714D01*
X157764342Y-121285714D02*
X157859580Y-121238095D01*
X157859580Y-121238095D02*
X157907200Y-121190476D01*
X157907200Y-121190476D02*
X157954819Y-121095238D01*
X157954819Y-121095238D02*
X157954819Y-120809524D01*
X157954819Y-120809524D02*
X157907200Y-120714286D01*
X157907200Y-120714286D02*
X157859580Y-120666667D01*
X156954819Y-121904762D02*
X156954819Y-122000000D01*
X156954819Y-122000000D02*
X157002438Y-122095238D01*
X157002438Y-122095238D02*
X157050057Y-122142857D01*
X157050057Y-122142857D02*
X157145295Y-122190476D01*
X157145295Y-122190476D02*
X157335771Y-122238095D01*
X157335771Y-122238095D02*
X157573866Y-122238095D01*
X157573866Y-122238095D02*
X157764342Y-122190476D01*
X157764342Y-122190476D02*
X157859580Y-122142857D01*
X157859580Y-122142857D02*
X157907200Y-122095238D01*
X157907200Y-122095238D02*
X157954819Y-122000000D01*
X157954819Y-122000000D02*
X157954819Y-121904762D01*
X157954819Y-121904762D02*
X157907200Y-121809524D01*
X157907200Y-121809524D02*
X157859580Y-121761905D01*
X157859580Y-121761905D02*
X157764342Y-121714286D01*
X157764342Y-121714286D02*
X157573866Y-121666667D01*
X157573866Y-121666667D02*
X157335771Y-121666667D01*
X157335771Y-121666667D02*
X157145295Y-121714286D01*
X157145295Y-121714286D02*
X157050057Y-121761905D01*
X157050057Y-121761905D02*
X157002438Y-121809524D01*
X157002438Y-121809524D02*
X156954819Y-121904762D01*
X164392857Y-89609580D02*
X164440476Y-89657200D01*
X164440476Y-89657200D02*
X164583333Y-89704819D01*
X164583333Y-89704819D02*
X164678571Y-89704819D01*
X164678571Y-89704819D02*
X164821428Y-89657200D01*
X164821428Y-89657200D02*
X164916666Y-89561961D01*
X164916666Y-89561961D02*
X164964285Y-89466723D01*
X164964285Y-89466723D02*
X165011904Y-89276247D01*
X165011904Y-89276247D02*
X165011904Y-89133390D01*
X165011904Y-89133390D02*
X164964285Y-88942914D01*
X164964285Y-88942914D02*
X164916666Y-88847676D01*
X164916666Y-88847676D02*
X164821428Y-88752438D01*
X164821428Y-88752438D02*
X164678571Y-88704819D01*
X164678571Y-88704819D02*
X164583333Y-88704819D01*
X164583333Y-88704819D02*
X164440476Y-88752438D01*
X164440476Y-88752438D02*
X164392857Y-88800057D01*
X163440476Y-89704819D02*
X164011904Y-89704819D01*
X163726190Y-89704819D02*
X163726190Y-88704819D01*
X163726190Y-88704819D02*
X163821428Y-88847676D01*
X163821428Y-88847676D02*
X163916666Y-88942914D01*
X163916666Y-88942914D02*
X164011904Y-88990533D01*
X162583333Y-88704819D02*
X162773809Y-88704819D01*
X162773809Y-88704819D02*
X162869047Y-88752438D01*
X162869047Y-88752438D02*
X162916666Y-88800057D01*
X162916666Y-88800057D02*
X163011904Y-88942914D01*
X163011904Y-88942914D02*
X163059523Y-89133390D01*
X163059523Y-89133390D02*
X163059523Y-89514342D01*
X163059523Y-89514342D02*
X163011904Y-89609580D01*
X163011904Y-89609580D02*
X162964285Y-89657200D01*
X162964285Y-89657200D02*
X162869047Y-89704819D01*
X162869047Y-89704819D02*
X162678571Y-89704819D01*
X162678571Y-89704819D02*
X162583333Y-89657200D01*
X162583333Y-89657200D02*
X162535714Y-89609580D01*
X162535714Y-89609580D02*
X162488095Y-89514342D01*
X162488095Y-89514342D02*
X162488095Y-89276247D01*
X162488095Y-89276247D02*
X162535714Y-89181009D01*
X162535714Y-89181009D02*
X162583333Y-89133390D01*
X162583333Y-89133390D02*
X162678571Y-89085771D01*
X162678571Y-89085771D02*
X162869047Y-89085771D01*
X162869047Y-89085771D02*
X162964285Y-89133390D01*
X162964285Y-89133390D02*
X163011904Y-89181009D01*
X163011904Y-89181009D02*
X163059523Y-89276247D01*
X144416666Y-95859580D02*
X144464285Y-95907200D01*
X144464285Y-95907200D02*
X144607142Y-95954819D01*
X144607142Y-95954819D02*
X144702380Y-95954819D01*
X144702380Y-95954819D02*
X144845237Y-95907200D01*
X144845237Y-95907200D02*
X144940475Y-95811961D01*
X144940475Y-95811961D02*
X144988094Y-95716723D01*
X144988094Y-95716723D02*
X145035713Y-95526247D01*
X145035713Y-95526247D02*
X145035713Y-95383390D01*
X145035713Y-95383390D02*
X144988094Y-95192914D01*
X144988094Y-95192914D02*
X144940475Y-95097676D01*
X144940475Y-95097676D02*
X144845237Y-95002438D01*
X144845237Y-95002438D02*
X144702380Y-94954819D01*
X144702380Y-94954819D02*
X144607142Y-94954819D01*
X144607142Y-94954819D02*
X144464285Y-95002438D01*
X144464285Y-95002438D02*
X144416666Y-95050057D01*
X143559523Y-94954819D02*
X143749999Y-94954819D01*
X143749999Y-94954819D02*
X143845237Y-95002438D01*
X143845237Y-95002438D02*
X143892856Y-95050057D01*
X143892856Y-95050057D02*
X143988094Y-95192914D01*
X143988094Y-95192914D02*
X144035713Y-95383390D01*
X144035713Y-95383390D02*
X144035713Y-95764342D01*
X144035713Y-95764342D02*
X143988094Y-95859580D01*
X143988094Y-95859580D02*
X143940475Y-95907200D01*
X143940475Y-95907200D02*
X143845237Y-95954819D01*
X143845237Y-95954819D02*
X143654761Y-95954819D01*
X143654761Y-95954819D02*
X143559523Y-95907200D01*
X143559523Y-95907200D02*
X143511904Y-95859580D01*
X143511904Y-95859580D02*
X143464285Y-95764342D01*
X143464285Y-95764342D02*
X143464285Y-95526247D01*
X143464285Y-95526247D02*
X143511904Y-95431009D01*
X143511904Y-95431009D02*
X143559523Y-95383390D01*
X143559523Y-95383390D02*
X143654761Y-95335771D01*
X143654761Y-95335771D02*
X143845237Y-95335771D01*
X143845237Y-95335771D02*
X143940475Y-95383390D01*
X143940475Y-95383390D02*
X143988094Y-95431009D01*
X143988094Y-95431009D02*
X144035713Y-95526247D01*
X154912857Y-88359580D02*
X154960476Y-88407200D01*
X154960476Y-88407200D02*
X155103333Y-88454819D01*
X155103333Y-88454819D02*
X155198571Y-88454819D01*
X155198571Y-88454819D02*
X155341428Y-88407200D01*
X155341428Y-88407200D02*
X155436666Y-88311961D01*
X155436666Y-88311961D02*
X155484285Y-88216723D01*
X155484285Y-88216723D02*
X155531904Y-88026247D01*
X155531904Y-88026247D02*
X155531904Y-87883390D01*
X155531904Y-87883390D02*
X155484285Y-87692914D01*
X155484285Y-87692914D02*
X155436666Y-87597676D01*
X155436666Y-87597676D02*
X155341428Y-87502438D01*
X155341428Y-87502438D02*
X155198571Y-87454819D01*
X155198571Y-87454819D02*
X155103333Y-87454819D01*
X155103333Y-87454819D02*
X154960476Y-87502438D01*
X154960476Y-87502438D02*
X154912857Y-87550057D01*
X153960476Y-88454819D02*
X154531904Y-88454819D01*
X154246190Y-88454819D02*
X154246190Y-87454819D01*
X154246190Y-87454819D02*
X154341428Y-87597676D01*
X154341428Y-87597676D02*
X154436666Y-87692914D01*
X154436666Y-87692914D02*
X154531904Y-87740533D01*
X153627142Y-87454819D02*
X153008095Y-87454819D01*
X153008095Y-87454819D02*
X153341428Y-87835771D01*
X153341428Y-87835771D02*
X153198571Y-87835771D01*
X153198571Y-87835771D02*
X153103333Y-87883390D01*
X153103333Y-87883390D02*
X153055714Y-87931009D01*
X153055714Y-87931009D02*
X153008095Y-88026247D01*
X153008095Y-88026247D02*
X153008095Y-88264342D01*
X153008095Y-88264342D02*
X153055714Y-88359580D01*
X153055714Y-88359580D02*
X153103333Y-88407200D01*
X153103333Y-88407200D02*
X153198571Y-88454819D01*
X153198571Y-88454819D02*
X153484285Y-88454819D01*
X153484285Y-88454819D02*
X153579523Y-88407200D01*
X153579523Y-88407200D02*
X153627142Y-88359580D01*
X158704819Y-112857142D02*
X158228628Y-112523809D01*
X158704819Y-112285714D02*
X157704819Y-112285714D01*
X157704819Y-112285714D02*
X157704819Y-112666666D01*
X157704819Y-112666666D02*
X157752438Y-112761904D01*
X157752438Y-112761904D02*
X157800057Y-112809523D01*
X157800057Y-112809523D02*
X157895295Y-112857142D01*
X157895295Y-112857142D02*
X158038152Y-112857142D01*
X158038152Y-112857142D02*
X158133390Y-112809523D01*
X158133390Y-112809523D02*
X158181009Y-112761904D01*
X158181009Y-112761904D02*
X158228628Y-112666666D01*
X158228628Y-112666666D02*
X158228628Y-112285714D01*
X157800057Y-113238095D02*
X157752438Y-113285714D01*
X157752438Y-113285714D02*
X157704819Y-113380952D01*
X157704819Y-113380952D02*
X157704819Y-113619047D01*
X157704819Y-113619047D02*
X157752438Y-113714285D01*
X157752438Y-113714285D02*
X157800057Y-113761904D01*
X157800057Y-113761904D02*
X157895295Y-113809523D01*
X157895295Y-113809523D02*
X157990533Y-113809523D01*
X157990533Y-113809523D02*
X158133390Y-113761904D01*
X158133390Y-113761904D02*
X158704819Y-113190476D01*
X158704819Y-113190476D02*
X158704819Y-113809523D01*
X157704819Y-114142857D02*
X157704819Y-114761904D01*
X157704819Y-114761904D02*
X158085771Y-114428571D01*
X158085771Y-114428571D02*
X158085771Y-114571428D01*
X158085771Y-114571428D02*
X158133390Y-114666666D01*
X158133390Y-114666666D02*
X158181009Y-114714285D01*
X158181009Y-114714285D02*
X158276247Y-114761904D01*
X158276247Y-114761904D02*
X158514342Y-114761904D01*
X158514342Y-114761904D02*
X158609580Y-114714285D01*
X158609580Y-114714285D02*
X158657200Y-114666666D01*
X158657200Y-114666666D02*
X158704819Y-114571428D01*
X158704819Y-114571428D02*
X158704819Y-114285714D01*
X158704819Y-114285714D02*
X158657200Y-114190476D01*
X158657200Y-114190476D02*
X158609580Y-114142857D01*
X167392857Y-117204819D02*
X167726190Y-116728628D01*
X167964285Y-117204819D02*
X167964285Y-116204819D01*
X167964285Y-116204819D02*
X167583333Y-116204819D01*
X167583333Y-116204819D02*
X167488095Y-116252438D01*
X167488095Y-116252438D02*
X167440476Y-116300057D01*
X167440476Y-116300057D02*
X167392857Y-116395295D01*
X167392857Y-116395295D02*
X167392857Y-116538152D01*
X167392857Y-116538152D02*
X167440476Y-116633390D01*
X167440476Y-116633390D02*
X167488095Y-116681009D01*
X167488095Y-116681009D02*
X167583333Y-116728628D01*
X167583333Y-116728628D02*
X167964285Y-116728628D01*
X167011904Y-116300057D02*
X166964285Y-116252438D01*
X166964285Y-116252438D02*
X166869047Y-116204819D01*
X166869047Y-116204819D02*
X166630952Y-116204819D01*
X166630952Y-116204819D02*
X166535714Y-116252438D01*
X166535714Y-116252438D02*
X166488095Y-116300057D01*
X166488095Y-116300057D02*
X166440476Y-116395295D01*
X166440476Y-116395295D02*
X166440476Y-116490533D01*
X166440476Y-116490533D02*
X166488095Y-116633390D01*
X166488095Y-116633390D02*
X167059523Y-117204819D01*
X167059523Y-117204819D02*
X166440476Y-117204819D01*
X165821428Y-116204819D02*
X165726190Y-116204819D01*
X165726190Y-116204819D02*
X165630952Y-116252438D01*
X165630952Y-116252438D02*
X165583333Y-116300057D01*
X165583333Y-116300057D02*
X165535714Y-116395295D01*
X165535714Y-116395295D02*
X165488095Y-116585771D01*
X165488095Y-116585771D02*
X165488095Y-116823866D01*
X165488095Y-116823866D02*
X165535714Y-117014342D01*
X165535714Y-117014342D02*
X165583333Y-117109580D01*
X165583333Y-117109580D02*
X165630952Y-117157200D01*
X165630952Y-117157200D02*
X165726190Y-117204819D01*
X165726190Y-117204819D02*
X165821428Y-117204819D01*
X165821428Y-117204819D02*
X165916666Y-117157200D01*
X165916666Y-117157200D02*
X165964285Y-117109580D01*
X165964285Y-117109580D02*
X166011904Y-117014342D01*
X166011904Y-117014342D02*
X166059523Y-116823866D01*
X166059523Y-116823866D02*
X166059523Y-116585771D01*
X166059523Y-116585771D02*
X166011904Y-116395295D01*
X166011904Y-116395295D02*
X165964285Y-116300057D01*
X165964285Y-116300057D02*
X165916666Y-116252438D01*
X165916666Y-116252438D02*
X165821428Y-116204819D01*
X166609580Y-110083333D02*
X166657200Y-110035714D01*
X166657200Y-110035714D02*
X166704819Y-109892857D01*
X166704819Y-109892857D02*
X166704819Y-109797619D01*
X166704819Y-109797619D02*
X166657200Y-109654762D01*
X166657200Y-109654762D02*
X166561961Y-109559524D01*
X166561961Y-109559524D02*
X166466723Y-109511905D01*
X166466723Y-109511905D02*
X166276247Y-109464286D01*
X166276247Y-109464286D02*
X166133390Y-109464286D01*
X166133390Y-109464286D02*
X165942914Y-109511905D01*
X165942914Y-109511905D02*
X165847676Y-109559524D01*
X165847676Y-109559524D02*
X165752438Y-109654762D01*
X165752438Y-109654762D02*
X165704819Y-109797619D01*
X165704819Y-109797619D02*
X165704819Y-109892857D01*
X165704819Y-109892857D02*
X165752438Y-110035714D01*
X165752438Y-110035714D02*
X165800057Y-110083333D01*
X166133390Y-110654762D02*
X166085771Y-110559524D01*
X166085771Y-110559524D02*
X166038152Y-110511905D01*
X166038152Y-110511905D02*
X165942914Y-110464286D01*
X165942914Y-110464286D02*
X165895295Y-110464286D01*
X165895295Y-110464286D02*
X165800057Y-110511905D01*
X165800057Y-110511905D02*
X165752438Y-110559524D01*
X165752438Y-110559524D02*
X165704819Y-110654762D01*
X165704819Y-110654762D02*
X165704819Y-110845238D01*
X165704819Y-110845238D02*
X165752438Y-110940476D01*
X165752438Y-110940476D02*
X165800057Y-110988095D01*
X165800057Y-110988095D02*
X165895295Y-111035714D01*
X165895295Y-111035714D02*
X165942914Y-111035714D01*
X165942914Y-111035714D02*
X166038152Y-110988095D01*
X166038152Y-110988095D02*
X166085771Y-110940476D01*
X166085771Y-110940476D02*
X166133390Y-110845238D01*
X166133390Y-110845238D02*
X166133390Y-110654762D01*
X166133390Y-110654762D02*
X166181009Y-110559524D01*
X166181009Y-110559524D02*
X166228628Y-110511905D01*
X166228628Y-110511905D02*
X166323866Y-110464286D01*
X166323866Y-110464286D02*
X166514342Y-110464286D01*
X166514342Y-110464286D02*
X166609580Y-110511905D01*
X166609580Y-110511905D02*
X166657200Y-110559524D01*
X166657200Y-110559524D02*
X166704819Y-110654762D01*
X166704819Y-110654762D02*
X166704819Y-110845238D01*
X166704819Y-110845238D02*
X166657200Y-110940476D01*
X166657200Y-110940476D02*
X166609580Y-110988095D01*
X166609580Y-110988095D02*
X166514342Y-111035714D01*
X166514342Y-111035714D02*
X166323866Y-111035714D01*
X166323866Y-111035714D02*
X166228628Y-110988095D01*
X166228628Y-110988095D02*
X166181009Y-110940476D01*
X166181009Y-110940476D02*
X166133390Y-110845238D01*
X174109580Y-105130952D02*
X174157200Y-105083333D01*
X174157200Y-105083333D02*
X174204819Y-104940476D01*
X174204819Y-104940476D02*
X174204819Y-104845238D01*
X174204819Y-104845238D02*
X174157200Y-104702381D01*
X174157200Y-104702381D02*
X174061961Y-104607143D01*
X174061961Y-104607143D02*
X173966723Y-104559524D01*
X173966723Y-104559524D02*
X173776247Y-104511905D01*
X173776247Y-104511905D02*
X173633390Y-104511905D01*
X173633390Y-104511905D02*
X173442914Y-104559524D01*
X173442914Y-104559524D02*
X173347676Y-104607143D01*
X173347676Y-104607143D02*
X173252438Y-104702381D01*
X173252438Y-104702381D02*
X173204819Y-104845238D01*
X173204819Y-104845238D02*
X173204819Y-104940476D01*
X173204819Y-104940476D02*
X173252438Y-105083333D01*
X173252438Y-105083333D02*
X173300057Y-105130952D01*
X174204819Y-106083333D02*
X174204819Y-105511905D01*
X174204819Y-105797619D02*
X173204819Y-105797619D01*
X173204819Y-105797619D02*
X173347676Y-105702381D01*
X173347676Y-105702381D02*
X173442914Y-105607143D01*
X173442914Y-105607143D02*
X173490533Y-105511905D01*
X173204819Y-106416667D02*
X173204819Y-107035714D01*
X173204819Y-107035714D02*
X173585771Y-106702381D01*
X173585771Y-106702381D02*
X173585771Y-106845238D01*
X173585771Y-106845238D02*
X173633390Y-106940476D01*
X173633390Y-106940476D02*
X173681009Y-106988095D01*
X173681009Y-106988095D02*
X173776247Y-107035714D01*
X173776247Y-107035714D02*
X174014342Y-107035714D01*
X174014342Y-107035714D02*
X174109580Y-106988095D01*
X174109580Y-106988095D02*
X174157200Y-106940476D01*
X174157200Y-106940476D02*
X174204819Y-106845238D01*
X174204819Y-106845238D02*
X174204819Y-106559524D01*
X174204819Y-106559524D02*
X174157200Y-106464286D01*
X174157200Y-106464286D02*
X174109580Y-106416667D01*
X173300057Y-107416667D02*
X173252438Y-107464286D01*
X173252438Y-107464286D02*
X173204819Y-107559524D01*
X173204819Y-107559524D02*
X173204819Y-107797619D01*
X173204819Y-107797619D02*
X173252438Y-107892857D01*
X173252438Y-107892857D02*
X173300057Y-107940476D01*
X173300057Y-107940476D02*
X173395295Y-107988095D01*
X173395295Y-107988095D02*
X173490533Y-107988095D01*
X173490533Y-107988095D02*
X173633390Y-107940476D01*
X173633390Y-107940476D02*
X174204819Y-107369048D01*
X174204819Y-107369048D02*
X174204819Y-107988095D01*
X168345238Y-99300057D02*
X168440476Y-99252438D01*
X168440476Y-99252438D02*
X168535714Y-99157200D01*
X168535714Y-99157200D02*
X168678571Y-99014342D01*
X168678571Y-99014342D02*
X168773809Y-98966723D01*
X168773809Y-98966723D02*
X168869047Y-98966723D01*
X168821428Y-99204819D02*
X168916666Y-99157200D01*
X168916666Y-99157200D02*
X169011904Y-99061961D01*
X169011904Y-99061961D02*
X169059523Y-98871485D01*
X169059523Y-98871485D02*
X169059523Y-98538152D01*
X169059523Y-98538152D02*
X169011904Y-98347676D01*
X169011904Y-98347676D02*
X168916666Y-98252438D01*
X168916666Y-98252438D02*
X168821428Y-98204819D01*
X168821428Y-98204819D02*
X168630952Y-98204819D01*
X168630952Y-98204819D02*
X168535714Y-98252438D01*
X168535714Y-98252438D02*
X168440476Y-98347676D01*
X168440476Y-98347676D02*
X168392857Y-98538152D01*
X168392857Y-98538152D02*
X168392857Y-98871485D01*
X168392857Y-98871485D02*
X168440476Y-99061961D01*
X168440476Y-99061961D02*
X168535714Y-99157200D01*
X168535714Y-99157200D02*
X168630952Y-99204819D01*
X168630952Y-99204819D02*
X168821428Y-99204819D01*
X167440476Y-99204819D02*
X168011904Y-99204819D01*
X167726190Y-99204819D02*
X167726190Y-98204819D01*
X167726190Y-98204819D02*
X167821428Y-98347676D01*
X167821428Y-98347676D02*
X167916666Y-98442914D01*
X167916666Y-98442914D02*
X168011904Y-98490533D01*
%TO.C,C10*%
X154610000Y-116580000D02*
X154610000Y-116220000D01*
X154610000Y-116920000D02*
X154610000Y-117280000D01*
X154760000Y-116060000D02*
X155240000Y-116060000D01*
X154760000Y-117440000D02*
X155240000Y-117440000D01*
X155390000Y-116220000D02*
X155390000Y-116580000D01*
X155390000Y-117280000D02*
X155390000Y-116920000D01*
X154610356Y-116220333D02*
G75*
G02*
X154760000Y-116060000I149644J10333D01*
G01*
X154760000Y-117440000D02*
G75*
G02*
X154610355Y-117279667I0J150001D01*
G01*
X155239643Y-116059667D02*
G75*
G02*
X155390000Y-116220000I357J-150333D01*
G01*
X155390000Y-117280000D02*
G75*
G02*
X155239643Y-117440332I-150001J-9999D01*
G01*
%TO.C,R15*%
X155890000Y-92110000D02*
X156340000Y-92110000D01*
X155890000Y-92890000D02*
X155890000Y-92110000D01*
X156340000Y-92890000D02*
X155890000Y-92890000D01*
X156680000Y-92890000D02*
X157130000Y-92890000D01*
X157130000Y-92110000D02*
X156680000Y-92110000D01*
X157130000Y-92890000D02*
X157130000Y-92110000D01*
%TO.C,U1*%
X167150000Y-111650000D02*
X169850000Y-111650000D01*
X167150000Y-113850000D02*
X167150000Y-111650000D01*
X169800000Y-113850000D02*
X167150000Y-113850000D01*
X169850000Y-111650000D02*
X169850000Y-113850000D01*
D11*
X170140000Y-111730000D02*
X170140000Y-112150000D01*
X170140000Y-112150000D02*
X170020000Y-112030000D01*
D10*
X167910000Y-113010000D02*
G75*
G02*
X167770000Y-113010000I-70000J0D01*
G01*
X167770000Y-113010000D02*
G75*
G02*
X167910000Y-113010000I70000J0D01*
G01*
%TO.C,R19*%
X165880000Y-111610000D02*
X165880000Y-112390000D01*
X165880000Y-112390000D02*
X166330000Y-112390000D01*
X166330000Y-111610000D02*
X165880000Y-111610000D01*
X166670000Y-111610000D02*
X167120000Y-111610000D01*
X167120000Y-111610000D02*
X167120000Y-112390000D01*
X167120000Y-112390000D02*
X166670000Y-112390000D01*
%TO.C,C21*%
X157010000Y-90170000D02*
X157010000Y-90530000D01*
X157010000Y-91230000D02*
X157010000Y-90870000D01*
X157640000Y-90010000D02*
X157160000Y-90010000D01*
X157640000Y-91390000D02*
X157160000Y-91390000D01*
X157790000Y-90530000D02*
X157790000Y-90170000D01*
X157790000Y-90870000D02*
X157790000Y-91230000D01*
X157010000Y-90170000D02*
G75*
G02*
X157160357Y-90009668I150001J9999D01*
G01*
X157160357Y-91390333D02*
G75*
G02*
X157010000Y-91230000I-357J150333D01*
G01*
X157640000Y-90010000D02*
G75*
G02*
X157789645Y-90170333I0J-150001D01*
G01*
X157789644Y-91229667D02*
G75*
G02*
X157640000Y-91390000I-149644J-10333D01*
G01*
%TO.C,C127*%
X170360000Y-110080000D02*
X170360000Y-109720000D01*
X170360000Y-110420000D02*
X170360000Y-110780000D01*
X170510000Y-109560000D02*
X170990000Y-109560000D01*
X170510000Y-110940000D02*
X170990000Y-110940000D01*
X171140000Y-109720000D02*
X171140000Y-110080000D01*
X171140000Y-110780000D02*
X171140000Y-110420000D01*
X170360356Y-109720333D02*
G75*
G02*
X170510000Y-109560000I149644J10333D01*
G01*
X170510000Y-110940000D02*
G75*
G02*
X170360355Y-110779667I0J150001D01*
G01*
X170989643Y-109559667D02*
G75*
G02*
X171140000Y-109720000I357J-150333D01*
G01*
X171140000Y-110780000D02*
G75*
G02*
X170989643Y-110940332I-150001J-9999D01*
G01*
%TO.C,C133*%
X153610000Y-119970000D02*
X153610000Y-120330000D01*
X153610000Y-121030000D02*
X153610000Y-120670000D01*
X154240000Y-119810000D02*
X153760000Y-119810000D01*
X154240000Y-121190000D02*
X153760000Y-121190000D01*
X154390000Y-120330000D02*
X154390000Y-119970000D01*
X154390000Y-120670000D02*
X154390000Y-121030000D01*
X153610000Y-119970000D02*
G75*
G02*
X153760357Y-119809668I150001J9999D01*
G01*
X153760357Y-121190333D02*
G75*
G02*
X153610000Y-121030000I-357J150333D01*
G01*
X154240000Y-119810000D02*
G75*
G02*
X154389645Y-119970333I0J-150001D01*
G01*
X154389644Y-121029667D02*
G75*
G02*
X154240000Y-121190000I-149644J-10333D01*
G01*
%TO.C,C4*%
X154110000Y-119970000D02*
X154110000Y-120330000D01*
X154110000Y-121030000D02*
X154110000Y-120670000D01*
X154740000Y-119810000D02*
X154260000Y-119810000D01*
X154740000Y-121190000D02*
X154260000Y-121190000D01*
X154890000Y-120330000D02*
X154890000Y-119970000D01*
X154890000Y-120670000D02*
X154890000Y-121030000D01*
X154110000Y-119970000D02*
G75*
G02*
X154260357Y-119809668I150001J9999D01*
G01*
X154260357Y-121190333D02*
G75*
G02*
X154110000Y-121030000I-357J150333D01*
G01*
X154740000Y-119810000D02*
G75*
G02*
X154889645Y-119970333I0J-150001D01*
G01*
X154889644Y-121029667D02*
G75*
G02*
X154740000Y-121190000I-149644J-10333D01*
G01*
%TO.C,C131*%
X155060000Y-120490000D02*
X155060000Y-120010000D01*
X155220000Y-119860000D02*
X155580000Y-119860000D01*
X155580000Y-120640000D02*
X155220000Y-120640000D01*
X155920000Y-120640000D02*
X156280000Y-120640000D01*
X156280000Y-119860000D02*
X155920000Y-119860000D01*
X156440000Y-120490000D02*
X156440000Y-120010000D01*
X155059667Y-120010357D02*
G75*
G02*
X155220000Y-119860000I150333J357D01*
G01*
X155220333Y-120639644D02*
G75*
G02*
X155060000Y-120490000I-10333J149644D01*
G01*
X156280000Y-119860000D02*
G75*
G02*
X156440332Y-120010357I9999J-150001D01*
G01*
X156440000Y-120490000D02*
G75*
G02*
X156279667Y-120639645I-150001J0D01*
G01*
%TO.C,U53*%
X154760000Y-120530000D02*
X154820000Y-120530000D01*
X154760000Y-121930000D02*
X154760000Y-120530000D01*
X154760000Y-121930000D02*
X154820000Y-121930000D01*
X155370000Y-120530000D02*
X155470000Y-120530000D01*
X155370000Y-121930000D02*
X155470000Y-121930000D01*
X156020000Y-120530000D02*
X156080000Y-120530000D01*
X156020000Y-121930000D02*
X156080000Y-121930000D01*
X156080000Y-121930000D02*
X156080000Y-120530000D01*
X154600000Y-120680000D02*
G75*
G02*
X154440000Y-120680000I-80000J0D01*
G01*
X154440000Y-120680000D02*
G75*
G02*
X154600000Y-120680000I80000J0D01*
G01*
%TO.C,U73*%
X159170000Y-112170000D02*
X159170000Y-118330000D01*
X164330000Y-118330000D02*
X164330000Y-112170000D01*
D12*
X163760000Y-119200000D02*
G75*
G02*
X163560000Y-119200000I-100000J0D01*
G01*
X163560000Y-119200000D02*
G75*
G02*
X163760000Y-119200000I100000J0D01*
G01*
D10*
%TO.C,C124*%
X170860000Y-109720000D02*
X170860000Y-110080000D01*
X170860000Y-110780000D02*
X170860000Y-110420000D01*
X171490000Y-109560000D02*
X171010000Y-109560000D01*
X171490000Y-110940000D02*
X171010000Y-110940000D01*
X171640000Y-110080000D02*
X171640000Y-109720000D01*
X171640000Y-110420000D02*
X171640000Y-110780000D01*
X170860000Y-109720000D02*
G75*
G02*
X171010357Y-109559668I150001J9999D01*
G01*
X171010357Y-110940333D02*
G75*
G02*
X170860000Y-110780000I-357J150333D01*
G01*
X171490000Y-109560000D02*
G75*
G02*
X171639645Y-109720333I0J-150001D01*
G01*
X171639644Y-110779667D02*
G75*
G02*
X171490000Y-110940000I-149644J-10333D01*
G01*
%TO.C,C5*%
X155110000Y-116580000D02*
X155110000Y-116220000D01*
X155110000Y-116920000D02*
X155110000Y-117280000D01*
X155260000Y-116060000D02*
X155740000Y-116060000D01*
X155260000Y-117440000D02*
X155740000Y-117440000D01*
X155890000Y-116220000D02*
X155890000Y-116580000D01*
X155890000Y-117280000D02*
X155890000Y-116920000D01*
X155110356Y-116220333D02*
G75*
G02*
X155260000Y-116060000I149644J10333D01*
G01*
X155260000Y-117440000D02*
G75*
G02*
X155110355Y-117279667I0J150001D01*
G01*
X155739643Y-116059667D02*
G75*
G02*
X155890000Y-116220000I357J-150333D01*
G01*
X155890000Y-117280000D02*
G75*
G02*
X155739643Y-117440332I-150001J-9999D01*
G01*
%TO.C,D2*%
X164320000Y-119470000D02*
X166180000Y-119470000D01*
X164320000Y-119930000D02*
X164320000Y-117070000D01*
X164650000Y-117070000D02*
X164320000Y-117070000D01*
X166180000Y-117070000D02*
X165850000Y-117070000D01*
X166180000Y-119930000D02*
X166180000Y-117070000D01*
%TO.C,C29*%
X159580000Y-123900000D02*
X159580000Y-124600000D01*
X159730000Y-124750000D02*
X160520000Y-124750000D01*
X160520000Y-123750000D02*
X159730000Y-123750000D01*
X160980000Y-123750000D02*
X161770000Y-123750000D01*
X161770000Y-124750000D02*
X160980000Y-124750000D01*
X161920000Y-123900000D02*
X161920000Y-124600000D01*
X159580000Y-123900000D02*
G75*
G02*
X159730000Y-123750000I150000J0D01*
G01*
X159730000Y-124750000D02*
G75*
G02*
X159580000Y-124600000I0J150000D01*
G01*
X161770000Y-123750000D02*
G75*
G02*
X161920000Y-123900000I0J-150000D01*
G01*
X161920000Y-124600000D02*
G75*
G02*
X161770000Y-124750000I-150000J0D01*
G01*
%TO.C,C14*%
X152610000Y-120330000D02*
X152610000Y-119970000D01*
X152610000Y-120670000D02*
X152610000Y-121030000D01*
X152760000Y-119810000D02*
X153240000Y-119810000D01*
X152760000Y-121190000D02*
X153240000Y-121190000D01*
X153390000Y-119970000D02*
X153390000Y-120330000D01*
X153390000Y-121030000D02*
X153390000Y-120670000D01*
X152610356Y-119970333D02*
G75*
G02*
X152760000Y-119810000I149644J10333D01*
G01*
X152760000Y-121190000D02*
G75*
G02*
X152610355Y-121029667I0J150001D01*
G01*
X153239643Y-119809667D02*
G75*
G02*
X153390000Y-119970000I357J-150333D01*
G01*
X153390000Y-121030000D02*
G75*
G02*
X153239643Y-121190332I-150001J-9999D01*
G01*
%TO.C,R16*%
X155890000Y-91360000D02*
X155890000Y-92140000D01*
X155890000Y-92140000D02*
X156340000Y-92140000D01*
X156340000Y-91360000D02*
X155890000Y-91360000D01*
X156680000Y-91360000D02*
X157130000Y-91360000D01*
X157130000Y-91360000D02*
X157130000Y-92140000D01*
X157130000Y-92140000D02*
X156680000Y-92140000D01*
%TO.C,U3*%
X156340000Y-121550000D02*
X156400000Y-121550000D01*
X156340000Y-122950000D02*
X156340000Y-121550000D01*
X156340000Y-122950000D02*
X156400000Y-122950000D01*
X156950000Y-121550000D02*
X157050000Y-121550000D01*
X156950000Y-122950000D02*
X157050000Y-122950000D01*
X157600000Y-121550000D02*
X157660000Y-121550000D01*
X157600000Y-122950000D02*
X157660000Y-122950000D01*
X157660000Y-122950000D02*
X157660000Y-121550000D01*
X156180000Y-121700000D02*
G75*
G02*
X156020000Y-121700000I-80000J0D01*
G01*
X156020000Y-121700000D02*
G75*
G02*
X156180000Y-121700000I80000J0D01*
G01*
%TO.C,D1*%
X138150000Y-102610000D02*
X138150000Y-97100000D01*
X141450000Y-102610000D02*
X138150000Y-102610000D01*
X141450000Y-102610000D02*
X141450000Y-97100000D01*
%TO.C,R26*%
X169360000Y-109130000D02*
X169360000Y-109580000D01*
X169360000Y-110370000D02*
X169360000Y-109920000D01*
X170140000Y-109130000D02*
X169360000Y-109130000D01*
X170140000Y-109580000D02*
X170140000Y-109130000D01*
X170140000Y-109920000D02*
X170140000Y-110370000D01*
X170140000Y-110370000D02*
X169360000Y-110370000D01*
D13*
%TO.C,L3*%
X137020000Y-115480000D02*
X136480000Y-115480000D01*
X137020000Y-118520000D02*
X136480000Y-118520000D01*
D10*
%TO.C,C15*%
X163060000Y-92510000D02*
X163060000Y-92990000D01*
X163220000Y-93140000D02*
X163580000Y-93140000D01*
X163580000Y-92360000D02*
X163220000Y-92360000D01*
X163920000Y-92360000D02*
X164280000Y-92360000D01*
X164280000Y-93140000D02*
X163920000Y-93140000D01*
X164440000Y-92510000D02*
X164440000Y-92990000D01*
X163060000Y-92510000D02*
G75*
G02*
X163220333Y-92360355I150001J0D01*
G01*
X163220000Y-93140000D02*
G75*
G02*
X163059668Y-92989643I-9999J150001D01*
G01*
X164279667Y-92360356D02*
G75*
G02*
X164440000Y-92510000I10333J-149644D01*
G01*
X164440333Y-92989643D02*
G75*
G02*
X164280000Y-93140000I-150333J-357D01*
G01*
%TO.C,C18*%
X141600000Y-117690000D02*
X141600000Y-119100000D01*
X141600000Y-121310000D02*
X141600000Y-119900000D01*
X143250000Y-117540000D02*
X141750000Y-117540000D01*
X143250000Y-121460000D02*
X141750000Y-121460000D01*
X143400000Y-119100000D02*
X143400000Y-117690000D01*
X143400000Y-119900000D02*
X143400000Y-121310000D01*
X141600000Y-117690000D02*
G75*
G02*
X141750000Y-117540000I150000J0D01*
G01*
X141750000Y-121460000D02*
G75*
G02*
X141600000Y-121310000I0J150000D01*
G01*
X143250000Y-117540000D02*
G75*
G02*
X143400000Y-117690000I0J-150000D01*
G01*
X143400000Y-121310000D02*
G75*
G02*
X143250000Y-121460000I-150000J0D01*
G01*
%TO.C,C126*%
X160060000Y-96240000D02*
X160060000Y-95760000D01*
X160220000Y-95610000D02*
X160580000Y-95610000D01*
X160580000Y-96390000D02*
X160220000Y-96390000D01*
X160920000Y-96390000D02*
X161280000Y-96390000D01*
X161280000Y-95610000D02*
X160920000Y-95610000D01*
X161440000Y-96240000D02*
X161440000Y-95760000D01*
X160059667Y-95760357D02*
G75*
G02*
X160220000Y-95610000I150333J357D01*
G01*
X160220333Y-96389644D02*
G75*
G02*
X160060000Y-96240000I-10333J149644D01*
G01*
X161280000Y-95610000D02*
G75*
G02*
X161440332Y-95760357I9999J-150001D01*
G01*
X161440000Y-96240000D02*
G75*
G02*
X161279667Y-96389645I-150001J0D01*
G01*
D11*
%TO.C,R2*%
X137227064Y-106015000D02*
X136772936Y-106015000D01*
X137227064Y-107485000D02*
X136772936Y-107485000D01*
D10*
%TO.C,C3*%
X143560000Y-92010000D02*
X143560000Y-92490000D01*
X143720000Y-92640000D02*
X144080000Y-92640000D01*
X144080000Y-91860000D02*
X143720000Y-91860000D01*
X144420000Y-91860000D02*
X144780000Y-91860000D01*
X144780000Y-92640000D02*
X144420000Y-92640000D01*
X144940000Y-92010000D02*
X144940000Y-92490000D01*
X143560000Y-92010000D02*
G75*
G02*
X143720333Y-91860355I150001J0D01*
G01*
X143720000Y-92640000D02*
G75*
G02*
X143559668Y-92489643I-9999J150001D01*
G01*
X144779667Y-91860356D02*
G75*
G02*
X144940000Y-92010000I10333J-149644D01*
G01*
X144940333Y-92489643D02*
G75*
G02*
X144780000Y-92640000I-150333J-357D01*
G01*
%TO.C,C123*%
X168610000Y-106080000D02*
X168610000Y-105720000D01*
X168610000Y-106420000D02*
X168610000Y-106780000D01*
X168760000Y-105560000D02*
X169240000Y-105560000D01*
X168760000Y-106940000D02*
X169240000Y-106940000D01*
X169390000Y-105720000D02*
X169390000Y-106080000D01*
X169390000Y-106780000D02*
X169390000Y-106420000D01*
X168610356Y-105720333D02*
G75*
G02*
X168760000Y-105560000I149644J10333D01*
G01*
X168760000Y-106940000D02*
G75*
G02*
X168610355Y-106779667I0J150001D01*
G01*
X169239643Y-105559667D02*
G75*
G02*
X169390000Y-105720000I357J-150333D01*
G01*
X169390000Y-106780000D02*
G75*
G02*
X169239643Y-106940332I-150001J-9999D01*
G01*
%TO.C,C27*%
X162810000Y-121010000D02*
X162810000Y-121490000D01*
X162970000Y-121640000D02*
X163330000Y-121640000D01*
X163330000Y-120860000D02*
X162970000Y-120860000D01*
X163670000Y-120860000D02*
X164030000Y-120860000D01*
X164030000Y-121640000D02*
X163670000Y-121640000D01*
X164190000Y-121010000D02*
X164190000Y-121490000D01*
X162810000Y-121010000D02*
G75*
G02*
X162970333Y-120860355I150001J0D01*
G01*
X162970000Y-121640000D02*
G75*
G02*
X162809668Y-121489643I-9999J150001D01*
G01*
X164029667Y-120860356D02*
G75*
G02*
X164190000Y-121010000I10333J-149644D01*
G01*
X164190333Y-121489643D02*
G75*
G02*
X164030000Y-121640000I-150333J-357D01*
G01*
%TO.C,R29*%
X144630000Y-123860000D02*
X145080000Y-123860000D01*
X144630000Y-124640000D02*
X144630000Y-123860000D01*
X145080000Y-124640000D02*
X144630000Y-124640000D01*
X145420000Y-124640000D02*
X145870000Y-124640000D01*
X145870000Y-123860000D02*
X145420000Y-123860000D01*
X145870000Y-124640000D02*
X145870000Y-123860000D01*
%TO.C,C129*%
X168360000Y-118330000D02*
X168360000Y-117970000D01*
X168360000Y-118670000D02*
X168360000Y-119030000D01*
X168510000Y-117810000D02*
X168990000Y-117810000D01*
X168510000Y-119190000D02*
X168990000Y-119190000D01*
X169140000Y-117970000D02*
X169140000Y-118330000D01*
X169140000Y-119030000D02*
X169140000Y-118670000D01*
X168360356Y-117970333D02*
G75*
G02*
X168510000Y-117810000I149644J10333D01*
G01*
X168510000Y-119190000D02*
G75*
G02*
X168360355Y-119029667I0J150001D01*
G01*
X168989643Y-117809667D02*
G75*
G02*
X169140000Y-117970000I357J-150333D01*
G01*
X169140000Y-119030000D02*
G75*
G02*
X168989643Y-119190332I-150001J-9999D01*
G01*
%TO.C,C11*%
X156610000Y-120470000D02*
X156610000Y-120830000D01*
X156610000Y-121530000D02*
X156610000Y-121170000D01*
X157240000Y-120310000D02*
X156760000Y-120310000D01*
X157240000Y-121690000D02*
X156760000Y-121690000D01*
X157390000Y-120830000D02*
X157390000Y-120470000D01*
X157390000Y-121170000D02*
X157390000Y-121530000D01*
X156610000Y-120470000D02*
G75*
G02*
X156760357Y-120309668I150001J9999D01*
G01*
X156760357Y-121690333D02*
G75*
G02*
X156610000Y-121530000I-357J150333D01*
G01*
X157240000Y-120310000D02*
G75*
G02*
X157389645Y-120470333I0J-150001D01*
G01*
X157389644Y-121529667D02*
G75*
G02*
X157240000Y-121690000I-149644J-10333D01*
G01*
%TO.C,C125*%
X158310000Y-120240000D02*
X158310000Y-119760000D01*
X158470000Y-119610000D02*
X158830000Y-119610000D01*
X158830000Y-120390000D02*
X158470000Y-120390000D01*
X159170000Y-120390000D02*
X159530000Y-120390000D01*
X159530000Y-119610000D02*
X159170000Y-119610000D01*
X159690000Y-120240000D02*
X159690000Y-119760000D01*
X158309667Y-119760357D02*
G75*
G02*
X158470000Y-119610000I150333J357D01*
G01*
X158470333Y-120389644D02*
G75*
G02*
X158310000Y-120240000I-10333J149644D01*
G01*
X159530000Y-119610000D02*
G75*
G02*
X159690332Y-119760357I9999J-150001D01*
G01*
X159690000Y-120240000D02*
G75*
G02*
X159529667Y-120389645I-150001J0D01*
G01*
%TO.C,R22*%
X161610000Y-122630000D02*
X162390000Y-122630000D01*
X161610000Y-123080000D02*
X161610000Y-122630000D01*
X161610000Y-123420000D02*
X161610000Y-123870000D01*
X161610000Y-123870000D02*
X162390000Y-123870000D01*
X162390000Y-122630000D02*
X162390000Y-123080000D01*
X162390000Y-123870000D02*
X162390000Y-123420000D01*
D12*
%TO.C,U8*%
X153200000Y-99500000D02*
X153200000Y-100100000D01*
X153200000Y-105900000D02*
X153200000Y-105300000D01*
X153800000Y-99500000D02*
X153200000Y-99500000D01*
X153800000Y-105900000D02*
X153200000Y-105900000D01*
X159000000Y-105900000D02*
X159600000Y-105900000D01*
X159600000Y-99500000D02*
X159000000Y-99500000D01*
X159600000Y-100100000D02*
X159600000Y-99500000D01*
X159600000Y-105900000D02*
X159600000Y-105300000D01*
D14*
X159950001Y-99700000D02*
X159950001Y-99700000D01*
X159950001Y-99700000D01*
X159950001Y-99700000D01*
X159950001Y-99700000D01*
X159950001Y-99700000D01*
X159950001Y-99700001D01*
X159950001Y-99700001D01*
X159950001Y-99700001D01*
X159950001Y-99700001D01*
X159950001Y-99700001D01*
X159950001Y-99700001D01*
X159950001Y-99700001D01*
X159950000Y-99700001D01*
X159950000Y-99700001D01*
X159950000Y-99700001D01*
X159950000Y-99700001D01*
X159950000Y-99700001D01*
X159950000Y-99700001D01*
X159950000Y-99700001D01*
X159950000Y-99700001D01*
X159950000Y-99700001D01*
X159950000Y-99700001D01*
X159950000Y-99700001D01*
X159950000Y-99700001D01*
X159949999Y-99700001D01*
X159949999Y-99700001D01*
X159949999Y-99700001D01*
X159949999Y-99700001D01*
X159949999Y-99700001D01*
X159949999Y-99700001D01*
X159949999Y-99700000D01*
X159949999Y-99700000D01*
X159949999Y-99700000D01*
X159949999Y-99700000D01*
X159949999Y-99700000D01*
X159949999Y-99700000D01*
X159949999Y-99700000D02*
X159949999Y-99700000D01*
X159949999Y-99700000D01*
X159949999Y-99700000D01*
X159949999Y-99700000D01*
X159949999Y-99700000D01*
X159949999Y-99700000D01*
X159949999Y-99699999D01*
X159949999Y-99699999D01*
X159949999Y-99699999D01*
X159949999Y-99699999D01*
X159949999Y-99699999D01*
X159950000Y-99699999D01*
X159950000Y-99699999D01*
X159950000Y-99699999D01*
X159950000Y-99699999D01*
X159950000Y-99699999D01*
X159950000Y-99699999D01*
X159950000Y-99699999D01*
X159950000Y-99699999D01*
X159950000Y-99699999D01*
X159950000Y-99699999D01*
X159950000Y-99699999D01*
X159950000Y-99699999D01*
X159950001Y-99699999D01*
X159950001Y-99699999D01*
X159950001Y-99699999D01*
X159950001Y-99699999D01*
X159950001Y-99699999D01*
X159950001Y-99699999D01*
X159950001Y-99700000D01*
X159950001Y-99700000D01*
X159950001Y-99700000D01*
X159950001Y-99700000D01*
X159950001Y-99700000D01*
X159950001Y-99700000D01*
X159950001Y-99700000D01*
D10*
%TO.C,U2*%
X154920000Y-113920000D02*
X154920000Y-114170000D01*
X154920000Y-116580000D02*
X154920000Y-116330000D01*
X155670000Y-113920000D02*
X154920000Y-113920000D01*
X155670000Y-116580000D02*
X154920000Y-116580000D01*
X157330000Y-113920000D02*
X158080000Y-113920000D01*
X157330000Y-116580000D02*
X158080000Y-116580000D01*
X158080000Y-113920000D02*
X158080000Y-114170000D01*
X158080000Y-116580000D02*
X158080000Y-116330000D01*
X158480000Y-114490000D02*
G75*
G02*
X158340000Y-114490000I-70000J0D01*
G01*
X158340000Y-114490000D02*
G75*
G02*
X158480000Y-114490000I70000J0D01*
G01*
D11*
%TO.C,R1*%
X137227064Y-109015000D02*
X136772936Y-109015000D01*
X137227064Y-110485000D02*
X136772936Y-110485000D01*
D15*
%TO.C,Q2*%
X143050000Y-123850000D02*
X143050000Y-124350000D01*
X143050000Y-123850000D02*
X143950000Y-123850000D01*
X143050000Y-125150000D02*
X143050000Y-125650000D01*
X143050000Y-125650000D02*
X143950000Y-125650000D01*
X143950000Y-123850000D02*
X143950000Y-123850000D01*
X143950000Y-124650000D02*
X143950000Y-124850000D01*
X143950000Y-125650000D02*
X143950000Y-125650000D01*
X144330000Y-123740000D02*
G75*
G02*
X144190000Y-123740000I-70000J0D01*
G01*
X144190000Y-123740000D02*
G75*
G02*
X144330000Y-123740000I70000J0D01*
G01*
D10*
%TO.C,U48*%
X157920000Y-120300000D02*
X157980000Y-120300000D01*
X157920000Y-121700000D02*
X157920000Y-120300000D01*
X157920000Y-121700000D02*
X157980000Y-121700000D01*
X158530000Y-120300000D02*
X158630000Y-120300000D01*
X158530000Y-121700000D02*
X158630000Y-121700000D01*
X159180000Y-120300000D02*
X159240000Y-120300000D01*
X159180000Y-121700000D02*
X159240000Y-121700000D01*
X159240000Y-121700000D02*
X159240000Y-120300000D01*
X157760000Y-120450000D02*
G75*
G02*
X157600000Y-120450000I-80000J0D01*
G01*
X157600000Y-120450000D02*
G75*
G02*
X157760000Y-120450000I80000J0D01*
G01*
%TO.C,C17*%
X143100000Y-117690000D02*
X143100000Y-119100000D01*
X143100000Y-121310000D02*
X143100000Y-119900000D01*
X144750000Y-117540000D02*
X143250000Y-117540000D01*
X144750000Y-121460000D02*
X143250000Y-121460000D01*
X144900000Y-119100000D02*
X144900000Y-117690000D01*
X144900000Y-119900000D02*
X144900000Y-121310000D01*
X143100000Y-117690000D02*
G75*
G02*
X143250000Y-117540000I150000J0D01*
G01*
X143250000Y-121460000D02*
G75*
G02*
X143100000Y-121310000I0J150000D01*
G01*
X144750000Y-117540000D02*
G75*
G02*
X144900000Y-117690000I0J-150000D01*
G01*
X144900000Y-121310000D02*
G75*
G02*
X144750000Y-121460000I-150000J0D01*
G01*
%TO.C,R245*%
X139110000Y-116880000D02*
X139890000Y-116880000D01*
X139110000Y-117330000D02*
X139110000Y-116880000D01*
X139110000Y-117670000D02*
X139110000Y-118120000D01*
X139110000Y-118120000D02*
X139890000Y-118120000D01*
X139890000Y-116880000D02*
X139890000Y-117330000D01*
X139890000Y-118120000D02*
X139890000Y-117670000D01*
%TO.C,C130*%
X153110000Y-120330000D02*
X153110000Y-119970000D01*
X153110000Y-120670000D02*
X153110000Y-121030000D01*
X153260000Y-119810000D02*
X153740000Y-119810000D01*
X153260000Y-121190000D02*
X153740000Y-121190000D01*
X153890000Y-119970000D02*
X153890000Y-120330000D01*
X153890000Y-121030000D02*
X153890000Y-120670000D01*
X153110356Y-119970333D02*
G75*
G02*
X153260000Y-119810000I149644J10333D01*
G01*
X153260000Y-121190000D02*
G75*
G02*
X153110355Y-121029667I0J150001D01*
G01*
X153739643Y-119809667D02*
G75*
G02*
X153890000Y-119970000I357J-150333D01*
G01*
X153890000Y-121030000D02*
G75*
G02*
X153739643Y-121190332I-150001J-9999D01*
G01*
%TO.C,C16*%
X163060000Y-93490000D02*
X163060000Y-93010000D01*
X163220000Y-92860000D02*
X163580000Y-92860000D01*
X163580000Y-93640000D02*
X163220000Y-93640000D01*
X163920000Y-93640000D02*
X164280000Y-93640000D01*
X164280000Y-92860000D02*
X163920000Y-92860000D01*
X164440000Y-93490000D02*
X164440000Y-93010000D01*
X163059667Y-93010357D02*
G75*
G02*
X163220000Y-92860000I150333J357D01*
G01*
X163220333Y-93639644D02*
G75*
G02*
X163060000Y-93490000I-10333J149644D01*
G01*
X164280000Y-92860000D02*
G75*
G02*
X164440332Y-93010357I9999J-150001D01*
G01*
X164440000Y-93490000D02*
G75*
G02*
X164279667Y-93639645I-150001J0D01*
G01*
%TO.C,C6*%
X143560000Y-91260000D02*
X143560000Y-91740000D01*
X143720000Y-91890000D02*
X144080000Y-91890000D01*
X144080000Y-91110000D02*
X143720000Y-91110000D01*
X144420000Y-91110000D02*
X144780000Y-91110000D01*
X144780000Y-91890000D02*
X144420000Y-91890000D01*
X144940000Y-91260000D02*
X144940000Y-91740000D01*
X143560000Y-91260000D02*
G75*
G02*
X143720333Y-91110355I150001J0D01*
G01*
X143720000Y-91890000D02*
G75*
G02*
X143559668Y-91739643I-9999J150001D01*
G01*
X144779667Y-91110356D02*
G75*
G02*
X144940000Y-91260000I10333J-149644D01*
G01*
X144940333Y-91739643D02*
G75*
G02*
X144780000Y-91890000I-150333J-357D01*
G01*
%TO.C,C13*%
X153580000Y-92240000D02*
X153580000Y-91760000D01*
X153740000Y-91610000D02*
X154100000Y-91610000D01*
X154100000Y-92390000D02*
X153740000Y-92390000D01*
X154440000Y-92390000D02*
X154800000Y-92390000D01*
X154800000Y-91610000D02*
X154440000Y-91610000D01*
X154960000Y-92240000D02*
X154960000Y-91760000D01*
X153579667Y-91760357D02*
G75*
G02*
X153740000Y-91610000I150333J357D01*
G01*
X153740333Y-92389644D02*
G75*
G02*
X153580000Y-92240000I-10333J149644D01*
G01*
X154800000Y-91610000D02*
G75*
G02*
X154960332Y-91760357I9999J-150001D01*
G01*
X154960000Y-92240000D02*
G75*
G02*
X154799667Y-92389645I-150001J0D01*
G01*
%TO.C,R23*%
X153860000Y-112880000D02*
X154640000Y-112880000D01*
X153860000Y-113330000D02*
X153860000Y-112880000D01*
X153860000Y-113670000D02*
X153860000Y-114120000D01*
X153860000Y-114120000D02*
X154640000Y-114120000D01*
X154640000Y-112880000D02*
X154640000Y-113330000D01*
X154640000Y-114120000D02*
X154640000Y-113670000D01*
%TO.C,R20*%
X166130000Y-112360000D02*
X166130000Y-113140000D01*
X166130000Y-113140000D02*
X166580000Y-113140000D01*
X166580000Y-112360000D02*
X166130000Y-112360000D01*
X166920000Y-112360000D02*
X167370000Y-112360000D01*
X167370000Y-112360000D02*
X167370000Y-113140000D01*
X167370000Y-113140000D02*
X166920000Y-113140000D01*
%TO.C,C8*%
X169860000Y-109720000D02*
X169860000Y-110080000D01*
X169860000Y-110780000D02*
X169860000Y-110420000D01*
X170490000Y-109560000D02*
X170010000Y-109560000D01*
X170490000Y-110940000D02*
X170010000Y-110940000D01*
X170640000Y-110080000D02*
X170640000Y-109720000D01*
X170640000Y-110420000D02*
X170640000Y-110780000D01*
X169860000Y-109720000D02*
G75*
G02*
X170010357Y-109559668I150001J9999D01*
G01*
X170010357Y-110940333D02*
G75*
G02*
X169860000Y-110780000I-357J150333D01*
G01*
X170490000Y-109560000D02*
G75*
G02*
X170639645Y-109720333I0J-150001D01*
G01*
X170639644Y-110779667D02*
G75*
G02*
X170490000Y-110940000I-149644J-10333D01*
G01*
%TO.C,C132*%
X169360000Y-106080000D02*
X169360000Y-105720000D01*
X169360000Y-106420000D02*
X169360000Y-106780000D01*
X169510000Y-105560000D02*
X169990000Y-105560000D01*
X169510000Y-106940000D02*
X169990000Y-106940000D01*
X170140000Y-105720000D02*
X170140000Y-106080000D01*
X170140000Y-106780000D02*
X170140000Y-106420000D01*
X169360356Y-105720333D02*
G75*
G02*
X169510000Y-105560000I149644J10333D01*
G01*
X169510000Y-106940000D02*
G75*
G02*
X169360355Y-106779667I0J150001D01*
G01*
X169989643Y-105559667D02*
G75*
G02*
X170140000Y-105720000I357J-150333D01*
G01*
X170140000Y-106780000D02*
G75*
G02*
X169989643Y-106940332I-150001J-9999D01*
G01*
D15*
%TO.C,Q1*%
X167800000Y-102350000D02*
X167800000Y-102350000D01*
X167800000Y-103350000D02*
X167800000Y-103150000D01*
X167800000Y-104150000D02*
X167800000Y-104150000D01*
X168700000Y-102350000D02*
X167800000Y-102350000D01*
X168700000Y-102850000D02*
X168700000Y-102350000D01*
X168700000Y-104150000D02*
X167800000Y-104150000D01*
X168700000Y-104150000D02*
X168700000Y-103650000D01*
X167560000Y-104260000D02*
G75*
G02*
X167420000Y-104260000I-70000J0D01*
G01*
X167420000Y-104260000D02*
G75*
G02*
X167560000Y-104260000I70000J0D01*
G01*
%TD*%
M02*
