%TF.GenerationSoftware,KiCad,Pcbnew,9.0.6*%
%TF.CreationDate,2025-12-27T02:42:01+01:00*%
%TF.ProjectId,hardware,68617264-7761-4726-952e-6b696361645f,rev?*%
%TF.SameCoordinates,Original*%
%TF.FileFunction,Copper,L4,Bot*%
%TF.FilePolarity,Positive*%
%FSLAX46Y46*%
G04 Gerber Fmt 4.6, Leading zero omitted, Abs format (unit mm)*
G04 Created by KiCad (PCBNEW 9.0.6) date 2025-12-27 02:42:01*
%MOMM*%
%LPD*%
G01*
G04 APERTURE LIST*
G04 Aperture macros list*
%AMRoundRect*
0 Rectangle with rounded corners*
0 $1 Rounding radius*
0 $2 $3 $4 $5 $6 $7 $8 $9 X,Y pos of 4 corners*
0 Add a 4 corners polygon primitive as box body*
4,1,4,$2,$3,$4,$5,$6,$7,$8,$9,$2,$3,0*
0 Add four circle primitives for the rounded corners*
1,1,$1+$1,$2,$3*
1,1,$1+$1,$4,$5*
1,1,$1+$1,$6,$7*
1,1,$1+$1,$8,$9*
0 Add four rect primitives between the rounded corners*
20,1,$1+$1,$2,$3,$4,$5,0*
20,1,$1+$1,$4,$5,$6,$7,0*
20,1,$1+$1,$6,$7,$8,$9,0*
20,1,$1+$1,$8,$9,$2,$3,0*%
%AMRotRect*
0 Rectangle, with rotation*
0 The origin of the aperture is its center*
0 $1 length*
0 $2 width*
0 $3 Rotation angle, in degrees counterclockwise*
0 Add horizontal line*
21,1,$1,$2,0,0,$3*%
%AMFreePoly0*
4,1,13,0.135355,0.205355,0.150000,0.170000,0.150000,-0.080000,0.135355,-0.115355,-0.064645,-0.315355,-0.100000,-0.330000,-0.135355,-0.315355,-0.150000,-0.280000,-0.150000,0.170000,-0.135355,0.205355,-0.100000,0.220000,0.100000,0.220000,0.135355,0.205355,0.135355,0.205355,$1*%
%AMFreePoly1*
4,1,14,0.125355,0.205355,0.140000,0.170000,0.140000,-0.230000,0.125355,-0.265355,0.090000,-0.280000,0.040000,-0.280000,0.004645,-0.265355,-0.145355,-0.115355,-0.160000,-0.080000,-0.160000,0.170000,-0.145355,0.205355,-0.110000,0.220000,0.090000,0.220000,0.125355,0.205355,0.125355,0.205355,$1*%
%AMFreePoly2*
4,1,14,0.125355,0.255355,0.140000,0.220000,0.140000,-0.180000,0.125355,-0.215355,0.090000,-0.230000,-0.110000,-0.230000,-0.145355,-0.215355,-0.160000,-0.180000,-0.160000,0.070000,-0.145355,0.105355,0.004645,0.255355,0.040000,0.270000,0.090000,0.270000,0.125355,0.255355,0.125355,0.255355,$1*%
%AMFreePoly3*
4,1,14,-0.014645,0.265355,0.135355,0.115355,0.150000,0.080000,0.150000,-0.170000,0.135355,-0.205355,0.100000,-0.220000,-0.100000,-0.220000,-0.135355,-0.205355,-0.150000,-0.170000,-0.150000,0.230000,-0.135355,0.265355,-0.100000,0.280000,-0.050000,0.280000,-0.014645,0.265355,-0.014645,0.265355,$1*%
G04 Aperture macros list end*
%TA.AperFunction,ComponentPad*%
%ADD10C,0.700000*%
%TD*%
%TA.AperFunction,ComponentPad*%
%ADD11O,2.000000X1.100000*%
%TD*%
%TA.AperFunction,ComponentPad*%
%ADD12O,1.800000X1.200000*%
%TD*%
%TA.AperFunction,SMDPad,CuDef*%
%ADD13R,0.320000X0.370000*%
%TD*%
%TA.AperFunction,SMDPad,CuDef*%
%ADD14R,0.300000X0.320000*%
%TD*%
%TA.AperFunction,SMDPad,CuDef*%
%ADD15R,0.450000X0.450000*%
%TD*%
%TA.AperFunction,SMDPad,CuDef*%
%ADD16R,0.370000X0.320000*%
%TD*%
%TA.AperFunction,SMDPad,CuDef*%
%ADD17FreePoly0,0.000000*%
%TD*%
%TA.AperFunction,SMDPad,CuDef*%
%ADD18FreePoly1,0.000000*%
%TD*%
%TA.AperFunction,SMDPad,CuDef*%
%ADD19FreePoly2,0.000000*%
%TD*%
%TA.AperFunction,SMDPad,CuDef*%
%ADD20FreePoly3,0.000000*%
%TD*%
%TA.AperFunction,SMDPad,CuDef*%
%ADD21RotRect,0.450000X0.450000X315.000000*%
%TD*%
%TA.AperFunction,SMDPad,CuDef*%
%ADD22O,0.580000X1.280000*%
%TD*%
%TA.AperFunction,SMDPad,CuDef*%
%ADD23R,4.300000X3.400000*%
%TD*%
%TA.AperFunction,SMDPad,CuDef*%
%ADD24R,0.840000X0.910000*%
%TD*%
%TA.AperFunction,SMDPad,CuDef*%
%ADD25R,0.790000X0.540000*%
%TD*%
%TA.AperFunction,SMDPad,CuDef*%
%ADD26RoundRect,0.250000X0.650000X-1.000000X0.650000X1.000000X-0.650000X1.000000X-0.650000X-1.000000X0*%
%TD*%
%TA.AperFunction,SMDPad,CuDef*%
%ADD27R,0.320000X0.300000*%
%TD*%
%TA.AperFunction,SMDPad,CuDef*%
%ADD28R,1.200000X3.100000*%
%TD*%
%TA.AperFunction,SMDPad,CuDef*%
%ADD29R,1.350000X1.410000*%
%TD*%
%TA.AperFunction,SMDPad,CuDef*%
%ADD30RoundRect,0.250000X0.262500X0.450000X-0.262500X0.450000X-0.262500X-0.450000X0.262500X-0.450000X0*%
%TD*%
%TA.AperFunction,SMDPad,CuDef*%
%ADD31R,1.000000X0.200000*%
%TD*%
%TA.AperFunction,SMDPad,CuDef*%
%ADD32R,0.200000X1.000000*%
%TD*%
%TA.AperFunction,SMDPad,CuDef*%
%ADD33R,3.200000X3.200000*%
%TD*%
%TA.AperFunction,SMDPad,CuDef*%
%ADD34R,0.680000X0.280000*%
%TD*%
%TA.AperFunction,SMDPad,CuDef*%
%ADD35R,0.280000X0.680000*%
%TD*%
%TA.AperFunction,SMDPad,CuDef*%
%ADD36R,0.510000X0.400000*%
%TD*%
%TA.AperFunction,ViaPad*%
%ADD37C,0.600000*%
%TD*%
%TA.AperFunction,ViaPad*%
%ADD38C,5.000000*%
%TD*%
%TA.AperFunction,Conductor*%
%ADD39C,0.200000*%
%TD*%
%TA.AperFunction,Conductor*%
%ADD40C,0.150000*%
%TD*%
%TA.AperFunction,Conductor*%
%ADD41C,0.250000*%
%TD*%
%TA.AperFunction,Conductor*%
%ADD42C,0.500000*%
%TD*%
G04 APERTURE END LIST*
D10*
%TO.P,USB1,*%
%TO.N,*%
X138882500Y-105110000D03*
X138882500Y-110890000D03*
D11*
%TO.P,USB1,13,SHELL*%
%TO.N,GND*%
X139412500Y-103680000D03*
D12*
X135202500Y-103680000D03*
D11*
%TO.P,USB1,14,SHELL*%
X139412500Y-112320000D03*
D12*
X135202500Y-112320000D03*
%TD*%
D13*
%TO.P,C10,1,1*%
%TO.N,GND*%
X155000000Y-117020000D03*
%TO.P,C10,2,2*%
%TO.N,Net-(U2-VDD)*%
X155000000Y-116480000D03*
%TD*%
D14*
%TO.P,R15,1,1*%
%TO.N,/AT32/VBATADC*%
X156750000Y-92500000D03*
%TO.P,R15,2,2*%
%TO.N,VBAT*%
X156270000Y-92500000D03*
%TD*%
D15*
%TO.P,U1,1,GND*%
%TO.N,GND*%
X169480000Y-112030000D03*
%TO.P,U1,2,CSB*%
%TO.N,3V3-MCU*%
X168820000Y-112030000D03*
%TO.P,U1,3,SDA*%
%TO.N,SDA*%
X168180000Y-112030000D03*
%TO.P,U1,4,SCK*%
%TO.N,SCL*%
X167520000Y-112030000D03*
%TO.P,U1,5,SDO*%
%TO.N,GND*%
X167520000Y-113470000D03*
%TO.P,U1,6,VDDIO*%
%TO.N,3V3-MCU*%
X168180000Y-113470000D03*
%TO.P,U1,7,GND*%
%TO.N,GND*%
X168820000Y-113470000D03*
%TO.P,U1,8,VDD*%
%TO.N,3V3-MCU*%
X169480000Y-113470000D03*
%TD*%
D14*
%TO.P,R19,1,1*%
%TO.N,3V3-MCU*%
X166260000Y-112000000D03*
%TO.P,R19,2,2*%
%TO.N,SCL*%
X166740000Y-112000000D03*
%TD*%
D13*
%TO.P,C21,1,1*%
%TO.N,GND*%
X157400000Y-90430000D03*
%TO.P,C21,2,2*%
%TO.N,/AT32/VBATADC*%
X157400000Y-90970000D03*
%TD*%
%TO.P,C127,1,1*%
%TO.N,GND*%
X170750000Y-110520000D03*
%TO.P,C127,2,2*%
%TO.N,3V3-MCU*%
X170750000Y-109980000D03*
%TD*%
%TO.P,C133,1,1*%
%TO.N,GND*%
X154000000Y-120230000D03*
%TO.P,C133,2,2*%
%TO.N,3V3-IMU*%
X154000000Y-120770000D03*
%TD*%
%TO.P,C4,1,1*%
%TO.N,GND*%
X154500000Y-120230000D03*
%TO.P,C4,2,2*%
%TO.N,3V3-IMU*%
X154500000Y-120770000D03*
%TD*%
D16*
%TO.P,C131,1,1*%
%TO.N,GND*%
X156020000Y-120250000D03*
%TO.P,C131,2,2*%
%TO.N,Net-(U53-EP)*%
X155480000Y-120250000D03*
%TD*%
D17*
%TO.P,U53,1,OUT*%
%TO.N,3V3-IMU*%
X155090000Y-120750000D03*
D18*
%TO.P,U53,2,GND*%
%TO.N,GND*%
X155750000Y-120750000D03*
D19*
%TO.P,U53,3,EN*%
%TO.N,5V*%
X155750000Y-121700000D03*
D20*
%TO.P,U53,4,IN*%
X155090000Y-121710000D03*
D21*
%TO.P,U53,5,EP*%
%TO.N,Net-(U53-EP)*%
X155420000Y-121230000D03*
%TD*%
D22*
%TO.P,U73,1,#CS*%
%TO.N,BOX_CS*%
X163660000Y-118260000D03*
%TO.P,U73,2,DO/IO1*%
%TO.N,SPI2_MISO*%
X162380000Y-118260000D03*
%TO.P,U73,3,#WP/IO2*%
%TO.N,3V3-MCU*%
X161120000Y-118260000D03*
%TO.P,U73,4,GND*%
%TO.N,GND*%
X159850000Y-118260000D03*
%TO.P,U73,5,DI/IO0*%
%TO.N,SPI2_MOSI*%
X159850000Y-112240000D03*
%TO.P,U73,6,CLK*%
%TO.N,SPI2_SCK*%
X161120000Y-112240000D03*
%TO.P,U73,7,#HOLD-OR-#REST/IO3*%
%TO.N,3V3-MCU*%
X162380000Y-112240000D03*
%TO.P,U73,8,VCC*%
X163660000Y-112240000D03*
D23*
%TO.P,U73,9,EP*%
%TO.N,GND*%
X161750000Y-115250000D03*
%TD*%
D13*
%TO.P,C124,1,1*%
%TO.N,3V3-MCU*%
X171250000Y-109980000D03*
%TO.P,C124,2,2*%
%TO.N,GND*%
X171250000Y-110520000D03*
%TD*%
%TO.P,C5,1,1*%
%TO.N,GND*%
X155500000Y-117020000D03*
%TO.P,C5,2,2*%
%TO.N,Net-(U2-VDD)*%
X155500000Y-116480000D03*
%TD*%
D24*
%TO.P,D2,1,A*%
%TO.N,Net-(D2-A)*%
X165250000Y-120160000D03*
%TO.P,D2,2,C*%
%TO.N,5V*%
X165250000Y-116840000D03*
%TD*%
D25*
%TO.P,C29,1,1*%
%TO.N,Net-(C29-Pad1)*%
X160200000Y-124250000D03*
%TO.P,C29,2,2*%
%TO.N,Net-(U10-VOUT)*%
X161300000Y-124250000D03*
%TD*%
D13*
%TO.P,C14,1,1*%
%TO.N,3V3-IMU*%
X153000000Y-120770000D03*
%TO.P,C14,2,2*%
%TO.N,GND*%
X153000000Y-120230000D03*
%TD*%
D14*
%TO.P,R16,1,1*%
%TO.N,GND*%
X156270000Y-91750000D03*
%TO.P,R16,2,2*%
%TO.N,/AT32/VBATADC*%
X156750000Y-91750000D03*
%TD*%
D17*
%TO.P,U3,1,OUT*%
%TO.N,3V3*%
X156670000Y-121770000D03*
D18*
%TO.P,U3,2,GND*%
%TO.N,GND*%
X157330000Y-121770000D03*
D19*
%TO.P,U3,3,EN*%
%TO.N,5V*%
X157330000Y-122720000D03*
D20*
%TO.P,U3,4,IN*%
X156670000Y-122730000D03*
D21*
%TO.P,U3,5,EP*%
%TO.N,Net-(U3-EP)*%
X157000000Y-122250000D03*
%TD*%
D26*
%TO.P,D1,1*%
%TO.N,9V*%
X139800000Y-101100000D03*
%TO.P,D1,2*%
%TO.N,Net-(U7-SW)*%
X139800000Y-97100000D03*
%TD*%
D27*
%TO.P,R26,1,1*%
%TO.N,UART2_RX*%
X169750000Y-109510000D03*
%TO.P,R26,2,2*%
%TO.N,3V3-MCU*%
X169750000Y-109990000D03*
%TD*%
D28*
%TO.P,L3,1,1*%
%TO.N,Net-(U52-SW)*%
X137850000Y-117000000D03*
%TO.P,L3,2,2*%
%TO.N,Net-(D2-A)*%
X135650000Y-117000000D03*
%TD*%
D16*
%TO.P,C15,1,1*%
%TO.N,GND*%
X163480000Y-92750000D03*
%TO.P,C15,2,2*%
%TO.N,3V3*%
X164020000Y-92750000D03*
%TD*%
D29*
%TO.P,C18,1,1*%
%TO.N,GND*%
X142500000Y-118500000D03*
%TO.P,C18,2,2*%
%TO.N,9V*%
X142500000Y-120500000D03*
%TD*%
D16*
%TO.P,C126,1,1*%
%TO.N,GND*%
X161020000Y-96000000D03*
%TO.P,C126,2,2*%
%TO.N,5V*%
X160480000Y-96000000D03*
%TD*%
D30*
%TO.P,R2,1*%
%TO.N,Net-(USB1-CC1)*%
X137912500Y-106750000D03*
%TO.P,R2,2*%
%TO.N,GND*%
X136087500Y-106750000D03*
%TD*%
D16*
%TO.P,C3,1,1*%
%TO.N,GND*%
X143980000Y-92250000D03*
%TO.P,C3,2,2*%
%TO.N,5V*%
X144520000Y-92250000D03*
%TD*%
D13*
%TO.P,C123,1,1*%
%TO.N,GND*%
X169000000Y-106520000D03*
%TO.P,C123,2,2*%
%TO.N,5V*%
X169000000Y-105980000D03*
%TD*%
D16*
%TO.P,C27,1,1*%
%TO.N,GND*%
X163230000Y-121250000D03*
%TO.P,C27,2,2*%
%TO.N,Net-(D2-A)*%
X163770000Y-121250000D03*
%TD*%
D14*
%TO.P,R29,1,1*%
%TO.N,Net-(U8-PC15)*%
X145490000Y-124250000D03*
%TO.P,R29,2,2*%
%TO.N,Net-(Q2-B)*%
X145010000Y-124250000D03*
%TD*%
D13*
%TO.P,C129,1,1*%
%TO.N,GND*%
X168750000Y-118770000D03*
%TO.P,C129,2,2*%
%TO.N,5V*%
X168750000Y-118230000D03*
%TD*%
%TO.P,C11,1,1*%
%TO.N,GND*%
X157000000Y-120730000D03*
%TO.P,C11,2,2*%
%TO.N,Net-(U3-EP)*%
X157000000Y-121270000D03*
%TD*%
D16*
%TO.P,C125,1,1*%
%TO.N,GND*%
X159270000Y-120000000D03*
%TO.P,C125,2,2*%
%TO.N,Net-(U48-EP)*%
X158730000Y-120000000D03*
%TD*%
D27*
%TO.P,R22,1,1*%
%TO.N,Net-(C29-Pad1)*%
X162000000Y-123490000D03*
%TO.P,R22,2,2*%
%TO.N,VTX*%
X162000000Y-123010000D03*
%TD*%
D31*
%TO.P,U8,1,VBAT*%
%TO.N,3V3-MCU*%
X159500000Y-100500000D03*
%TO.P,U8,2,PC13*%
%TO.N,Net-(U8-PC13)*%
X159500000Y-100900000D03*
%TO.P,U8,3,PC14*%
%TO.N,Net-(U8-PC14)*%
X159500000Y-101300000D03*
%TO.P,U8,4,PC15*%
%TO.N,Net-(U8-PC15)*%
X159500000Y-101700000D03*
%TO.P,U8,5,PH0*%
%TO.N,Net-(U4-Output)*%
X159500000Y-102100000D03*
%TO.P,U8,6,PH1*%
%TO.N,Net-(U4-Input)*%
X159500000Y-102500000D03*
%TO.P,U8,7,NRST*%
%TO.N,Net-(U8-NRST)*%
X159500000Y-102900000D03*
%TO.P,U8,8,VSSA/VREF-*%
%TO.N,GND*%
X159500000Y-103300000D03*
%TO.P,U8,9,VDDA/VREF+*%
%TO.N,3V3-IMU*%
X159500000Y-103700000D03*
%TO.P,U8,10,PA0*%
%TO.N,/AT32/VBATADC*%
X159500000Y-104100000D03*
%TO.P,U8,11,PA1*%
%TO.N,CUR*%
X159500000Y-104500000D03*
%TO.P,U8,12,PA2*%
%TO.N,UART2_TX*%
X159500000Y-104900000D03*
D32*
%TO.P,U8,13,PA3*%
%TO.N,PWM3*%
X158600000Y-105800000D03*
%TO.P,U8,14,PA4*%
%TO.N,SP1_CS*%
X158200000Y-105800000D03*
%TO.P,U8,15,PA5*%
%TO.N,SP1_SCK*%
X157800000Y-105800000D03*
%TO.P,U8,16,PA6*%
%TO.N,SP1_MISO*%
X157400000Y-105800000D03*
%TO.P,U8,17,PA7*%
%TO.N,SP1_MOSI*%
X157000000Y-105800000D03*
%TO.P,U8,18,PB0*%
%TO.N,UART2_RX*%
X156600000Y-105800000D03*
%TO.P,U8,19,PB1*%
%TO.N,PWM4*%
X156200000Y-105800000D03*
%TO.P,U8,20,PB2*%
%TO.N,Net-(U8-PB2)*%
X155800000Y-105800000D03*
%TO.P,U8,21,PB10*%
%TO.N,UART3_RX*%
X155400000Y-105800000D03*
%TO.P,U8,22,PB11*%
%TO.N,UART3_TX*%
X155000000Y-105800000D03*
%TO.P,U8,23,PH3*%
%TO.N,SDA*%
X154600000Y-105800000D03*
%TO.P,U8,24,VDD*%
%TO.N,3V3-MCU*%
X154200000Y-105800000D03*
D31*
%TO.P,U8,25,PB12*%
%TO.N,SPI2_CS*%
X153300000Y-104900000D03*
%TO.P,U8,26,PB13*%
%TO.N,SPI2_SCK*%
X153300000Y-104500000D03*
%TO.P,U8,27,PB14*%
%TO.N,SPI2_MISO*%
X153300000Y-104100000D03*
%TO.P,U8,28,PB15*%
%TO.N,SPI2_MOSI*%
X153300000Y-103700000D03*
%TO.P,U8,29,PA8*%
%TO.N,LED*%
X153300000Y-103300000D03*
%TO.P,U8,30,PA9*%
%TO.N,UART1_TX*%
X153300000Y-102900000D03*
%TO.P,U8,31,PA10*%
%TO.N,UART1_RX*%
X153300000Y-102500000D03*
%TO.P,U8,32,PA11*%
%TO.N,D-*%
X153300000Y-102100000D03*
%TO.P,U8,33,PA12*%
%TO.N,D+*%
X153300000Y-101700000D03*
%TO.P,U8,34,PA13*%
%TO.N,SWDIO*%
X153300000Y-101300000D03*
%TO.P,U8,35,PH2*%
%TO.N,SCL*%
X153300000Y-100900000D03*
%TO.P,U8,36,VDD*%
%TO.N,3V3-MCU*%
X153300000Y-100500000D03*
D32*
%TO.P,U8,37,PA14*%
%TO.N,SWDCLK*%
X154200000Y-99600000D03*
%TO.P,U8,38,PA15*%
%TO.N,GYRO_EXTI*%
X154600000Y-99600000D03*
%TO.P,U8,39,PB3*%
%TO.N,UART7_RX*%
X155000000Y-99600000D03*
%TO.P,U8,40,PB4*%
%TO.N,UART7_TX*%
X155400000Y-99600000D03*
%TO.P,U8,41,PB5*%
%TO.N,BOX_CS*%
X155800000Y-99600000D03*
%TO.P,U8,42,PB6*%
%TO.N,PWM1*%
X156200000Y-99600000D03*
%TO.P,U8,43,PB7*%
%TO.N,PWM2*%
X156600000Y-99600000D03*
%TO.P,U8,44,BOOT0*%
%TO.N,BOOT*%
X157000000Y-99600000D03*
%TO.P,U8,45,PB8*%
%TO.N,UART5_RX*%
X157400000Y-99600000D03*
%TO.P,U8,46,PB9*%
%TO.N,UART5_TX*%
X157800000Y-99600000D03*
%TO.P,U8,47,VSS*%
%TO.N,GND*%
X158200000Y-99600000D03*
%TO.P,U8,48,VDD*%
%TO.N,3V3-MCU*%
X158600000Y-99600000D03*
D33*
%TO.P,U8,49,EP*%
%TO.N,GND*%
X156400000Y-102700000D03*
%TD*%
D34*
%TO.P,U2,1,AP_SDO/AP_AD0*%
%TO.N,SP1_MISO*%
X157760000Y-114500000D03*
%TO.P,U2,2,RESV*%
%TO.N,unconnected-(U2-RESV-Pad2)*%
X157760000Y-115000000D03*
%TO.P,U2,3,RESV*%
%TO.N,unconnected-(U2-RESV-Pad3)*%
X157760000Y-115500000D03*
%TO.P,U2,4,INT1/INT*%
%TO.N,GYRO_EXTI*%
X157760000Y-116000000D03*
D35*
%TO.P,U2,5,VDDIO*%
%TO.N,3V3-IMU*%
X157000000Y-116260000D03*
%TO.P,U2,6,GND*%
%TO.N,GND*%
X156500000Y-116260000D03*
%TO.P,U2,7,RESV*%
X156000000Y-116260000D03*
D34*
%TO.P,U2,8,VDD*%
%TO.N,Net-(U2-VDD)*%
X155240000Y-116000000D03*
%TO.P,U2,9,INT2/FSYNC/CLKIN*%
%TO.N,unconnected-(U2-INT2{slash}FSYNC{slash}CLKIN-Pad9)*%
X155240000Y-115500000D03*
%TO.P,U2,10,RESV*%
%TO.N,unconnected-(U2-RESV-Pad10)*%
X155240000Y-115000000D03*
%TO.P,U2,11,RESV*%
%TO.N,unconnected-(U2-RESV-Pad11)*%
X155240000Y-114500000D03*
D35*
%TO.P,U2,12,AP_CS*%
%TO.N,SP1_CS*%
X156000000Y-114240000D03*
%TO.P,U2,13,AP_SCL/AP_SCLK*%
%TO.N,SP1_SCK*%
X156500000Y-114240000D03*
%TO.P,U2,14,AP_SDA/AP_SDIO/AP_SDI*%
%TO.N,SP1_MOSI*%
X157000000Y-114240000D03*
%TD*%
D30*
%TO.P,R1,1*%
%TO.N,Net-(USB1-CC2)*%
X137912500Y-109750000D03*
%TO.P,R1,2*%
%TO.N,GND*%
X136087500Y-109750000D03*
%TD*%
D36*
%TO.P,Q2,1,B*%
%TO.N,Net-(Q2-B)*%
X144150000Y-124250000D03*
%TO.P,Q2,2,E*%
%TO.N,GND*%
X144150000Y-125250000D03*
%TO.P,Q2,3,C*%
%TO.N,BB-*%
X142850000Y-124750000D03*
%TD*%
D17*
%TO.P,U48,1,OUT*%
%TO.N,3V3-MCU*%
X158250000Y-120520000D03*
D18*
%TO.P,U48,2,GND*%
%TO.N,GND*%
X158910000Y-120520000D03*
D19*
%TO.P,U48,3,EN*%
%TO.N,5V*%
X158910000Y-121470000D03*
D20*
%TO.P,U48,4,IN*%
X158250000Y-121480000D03*
D21*
%TO.P,U48,5,EP*%
%TO.N,Net-(U48-EP)*%
X158580000Y-121000000D03*
%TD*%
D29*
%TO.P,C17,1,1*%
%TO.N,GND*%
X144000000Y-118500000D03*
%TO.P,C17,2,2*%
%TO.N,5V*%
X144000000Y-120500000D03*
%TD*%
D27*
%TO.P,R245,1,1*%
%TO.N,Net-(U52-VCC)*%
X139500000Y-117740000D03*
%TO.P,R245,2,2*%
%TO.N,Net-(U52-PG)*%
X139500000Y-117260000D03*
%TD*%
D13*
%TO.P,C130,1,1*%
%TO.N,3V3-IMU*%
X153500000Y-120770000D03*
%TO.P,C130,2,2*%
%TO.N,GND*%
X153500000Y-120230000D03*
%TD*%
D16*
%TO.P,C16,1,1*%
%TO.N,3V3*%
X164020000Y-93250000D03*
%TO.P,C16,2,2*%
%TO.N,GND*%
X163480000Y-93250000D03*
%TD*%
%TO.P,C6,1,1*%
%TO.N,GND*%
X143980000Y-91500000D03*
%TO.P,C6,2,2*%
%TO.N,5V*%
X144520000Y-91500000D03*
%TD*%
%TO.P,C13,1,1*%
%TO.N,GND*%
X154540000Y-92000000D03*
%TO.P,C13,2,2*%
%TO.N,CUR*%
X154000000Y-92000000D03*
%TD*%
D27*
%TO.P,R23,1,1*%
%TO.N,5V*%
X154250000Y-113740000D03*
%TO.P,R23,2,2*%
%TO.N,SPI2_CS*%
X154250000Y-113260000D03*
%TD*%
D14*
%TO.P,R20,1,1*%
%TO.N,3V3-MCU*%
X166510000Y-112750000D03*
%TO.P,R20,2,2*%
%TO.N,SDA*%
X166990000Y-112750000D03*
%TD*%
D13*
%TO.P,C8,1,1*%
%TO.N,3V3-MCU*%
X170250000Y-109980000D03*
%TO.P,C8,2,2*%
%TO.N,GND*%
X170250000Y-110520000D03*
%TD*%
%TO.P,C132,1,1*%
%TO.N,GND*%
X169750000Y-106520000D03*
%TO.P,C132,2,2*%
%TO.N,5V*%
X169750000Y-105980000D03*
%TD*%
D36*
%TO.P,Q1,1,B*%
%TO.N,SBUS*%
X167600000Y-103750000D03*
%TO.P,Q1,2,E*%
%TO.N,GND*%
X167600000Y-102750000D03*
%TO.P,Q1,3,C*%
%TO.N,UART2_RX*%
X168900000Y-103250000D03*
%TD*%
D37*
%TO.N,GND*%
X171500000Y-104500000D03*
X139500000Y-98750000D03*
X136087500Y-106750000D03*
D38*
X137750000Y-92750000D03*
D37*
X162500000Y-122620000D03*
D38*
X137750000Y-123250000D03*
D37*
X142500000Y-118500000D03*
X148200000Y-126440000D03*
X163000000Y-93000000D03*
X153500000Y-122560000D03*
X144500000Y-122560000D03*
X143800000Y-93380000D03*
D38*
X168250000Y-92750000D03*
D37*
X161750000Y-115250000D03*
X171440000Y-95700000D03*
X171440000Y-102300000D03*
X155700000Y-118680000D03*
X148870000Y-113270000D03*
X145800000Y-126440000D03*
X164800000Y-126500000D03*
X167620000Y-106800000D03*
X136087500Y-109750000D03*
X161500000Y-96000000D03*
X155500000Y-93440000D03*
X158200000Y-126500000D03*
X148200000Y-89560000D03*
X148870000Y-113270000D03*
X156400000Y-102700000D03*
X140980000Y-114280000D03*
X139962500Y-111200000D03*
X159990000Y-120201000D03*
X171440000Y-114700000D03*
D38*
X168250000Y-123250000D03*
D37*
X141200000Y-126440000D03*
X135750000Y-114500000D03*
X150500000Y-122560000D03*
X161500000Y-93000000D03*
X146100000Y-89500000D03*
X157300000Y-119820000D03*
X171500000Y-112100000D03*
X139962500Y-104800000D03*
X141500000Y-89500000D03*
X171440000Y-120300000D03*
X142362500Y-96750000D03*
X167560000Y-119000000D03*
X144000000Y-118500000D03*
X167560000Y-100000000D03*
X155800000Y-126440000D03*
X156217502Y-90493511D03*
%TO.N,5V*%
X160000000Y-96000000D03*
X148910000Y-100500000D03*
X139962500Y-105600000D03*
X159850000Y-121000000D03*
X143500000Y-122560000D03*
X167560000Y-118000000D03*
X139962500Y-110400000D03*
X153750000Y-116750000D03*
X167620000Y-105800000D03*
X144000000Y-120500000D03*
X144800000Y-93380000D03*
%TO.N,3V3-IMU*%
X152500000Y-121000000D03*
X158500002Y-103796997D03*
%TO.N,3V3-MCU*%
X158500000Y-119000000D03*
X171204293Y-109544293D03*
X163660000Y-112240000D03*
X159583220Y-99475569D03*
X162380000Y-112490000D03*
X152450735Y-100049265D03*
X166250000Y-113000000D03*
X152000000Y-107599000D03*
%TO.N,3V3*%
X155750000Y-122500000D03*
X164270000Y-93000000D03*
X135750000Y-100150000D03*
%TO.N,/AT32/VBATADC*%
X162350167Y-103149832D03*
X158000001Y-91651471D03*
%TO.N,Net-(U52-VCC)*%
X140016163Y-119984074D03*
%TO.N,Net-(D2-A)*%
X135650000Y-117000000D03*
X140500000Y-121500000D03*
X162750000Y-124500000D03*
%TO.N,Net-(C29-Pad1)*%
X142500000Y-115500000D03*
%TO.N,Net-(U10-VOUT)*%
X144500000Y-116500000D03*
%TO.N,Net-(U10-VIN)*%
X137000000Y-99400000D03*
X144716000Y-113540000D03*
X144200000Y-109600000D03*
X142000000Y-91350000D03*
%TO.N,VBAT*%
X150595740Y-98445740D03*
X167560000Y-101000000D03*
X146500000Y-98830000D03*
X142900000Y-111200000D03*
X139550000Y-114250000D03*
X156500000Y-93440000D03*
X142300000Y-116500000D03*
%TO.N,Net-(U52-SW)*%
X140287737Y-117206103D03*
%TO.N,Net-(USB1-CC2)*%
X138000000Y-109750000D03*
%TO.N,Net-(USB1-CC1)*%
X138000000Y-106750000D03*
%TO.N,Net-(U8-NRST)*%
X160500000Y-103500000D03*
%TO.N,Net-(U8-PB2)*%
X155600000Y-109515627D03*
%TO.N,Net-(U8-PC13)*%
X160885927Y-100311630D03*
%TO.N,Net-(U8-PC14)*%
X160750000Y-101100000D03*
%TO.N,CUR*%
X158543592Y-104595809D03*
X153500000Y-93440000D03*
%TO.N,Net-(U52-PG)*%
X138999007Y-117081970D03*
%TO.N,Net-(U4-Output)*%
X161450735Y-102549265D03*
%TO.N,Net-(U4-Input)*%
X158500002Y-102250000D03*
%TO.N,UART3_TX*%
X159024000Y-116976000D03*
X155399000Y-113351000D03*
X159500000Y-122620000D03*
%TO.N,VTX*%
X161500000Y-122620000D03*
%TO.N,UART3_RX*%
X154475982Y-104763717D03*
%TO.N,9V*%
X149500000Y-122750000D03*
X142500000Y-120500000D03*
X139250000Y-101000000D03*
X163500000Y-122620000D03*
X160000000Y-93000000D03*
%TO.N,BB-*%
X142500000Y-122560000D03*
%TO.N,UART2_TX*%
X162250000Y-106750000D03*
%TO.N,UART2_RX*%
X156273611Y-106818366D03*
X167560000Y-117000000D03*
X170000000Y-109000000D03*
X169825000Y-104175000D03*
%TO.N,Net-(U7-SW)*%
X139250000Y-97000000D03*
%TO.N,PWM4*%
X156250000Y-104800002D03*
%TO.N,PWM1*%
X156450735Y-97950735D03*
X149500000Y-93440000D03*
X152500000Y-91750000D03*
%TO.N,PWM3*%
X158800002Y-105500000D03*
%TO.N,PWM2*%
X157250000Y-97850000D03*
%TO.N,UART1_RX*%
X152500000Y-122560000D03*
%TO.N,SDA*%
X168801473Y-96350000D03*
X170239000Y-101250000D03*
X164900000Y-109850000D03*
X154400000Y-107750000D03*
X167620000Y-109800000D03*
X159850000Y-109958585D03*
X165600000Y-96500000D03*
X161740078Y-91349000D03*
%TO.N,SCL*%
X160000000Y-90000000D03*
X151832815Y-99332815D03*
X170000000Y-103000000D03*
X167620000Y-110800000D03*
X155000000Y-89701000D03*
X168250000Y-95750000D03*
%TO.N,UART1_TX*%
X151500000Y-122560000D03*
%TO.N,UART7_TX*%
X167500000Y-108750000D03*
%TO.N,SBUS*%
X163000000Y-90000000D03*
X171500000Y-108250000D03*
%TO.N,UART7_RX*%
X158900000Y-95500000D03*
X167500000Y-107750000D03*
%TO.N,BOOT*%
X137000000Y-95900000D03*
X167560000Y-97000000D03*
X155750000Y-95750000D03*
X156750000Y-100599998D03*
%TO.N,UART5_RX*%
X165031587Y-97468413D03*
X167560000Y-99000000D03*
X159940868Y-98121722D03*
%TO.N,UART5_TX*%
X160681397Y-98539000D03*
%TO.N,SPI2_CS*%
X153250000Y-113090003D03*
%TO.N,SP1_SCK*%
X158500000Y-110251000D03*
X156500000Y-110390000D03*
%TO.N,SP1_CS*%
X156501000Y-107585372D03*
X158600000Y-107082207D03*
%TO.N,GYRO_EXTI*%
X159250000Y-108650000D03*
X154298064Y-102243981D03*
%TO.N,D+*%
X138500000Y-108250000D03*
%TO.N,D-*%
X143250000Y-107750000D03*
%TO.N,SWDCLK*%
X153902000Y-97600000D03*
X154750000Y-94750000D03*
X164500000Y-96000000D03*
%TO.N,SPI2_MISO*%
X162380000Y-118260000D03*
X153000000Y-110990000D03*
%TO.N,SWDIO*%
X151232815Y-99932812D03*
X164250000Y-91250000D03*
X150700472Y-89701000D03*
%TO.N,BOX_CS*%
X163660000Y-118260000D03*
X162500000Y-108400000D03*
%TO.N,SPI2_MOSI*%
X153250000Y-112290000D03*
X159850000Y-112490000D03*
%TO.N,LED*%
X159000000Y-94150000D03*
X151000000Y-103750000D03*
X158833182Y-91483201D03*
%TO.N,SPI2_SCK*%
X161120000Y-112490000D03*
X153750000Y-111640000D03*
%TD*%
D39*
%TO.N,GND*%
X157750000Y-121000000D02*
X157480000Y-120730000D01*
X167600000Y-102750000D02*
X166959000Y-102109000D01*
X156281013Y-90430000D02*
X157400000Y-90430000D01*
X162500000Y-122620000D02*
X163230000Y-121890000D01*
X154500000Y-120230000D02*
X154000000Y-120230000D01*
X144150000Y-125250000D02*
X144610000Y-125250000D01*
X170500000Y-113502000D02*
X170006000Y-113996000D01*
X158200000Y-99600000D02*
X158200000Y-100900000D01*
X168820000Y-113895000D02*
X168820000Y-113470000D01*
X170250000Y-110520000D02*
X170750000Y-110520000D01*
X167790000Y-118770000D02*
X167560000Y-119000000D01*
X170500000Y-112030000D02*
X171430000Y-112030000D01*
X155907000Y-117020000D02*
X156000000Y-116927000D01*
X155500000Y-118480000D02*
X155700000Y-118680000D01*
X153500000Y-120230000D02*
X153000000Y-120230000D01*
X155500000Y-117020000D02*
X155500000Y-118480000D01*
X157300000Y-120550000D02*
X157300000Y-119820000D01*
X167654000Y-113996000D02*
X168719000Y-113996000D01*
X167520000Y-113470000D02*
X167520000Y-113862000D01*
X158200000Y-100900000D02*
X156400000Y-102700000D01*
X158836146Y-103300000D02*
X158387146Y-102851000D01*
X155500000Y-117020000D02*
X155907000Y-117020000D01*
X157750000Y-121500000D02*
X157750000Y-121000000D01*
D40*
X158448000Y-116737412D02*
X158805412Y-116380000D01*
D39*
X159789000Y-120000000D02*
X159990000Y-120201000D01*
X142500000Y-118500000D02*
X144000000Y-118500000D01*
X158910000Y-120520000D02*
X159250000Y-120520000D01*
X166959000Y-102109000D02*
X166959000Y-100601000D01*
X156020000Y-120250000D02*
X156020000Y-120020000D01*
X156353991Y-90630000D02*
X156217502Y-90493511D01*
X143980000Y-92250000D02*
X143980000Y-91500000D01*
X155500000Y-117020000D02*
X155000000Y-117020000D01*
X166959000Y-100601000D02*
X167560000Y-100000000D01*
X156000000Y-116927000D02*
X156000000Y-116260000D01*
D40*
X159410000Y-118260000D02*
X158448000Y-117298000D01*
D41*
X163480000Y-93250000D02*
X163250000Y-93250000D01*
D39*
X159270000Y-120500000D02*
X159270000Y-120000000D01*
D41*
X158500000Y-126000000D02*
X158200000Y-126300000D01*
X158200000Y-126300000D02*
X158200000Y-126500000D01*
D39*
X159270000Y-120000000D02*
X159789000Y-120000000D01*
X155000000Y-92000000D02*
X154520000Y-92000000D01*
D41*
X163250000Y-92750000D02*
X163000000Y-93000000D01*
D39*
X153500000Y-120230000D02*
X154000000Y-120230000D01*
X157000000Y-120730000D02*
X156500000Y-120730000D01*
X171250000Y-110520000D02*
X171250000Y-111850000D01*
X144610000Y-125250000D02*
X145800000Y-126440000D01*
D40*
X159850000Y-118260000D02*
X159410000Y-118260000D01*
D39*
X170500000Y-112030000D02*
X170500000Y-113502000D01*
X169480000Y-112030000D02*
X170500000Y-112030000D01*
X168750000Y-118770000D02*
X167790000Y-118770000D01*
X156217502Y-90493511D02*
X156281013Y-90430000D01*
X157480000Y-121770000D02*
X157750000Y-121500000D01*
X157480000Y-120730000D02*
X157300000Y-120550000D01*
X156500000Y-120730000D02*
X156020000Y-120250000D01*
X168719000Y-113996000D02*
X168820000Y-113895000D01*
D41*
X161020000Y-96000000D02*
X161500000Y-96000000D01*
D39*
X167520000Y-113862000D02*
X167654000Y-113996000D01*
X156270000Y-90546009D02*
X156217502Y-90493511D01*
X163230000Y-121890000D02*
X163230000Y-121250000D01*
X169000000Y-106520000D02*
X167900000Y-106520000D01*
X155750000Y-120750000D02*
X156000000Y-120500000D01*
X143980000Y-93200000D02*
X143800000Y-93380000D01*
D41*
X163480000Y-92750000D02*
X163250000Y-92750000D01*
D39*
X170006000Y-113996000D02*
X168719000Y-113996000D01*
X171430000Y-112030000D02*
X171500000Y-112100000D01*
D40*
X160620000Y-116380000D02*
X161750000Y-115250000D01*
D39*
X155750000Y-119750000D02*
X154980000Y-119750000D01*
X157330000Y-121770000D02*
X157480000Y-121770000D01*
X158150059Y-102750000D02*
X156450000Y-102750000D01*
X156020000Y-120020000D02*
X155750000Y-119750000D01*
X159250000Y-120520000D02*
X159270000Y-120500000D01*
D40*
X158805412Y-116380000D02*
X160620000Y-116380000D01*
X158448000Y-117298000D02*
X158448000Y-116737412D01*
D39*
X156450000Y-102750000D02*
X156400000Y-102700000D01*
X158387146Y-102851000D02*
X158251059Y-102851000D01*
X143980000Y-92250000D02*
X143980000Y-93200000D01*
X169750000Y-106520000D02*
X169000000Y-106520000D01*
X158251059Y-102851000D02*
X158150059Y-102750000D01*
X155500000Y-93440000D02*
X155500000Y-92500000D01*
X156000000Y-120500000D02*
X156000000Y-120270000D01*
X156000000Y-120270000D02*
X156020000Y-120250000D01*
X159500000Y-103300000D02*
X158836146Y-103300000D01*
X156270000Y-91750000D02*
X156270000Y-90546009D01*
X154980000Y-119750000D02*
X154500000Y-120230000D01*
X170750000Y-110520000D02*
X171250000Y-110520000D01*
X157480000Y-120730000D02*
X157000000Y-120730000D01*
X171250000Y-111850000D02*
X171500000Y-112100000D01*
D41*
X163250000Y-93250000D02*
X163000000Y-93000000D01*
D39*
X156000000Y-116260000D02*
X156500000Y-116260000D01*
X167900000Y-106520000D02*
X167620000Y-106800000D01*
X155500000Y-92500000D02*
X155000000Y-92000000D01*
%TO.N,5V*%
X158740000Y-121640000D02*
X158910000Y-121470000D01*
X155501057Y-123101000D02*
X155090000Y-122689943D01*
X157280000Y-122720000D02*
X157000000Y-123000000D01*
X144520000Y-92250000D02*
X144520000Y-91500000D01*
X157330000Y-122720000D02*
X158250000Y-121800000D01*
X156670000Y-122730000D02*
X156520000Y-122730000D01*
X168750000Y-118230000D02*
X167790000Y-118230000D01*
X155330029Y-121950029D02*
X155090000Y-121710000D01*
X156520000Y-122730000D02*
X156149000Y-123101000D01*
X167560000Y-118000000D02*
X166410000Y-118000000D01*
D41*
X160480000Y-96000000D02*
X160000000Y-96000000D01*
D39*
X155090000Y-122689943D02*
X155090000Y-121710000D01*
X158410000Y-121640000D02*
X158740000Y-121640000D01*
X159530000Y-121470000D02*
X158910000Y-121470000D01*
X166410000Y-118000000D02*
X165250000Y-116840000D01*
X155530057Y-121870000D02*
X155450028Y-121950029D01*
X159850000Y-121150000D02*
X159530000Y-121470000D01*
X156730000Y-122730000D02*
X156670000Y-122730000D01*
X158250000Y-121800000D02*
X158250000Y-121480000D01*
X158250000Y-121480000D02*
X158410000Y-121640000D01*
X167800000Y-105980000D02*
X167620000Y-105800000D01*
X157000000Y-123000000D02*
X156730000Y-122730000D01*
X167790000Y-118230000D02*
X167560000Y-118000000D01*
D41*
X154250000Y-116250000D02*
X153750000Y-116750000D01*
D39*
X155450028Y-121950029D02*
X155330029Y-121950029D01*
X144520000Y-92250000D02*
X144520000Y-93100000D01*
X169000000Y-105980000D02*
X167800000Y-105980000D01*
X155580000Y-121870000D02*
X155530057Y-121870000D01*
X169750000Y-105980000D02*
X169000000Y-105980000D01*
X157330000Y-122720000D02*
X157280000Y-122720000D01*
X159850000Y-121000000D02*
X159850000Y-121150000D01*
X155750000Y-121700000D02*
X155580000Y-121870000D01*
X156149000Y-123101000D02*
X155501057Y-123101000D01*
D41*
X154250000Y-113740000D02*
X154250000Y-116250000D01*
D39*
X144520000Y-93100000D02*
X144800000Y-93380000D01*
%TO.N,3V3-IMU*%
X152730000Y-120770000D02*
X152539000Y-120579000D01*
X152539000Y-119744000D02*
X153002000Y-119281000D01*
X152539000Y-120579000D02*
X152539000Y-119744000D01*
X152730000Y-120770000D02*
X152500000Y-121000000D01*
X154500000Y-120770000D02*
X154000000Y-120770000D01*
X153500000Y-120770000D02*
X154000000Y-120770000D01*
X153500000Y-120770000D02*
X153000000Y-120770000D01*
X158596999Y-103700000D02*
X158500002Y-103796997D01*
X153000000Y-120770000D02*
X152730000Y-120770000D01*
X153002000Y-119281000D02*
X155948943Y-119281000D01*
X157000000Y-118229943D02*
X157000000Y-116260000D01*
X159500000Y-103700000D02*
X158596999Y-103700000D01*
X154520000Y-120750000D02*
X154500000Y-120770000D01*
X155090000Y-120750000D02*
X154520000Y-120750000D01*
X155948943Y-119281000D02*
X157000000Y-118229943D01*
%TO.N,Net-(U2-VDD)*%
X155500000Y-116480000D02*
X155000000Y-116480000D01*
X155000000Y-116480000D02*
X155000000Y-116240000D01*
X155000000Y-116240000D02*
X155240000Y-116000000D01*
%TO.N,3V3-MCU*%
X158250000Y-119250000D02*
X158500000Y-119000000D01*
X153300000Y-100500000D02*
X152901470Y-100500000D01*
X154200000Y-105800000D02*
X154200000Y-106800000D01*
X169379000Y-112944000D02*
X169480000Y-113045000D01*
X168294000Y-112944000D02*
X168820000Y-112418000D01*
X166250000Y-113000000D02*
X166500000Y-112750000D01*
X170750000Y-109980000D02*
X171250000Y-109980000D01*
X153500000Y-107500000D02*
X152099000Y-107500000D01*
X159458789Y-99600000D02*
X159583220Y-99475569D01*
X171204293Y-109544293D02*
X171250000Y-109590000D01*
X152099000Y-107500000D02*
X152000000Y-107599000D01*
X166260000Y-112000000D02*
X166260000Y-112500000D01*
X168294000Y-112944000D02*
X169379000Y-112944000D01*
D40*
X158676000Y-119176000D02*
X158500000Y-119000000D01*
D39*
X158600000Y-99600000D02*
X159458789Y-99600000D01*
D40*
X160204000Y-119176000D02*
X158676000Y-119176000D01*
D39*
X169510000Y-113500000D02*
X169480000Y-113470000D01*
X159500000Y-100500000D02*
X159500000Y-99558789D01*
X171250000Y-109590000D02*
X171250000Y-109980000D01*
X169480000Y-113045000D02*
X169480000Y-113470000D01*
X152901470Y-100500000D02*
X152450735Y-100049265D01*
D40*
X161120000Y-118260000D02*
X160204000Y-119176000D01*
D39*
X168180000Y-113058000D02*
X168294000Y-112944000D01*
X169843000Y-109980000D02*
X170250000Y-109980000D01*
X168820000Y-112418000D02*
X168820000Y-112030000D01*
X166260000Y-112500000D02*
X166510000Y-112750000D01*
X168820000Y-111003000D02*
X169843000Y-109980000D01*
X154200000Y-106800000D02*
X153500000Y-107500000D01*
X158250000Y-120520000D02*
X158250000Y-119250000D01*
X166500000Y-112750000D02*
X166510000Y-112750000D01*
X168180000Y-113470000D02*
X168180000Y-113058000D01*
X159500000Y-99558789D02*
X159583220Y-99475569D01*
X168820000Y-112030000D02*
X168820000Y-111003000D01*
X170250000Y-109980000D02*
X170750000Y-109980000D01*
D40*
%TO.N,Net-(U3-EP)*%
X157000000Y-121260000D02*
X157030000Y-121230000D01*
X157000000Y-122250000D02*
X157000000Y-121260000D01*
D41*
%TO.N,3V3*%
X164270000Y-92770000D02*
X164250000Y-92750000D01*
X164270000Y-93000000D02*
X164020000Y-93250000D01*
D39*
X156670000Y-121770000D02*
X156480000Y-121770000D01*
X156480000Y-121770000D02*
X155750000Y-122500000D01*
D41*
X164270000Y-93000000D02*
X164270000Y-92770000D01*
X164250000Y-92750000D02*
X164020000Y-92750000D01*
D39*
%TO.N,/AT32/VBATADC*%
X159500000Y-104100000D02*
X161400000Y-104100000D01*
X157598530Y-91168530D02*
X157413550Y-90983550D01*
X161400000Y-104100000D02*
X162500000Y-103000000D01*
X158000001Y-91651471D02*
X157598530Y-91250000D01*
X162500000Y-103000000D02*
X162350167Y-103149832D01*
X156750000Y-92500000D02*
X156750000Y-91750000D01*
X156770000Y-91250000D02*
X156770000Y-91730000D01*
X157598530Y-91250000D02*
X157598530Y-91168530D01*
X156770000Y-91730000D02*
X156750000Y-91750000D01*
X156770000Y-91250000D02*
X157598530Y-91250000D01*
D40*
%TO.N,Net-(U52-VCC)*%
X139500000Y-117740000D02*
X139500000Y-119467911D01*
X139500000Y-119467911D02*
X140016163Y-119984074D01*
D39*
%TO.N,Net-(D2-A)*%
X165250000Y-120160000D02*
X165250000Y-122000000D01*
X139250000Y-120250000D02*
X137950000Y-120250000D01*
X140500000Y-121500000D02*
X139250000Y-120250000D01*
X137950000Y-120250000D02*
X135650000Y-117950000D01*
X163770000Y-121250000D02*
X164160000Y-121250000D01*
X165250000Y-122000000D02*
X162750000Y-124500000D01*
X164160000Y-121250000D02*
X165250000Y-120160000D01*
X135650000Y-117950000D02*
X135650000Y-117000000D01*
%TO.N,Net-(C29-Pad1)*%
X159325000Y-123500000D02*
X156315686Y-123500000D01*
X160960000Y-123490000D02*
X160200000Y-124250000D01*
X155335371Y-123501000D02*
X154987371Y-123849000D01*
X160075000Y-124250000D02*
X159325000Y-123500000D01*
X154987371Y-123849000D02*
X148416100Y-123849000D01*
X156165272Y-123649000D02*
X155834729Y-123649000D01*
X146250000Y-121682900D02*
X146250000Y-115750000D01*
X155784733Y-123599001D02*
X155783314Y-123599000D01*
X156315686Y-123500000D02*
X156216688Y-123598998D01*
X146000000Y-115500000D02*
X142500000Y-115500000D01*
X155834729Y-123649000D02*
X155784733Y-123599001D01*
X162000000Y-123490000D02*
X160960000Y-123490000D01*
X160200000Y-124250000D02*
X160075000Y-124250000D01*
X148416100Y-123849000D02*
X146250000Y-121682900D01*
X155783314Y-123599000D02*
X155685314Y-123501000D01*
X155685314Y-123501000D02*
X155335371Y-123501000D01*
X156215272Y-123599000D02*
X156165272Y-123649000D01*
X156216688Y-123598998D02*
X156215277Y-123598998D01*
X146250000Y-115750000D02*
X146000000Y-115500000D01*
X156215277Y-123598998D02*
X156215272Y-123599000D01*
%TO.N,Net-(U10-VOUT)*%
X160896000Y-124750000D02*
X160896000Y-124821000D01*
X161250000Y-124300000D02*
X161250000Y-124750000D01*
X158250000Y-124000000D02*
X156381372Y-124000000D01*
X159504000Y-124821000D02*
X159504000Y-124750000D01*
X161250000Y-124750000D02*
X160896000Y-124750000D01*
X156331371Y-124050000D02*
X155668628Y-124050000D01*
X159000000Y-124750000D02*
X158250000Y-124000000D01*
X156381372Y-124000000D02*
X156331371Y-124050000D01*
X161300000Y-124250000D02*
X161250000Y-124300000D01*
X155668628Y-124050000D02*
X155468628Y-124250000D01*
X145250000Y-116250000D02*
X144750000Y-116250000D01*
X160896000Y-124821000D02*
X159504000Y-124821000D01*
X145750000Y-121750000D02*
X145750000Y-116750000D01*
X144750000Y-116250000D02*
X144500000Y-116500000D01*
X148250000Y-124250000D02*
X145750000Y-121750000D01*
X159504000Y-124750000D02*
X159000000Y-124750000D01*
X155468628Y-124250000D02*
X148250000Y-124250000D01*
X145750000Y-116750000D02*
X145250000Y-116250000D01*
%TO.N,Net-(U10-VIN)*%
X144716000Y-113540000D02*
X138290000Y-113540000D01*
X138290000Y-113540000D02*
X137000000Y-112250000D01*
X144200000Y-113024000D02*
X144200000Y-109600000D01*
X144716000Y-113540000D02*
X144200000Y-113024000D01*
X137000000Y-112250000D02*
X137000000Y-98400057D01*
D42*
%TO.N,VBAT*%
X146884260Y-98445740D02*
X146500000Y-98830000D01*
X142300000Y-116500000D02*
X141800000Y-116500000D01*
X150595740Y-98445740D02*
X146884260Y-98445740D01*
D39*
X156270000Y-93210000D02*
X156500000Y-93440000D01*
D42*
X141800000Y-116500000D02*
X139550000Y-114250000D01*
D39*
X156270000Y-92500000D02*
X156270000Y-93210000D01*
D40*
%TO.N,Net-(U48-EP)*%
X158600000Y-119940000D02*
X158580000Y-119960000D01*
X158580000Y-121000000D02*
X158580000Y-119960000D01*
D39*
%TO.N,Net-(U52-SW)*%
X139513604Y-116431970D02*
X140287737Y-117206103D01*
X138418030Y-116431970D02*
X139513604Y-116431970D01*
X137850000Y-117000000D02*
X138418030Y-116431970D01*
D40*
%TO.N,Net-(U53-EP)*%
X155420000Y-121230000D02*
X155420000Y-120180000D01*
X155420000Y-120180000D02*
X155450000Y-120150000D01*
D39*
%TO.N,Net-(Q2-B)*%
X144150000Y-124250000D02*
X145010000Y-124250000D01*
%TO.N,Net-(U8-NRST)*%
X160500000Y-103250000D02*
X160150000Y-102900000D01*
X160150000Y-102900000D02*
X159500000Y-102900000D01*
X160500000Y-103500000D02*
X160500000Y-103250000D01*
%TO.N,Net-(U8-PB2)*%
X155600000Y-106650000D02*
X155600000Y-109515627D01*
X155800000Y-106450000D02*
X155800000Y-105800000D01*
X155800000Y-106450000D02*
X155600000Y-106650000D01*
D40*
%TO.N,Net-(U8-PC13)*%
X160100002Y-100900000D02*
X159500000Y-100900000D01*
X160697557Y-100500000D02*
X160500002Y-100500000D01*
X160885927Y-100311630D02*
X160697557Y-100500000D01*
X160500002Y-100500000D02*
X160100002Y-100900000D01*
%TO.N,Net-(U8-PC14)*%
X159500000Y-101300000D02*
X160550000Y-101300000D01*
X160550000Y-101300000D02*
X160750000Y-101100000D01*
D39*
%TO.N,Net-(U8-PC15)*%
X169750000Y-115250000D02*
X169750000Y-119000000D01*
X167250000Y-114500000D02*
X169000000Y-114500000D01*
X163250000Y-109250000D02*
X165250000Y-109250000D01*
X168000000Y-119750000D02*
X166250000Y-119750000D01*
X161750000Y-108250000D02*
X161750000Y-108500000D01*
X165250000Y-109250000D02*
X165500000Y-109500000D01*
X161750000Y-108500000D02*
X162250000Y-109000000D01*
X169000000Y-119750000D02*
X168000000Y-119750000D01*
X145490000Y-124260000D02*
X145490000Y-124250000D01*
X165250000Y-122710688D02*
X165250000Y-123000000D01*
X169000000Y-114500000D02*
X169750000Y-115250000D01*
X167750000Y-119750000D02*
X165650000Y-121850000D01*
X162200000Y-101700000D02*
X163349000Y-102849000D01*
X163031000Y-125219000D02*
X161181008Y-125219000D01*
X162250000Y-109000000D02*
X163000000Y-109000000D01*
X165500000Y-109500000D02*
X165500000Y-113250000D01*
X163000000Y-109000000D02*
X163250000Y-109250000D01*
X165650000Y-122310688D02*
X165250000Y-122710688D01*
X165650000Y-121850000D02*
X165650000Y-122310688D01*
X159500000Y-101700000D02*
X162200000Y-101700000D01*
X161150008Y-125250000D02*
X146480000Y-125250000D01*
X166500000Y-114250000D02*
X167000000Y-114250000D01*
X163349000Y-102849000D02*
X163349000Y-106651000D01*
X167000000Y-114250000D02*
X167250000Y-114500000D01*
X168000000Y-119750000D02*
X167750000Y-119750000D01*
X169750000Y-119000000D02*
X169000000Y-119750000D01*
X146480000Y-125250000D02*
X145490000Y-124260000D01*
X161181008Y-125219000D02*
X161150008Y-125250000D01*
X163349000Y-106651000D02*
X161750000Y-108250000D01*
X165500000Y-113250000D02*
X166500000Y-114250000D01*
X165250000Y-123000000D02*
X163031000Y-125219000D01*
%TO.N,CUR*%
X158543592Y-104595809D02*
X158639401Y-104500000D01*
X158639401Y-104500000D02*
X159500000Y-104500000D01*
X153500000Y-93440000D02*
X153500000Y-92480000D01*
X153500000Y-92480000D02*
X153980000Y-92000000D01*
%TO.N,Net-(U52-PG)*%
X139500000Y-117260000D02*
X139177037Y-117260000D01*
X139177037Y-117260000D02*
X138999007Y-117081970D01*
%TO.N,Net-(U4-Output)*%
X159500000Y-102100000D02*
X160343179Y-102100000D01*
X161401470Y-102500000D02*
X161450735Y-102549265D01*
X160343179Y-102100000D02*
X160743179Y-102500000D01*
X160743179Y-102500000D02*
X161401470Y-102500000D01*
%TO.N,Net-(U4-Input)*%
X158500002Y-102250000D02*
X158500002Y-102360936D01*
X158500002Y-102360936D02*
X158639066Y-102500000D01*
X158639066Y-102500000D02*
X159500000Y-102500000D01*
%TO.N,UART3_TX*%
X162981000Y-119139000D02*
X162981000Y-117675200D01*
X155000000Y-112952000D02*
X155000000Y-105800000D01*
X155399000Y-113351000D02*
X155000000Y-112952000D01*
X162981000Y-117675200D02*
X162624800Y-117319000D01*
X159500000Y-122620000D02*
X162981000Y-119139000D01*
X162624800Y-117319000D02*
X159367000Y-117319000D01*
X159367000Y-117319000D02*
X159024000Y-116976000D01*
D40*
%TO.N,VTX*%
X161890000Y-123010000D02*
X161500000Y-122620000D01*
D39*
X161750000Y-122870000D02*
X161500000Y-122620000D01*
D40*
X162000000Y-123010000D02*
X161890000Y-123010000D01*
D39*
%TO.N,UART3_RX*%
X155400000Y-105800000D02*
X155400000Y-105150000D01*
X155400000Y-105150000D02*
X155013717Y-104763717D01*
X155013717Y-104763717D02*
X154475982Y-104763717D01*
%TO.N,9V*%
X139250000Y-100750000D02*
X139250000Y-101000000D01*
%TO.N,BB-*%
X142850000Y-124750000D02*
X142850000Y-122910000D01*
X142850000Y-122910000D02*
X142500000Y-122560000D01*
%TO.N,UART2_TX*%
X160400000Y-104900000D02*
X159500000Y-104900000D01*
X162250000Y-106750000D02*
X160400000Y-104900000D01*
%TO.N,UART2_RX*%
X169750000Y-109250000D02*
X170000000Y-109000000D01*
D40*
X156600000Y-106491977D02*
X156273611Y-106818366D01*
D39*
X169750000Y-109510000D02*
X169750000Y-109250000D01*
X168900000Y-103250000D02*
X169825000Y-104175000D01*
D40*
X156600000Y-105800000D02*
X156600000Y-106491977D01*
D39*
%TO.N,PWM4*%
X156250000Y-104800002D02*
X156250000Y-104948000D01*
X156200000Y-104998000D02*
X156200000Y-105800000D01*
X156250000Y-104948000D02*
X156200000Y-104998000D01*
%TO.N,PWM1*%
X151750000Y-91750000D02*
X152500000Y-91750000D01*
X151250000Y-92250000D02*
X151750000Y-91750000D01*
X149500000Y-92500000D02*
X149750000Y-92250000D01*
X156200000Y-98201470D02*
X156450735Y-97950735D01*
X149500000Y-93440000D02*
X149500000Y-92500000D01*
X149750000Y-92250000D02*
X151250000Y-92250000D01*
X156200000Y-99600000D02*
X156200000Y-98201470D01*
%TO.N,PWM3*%
X158600000Y-105700002D02*
X158800002Y-105500000D01*
X158600000Y-105800000D02*
X158600000Y-105700002D01*
%TO.N,PWM2*%
X157250000Y-97850000D02*
X157250000Y-98000000D01*
X156600000Y-98650000D02*
X156600000Y-99600000D01*
X157250000Y-98000000D02*
X156600000Y-98650000D01*
%TO.N,UART1_RX*%
X149250000Y-113750000D02*
X149500000Y-113500000D01*
X151612000Y-123448000D02*
X149198000Y-123448000D01*
X149250000Y-112750000D02*
X149250000Y-104750000D01*
X152500000Y-122500000D02*
X152500000Y-122560000D01*
X148750000Y-123000000D02*
X148750000Y-121000000D01*
X150000000Y-104000000D02*
X150000000Y-103344256D01*
X149250000Y-120500000D02*
X149250000Y-113750000D01*
X149198000Y-123448000D02*
X148750000Y-123000000D01*
X152500000Y-122560000D02*
X151612000Y-123448000D01*
X150000000Y-103344256D02*
X150000000Y-103500000D01*
X151000000Y-102500000D02*
X150844256Y-102500000D01*
X151000000Y-102500000D02*
X153300000Y-102500000D01*
X149250000Y-104750000D02*
X150000000Y-104000000D01*
X150844256Y-102500000D02*
X150000000Y-103344256D01*
X149500000Y-113500000D02*
X149500000Y-113000000D01*
X149500000Y-113000000D02*
X149250000Y-112750000D01*
X148750000Y-121000000D02*
X149250000Y-120500000D01*
D40*
%TO.N,SDA*%
X162424000Y-93674000D02*
X162424000Y-92032922D01*
X165600000Y-95300000D02*
X164300000Y-94000000D01*
X164300000Y-94000000D02*
X162750000Y-94000000D01*
D39*
X168180000Y-112455000D02*
X167885000Y-112750000D01*
X154400000Y-107750000D02*
X154400000Y-107350000D01*
X163500000Y-109958585D02*
X164791415Y-109958585D01*
X159850000Y-109958585D02*
X163500000Y-109958585D01*
D40*
X162424000Y-92032922D02*
X161740078Y-91349000D01*
D39*
X154600000Y-107150000D02*
X154600000Y-105800000D01*
D40*
X162750000Y-94000000D02*
X162424000Y-93674000D01*
D39*
X167885000Y-112750000D02*
X166990000Y-112750000D01*
X168180000Y-112030000D02*
X168221000Y-111989000D01*
X168221000Y-110401000D02*
X167620000Y-109800000D01*
X168180000Y-112030000D02*
X168180000Y-112455000D01*
X154400000Y-107350000D02*
X154600000Y-107150000D01*
D40*
X168801473Y-96350000D02*
X170239000Y-97787527D01*
D39*
X168221000Y-111989000D02*
X168221000Y-110401000D01*
D40*
X170239000Y-97787527D02*
X170239000Y-101250000D01*
X165600000Y-96500000D02*
X165600000Y-95300000D01*
D39*
X164791415Y-109958585D02*
X164900000Y-109850000D01*
%TO.N,SCL*%
X169750000Y-95750000D02*
X170839000Y-96839000D01*
X170839000Y-101250000D02*
X170839000Y-104771900D01*
X155199000Y-89502000D02*
X159502000Y-89502000D01*
X170839000Y-102161000D02*
X170000000Y-103000000D01*
X151832815Y-99332815D02*
X151832815Y-100382815D01*
X170839000Y-101250000D02*
X170839000Y-102161000D01*
X167520000Y-112030000D02*
X167520000Y-110900000D01*
X170839000Y-104771900D02*
X171899000Y-105831900D01*
X155000000Y-89701000D02*
X155199000Y-89502000D01*
X167520000Y-110900000D02*
X167620000Y-110800000D01*
X168250000Y-95750000D02*
X169750000Y-95750000D01*
X151832815Y-100382815D02*
X152350000Y-100900000D01*
X159502000Y-89502000D02*
X160000000Y-90000000D01*
X152350000Y-100900000D02*
X153300000Y-100900000D01*
X167490000Y-112000000D02*
X167520000Y-112030000D01*
X166740000Y-112000000D02*
X167490000Y-112000000D01*
X170839000Y-96839000D02*
X170839000Y-101250000D01*
D40*
%TO.N,UART1_TX*%
X151500000Y-122560000D02*
X149626000Y-120686000D01*
X149626000Y-120686000D02*
X149626000Y-113905744D01*
X150376000Y-103500000D02*
X150976000Y-102900000D01*
X150376000Y-104155744D02*
X150376000Y-103500000D01*
X149876000Y-113655744D02*
X149876000Y-112750000D01*
X149626000Y-104905744D02*
X150376000Y-104155744D01*
X149626000Y-113905744D02*
X149876000Y-113655744D01*
X150976000Y-102900000D02*
X153300000Y-102900000D01*
X149626000Y-112500000D02*
X149626000Y-104905744D01*
X149876000Y-112750000D02*
X149626000Y-112500000D01*
D39*
%TO.N,UART7_TX*%
X155399000Y-98500000D02*
X155400000Y-98501000D01*
D40*
X156094256Y-96874000D02*
X156844313Y-96874000D01*
X157946033Y-97164346D02*
X159448675Y-97164346D01*
X155399000Y-97500000D02*
X155468256Y-97500000D01*
X160642715Y-97374000D02*
X162905744Y-97374000D01*
X157654687Y-96873000D02*
X157946033Y-97164346D01*
X160365437Y-97096722D02*
X160642715Y-97374000D01*
X156845313Y-96873000D02*
X157654687Y-96873000D01*
X156844313Y-96874000D02*
X156845313Y-96873000D01*
X165300000Y-99768256D02*
X165300000Y-108300000D01*
X155468256Y-97500000D02*
X156094256Y-96874000D01*
X165300000Y-108300000D02*
X165750000Y-108750000D01*
D39*
X155400000Y-98501000D02*
X155400000Y-99600000D01*
D40*
X159448675Y-97164346D02*
X159516299Y-97096722D01*
X159516299Y-97096722D02*
X160365437Y-97096722D01*
X165750000Y-108750000D02*
X167500000Y-108750000D01*
D39*
X155399000Y-97500000D02*
X155399000Y-98500000D01*
D40*
X162905744Y-97374000D02*
X165300000Y-99768256D01*
D39*
%TO.N,SBUS*%
X166201000Y-96748943D02*
X166199943Y-96750000D01*
X164250000Y-90250000D02*
X164900000Y-90900000D01*
X165976000Y-96026057D02*
X166201000Y-96251057D01*
X163250000Y-90250000D02*
X164250000Y-90250000D01*
X169000000Y-99600000D02*
X169000000Y-102350000D01*
X167600000Y-103750000D02*
X167600000Y-103850000D01*
X169000000Y-102350000D02*
X168601000Y-102749000D01*
X168344000Y-102749000D02*
X168344000Y-103006000D01*
X163000000Y-90000000D02*
X163250000Y-90250000D01*
X167600000Y-103750000D02*
X168626000Y-104776000D01*
X171000000Y-108250000D02*
X171500000Y-108250000D01*
X170276000Y-104776000D02*
X170500000Y-105000000D01*
X170500000Y-105000000D02*
X170500000Y-107750000D01*
X166199943Y-96750000D02*
X166199943Y-96799943D01*
X167808943Y-98399000D02*
X168161000Y-98751057D01*
X168344000Y-103006000D02*
X167600000Y-103750000D01*
X168161000Y-98751057D02*
X168161000Y-98761000D01*
X170500000Y-107750000D02*
X171000000Y-108250000D01*
X164900000Y-94068256D02*
X165976000Y-95144256D01*
X168161000Y-98761000D02*
X169000000Y-99600000D01*
X166201000Y-96251057D02*
X166201000Y-96748943D01*
X168626000Y-104776000D02*
X170276000Y-104776000D01*
X168601000Y-102749000D02*
X168344000Y-102749000D01*
X164900000Y-90900000D02*
X164900000Y-94068256D01*
X165976000Y-95144256D02*
X165976000Y-96026057D01*
X166199943Y-96799943D02*
X167799000Y-98399000D01*
X167799000Y-98399000D02*
X167808943Y-98399000D01*
D40*
%TO.N,UART7_RX*%
X158500000Y-96500000D02*
X158750000Y-96750000D01*
X160510411Y-96746722D02*
X160779125Y-97015436D01*
X158500000Y-95900000D02*
X158900000Y-95500000D01*
X155000000Y-99600000D02*
X155000000Y-97367256D01*
X158500000Y-96500000D02*
X158500000Y-95900000D01*
X159371325Y-96746722D02*
X160510411Y-96746722D01*
X158750000Y-96750000D02*
X159368046Y-96750000D01*
X160779125Y-97015436D02*
X163765436Y-97015436D01*
X155000000Y-97367256D02*
X155867256Y-96500000D01*
X166583000Y-106833000D02*
X167500000Y-107750000D01*
X166583000Y-99833000D02*
X166583000Y-106833000D01*
X163765436Y-97015436D02*
X166583000Y-99833000D01*
X155867256Y-96500000D02*
X158500000Y-96500000D01*
X159368046Y-96750000D02*
X159371325Y-96746722D01*
D39*
%TO.N,BOOT*%
X163701000Y-89101000D02*
X165449000Y-90849000D01*
X140551000Y-93910213D02*
X138561213Y-95900000D01*
X157000000Y-100349998D02*
X156750000Y-100599998D01*
X155750000Y-95750000D02*
X155500000Y-96000000D01*
X147000000Y-91750000D02*
X149649000Y-89101000D01*
X138561213Y-95900000D02*
X136800000Y-95900000D01*
X141500000Y-90750000D02*
X140551000Y-91699000D01*
X140551000Y-91699000D02*
X140551000Y-93910213D01*
X145000000Y-90750000D02*
X147000000Y-92750000D01*
X149649000Y-89101000D02*
X163701000Y-89101000D01*
X165449000Y-90849000D02*
X165449000Y-94050156D01*
X165449000Y-94050156D02*
X167560000Y-96161156D01*
X157000000Y-99600000D02*
X157000000Y-100349998D01*
X155500000Y-96000000D02*
X150250000Y-96000000D01*
X150250000Y-96000000D02*
X147000000Y-92750000D01*
X147000000Y-92750000D02*
X147000000Y-91750000D01*
X167560000Y-96161156D02*
X167560000Y-97000000D01*
X145000000Y-90750000D02*
X141500000Y-90750000D01*
%TO.N,UART5_RX*%
X159760492Y-97941346D02*
X159940868Y-98121722D01*
X165900000Y-97400000D02*
X167500000Y-99000000D01*
X167500000Y-99000000D02*
X167560000Y-99000000D01*
X157400000Y-99600000D02*
X157400000Y-98549943D01*
X159912590Y-98150000D02*
X159940868Y-98121722D01*
X157400000Y-98549943D02*
X158008597Y-97941346D01*
X165031587Y-97468413D02*
X165100000Y-97400000D01*
X165100000Y-97400000D02*
X165900000Y-97400000D01*
X158008597Y-97941346D02*
X159760492Y-97941346D01*
X159906181Y-98150000D02*
X159912590Y-98150000D01*
%TO.N,UART5_TX*%
X158174697Y-98342346D02*
X159250000Y-98342346D01*
X160470397Y-98750000D02*
X160681397Y-98539000D01*
X159250000Y-98342346D02*
X159657654Y-98750000D01*
X159657654Y-98750000D02*
X160470397Y-98750000D01*
X157800000Y-98717043D02*
X158174697Y-98342346D01*
X157800000Y-99600000D02*
X157800000Y-98717043D01*
D40*
%TO.N,SPI2_CS*%
X153300000Y-104900000D02*
X152644388Y-104900000D01*
X152644388Y-104900000D02*
X151272194Y-106272194D01*
X151272194Y-106272194D02*
X151272194Y-107775806D01*
X154326000Y-112028588D02*
X153264585Y-113090003D01*
X154326000Y-110829612D02*
X154326000Y-112028588D01*
D41*
X154250000Y-113260000D02*
X153419997Y-113260000D01*
X153419997Y-113260000D02*
X153250000Y-113090003D01*
D40*
X153264585Y-113090003D02*
X153250000Y-113090003D01*
X151272194Y-107775806D02*
X154326000Y-110829612D01*
D39*
%TO.N,SP1_MISO*%
X157760000Y-111359000D02*
X157760000Y-114500000D01*
X157599000Y-106949000D02*
X157599000Y-109655000D01*
X157502000Y-109752000D02*
X157502000Y-111101000D01*
X157599000Y-109655000D02*
X157502000Y-109752000D01*
X157400000Y-105800000D02*
X157400000Y-106750000D01*
X157400000Y-106750000D02*
X157599000Y-106949000D01*
X157502000Y-111101000D02*
X157760000Y-111359000D01*
%TO.N,SP1_MOSI*%
X157101000Y-107101000D02*
X157101000Y-110638943D01*
X157000000Y-107000000D02*
X157101000Y-107101000D01*
X157000000Y-105800000D02*
X157000000Y-107000000D01*
X157101000Y-110638943D02*
X157000000Y-110739943D01*
X157000000Y-110739943D02*
X157000000Y-114240000D01*
%TO.N,SP1_SCK*%
X156500000Y-110390000D02*
X156500000Y-114240000D01*
X157800000Y-106550000D02*
X157800000Y-105800000D01*
X158000000Y-109751000D02*
X158000000Y-106750000D01*
X158500000Y-110251000D02*
X158000000Y-109751000D01*
X158000000Y-106750000D02*
X157800000Y-106550000D01*
%TO.N,SP1_CS*%
X156000000Y-114240000D02*
X156000000Y-113102057D01*
X155899000Y-113001057D02*
X155899000Y-110141057D01*
D40*
X158200000Y-106418256D02*
X158376000Y-106594256D01*
D39*
X156000000Y-113102057D02*
X155899000Y-113001057D01*
D40*
X158200000Y-105800000D02*
X158200000Y-106418256D01*
X158376000Y-106858207D02*
X158600000Y-107082207D01*
D39*
X155899000Y-110141057D02*
X156501000Y-109539057D01*
D40*
X158376000Y-106594256D02*
X158376000Y-107000000D01*
X158376000Y-106594256D02*
X158376000Y-106858207D01*
D39*
X156501000Y-109539057D02*
X156501000Y-107585372D01*
%TO.N,GYRO_EXTI*%
X154600000Y-100350000D02*
X154298064Y-100651936D01*
X158750000Y-116000000D02*
X157760000Y-116000000D01*
X154298064Y-100651936D02*
X154298064Y-102243981D01*
X154600000Y-99600000D02*
X154600000Y-100350000D01*
X159250000Y-115500000D02*
X158750000Y-116000000D01*
X159250000Y-108650000D02*
X159250000Y-115500000D01*
D40*
%TO.N,D+*%
X144821612Y-101700000D02*
X141500000Y-105021612D01*
X141500000Y-105500000D02*
X138750000Y-108250000D01*
X153300000Y-101700000D02*
X144821612Y-101700000D01*
X138750000Y-108250000D02*
X138500000Y-108250000D01*
X141500000Y-105021612D02*
X141500000Y-105500000D01*
%TO.N,D-*%
X153300000Y-102100000D02*
X144918000Y-102100000D01*
X143250000Y-103768000D02*
X143250000Y-107750000D01*
X144918000Y-102100000D02*
X143250000Y-103768000D01*
D39*
%TO.N,SWDCLK*%
X154750000Y-94750000D02*
X164000000Y-94750000D01*
X153902000Y-98652000D02*
X154200000Y-98950000D01*
X153902000Y-97600000D02*
X153902000Y-98652000D01*
X154200000Y-98950000D02*
X154200000Y-99600000D01*
X164500000Y-95250000D02*
X164500000Y-96000000D01*
X164000000Y-94750000D02*
X164500000Y-95250000D01*
%TO.N,SPI2_MISO*%
X150990000Y-110990000D02*
X150500000Y-110500000D01*
X152150000Y-104100000D02*
X153300000Y-104100000D01*
X153000000Y-110990000D02*
X150990000Y-110990000D01*
X150500000Y-110500000D02*
X150500000Y-105750000D01*
X150500000Y-105750000D02*
X152150000Y-104100000D01*
D40*
%TO.N,SWDIO*%
X151232815Y-100314559D02*
X151232815Y-99932812D01*
X155238588Y-90277000D02*
X155637588Y-89878000D01*
X153300000Y-101300000D02*
X152218256Y-101300000D01*
X163626000Y-90626000D02*
X164250000Y-91250000D01*
X159811412Y-90626000D02*
X163626000Y-90626000D01*
X159063412Y-89878000D02*
X159811412Y-90626000D01*
X150700472Y-89701000D02*
X151276472Y-90277000D01*
X152218256Y-101300000D02*
X151232815Y-100314559D01*
X155637588Y-89878000D02*
X159063412Y-89878000D01*
X151276472Y-90277000D02*
X155238588Y-90277000D01*
D39*
%TO.N,BOX_CS*%
X164500000Y-106500000D02*
X164500000Y-99500000D01*
X155800000Y-97700000D02*
X155800000Y-99600000D01*
X162731002Y-108168998D02*
X162831002Y-108168998D01*
X163660000Y-118260000D02*
X163750000Y-118170000D01*
X157842497Y-97540346D02*
X157816393Y-97566450D01*
X162750000Y-97750000D02*
X160488385Y-97750000D01*
X159603005Y-97540346D02*
X157842497Y-97540346D01*
X160488385Y-97750000D02*
X160210107Y-97471722D01*
X156250000Y-97250000D02*
X155800000Y-97700000D01*
X157498943Y-97249000D02*
X157001057Y-97249000D01*
X164500000Y-99500000D02*
X162750000Y-97750000D01*
X160210107Y-97471722D02*
X159671629Y-97471722D01*
X157000057Y-97250000D02*
X156250000Y-97250000D01*
X162500000Y-108400000D02*
X162731002Y-108168998D01*
X159671629Y-97471722D02*
X159603005Y-97540346D01*
X157001057Y-97249000D02*
X157000057Y-97250000D01*
X162831002Y-108168998D02*
X164500000Y-106500000D01*
X157816393Y-97566450D02*
X157498943Y-97249000D01*
D40*
%TO.N,SPI2_MOSI*%
X150027000Y-105691256D02*
X150027000Y-111277000D01*
X150027000Y-111277000D02*
X151000000Y-112250000D01*
X153300000Y-103700000D02*
X152018256Y-103700000D01*
X153210000Y-112250000D02*
X153250000Y-112290000D01*
X151000000Y-112250000D02*
X153210000Y-112250000D01*
X152018256Y-103700000D02*
X150027000Y-105691256D01*
%TO.N,LED*%
X159000000Y-94150000D02*
X158750000Y-93900000D01*
X158750000Y-91566383D02*
X158833182Y-91483201D01*
X158750000Y-93900000D02*
X158750000Y-91566383D01*
X153300000Y-103300000D02*
X151450000Y-103300000D01*
X151450000Y-103300000D02*
X151000000Y-103750000D01*
%TO.N,SPI2_SCK*%
X150876000Y-106172000D02*
X152548000Y-104500000D01*
X150876000Y-107876000D02*
X150876000Y-106172000D01*
X153750000Y-110750000D02*
X150876000Y-107876000D01*
X152548000Y-104500000D02*
X153300000Y-104500000D01*
X153750000Y-111640000D02*
X153750000Y-110750000D01*
%TD*%
M02*
